<?xml version="1.0" encoding="utf-8"?>
<!-- Generator: Adobe Illustrator 19.2.1, SVG Export Plug-In . SVG Version: 6.00 Build 0)  -->
<svg version="1.1" xmlns="http://www.w3.org/2000/svg" xmlns:xlink="http://www.w3.org/1999/xlink" x="0px" y="0px"
	 viewBox="0 0 392 147" enable-background="new 0 0 392 147" xml:space="preserve">
<g id="frame">
	<g>
		<g>
			<path fill="#C69AC3" d="M1,110.1l-0.7-0.3c0,0,0.3-0.6,0.9-1.8l0.7,0.3C1.3,109.5,1,110.1,1,110.1z M2.9,106.5l-0.7-0.4
				c0.3-0.5,0.6-1.1,1-1.8l0.7,0.4C3.5,105.4,3.2,106,2.9,106.5z M391.3,106.4l-0.4-0.3l0-0.2l0.4-0.1l0-0.1v0.1l0.3-0.1l0.1,0.2
				l-0.4,0.1V106.4z M390.3,104c-0.2-0.5-0.4-1.2-0.6-1.9l0.7-0.3c0.3,0.7,0.5,1.4,0.7,1.9L390.3,104z M4.8,103.1l-0.6-0.4
				c0.3-0.5,0.7-1.1,1-1.7l0.6,0.4C5.5,101.9,5.2,102.5,4.8,103.1z M388.9,100.2c-0.2-0.6-0.5-1.2-0.7-1.9l0.7-0.3
				c0.3,0.7,0.5,1.3,0.7,1.9L388.9,100.2z M6.9,99.6l-0.6-0.4c0.3-0.5,0.7-1.1,1.1-1.7L8,97.9C7.6,98.5,7.3,99.1,6.9,99.6z
				 M387.4,96.6c-0.3-0.6-0.5-1.2-0.8-1.8l0.7-0.3c0.3,0.6,0.6,1.2,0.8,1.8L387.4,96.6z M9.1,96.3l-0.6-0.4c0.4-0.5,0.7-1.1,1.1-1.7
				l0.6,0.4C9.8,95.2,9.4,95.7,9.1,96.3z M11.3,92.9l-0.6-0.4c0.4-0.5,0.7-1.1,1.1-1.7l0.6,0.4C12,91.8,11.6,92.4,11.3,92.9z
				 M385.8,92.9c-0.3-0.6-0.6-1.2-0.9-1.8l0.7-0.3c0.3,0.6,0.6,1.2,0.9,1.8L385.8,92.9z M13.6,89.7L13,89.2c0.4-0.5,0.8-1.1,1.2-1.6
				l0.6,0.4C14.3,88.6,13.9,89.1,13.6,89.7z M384,89.4c-0.3-0.6-0.6-1.2-0.9-1.8l0.7-0.4c0.3,0.6,0.6,1.2,1,1.8L384,89.4z
				 M15.9,86.4L15.3,86c0.4-0.5,0.8-1.1,1.2-1.6l0.6,0.5C16.7,85.4,16.3,85.9,15.9,86.4z M382,85.9c-0.3-0.6-0.7-1.1-1-1.7l0.6-0.4
				c0.3,0.6,0.7,1.2,1,1.7L382,85.9z M18.3,83.2l-0.6-0.5c0.4-0.5,0.8-1,1.2-1.6l0.6,0.5C19.1,82.2,18.7,82.7,18.3,83.2z M380,82.4
				c-0.3-0.6-0.7-1.1-1.1-1.7l0.6-0.4c0.4,0.6,0.7,1.1,1.1,1.7L380,82.4z M20.8,80.1l-0.6-0.5c0.4-0.5,0.8-1,1.3-1.6l0.6,0.5
				C21.6,79.1,21.2,79.6,20.8,80.1z M377.9,79.1c-0.4-0.5-0.7-1.1-1.1-1.7l0.6-0.4c0.4,0.6,0.8,1.1,1.1,1.7L377.9,79.1z M23.3,77
				l-0.6-0.5c0.4-0.5,0.9-1,1.3-1.5l0.6,0.5C24.2,76,23.8,76.5,23.3,77z M375.6,75.8c-0.4-0.5-0.8-1.1-1.2-1.6l0.6-0.4
				c0.4,0.5,0.8,1.1,1.2,1.6L375.6,75.8z M25.9,74l-0.6-0.5c0.4-0.5,0.9-1,1.3-1.5l0.6,0.5C26.8,73,26.4,73.5,25.9,74z M373.3,72.5
				c-0.4-0.5-0.8-1.1-1.2-1.6l0.6-0.5c0.4,0.5,0.8,1.1,1.2,1.6L373.3,72.5z M28.6,71L28,70.5c0.4-0.5,0.9-1,1.3-1.5l0.6,0.5
				C29.5,70,29,70.5,28.6,71z M370.8,69.4c-0.4-0.5-0.8-1-1.3-1.6l0.6-0.5c0.4,0.5,0.8,1,1.3,1.6L370.8,69.4z M31.3,68l-0.5-0.5
				c0.5-0.5,0.9-1,1.4-1.5l0.5,0.5C32.2,67.1,31.7,67.6,31.3,68z M368.3,66.3c-0.4-0.5-0.9-1-1.3-1.5l0.6-0.5c0.4,0.5,0.9,1,1.3,1.5
				L368.3,66.3z M34,65.2l-0.5-0.5c0.5-0.5,0.9-1,1.4-1.4l0.5,0.5C35,64.2,34.5,64.7,34,65.2z M365.7,63.3c-0.4-0.5-0.9-1-1.3-1.5
				l0.6-0.5c0.5,0.5,0.9,1,1.3,1.5L365.7,63.3z M36.8,62.3l-0.5-0.5c0.5-0.5,0.9-0.9,1.4-1.4l0.5,0.5C37.8,61.4,37.3,61.9,36.8,62.3
				z M363,60.4c-0.5-0.5-0.9-1-1.4-1.4l0.5-0.5c0.5,0.5,0.9,1,1.4,1.4L363,60.4z M39.7,59.5L39.2,59c0.5-0.5,1-0.9,1.5-1.4l0.5,0.5
				C40.7,58.6,40.2,59.1,39.7,59.5z M360.2,57.5c-0.5-0.5-0.9-0.9-1.4-1.4l0.5-0.5c0.5,0.5,1,0.9,1.4,1.4L360.2,57.5z M42.6,56.8
				l-0.5-0.6c0.5-0.4,1-0.9,1.5-1.3l0.5,0.6C43.6,55.9,43.1,56.4,42.6,56.8z M357.4,54.7c-0.5-0.5-1-0.9-1.5-1.4l0.5-0.6
				c0.5,0.5,1,0.9,1.5,1.4L357.4,54.7z M45.6,54.1l-0.5-0.6c0.5-0.4,1-0.9,1.5-1.3l0.5,0.6C46.6,53.3,46.1,53.7,45.6,54.1z
				 M354.4,52c-0.5-0.4-1-0.9-1.5-1.3l0.5-0.6c0.5,0.4,1,0.9,1.5,1.3L354.4,52z M48.6,51.5l-0.5-0.6c0.5-0.4,1-0.9,1.5-1.3l0.5,0.6
				C49.6,50.7,49.1,51.1,48.6,51.5z M351.4,49.4c-0.5-0.4-1-0.9-1.5-1.3l0.5-0.6c0.5,0.4,1,0.9,1.5,1.3L351.4,49.4z M51.7,49
				l-0.5-0.6c0.5-0.4,1-0.8,1.6-1.3l0.5,0.6C52.7,48.1,52.2,48.5,51.7,49z M348.4,46.8c-0.5-0.4-1-0.8-1.6-1.2l0.5-0.6
				c0.5,0.4,1,0.8,1.6,1.3L348.4,46.8z M54.8,46.5l-0.5-0.6c0.5-0.4,1-0.8,1.6-1.2l0.5,0.6C55.8,45.6,55.3,46,54.8,46.5z
				 M345.2,44.3c-0.5-0.4-1.1-0.8-1.6-1.2l0.5-0.6c0.5,0.4,1.1,0.8,1.6,1.2L345.2,44.3z M57.9,44l-0.5-0.6c0.5-0.4,1.1-0.8,1.6-1.2
				l0.4,0.6C59,43.2,58.5,43.6,57.9,44z M342.1,41.9c-0.5-0.4-1.1-0.8-1.6-1.2l0.4-0.6c0.5,0.4,1.1,0.8,1.6,1.2L342.1,41.9z
				 M61.1,41.6L60.7,41c0.5-0.4,1.1-0.8,1.6-1.2l0.4,0.6C62.2,40.8,61.7,41.2,61.1,41.6z M338.8,39.6c-0.5-0.4-1.1-0.8-1.6-1.1
				l0.4-0.6c0.6,0.4,1.1,0.8,1.7,1.1L338.8,39.6z M64.4,39.3L64,38.7c0.5-0.4,1.1-0.8,1.6-1.1l0.4,0.6
				C65.5,38.5,64.9,38.9,64.4,39.3z M335.5,37.4c-0.6-0.4-1.1-0.7-1.7-1.1l0.4-0.6c0.6,0.4,1.1,0.7,1.7,1.1L335.5,37.4z M67.7,37
				l-0.4-0.6c0.6-0.4,1.1-0.7,1.7-1.1l0.4,0.6C68.8,36.3,68.2,36.7,67.7,37z M332.2,35.2c-0.6-0.4-1.1-0.7-1.7-1.1l0.4-0.6
				c0.6,0.4,1.1,0.7,1.7,1.1L332.2,35.2z M71,34.9l-0.4-0.6c0.6-0.4,1.1-0.7,1.7-1.1l0.4,0.6C72.1,34.1,71.6,34.5,71,34.9z
				 M328.8,33.1c-0.6-0.3-1.1-0.7-1.7-1l0.4-0.6c0.6,0.3,1.2,0.7,1.7,1L328.8,33.1z M74.4,32.7L74,32.1c0.6-0.3,1.1-0.7,1.7-1
				l0.4,0.6C75.5,32,75,32.4,74.4,32.7z M325.3,31.1c-0.6-0.3-1.2-0.7-1.7-1l0.4-0.7c0.6,0.3,1.2,0.7,1.7,1L325.3,31.1z M77.8,30.7
				L77.4,30c0.6-0.3,1.2-0.7,1.7-1l0.4,0.6C79,30,78.4,30.3,77.8,30.7z M321.8,29.2c-0.6-0.3-1.2-0.6-1.8-0.9l0.3-0.7
				c0.6,0.3,1.2,0.6,1.8,0.9L321.8,29.2z M81.3,28.7L80.9,28c0.6-0.3,1.2-0.7,1.8-1l0.4,0.7C82.4,28,81.9,28.3,81.3,28.7z
				 M318.3,27.3c-0.6-0.3-1.2-0.6-1.8-0.9l0.3-0.7c0.6,0.3,1.2,0.6,1.8,0.9L318.3,27.3z M84.8,26.7l-0.4-0.7
				c0.6-0.3,1.2-0.6,1.8-0.9l0.3,0.7C85.9,26.1,85.4,26.4,84.8,26.7z M314.7,25.5c-0.6-0.3-1.2-0.6-1.8-0.9l0.3-0.7
				c0.6,0.3,1.2,0.6,1.8,0.9L314.7,25.5z M88.3,24.9L88,24.2c0.6-0.3,1.2-0.6,1.8-0.9l0.3,0.7C89.5,24.3,88.9,24.6,88.3,24.9z
				 M311.1,23.8c-0.6-0.3-1.2-0.6-1.8-0.8l0.3-0.7c0.6,0.3,1.2,0.6,1.8,0.8L311.1,23.8z M91.9,23.1l-0.3-0.7
				c0.6-0.3,1.2-0.6,1.8-0.9l0.3,0.7C93.1,22.5,92.5,22.8,91.9,23.1z M307.5,22.2c-0.6-0.3-1.2-0.5-1.8-0.8l0.3-0.7
				c0.6,0.3,1.2,0.5,1.8,0.8L307.5,22.2z M95.5,21.4l-0.3-0.7c0.6-0.3,1.2-0.6,1.8-0.8l0.3,0.7C96.7,20.8,96.1,21.1,95.5,21.4z
				 M303.8,20.6c-0.6-0.3-1.2-0.5-1.8-0.8l0.3-0.7c0.6,0.3,1.2,0.5,1.9,0.8L303.8,20.6z M99.1,19.7L98.8,19c0.6-0.3,1.2-0.5,1.8-0.8
				l0.3,0.7C100.3,19.2,99.7,19.4,99.1,19.7z M300.1,19.1c-0.6-0.2-1.2-0.5-1.9-0.7l0.3-0.7c0.6,0.2,1.3,0.5,1.9,0.7L300.1,19.1z
				 M102.8,18.1l-0.3-0.7c0.6-0.3,1.2-0.5,1.9-0.8l0.3,0.7C104,17.6,103.4,17.9,102.8,18.1z M296.3,17.7c-0.6-0.2-1.2-0.5-1.9-0.7
				l0.3-0.7c0.6,0.2,1.3,0.5,1.9,0.7L296.3,17.7z M106.5,16.6l-0.3-0.7c0.6-0.2,1.2-0.5,1.9-0.7l0.3,0.7
				C107.7,16.1,107.1,16.4,106.5,16.6z M292.6,16.4c-0.6-0.2-1.3-0.4-1.9-0.7l0.2-0.7c0.6,0.2,1.3,0.4,1.9,0.7L292.6,16.4z
				 M110.2,15.2l-0.3-0.7c0.6-0.2,1.2-0.5,1.9-0.7l0.3,0.7C111.4,14.7,110.8,14.9,110.2,15.2z M288.8,15.1c-0.6-0.2-1.3-0.4-1.9-0.6
				l0.2-0.7c0.6,0.2,1.3,0.4,1.9,0.6L288.8,15.1z M285,13.9c-0.6-0.2-1.3-0.4-1.9-0.6l0.2-0.7c0.6,0.2,1.3,0.4,1.9,0.6L285,13.9z
				 M113.9,13.8l-0.3-0.7c0.6-0.2,1.3-0.4,1.9-0.7l0.2,0.7C115.2,13.4,114.6,13.6,113.9,13.8z M281.2,12.7c-0.6-0.2-1.3-0.4-1.9-0.6
				l0.2-0.7c0.6,0.2,1.3,0.4,1.9,0.6L281.2,12.7z M117.7,12.5l-0.2-0.7c0.6-0.2,1.3-0.4,1.9-0.6l0.2,0.7
				C119,12.1,118.3,12.3,117.7,12.5z M277.3,11.6c-0.6-0.2-1.3-0.3-1.9-0.5l0.2-0.7c0.6,0.2,1.3,0.3,1.9,0.5L277.3,11.6z
				 M121.5,11.3l-0.2-0.7c0.6-0.2,1.3-0.4,1.9-0.6l0.2,0.7C122.8,10.9,122.2,11.1,121.5,11.3z M273.5,10.6c-0.6-0.2-1.3-0.3-1.9-0.5
				l0.2-0.7c0.7,0.2,1.3,0.3,1.9,0.5L273.5,10.6z M125.3,10.1l-0.2-0.7c0.6-0.2,1.3-0.4,1.9-0.6l0.2,0.7
				C126.6,9.8,126,10,125.3,10.1z M269.6,9.6c-0.6-0.2-1.3-0.3-1.9-0.5l0.2-0.7c0.7,0.2,1.3,0.3,1.9,0.5L269.6,9.6z M129.2,9.1
				L129,8.3c0.6-0.2,1.3-0.3,1.9-0.5l0.2,0.7C130.5,8.7,129.8,8.9,129.2,9.1z M265.7,8.7c-0.6-0.1-1.3-0.3-1.9-0.4l0.2-0.7
				c0.7,0.1,1.3,0.3,2,0.4L265.7,8.7z M133,8l-0.2-0.7c0.6-0.2,1.3-0.3,1.9-0.5l0.2,0.7C134.3,7.7,133.7,7.9,133,8z M261.8,7.9
				c-0.6-0.1-1.3-0.3-2-0.4l0.1-0.7c0.7,0.1,1.3,0.3,2,0.4L261.8,7.9z M136.9,7.1l-0.2-0.7c0.6-0.2,1.3-0.3,2-0.4l0.2,0.7
				C138.2,6.8,137.6,7,136.9,7.1z M257.9,7.1c-0.7-0.1-1.3-0.3-2-0.4l0.1-0.7c0.7,0.1,1.3,0.3,2,0.4L257.9,7.1z M254,6.3
				c-0.7-0.1-1.3-0.2-2-0.4l0.1-0.7c0.7,0.1,1.3,0.2,2,0.4L254,6.3z M140.8,6.2l-0.2-0.7c0.7-0.1,1.3-0.3,2-0.4l0.2,0.7
				C142.1,6,141.5,6.1,140.8,6.2z M250.1,5.6c-0.7-0.1-1.3-0.2-2-0.3l0.1-0.7c0.7,0.1,1.3,0.2,2,0.3L250.1,5.6z M144.7,5.4l-0.1-0.7
				c0.7-0.1,1.3-0.3,2-0.4l0.1,0.7C146,5.2,145.4,5.3,144.7,5.4z M246.1,5c-0.7-0.1-1.3-0.2-2-0.3l0.1-0.7c0.7,0.1,1.3,0.2,2,0.3
				L246.1,5z M148.7,4.7L148.5,4c0.7-0.1,1.3-0.2,2-0.3l0.1,0.7C150,4.5,149.3,4.6,148.7,4.7z M242.2,4.4c-0.7-0.1-1.3-0.2-2-0.3
				l0.1-0.7c0.7,0.1,1.3,0.2,2,0.3L242.2,4.4z M152.6,4l-0.1-0.7c0.7-0.1,1.3-0.2,2-0.3l0.1,0.7C153.9,3.8,153.3,3.9,152.6,4z
				 M238.2,3.9c-0.7-0.1-1.3-0.2-2-0.2l0.1-0.7c0.7,0.1,1.3,0.2,2,0.2L238.2,3.9z M156.5,3.4l-0.1-0.7c0.7-0.1,1.3-0.2,2-0.3
				l0.1,0.7C157.9,3.3,157.2,3.4,156.5,3.4z M234.2,3.4c-0.7-0.1-1.3-0.1-2-0.2l0.1-0.7c0.7,0.1,1.3,0.1,2,0.2L234.2,3.4z M230.3,3
				c-0.7-0.1-1.3-0.1-2-0.2l0.1-0.7c0.7,0.1,1.3,0.1,2,0.2L230.3,3z M160.5,2.9l-0.1-0.7c0.7-0.1,1.3-0.2,2-0.2l0.1,0.7
				C161.8,2.8,161.2,2.8,160.5,2.9z M226.3,2.6c-0.7-0.1-1.3-0.1-2-0.2l0.1-0.7c0.7,0.1,1.3,0.1,2,0.2L226.3,2.6z M164.5,2.5
				l-0.1-0.7c0.7-0.1,1.3-0.1,2-0.2l0.1,0.7C165.8,2.3,165.1,2.4,164.5,2.5z M222.3,2.3c-0.7-0.1-1.3-0.1-2-0.2l0.1-0.7
				c0.7,0,1.3,0.1,2,0.2L222.3,2.3z M168.4,2.1l-0.1-0.7c0.7-0.1,1.3-0.1,2-0.2l0.1,0.7C169.8,2,169.1,2,168.4,2.1z M218.3,2
				c-0.7,0-1.3-0.1-2-0.1l0-0.7c0.7,0,1.3,0.1,2,0.1L218.3,2z M172.4,1.7L172.4,1c0.7,0,1.3-0.1,2-0.1l0,0.7
				C173.7,1.7,173.1,1.7,172.4,1.7z M214.3,1.7c-0.7,0-1.3-0.1-2-0.1l0-0.7c0.7,0,1.3,0.1,2,0.1L214.3,1.7z M210.3,1.5l-2-0.1l0-0.8
				l2,0.1L210.3,1.5z M176.4,1.5l0-0.7c0.7,0,1.3-0.1,2-0.1l0,0.8C177.7,1.4,177.1,1.4,176.4,1.5z M206.4,1.3l-2-0.1l0-0.8l2,0.1
				L206.4,1.3z M180.4,1.3l0-0.8c0.7,0,1.3-0.1,2-0.1l0,0.8C181.7,1.2,181.1,1.3,180.4,1.3z M202.4,1.2c-0.7,0-1.3,0-2,0l0-0.8
				c0.7,0,1.3,0,2,0L202.4,1.2z M184.4,1.2l0-0.8c0.7,0,1.3,0,2,0l0,0.8C185.7,1.1,185,1.1,184.4,1.2z M198.4,1.1c-0.7,0-1.3,0-2,0
				l0-0.8c0.7,0,1.3,0,2,0L198.4,1.1z M188.4,1.1l0-0.8c0.7,0,1.3,0,2,0l0,0.8C189.7,1.1,189,1.1,188.4,1.1z M194.4,1.1l-2,0l0-0.8
				l2,0L194.4,1.1z"/>
		</g>
		<g>
			<path fill="#C69AC3" d="M82.6,146.7l-0.8,0c0,0,0-0.7,0.1-2l0.7,0C82.6,146,82.6,146.7,82.6,146.7z M82.8,142.7l-0.7-0.1
				c0-0.6,0.1-1.3,0.2-2l0.7,0.1C82.9,141.4,82.9,142.1,82.8,142.7z M83.2,138.7l-0.7-0.1c0.1-0.6,0.1-1.3,0.2-2l0.7,0.1
				C83.4,137.4,83.3,138.1,83.2,138.7z M83.7,134.7l-0.7-0.1c0.1-0.6,0.2-1.3,0.3-2l0.7,0.1C83.9,133.4,83.8,134.1,83.7,134.7z
				 M84.3,130.8l-0.7-0.1c0.1-0.6,0.2-1.3,0.3-2l0.7,0.1C84.5,129.5,84.4,130.1,84.3,130.8z M85,126.8l-0.7-0.1
				c0.1-0.6,0.3-1.3,0.4-2l0.7,0.1C85.3,125.6,85.1,126.2,85,126.8z M85.8,122.9l-0.7-0.2c0.1-0.6,0.3-1.3,0.4-2l0.7,0.2
				C86.1,121.6,85.9,122.3,85.8,122.9z M86.7,119l-0.7-0.2c0.2-0.6,0.3-1.3,0.5-1.9l0.7,0.2C87,117.8,86.8,118.4,86.7,119z
				 M87.7,115.2l-0.7-0.2c0.2-0.6,0.3-1.3,0.5-1.9l0.7,0.2C88,113.9,87.8,114.5,87.7,115.2z M88.7,111.3l-0.7-0.2
				c0.2-0.6,0.4-1.3,0.6-1.9l0.7,0.2C89.1,110,88.9,110.7,88.7,111.3z M89.9,107.5l-0.7-0.2c0.2-0.6,0.4-1.3,0.6-1.9l0.7,0.2
				C90.2,106.2,90,106.9,89.9,107.5z M91.1,103.7l-0.7-0.2c0.2-0.6,0.4-1.3,0.6-1.9l0.7,0.2C91.5,102.4,91.3,103.1,91.1,103.7z
				 M92.4,99.9l-0.7-0.3c0.2-0.6,0.5-1.3,0.7-1.9l0.7,0.3C92.8,98.7,92.6,99.3,92.4,99.9z M93.8,96.2l-0.7-0.3
				c0.2-0.6,0.5-1.2,0.7-1.9l0.7,0.3C94.3,94.9,94,95.6,93.8,96.2z M95.3,92.5l-0.7-0.3c0.3-0.6,0.5-1.2,0.8-1.8l0.7,0.3
				C95.8,91.2,95.5,91.9,95.3,92.5z M96.9,88.8l-0.7-0.3c0.3-0.6,0.5-1.2,0.8-1.8l0.7,0.3C97.4,87.6,97.1,88.2,96.9,88.8z
				 M98.5,85.2l-0.7-0.3c0.3-0.6,0.6-1.2,0.9-1.8l0.7,0.3C99.1,84,98.8,84.6,98.5,85.2z M100.2,81.6l-0.7-0.3
				c0.3-0.6,0.6-1.2,0.9-1.8l0.7,0.3C100.8,80.4,100.5,81,100.2,81.6z M102.1,78l-0.7-0.4c0.3-0.6,0.6-1.2,0.9-1.8l0.7,0.4
				C102.7,76.9,102.4,77.4,102.1,78z M104,74.5l-0.7-0.4c0.3-0.6,0.7-1.2,1-1.7l0.7,0.4C104.6,73.4,104.3,73.9,104,74.5z M106,71.1
				l-0.6-0.4c0.3-0.6,0.7-1.1,1-1.7l0.6,0.4C106.7,69.9,106.3,70.5,106,71.1z M108.1,67.7l-0.6-0.4c0.4-0.6,0.7-1.1,1.1-1.7l0.6,0.4
				C108.8,66.5,108.4,67.1,108.1,67.7z M110.2,64.3l-0.6-0.4c0.4-0.6,0.7-1.1,1.1-1.7l0.6,0.4C111,63.2,110.6,63.7,110.2,64.3z
				 M112.5,61l-0.6-0.4c0.4-0.5,0.8-1.1,1.2-1.6l0.6,0.4C113.2,59.9,112.8,60.5,112.5,61z M114.8,57.8l-0.6-0.4
				c0.4-0.5,0.8-1.1,1.2-1.6l0.6,0.5C115.6,56.7,115.2,57.2,114.8,57.8z M117.2,54.6l-0.6-0.5c0.4-0.5,0.8-1.1,1.2-1.6l0.6,0.5
				C118,53.5,117.6,54.1,117.2,54.6z M119.7,51.5l-0.6-0.5c0.4-0.5,0.8-1,1.3-1.5l0.6,0.5C120.5,50.4,120.1,50.9,119.7,51.5z
				 M122.2,48.4l-0.6-0.5c0.4-0.5,0.9-1,1.3-1.5l0.6,0.5C123.1,47.4,122.7,47.9,122.2,48.4z M124.9,45.4l-0.6-0.5
				c0.4-0.5,0.9-1,1.4-1.5l0.5,0.5C125.8,44.4,125.3,44.9,124.9,45.4z M127.6,42.5l-0.5-0.5c0.5-0.5,0.9-1,1.4-1.4L129,41
				C128.5,41.5,128.1,42,127.6,42.5z M130.4,39.6l-0.5-0.5c0.5-0.5,0.9-0.9,1.4-1.4l0.5,0.5C131.3,38.7,130.9,39.2,130.4,39.6z
				 M133.2,36.9l-0.5-0.5c0.5-0.5,1-0.9,1.5-1.4l0.5,0.6C134.2,35.9,133.7,36.4,133.2,36.9z M136.2,34.1l-0.5-0.6
				c0.5-0.4,1-0.9,1.5-1.3l0.5,0.6C137.2,33.3,136.7,33.7,136.2,34.1z M139.2,31.5l-0.5-0.6c0.5-0.4,1-0.9,1.5-1.3l0.5,0.6
				C140.2,30.7,139.7,31.1,139.2,31.5z M142.2,29l-0.5-0.6c0.5-0.4,1-0.8,1.6-1.3l0.5,0.6C143.3,28.1,142.7,28.5,142.2,29z
				 M145.4,26.5l-0.5-0.6c0.5-0.4,1.1-0.8,1.6-1.2l0.5,0.6C146.4,25.7,145.9,26.1,145.4,26.5z M148.5,24.1l-0.4-0.6
				c0.5-0.4,1.1-0.8,1.6-1.2l0.4,0.6C149.6,23.3,149.1,23.7,148.5,24.1z M151.8,21.7l-0.4-0.6c0.5-0.4,1.1-0.8,1.6-1.1l0.4,0.6
				C152.9,21,152.3,21.4,151.8,21.7z M155.1,19.5l-0.4-0.6c0.6-0.4,1.1-0.7,1.7-1.1l0.4,0.6C156.2,18.8,155.6,19.1,155.1,19.5z
				 M158.4,17.3l-0.4-0.6c0.6-0.4,1.1-0.7,1.7-1.1l0.4,0.6C159.6,16.6,159,17,158.4,17.3z M161.8,15.3l-0.4-0.6
				c0.6-0.3,1.1-0.7,1.7-1l0.4,0.6C163,14.6,162.4,14.9,161.8,15.3z M165.3,13.2l-0.4-0.7c0.6-0.3,1.2-0.7,1.7-1l0.4,0.7
				C166.4,12.6,165.9,12.9,165.3,13.2z M168.8,11.3l-0.4-0.7c0.6-0.3,1.2-0.6,1.8-0.9l0.3,0.7C170,10.7,169.4,11,168.8,11.3z
				 M172.3,9.5L172,8.8c0.6-0.3,1.2-0.6,1.8-0.9l0.3,0.7C173.5,8.9,172.9,9.2,172.3,9.5z M175.9,7.7L175.6,7
				c0.6-0.3,1.2-0.6,1.8-0.9l0.3,0.7C177.1,7.1,176.5,7.4,175.9,7.7z M179.5,6l-0.3-0.7c0.6-0.3,1.2-0.6,1.8-0.8l0.3,0.7
				C180.7,5.5,180.1,5.7,179.5,6z M183.2,4.4l-0.3-0.7c0.6-0.3,1.2-0.5,1.8-0.8l0.3,0.7C184.4,3.9,183.8,4.1,183.2,4.4z M186.8,2.8
				l-0.3-0.7c0.6-0.3,1.2-0.5,1.9-0.7l0.3,0.7C188.1,2.3,187.4,2.6,186.8,2.8z M190.5,1.4l-0.3-0.7l0.9-0.3l0.3,0.7L190.5,1.4z"/>
		</g>
		<g>
			<path fill="#C69AC3" d="M250.8,61.3c0,0-0.2-0.7-0.5-1.9l0.7-0.2c0.4,1.3,0.5,2,0.5,2L250.8,61.3z M249.6,57.4
				c-0.2-0.6-0.4-1.2-0.7-1.9l0.7-0.3c0.3,0.7,0.5,1.3,0.7,1.9L249.6,57.4z M248.3,53.7c-0.2-0.6-0.5-1.2-0.7-1.9l0.7-0.3
				c0.3,0.6,0.5,1.3,0.8,1.9L248.3,53.7z M246.7,50c-0.3-0.6-0.5-1.2-0.8-1.8l0.7-0.3c0.3,0.6,0.6,1.2,0.8,1.8L246.7,50z M245,46.4
				c-0.3-0.6-0.6-1.2-0.9-1.8l0.7-0.3c0.3,0.6,0.6,1.2,0.9,1.8L245,46.4z M243.2,42.8c-0.3-0.6-0.6-1.2-1-1.7l0.7-0.4
				c0.3,0.6,0.7,1.2,1,1.8L243.2,42.8z M241.2,39.4c-0.3-0.6-0.7-1.1-1-1.7l0.6-0.4c0.4,0.6,0.7,1.1,1.1,1.7L241.2,39.4z M239.1,36
				c-0.4-0.5-0.7-1.1-1.1-1.7l0.6-0.4c0.4,0.6,0.8,1.1,1.1,1.7L239.1,36z M236.9,32.7c-0.4-0.5-0.8-1.1-1.2-1.6l0.6-0.5
				c0.4,0.5,0.8,1.1,1.2,1.6L236.9,32.7z M234.5,29.5c-0.4-0.5-0.8-1-1.3-1.5l0.6-0.5c0.4,0.5,0.9,1,1.3,1.6L234.5,29.5z
				 M231.9,26.5c-0.4-0.5-0.9-1-1.3-1.5l0.6-0.5c0.5,0.5,0.9,1,1.3,1.5L231.9,26.5z M229.2,23.5c-0.5-0.5-0.9-1-1.4-1.4l0.5-0.5
				c0.5,0.5,0.9,1,1.4,1.4L229.2,23.5z M226.4,20.7c-0.5-0.5-1-0.9-1.5-1.4l0.5-0.6c0.5,0.5,1,0.9,1.5,1.4L226.4,20.7z M223.5,18
				c-0.5-0.4-1-0.9-1.5-1.3l0.5-0.6c0.5,0.4,1,0.9,1.5,1.3L223.5,18z M220.4,15.5c-0.5-0.4-1-0.8-1.6-1.2l0.4-0.6
				c0.5,0.4,1.1,0.8,1.6,1.2L220.4,15.5z M217.2,13.1c-0.5-0.4-1.1-0.8-1.6-1.1l0.4-0.6c0.6,0.4,1.1,0.8,1.7,1.1L217.2,13.1z
				 M213.9,10.9c-0.6-0.4-1.1-0.7-1.7-1l0.4-0.6c0.6,0.3,1.1,0.7,1.7,1.1L213.9,10.9z M210.5,8.8c-0.6-0.3-1.2-0.6-1.7-1l0.4-0.7
				c0.6,0.3,1.2,0.6,1.8,1L210.5,8.8z M207,7c-0.6-0.3-1.2-0.6-1.8-0.9l0.3-0.7c0.6,0.3,1.2,0.6,1.8,0.9L207,7z M203.4,5.3
				c-0.6-0.3-1.2-0.5-1.8-0.8l0.3-0.7c0.6,0.3,1.2,0.5,1.8,0.8L203.4,5.3z M199.7,3.8c-0.6-0.2-1.2-0.5-1.9-0.7l0.3-0.7
				c0.6,0.2,1.3,0.5,1.9,0.7L199.7,3.8z M196,2.4c-0.6-0.2-1.3-0.4-1.9-0.6l0.2-0.7c0.6,0.2,1.3,0.4,1.9,0.6L196,2.4z M192.2,1.2
				L191.4,1l0.2-0.7l0.7,0.2L192.2,1.2z"/>
		</g>
	</g>
</g>
<g id="extras" display="none">
</g>
</svg>
