<?xml version="1.0" encoding="utf-8"?>
<!-- Generator: Adobe Illustrator 19.2.1, SVG Export Plug-In . SVG Version: 6.00 Build 0)  -->
<svg version="1.1" xmlns="http://www.w3.org/2000/svg" xmlns:xlink="http://www.w3.org/1999/xlink" x="0px" y="0px"
	 viewBox="0 0 353 165" enable-background="new 0 0 353 165" xml:space="preserve">
<g id="frame">
	<g>
		<path fill="#FDB813" d="M15.4,35.2l9.6,2.9l-0.4-1.7c0,0-0.1-0.3-0.3-0.3l-7.1-2.1c0,0-0.3-0.1-0.5,0.1L15.4,35.2z M26.6,39.5
			c0,0,0.2-0.6-0.4-0.8l-4-1.2l-13-3.9l-4-1.2c-0.6-0.2-0.8,0.4-0.8,0.4L0.5,45.6c-0.2,0.6,0.4,0.8,0.4,0.8l4,1.2l13,3.9l4,1.2
			c0,0,0.6,0.2,0.8-0.4L26.6,39.5z"/>
		<path fill="#FDB813" d="M261.4,30.7l6.9-11.8l-0.6-1.5L257.5,22l-10.2,4.5L248,28L261.4,30.7z M274.6,33L269,20.3l-6.9,11.9
			l-13.5-2.8l5.7,12.6l10.2-4.5L274.6,33z"/>
		<path fill="#FDB813" d="M116.2,6.9l7.6-4.3l0.1-1l-7.1-0.8l-7.1-0.8l-0.1,1L116.2,6.9z M122.8,12.4l0.9-8.8L116.1,8l-6.5-5.9
			l-0.9,8.8l7.1,0.7L122.8,12.4z"/>
		<path fill="#FDB813" d="M343.5,107.1l3.7-3.1l-0.8-0.3c0,0-0.1,0-0.2,0l-2.7,2.3c0,0-0.1,0.1-0.1,0.2L343.5,107.1z M348.2,103.6
			c0,0-0.2-0.2-0.4,0l-1.6,1.3l-5,4.3l-1.6,1.3c-0.2,0.2,0,0.4,0,0.4l4.2,5c0.2,0.2,0.4,0,0.4,0l1.6-1.3l5-4.3l1.6-1.3
			c0,0,0.2-0.2,0-0.4L348.2,103.6z"/>
		<path fill="#FDB813" d="M34.5,158l8.4-2.5l0.3-1l-6.7-2.3l-6.7-2.3l-0.3,1L34.5,158z M39.6,164.9l2.9-8.3l-8.4,2.5l-5-7.2
			l-2.9,8.3l6.7,2.3L39.6,164.9z"/>
	</g>
</g>
<g id="extras" display="none">
</g>
</svg>
