<?xml version="1.0" encoding="utf-8"?>
<!-- Generator: Adobe Illustrator 19.2.1, SVG Export Plug-In . SVG Version: 6.00 Build 0)  -->
<svg version="1.1" xmlns="http://www.w3.org/2000/svg" xmlns:xlink="http://www.w3.org/1999/xlink" x="0px" y="0px"
	 viewBox="0 0 744 452" enable-background="new 0 0 744 452" xml:space="preserve">
<g id="frame">
	<path opacity="0.1" d="M683.3,304.9c-0.4,0-0.7,0.1-1.1,0.1v-0.1l-167.3,0v0.1c-4.5,0.4-8.1,3.5-8.1,7.3c0,4.1,4.1,7.4,9.2,7.4
		c0.6,0,166.7,0,167.4,0c5.1,0,9.2-3.3,9.2-7.4C692.5,308.2,688.4,304.9,683.3,304.9"/>
	<g>
		<rect x="560.3" y="225.4" fill="#A98864" width="7.5" height="83.8"/>
		<rect x="607.1" y="225.4" fill="#A98864" width="7.5" height="83.7"/>
		<rect x="586.3" y="225.4" fill="#A98864" width="7.5" height="83.8"/>
		<rect x="522.4" y="219.3" fill="#A98864" width="92.3" height="8.6"/>
		<rect x="522.4" y="223.6" fill="#A98864" width="7.5" height="85.6"/>
	</g>
	<path opacity="0.1" d="M426.7,397.9c-0.5,0-0.9,0.1-1.4,0.1v-0.1l-110.1,0v0.1c-5.7,0.6-10.1,4.5-10.1,9.2c0,5.2,5.2,9.3,11.5,9.3
		c0.8,0,109.2,0,110.1,0c6.4,0,11.6-4.2,11.6-9.3C438.3,402.1,433.1,397.9,426.7,397.9"/>
	<g>
		<rect x="335.2" y="153" fill="#E2E2E2" width="41.3" height="38.8"/>
		<rect x="454.7" y="121.3" fill="#E2E2E2" width="15.6" height="70.5"/>
		<rect x="434.9" y="142.4" fill="#D0D2D3" width="26.5" height="49.3"/>
		<polygon fill="#BBBDBF" points="376.4,105.7 405.9,119 405.9,191.7 376.4,191.7 		"/>
		<rect x="411.7" y="133.4" fill="#E2E2E2" width="33.4" height="58.3"/>
		<polygon fill="#D2D2D2" points="380.9,191.7 385,191.7 385,109.6 380.9,107.8 		"/>
		<polygon fill="#D2D2D2" points="389.2,191.7 393.4,191.7 393.4,113.3 389.2,111.5 		"/>
		<polygon fill="#D2D2D2" points="397.6,191.7 401.7,191.7 401.7,117.1 397.6,115.2 		"/>
		<rect x="317.1" y="133.4" fill="#E2E2E2" width="47.7" height="58.3"/>
		<rect x="297" y="144.3" fill="#E2E2E2" width="21" height="47.4"/>
		<rect x="415.1" y="139.3" fill="#37B5ED" width="3.1" height="5"/>
		<rect x="420.6" y="139.3" fill="#37B5ED" width="3.1" height="5"/>
		<rect x="426.2" y="139.3" fill="#6DC2E9" width="3.1" height="5"/>
		<rect x="431.8" y="139.3" fill="#37B5ED" width="3.1" height="5"/>
		<rect x="437.3" y="139.3" fill="#6DC2E9" width="3.1" height="5"/>
		<rect x="415.1" y="147.6" fill="#6DC2E9" width="3.1" height="5"/>
		<rect x="420.6" y="147.6" fill="#6DC2E9" width="3.1" height="5"/>
		<rect x="426.2" y="147.6" fill="#37B5ED" width="3.1" height="5"/>
		<rect x="431.8" y="147.6" fill="#6DC2E9" width="3.1" height="5"/>
		<rect x="437.3" y="147.6" fill="#6DC2E9" width="3.1" height="5"/>
		<rect x="300.6" y="147.1" fill="#6DC2E9" width="2.2" height="44.6"/>
		<rect x="306.2" y="147.1" fill="#6DC2E9" width="2.2" height="44.6"/>
		<rect x="321" y="144.9" fill="#6DC2E9" width="3.6" height="8.1"/>
		<rect x="329.3" y="144.9" fill="#6DC2E9" width="3.6" height="8.1"/>
		<rect x="346" y="144.9" fill="#6DC2E9" width="3.6" height="8.1"/>
		<rect x="354.4" y="144.9" fill="#6DC2E9" width="3.6" height="8.1"/>
		<rect x="311.8" y="147.1" fill="#6DC2E9" width="2.2" height="44.6"/>
	</g>
	<path fill="#0556A5" d="M363.9,177.3c-0.2-0.6-0.3-1.2-0.5-1.8l-12.7,3.5c0.1,0.5,0.2,1.9,0.3,2.3c2.6,10.4,0.1,17.9-2.9,24.6
		c-3,6.7-8.3,12.4-14.4,17c-12.1,9.2-27.4,13.6-30.5,14.4c-0.4,0.1-0.6,0.2-0.6,0.2l0,0l3.4,14.3c0,0,0.3-0.1,0.9-0.2
		c3.1-0.8,13.2-3.6,24.4-9.7c11.1-6.1,23.6-15.3,30.2-29.9c4.4-9.6,5.8-21.4,2.4-34.6L363.9,177.3"/>
	<path fill="#0556A5" d="M348.7,192.8v-33.4h61.9v127.4h-61.9v-10.4c0.5-14.5,2.1-32.3,6.5-44.7
		C355.2,231.7,349.8,205.5,348.7,192.8"/>
	<path fill="#FDB813" d="M299.1,253.5c-0.1,0-0.2,0.1-0.3,0.1c-3.9,1-7.9-1.4-8.9-5.3c-1-3.9,1.3-7.9,5.3-8.9c0.1,0,0.2,0,0.3,0l0,0
		l7.3-1.9l3.7,14.2L299.1,253.5L299.1,253.5z"/>
	<polygon fill="#1D4483" points="341.8,406.4 355,393.3 372.3,393.3 372.3,410.4 341.8,410.4 	"/>
	<rect x="355.2" y="281.8" fill="#0556A5" width="17.2" height="111.6"/>
	<polygon fill="#1E3A6E" points="364.1,410.4 368.5,410.4 368.5,406.4 372.3,402.7 372.3,393.3 364.1,393.3 	"/>
	<rect x="364.1" y="286.8" fill="#144A8B" width="8.2" height="106.5"/>
	<rect x="381.9" y="281.8" fill="#0556A5" width="17.2" height="111.6"/>
	<polygon fill="#1D4483" points="368.5,406.4 381.7,393.3 399,393.3 399,410.4 368.5,410.4 	"/>
	<polygon fill="#144A8B" points="390.9,393.3 399,393.3 399,281.7 394,281.7 390.9,281.7 	"/>
	<rect x="390.9" y="393.3" fill="#1E3A6E" width="8.2" height="17.1"/>
	<path fill="#FDB813" d="M298.8,253.6c-3.9,1-7.9-1.4-8.9-5.3c-0.3-1.3-0.3-2.5,0-3.7c2.2-2.8,6.2-3.6,9.4-1.7
		c3.5,2,4.6,6.4,2.6,9.9l-2.9,0.7l0,0C299,253.6,298.9,253.6,298.8,253.6"/>
	<path fill="#0C4E94" d="M348.7,286.8h6.5v-5h17.2v5h4.5v0h5v-5H399v5h11.6v-93.2l-59.2,53.3c-1.7,9.7-2.4,20.3-2.8,29.5V286.8"/>
	<polygon fill="#0C4E94" points="355.2,286.8 364.1,286.8 372.3,286.8 372.3,286.8 372.3,281.8 355.2,281.8 	"/>
	<rect x="381.9" y="281.8" fill="#0C4E94" width="17.2" height="5"/>
	<polygon fill="#FFFFFF" points="380.6,163.7 374.8,204 369.5,163.7 	"/>
	<polygon fill="#E5E5E5" points="374.8,204 380.6,163.7 369.5,163.7 	"/>
	<path fill="#F68C1F" d="M369.6,140.2l1.7,4.3l8.1-2.1l1.2,17.3l-5.5,4.2l-5.5-4.2v-8.7c-0.2-2.8-1-8.3-5.1-9.5L369.6,140.2z"/>
	<polygon fill="#9C4F96" points="377.8,168.5 377.1,171.4 373.5,171.4 372.3,167.3 375.2,163.7 	"/>
	<polygon fill="#9C4F96" points="373.5,171.4 377.1,171.4 378.3,179.4 374.8,204 371.8,180.9 	"/>
	<polygon fill="#FFFFFF" points="374.9,163.7 378.6,170 380.6,163.7 380.6,159.4 	"/>
	<polygon fill="#FFFFFF" points="375.2,163.7 371.3,170 369.5,163.7 369.5,159.4 	"/>
	<polygon fill="#FFFFFF" points="363.8,182.6 360.3,178 357.1,182.6 	"/>
	<polygon fill="#FFFFFF" points="360.4,182.6 356.9,178 353.7,182.6 	"/>
	<polygon fill="#FDB813" points="346.5,140.3 349.4,157.4 357.7,153.4 	"/>
	<path fill="#FDB813" d="M368.5,117l9.1,19l0,0.1c6,14.6-3.7,24.5-18.1,31.3l-0.6-1.3l-5.2-10.8l-6.5-13.5l-5.7-11.9L368.5,117"/>
	<path fill="#010101" d="M354.6,141.2c0.3,0.6,1,0.9,1.6,0.6c0.6-0.3,0.8-1,0.6-1.6c-0.3-0.6-1-0.8-1.6-0.6
		C354.5,139.9,354.3,140.6,354.6,141.2"/>
	<path fill="#1D4483" d="M354.6,141.2c0.3,0.6,1,0.9,1.6,0.6c0.6-0.3,0.8-1,0.6-1.6c-0.3-0.6-1-0.8-1.6-0.6
		C354.5,139.9,354.3,140.6,354.6,141.2"/>
	<path fill="#1D4483" d="M364.9,129.9c-0.3-0.1-0.6-0.1-1-0.3c-3.3-1.1-4.7,0.3-7.9,1.6c-3.9,1.6-11.3,2.1-14.4-1.4l0.2-0.1l-0.2,0
		c0,0-15.1-9.2,0.6-10.2c2.1-3.7,5.9-6.4,9.8-6c2.3,0.2,3.7-0.1,5.8-1.1c1.7-0.8,3.1-1.2,5-1.1c1.4,0.1,3.1,1.5,4.2,3.2
		c13.9,1.6,12.3,27.7,12.3,27.7C370.1,141.2,364.9,129.9,364.9,129.9"/>
	<path fill="#FDB813" d="M364.8,129.9c3.3-1.6,7.3-0.2,8.9,3.2c1.6,3.3,0.2,7.3-3.2,8.9l-2,1.3l-5.9-12.3L364.8,129.9"/>
	<path fill="#F68C1F" d="M370.7,134.5c-0.8-1.7-2.8-2.4-4.5-1.6l2.9,6C370.8,138.2,371.5,136.2,370.7,134.5"/>
	<path fill="#0556A5" d="M426,268.9c0-65.7-15.1-108.7-15.3-109.2v0l-13.1,4.6c0,0,0.8,2.4,2.2,7.2c1.4,4.8,3.2,11.9,5,21.1
		c3.7,18.3,7.3,44.6,7.3,76.3H426z"/>
	<path fill="#1B1C1C" d="M302.9,245c0.3,0.3,0.3,0.7,0,1l-11,11.6c-0.3,0.3-0.7,0.3-1,0l-24.4-23c-0.3-0.3-0.3-0.7,0-1l11-11.6
		c0.3-0.3,0.7-0.3,1,0L302.9,245z"/>
	
		<rect x="277.7" y="226.8" transform="matrix(0.6867 -0.727 0.727 0.6867 -85.1313 282.305)" fill="#FCEE1E" width="14.3" height="26.1"/>
	<path fill="#959595" d="M275.1,227.6c0.1,0.1,0.1,0.3,0,0.4l-2.4,2.6c-0.1,0.1-0.3,0.1-0.4,0c-0.1-0.1-0.1-0.3,0-0.4l2.4-2.6
		C274.8,227.5,275,227.5,275.1,227.6"/>
	<rect x="381.9" y="285.1" fill="#7F7F7F" width="76.3" height="57.5"/>
	<polygon fill="#7F7F7F" points="426.8,286 426.8,276.5 407.6,276.5 407.6,285.6 407.6,285.6 404.2,285.6 404.2,273.1 430.2,273.1 
		430.2,286 	"/>
	<path fill="#FDB813" d="M426,276.2c0,0.1,0,0.2,0,0.3c0,3.9-3.1,7.1-7,7.1c-3.9,0-7-3.2-7-7.1c0-0.1,0-0.2,0-0.3h0l0-7.3l14,0
		L426,276.2L426,276.2z"/>
	<g>
		<rect x="18.2" y="248.2" fill="#A98864" width="7.3" height="64"/>
		<rect x="30.8" y="193.6" fill="#A98864" width="7.3" height="106"/>
		<rect x="177.6" y="193.6" fill="#A98864" width="7.3" height="106"/>
		<rect x="190.2" y="248.2" fill="#A98864" width="7.3" height="64"/>
		<rect x="18.2" y="246.1" fill="#B8D433" width="179.3" height="14.7"/>
		<rect x="18.2" y="191.5" fill="#B8D433" width="179.3" height="14.7"/>
		<rect x="18.2" y="213.5" fill="#B8D433" width="179.3" height="14.7"/>
	</g>
	<path fill="#9C4F96" d="M89.3,163.9c-0.1-0.5-0.2-1-0.2-1.5l10.6-1.4c0.1,0.5,0.5,1.5,0.5,1.9c1.4,8.7,5.7,13.5,10.2,17.6
		c4.5,4.1,10.2,6.6,16.3,8.1c12.1,3,25,1.4,27.6,0.9c0.4-0.1,0.5-0.1,0.5-0.1l0,0l2.1,11.8c0,0-0.3,0-0.7,0.1
		c-2.6,0.4-11.1,1.5-21.4,0.6c-10.3-0.9-22.7-3.9-32.3-12.6c-6.4-5.8-11.3-14.2-13-25.2L89.3,163.9"/>
	<path opacity="0.1" d="M39.6,304.6c0.4,0,0.8,0.1,1.2,0.1v-0.1l116.3,0v0.1c4.7,0.5,8.3,3.6,8.3,7.5c0,4.2-4.2,7.6-9.4,7.6
		c-0.7,0-115.6,0-116.3,0c-5.2,0-9.4-3.4-9.4-7.6C30.2,308,34.4,304.6,39.6,304.6"/>
	<path fill="#9C4F96" d="M100,182.5v-27.3H49.3v93.6H100v2c-0.4-11.9-1.7-26.4-5.3-36.5C94.7,214.3,99,192.8,100,182.5"/>
	<polygon fill="#FFFFFF" points="73.9,158.7 78.6,191.7 82.9,158.7 	"/>
	<polygon fill="#E5E5E5" points="78.6,191.7 73.9,158.7 82.9,158.7 	"/>
	<path fill="#F68C1F" d="M82.9,139.4l-1.4,3.5l-6.6-1.8l-1,14.1l4.5,3.4l4.5-3.4v-7.1c0.1-2.3,0.8-6.8,4.1-7.8L82.9,139.4z"/>
	<polygon fill="#17244E" points="76.2,162.6 76.8,165 79.7,165 80.6,161.6 78.3,158.7 	"/>
	<polygon fill="#17244E" points="79.7,165 76.8,165 75.7,171.5 78.6,191.7 81.1,172.8 	"/>
	<polygon fill="#FFFFFF" points="78.5,158.7 75.5,163.8 73.9,158.7 73.9,155.2 	"/>
	<polygon fill="#FFFFFF" points="78.3,158.7 81.4,163.8 82.9,158.7 82.9,155.2 	"/>
	<polygon fill="#FFFFFF" points="87.6,174.2 90.5,170.4 93.1,174.2 	"/>
	<polygon fill="#FFFFFF" points="90.4,174.2 93.2,170.4 95.8,174.2 	"/>
	<polygon fill="#FDB813" points="101.7,139.5 99.4,153.5 92.6,150.3 	"/>
	<path fill="#FDB813" d="M83.7,120.5L76.3,136l0,0.1c-4.9,11.9,3.1,20,14.8,25.6l0.5-1.1l4.2-8.8l5.3-11.1l4.6-9.7L83.7,120.5"/>
	<path fill="#010101" d="M95.2,140.3c-0.2,0.5-0.8,0.7-1.3,0.5c-0.5-0.2-0.7-0.8-0.5-1.3c0.2-0.5,0.8-0.7,1.3-0.5
		C95.2,139.2,95.4,139.8,95.2,140.3"/>
	<path fill="#1D4483" d="M95.2,140.3c-0.2,0.5-0.8,0.7-1.3,0.5c-0.5-0.2-0.7-0.8-0.5-1.3c0.2-0.5,0.8-0.7,1.3-0.5
		C95.2,139.2,95.4,139.8,95.2,140.3"/>
	<path fill="#1D4483" d="M86.7,131c0.3-0.1,0.5-0.1,0.8-0.2c2.7-0.9,3.9,0.3,6.5,1.3c3.2,1.3,9.2,1.7,11.8-1.2l-0.2-0.1l0.2,0
		c0,0,12.4-7.5-0.5-8.3c-1.7-3-4.8-5.2-8-4.9c-1.9,0.2-3,0-4.7-0.9c-1.4-0.7-2.5-1-4.1-0.9c-1.2,0.1-2.6,1.2-3.5,2.6
		c-11.3,1.3-10,22.6-10,22.6C82.5,140.3,86.7,131,86.7,131"/>
	<path fill="#FDB813" d="M86.8,131.1c-2.7-1.3-6-0.1-7.3,2.6c-1.3,2.7-0.1,6,2.6,7.3l1.6,1l4.8-10.1L86.8,131.1"/>
	<path fill="#F68C1F" d="M81.9,134.8c0.7-1.4,2.3-1.9,3.7-1.3l-2.4,4.9C81.9,137.8,81.3,136.2,81.9,134.8"/>
	<path fill="#9C4F96" d="M36.7,244.6c0-53.8,12.4-88.9,12.5-89.3v0l10.7,3.8c0,0-0.7,1.9-1.8,5.9c-1.1,3.9-2.6,9.8-4.1,17.2
		c-3,14.9-6,36.4-6,62.4H36.7z"/>
	<path fill="#FDB813" d="M36.8,250.6c0,0.1,0,0.1,0,0.2c0,3.2,2.6,5.8,5.7,5.8c3.2,0,5.7-2.6,5.7-5.8c0-0.1,0-0.2,0-0.2h0l0-6
		l-11.4,0L36.8,250.6L36.8,250.6z"/>
	<polygon fill="#672A7A" points="148.3,311.9 137.1,300.7 122.2,300.7 122.2,315.1 148.3,315.1 	"/>
	<polygon fill="#843D82" points="49.3,237 49.3,250.9 122.2,250.9 122.2,300.7 136.9,300.7 137,237 	"/>
	<rect x="101.8" y="237.5" fill="#843D82" width="14.7" height="63.2"/>
	<polygon fill="#672A7A" points="127.8,311.9 116.6,300.7 101.8,300.7 101.8,315.1 127.8,315.1 	"/>
	<path fill="#843D82" d="M99.1,241.8c-0.3-7.6-0.1-7.3-1.4-15.2l-48.4-43.5l0,67.8L99.1,241.8z"/>
	<path fill="#FDB813" d="M162.7,200.2c0.1,0,0.2,0,0.2,0c3.3-0.5,5.5-3.6,5-6.8c-0.5-3.3-3.6-5.5-6.8-5c-0.1,0-0.2,0-0.2,0.1l0,0
		l-6.1,1l1.8,11.8L162.7,200.2L162.7,200.2z"/>
	<path fill="#FDB813" d="M162.9,200.2c3.3-0.5,5.5-3.6,5-6.8c-0.2-1.1-0.6-2-1.2-2.8c-2.6-1.4-5.8-0.7-7.6,1.7
		c-1.9,2.6-1.4,6.3,1.2,8.3l2.4-0.4l0,0C162.8,200.2,162.8,200.2,162.9,200.2"/>
	<path fill="#231F20" d="M161,196.8c-0.1,0.8-0.8,1.3-1.6,1.2l-34.1-4c-0.8-0.1-1.3-0.8-1.2-1.6l2.5-21.9c0.1-0.8,0.8-1.3,1.6-1.2
		l34.1,4c0.8,0.1,1.3,0.8,1.2,1.6L161,196.8z"/>
	<path fill="#747474" d="M142.9,194.2c0,0.4-0.4,0.7-0.8,0.6c-0.4,0-0.7-0.4-0.6-0.8c0-0.4,0.4-0.7,0.8-0.6
		C142.7,193.5,142.9,193.8,142.9,194.2"/>
	
		<rect x="135.1" y="166.9" transform="matrix(0.1153 -0.9933 0.9933 0.1153 -54.1166 304.5883)" fill="#1EBBEE" width="17.6" height="31.6"/>
	<path fill="#F68C1F" d="M640.9,154.1l-0.2,3.4l6,1l-4.4,13.6L633,184l2-17l2.6-5.8c0.8-1.9,1.8-5.8-0.5-7.9L640.9,154.1z"/>
	<polygon fill="#FDB813" points="625.5,147.2 622.2,159.5 629,159.3 	"/>
	<path fill="#FDB813" d="M647.2,138.4l0.3,15.4l0,0c-0.4,11.5-9.9,15.2-21.5,15.4l0-1l-0.2-8.7l-0.2-11l-0.2-9.6L647.2,138.4"/>
	<path fill="#010101" d="M630.6,150.2c0,0.5,0.4,0.9,0.9,0.9c0.5,0,0.9-0.4,0.9-0.9c0-0.5-0.4-0.9-0.9-0.9
		C631,149.4,630.6,149.8,630.6,150.2"/>
	<path fill="#1D4483" d="M630.6,150.2c0,0.5,0.4,0.9,0.9,0.9c0.5,0,0.9-0.4,0.9-0.9c0-0.5-0.4-0.9-0.9-0.9
		C631,149.4,630.6,149.8,630.6,150.2"/>
	<path fill="#1D4483" d="M640.9,145.9c-0.2-0.1-0.4-0.3-0.6-0.5c-1.9-1.7-3.2-1.2-5.8-1.3c-3.1-0.1-8.1-2-9.1-5.3l0.2,0l-0.2,0
		c0,0-7.3-10.7,3.5-6.6c2.5-1.8,5.8-2.5,8.4-1.1c1.5,0.8,2.5,1.1,4.2,1c1.4,0,2.4,0.1,3.7,0.8c0.9,0.5,1.6,1.9,1.9,3.4
		c8.8,5.2-0.2,22.1-0.2,22.1C640.9,154.9,640.9,145.9,640.9,145.9"/>
	<path fill="#FDB813" d="M640.8,145.9c2.7-0.1,4.9,2.1,5,4.8c0.1,2.7-2.1,4.9-4.8,5l-1.7,0.2l-0.2-10L640.8,145.9"/>
	<path fill="#F68C1F" d="M643.4,150.7c0-1.4-1.1-2.4-2.5-2.4l0.1,4.9C642.3,153.2,643.4,152,643.4,150.7"/>
	<path fill="#FFFFFF" d="M646.7,180.6L646.7,180.6c2.5,0,4.4,2,4.4,4.4v45.8c0,2.5-2,4.4-4.4,4.4V180.6z"/>
	<path fill="#231F20" d="M539.5,217.2c0,0.2,0.2,2.6,5.6,2.6h60.7c0,0,5.6,0,5.6-2.6H539.5z"/>
	<polygon fill="#585A5C" points="549.2,215.3 539.5,217.2 611.4,217.2 601.7,215.3 	"/>
	<path fill="#231F20" d="M601.6,213.3c0,1.1-0.9,2-2,2h-48.3c-1.1,0-2-0.9-2-2v-31c0-1.1,0.9-2,2-2h48.3c1.1,0,2,0.9,2,2V213.3z"/>
	<path fill="#747474" d="M575.8,212.6c0,0.6-0.5,1-1,1c-0.6,0-1-0.5-1-1c0-0.6,0.5-1,1-1C575.4,211.6,575.8,212.1,575.8,212.6"/>
	<rect x="553.2" y="183.9" fill="#F68C1F" width="44.5" height="24.7"/>
	<path fill="#672A7A" d="M617.3,196.3v-24.4h45.3v83.7h-45.3v1.8C617.6,246.8,618.1,205.6,617.3,196.3"/>
	<g>
		<path fill="#672A7A" d="M632.4,192.3c0.1-0.5,0.1-0.9,0.2-1.4l-9.5-1.3c-0.1,0.4-0.4,1.3-0.5,1.7c-1.2,7.7-5.1,12-9.1,15.7
			c-4,3.6-9.1,5.9-14.5,7.2c-10.8,2.7-22.3,1.2-24.6,0.8c-0.3-0.1-0.5-0.1-0.5-0.1l0,0l-1.9,10.6c0,0,0.3,0,0.6,0.1
			c2.3,0.3,9.9,1.4,19.2,0.6c9.2-0.8,20.3-3.5,28.9-11.3c5.7-5.2,10.1-12.7,11.6-22.5L632.4,192.3"/>
		<path fill="#FDB813" d="M566.8,224.8c-0.1,0-0.1,0-0.2,0c-2.9-0.5-4.9-3.2-4.5-6.1c0.5-2.9,3.2-4.9,6.1-4.5c0.1,0,0.1,0,0.2,0.1
			l0,0l5.5,0.9l-1.6,10.6L566.8,224.8L566.8,224.8z"/>
		<path fill="#FDB813" d="M566.6,224.7c-2.9-0.5-4.9-3.2-4.5-6.1c0.1-1,0.6-1.8,1.1-2.5c2.3-1.2,5.2-0.6,6.8,1.6
			c1.7,2.4,1.2,5.7-1.1,7.4l-2.2-0.3l0,0C566.8,224.7,566.7,224.8,566.6,224.7"/>
	</g>
	<polygon fill="#FDB813" points="574,312 584.1,302 597.3,302 597.3,314.9 574,314.9 	"/>
	<polygon fill="#1EA3DD" points="662.5,245.1 662.5,257.5 597.4,257.5 597.4,302 584.2,302 584.2,245.1 	"/>
	<rect x="602.5" y="245.5" fill="#1EA3DD" width="13.1" height="56.5"/>
	<polygon fill="#FDB813" points="592.3,312 602.4,302 615.7,302 615.7,314.9 592.3,314.9 	"/>
	<g>
		<path fill="#A98864" d="M651.1,305.7h3.2h17.1v0h2.5h3.6c2.8,0,2.8-2.8,2.8-2.8v-2.4c0-2.8-2.8-2.8-2.8-2.8h-24.7v-8.8H650v-17
			h12.4h15.2c0,0,2.8,0,2.8-2.8v-9.9c0,0,0-2.8-2.8-2.8h-13.1V235h6.6h6.5c0,0,2.8,0,2.8-2.8v-28.6c0,0,0-2.8-2.8-2.8h-6.5h-43.2
			c0,0-2.8,0-2.8,2.8v28.6c0,0,0,2.8,2.8,2.8h20.8v21.4h-30.9c0,0-2.8,0-2.8,2.8v9.9c0,0,0,2.8,2.8,2.8h25.9v25.8h-25.9
			c-2.8,0-2.8,2.8-2.8,2.8v2.4c0,2.8,2.8,2.8,2.8,2.8h4.4v0h1c-2.3,0.2-4.2,2.2-4.2,4.6c0,2.6,2.1,4.6,4.6,4.6
			c2.6,0,4.6-2.1,4.6-4.6c0-2.4-1.8-4.4-4.2-4.6H651.1 M652.7,305.8c-0.2-0.1-0.5-0.1-0.7-0.1h1.5
			C653.2,305.7,653,305.7,652.7,305.8"/>
		<path fill="#A98864" d="M678.6,310.3c0,2.6-2.1,4.6-4.6,4.6c-2.6,0-4.6-2.1-4.6-4.6c0-2.6,2.1-4.6,4.6-4.6
			C676.6,305.6,678.6,307.7,678.6,310.3"/>
	</g>
</g>
<g id="extras" display="none">
	<rect x="616.8" y="-5.6" display="inline" fill="none" width="378" height="1222.3"/>
	<text transform="matrix(1 0 0 1 616.8348 17.3008)" display="inline"><tspan x="0" y="0" fill="#FFFFFF" font-family="'MyriadPro-Regular'" font-size="12px">      User Problems </tspan><tspan x="0" y="43.2" fill="#FFFFFF" font-family="'MyriadPro-Regular'" font-size="12px"> </tspan><tspan x="0" y="72" fill="#FFFFFF" font-family="'MyriadPro-Regular'" font-size="12px">•I have to keep track of so many username and passwords for different </tspan><tspan x="0" y="86.4" fill="#FFFFFF" font-family="'MyriadPro-Regular'" font-size="12px">applications, so I write them all down. </tspan><tspan x="0" y="129.6" fill="#FFFFFF" font-family="'MyriadPro-Regular'" font-size="12px">•We use so many different applications for work, it is difficult to keep track </tspan><tspan x="0" y="144" fill="#FFFFFF" font-family="'MyriadPro-Regular'" font-size="12px">of what I do and do not have access to. </tspan><tspan x="0" y="187.2" fill="#FFFFFF" font-family="'MyriadPro-Regular'" font-size="12px">•I lose productivity, since I can&apos;t use my own phone or tablet to work when </tspan><tspan x="0" y="201.6" fill="#FFFFFF" font-family="'MyriadPro-Regular'" font-size="12px">I&apos;m outside the office. </tspan><tspan x="0" y="244.8" fill="#FFFFFF" font-family="'MyriadPro-Regular'" font-size="12px">•I forget my password frequently, since I am required to create a complex </tspan><tspan x="0" y="259.2" fill="#FFFFFF" font-family="'MyriadPro-Regular'" font-size="12px">password and change it often. </tspan><tspan x="0" y="316.8" fill="#FFFFFF" font-family="'MyriadPro-Regular'" font-size="12px"> </tspan><tspan x="0" y="360" fill="#FFFFFF" font-family="'MyriadPro-Regular'" font-size="12px">      Business problems </tspan><tspan x="0" y="417.6" fill="#FFFFFF" font-family="'MyriadPro-Regular'" font-size="12px">•It is becoming increasingly difficult to provide employees seamless access </tspan><tspan x="0" y="432" fill="#FFFFFF" font-family="'MyriadPro-Regular'" font-size="12px">to all the cloud based applications that our business has signed up to. </tspan><tspan x="0" y="475.2" fill="#FFFFFF" font-family="'MyriadPro-Regular'" font-size="12px">•The need to provide consistent and secure access to mobile applications </tspan><tspan x="0" y="489.6" fill="#FFFFFF" font-family="'MyriadPro-Regular'" font-size="12px">on different platforms is a challenge many IT departments are not currently </tspan><tspan x="0" y="504" fill="#FFFFFF" font-family="'MyriadPro-Regular'" font-size="12px">equipped to handle.  </tspan><tspan x="0" y="547.2" fill="#FFFFFF" font-family="'MyriadPro-Regular'" font-size="12px">•Keeping track of and managing devices being used to access work </tspan><tspan x="0" y="561.6" fill="#FFFFFF" font-family="'MyriadPro-Regular'" font-size="12px">resources has now become very difficult with the increasing numbers of </tspan><tspan x="0" y="576" fill="#FFFFFF" font-family="'MyriadPro-Regular'" font-size="12px">employees doing work using their personal computer, tablet, or phone. </tspan><tspan x="0" y="619.2" fill="#FFFFFF" font-family="'MyriadPro-Regular'" font-size="12px">•Reducing the risks involved with user&apos;s passwords being compromised will </tspan><tspan x="0" y="633.6" fill="#FFFFFF" font-family="'MyriadPro-Regular'" font-size="12px">often involve sacrificing usability by forcing users to create complex </tspan><tspan x="0" y="648" fill="#FFFFFF" font-family="'MyriadPro-Regular'" font-size="12px">passwords or implementing a complex and expensive two factor validation </tspan><tspan x="0" y="662.4" fill="#FFFFFF" font-family="'MyriadPro-Regular'" font-size="12px">infrastructure.  </tspan><tspan x="0" y="705.6" fill="#FFFFFF" font-family="'MyriadPro-Regular'" font-size="12px"> </tspan><tspan x="0" y="720" fill="#FFFFFF" font-family="'MyriadPro-Regular'" font-size="12px">       Solution </tspan><tspan x="0" y="734.4" fill="#FFFFFF" font-family="'MyriadPro-Regular'" font-size="12px"> </tspan><tspan x="0" y="748.8" fill="#FFFFFF" font-family="'MyriadPro-Regular'" font-size="12px">     &quot;I can work anywhere, anytime and using any device&quot; </tspan><tspan x="0" y="792" fill="#FFFFFF" font-family="'MyriadPro-Regular'" font-size="12px"> </tspan><tspan x="0" y="820.8" fill="#FFFFFF" font-family="'MyriadPro-Regular'" font-size="12px">•Employees use one credential to easily access all their work resources, </tspan><tspan x="0" y="835.2" fill="#FFFFFF" font-family="'MyriadPro-Regular'" font-size="12px">improving user experience and eliminating the need to store passwords in </tspan><tspan x="0" y="849.6" fill="#FFFFFF" font-family="'MyriadPro-Regular'" font-size="12px">insecure ways. </tspan><tspan x="0" y="892.8" fill="#FFFFFF" font-family="'MyriadPro-Regular'" font-size="12px">•Access to applications can be easily provided to all types of work or </tspan><tspan x="0" y="907.2" fill="#FFFFFF" font-family="'MyriadPro-Regular'" font-size="12px">personal mobile devices, and  reduces data leaks by keeping your data </tspan><tspan x="0" y="921.6" fill="#FFFFFF" font-family="'MyriadPro-Regular'" font-size="12px">inside work applications away from the user&apos;s personal applications. </tspan><tspan x="0" y="964.8" fill="#FFFFFF" font-family="'MyriadPro-Regular'" font-size="12px">•Computers, phones, and tablets of all types can be consistently secured so </tspan><tspan x="0" y="979.2" fill="#FFFFFF" font-family="'MyriadPro-Regular'" font-size="12px">that employees can work anywhere, anytime and with any device. </tspan><tspan x="0" y="1022.4" fill="#FFFFFF" font-family="'MyriadPro-Regular'" font-size="12px">•Two factor validation adds an additional layer of protection to your </tspan><tspan x="0" y="1036.8" fill="#FFFFFF" font-family="'MyriadPro-Regular'" font-size="12px">applications and reduces the risks of unauthorised access to your data  due </tspan><tspan x="0" y="1051.2" fill="#FFFFFF" font-family="'MyriadPro-Regular'" font-size="12px">to compromised passwords.  </tspan><tspan x="0" y="1108.8" fill="#FFFFFF" font-family="'MyriadPro-Regular'" font-size="12px"> </tspan><tspan x="0" y="1152" fill="#FFFFFF" font-family="'MyriadPro-Regular'" font-size="12px"> </tspan><tspan x="0" y="1180.8" fill="#FFFFFF" font-family="'MyriadPro-Regular'" font-size="12px"> </tspan></text>
</g>
</svg>
