<?xml version="1.0" encoding="utf-8"?>
<!-- Generator: Adobe Illustrator 19.2.1, SVG Export Plug-In . SVG Version: 6.00 Build 0)  -->
<svg version="1.1" xmlns="http://www.w3.org/2000/svg" xmlns:xlink="http://www.w3.org/1999/xlink" x="0px" y="0px"
	 viewBox="0 0 290 226" enable-background="new 0 0 290 226" xml:space="preserve">
<g id="desktop_management">
</g>
<g id="corporate_mobile">
	<g>
		<path fill="#E6E6E6" d="M225.6,94.6c5-2.4,8.9-6.4,10.5-11.7c3.4-11.1-4.7-23.4-18-27.4c-1-0.3-2-0.5-2.9-0.7c0,0,0-0.1,0.1-0.2
			c3-9.8-4.1-20.6-15.9-24.1c-2.5-0.8-5-1.1-7.5-1.1c-2-7.1-8.3-13.4-16.9-16c-8.4-2.5-16.8-1-22.4,3.5c-2.2-6.8-8.4-12.8-16.7-15.4
			c-8.6-2.6-17.3-0.9-22.9,3.9c-2-1.3-4.3-2.5-6.8-3.2C94.2-1.3,82.3,3.7,79.4,13.5c0,0.1,0,0.1,0,0.2c-0.9-0.4-1.9-0.7-2.8-1
			c-13.3-4-26.9,1.7-30.2,12.8c-1.6,5.3-0.6,10.8,2.3,15.5C33,37.2,17.6,44.1,13.7,57.1c-2.6,8.7,0.5,18,7.4,24.9
			c-9.6,1.9-17.3,7.9-20,16.6c-3.9,13,4.9,27.3,20,32.8c-5,2.4-8.9,6.4-10.5,11.7c-3.4,11.1,4.7,23.4,18,27.4c1,0.3,2,0.5,2.9,0.7
			c0,0,0,0.1-0.1,0.2c-3,9.8,4.1,20.6,15.9,24.1c2.5,0.8,5,1.1,7.5,1.1c2,7.1,8.3,13.4,16.9,16c8.4,2.5,16.8,1,22.4-3.5
			c2.2,6.8,8.4,12.8,16.7,15.4c8.6,2.6,17.3,0.9,22.9-3.9c2,1.3,4.3,2.5,6.8,3.2c11.7,3.6,23.7-1.5,26.6-11.3c0-0.1,0-0.1,0-0.2
			c0.9,0.4,1.9,0.7,2.8,1c13.3,4,27.9,2.6,35.4-6.3c6.3-7.5,6.2-16.1,3.3-20.9c10.6,2.2,20.1-4.4,24-17.3c2.6-8.7-0.5-18-7.4-24.9
			c9.6-1.9,17.3-7.9,20-16.6C249.5,114.4,240.6,100.1,225.6,94.6z"/>
		<g>
			
				<ellipse transform="matrix(0.8424 -0.5389 0.5389 0.8424 -9.0935 148.6739)" fill="#E6E6E6" cx="249.6" cy="89.9" rx="7.5" ry="7.5"/>
			
				<ellipse transform="matrix(0.8424 -0.5389 0.5389 0.8424 -6.4394 160.5068)" fill="#E6E6E6" cx="271.1" cy="91.3" rx="5.3" ry="5.3"/>
			
				<ellipse transform="matrix(0.8424 -0.5389 0.5389 0.8424 -6.8127 169.3733)" fill="#E6E6E6" cx="286.1" cy="96.3" rx="3.7" ry="3.7"/>
		</g>
		<g>
			<g>
				<path fill="#515150" d="M61,73.4c1-1,2.3-1.6,3.7-1.6c1.9,0,3.6,1.1,4.6,2.7c0.8-0.4,1.7-0.5,2.6-0.5c3.5,0,6.4,2.9,6.4,6.4
					c0,3.5-2.8,6.4-6.4,6.4c-0.4,0-0.8,0-1.3-0.1C69.8,88,68.3,89,66.5,89c-0.7,0-1.4-0.2-2-0.5c-0.8,1.9-2.7,3.2-4.9,3.2
					c-2.3,0-4.2-1.4-5-3.5c-0.3,0.1-0.7,0.1-1,0.1c-2.7,0-4.9-2.2-4.9-5c0-1.8,1-3.4,2.5-4.3c-0.3-0.7-0.5-1.5-0.5-2.3
					c0-3.2,2.6-5.7,5.7-5.7C58.3,71.1,59.9,72,61,73.4"/>
				<path fill="#FFFFFF" d="M53,81.8C53,81.9,53,81.9,53,81.8c0.1,0.1,0.1,0.1,0.2,0.2c0.3,0.2,0.6,0.2,0.9,0.2c0.6,0,1-0.3,1-0.8v0
					c0-0.5-0.4-0.7-0.8-0.8l-0.1,0c-0.3-0.1-0.6-0.2-0.6-0.4v0c0-0.2,0.2-0.3,0.4-0.3c0.3,0,0.6,0.1,0.8,0.2c0,0,0.1,0,0.1,0
					c0,0,0.1-0.3,0.1-0.3c0,0,0-0.1,0-0.1c-0.2-0.1-0.5-0.2-0.9-0.2l-0.1,0c-0.6,0-0.9,0.3-0.9,0.8v0c0,0.5,0.4,0.7,0.8,0.8l0.1,0
					c0.3,0.1,0.5,0.2,0.5,0.4v0c0,0.2-0.2,0.3-0.4,0.3c-0.1,0-0.4,0-0.8-0.2c0,0-0.1,0-0.1-0.1c0,0-0.1,0-0.1,0L53,81.8z"/>
				<path fill="#FFFFFF" d="M61.8,81.8C61.8,81.9,61.8,81.9,61.8,81.8c0.1,0.1,0.1,0.1,0.2,0.2c0.3,0.2,0.6,0.2,0.9,0.2
					c0.6,0,1-0.3,1-0.8v0c0-0.5-0.4-0.7-0.8-0.8l-0.1,0c-0.3-0.1-0.6-0.2-0.6-0.4v0c0-0.2,0.2-0.3,0.4-0.3c0.3,0,0.6,0.1,0.8,0.2
					c0,0,0.1,0,0.1,0c0,0,0.1-0.3,0.1-0.3c0,0,0-0.1,0-0.1c-0.2-0.1-0.5-0.2-0.9-0.2l-0.1,0c-0.6,0-0.9,0.3-0.9,0.8v0
					c0,0.5,0.4,0.7,0.8,0.8l0.1,0c0.3,0.1,0.5,0.2,0.5,0.4v0c0,0.2-0.2,0.3-0.4,0.3c-0.1,0-0.4,0-0.8-0.2c0,0-0.1,0-0.1-0.1
					c0,0-0.1,0-0.1,0L61.8,81.8z"/>
				<path fill="#FFFFFF" d="M68.4,80.3c0-0.2-0.1-0.3-0.2-0.4c-0.1-0.1-0.2-0.2-0.4-0.3c-0.2-0.1-0.3-0.1-0.5-0.1
					c-0.2,0-0.4,0-0.5,0.1c-0.2,0.1-0.3,0.2-0.4,0.3c-0.1,0.1-0.2,0.3-0.2,0.4c0,0.2-0.1,0.3-0.1,0.5c0,0.2,0,0.4,0.1,0.5
					c0,0.2,0.1,0.3,0.2,0.4c0.1,0.1,0.2,0.2,0.4,0.3c0.2,0.1,0.3,0.1,0.5,0.1c0.2,0,0.4,0,0.5-0.1c0.2-0.1,0.3-0.2,0.4-0.3
					c0.1-0.1,0.2-0.3,0.2-0.4c0-0.2,0.1-0.3,0.1-0.5C68.5,80.6,68.4,80.4,68.4,80.3 M67.9,80.8c0,0.3-0.1,0.5-0.2,0.7
					c-0.1,0.2-0.3,0.2-0.5,0.2c-0.2,0-0.4-0.1-0.5-0.2c-0.1-0.2-0.2-0.4-0.2-0.7c0-0.3,0.1-0.5,0.2-0.7c0.1-0.2,0.3-0.2,0.5-0.2
					c0.2,0,0.4,0.1,0.5,0.2C67.8,80.3,67.9,80.5,67.9,80.8"/>
				<path fill-rule="evenodd" clip-rule="evenodd" fill="#FFFFFF" d="M72.5,81.6C72.5,81.6,72.5,81.6,72.5,81.6c-0.1,0-0.2,0-0.3,0
					c-0.1,0-0.2,0-0.3,0c-0.2,0-0.4-0.1-0.6-0.2c-0.1-0.1-0.2-0.4-0.2-0.7c0-0.3,0.1-0.5,0.2-0.7c0.1-0.2,0.3-0.2,0.6-0.2
					c0.2,0,0.4,0,0.5,0.1c0,0,0,0,0.1,0c0-0.1,0.1-0.2,0.1-0.3c0,0,0-0.1,0-0.1c-0.1,0-0.2-0.1-0.3-0.1c-0.1,0-0.2,0-0.4,0
					c-0.2,0-0.4,0-0.6,0.1c-0.2,0.1-0.3,0.2-0.4,0.3c-0.1,0.1-0.2,0.3-0.2,0.4c-0.1,0.2-0.1,0.3-0.1,0.5c0,0.4,0.1,0.8,0.3,1
					c0.2,0.2,0.6,0.4,1,0.4c0.3,0,0.5-0.1,0.7-0.1c0,0,0,0,0-0.1L72.5,81.6z"/>
				<path fill-rule="evenodd" clip-rule="evenodd" fill="#FFFFFF" d="M75.1,80.2c0-0.2-0.1-0.3-0.2-0.4c-0.1-0.1-0.2-0.2-0.3-0.2
					c-0.1-0.1-0.3-0.1-0.5-0.1c-0.2,0-0.4,0-0.6,0.1c-0.2,0.1-0.3,0.2-0.4,0.3c-0.1,0.1-0.2,0.3-0.2,0.4c0,0.2-0.1,0.4-0.1,0.5
					c0,0.2,0,0.4,0.1,0.5c0.1,0.2,0.1,0.3,0.2,0.4c0.1,0.1,0.3,0.2,0.4,0.3c0.2,0.1,0.4,0.1,0.6,0.1c0.5,0,0.8-0.1,0.9-0.2
					c0,0,0,0,0-0.1L75,81.6c0,0-0.1,0-0.1,0c-0.1,0-0.3,0.1-0.7,0.1c-0.3,0-0.5-0.1-0.6-0.2c-0.1-0.1-0.2-0.3-0.2-0.6l1.7,0
					c0,0,0,0,0,0C75.2,80.9,75.2,80.5,75.1,80.2 M73.4,80.5c0-0.2,0.1-0.3,0.1-0.4c0.1-0.2,0.3-0.2,0.5-0.2s0.4,0.1,0.5,0.2
					c0.1,0.1,0.1,0.2,0.1,0.4L73.4,80.5z"/>
				<path fill-rule="evenodd" clip-rule="evenodd" fill="#FFFFFF" d="M61.4,80.2c0-0.2-0.1-0.3-0.2-0.4c-0.1-0.1-0.2-0.2-0.3-0.2
					c-0.1-0.1-0.3-0.1-0.5-0.1c-0.2,0-0.4,0-0.6,0.1c-0.2,0.1-0.3,0.2-0.4,0.3c-0.1,0.1-0.2,0.3-0.2,0.4c0,0.2-0.1,0.4-0.1,0.5
					c0,0.2,0,0.4,0.1,0.5c0.1,0.2,0.1,0.3,0.2,0.4c0.1,0.1,0.3,0.2,0.4,0.3c0.2,0.1,0.4,0.1,0.6,0.1c0.5,0,0.8-0.1,0.9-0.2
					c0,0,0,0,0-0.1l-0.1-0.3c0,0-0.1,0-0.1,0c-0.1,0-0.3,0.1-0.7,0.1c-0.3,0-0.5-0.1-0.6-0.2c-0.1-0.1-0.2-0.3-0.2-0.6l1.7,0
					c0,0,0,0,0,0C61.5,80.9,61.5,80.5,61.4,80.2 M59.7,80.5c0-0.2,0.1-0.3,0.1-0.4c0.1-0.2,0.3-0.2,0.5-0.2c0.2,0,0.4,0.1,0.5,0.2
					c0.1,0.1,0.1,0.2,0.1,0.4L59.7,80.5z"/>
				<path fill="#FFFFFF" d="M56.7,80.4c-0.1,0-0.2,0-0.3,0c-0.1,0-0.3,0-0.4,0.1c-0.1,0-0.3,0.1-0.4,0.2c-0.1,0.1-0.2,0.2-0.2,0.3
					c-0.1,0.1-0.1,0.2-0.1,0.4c0,0.2,0,0.3,0.1,0.4c0.1,0.1,0.1,0.2,0.2,0.3c0.1,0.1,0.2,0.1,0.3,0.2c0.1,0,0.3,0,0.5,0
					c0.2,0,0.3,0,0.5,0c0.2,0,0.4-0.1,0.4-0.1c0.1,0,0.1,0,0.1,0c0,0,0-0.1,0-0.1l0-1.6c0-0.3-0.1-0.6-0.3-0.8
					c-0.2-0.2-0.4-0.2-0.8-0.2c-0.1,0-0.3,0-0.5,0c0,0-0.4,0.1-0.5,0.2c0,0,0,0,0,0.1l0.1,0.3c0,0,0.1,0,0.1,0s0,0,0,0
					c0.3-0.2,0.7-0.2,0.7-0.2c0.2,0,0.3,0,0.4,0.1c0.1,0.1,0.1,0.2,0.1,0.4v0.1C56.8,80.4,56.7,80.4,56.7,80.4 M56,81.6
					c-0.1-0.1-0.1-0.1-0.1-0.1c0-0.1-0.1-0.1-0.1-0.2c0-0.1,0-0.3,0.2-0.3c0,0,0.1-0.1,0.5-0.1c0.2,0,0.5,0,0.5,0v0.8
					c0,0-0.2,0-0.5,0.1C56.2,81.8,56,81.6,56,81.6"/>
				<path fill-rule="evenodd" clip-rule="evenodd" fill="#FFFFFF" d="M70.5,79.6C70.5,79.5,70.5,79.5,70.5,79.6
					c-0.1-0.1-0.2-0.1-0.3-0.1c-0.2,0-0.3,0-0.4,0.1c-0.1,0-0.2,0.1-0.3,0.2l0-0.2c0,0,0-0.1,0-0.1H69c0,0,0,0,0,0.1v2.6
					c0,0,0,0.1,0.1,0.1h0.4c0,0,0.1,0,0.1-0.1v-1.3c0-0.2,0-0.3,0.1-0.4c0-0.1,0.1-0.2,0.1-0.3c0.1-0.1,0.1-0.1,0.2-0.1
					c0.1,0,0.2,0,0.2,0c0.1,0,0.2,0,0.2,0c0,0,0.1,0,0.1,0C70.4,79.8,70.5,79.6,70.5,79.6"/>
				<path fill-rule="evenodd" clip-rule="evenodd" fill="#FFFFFF" d="M66.3,78.4c-0.1,0-0.1,0-0.2,0c-0.1,0-0.1,0-0.2,0
					c-0.3,0-0.6,0.1-0.7,0.3c-0.2,0.2-0.3,0.4-0.3,0.8l0,0.1h-0.4c0,0,0,0-0.1,0l-0.1,0.4c0,0,0,0.1,0.1,0.1h0.4l-0.4,2.1
					c0,0.2-0.1,0.3-0.1,0.4c0,0.1-0.1,0.2-0.1,0.2c0,0.1-0.1,0.1-0.2,0.1c-0.1,0-0.1,0-0.2,0c0,0-0.1,0-0.1,0c0,0-0.1,0-0.1,0
					c0,0,0,0-0.1,0c0,0-0.1,0.3-0.1,0.3c0,0,0,0.1,0,0.1c0.1,0,0.1,0,0.2,0c0.1,0,0.2,0,0.3,0c0.2,0,0.3,0,0.4-0.1
					c0.1,0,0.2-0.1,0.3-0.2c0.1-0.1,0.2-0.2,0.2-0.4c0.1-0.2,0.1-0.3,0.2-0.6l0.4-2.2h0.6c0,0,0,0,0.1,0l0.1-0.4c0,0,0-0.1-0.1-0.1
					h-0.5c0,0,0-0.2,0.1-0.4c0-0.1,0.1-0.1,0.1-0.2c0,0,0.1-0.1,0.1-0.1c0.1,0,0.1,0,0.2,0c0.1,0,0.1,0,0.1,0c0.1,0,0.1,0,0.1,0
					c0.1,0,0.1,0,0.1,0L66.3,78.4C66.3,78.4,66.3,78.4,66.3,78.4"/>
				<path fill-rule="evenodd" clip-rule="evenodd" fill="#FFFFFF" d="M58.6,82.1C58.6,82.1,58.6,82.1,58.6,82.1l-0.5,0.1
					c0,0,0,0,0-0.1v-3.6c0,0,0-0.1,0-0.1h0.5c0,0,0,0,0,0.1V82.1z"/>
			</g>
			<path fill="#4F504F" d="M78.2,40.2c-0.7,0.3-1.4,0.5-2.2,0.6c0.8-0.5,1.4-1.2,1.7-2.1c-0.7,0.4-1.6,0.8-2.4,0.9
				c-0.7-0.7-1.7-1.2-2.8-1.2c-2.1,0-3.9,1.7-3.9,3.9c0,0.3,0,0.6,0.1,0.9c-3.2-0.2-6-1.7-7.9-4c-0.3,0.6-0.5,1.2-0.5,1.9
				c0,1.3,0.7,2.5,1.7,3.2c-0.6,0-1.2-0.2-1.7-0.5c0,0,0,0,0,0c0,1.9,1.3,3.4,3.1,3.8c-0.3,0.1-0.7,0.1-1,0.1c-0.2,0-0.5,0-0.7-0.1
				c0.5,1.5,1.9,2.6,3.6,2.7c-1.3,1-3,1.6-4.8,1.6c-0.3,0-0.6,0-0.9-0.1c1.7,1.1,3.7,1.7,5.9,1.7c7.1,0,11-5.9,11-11
				c0-0.2,0-0.3,0-0.5C77,41.6,77.7,40.9,78.2,40.2z"/>
			<g id="fb_5_">
				<g>
					<g>
						<path fill="#4F504F" d="M78.2,182.5h-2.6c-0.3,0-0.7,0.4-0.7,1l0,1.7h3.3v3.2H75l0,7.9h-3.3l0-7.9h-2.6l0-3.2h2.6v-1.6
							c0-2.4,1.7-4.2,3.9-4.2h2.6L78.2,182.5z"/>
					</g>
				</g>
			</g>
			<g>
				<g>
					<path fill="#4F504F" d="M77.7,119.6c0.1,0,0.2-0.1,0.2-0.2c0-0.1-0.1-0.2-0.2-0.2h-0.2v0.6h0.1v-0.3L77.7,119.6L77.7,119.6
						l0.1,0.3h0.1L77.7,119.6L77.7,119.6z M77.6,119.6h-0.1v-0.2h0.1c0.1,0,0.1,0,0.1,0.1C77.8,119.6,77.7,119.6,77.6,119.6z"/>
					<path fill="#4F504F" d="M77.6,119c-0.3,0-0.6,0.3-0.6,0.6c0,0.3,0.3,0.6,0.6,0.6c0.3,0,0.6-0.3,0.6-0.6
						C78.2,119.3,77.9,119,77.6,119z M77.6,120.1c-0.3,0-0.5-0.2-0.5-0.5c0-0.3,0.2-0.5,0.5-0.5c0.3,0,0.5,0.2,0.5,0.5
						C78.1,119.9,77.9,120.1,77.6,120.1z"/>
				</g>
				<g>
					<g>
						<polygon fill="#4F504F" points="41.1,113.7 42.5,113.7 42.5,118.8 45.1,118.8 45.1,120 41.1,120 						"/>
						<g>
							<path fill="#4F504F" d="M45.7,115.7H47v4.3h-1.3V115.7z M46.3,113.6c0.4,0,0.8,0.3,0.8,0.8c0,0.4-0.3,0.8-0.8,0.8
								c-0.4,0-0.8-0.3-0.8-0.8C45.6,114,45.9,113.6,46.3,113.6"/>
						</g>
						<polygon fill="#4F504F" points="52.6,113.7 53.9,113.7 53.9,117.5 55.4,115.7 57.1,115.7 55.3,117.7 57,120 55.4,120 
							53.9,117.9 53.9,117.9 53.9,120 52.6,120 						"/>
						<path fill="#4F504F" d="M47.7,115.7H49v0.6h0c0.2-0.3,0.6-0.7,1.3-0.7c1.4,0,1.6,0.9,1.6,2v2.4h-1.3V118c0-0.5,0-1.1-0.7-1.1
							c-0.7,0-0.8,0.5-0.8,1.1v2.1h-1.3V115.7z"/>
						<path fill="#4F504F" d="M59.9,117.4c0-0.4-0.3-0.8-0.8-0.8c-0.6,0-0.9,0.4-0.9,0.8H59.9z M61,119.3c-0.4,0.5-1.1,0.9-1.8,0.9
							c-1.3,0-2.4-0.9-2.4-2.3c0-1.4,1.1-2.3,2.4-2.3c1.2,0,2,0.9,2,2.3v0.4h-3.1c0.1,0.5,0.5,0.8,1,0.8c0.4,0,0.7-0.2,1-0.5
							L61,119.3z"/>
						<path fill="#4F504F" d="M64,116.8c-0.7,0-1.1,0.4-1.1,1.1c0,0.7,0.4,1.1,1.1,1.1c0.7,0,1.1-0.4,1.1-1.1
							C65.1,117.2,64.7,116.8,64,116.8 M66.3,120h-1.2v-0.6h0c-0.2,0.3-0.7,0.7-1.3,0.7c-1.3,0-2.1-0.9-2.1-2.2c0-1.2,0.7-2.3,2-2.3
							c0.6,0,1.1,0.2,1.4,0.6h0v-2.5h1.3V120z"/>
					</g>
					<path fill="#4F504F" d="M76,112.4h-7.7c-0.4,0-0.7,0.3-0.7,0.6v7.7c0,0.4,0.3,0.6,0.7,0.6H76c0.4,0,0.7-0.3,0.7-0.6V113
						C76.6,112.7,76.3,112.4,76,112.4z M70.3,120H69v-4.3h1.3V120z M69.6,115.2c-0.4,0-0.8-0.3-0.8-0.8c0-0.4,0.3-0.8,0.8-0.8
						c0.4,0,0.8,0.3,0.8,0.8C70.4,114.8,70.1,115.2,69.6,115.2z M75.3,120H74V118c0-0.5,0-1.1-0.7-1.1c-0.7,0-0.8,0.5-0.8,1.1v2.1
						h-1.3v-4.3h1.3v0.6h0c0.2-0.3,0.6-0.7,1.3-0.7c1.4,0,1.6,0.9,1.6,2V120z"/>
				</g>
			</g>
			<g id="outlook_5_">
				<path fill="#515150" d="M78.2,148.2c0-0.5-0.6-0.7-1-0.6c-2.2,0-4.3,0-6.4,0c0-1.4,0-2.8,0-4.1v-0.2c-3.2,0.6-7.6,1.3-10.8,1.9
					c0,4.8,0,9.7,0,14.5c3.2,0.5,7.6,1.3,10.8,1.8v-0.2c0-1.3,0-2.6,0-3.9c2.3,0,4.6,0,6.8,0c0.6,0,0.6-0.7,0.6-1.2
					C78.2,153.5,78.2,150.8,78.2,148.2z M66.7,155.1c-1.2,1.1-3.3,0.5-3.9-1.1c-0.7-1.7-0.4-4.4,1.6-5.1c1.2-0.4,2.5,0.2,3,1.3
					C68.1,151.8,68,154,66.7,155.1z M77.6,156.7c-2.3,0-4.6,0-6.8,0c0-1.8,0-3.6,0-5.4c0.8,0.7,1.5,1.5,2.3,2.1
					c0.4,0.1,0.6-0.2,0.8-0.4c1.2-1.2,2.5-2.4,3.8-3.5C77.6,151.8,77.6,154.3,77.6,156.7z M77.3,148.9c-1.4,1.3-2.7,2.6-4.1,3.9
					c-0.8-0.7-1.6-1.5-2.4-2.3c0-0.7,0-1.5,0-2.3c2.3,0,4.6,0,6.9,0C77.6,148.5,77.5,148.7,77.3,148.9z"/>
				<path fill="#515150" d="M64.6,150.2c0.6-0.3,1.2,0,1.5,0.5c0.4,0.8,0.4,1.8,0.1,2.7c-0.2,0.6-0.9,1.1-1.5,0.9
					c-0.8-0.2-1.1-1.2-1.1-2C63.6,151.6,63.8,150.6,64.6,150.2z"/>
			</g>
			<g>
				<path fill="#FFFFFF" d="M198.6,47.5H89c-0.9,0-1.6-0.7-1.6-1.6v0c0-0.9,0.7-1.6,1.6-1.6h109.6c0.9,0,1.6,0.7,1.6,1.6v0
					C200.2,46.8,199.5,47.5,198.6,47.5z"/>
				<path fill="#6DC2E9" d="M95.9,47.5H89c-0.9,0-1.6-0.7-1.6-1.6v0c0-0.9,0.7-1.6,1.6-1.6h6.9c0.9,0,1.6,0.7,1.6,1.6v0
					C97.5,46.8,96.7,47.5,95.9,47.5z"/>
			</g>
			<g>
				<path fill="#FFFFFF" d="M198.6,81.8H89c-0.9,0-1.6-0.7-1.6-1.6l0,0c0-0.9,0.7-1.6,1.6-1.6h109.6c0.9,0,1.6,0.7,1.6,1.6l0,0
					C200.2,81.1,199.5,81.8,198.6,81.8z"/>
				<path fill="#6DC2E9" d="M109.9,81.8H89c-0.9,0-1.6-0.7-1.6-1.6l0,0c0-0.9,0.7-1.6,1.6-1.6h20.9c0.9,0,1.6,0.7,1.6,1.6l0,0
					C111.5,81.1,110.7,81.8,109.9,81.8z"/>
			</g>
			<g>
				<path fill="#FFFFFF" d="M198.6,118.5H89c-0.9,0-1.6-0.7-1.6-1.6l0,0c0-0.9,0.7-1.6,1.6-1.6h109.6c0.9,0,1.6,0.7,1.6,1.6l0,0
					C200.2,117.8,199.5,118.5,198.6,118.5z"/>
				<path fill="#6DC2E9" d="M98.9,118.5H89c-0.9,0-1.6-0.7-1.6-1.6l0,0c0-0.9,0.7-1.6,1.6-1.6h9.9c0.9,0,1.6,0.7,1.6,1.6l0,0
					C100.5,117.8,99.7,118.5,98.9,118.5z"/>
			</g>
			<g>
				<path fill="#FFFFFF" d="M198.6,154.3H89c-0.9,0-1.6-0.7-1.6-1.6v0c0-0.9,0.7-1.6,1.6-1.6h109.6c0.9,0,1.6,0.7,1.6,1.6v0
					C200.2,153.6,199.5,154.3,198.6,154.3z"/>
				<path fill="#6DC2E9" d="M90.9,154.3H89c-0.9,0-1.6-0.7-1.6-1.6v0c0-0.9,0.7-1.6,1.6-1.6h1.9c0.9,0,1.6,0.7,1.6,1.6v0
					C92.5,153.6,91.7,154.3,90.9,154.3z"/>
			</g>
			<g>
				<path fill="#FFFFFF" d="M198.6,189.3H89c-0.9,0-1.6-0.7-1.6-1.6l0,0c0-0.9,0.7-1.6,1.6-1.6h109.6c0.9,0,1.6,0.7,1.6,1.6l0,0
					C200.2,188.6,199.5,189.3,198.6,189.3z"/>
				<path fill="#6DC2E9" d="M124.9,189.3H89c-0.9,0-1.6-0.7-1.6-1.6l0,0c0-0.9,0.7-1.6,1.6-1.6h35.9c0.9,0,1.6,0.7,1.6,1.6l0,0
					C126.5,188.6,125.7,189.3,124.9,189.3z"/>
			</g>
		</g>
	</g>
</g>
<g id="kiosk">
</g>
<g id="conditional_access">
</g>
</svg>
