<?xml version="1.0" encoding="utf-8"?>
<!-- Generator: Adobe Illustrator 19.2.1, SVG Export Plug-In . SVG Version: 6.00 Build 0)  -->
<svg version="1.1" xmlns="http://www.w3.org/2000/svg" xmlns:xlink="http://www.w3.org/1999/xlink" x="0px" y="0px"
	 viewBox="0 0 101 62" enable-background="new 0 0 101 62" xml:space="preserve">
<g id="desktop_management">
</g>
<g id="corporate_mobile">
</g>
<g id="kiosk">
</g>
<g id="conditional_access">
	<g>
		<path d="M100.6,60.6c0,0.5-1,1.4-1.4,1.4H1.9c-0.5,0-1.4-1-1.4-1.4V1.4c0-1,1-1.4,1.4-1.4h97.3c0.5,0,1.4,0.5,1.4,1.4V60.6z"/>
		<rect x="4.7" y="5.3" fill="#DD5900" width="91.6" height="51.5"/>
		<g>
			<path fill="#FFFFFF" d="M50.5,11c11,0,20,9,20,20s-9,20-20,20s-20-9-20-20S39.5,11,50.5,11z M50.5,13.6
				c-9.6,0-17.4,7.8-17.4,17.4s7.8,17.4,17.4,17.4S67.9,40.6,67.9,31S60.1,13.6,50.5,13.6z"/>
			
				<rect x="30.5" y="29.7" transform="matrix(0.7071 -0.7071 0.7071 0.7071 -7.1292 44.7886)" fill="#FFFFFF" width="40" height="2.5"/>
		</g>
	</g>
</g>
</svg>
