<?xml version="1.0" encoding="utf-8"?>
<!-- Generator: Adobe Illustrator 19.2.1, SVG Export Plug-In . SVG Version: 6.00 Build 0)  -->
<svg version="1.1" xmlns="http://www.w3.org/2000/svg" xmlns:xlink="http://www.w3.org/1999/xlink" x="0px" y="0px"
	 viewBox="0 0 63 167" enable-background="new 0 0 63 167" xml:space="preserve">
<g id="desktop_management">
	<g>
		<path fill="#17244E" d="M52.7,11.7c-0.4,0-0.8,0.3-0.9,0.7C48.8,24,45.8,66.2,44.2,88c-1.9,25.2-13.3,59.8-18.9,70.6
			c-5.2,10.3-16.5,7.1-24,3.4c-0.5-0.2-1,0.4-1.1,0.9c0,0.6,0.4,0.8,0.9,1.1c6.9,3.4,19.9,6.5,25.7-4.1c6-11,17.7-46.8,19.4-72.3
			C47.6,66,51,25.5,53.6,12.5c0.1-0.5-0.4-0.6-0.6-1C53,11.4,52.8,11.7,52.7,11.7z"/>
		<g>
			<path fill="#17244E" d="M54.7,0.3l-2.4,4c-1,1.7-0.5,3.8,1.2,4.8l2.1,1.3c1.6,1,3.8,0.5,4.8-1.2l2.4-4L54.7,0.3z"/>
			<polygon fill="#17244E" points="54.3,12.7 51.9,11.2 54.4,6.1 57.7,8.1 			"/>
			<polygon fill="#17244E" points="54.3,12.7 51.9,11.2 54.4,6.1 57.7,8.1 			"/>
			<path fill="#17244E" d="M55,13.1c-0.3,0.4-0.8,0.6-1.2,0.3L51.5,12c-0.4-0.3-0.5-0.8-0.2-1.2c0.2-0.3,0.7-0.5,1.1-0.3l2.3,1.4
				C55.1,12.2,55.2,12.8,55,13.1"/>
		</g>
	</g>
</g>
<g id="corporate_mobile">
</g>
<g id="kiosk">
</g>
<g id="conditional_access">
</g>
</svg>
