<?xml version="1.0" encoding="utf-8"?>
<!-- Generator: Adobe Illustrator 19.2.1, SVG Export Plug-In . SVG Version: 6.00 Build 0)  -->
<svg version="1.1" xmlns="http://www.w3.org/2000/svg" xmlns:xlink="http://www.w3.org/1999/xlink" x="0px" y="0px"
	 viewBox="0 0 163 334" enable-background="new 0 0 163 334" xml:space="preserve">
<g id="desktop_management">
</g>
<g id="corporate_mobile">
</g>
<g id="kiosk">
	<g>
		<g>
			<path fill="#505050" d="M12.1,27.8c0.4,0,0.4,0,0.4-0.4h-0.4V27.8z"/>
			<path fill="#505050" d="M12.1,28.9c0.4,0,0.4,0,0.4-0.4h-0.4V28.9z"/>
			<path fill="#2F2F2F" d="M53.9,90.1c0.6,0,1.1-0.5,1.1-1.1V15.5c0-0.6-0.5-1.1-1.1-1.1H9.2c-0.6,0-1.1,0.4-1.1,1.1V89
				c0,0.6,0.5,1.1,1.1,1.1H53.9"/>
			<path fill="#464646" d="M8.1,15.5v43.9l5.6-5.6V21.2c0-0.5,0.4-0.9,0.9-0.9H46h1.1l5.8-5.9H9.2C8.6,14.5,8.1,14.9,8.1,15.5"/>
			<g>
				<path d="M48,84.2c0.5,0,1-0.4,1-0.9V21.2c0-0.5-0.4-0.9-1-0.9H14.6c-0.5,0-0.9,0.4-0.9,0.9v62.1c0,0.5,0.4,0.9,0.9,0.9H48"/>
			</g>
			<path fill="#2F2F2F" d="M8.1,18.7v12.9c0,1.1-0.9,2-2,2H4c-1.1,0-2-0.9-2-2V18.7c0-1.1,0.9-2,2-2h2C7.2,16.7,8.1,17.6,8.1,18.7z"
				/>
			<g>
				<path fill="#FFFFFF" d="M36.7,22.4v59.8H15.8V22.4H36.7 M37.2,21.9H15.3v60.8h21.9V21.9L37.2,21.9z"/>
			</g>
			<g>
				<path fill="#FFFFFF" d="M46.8,22.4v9.2H39v-9.2H46.8 M47.3,21.9h-8.8V32h8.8V21.9L47.3,21.9z"/>
			</g>
			<line fill="none" stroke="#FFFFFF" stroke-width="0.5" stroke-miterlimit="10" x1="38.5" y1="38.6" x2="47.3" y2="38.6"/>
			<line fill="none" stroke="#FFFFFF" stroke-width="0.5" stroke-miterlimit="10" x1="38.5" y1="45" x2="47.3" y2="45"/>
			<line fill="none" stroke="#FFFFFF" stroke-width="0.5" stroke-miterlimit="10" x1="38.5" y1="51.3" x2="47.3" y2="51.3"/>
			<line fill="none" stroke="#FFFFFF" stroke-width="0.5" stroke-miterlimit="10" x1="38.5" y1="74.3" x2="42" y2="74.3"/>
			<line fill="none" stroke="#FFFFFF" stroke-width="0.5" stroke-miterlimit="10" x1="43.8" y1="74.3" x2="47.3" y2="74.3"/>
			<rect x="38.5" y="76.7" fill="#FFFFFF" width="8.8" height="6"/>
			<rect x="34.6" y="71.2" fill="#0078D7" width="2" height="11"/>
			<rect x="23.6" y="68.2" fill="#0078D7" width="2" height="11"/>
			<rect x="29.7" y="54.2" fill="#0078D7" width="2" height="11"/>
			<polygon fill="#107C10" points="17.9,80.2 17.9,74.2 15.9,74.2 15.9,82.2 17.9,82.2 19.9,82.2 19.9,80.2 			"/>
			<polygon fill="#107C10" points="28.7,75.2 28.7,69.2 26.7,69.2 26.7,77.2 28.7,77.2 30.7,77.2 30.7,75.2 			"/>
			<polygon fill="#107C10" points="34.6,64.2 34.6,70.2 36.6,70.2 36.6,62.2 34.6,62.2 32.6,62.2 32.6,64.2 			"/>
			<polygon fill="#107C10" points="26.7,80.2 20.7,80.2 20.7,82.2 28.7,82.2 28.7,80.2 28.7,78.2 26.7,78.2 			"/>
			<polygon fill="#107C10" points="17.9,62.2 23.9,62.2 23.9,64.2 15.9,64.2 15.9,62.2 15.9,60.2 17.9,60.2 			"/>
			<rect x="18.7" y="71.2" fill="#5C2D91" width="4" height="8"/>
			<rect x="29.7" y="66.2" fill="#5C2D91" width="4" height="8"/>
			<rect x="29.7" y="78.2" fill="#B4009E" width="4" height="4"/>
			<rect x="25.2" y="63.2" fill="#B4009E" width="4" height="4"/>
			<rect x="40.9" y="24.5" fill="#B4009E" width="4" height="4"/>
			<polygon fill="#E3008C" points="17.9,68.2 17.9,66.2 15.9,66.2 15.9,72.2 17.9,72.2 17.9,70.2 19.9,70.2 19.9,68.2 			"/>
			<polygon fill="#E3008C" points="22.6,67.2 24.6,67.2 24.6,65.2 18.6,65.2 18.6,67.2 20.6,67.2 20.6,69.2 22.6,69.2 			"/>
			<polygon fill="#E3008C" points="34.6,59.2 34.6,61.2 36.6,61.2 36.6,55.2 34.6,55.2 34.6,57.2 32.6,57.2 32.6,59.2 			"/>
			<polygon fill="#E3008C" points="25.2,30.5 25.2,32.5 27.2,32.5 27.2,26.5 25.2,26.5 25.2,28.5 23.2,28.5 23.2,30.5 			"/>
		</g>
		
			<rect x="73.6" y="74.5" opacity="0" fill="none" stroke="#FFFFFF" stroke-width="0.4263" stroke-linecap="round" stroke-linejoin="round" stroke-miterlimit="10" width="55.8" height="45.2"/>
		
			<rect x="73.6" y="95.4" opacity="0" fill="none" stroke="#FFFFFF" stroke-width="0.4263" stroke-linecap="round" stroke-linejoin="round" stroke-miterlimit="10" width="55.8" height="24.3"/>
		
			<polygon opacity="0" fill="none" stroke="#FFFFFF" stroke-width="0.4263" stroke-linecap="round" stroke-linejoin="round" stroke-miterlimit="10" points="
			86.8,314.7 53.5,314.7 71,184.1 86.8,184.1 		"/>
		
			<polygon opacity="0" fill="none" stroke="#FFFFFF" stroke-width="0.4263" stroke-linecap="round" stroke-linejoin="round" stroke-miterlimit="10" points="
			131.9,314.7 98.7,314.7 116.2,184.1 131.9,184.1 		"/>
		<path d="M71,314.7c-10.7,0-19.6,8.1-20.4,18.8H71h16.2v-18.8H71z"/>
		<polygon fill="#F89420" points="151.5,213.6 151.5,156.4 134.9,162.4 134.9,213.6 		"/>
		
			<polygon opacity="0" fill="none" stroke="#FFFFFF" stroke-width="0.4263" stroke-linecap="round" stroke-linejoin="round" stroke-miterlimit="10" points="
			151.5,213.6 151.5,156.4 134.9,162.4 134.9,213.6 		"/>
		<path fill="#F89420" d="M134.9,196.9v32.8c8.9,0,16.6-7.3,16.6-16.6C151.5,204.2,143.8,196.9,134.9,196.9"/>
		<path d="M116.2,314.7c-11.1,0-20,8.1-20.9,18.8h20.9h15.8v-18.8H116.2z"/>
		
			<polygon opacity="0" fill="none" stroke="#FFFFFF" stroke-width="0.4263" stroke-linecap="round" stroke-linejoin="round" stroke-miterlimit="10" points="
			86.3,85.2 79.9,89.5 101.7,114.2 83.3,67.7 66.7,74.5 75.7,85.2 		"/>
		
			<polygon opacity="0" fill="none" stroke="#FFFFFF" stroke-width="0.4263" stroke-linecap="round" stroke-linejoin="round" stroke-miterlimit="10" points="
			162.6,162.4 134.9,162.4 134.9,148.3 149.4,148.3 154.5,154.3 154.5,148.3 162.6,148.3 		"/>
		
			<polygon opacity="0" fill="none" stroke="#FFFFFF" stroke-width="0.4263" stroke-linecap="round" stroke-linejoin="round" stroke-miterlimit="10" points="
			71,184.1 131.9,184.1 131.9,208 68,208 		"/>
		<path fill="#F89420" d="M2.6,88.8C-1.9,81,0.8,71.1,8.5,66.6l36.3,62.8l-8.9,5.1l-7.5-7.1l-6.7-5L2.6,88.8z"/>
		<polygon fill="#1D4483" points="87.6,314.7 59.8,314.7 71,184.1 93.9,184.1 		"/>
		<polygon fill="#1D4483" points="131.9,314.7 103.1,314.7 105.4,184.1 131.9,184.1 		"/>
		<path fill="#002050" d="M131.9,74.5h-12.4c0,0-30.7,11.5-35.4,0H71c-6.4,0-11.9,2.6-15.8,6.8c-4.3,3.8-26.8,46.1-26.8,46.1
			l8.9,1.3l10.7,4.7l23-25.6v98.1h60.9v-90h3v40.5h19.6V97.1C154.5,84.8,144.3,74.5,131.9,74.5"/>
		<polygon fill="#1D4483" points="71,184.1 131.9,184.1 131.9,208 68.9,208 		"/>
		<g>
			<path fill="#F89420" d="M93.2,60.7l5.4-1.9l1.8,4.5l17.4-2.7l-1.3,18.9L87.9,93.1l8.7-22.7C96.4,67.5,97.4,62,93.2,60.7"/>
			<path fill="#F89420" d="M75.4,40.2c0.3-0.5,6-7.9,6-7.9C83.3,16.4,93.2,8.4,93.2,8.4l20.8,1.1c15.8,0,16.1,9.5,16.1,25.6
				c0.3,15.9-14.2,32-30.1,32.3h-9c0,0,0.5,0.3-5.5,0.3c-6,0-5.7-6.6-5.7-6.6v-2.5l1.4-0.3l1.1-7.7l-2.5-0.3v-3.8v-1.9h-2.5
				c-1.4,0-2.7-1.4-2.7-2.7C74.6,41.3,74.9,40.7,75.4,40.2"/>
			<path d="M86.9,36.6c-0.3,1.1,0.5,1.9,1.4,2.2c1.1,0,1.9-0.5,1.9-1.4c0.3-1.1-0.3-1.9-1.4-2.2C88,35,86.9,35.8,86.9,36.6"/>
			<path fill="#002050" d="M61.2,89.4c0,8.2,6.8,15,15,15h47.5c8.2,0,15-6.8,15-15c0-8.2-6.8-15-15-15H76.2
				C68,74.3,61.2,81.2,61.2,89.4"/>
			<path fill="#FFFFFF" d="M79.8,50.5h11.5c0,0-0.5,8.2-11.5,8.2C80.3,58.7,79.8,50.5,79.8,50.5"/>
			
				<polygon opacity="0" fill="none" stroke="#FFFFFF" stroke-width="0.2732" stroke-linecap="round" stroke-linejoin="round" stroke-miterlimit="10" points="
				107.6,63.4 95.6,63.4 84.7,74.3 112.8,74.3 			"/>
			<path fill="#1D4483" d="M86.3,15.9l0.3,0L86.3,15.9C85.9,5.1,100.1-3,108.7,2.2c2.7,1.6,4.6,2.1,7.7,2.2c2.6,0,4.5,0.3,6.8,1.6
				c1.8,1.1,3.2,4.2,3.4,7.1c7.2,0.8,7,17.9,3.4,28.8c-4.1,12.4-12.3,18.7-12.3,18.7c-10.8-6.9-9.3-26-9.3-26
				c-0.4-0.3-0.7-1.4-1.1-1.8c-3.4-3.3,0.3-6.2-4.4-6.5C97.3,25.9,88,22.1,86.3,15.9"/>
			<path fill="#F89420" d="M107.4,32.9c4.7,0.1,8.4,4,8.3,8.7c-0.1,4.7-4,8.4-8.7,8.3L107.4,32.9"/>
			<path fill="#D17E29" d="M108.9,45.1c1.4-0.7,2.4-2.1,2.5-3.8c0-2.4-1.8-4.3-4.2-4.4l-0.2,8.5C107.8,45.5,108.4,45.4,108.9,45.1"
				/>
		</g>
		<polygon fill="#1D4483" points="162.6,162.4 134.9,162.4 134.9,148.3 149.4,148.3 154.5,154.3 154.5,148.3 162.6,148.3 		"/>
		
			<polygon opacity="0" fill="none" stroke="#FFFFFF" stroke-width="0.4263" stroke-linecap="round" stroke-linejoin="round" stroke-miterlimit="10" points="
			20.3,121.4 48,121.4 48,135.5 33.5,135.5 28.4,130 28.4,135.5 20.3,135.5 		"/>
		<polygon fill="#1D4483" points="20.3,121.4 48,121.4 48,135.5 33.5,135.5 28.4,130 28.4,135.5 20.3,135.5 		"/>
	</g>
</g>
<g id="conditional_access">
</g>
</svg>
