<?xml version="1.0" encoding="utf-8"?>
<!-- Generator: Adobe Illustrator 19.2.1, SVG Export Plug-In . SVG Version: 6.00 Build 0)  -->
<svg version="1.1" xmlns="http://www.w3.org/2000/svg" xmlns:xlink="http://www.w3.org/1999/xlink" x="0px" y="0px"
	 viewBox="0 0 744 452" enable-background="new 0 0 744 452" xml:space="preserve">
<g id="desktop_management">
</g>
<g id="corporate_mobile">
	<g>
		<rect x="240.2" y="423.7" fill="#505050" width="42.1" height="3.9"/>
		
			<rect x="240.2" y="423.7" opacity="0" fill="none" stroke="#FFFFFF" stroke-width="0.1329" stroke-linecap="round" stroke-linejoin="round" stroke-miterlimit="10" width="42.1" height="3.9"/>
		<rect x="259.9" y="342.6" fill="#505050" width="2.9" height="81.8"/>
		
			<rect x="259.9" y="342.6" opacity="0" fill="none" stroke="#FFFFFF" stroke-width="0.1329" stroke-linecap="round" stroke-linejoin="round" stroke-miterlimit="10" width="2.9" height="81.8"/>
		<rect x="240.2" y="211.2" fill="#F9E491" width="42.1" height="133.5"/>
		
			<rect x="240.2" y="211.2" opacity="0" fill="none" stroke="#FFFFFF" stroke-width="0.1329" stroke-linecap="round" stroke-linejoin="round" stroke-miterlimit="10" width="42.1" height="133.5"/>
		<rect x="240.2" y="338.8" fill="#FFC20E" width="42.1" height="0.9"/>
		
			<rect x="240.2" y="338.8" opacity="0" fill="none" stroke="#FFFFFF" stroke-width="0.1329" stroke-linecap="round" stroke-linejoin="round" stroke-miterlimit="10" width="42.1" height="0.9"/>
		<rect x="240.2" y="329.8" fill="#FFC20E" width="42.1" height="0.8"/>
		
			<rect x="240.2" y="329.8" opacity="0" fill="none" stroke="#FFFFFF" stroke-width="0.1329" stroke-linecap="round" stroke-linejoin="round" stroke-miterlimit="10" width="42.1" height="0.8"/>
		<rect x="240.2" y="320.6" fill="#FFC20E" width="42.1" height="0.9"/>
		
			<rect x="240.2" y="320.6" opacity="0" fill="none" stroke="#FFFFFF" stroke-width="0.1329" stroke-linecap="round" stroke-linejoin="round" stroke-miterlimit="10" width="42.1" height="0.9"/>
		<rect x="240.2" y="311.6" fill="#FFC20E" width="42.1" height="0.9"/>
		
			<rect x="240.2" y="311.6" opacity="0" fill="none" stroke="#FFFFFF" stroke-width="0.1329" stroke-linecap="round" stroke-linejoin="round" stroke-miterlimit="10" width="42.1" height="0.9"/>
		<rect x="240.2" y="302.4" fill="#FFC20E" width="42.1" height="0.9"/>
		
			<rect x="240.2" y="302.4" opacity="0" fill="none" stroke="#FFFFFF" stroke-width="0.1329" stroke-linecap="round" stroke-linejoin="round" stroke-miterlimit="10" width="42.1" height="0.9"/>
		<rect x="240.2" y="293.4" fill="#FFC20E" width="42.1" height="0.9"/>
		
			<rect x="240.2" y="293.4" opacity="0" fill="none" stroke="#FFFFFF" stroke-width="0.1329" stroke-linecap="round" stroke-linejoin="round" stroke-miterlimit="10" width="42.1" height="0.9"/>
		<rect x="240.2" y="284.2" fill="#FFC20E" width="42.1" height="0.9"/>
		
			<rect x="240.2" y="284.2" opacity="0" fill="none" stroke="#FFFFFF" stroke-width="0.1329" stroke-linecap="round" stroke-linejoin="round" stroke-miterlimit="10" width="42.1" height="0.9"/>
		<rect x="240.2" y="275.2" fill="#FFC20E" width="42.1" height="0.9"/>
		
			<rect x="240.2" y="275.2" opacity="0" fill="none" stroke="#FFFFFF" stroke-width="0.1329" stroke-linecap="round" stroke-linejoin="round" stroke-miterlimit="10" width="42.1" height="0.9"/>
		<rect x="240.2" y="266.2" fill="#FFC20E" width="42.1" height="0.8"/>
		
			<rect x="240.2" y="266.2" opacity="0" fill="none" stroke="#FFFFFF" stroke-width="0.1329" stroke-linecap="round" stroke-linejoin="round" stroke-miterlimit="10" width="42.1" height="0.8"/>
		<rect x="240.2" y="257" fill="#FFC20E" width="42.1" height="0.9"/>
		
			<rect x="240.2" y="257" opacity="0" fill="none" stroke="#FFFFFF" stroke-width="0.1329" stroke-linecap="round" stroke-linejoin="round" stroke-miterlimit="10" width="42.1" height="0.9"/>
		<rect x="240.2" y="248" fill="#FFC20E" width="42.1" height="0.8"/>
		
			<rect x="240.2" y="248" opacity="0" fill="none" stroke="#FFFFFF" stroke-width="0.1329" stroke-linecap="round" stroke-linejoin="round" stroke-miterlimit="10" width="42.1" height="0.8"/>
		<rect x="240.2" y="238.5" fill="#FFC20E" width="42.1" height="0.9"/>
		
			<rect x="240.2" y="238.5" opacity="0" fill="none" stroke="#FFFFFF" stroke-width="0.1329" stroke-linecap="round" stroke-linejoin="round" stroke-miterlimit="10" width="42.1" height="0.9"/>
		<rect x="240.2" y="229.5" fill="#FFC20E" width="42.1" height="0.9"/>
		
			<rect x="240.2" y="229.5" opacity="0" fill="none" stroke="#FFFFFF" stroke-width="0.1329" stroke-linecap="round" stroke-linejoin="round" stroke-miterlimit="10" width="42.1" height="0.9"/>
		<rect x="240.2" y="220.3" fill="#FFC20E" width="42.1" height="0.9"/>
		
			<rect x="240.2" y="220.3" opacity="0" fill="none" stroke="#FFFFFF" stroke-width="0.1329" stroke-linecap="round" stroke-linejoin="round" stroke-miterlimit="10" width="42.1" height="0.9"/>
		<rect x="240.2" y="211.3" fill="#FFC20E" width="42.1" height="0.9"/>
		
			<rect x="240.2" y="211.3" opacity="0" fill="none" stroke="#FFFFFF" stroke-width="0.1329" stroke-linecap="round" stroke-linejoin="round" stroke-miterlimit="10" width="42.1" height="0.9"/>
	</g>
	<g>
		<g>
			<rect x="499.4" y="226.5" width="21.2" height="39.7"/>
			<polygon fill="#2F2F2F" points="516.5,317.7 537.9,305.3 544.4,316.4 533.2,322.8 526.4,320.6 529.1,325.2 522.9,328.8 			"/>
			<rect x="501.5" y="232.3" fill="#FFFFFF" width="17" height="28.7"/>
			<path fill="#333333" d="M515.3,229.7c0,0.2-0.2,0.2-0.4,0.2H505c-0.2,0-0.4,0-0.4-0.2c0-0.2,0.2-0.4,0.4-0.4h9.9
				C515.1,229.3,515.3,229.5,515.3,229.7"/>
			<g>
				<path fill="#333333" d="M503.4,263.5c0,0.4-0.4,0.5-0.5,0.5H502c-0.4,0-0.5-0.2-0.5-0.5c0-0.2,0.2-0.5,0.5-0.5h0.9
					C503.1,263,503.4,263.3,503.4,263.5"/>
				<path fill="#333333" d="M518.5,263.5c0,0.4-0.2,0.5-0.5,0.5h-0.9c-0.2,0-0.5-0.2-0.5-0.5c0-0.2,0.4-0.5,0.5-0.5h0.9
					C518.3,263,518.5,263.3,518.5,263.5"/>
				<path fill="#333333" d="M512.1,263.5c0,0.7-0.5,1.2-1.1,1.2h-1.9c-0.7,0-1.1-0.5-1.1-1.2c0-0.5,0.4-1.1,1.1-1.1h1.9
					C511.6,262.5,512.1,263,512.1,263.5"/>
			</g>
			<path fill="#B98F70" d="M494.6,272.4c-4.1-7.1-1.6-16.2,5.5-20.3l33.2,57.5l-13.1,7.6L494.6,272.4z"/>
			<g>
				<g>
					<path fill="#E6E6E6" d="M515.5,238.2h-10.9c-0.9,0-1.6-0.7-1.6-1.6l0,0c0-0.9,0.7-1.6,1.6-1.6h10.9c0.9,0,1.6,0.7,1.6,1.6l0,0
						C517,237.5,516.3,238.2,515.5,238.2z"/>
					<path fill="#6DC2E9" d="M503.8,238.2L503.8,238.2c-0.4,0-0.8-0.4-0.8-0.8v-1.5c0-0.4,0.4-0.8,0.8-0.8l0,0
						c0.4,0,0.8,0.4,0.8,0.8v1.5C504.6,237.8,504.2,238.2,503.8,238.2z"/>
				</g>
				<g>
					<path fill="#E6E6E6" d="M515.5,247.3h-10.9c-0.9,0-1.6-0.7-1.6-1.6l0,0c0-0.9,0.7-1.6,1.6-1.6h10.9c0.9,0,1.6,0.7,1.6,1.6l0,0
						C517,246.6,516.3,247.3,515.5,247.3z"/>
					<path fill="#6DC2E9" d="M503.3,247.3L503.3,247.3c-0.2,0-0.3-0.1-0.3-0.3v-2.5c0-0.2,0.1-0.3,0.3-0.3l0,0
						c0.2,0,0.3,0.1,0.3,0.3v2.5C503.6,247.2,503.4,247.3,503.3,247.3z"/>
				</g>
				<g>
					<path fill="#E6E6E6" d="M515.5,256.4h-10.9c-0.9,0-1.6-0.7-1.6-1.6v0c0-0.9,0.7-1.6,1.6-1.6h10.9c0.9,0,1.6,0.7,1.6,1.6v0
						C517,255.7,516.3,256.4,515.5,256.4z"/>
					<path fill="#6DC2E9" d="M506.2,256.4h-1.7c-0.9,0-1.6-0.7-1.6-1.6v0c0-0.9,0.7-1.6,1.6-1.6h1.7c0.9,0,1.6,0.7,1.6,1.6v0
						C507.8,255.7,507.1,256.4,506.2,256.4z"/>
				</g>
			</g>
		</g>
		<rect x="350" y="333.4" fill="#969696" width="19.7" height="93.1"/>
		
			<rect x="350" y="333.4" opacity="0" fill="none" stroke="#FFFFFF" stroke-width="0.273" stroke-linecap="round" stroke-linejoin="round" stroke-miterlimit="10" width="19.7" height="93.1"/>
		<rect x="599.6" y="345.9" fill="#A2886C" width="8.5" height="10.9"/>
		
			<rect x="599.6" y="345.9" opacity="0" fill="none" stroke="#FFFFFF" stroke-width="0.273" stroke-linecap="round" stroke-linejoin="round" stroke-miterlimit="10" width="8.5" height="10.9"/>
		<path d="M559.7,283.1c0-4.4,3.5-7.9,7.9-7.9h39.6c4.4,0,7.9,3.5,7.9,7.9v55.2c0,4.4-3.5,7.9-7.9,7.9h-39.6c-4.4,0-7.9-3.5-7.9-7.9
			V283.1z"/>
		<rect x="389.1" y="333.4" fill="#969696" width="16.4" height="93.1"/>
		
			<rect x="389.1" y="333.4" opacity="0" fill="none" stroke="#FFFFFF" stroke-width="0.273" stroke-linecap="round" stroke-linejoin="round" stroke-miterlimit="10" width="16.4" height="93.1"/>
		<polygon fill="#505050" points="405.5,345.9 389.1,333.4 405.5,333.4 		"/>
		
			<polygon opacity="0" fill="none" stroke="#FFFFFF" stroke-width="0.273" stroke-linecap="round" stroke-linejoin="round" stroke-miterlimit="10" points="
			405.5,345.9 389.1,333.4 405.5,333.4 		"/>
		<polygon points="580.5,408.7 567.1,408.7 568.7,383.6 578.8,383.6 		"/>
		
			<polygon opacity="0" fill="none" stroke="#FFFFFF" stroke-width="0.273" stroke-linecap="round" stroke-linejoin="round" stroke-miterlimit="10" points="
			580.5,408.7 567.1,408.7 568.7,383.6 578.8,383.6 		"/>
		<polygon points="577.2,383.6 570.1,383.6 570.9,373 576.6,373 		"/>
		
			<polygon opacity="0" fill="none" stroke="#FFFFFF" stroke-width="0.273" stroke-linecap="round" stroke-linejoin="round" stroke-miterlimit="10" points="
			577.2,383.6 570.1,383.6 570.9,373 576.6,373 		"/>
		<path d="M546.3,420.2c0,4.1-3.5,7.4-7.6,7.4c-4.1,0-7.4-3.3-7.4-7.4c0-4.1,3.3-7.6,7.4-7.6C542.8,412.6,546.3,416.1,546.3,420.2"
			/>
		<path d="M615.1,419.7c0,4.1-3.5,7.4-7.6,7.4c-4.1,0-7.4-3.3-7.4-7.4c0-4.1,3.3-7.4,7.4-7.4C611.6,412.3,615.1,415.6,615.1,419.7"
			/>
		<path d="M607.5,411.5c-1.4-3.5-4.4-4.9-8.7-5.7l-25.7-5.2l-25.4,5.2c-3.8,0.8-7.4,2.2-9,5.7H607.5z"/>
		<rect x="538.7" y="411.5" width="7.6" height="8.7"/>
		
			<rect x="538.7" y="411.5" opacity="0" fill="none" stroke="#FFFFFF" stroke-width="0.273" stroke-linecap="round" stroke-linejoin="round" stroke-miterlimit="10" width="7.6" height="8.7"/>
		<rect x="600.1" y="411.5" width="7.4" height="8.2"/>
		
			<rect x="600.1" y="411.5" opacity="0" fill="none" stroke="#FFFFFF" stroke-width="0.273" stroke-linecap="round" stroke-linejoin="round" stroke-miterlimit="10" width="7.4" height="8.2"/>
		<path d="M571.7,426.8c0,0.5-0.5,0.8-0.8,0.8H569c-0.5,0-0.8-0.3-0.8-0.8v-13.4c0-0.3,0.3-0.8,0.8-0.8h1.9c0.3,0,0.8,0.5,0.8,0.8
			V426.8z"/>
		<path d="M579.4,426.8c0,0.5-0.5,0.8-0.8,0.8h-1.9c-0.5,0-0.8-0.3-0.8-0.8v-13.4c0-0.3,0.3-0.8,0.8-0.8h1.9c0.3,0,0.8,0.5,0.8,0.8
			V426.8z"/>
		<rect x="569.8" y="401.9" width="7.6" height="21"/>
		
			<rect x="569.8" y="401.9" opacity="0" fill="none" stroke="#FFFFFF" stroke-width="0.273" stroke-linecap="round" stroke-linejoin="round" stroke-miterlimit="10" width="7.6" height="21"/>
		<path d="M595.8,371.1c0,1.6-1.4,3-3,3h-38.2c-1.6,0-2.7-1.4-2.7-3s1.1-3,2.7-3h38.2C594.4,368,595.8,369.4,595.8,371.1"/>
		<path fill="#A2886C" d="M531.9,365L531.9,365c0,3.3,2.7,6,6,6h71.8c3.3,0,6-2.7,6-6H531.9z"/>
		<path d="M615.1,360.9c0-2.2-1.9-4.1-4.1-4.1h-75.4c-2.2,0-3.8,1.9-3.8,4.1s1.6,4.1,3.8,4.1H611C613.2,365,615.1,363.1,615.1,360.9
			"/>
		
			<polygon opacity="0" fill="none" stroke="#FFFFFF" stroke-width="0.273" stroke-linecap="round" stroke-linejoin="round" stroke-miterlimit="10" points="
			525.9,311 550.7,311 550.7,298.1 537.6,298.1 533.2,303.6 533,298.1 525.9,298.1 		"/>
		<rect x="554.5" y="232.6" width="35.5" height="24.8"/>
		
			<rect x="554.5" y="232.6" opacity="0" fill="none" stroke="#FFFFFF" stroke-width="0.273" stroke-linecap="round" stroke-linejoin="round" stroke-miterlimit="10" width="35.5" height="24.8"/>
		<polygon fill="#B98F70" points="588.4,288.6 553.4,288.6 554.5,247.9 588.4,247.9 		"/>
		
			<polygon opacity="0" fill="none" stroke="#FFFFFF" stroke-width="0.273" stroke-linecap="round" stroke-linejoin="round" stroke-miterlimit="10" points="
			588.4,288.6 553.4,288.6 554.5,247.9 588.4,247.9 		"/>
		<polygon fill="#B98F70" points="555.6,256.4 560.5,241.6 560.5,227.4 578,227.4 578,256.4 		"/>
		
			<polygon opacity="0" fill="none" stroke="#FFFFFF" stroke-width="0.273" stroke-linecap="round" stroke-linejoin="round" stroke-miterlimit="10" points="
			555.6,256.4 560.5,241.6 560.5,227.4 578,227.4 578,256.4 		"/>
		<path fill="#927458" d="M560.5,241.6c2.7,0.5,5.7,1.1,8.7,1.1c3,0,6-0.5,8.7-1.1v-14.2h-17.5V241.6z"/>
		<path fill="#B98F70" d="M548.8,200.4v32.2c5.7,4.1,12.8,6.6,20.5,6.6c7.6,0,15-2.5,20.7-6.6v-32.2H548.8z"/>
		<path d="M513.9,409.6c-9.8,0-17.7,7.4-18.6,16.9h18.6h14.5v-16.9H513.9z"/>
		<path fill="#B98F70" d="M513.9,409.6c-6.6,0-12.3,3.3-15.6,8.5h20.2c4.9,0,9-3.8,9.6-8.5H513.9z"/>
		<polygon fill="#2F2F2F" points="528.3,409.6 501,409.6 511.9,353.9 528.3,358.8 		"/>
		
			<polygon opacity="0" fill="none" stroke="#FFFFFF" stroke-width="0.273" stroke-linecap="round" stroke-linejoin="round" stroke-miterlimit="10" points="
			528.3,409.6 501,409.6 511.9,353.8 528.3,358.8 		"/>
		<path fill="#2F2F2F" d="M528,401.6h-16.4v-44.2c0-12.3,10.1-22.1,22.1-22.1h33.9v22.7h-33.9c-3,0-5.7,2.5-5.7,5.7V401.6z"/>
		<path fill="#2F2F2F" d="M567.6,357.9c12.6,0,22.7-10.1,22.7-22.7h-36.9C553.4,347.8,555.3,357.9,567.6,357.9"/>
		<path d="M479.2,409.6c-9.8,0-18,7.4-18.8,16.9h18.8h14.2v-16.9H479.2z"/>
		<path fill="#B98F70" d="M479.2,409.6c-6.8,0-12.6,3.3-15.8,8.5h20.2c5.2,0,9-3.8,9.8-8.5H479.2z"/>
		<polygon fill="#2F2F2F" points="493.4,409.6 466.3,409.6 477,353.8 493.4,358.8 		"/>
		
			<polygon opacity="0" fill="none" stroke="#FFFFFF" stroke-width="0.273" stroke-linecap="round" stroke-linejoin="round" stroke-miterlimit="10" points="
			493.4,409.6 466.3,409.6 477,353.8 493.4,358.8 		"/>
		<path fill="#2F2F2F" d="M493.4,401.6h-16.7v-44.2c0-12.3,10.1-22.1,22.4-22.1H533v22.7h-33.9c-3.3,0-5.7,2.5-5.7,5.7V401.6z"/>
		<path fill="#2F2F2F" d="M533,357.9c12.6,0,22.7-10.1,22.7-22.7h-37.1C518.5,347.8,520.4,357.9,533,357.9"/>
		<rect x="535.7" y="328.7" fill="#2F2F2F" width="54.6" height="9.6"/>
		
			<rect x="535.7" y="328.7" opacity="0" fill="none" stroke="#FFFFFF" stroke-width="0.273" stroke-linecap="round" stroke-linejoin="round" stroke-miterlimit="10" width="54.6" height="9.6"/>
		<path fill="#6DC2E9" d="M549.3,333.4c0,15,19.1,32.5,41,32.5v-32.5H549.3z"/>
		<path fill="#6DC2E9" d="M590.6,247.9h-11.5l-25.4,30.6l0.8-30.6c0,0-18.8,4.4-18.8,36.3v43.7h54.6l0.3-42.6h2.7v23.5h17.5v-40.4
			C610.8,257.2,601.8,247.9,590.6,247.9"/>
		<polygon fill="#2F2F2F" points="618.1,311 593.3,311 593.3,298.1 606.4,298.1 610.8,303.6 610.8,298.1 618.1,298.1 		"/>
		
			<polygon opacity="0" fill="none" stroke="#FFFFFF" stroke-width="0.273" stroke-linecap="round" stroke-linejoin="round" stroke-miterlimit="10" points="
			618.1,311 593.3,311 593.3,298.1 606.4,298.1 610.8,303.6 610.8,298.1 618.1,298.1 		"/>
		<polygon fill="#2F2F2F" points="573.6,256.4 578.3,261.8 553.7,278.5 578,241.6 593.3,251.5 582.9,258.6 		"/>
		
			<polygon opacity="0" fill="none" stroke="#FFFFFF" stroke-width="0.273" stroke-linecap="round" stroke-linejoin="round" stroke-miterlimit="10" points="
			573.6,256.4 578.3,261.8 553.7,278.5 578,241.6 593.3,251.5 582.9,258.6 		"/>
		<rect x="548.8" y="213.8" fill="#B98F70" width="20.5" height="25.4"/>
		
			<rect x="548.8" y="213.8" opacity="0" fill="none" stroke="#FFFFFF" stroke-width="0.273" stroke-linecap="round" stroke-linejoin="round" stroke-miterlimit="10" width="20.5" height="25.4"/>
		<path fill="#B98F70" d="M590,223.3v-21.8c0-11.5-9.3-20.8-20.7-20.8c-11.2,0-20.5,9.3-20.5,20.8v21.8H590z"/>
		<g>
			<defs>
				<path id="SVGID_25_" d="M548.8,201.5v21.8H590v-21.8c0-11.5-9.3-20.8-20.7-20.8C558.1,180.7,548.8,190,548.8,201.5"/>
			</defs>
			<clipPath id="SVGID_2_">
				<use xlink:href="#SVGID_25_"  overflow="visible"/>
			</clipPath>
			<path clip-path="url(#SVGID_2_)" d="M557.8,177.2c3.8-1.6,7.9-2.7,12.3-2.7c16.7,0,30,13.4,30,30v14.7
				C578,216.8,560.3,199.3,557.8,177.2"/>
			<path clip-path="url(#SVGID_2_)" d="M566.8,182.1c-1.6-0.8-3.8-1.4-6-1.4c-7.9,0-14.5,6.6-14.5,14.7v7.1
				C557,201.5,565.7,192.7,566.8,182.1"/>
		</g>
		<path fill="#927458" d="M582.9,209.1h-3v10.4h3c1.4,0,2.5-1.1,2.5-2.5v-5.5C585.4,210.2,584.3,209.1,582.9,209.1"/>
		<path fill="#FFFFFF" d="M584,220.3c0,0.8-0.5,1.4-1.4,1.4c-0.8,0-1.4-0.5-1.4-1.4c0-0.8,0.5-1.6,1.4-1.6
			C583.5,218.7,584,219.5,584,220.3"/>
		<polygon fill="#2F2F2F" points="553.7,278.5 560.5,241.9 550.7,250.9 551.3,256.4 554.3,256.4 551.8,260.2 		"/>
		
			<polygon opacity="0" fill="none" stroke="#FFFFFF" stroke-width="0.273" stroke-linecap="round" stroke-linejoin="round" stroke-miterlimit="10" points="
			553.7,278.5 560.5,241.9 550.7,250.9 551.3,256.4 554.3,256.4 551.8,260.2 		"/>
		<path fill="#B98F70" d="M610.8,311c0,7.1-5.5,12.6-12.3,12.6V311H610.8z"/>
		<path fill="#B98F70" d="M547.7,311c-23.5,0-24.8,12.6-24.8,12.6h24.8h50.8V311H547.7z"/>
		<polygon fill="#D2D2D2" points="570.4,213.2 579.9,212.1 579.9,209.1 568.2,209.1 		"/>
		
			<polygon opacity="0" fill="none" stroke="#FFFFFF" stroke-width="0.273" stroke-linecap="round" stroke-linejoin="round" stroke-miterlimit="10" points="
			570.4,213.2 579.9,212.1 579.9,209.1 568.2,209.1 		"/>
		<path fill="#FFFFFF" d="M569.3,215.4c0,0.8-0.5,1.1-1.1,1.1h-6.3c-0.5,0-1.1-0.3-1.1-1.1l-0.5-4.1c0-0.5,0.5-1.1,1.1-1.1h6.8
			c0.5,0,1.1,0.5,1.1,1.1V215.4z M553.4,215.4L553.4,215.4c0,0.8-0.3,1.1-1.1,1.1h-6.3c-0.5,0-1.1-0.3-1.1-1.1v-4.1
			c0-0.5,0.5-1.1,1.1-1.1h6.8c0.5,0,1.1,0.5,1.1,1.1L553.4,215.4z M568.2,209.1h-6.8c-0.8,0-1.6,0.5-1.9,1.4h-4.6
			c-0.3-0.8-1.1-1.4-1.9-1.4h-6.8c-1.1,0-2.2,1.1-2.2,2.2v4.1c0,1.4,1.1,2.5,2.2,2.5h6.3c1.4,0,2.5-1.1,2.5-2.5l0.3-3.5h4.1l0.5,3.8
			c0,1.1,1.1,2.2,2.2,2.2h6.3c1.4,0,2.2-1.1,2.2-2.5v-4.1C570.4,210.2,569.5,209.1,568.2,209.1"/>
		<polygon fill="#505050" points="369.7,348.4 350,333.4 369.7,333.4 		"/>
		
			<polygon opacity="0" fill="none" stroke="#FFFFFF" stroke-width="0.273" stroke-linecap="round" stroke-linejoin="round" stroke-miterlimit="10" points="
			369.7,348.4 350,333.4 369.7,333.4 		"/>
		<rect x="661" y="333.4" fill="#969696" width="16.4" height="94.2"/>
		
			<rect x="661" y="333.4" opacity="0" fill="none" stroke="#FFFFFF" stroke-width="0.273" stroke-linecap="round" stroke-linejoin="round" stroke-miterlimit="10" width="16.4" height="94.2"/>
		<polygon fill="#505050" points="677.4,345.9 661,333.4 677.4,333.4 		"/>
		
			<polygon opacity="0" fill="none" stroke="#FFFFFF" stroke-width="0.273" stroke-linecap="round" stroke-linejoin="round" stroke-miterlimit="10" points="
			677.4,345.9 661,333.4 677.4,333.4 		"/>
		<rect x="618.7" y="333.4" fill="#969696" width="19.7" height="94.2"/>
		
			<rect x="618.7" y="333.4" opacity="0" fill="none" stroke="#FFFFFF" stroke-width="0.273" stroke-linecap="round" stroke-linejoin="round" stroke-miterlimit="10" width="19.7" height="94.2"/>
		<polygon fill="#505050" points="638.3,348.4 618.7,333.4 638.3,333.4 		"/>
		
			<polygon opacity="0" fill="none" stroke="#FFFFFF" stroke-width="0.273" stroke-linecap="round" stroke-linejoin="round" stroke-miterlimit="10" points="
			638.3,348.4 618.7,333.4 638.3,333.4 		"/>
		<rect x="322.7" y="322.2" fill="#737373" width="381.7" height="11.2"/>
		
			<rect x="322.7" y="322.2" opacity="0" fill="none" stroke="#FFFFFF" stroke-width="0.273" stroke-linecap="round" stroke-linejoin="round" stroke-miterlimit="10" width="381.7" height="11.2"/>
		<rect x="605.6" y="322.2" fill="#505050" width="98.8" height="11.2"/>
		
			<rect x="605.6" y="322.2" opacity="0" fill="none" stroke="#FFFFFF" stroke-width="0.273" stroke-linecap="round" stroke-linejoin="round" stroke-miterlimit="10" width="98.8" height="11.2"/>
		<polygon fill="#927458" points="557,225.2 551.3,225.2 557,213.2 		"/>
		
			<polygon opacity="0" fill="none" stroke="#FFFFFF" stroke-width="0.273" stroke-linecap="round" stroke-linejoin="round" stroke-miterlimit="10" points="
			557,225.2 551.3,225.2 557,213.2 		"/>
		<path d="M553.4,214c0,0.8-0.5,1.4-1.4,1.4c-0.8,0-1.4-0.5-1.4-1.4c0-0.8,0.5-1.4,1.4-1.4C552.9,212.7,553.4,213.2,553.4,214"/>
		<path d="M567.6,214c0,0.8-0.5,1.4-1.4,1.4c-0.8,0-1.4-0.5-1.4-1.4c0-0.8,0.5-1.4,1.4-1.4C567.1,212.7,567.6,213.2,567.6,214"/>
		
			<line fill="none" stroke="#FFFFFF" stroke-width="0.6711" stroke-linecap="round" stroke-miterlimit="1" x1="554.1" y1="230.7" x2="560.8" y2="230.7"/>
		<g>
			<path fill="#333333" d="M545.7,311.9c0-0.6,0.5-1.1,1.1-1.1h4c0.6,0,1.1,0.5,1.1,1.1v5.1c0,0.6-0.5,1.1-1.1,1.1h-4
				c-0.6,0-1.1-0.5-1.1-1.1V311.9z"/>
			<path fill="#333333" d="M549.7,319h-1.8c-0.1,0-0.1-0.1-0.1-0.1c0-0.1,0.1-0.1,0.1-0.1h1.8c0.1,0,0.1,0.1,0.1,0.1
				C549.8,318.9,549.8,319,549.7,319 M546.8,318.3l0.2,1h3.6l0.2-1H546.8z"/>
			<path fill="#333333" d="M549.5,320.2h-1.4c-0.1,0-0.1-0.1-0.1-0.1c0-0.1,0.1-0.1,0.1-0.1h1.4c0.1,0,0.1,0.1,0.1,0.1
				C549.7,320.1,549.6,320.2,549.5,320.2 M547,319.5l0.2,1h3.3l0.2-1H547z"/>
			<rect x="546.5" y="315.6" fill="#FFB900" width="4.6" height="1.6"/>
			
				<rect x="546.5" y="315.6" opacity="0" fill="none" stroke="#FFFFFF" stroke-width="3.609727e-002" stroke-linecap="round" stroke-linejoin="round" stroke-miterlimit="10" width="4.6" height="1.6"/>
			<path fill="#737373" d="M548.7,314.8c0-0.1,0.1-0.3,0.3-0.3h1.9c0.1,0,0.3,0.1,0.3,0.3c0,0.2-0.1,0.3-0.3,0.3h-1.9
				C548.8,315.1,548.7,315,548.7,314.8"/>
			<path fill="#737373" d="M546.5,314.8c0-0.1,0.1-0.3,0.3-0.3h1.3c0.2,0,0.3,0.1,0.3,0.3c0,0.2-0.1,0.3-0.3,0.3h-1.3
				C546.6,315.1,546.5,315,546.5,314.8"/>
			<path fill="#737373" d="M547.7,313.8c0-0.1,0.1-0.3,0.3-0.3h0.4c0.2,0,0.3,0.1,0.3,0.3s-0.1,0.3-0.3,0.3H548
				C547.8,314.1,547.7,313.9,547.7,313.8"/>
			<path fill="#737373" d="M546.5,313.8c0-0.1,0.1-0.3,0.3-0.3h0.4c0.1,0,0.3,0.1,0.3,0.3s-0.1,0.3-0.3,0.3h-0.4
				C546.6,314.1,546.5,313.9,546.5,313.8"/>
			<path fill="#737373" d="M551.1,313.8c0,0.1-0.1,0.3-0.3,0.3h-0.4c-0.1,0-0.3-0.1-0.3-0.3s0.1-0.3,0.3-0.3h0.4
				C551,313.5,551.1,313.6,551.1,313.8"/>
			<path fill="#737373" d="M549.9,313.8c0,0.1-0.1,0.3-0.3,0.3h-0.4c-0.1,0-0.3-0.1-0.3-0.3c0-0.1,0.1-0.3,0.3-0.3h0.4
				C549.8,313.5,549.9,313.6,549.9,313.8"/>
			<path fill="#737373" d="M547.7,312.9c0-0.1,0.1-0.3,0.3-0.3h0.4c0.2,0,0.3,0.1,0.3,0.3s-0.1,0.3-0.3,0.3H548
				C547.8,313.1,547.7,313,547.7,312.9"/>
			<path fill="#737373" d="M546.5,312.9c0-0.1,0.1-0.3,0.3-0.3h0.4c0.1,0,0.3,0.1,0.3,0.3s-0.1,0.3-0.3,0.3h-0.4
				C546.6,313.1,546.5,313,546.5,312.9"/>
			<path fill="#737373" d="M551.1,312.9c0,0.1-0.1,0.3-0.3,0.3h-0.4c-0.1,0-0.3-0.1-0.3-0.3s0.1-0.3,0.3-0.3h0.4
				C551,312.6,551.1,312.7,551.1,312.9"/>
			<path fill="#737373" d="M549.9,312.9c0,0.1-0.1,0.3-0.3,0.3h-0.4c-0.1,0-0.3-0.1-0.3-0.3c0-0.1,0.1-0.3,0.3-0.3h0.4
				C549.8,312.6,549.9,312.7,549.9,312.9"/>
			<path fill="#737373" d="M547.7,311.9c0-0.1,0.1-0.3,0.3-0.3h0.4c0.2,0,0.3,0.1,0.3,0.3s-0.1,0.3-0.3,0.3H548
				C547.8,312.2,547.7,312.1,547.7,311.9"/>
			<path fill="#737373" d="M546.5,311.9c0-0.1,0.1-0.3,0.3-0.3h0.4c0.1,0,0.3,0.1,0.3,0.3s-0.1,0.3-0.3,0.3h-0.4
				C546.6,312.2,546.5,312.1,546.5,311.9"/>
			<path fill="#737373" d="M551.1,311.9c0,0.1-0.1,0.3-0.3,0.3h-0.4c-0.1,0-0.3-0.1-0.3-0.3s0.1-0.3,0.3-0.3h0.4
				C551,311.6,551.1,311.8,551.1,311.9"/>
			<path fill="#737373" d="M549.9,311.9c0,0.1-0.1,0.3-0.3,0.3h-0.4c-0.1,0-0.3-0.1-0.3-0.3c0-0.1,0.1-0.3,0.3-0.3h0.4
				C549.8,311.6,549.9,311.8,549.9,311.9"/>
			<g display="none">
				<path display="inline" fill="#333333" d="M547.9,310h1.8c0.1,0,0.1,0.1,0.1,0.1c0,0.1,0,0.1-0.1,0.1h-1.8
					c-0.1,0-0.1-0.1-0.1-0.1C547.7,310.1,547.8,310,547.9,310 M550.8,310.7l-0.2-1H547l-0.2,1H550.8z"/>
				<path display="inline" fill="#333333" d="M548.1,308.8h1.4c0.1,0,0.1,0,0.1,0.1c0,0.1-0.1,0.1-0.1,0.1h-1.4
					c-0.1,0-0.1,0-0.1-0.1C547.9,308.9,548,308.8,548.1,308.8 M550.6,309.5l-0.2-1h-3.3l-0.2,1H550.6z"/>
				<path display="inline" fill="#333333" d="M548.8,304.2c0.1,0,0.2,0.1,0.2,0.2s-0.1,0.2-0.2,0.2s-0.2-0.1-0.2-0.2
					S548.7,304.2,548.8,304.2 M548.8,303.3c0.1,0,0.2,0.1,0.2,0.2s-0.1,0.2-0.2,0.2s-0.2-0.1-0.2-0.2S548.7,303.3,548.8,303.3
					 M548.8,302.4c0.1,0,0.2,0.1,0.2,0.2s-0.1,0.2-0.2,0.2s-0.2-0.1-0.2-0.2S548.7,302.4,548.8,302.4 M548.8,301.4
					c0.1,0,0.2,0.1,0.2,0.2c0,0.1-0.1,0.2-0.2,0.2s-0.2-0.1-0.2-0.2C548.6,301.5,548.7,301.4,548.8,301.4 M548.8,300.5
					c0.1,0,0.2,0.1,0.2,0.2c0,0.1-0.1,0.2-0.2,0.2s-0.2-0.1-0.2-0.2C548.6,300.6,548.7,300.5,548.8,300.5 M548.8,299.6
					c0.1,0,0.2,0.1,0.2,0.2s-0.1,0.2-0.2,0.2s-0.2-0.1-0.2-0.2S548.7,299.6,548.8,299.6 M548.8,298.7c0.1,0,0.2,0.1,0.2,0.2
					s-0.1,0.2-0.2,0.2s-0.2-0.1-0.2-0.2S548.7,298.7,548.8,298.7 M550.4,308.2v-9.5c0-0.9-0.7-1.6-1.6-1.6c-0.9,0-1.6,0.7-1.6,1.6
					v9.5H550.4z"/>
			</g>
			<g>
				<defs>
					<rect id="SVGID_27_" x="541.5" y="319.3" width="15.8" height="2.9"/>
				</defs>
				<clipPath id="SVGID_4_">
					<use xlink:href="#SVGID_27_"  overflow="visible"/>
				</clipPath>
				<g clip-path="url(#SVGID_4_)">
					<path fill="#333333" d="M546.7,325.1c0-0.1,0.1-0.3,0.3-0.3h3.6c0.2,0,0.3,0.1,0.3,0.3v1.2c0,0.1-0.1,0.3-0.3,0.3H547
						c-0.2,0-0.3-0.1-0.3-0.3V325.1z"/>
					<path fill="#333333" d="M547,331.9h3.6c0.2,0,0.3-0.1,0.3-0.3v-2.5c0-0.2-0.1-0.3-0.3-0.3H547c-0.2,0-0.3,0.1-0.3,0.3v2.5
						C546.7,331.8,546.8,331.9,547,331.9 M547.1,329.2h3.5v1.9h-3.5V329.2z"/>
					<path fill="#333333" d="M547.2,328.4c0,0.1,0.1,0.3,0.3,0.3h2.6c0.1,0,0.3-0.1,0.3-0.3v-7.6h-3.1V328.4z"/>
					<path fill="#333333" d="M548.5,329v1.7c0,0.1,0.1,0.3,0.3,0.3c0.1,0,0.3-0.1,0.3-0.3V329H548.5z"/>
				</g>
			</g>
		</g>
	</g>
</g>
<g id="kiosk">
</g>
<g id="conditional_access">
</g>
</svg>
