<?xml version="1.0" encoding="utf-8"?>
<!-- Generator: Adobe Illustrator 19.2.1, SVG Export Plug-In . SVG Version: 6.00 Build 0)  -->
<svg version="1.1" xmlns="http://www.w3.org/2000/svg" xmlns:xlink="http://www.w3.org/1999/xlink" x="0px" y="0px"
	 viewBox="0 0 13.2 7.3" enable-background="new 0 0 13.2 7.3" xml:space="preserve">
<g id="frame">
	<path fill="#9C4F96" d="M0.2,1.9c-0.4,0.9-0.2,2,0.3,2.8C0.8,5.2,1.3,5.6,2,5.9C3.1,6.3,4.4,6,5.3,5.2l1,0.4L6.5,5l0.4,0.6l0.9-0.2
		l0.4,0.7L9,5.9l0.4,0.7l1.4-0.2L11,7.1l0.5,0.2l1.7-1.1l0.2-0.5L6.1,2.9c0-0.1,0-0.3,0-0.4c-0.2-1-0.9-1.9-1.9-2.3
		C2.6-0.4,0.8,0.4,0.2,1.9 M2.7,2.9C2.5,3.4,2,3.6,1.6,3.4C1.2,3.3,1,2.8,1.1,2.3c0.2-0.5,0.7-0.7,1.1-0.5C2.7,1.9,2.8,2.4,2.7,2.9"
		/>
</g>
<g id="extras" display="none">
</g>
</svg>
