<?xml version="1.0" encoding="utf-8"?>
<!-- Generator: Adobe Illustrator 19.2.1, SVG Export Plug-In . SVG Version: 6.00 Build 0)  -->
<svg version="1.1" xmlns="http://www.w3.org/2000/svg" xmlns:xlink="http://www.w3.org/1999/xlink" x="0px" y="0px"
	 viewBox="0 0 33.4 19" enable-background="new 0 0 33.4 19" xml:space="preserve">
<g id="frame">
	<path fill="#FFFFFF" d="M0.5,5.2c-0.9,2.4-0.6,4.9,0.7,6.9c0.9,1.3,2.1,2.4,3.7,3c3,1.2,6.2,0.4,8.3-1.7l2.4,1l0.5-1.4l1.1,1.5
		l2.4-0.6l0.9,1.9l2.1-0.7l1,1.8l3.6-0.4l0.3,1.6l1.3,0.5l4.1-2.8l0.5-1.2l-18-7c0-0.3-0.1-0.6-0.1-0.9c-0.5-2.5-2.2-4.8-4.8-5.8
		C6.5-0.7,2.1,1.3,0.5,5.2 M6.7,7.6C6.2,8.7,5,9.3,3.9,8.9C2.9,8.5,2.4,7.3,2.9,6.1c0.5-1.2,1.7-1.8,2.7-1.3
		C6.6,5.2,7.1,6.4,6.7,7.6"/>
</g>
<g id="extras" display="none">
</g>
</svg>
