<?xml version="1.0" encoding="utf-8"?>
<!-- Generator: Adobe Illustrator 19.2.1, SVG Export Plug-In . SVG Version: 6.00 Build 0)  -->
<svg version="1.1" xmlns="http://www.w3.org/2000/svg" xmlns:xlink="http://www.w3.org/1999/xlink" x="0px" y="0px"
	 viewBox="0 0 120 117" enable-background="new 0 0 120 117" xml:space="preserve">
<g id="desktop_management">
	<g>
		<g>
			<circle fill="#E6E7E8" cx="108" cy="86.3" r="7"/>
			<circle fill="#E6E7E8" cx="102" cy="104.2" r="4.9"/>
			<circle fill="#E6E7E8" cx="90.5" cy="113.4" r="3.4"/>
		</g>
		<polygon fill="#E6E7E8" points="113.2,50.8 117.4,53.7 119.7,57.3 115.8,59.4 114.1,61.7 113.7,65.2 112.5,68.6 108.6,68.7 
			102.8,64.3 102.3,69.1 101.7,75.6 97.5,72.3 93.7,69.1 92.7,77.4 89.6,77 85.6,69.4 83.3,73.7 81.1,80.6 77.9,77.6 74.9,76.2 
			72.1,78.1 69.3,79.7 66.3,76.6 63.5,73.7 60.6,75.2 57.6,77 54.8,75 51.5,78.1 49.4,72.6 46.5,72.9 42.4,77.7 39.3,77.8 38,71.5 
			34.1,73.9 31.9,71.4 30.4,67.4 29.4,63.1 24,67.4 23.3,63 18.3,65.4 17.1,62.1 12.3,63.2 12.3,58.6 12.2,54.8 12.2,51.4 
			11.9,48.7 9.1,47.4 9.8,44.4 4.5,43.3 0.2,40.9 0.9,37.6 7.2,35.8 3,31.5 5.4,29.3 11.9,30.6 9.3,25 9.5,21.1 11.2,18.3 
			14.6,17.7 16.8,15.7 19.1,13.8 23.1,15.1 26.7,16.1 27.8,11.7 30.4,10.4 34.2,12.6 36.5,10.4 37.9,5.4 41.7,8.4 44,5.7 46.3,2.2 
			50.8,11 53.2,8.5 55.2,1.6 58.3,3.2 61.2,2.8 64.2,5.6 67,0.2 70,1.9 72.5,7.5 75.1,8.6 78,8.2 81.1,7.3 85.4,3.5 88.3,4.9 
			88.9,10.6 89.9,14.7 96.1,10 98.9,11.3 97.6,17.9 102.5,16.5 105.2,18 105.8,21.6 106.6,24.6 108.3,26.9 112.2,27.9 114.9,29.8 
			110.7,35.2 118.7,35 116.5,39 111.1,43.4 119.8,44.5 112.4,48.3 		"/>
		<path fill="#04AF91" d="M61.9,17.5C74.7,17.5,85,27.8,85,40.6S74.7,63.7,61.9,63.7S38.8,53.3,38.8,40.6S49.2,17.5,61.9,17.5z
			 M61.9,20.4c-11.1,0-20.2,9-20.2,20.2s9,20.2,20.2,20.2s20.2-9,20.2-20.2S73.1,20.4,61.9,20.4z"/>
		<path fill="#04AF91" d="M53.1,37.6l6.9,6.9l10.8-13.8l2.9,2.9L60,50.4l-9.8-9.8L53.1,37.6z"/>
	</g>
</g>
<g id="corporate_mobile">
</g>
<g id="kiosk">
</g>
<g id="conditional_access">
</g>
</svg>
