<?xml version="1.0" encoding="utf-8"?>
<!-- Generator: Adobe Illustrator 19.2.1, SVG Export Plug-In . SVG Version: 6.00 Build 0)  -->
<svg version="1.1" xmlns="http://www.w3.org/2000/svg" xmlns:xlink="http://www.w3.org/1999/xlink" x="0px" y="0px"
	 viewBox="0 0 255 135" enable-background="new 0 0 255 135" xml:space="preserve">
<g id="desktop_management">
	<g>
		<path fill="#17244E" d="M247.9,11.5c-0.3-0.3-1-0.7-1.1-0.2C243,26.4,159.6,59.7,139.9,72c-21.3,13.3-107.4,57-119.1,60.4
			c-11.1,3.2-16.4-7.1-19-15.2c-0.2-0.5-1-0.5-1.4-0.1c-0.4,0.3-0.3,0.9-0.1,1.4c2.2,7.4,9,19,20.6,15.9
			c12.1-3.2,99.9-48.6,120.6-61.2c19.9-12.1,103.1-46,106.4-60.5c0.1-0.5,0.2-0.7,0.3-1.1C248.3,11.5,248,11.6,247.9,11.5z"/>
		<g>
			<path fill="#17244E" d="M254.8,2.6l-1.2,4.5c-0.5,1.9-2.4,3-4.3,2.5l-2.3-0.6c-1.8-0.5-3-2.4-2.5-4.3l1.2-4.5L254.8,2.6z"/>
			<polygon fill="#17244E" points="246,11.4 248.7,12.1 250.7,6.8 247.1,5.8 			"/>
			<polygon fill="#17244E" points="246,11.4 248.7,12.1 250.7,6.8 247.1,5.8 			"/>
			<path fill="#17244E" d="M245.3,11.1c-0.1,0.5,0.1,1,0.6,1.1l2.6,0.7c0.5,0.1,0.9-0.2,1-0.7c0.1-0.4-0.1-0.9-0.6-1l-2.6-0.7
				C245.9,10.5,245.4,10.7,245.3,11.1"/>
		</g>
	</g>
</g>
<g id="corporate_mobile">
</g>
<g id="kiosk">
</g>
<g id="conditional_access">
</g>
</svg>
