<?xml version="1.0" encoding="utf-8"?>
<!-- Generator: Adobe Illustrator 19.2.1, SVG Export Plug-In . SVG Version: 6.00 Build 0)  -->
<svg version="1.1" xmlns="http://www.w3.org/2000/svg" xmlns:xlink="http://www.w3.org/1999/xlink" x="0px" y="0px"
	 viewBox="0 0 284 200" enable-background="new 0 0 284 200" xml:space="preserve">
<g id="desktop_management">
	<g>
		<g>
			<rect x="86.3" y="81.4" fill="#1EBBEE" width="99.6" height="7.9"/>
			<rect x="157.9" y="81.4" opacity="0.15" width="28.1" height="7.9"/>
		</g>
		<path opacity="0.1" d="M273.4,182.3c-0.5,0-0.9,0.1-1.3,0.1v-0.1l-262.7,0v0.1C4,183-0.1,186.6-0.1,191c0,4.8,4.8,8.7,10.8,8.7
			c0.8,0,262,0,262.7,0c6,0,10.8-3.9,10.8-8.7C284.1,186.2,279.3,182.3,273.4,182.3"/>
		<polygon fill="#0060AC" points="47.5,89.3 47.5,102.6 184.5,102.6 184.5,196.1 196.1,196.1 196.1,102.6 243,102.6 243,196.1 
			254.7,196.1 254.7,102.6 254.7,101.4 254.7,89.3 		"/>
		<polygon opacity="0.1" points="190.3,89.3 190.3,101.2 190.3,102.6 190.3,196.1 196.1,196.1 196.1,102.6 248.9,102.6 248.9,196.1 
			254.7,196.1 254.7,102.6 254.7,101.2 254.7,89.3 		"/>
		<g>
			<path fill="#0060AC" d="M92.9,5.1l0,67.4c0,0,0,4.8,4.8,4.8l85,0c0,0,4.8,0,4.8-4.8V5.1c0,0,0-4.8-4.8-4.8l-85,0
				C97.7,0.2,92.9,0.2,92.9,5.1z"/>
			<path fill="#1EBBEE" d="M86.3,5.1l0,67.4c0,0,0,4.8,4.8,4.8l86.7,0c0,0,4.8,0,4.8-4.8V5.1c0,0,0-4.8-4.8-4.8l-86.7,0
				C91.2,0.2,86.3,0.2,86.3,5.1z"/>
			<rect x="91.2" y="5.1" fill="#2F2F2F" width="86.7" height="57.8"/>
			<path opacity="0.15" d="M91.2,77.4l86.8,0c0,0,4.8,0,4.8-4.5v-4.5L86.4,14.5l0,58.4C86.4,72.9,86.4,77.4,91.2,77.4z"/>
		</g>
		<rect x="46.4" y="42.5" fill="#0060AC" width="66.5" height="91.7"/>
		<rect x="46.4" y="125" fill="#0060AC" width="11.6" height="71.4"/>
		<rect x="101.3" y="125" fill="#0060AC" width="11.6" height="71.4"/>
		<rect x="72.6" y="125" fill="#0060AC" width="11.6" height="71.4"/>
		<rect x="127.5" y="125" fill="#0060AC" width="11.6" height="71.4"/>
		<rect x="93.7" y="123.6" fill="#0060AC" width="45.5" height="10.7"/>
		<rect x="107.1" y="42.5" opacity="0.15" width="5.8" height="153.8"/>
		<rect x="127.5" y="134.2" opacity="0.15" width="5.8" height="62.1"/>
		<polygon opacity="0.1" points="107.1,107.5 46.4,68.1 46.4,134.2 52.2,134.2 52.2,196.4 58,196.4 58,134.2 72.6,134.2 72.6,196.4 
			78.4,196.4 78.4,134.2 107.1,134.2 		"/>
		<g>
			<path fill="#1EBBEE" d="M214.5,79.8c-0.5,0.5-1.3,0.5-1.7,0c-0.5-0.4-0.5-1.2,0-1.7l24.3-24.4c0.5-0.4,1.3-0.4,1.8,0
				c0.4,0.5,0.4,1.3,0,1.8L214.5,79.8z"/>
			<path fill="#1EBBEE" d="M212.8,31.2c-0.5-0.4-0.5-1.2,0-1.7c0.4-0.5,1.2-0.5,1.7,0l24.4,24.3c0.4,0.5,0.4,1.3,0,1.8
				c-0.5,0.5-1.3,0.5-1.8,0L212.8,31.2z"/>
			<path fill="#0060AC" d="M206.6,29.3c0,0.3-0.3,0.4-0.5,0.3c-0.3,0-0.4-0.4-0.4-0.6l0.9-2.8c0.1-0.3,0.4-0.4,0.6-0.4
				c0.3,0.1,0.4,0.4,0.3,0.6L206.6,29.3z"/>
			<path fill="#1EBBEE" d="M208.3,32.6l1-3.5c0.1-0.5-1-1.3-2.6-1.8c-1.7-0.4-3.1-0.4-3.2,0.1l-1,3.4c0,0-8.8,3.6-11.2,11.9
				c-0.5,1.7,3.5,4.4,9,6.1c5.6,1.7,10.5,1.5,11-0.1C213.7,40.4,208.3,32.6,208.3,32.6"/>
			<path fill="#1EBBEE" d="M224.1,86.2c-2.7-3.2-6.7-5.2-11.2-5.2c-4.5,0-8.5,1.9-11.2,5.2H224.1z"/>
			<path fill="#1EBBEE" d="M225.2,88.1c0,0.6-0.5,1.2-1.2,1.2h-22.3c-0.8,0-1.3-0.5-1.3-1.2c0-0.6,0.5-1.2,1.3-1.2h22.3
				C224.7,86.9,225.2,87.5,225.2,88.1"/>
			<rect x="200.4" y="88.1" fill="#1EBBEE" width="24.8" height="1.2"/>
			<rect x="200.4" y="88.1" opacity="0" fill="#1EBBEE" width="24.8" height="1.2"/>
		</g>
	</g>
</g>
<g id="corporate_mobile">
</g>
<g id="kiosk">
</g>
<g id="conditional_access">
</g>
</svg>
