<?xml version="1.0" encoding="utf-8"?>
<!-- Generator: Adobe Illustrator 19.2.1, SVG Export Plug-In . SVG Version: 6.00 Build 0)  -->
<svg version="1.1" xmlns="http://www.w3.org/2000/svg" xmlns:xlink="http://www.w3.org/1999/xlink" x="0px" y="0px"
	 viewBox="0 0 43 117" enable-background="new 0 0 43 117" xml:space="preserve">
<g id="desktop_management">
	<g>
		<path fill="#17244E" d="M36.9,101c-0.4,0-0.8-0.3-0.9-0.7c-4.9-14.8-1.7-24.8,2.1-46.3c4.3-24.7,4.5-36.5-3.3-44.1
			C26.6,1.7,11.6-0.2,1.1,5c-0.5,0.3-1-0.4-1.1-0.9C0,3.5,0.5,3.3,1,3c9.7-5.3,26.8-3,35.3,5.5c8,7.9,8.1,21.9,3.8,45.8
			c-3.9,21.3-6.9,31-2.2,45.3c0.2,0.5-0.1,1.1-0.6,1.3C37.2,100.9,37,101,36.9,101z"/>
		<g>
			<path fill="#17244E" d="M37.6,108.3c0-0.5,0.4-0.9,0.9-0.9c0.4,0,0.8,0.4,0.8,0.9v7.6c0,0.5-0.4,0.9-0.8,0.9
				c-0.5,0-0.9-0.4-0.9-0.9V108.3z"/>
			<path fill="#17244E" d="M34,108.3c0-0.5,0.4-0.9,0.9-0.9s0.8,0.4,0.8,0.9v7.6c0,0.5-0.3,0.9-0.8,0.9s-0.9-0.4-0.9-0.9V108.3z"/>
			<path fill="#17244E" d="M41.4,111.2v-4.6c0-2-1.5-3.5-3.5-3.5h-2.4c-1.9,0-3.5,1.5-3.5,3.5v4.6H41.4z"/>
			<polygon fill="#17244E" points="35.2,100.4 38.1,100.4 38.6,106 34.7,106 			"/>
			<polygon fill="#17244E" points="35.2,100.4 38.1,100.4 38.6,106 34.7,106 			"/>
			<path fill="#17244E" d="M34.4,100.4c0-0.5,0.4-0.9,0.9-0.9h2.7c0.5,0,0.8,0.4,0.8,0.9c0,0.4-0.3,0.8-0.8,0.8h-2.7
				C34.8,101.2,34.4,100.8,34.4,100.4"/>
		</g>
	</g>
</g>
<g id="corporate_mobile">
</g>
<g id="kiosk">
</g>
<g id="conditional_access">
</g>
</svg>
