<?xml version="1.0" encoding="utf-8"?>
<!-- Generator: Adobe Illustrator 19.2.1, SVG Export Plug-In . SVG Version: 6.00 Build 0)  -->
<svg version="1.1" xmlns="http://www.w3.org/2000/svg" xmlns:xlink="http://www.w3.org/1999/xlink" x="0px" y="0px"
	 viewBox="0 0 103 237" enable-background="new 0 0 103 237" xml:space="preserve">
<g id="desktop_management">
</g>
<g id="corporate_mobile">
	<g>
		<path fill="#F89420" d="M81.4,120.7c0,0,0.1,0.1,0.1,0.1c1.8,1.9,4.9,2,6.7,0.1c1.9-1.8,1.9-4.8,0.1-6.7c0,0-0.1-0.1-0.1-0.1l0,0
			l-3.5-3.6l-6.8,6.6L81.4,120.7L81.4,120.7z"/>
		<path opacity="0.1" d="M14.3,223.2c0.4,0,0.7,0.1,1,0.1v-0.1l80.2,0v0.1c4.2,0.4,7.4,3.2,7.4,6.7c0,3.8-3.8,6.8-8.4,6.8
			c-0.6,0-79.6,0-80.2,0c-4.7,0-8.4-3-8.4-6.8C5.9,226.2,9.7,223.2,14.3,223.2"/>
		<path fill="#1EBBEE" d="M78,119.3l9.2-9C73.3,96,71.4,80.3,69.8,67.7c-1.1-8.8-2-16.4-6.9-21.5l-9.2,9c1.9,1.9,2.6,7.8,3.4,14
			C58.7,83.1,61,101.9,78,119.3z"/>
		<path fill="#3176BB" d="M53.6,55.3l2.9-2.9c2.1,5,2.9,11,3.7,17.7c1.7,14.1,3.9,31.6,19.4,47.5l-1.7,1.7c-17-17.4-19.3-36.2-21-50
			C56.2,63.1,55.5,57.2,53.6,55.3z"/>
		<path fill="#1EBBEE" d="M19,214.6l0.2,0.2v6.5v7.7h6.5v-2.4h4.4l2.2,2.4H48h3.1h3.4v-2.4H59l2.2,2.4H80v-7.7l-17.8-3.7l-3.4-89.7
			l6.4-0.7l-3.5-69.1l1.2-11.9L47.8,41H33.7l-13.5,3.3l-5.4,82.9l0,0l7.5-0.1l-3.1,87.5L19,214.6z M33.3,217.5l5.4-84.5h2.1
			l7.2,81.5l-0.2,0l0.2,0.2v5.8L33.3,217.5z"/>
		<g>
			<path fill="#3176BB" d="M19,214.6l0.2,0.2v6.5v7.7h6.5v-2.4h4.4l2.2,2.4H48h3.1h3.4v-2.4H59l2.2,2.4H80v-7.7l-17.8-3.7l-0.5-89.7
				l-19.1-0.6L40.4,113L37,126.4L19,127.1l0.2,87.5L19,214.6z M33.3,217.5l5.4-84.5h2.1l7.2,81.5l-0.2,0l0.2,0.2v5.8L33.3,217.5z"/>
		</g>
		<path fill="#F89420" d="M48.5,33.9l-3.3-1.2l-1.1,2.7l-10.6-1.6l0.8,11.5l10.3,8.3l1.8-13.8C46.6,38.1,46,34.7,48.5,33.9"/>
		<path fill="#F89420" d="M14.1,106.5c0,0,0.1,0.1,0.1,0.1c1.8,1.9,4.9,2,6.7,0.1c1.9-1.8,1.9-4.8,0.1-6.7c0,0-0.1-0.1-0.1-0.1l0,0
			l-3.5-3.6l-6.8,6.6L14.1,106.5L14.1,106.5z"/>
		<polygon fill="#3176BB" points="32.1,39.9 35.6,39.9 40.8,60.1 47,39.9 49.5,39.9 52.1,48.5 50.2,50.3 52.1,52.2 40.8,87.3 
			29.5,52.2 31.4,50.3 29.5,48.5 		"/>
		<polygon fill="#FFFFFF" points="37.7,41 40.8,49.4 44.8,41 48,38.4 48,45.1 40.8,74.1 33.6,45.1 33.6,38.4 		"/>
		<g>
			<path fill="#1EBBEE" d="M11,105.5l9.3-9C15.6,91.7,13,85.3,13,78.6c-0.1-10,5.4-19,14.4-23.5l-2.1-11.5c-0.5,0.2-4.6,0.4-5.1,0.7
				C7.6,51.2-0.1,64.3,0.1,78.7C0.1,88.8,4,98.3,11,105.5z"/>
		</g>
		<polygon fill="#3176BB" points="20,114.2 35.1,109.3 35.1,105.1 20,110.1 		"/>
		<polygon fill="#3176BB" points="59.9,114.2 44.8,109.3 44.8,105.1 59.9,110.1 		"/>
		<circle fill="#3176BB" cx="40.8" cy="98.5" r="1.5"/>
		<polygon fill="#1EBBEE" points="31.4,50.3 40.8,60.1 52.1,48.5 58.6,50.4 52.8,96 27.4,95.4 23.3,51.4 		"/>
		<g>
			<rect x="35.3" y="71.3" fill="#FFFFFF" width="2.2" height="10.7"/>
			<polygon fill="#FFFFFF" points="47.6,73.1 44.5,73.1 44.5,82 42.2,82 42.2,73.1 39.1,73.1 39.1,71.3 47.6,71.3 			"/>
			<path fill="#FFFFFF" d="M51.2,82.4l-10.3,6l-10.5-6V70.6l10.3-6l10.5,6V82.4z M40.7,62.6l-12.1,6.9v14.1l12.3,6.9L53,83.6V69.5
				L40.7,62.6z"/>
		</g>
		<polygon fill="#9A8D78" points="47.2,12.9 56.1,22.9 49.7,26 		"/>
		<path fill="#010101" d="M43.9,18.2c0.2,0.5,0,1-0.4,1.2c-0.5,0.2-1,0-1.2-0.4c-0.2-0.5,0-1,0.4-1.2C43.1,17.5,43.6,17.7,43.9,18.2
			"/>
		<polygon fill="#F89420" points="47.2,12.9 56.1,22.9 49.7,26 		"/>
		<path fill="#F89420" d="M22.7,14.9l7,14.7l0.1,0c5.9,10.6,16.4,9.6,27.5,4.2l-0.5-1l-4-8.3l-5-10.4l-4.4-9.2L22.7,14.9"/>
		<path fill="#1D4483" d="M43.9,18.2c0.2,0.5,0,1-0.4,1.2c-0.5,0.2-1,0-1.2-0.4c-0.2-0.5,0-1,0.4-1.2C43.1,17.5,43.6,17.7,43.9,18.2
			"/>
		<path fill="#1D4483" d="M43.3,4.9L43.1,5L43.3,4.9c-2.4-5.6-11.6-6.3-14.8-1.6c-1,1.5-1.8,2.2-3.4,3c-1.3,0.6-2.2,1.3-3.1,2.5
			c-0.7,1-0.6,2.9,0,4.5c-7.4,4.5,10.5,20.4,10.5,20.4c3.8-6.1-0.5-14.7-0.5-14.7c0.1-0.2,0.2-0.5,0.3-0.7c0.9-2.5,2.5-2.7,4.8-4
			C40.1,12.7,43.9,8.5,43.3,4.9"/>
		<path fill="#F89420" d="M32.2,18.9c-2.6,1.2-3.6,4.3-2.4,6.9c1.2,2.6,4.3,3.7,6.9,2.4L32.2,18.9"/>
		<polyline fill="#D17E29" points="35.5,25.9 33.3,21.3 33.3,21.3 35.5,25.9 35.5,25.9 		"/>
		<path fill="#D17E29" d="M34.4,26.2c-1,0-1.9-0.5-2.3-1.5c-0.6-1.3-0.1-2.8,1.2-3.5l2.2,4.7C35.2,26.1,34.8,26.2,34.4,26.2"/>
	</g>
</g>
<g id="kiosk">
</g>
<g id="conditional_access">
</g>
</svg>
