<?xml version="1.0" encoding="utf-8"?>
<!-- Generator: Adobe Illustrator 19.2.1, SVG Export Plug-In . SVG Version: 6.00 Build 0)  -->
<svg version="1.1" xmlns="http://www.w3.org/2000/svg" xmlns:xlink="http://www.w3.org/1999/xlink" x="0px" y="0px"
	 viewBox="0 0 744 452" enable-background="new 0 0 744 452" xml:space="preserve">
<g id="desktop_management">
	<g>
		<g>
			<rect x="349.7" y="323.5" fill="#1EBBEE" width="66.3" height="7.9"/>
			<rect x="387.9" y="323.5" opacity="0.15" width="28.1" height="7.9"/>
		</g>
		<path opacity="0.1" d="M503.4,424.5c-0.5,0-0.9,0.1-1.3,0.1v-0.1l-262.7,0v0.1c-5.3,0.5-9.5,4.2-9.5,8.6c0,4.8,4.8,8.7,10.8,8.7
			c0.8,0,262,0,262.7,0c6,0,10.8-3.9,10.8-8.7C514.2,428.4,509.3,424.5,503.4,424.5"/>
		<polygon fill="#0060AC" points="277.5,331.4 277.5,344.7 414.5,344.7 414.5,438.3 426.1,438.3 426.1,344.7 473.1,344.7 
			473.1,438.3 484.7,438.3 484.7,344.7 484.7,343.6 484.7,331.4 		"/>
		<polygon opacity="0.1" points="420.3,331.4 420.3,343.3 420.3,344.7 420.3,438.3 426.1,438.3 426.1,344.7 478.9,344.7 
			478.9,438.3 484.7,438.3 484.7,344.7 484.7,343.3 484.7,331.4 		"/>
		<g>
			<path fill="#0060AC" d="M322.9,247.2l0,67.4c0,0,0,4.8,4.8,4.8l85,0c0,0,4.8,0,4.8-4.8l0-67.4c0,0,0-4.8-4.8-4.8h-85
				C327.7,242.4,322.9,242.4,322.9,247.2z"/>
			<path fill="#1EBBEE" d="M316.3,247.2v67.4c0,0,0,4.8,4.8,4.8l86.7,0c0,0,4.8,0,4.8-4.8l0-67.4c0,0,0-4.8-4.8-4.8h-86.7
				C321.2,242.4,316.3,242.4,316.3,247.2z"/>
			<rect x="321.2" y="247.2" fill="#04AF91" width="86.7" height="57.8"/>
			<path opacity="0.15" d="M321.2,319.6l86.8,0c0,0,4.8,0,4.8-4.5v-4.5l-96.4-53.9l0,58.4C316.4,315.1,316.4,319.6,321.2,319.6z"/>
		</g>
		<g opacity="0.15">
			<rect x="346.5" y="305.7" transform="matrix(0.487 -0.8734 0.8734 0.487 -91.9755 467.4143)" width="10.9" height="12.5"/>
		</g>
		<rect x="282.5" y="263.1" fill="#492474" width="67.2" height="98.2"/>
		<polygon opacity="0.1" points="349.7,349.7 349.7,324.4 282.5,271.2 282.5,349.7 		"/>
		<path fill="#FDB813" d="M326.9,245.9l-5-1.8l-1.7,4.2h-14.1v14.8H322v-8.5C322.1,251.9,323,247.1,326.9,245.9z"/>
		<polygon fill="#492474" points="350,434.7 337.5,422.2 320.9,422.2 320.9,438.5 350,438.5 		"/>
		<polygon fill="#04AF91" points="358.4,422.2 358.4,352.5 374.8,352.5 374.8,422.2 358.4,422.2 		"/>
		<polygon fill="#04AF91" points="320.9,422.2 320.9,349.6 337.3,349.6 337.3,422.2 320.9,422.2 		"/>
		<polygon fill="#04AF91" points="374.8,366.1 303.7,366.1 303.7,349.7 374.8,349.7 374.8,366.1 		"/>
		<path fill="#FDB813" d="M359.6,322.6c0.1,0,0.1,0.1,0.2,0.1c2.6,1.5,6,0.7,7.5-1.9c1.5-2.6,0.6-5.9-2-7.5c-0.1,0-0.1-0.1-0.2-0.1
			l0,0l-4.9-2.9l-5.5,9.4L359.6,322.6L359.6,322.6z"/>
		<polygon fill="#492474" points="387.5,434.7 375,422.2 358.4,422.2 358.4,438.5 387.5,438.5 		"/>
		<g>
			
				<rect x="346.5" y="305.7" transform="matrix(0.487 -0.8734 0.8734 0.487 -91.9755 467.4143)" fill="#492474" width="10.9" height="12.5"/>
		</g>
		<path fill="#FDB813" d="M329.7,222.6c0,0,5.3,6.7,7.6,15.8l-7.6,1L329.7,222.6z"/>
		<path fill="#FDB813" d="M296.3,216.3l3.1,15.5l0.1,2.1c3.3,17.4,18.8,26.8,36.9,24.4l-0.2-1.6l-1.7-13.4l-2.2-16.8l-1.9-14.7
			L296.3,216.3z"/>
		<path fill="#FDB813" d="M407.4,326.1c0.1,0,0.1,0,0.2,0c2.9-0.3,5-2.9,4.7-5.8c-0.3-2.9-3-4.9-5.9-4.6c-0.1,0-0.1,0-0.2,0l0,0
			l-5.5,0.6l1.2,10.4L407.4,326.1L407.4,326.1z"/>
		<g>
			<path fill="#FFF1CC" d="M308.2,250.7c0,0-33.8,21.9-11.9,55.7C296.2,306.3,330,284.4,308.2,250.7z"/>
			<path fill="#FFF1CC" d="M334.7,208.8c-1.3-11-16.6-17.3-24.9-11c-2.6,2-4.4,2.8-7.7,3.2c-2.7,0.3-4.7,0.9-6.8,2.5
				c-2.1,1.6-3.1,5.9-2.4,9.3c-6.4,3.8-6.9,13.2-6.9,13.2c4.8,41.3,24,27.8,24,27.8c-1.8-2-4.9-10.3-4.9-10.3l-0.2,0
				c2.3-6,2.3-12.7,2-16.7c0.3-0.3,0.5-0.5,0.7-0.8c3.2-3.9,6-3.3,10.8-4.2c5.9-1.1,14.9-6.1,16.2-12.6l0.1,0
				C334.8,209,334.7,208.9,334.7,208.8C334.7,208.8,334.7,208.8,334.7,208.8L334.7,208.8z"/>
		</g>
		<path fill="#FDB813" d="M308,226.5c-4.2,0.6-7.2,4.4-6.6,8.6c0.5,4.2,4.4,7.2,8.6,6.6L308,226.5z"/>
		<path fill="#492474" d="M393.8,326.7c3.3,0.3,7.1,0.2,8.7,0l-0.9-5.5l-0.8-4.9c-0.4,0-8.5,0-18.6-3.1c-5.6-1.8-14.4-7.3-18.6-13.3
			c-5.8-8.2-12.1-21.3-14.9-35.3l-10.5-0.3c-4.4,14.1,9.2,34.1,15.3,42.6c4.8,6.7,10.7,12.6,21.8,16
			C385,326,391.2,326.5,393.8,326.7z"/>
		<path opacity="0.15" d="M308.5,230.3c-2.1,0.3-3.6,2.2-3.3,4.3c0.3,2.1,2.2,3.6,4.3,3.3L308.5,230.3z"/>
		<rect x="276.4" y="284.6" fill="#0060AC" width="66.5" height="91.7"/>
		<rect x="276.4" y="367.1" fill="#0060AC" width="11.6" height="71.4"/>
		<rect x="331.3" y="367.1" fill="#0060AC" width="11.6" height="71.4"/>
		<rect x="302.6" y="367.1" fill="#0060AC" width="11.6" height="71.4"/>
		<rect x="357.5" y="367.1" fill="#0060AC" width="11.6" height="71.4"/>
		<rect x="323.7" y="365.7" fill="#0060AC" width="45.5" height="10.7"/>
		<rect x="337.1" y="284.6" opacity="0.15" width="5.8" height="153.8"/>
		<rect x="357.5" y="376.4" opacity="0.15" width="5.8" height="62.1"/>
		<polygon opacity="0.1" points="337.1,349.6 276.4,310.2 276.4,376.4 282.2,376.4 282.2,438.5 288,438.5 288,376.4 302.6,376.4 
			302.6,438.5 308.5,438.5 308.5,376.4 337.1,376.4 		"/>
		<g>
			<defs>
				<rect id="SVGID_7_" x="427.6" y="309" width="25.9" height="22.4"/>
			</defs>
			<clipPath id="SVGID_2_">
				<use xlink:href="#SVGID_7_"  overflow="visible"/>
			</clipPath>
			<path clip-path="url(#SVGID_2_)" fill="#FFB900" d="M451,321.4c0,1.2-1,2-2.1,2h-3.2v-8.1h3.2c1.2,0,2.1,1,2.1,2.1V321.4z
				 M448.9,313.2h-3.2v-3.5c0-0.4-0.3-0.7-0.7-0.7h-16.9c-0.4,0-0.7,0.3-0.7,0.7v19.8c0,0.4,0.3,0.7,0.7,0.7h0.9v1h15.3v-1h0.7
				c0.5,0,0.7-0.3,0.7-0.7v-3.9h3.2c2.4,0,4.2-1.8,4.2-4.1v-4C453.1,315.1,451.3,313.2,448.9,313.2"/>
			<path clip-path="url(#SVGID_2_)" fill="#505050" d="M433.9,318c-1.4,0-1.7,1.3-3.4,1.3c-0.5,0-0.7-0.6-0.7-1.1
				c0-0.6,0.4-1.1,0.9-1.2h-0.1c-0.7,0-1.4,0.6-1.4,1.5c0,0.7,0.5,1.4,1.3,1.5h5.6C436,320,436,318,433.9,318"/>
			<path clip-path="url(#SVGID_2_)" fill="#505050" d="M439.3,318c1.4,0,1.7,1.3,3.5,1.3c0.5,0,0.6-0.6,0.6-1.1
				c0-0.6-0.3-1.1-0.9-1.2h0.1c0.7,0,1.4,0.6,1.4,1.5c0,0.7-0.5,1.4-1.2,1.5h-5.6C437.1,320.1,437.2,318,439.3,318"/>
		</g>
		<path fill="none" stroke="#17244E" stroke-width="0.6266" stroke-miterlimit="10" d="M325.7,231.3c0,0-0.4-1.1-2.2-0.7
			c-1.8,0.4-1.8,2-1.8,2"/>
	</g>
</g>
<g id="corporate_mobile">
</g>
<g id="kiosk">
</g>
<g id="conditional_access">
</g>
</svg>
