<?xml version="1.0" encoding="utf-8"?>
<!-- Generator: Adobe Illustrator 19.2.1, SVG Export Plug-In . SVG Version: 6.00 Build 0)  -->
<svg version="1.1" xmlns="http://www.w3.org/2000/svg" xmlns:xlink="http://www.w3.org/1999/xlink" x="0px" y="0px"
	 viewBox="0 0 284 200" enable-background="new 0 0 284 200" xml:space="preserve">
<g id="desktop_management">
	<g>
		<g>
			<rect x="86.3" y="81.4" fill="#1EBBEE" width="99.6" height="7.9"/>
			<rect x="157.9" y="81.4" opacity="0.15" width="28.1" height="7.9"/>
		</g>
		<path opacity="0.1" d="M273.4,182.3c-0.5,0-0.9,0.1-1.3,0.1v-0.1l-262.7,0v0.1C4,183-0.1,186.6-0.1,191c0,4.8,4.8,8.7,10.8,8.7
			c0.8,0,262,0,262.7,0c6,0,10.8-3.9,10.8-8.7C284.1,186.2,279.3,182.3,273.4,182.3"/>
		<polygon fill="#0060AC" points="47.5,89.3 47.5,102.6 184.5,102.6 184.5,196.1 196.1,196.1 196.1,102.6 243,102.6 243,196.1 
			254.7,196.1 254.7,102.6 254.7,101.4 254.7,89.3 		"/>
		<polygon opacity="0.1" points="190.3,89.3 190.3,101.2 190.3,102.6 190.3,196.1 196.1,196.1 196.1,102.6 248.9,102.6 248.9,196.1 
			254.7,196.1 254.7,102.6 254.7,101.2 254.7,89.3 		"/>
		<g>
			<path fill="#0060AC" d="M92.9,5.1l0,67.4c0,0,0,4.8,4.8,4.8l85,0c0,0,4.8,0,4.8-4.8V5.1c0,0,0-4.8-4.8-4.8l-85,0
				C97.7,0.2,92.9,0.2,92.9,5.1z"/>
			<path fill="#1EBBEE" d="M86.3,5.1l0,67.4c0,0,0,4.8,4.8,4.8l86.7,0c0,0,4.8,0,4.8-4.8V5.1c0,0,0-4.8-4.8-4.8l-86.7,0
				C91.2,0.2,86.3,0.2,86.3,5.1z"/>
			<rect x="91.2" y="5.1" fill="#2F2F2F" width="86.7" height="57.8"/>
			<path opacity="0.15" d="M91.2,77.4l86.8,0c0,0,4.8,0,4.8-4.5v-4.5L86.4,14.5l0,58.4C86.4,72.9,86.4,77.4,91.2,77.4z"/>
		</g>
		<rect x="46.4" y="42.5" fill="#0060AC" width="66.5" height="91.7"/>
		<rect x="46.4" y="125" fill="#0060AC" width="11.6" height="71.4"/>
		<rect x="101.3" y="125" fill="#0060AC" width="11.6" height="71.4"/>
		<rect x="72.6" y="125" fill="#0060AC" width="11.6" height="71.4"/>
		<rect x="127.5" y="125" fill="#0060AC" width="11.6" height="71.4"/>
		<rect x="93.7" y="123.6" fill="#0060AC" width="45.5" height="10.7"/>
		<rect x="107.1" y="42.5" opacity="0.15" width="5.8" height="153.8"/>
		<rect x="127.5" y="134.2" opacity="0.15" width="5.8" height="62.1"/>
		<polygon opacity="0.1" points="107.1,107.5 46.4,68.1 46.4,134.2 52.2,134.2 52.2,196.4 58,196.4 58,134.2 72.6,134.2 72.6,196.4 
			78.4,196.4 78.4,134.2 107.1,134.2 		"/>
		<g>
			<polygon fill="#00BCF2" points="229.4,89.3 198.5,89.3 206.2,71.2 221.5,71.2 			"/>
			
				<polygon opacity="0" fill="none" stroke="#FFFFFF" stroke-width="0.2472" stroke-linecap="round" stroke-linejoin="round" stroke-miterlimit="10" points="
				229.4,89.3 198.5,89.3 206.2,71.2 221.5,71.2 			"/>
			<path fill="#00BCF2" d="M227.9,64.5c0,7.7-6.4,13.8-13.8,13.8c-7.9,0-14.1-6.2-14.1-13.8c0-7.4,6.2-13.6,14.1-13.6
				C221.5,50.9,227.9,57.1,227.9,64.5"/>
			<path fill="#FFFFFF" d="M223.2,64.5c0,5.2-4.2,9.4-9.1,9.4c-5.2,0-9.4-4.2-9.4-9.4c0-5.2,4.2-9.4,9.4-9.4
				C219,55.1,223.2,59.4,223.2,64.5"/>
			<path d="M214.6,64.5c0,0.2-0.2,0.5-0.5,0.5c-0.5,0-0.5-0.2-0.5-0.5c0-0.2,0-0.5,0.5-0.5C214.3,64,214.6,64.3,214.6,64.5"/>
			<rect x="213.6" y="55.4" fill="#1B1B1B" width="0.7" height="18.3"/>
			
				<rect x="213.6" y="55.4" opacity="0" fill="none" stroke="#FFFFFF" stroke-width="0.2472" stroke-linecap="round" stroke-linejoin="round" stroke-miterlimit="10" width="0.7" height="18.3"/>
			<rect x="205" y="64.3" fill="#1B1B1B" width="18" height="0.5"/>
			
				<rect x="205" y="64.3" opacity="0" fill="none" stroke="#FFFFFF" stroke-width="0.2472" stroke-linecap="round" stroke-linejoin="round" stroke-miterlimit="10" width="18" height="0.5"/>
			<polygon fill="#1B1B1B" points="221.5,69.2 205.9,60.3 206.2,59.8 221.8,68.7 			"/>
			
				<polygon opacity="0" fill="none" stroke="#FFFFFF" stroke-width="0.2472" stroke-linecap="round" stroke-linejoin="round" stroke-miterlimit="10" points="
				221.5,69.2 205.9,60.3 206.2,59.8 221.8,68.7 			"/>
			<polygon fill="#1B1B1B" points="209.6,72.7 209.2,72.4 218.3,56.6 218.8,57.1 			"/>
			
				<polygon opacity="0" fill="none" stroke="#FFFFFF" stroke-width="0.2472" stroke-linecap="round" stroke-linejoin="round" stroke-miterlimit="10" points="
				209.6,72.7 209.2,72.4 218.3,56.6 218.8,57.1 			"/>
			<polygon fill="#1B1B1B" points="218.3,72.7 209.2,57.1 209.6,56.6 218.8,72.4 			"/>
			
				<polygon opacity="0" fill="none" stroke="#FFFFFF" stroke-width="0.2472" stroke-linecap="round" stroke-linejoin="round" stroke-miterlimit="10" points="
				218.3,72.7 209.2,57.1 209.6,56.6 218.8,72.4 			"/>
			<polygon fill="#1B1B1B" points="206.2,69.2 205.9,68.7 221.5,59.8 221.8,60.3 			"/>
			
				<polygon opacity="0" fill="none" stroke="#FFFFFF" stroke-width="0.2472" stroke-linecap="round" stroke-linejoin="round" stroke-miterlimit="10" points="
				206.2,69.2 205.9,68.7 221.5,59.8 221.8,60.3 			"/>
			<path fill="#FFFFFF" d="M221,64.5c0,4-3,7.2-6.9,7.2c-4.2,0-7.4-3.2-7.4-7.2c0-3.7,3.2-6.9,7.4-6.9C218.1,57.6,221,60.8,221,64.5
				"/>
			<path d="M214.6,64.5c0,0.2-0.2,0.5-0.5,0.5c-0.5,0-0.5-0.2-0.5-0.5c0-0.2,0-0.5,0.5-0.5C214.3,64,214.6,64.3,214.6,64.5"/>
			<path fill="#1B1B1B" d="M214.1,64.8h-0.2l-5.4-5.4v-0.2c0.2-0.2,0.2-0.2,0.5,0l5.2,5.2C214.3,64.5,214.3,64.5,214.1,64.8"/>
			<path fill="#1B1B1B" d="M218.1,64.8h-4c-0.2,0-0.5,0-0.5-0.2c0-0.2,0.2-0.2,0.5-0.2h4c0,0,0.2,0,0.2,0.2
				C218.3,64.8,218.1,64.8,218.1,64.8"/>
			<path fill="#E81123" d="M208.7,70.2l-0.2-0.2v-0.2l6.4-6.4c0.2-0.2,0.2-0.2,0.5,0v0.2l-6.4,6.4L208.7,70.2z"/>
		</g>
	</g>
</g>
<g id="corporate_mobile">
</g>
<g id="kiosk">
</g>
<g id="conditional_access">
</g>
</svg>
