<?xml version="1.0" encoding="utf-8"?>
<!-- Generator: Adobe Illustrator 19.2.1, SVG Export Plug-In . SVG Version: 6.00 Build 0)  -->
<svg version="1.1" xmlns="http://www.w3.org/2000/svg" xmlns:xlink="http://www.w3.org/1999/xlink" x="0px" y="0px"
	 viewBox="0 0 199 115" enable-background="new 0 0 199 115" xml:space="preserve">
<g id="desktop_management">
</g>
<g id="corporate_mobile">
	<g>
		<g>
			<ellipse transform="matrix(0.9697 -0.2443 0.2443 0.9697 -12.3494 10.4652)" fill="#E6E6E6" cx="36" cy="55" rx="7.5" ry="7.5"/>
			
				<ellipse transform="matrix(0.9697 -0.2443 0.2443 0.9697 -9.4912 5.9816)" fill="#E6E6E6" cx="19.4" cy="41.3" rx="5.3" ry="5.3"/>
			<ellipse transform="matrix(0.9697 -0.2443 0.2443 0.9697 -8.3235 2.2699)" fill="#E6E6E6" cx="5" cy="34.7" rx="3.7" ry="3.7"/>
		</g>
		<g>
			<path fill="#E6E6E6" d="M102.9,30.4c2-7.5,9-13,17.4-13c0,0,0.1,0,0.1,0v0c0-9.4,8-17,17.8-17c6.8,0,12.7,3.6,15.7,9
				c1.8-0.6,3.7-0.9,5.6-0.9c9.3,0,16.8,7.2,16.8,16c0,0.1,0,0.1,0,0.1c0.7-0.1,1.5-0.1,2.3-0.1c10.5,0,19,8.1,19,18.2
				c0,10-8.5,18.2-19,18.2l-69.7,0l0,0c-9.1,0-16.5-7-16.5-15.7C92.5,38.4,96.8,32.7,102.9,30.4"/>
			<path fill="#E6E6E6" d="M102.9,84.6c2,7.5,9,13,17.4,13c0,0,0.1,0,0.1,0v0c0,9.4,8,17,17.8,17c6.8,0,12.7-3.6,15.7-9
				c1.8,0.6,3.7,0.9,5.6,0.9c9.3,0,16.8-7.2,16.8-16c0-0.1,0-0.1,0-0.1c0.7,0.1,1.5,0.1,2.3,0.1c10.5,0,19-8.1,19-18.2
				c0-10-8.5-18.2-19-18.2l-69.7,0l0,0c-9.1,0-16.5,7-16.5,15.7C92.5,76.6,96.8,82.3,102.9,84.6"/>
			<path fill="#E6E6E6" d="M142.8,30.4c-2-7.5-9-13-17.4-13c0,0-0.1,0-0.1,0v0c0-9.4-8-17-17.8-17c-6.8,0-12.7,3.6-15.7,9
				C89.9,8.7,88,8.4,86,8.4c-9.3,0-16.8,7.2-16.8,16c0,0.1,0,0.1,0,0.1c-0.7-0.1-1.5-0.1-2.3-0.1c-10.5,0-19,8.1-19,18.2
				c0,10,8.5,18.2,19,18.2l69.7,0l0,0c9.1,0,16.5-7,16.5-15.7C153.2,38.4,148.9,32.7,142.8,30.4"/>
			<path fill="#E6E6E6" d="M142.8,84.6c-2,7.5-9,13-17.4,13c0,0-0.1,0-0.1,0v0c0,9.4-8,17-17.8,17c-6.8,0-12.7-3.6-15.7-9
				c-1.8,0.6-3.7,0.9-5.6,0.9c-9.3,0-16.8-7.2-16.8-16c0-0.1,0-0.1,0-0.1c-0.7,0.1-1.5,0.1-2.3,0.1c-10.5,0-19-8.1-19-18.2
				c0-10,8.5-18.2,19-18.2l69.7,0l0,0c9.1,0,16.5,7,16.5,15.7C153.2,76.6,148.9,82.3,142.8,84.6"/>
		</g>
		<g>
			<g>
				<defs>
					<rect id="SVGID_43_" x="64.9" y="34.5" width="26.8" height="47.2"/>
				</defs>
				<clipPath id="SVGID_2_">
					<use xlink:href="#SVGID_43_"  overflow="visible"/>
				</clipPath>
				
					<rect x="64.2" y="35" opacity="0" clip-path="url(#SVGID_2_)" fill="none" stroke="#FFFFFF" stroke-width="0.235" stroke-linecap="round" stroke-linejoin="round" stroke-miterlimit="10" width="26.1" height="46"/>
				<path clip-path="url(#SVGID_2_)" fill="#333333" d="M89.1,77c0,1.4-1.2,2.8-2.8,2.8H68.2c-1.6,0-2.8-1.4-2.8-2.8V39.2
					c0-1.4,1.2-2.8,2.8-2.8h18.1c1.6,0,2.8,1.4,2.8,2.8V77z"/>
				<rect x="66.6" y="39.2" clip-path="url(#SVGID_2_)" fill="#04AF91" width="21.4" height="32.9"/>
				
					<rect x="66.6" y="39.2" opacity="0" clip-path="url(#SVGID_2_)" fill="none" stroke="#FFFFFF" stroke-width="0.235" stroke-linecap="round" stroke-linejoin="round" stroke-miterlimit="10" width="21.4" height="32.9"/>
				<path clip-path="url(#SVGID_2_)" fill="#FFFFFF" d="M68.5,75.4L68.5,75.4l-1.2-0.9l1.2-0.7c0-0.2,0-0.2,0.2,0v0.2l-0.9,0.5
					l0.9,0.7v0.2H68.5z"/>
				<path clip-path="url(#SVGID_2_)" fill="#FFFFFF" d="M69.2,74.7h-1.6c0,0-0.2,0-0.2-0.2h0.2h1.6h0.2
					C69.4,74.7,69.2,74.7,69.2,74.7"/>
				<path clip-path="url(#SVGID_2_)" fill="#FFFFFF" d="M86.3,73.9c-0.2,0-0.2,0.2-0.2,0.5c0,0.2,0,0.2,0.2,0.2c0.2,0,0.5,0,0.5-0.2
					C86.8,74.2,86.6,73.9,86.3,73.9 M86.3,75.1c-0.2,0-0.7-0.5-0.7-0.7c0-0.5,0.5-0.9,0.7-0.9c0.5,0,0.9,0.5,0.9,0.9
					C87.3,74.7,86.8,75.1,86.3,75.1"/>
				<path clip-path="url(#SVGID_2_)" fill="#FFFFFF" d="M85.4,75.4L85.4,75.4v-0.2l0.5-0.5h0.2c0.2,0,0.2,0.2,0,0.2l-0.5,0.5H85.4z"
					/>
				<rect x="76.7" y="73.9" clip-path="url(#SVGID_2_)" fill="#FFFFFF" width="0.5" height="0.5"/>
				
					<rect x="76.7" y="73.9" opacity="0" clip-path="url(#SVGID_2_)" fill="none" stroke="#FFFFFF" stroke-width="0.235" stroke-linecap="round" stroke-linejoin="round" stroke-miterlimit="10" width="0.5" height="0.5"/>
				<rect x="76.7" y="74.7" clip-path="url(#SVGID_2_)" fill="#FFFFFF" width="0.5" height="0.5"/>
				
					<rect x="76.7" y="74.7" opacity="0" clip-path="url(#SVGID_2_)" fill="none" stroke="#FFFFFF" stroke-width="0.235" stroke-linecap="round" stroke-linejoin="round" stroke-miterlimit="10" width="0.5" height="0.5"/>
				<polygon clip-path="url(#SVGID_2_)" fill="#FFFFFF" points="77.4,75.1 78.1,75.4 78.1,74.7 77.4,74.7 				"/>
				
					<polygon opacity="0" clip-path="url(#SVGID_2_)" fill="none" stroke="#FFFFFF" stroke-width="0.235" stroke-linecap="round" stroke-linejoin="round" stroke-miterlimit="10" points="
					77.4,75.1 78.1,75.4 78.1,74.7 77.4,74.7 				"/>
				<rect x="77.4" y="73.9" clip-path="url(#SVGID_2_)" fill="#FFFFFF" width="0.7" height="0.5"/>
				
					<rect x="77.4" y="73.9" opacity="0" clip-path="url(#SVGID_2_)" fill="none" stroke="#FFFFFF" stroke-width="0.235" stroke-linecap="round" stroke-linejoin="round" stroke-miterlimit="10" width="0.7" height="0.5"/>
			</g>
			<g>
				<defs>
					<rect id="SVGID_45_" x="110.5" y="35.5" width="26.1" height="47.2"/>
				</defs>
				<clipPath id="SVGID_4_">
					<use xlink:href="#SVGID_45_"  overflow="visible"/>
				</clipPath>
				<path clip-path="url(#SVGID_4_)" fill="#EC008C" d="M135.9,79.4c0,1.2-0.9,1.9-1.9,1.9h-21.4c-1.2,0-2.1-0.7-2.1-1.9v-42
					c0-1.2,0.9-2.1,2.1-2.1H134c0.9,0,1.9,0.9,1.9,2.1V79.4z"/>
				<rect x="111.9" y="41.9" clip-path="url(#SVGID_4_)" fill="#04AF91" width="22.6" height="32.8"/>
				
					<rect x="111.9" y="41.9" opacity="0" clip-path="url(#SVGID_4_)" fill="none" stroke="#FFFFFF" stroke-width="0.235" stroke-linecap="round" stroke-linejoin="round" stroke-miterlimit="10" width="22.6" height="32.8"/>
				<path clip-path="url(#SVGID_4_)" fill="#333333" d="M130.3,38.3c0,0.2-0.2,0.2-0.5,0.2h-13.2c-0.2,0-0.5,0-0.5-0.2
					c0-0.2,0.2-0.5,0.5-0.5h13.2C130,37.9,130.3,38.1,130.3,38.3"/>
				<path clip-path="url(#SVGID_4_)" fill="#333333" d="M114.5,78c0,0.5-0.5,0.7-0.7,0.7h-1.2c-0.5,0-0.7-0.2-0.7-0.7
					c0-0.2,0.2-0.7,0.7-0.7h1.2C114,77.3,114.5,77.8,114.5,78"/>
				<path clip-path="url(#SVGID_4_)" fill="#333333" d="M134.5,78c0,0.5-0.2,0.7-0.7,0.7h-1.2c-0.2,0-0.7-0.2-0.7-0.7
					c0-0.2,0.5-0.7,0.7-0.7h1.2C134.3,77.3,134.5,77.8,134.5,78"/>
				<path clip-path="url(#SVGID_4_)" fill="#333333" d="M126,78c0,0.9-0.7,1.6-1.4,1.6H122c-0.9,0-1.4-0.7-1.4-1.6
					c0-0.7,0.5-1.4,1.4-1.4h2.6C125.3,76.6,126,77.3,126,78"/>
			</g>
			<g>
				<defs>
					<rect id="SVGID_47_" x="155.9" y="34.5" width="25.5" height="47.2"/>
				</defs>
				<clipPath id="SVGID_6_">
					<use xlink:href="#SVGID_47_"  overflow="visible"/>
				</clipPath>
				<path clip-path="url(#SVGID_6_)" d="M179.4,80.1c0,0.5-0.5,0.9-0.9,0.9h-21.1c-0.5,0-0.9-0.5-0.9-0.9V35.7
					c0-0.5,0.5-0.9,0.9-0.9h21.1c0.5,0,0.9,0.5,0.9,0.9V80.1z"/>
				
					<rect x="158.6" y="44.2" opacity="0" clip-path="url(#SVGID_6_)" fill="none" stroke="#FFFFFF" stroke-width="0.2345" stroke-linecap="round" stroke-linejoin="round" stroke-miterlimit="10" width="19" height="9.1"/>
				
					<rect x="158.6" y="53.8" opacity="0" clip-path="url(#SVGID_6_)" fill="none" stroke="#FFFFFF" stroke-width="0.2345" stroke-linecap="round" stroke-linejoin="round" stroke-miterlimit="10" width="4.2" height="4.2"/>
				
					<rect x="163.3" y="53.8" opacity="0" clip-path="url(#SVGID_6_)" fill="none" stroke="#FFFFFF" stroke-width="0.2345" stroke-linecap="round" stroke-linejoin="round" stroke-miterlimit="10" width="4.5" height="4.2"/>
				
					<rect x="168.2" y="53.8" opacity="0" clip-path="url(#SVGID_6_)" fill="none" stroke="#FFFFFF" stroke-width="0.2345" stroke-linecap="round" stroke-linejoin="round" stroke-miterlimit="10" width="4.5" height="4.2"/>
				
					<rect x="173.1" y="53.8" opacity="0" clip-path="url(#SVGID_6_)" fill="none" stroke="#FFFFFF" stroke-width="0.2345" stroke-linecap="round" stroke-linejoin="round" stroke-miterlimit="10" width="4.5" height="4.2"/>
				
					<rect x="158.6" y="58.5" opacity="0" clip-path="url(#SVGID_6_)" fill="none" stroke="#FFFFFF" stroke-width="0.2345" stroke-linecap="round" stroke-linejoin="round" stroke-miterlimit="10" width="9.1" height="9.1"/>
				
					<rect x="168.2" y="58.5" opacity="0" clip-path="url(#SVGID_6_)" fill="none" stroke="#FFFFFF" stroke-width="0.2345" stroke-linecap="round" stroke-linejoin="round" stroke-miterlimit="10" width="4.5" height="4.5"/>
				
					<rect x="173.1" y="58.5" opacity="0" clip-path="url(#SVGID_6_)" fill="none" stroke="#FFFFFF" stroke-width="0.2345" stroke-linecap="round" stroke-linejoin="round" stroke-miterlimit="10" width="4.5" height="4.5"/>
				<rect x="168.2" y="63.2" clip-path="url(#SVGID_6_)" fill="#FFFFFF" width="4.5" height="4.5"/>
				
					<rect x="173.1" y="63.2" opacity="0" clip-path="url(#SVGID_6_)" fill="none" stroke="#FFFFFF" stroke-width="0.2345" stroke-linecap="round" stroke-linejoin="round" stroke-miterlimit="10" width="4.5" height="4.5"/>
				
					<rect x="173.1" y="72.8" opacity="0" clip-path="url(#SVGID_6_)" fill="none" stroke="#FFFFFF" stroke-width="0.2345" stroke-linecap="round" stroke-linejoin="round" stroke-miterlimit="10" width="4.5" height="2.6"/>
				
					<rect x="163.3" y="72.3" opacity="0" clip-path="url(#SVGID_6_)" fill="none" stroke="#FFFFFF" stroke-width="0.2345" stroke-linecap="round" stroke-linejoin="round" stroke-miterlimit="10" width="9.4" height="3"/>
				
					<rect x="158.6" y="72.8" opacity="0" clip-path="url(#SVGID_6_)" fill="none" stroke="#FFFFFF" stroke-width="0.2345" stroke-linecap="round" stroke-linejoin="round" stroke-miterlimit="10" width="4.2" height="2.6"/>
				
					<rect x="158.6" y="68.1" opacity="0" clip-path="url(#SVGID_6_)" fill="none" stroke="#FFFFFF" stroke-width="0.2345" stroke-linecap="round" stroke-linejoin="round" stroke-miterlimit="10" width="4.2" height="4.2"/>
				<rect x="163.3" y="68.1" clip-path="url(#SVGID_6_)" fill="#00AEEF" width="9.4" height="4.2"/>
				
					<rect x="163.3" y="68.1" opacity="0" clip-path="url(#SVGID_6_)" fill="none" stroke="#FFFFFF" stroke-width="0.2345" stroke-linecap="round" stroke-linejoin="round" stroke-miterlimit="10" width="9.4" height="4.2"/>
				
					<rect x="173.1" y="68.1" opacity="0" clip-path="url(#SVGID_6_)" fill="none" stroke="#FFFFFF" stroke-width="0.2345" stroke-linecap="round" stroke-linejoin="round" stroke-miterlimit="10" width="4.5" height="4.2"/>
				<path clip-path="url(#SVGID_6_)" fill="#969696" d="M160.7,79.1L160.7,79.1l-0.9-0.7l0.9-0.7h0.2c0,0,0,0.2-0.2,0.2l-0.5,0.5
					l0.5,0.5l0.2,0.2H160.7z"/>
				<path clip-path="url(#SVGID_6_)" fill="#969696" d="M161.1,78.7H160c0,0-0.2,0-0.2-0.2h0.2h1.2h0.2
					C161.4,78.7,161.4,78.7,161.1,78.7"/>
				<path clip-path="url(#SVGID_6_)" fill="#969696" d="M175.4,78c-0.2,0-0.5,0.2-0.5,0.5c0,0,0.2,0.2,0.5,0.2s0.2-0.2,0.2-0.2
					C175.7,78.2,175.7,78,175.4,78 M175.4,78.9c-0.5,0-0.7-0.2-0.7-0.5c0-0.5,0.2-0.7,0.7-0.7c0.2,0,0.5,0.2,0.5,0.7
					C175.9,78.7,175.7,78.9,175.4,78.9"/>
				<path clip-path="url(#SVGID_6_)" fill="#969696" d="M174.5,79.4v-0.2v-0.2l0.5-0.2c0-0.2,0.2-0.2,0.2,0l-0.5,0.5
					C174.7,79.1,174.7,79.4,174.5,79.4"/>
				<polygon clip-path="url(#SVGID_6_)" fill="#969696" points="167.9,78.4 168.6,78.4 168.6,77.7 167.9,78 				"/>
				
					<polygon opacity="0" clip-path="url(#SVGID_6_)" fill="none" stroke="#FFFFFF" stroke-width="0.2345" stroke-linecap="round" stroke-linejoin="round" stroke-miterlimit="10" points="
					167.9,78.4 168.6,78.4 168.6,77.7 167.9,78 				"/>
				<rect x="167.2" y="78" clip-path="url(#SVGID_6_)" fill="#969696" width="0.5" height="0.5"/>
				
					<rect x="167.2" y="78" opacity="0" clip-path="url(#SVGID_6_)" fill="none" stroke="#FFFFFF" stroke-width="0.2345" stroke-linecap="round" stroke-linejoin="round" stroke-miterlimit="10" width="0.5" height="0.5"/>
				<rect x="167.9" y="78.4" clip-path="url(#SVGID_6_)" fill="#969696" width="0.7" height="0.7"/>
				
					<rect x="167.9" y="78.4" opacity="0" clip-path="url(#SVGID_6_)" fill="none" stroke="#FFFFFF" stroke-width="0.2345" stroke-linecap="round" stroke-linejoin="round" stroke-miterlimit="10" width="0.7" height="0.7"/>
				<rect x="167.2" y="78.4" clip-path="url(#SVGID_6_)" fill="#969696" width="0.5" height="0.7"/>
				
					<rect x="167.2" y="78.4" opacity="0" clip-path="url(#SVGID_6_)" fill="none" stroke="#FFFFFF" stroke-width="0.2345" stroke-linecap="round" stroke-linejoin="round" stroke-miterlimit="10" width="0.5" height="0.7"/>
				<rect x="178.3" y="69.3" clip-path="url(#SVGID_6_)" width="1.6" height="5.4"/>
				
					<rect x="178.3" y="69.3" opacity="0" clip-path="url(#SVGID_6_)" fill="none" stroke="#FFFFFF" stroke-width="0.2345" stroke-linecap="round" stroke-linejoin="round" stroke-miterlimit="10" width="1.6" height="5.4"/>
				<path clip-path="url(#SVGID_6_)" fill="#969696" d="M171,37.6c0,0.2-0.2,0.2-0.5,0.2h-4.7c-0.2,0-0.5,0-0.5-0.2
					c0-0.2,0.2-0.5,0.5-0.5h4.7C170.8,37.2,171,37.4,171,37.6"/>
				<rect x="158.8" y="40.7" clip-path="url(#SVGID_6_)" fill="#FFFFFF" width="0.2" height="0.9"/>
				
					<rect x="158.8" y="40.7" opacity="0" clip-path="url(#SVGID_6_)" fill="none" stroke="#FFFFFF" stroke-width="0.2345" stroke-linecap="round" stroke-linejoin="round" stroke-miterlimit="10" width="0.2" height="0.9"/>
				<rect x="158.6" y="40.9" clip-path="url(#SVGID_6_)" fill="#FFFFFF" width="0.2" height="0.7"/>
				
					<rect x="158.6" y="40.9" opacity="0" clip-path="url(#SVGID_6_)" fill="none" stroke="#FFFFFF" stroke-width="0.2345" stroke-linecap="round" stroke-linejoin="round" stroke-miterlimit="10" width="0.2" height="0.7"/>
				<rect x="158.3" y="41.1" clip-path="url(#SVGID_6_)" fill="#FFFFFF" width="0.2" height="0.5"/>
				
					<rect x="158.3" y="41.1" opacity="0" clip-path="url(#SVGID_6_)" fill="none" stroke="#FFFFFF" stroke-width="0.2345" stroke-linecap="round" stroke-linejoin="round" stroke-miterlimit="10" width="0.2" height="0.5"/>
				<rect x="158.1" y="41.1" clip-path="url(#SVGID_6_)" fill="#FFFFFF" width="0.2" height="0.5"/>
				
					<rect x="158.1" y="41.1" opacity="0" clip-path="url(#SVGID_6_)" fill="none" stroke="#FFFFFF" stroke-width="0.2345" stroke-linecap="round" stroke-linejoin="round" stroke-miterlimit="10" width="0.2" height="0.5"/>
				<rect x="157.9" y="41.4" clip-path="url(#SVGID_6_)" fill="#FFFFFF" width="0.2" height="0.2"/>
				
					<rect x="157.9" y="41.4" opacity="0" clip-path="url(#SVGID_6_)" fill="none" stroke="#FFFFFF" stroke-width="0.2345" stroke-linecap="round" stroke-linejoin="round" stroke-miterlimit="10" width="0.2" height="0.2"/>
				<rect x="174.3" y="40.7" clip-path="url(#SVGID_6_)" fill="#FFFFFF" width="0.9" height="0.9"/>
				
					<rect x="174.3" y="40.7" opacity="0" clip-path="url(#SVGID_6_)" fill="none" stroke="#FFFFFF" stroke-width="0.2345" stroke-linecap="round" stroke-linejoin="round" stroke-miterlimit="10" width="0.9" height="0.9"/>
				<rect x="173.6" y="40.9" clip-path="url(#SVGID_6_)" fill="#FFFFFF" width="0.2" height="0.5"/>
				
					<rect x="173.6" y="40.9" opacity="0" clip-path="url(#SVGID_6_)" fill="none" stroke="#FFFFFF" stroke-width="0.2345" stroke-linecap="round" stroke-linejoin="round" stroke-miterlimit="10" width="0.2" height="0.5"/>
				<rect x="158.6" y="44.2" clip-path="url(#SVGID_6_)" fill="#04AF91" width="19" height="31.2"/>
			</g>
			<path fill="#FFFFFF" d="M117.4,56.5l4.5,4.5l7.1-9.1l1.9,1.9L122,65l-6.5-6.5L117.4,56.5z"/>
			<path fill="#FFFFFF" d="M162.8,56.5l4.6,4.6l7.1-9.1l2,2l-9.1,11l-6.5-6.5L162.8,56.5z"/>
			<path fill="#FFFFFF" d="M71.6,56.5l4.5,4.5l7.1-9.1l1.9,1.9l-9.1,11l-6.5-6.5L71.6,56.5z"/>
		</g>
	</g>
</g>
<g id="kiosk">
</g>
<g id="conditional_access">
</g>
</svg>
