<?xml version="1.0" encoding="utf-8"?>
<!-- Generator: Adobe Illustrator 19.2.1, SVG Export Plug-In . SVG Version: 6.00 Build 0)  -->
<svg version="1.1" xmlns="http://www.w3.org/2000/svg" xmlns:xlink="http://www.w3.org/1999/xlink" x="0px" y="0px"
	 viewBox="0 0 116 122" enable-background="new 0 0 116 122" xml:space="preserve">
<g id="desktop_management">
</g>
<g id="corporate_mobile">
	<g>
		<g>
			
				<ellipse transform="matrix(0.2443 -0.9697 0.9697 0.2443 -51.9029 129.6294)" fill="#E6E6E6" cx="57.2" cy="98.1" rx="7.5" ry="7.5"/>
			
				<ellipse transform="matrix(0.2443 -0.9697 0.9697 0.2443 -77.8276 123.8903)" fill="#E6E6E6" cx="40.6" cy="111.9" rx="5.3" ry="5.3"/>
			
				<ellipse transform="matrix(0.2443 -0.9697 0.9697 0.2443 -95.0571 114.9073)" fill="#E6E6E6" cx="26.2" cy="118.4" rx="3.7" ry="3.7"/>
		</g>
		<g>
			<path fill="#E6E6E6" d="M42.6,23c1.5-5.8,6.9-10,13.4-10c0,0,0.1,0,0.1,0v0c0-7.2,6.2-13.1,13.8-13.1c5.2,0,9.8,2.8,12.1,6.9
				c1.4-0.5,2.8-0.7,4.3-0.7c7.1,0,12.9,5.5,12.9,12.3c0,0,0,0.1,0,0.1c0.6-0.1,1.2-0.1,1.8-0.1c8.1,0,14.7,6.3,14.7,14
				c0,7.7-6.6,14-14.7,14l-53.7,0l0,0c-7,0-12.7-5.4-12.7-12.1C34.6,29.2,37.9,24.8,42.6,23"/>
			<path fill="#E6E6E6" d="M42.6,64.8c1.5,5.8,6.9,10,13.4,10c0,0,0.1,0,0.1,0v0c0,7.2,6.2,13.1,13.8,13.1c5.2,0,9.8-2.8,12.1-6.9
				c1.4,0.5,2.8,0.7,4.3,0.7c7.1,0,12.9-5.5,12.9-12.3c0,0,0-0.1,0-0.1c0.6,0.1,1.2,0.1,1.8,0.1c8.1,0,14.7-6.3,14.7-14
				c0-7.7-6.6-14-14.7-14l-53.7,0l0,0c-7,0-12.7,5.4-12.7,12.1C34.6,58.7,37.9,63,42.6,64.8"/>
			<path fill="#E6E6E6" d="M73.4,23c-1.5-5.8-6.9-10-13.4-10c0,0-0.1,0-0.1,0v0c0-7.2-6.2-13.1-13.8-13.1c-5.2,0-9.8,2.8-12.1,6.9
				c-1.4-0.5-2.8-0.7-4.3-0.7c-7.1,0-12.9,5.5-12.9,12.3c0,0,0,0.1,0,0.1c-0.6-0.1-1.2-0.1-1.8-0.1c-8.1,0-14.7,6.3-14.7,14
				c0,7.7,6.6,14,14.7,14l53.7,0l0,0c7,0,12.7-5.4,12.7-12.1C81.4,29.2,78.1,24.8,73.4,23"/>
			<path fill="#E6E6E6" d="M73.4,64.8c-1.5,5.8-6.9,10-13.4,10c0,0-0.1,0-0.1,0v0c0,7.2-6.2,13.1-13.8,13.1c-5.2,0-9.8-2.8-12.1-6.9
				c-1.4,0.5-2.8,0.7-4.3,0.7c-7.1,0-12.9-5.5-12.9-12.3c0,0,0-0.1,0-0.1c-0.6,0.1-1.2,0.1-1.8,0.1c-8.1,0-14.7-6.3-14.7-14
				c0-7.7,6.6-14,14.7-14l53.7,0l0,0c7,0,12.7,5.4,12.7,12.1C81.4,58.7,78.1,63,73.4,64.8"/>
		</g>
		<g>
			<path fill="#515251" d="M83.4,43.9C83.4,58,72,69.3,58,69.3c-14,0-25.4-11.4-25.4-25.4c0-14,11.4-25.4,25.4-25.4
				C72,18.5,83.4,29.9,83.4,43.9"/>
			<path fill="#FFFFFF" d="M79.7,43.9c0,12-9.7,21.7-21.7,21.7c-12,0-21.7-9.7-21.7-21.7c0-12,9.7-21.7,21.7-21.7
				C70,22.2,79.7,31.9,79.7,43.9"/>
			<path fill="#1B1C1C" d="M59.2,43.9c0,0.7-0.5,1.2-1.2,1.2c-0.7,0-1.2-0.5-1.2-1.2c0-0.7,0.5-1.2,1.2-1.2
				C58.7,42.7,59.2,43.3,59.2,43.9"/>
			<rect x="57.7" y="23.3" fill="#1A1A1A" width="0.6" height="41.1"/>
			<rect x="37.4" y="43.6" fill="#1A1A1A" width="41.1" height="0.6"/>
			
				<rect x="57.7" y="23.3" transform="matrix(0.4955 -0.8686 0.8686 0.4955 -8.883 72.5388)" fill="#1A1A1A" width="0.6" height="41.1"/>
			<polygon fill="#1A1A1A" points="48.1,61.9 47.5,61.6 67.9,25.9 68.5,26.2 68.3,26.5 			"/>
			<polygon fill="#1A1A1A" points="68,61.9 67.8,61.6 47.5,26.2 48,25.9 68.5,61.6 			"/>
			<polygon fill="#1A1A1A" points="40.3,54.5 40,53.9 75.7,33.4 76,33.9 			"/>
			<path fill="#FFFFFF" d="M74.5,43.9c0,9.1-7.4,16.5-16.5,16.5c-9.1,0-16.5-7.4-16.5-16.5c0-9.1,7.4-16.5,16.5-16.5
				C67.1,27.4,74.5,34.8,74.5,43.9"/>
			<path fill="#1B1C1C" d="M59.2,43.9c0,0.7-0.5,1.2-1.2,1.2c-0.7,0-1.2-0.5-1.2-1.2c0-0.7,0.5-1.2,1.2-1.2
				C58.7,42.7,59.2,43.3,59.2,43.9"/>
			<path fill="#1A1A1A" d="M58,44.2c-0.1,0-0.2,0-0.2-0.1L45.3,31.7c-0.1-0.1-0.1-0.3,0-0.4c0.1-0.1,0.3-0.1,0.4,0l12.5,12.5
				c0.1,0.1,0.1,0.3,0,0.4C58.2,44.2,58.1,44.2,58,44.2"/>
			<path fill="#1A1A1A" d="M58,44.2c-0.2,0-0.3-0.1-0.3-0.3c0-0.2,0.1-0.3,0.3-0.3h9.2c0.2,0,0.3,0.1,0.3,0.3c0,0.2-0.1,0.3-0.3,0.3
				H58z"/>
			<path fill="#E42129" d="M45.5,56.7c-0.1,0-0.2,0-0.2-0.1c-0.1-0.1-0.1-0.3,0-0.4L60.5,41c0.1-0.1,0.3-0.1,0.4,0
				c0.1,0.1,0.1,0.3,0,0.4L45.8,56.6C45.7,56.6,45.6,56.7,45.5,56.7"/>
		</g>
	</g>
</g>
<g id="kiosk">
</g>
<g id="conditional_access">
</g>
</svg>
