<?xml version="1.0" encoding="utf-8"?>
<!-- Generator: Adobe Illustrator 19.2.1, SVG Export Plug-In . SVG Version: 6.00 Build 0)  -->
<svg version="1.1" xmlns="http://www.w3.org/2000/svg" xmlns:xlink="http://www.w3.org/1999/xlink" x="0px" y="0px"
	 viewBox="0 0 136 314" enable-background="new 0 0 136 314" xml:space="preserve">
<g id="desktop_management">
</g>
<g id="corporate_mobile">
	<g>
		<path fill="#F89420" d="M107.5,159.9c0.1,0.1,0.1,0.1,0.2,0.2c2.4,2.5,6.4,2.6,8.9,0.2c2.5-2.4,2.5-6.4,0.1-8.9
			c-0.1-0.1-0.1-0.1-0.2-0.2l0,0l-4.6-4.7l-9,8.8L107.5,159.9L107.5,159.9z"/>
		<path opacity="0.1" d="M18.9,295.5c0.5,0,0.9,0.1,1.4,0.1v-0.1h106v0.1c5.5,0.5,9.8,4.3,9.8,8.9c0,5-5,9-11.1,9
			c-0.8,0-105.2,0-106.1,0c-6.2,0-11.1-4-11.1-9C7.7,299.5,12.7,295.5,18.9,295.5"/>
		<path fill="#1EBBEE" d="M103,158.1l12.2-12c-18.4-18.8-20.9-39.6-23-56.3c-1.4-11.7-2.7-21.7-9.2-28.4l-12.2,12
			c2.5,2.5,3.4,10.3,4.4,18.5C77.5,110.1,80.5,135.1,103,158.1z"/>
		<path fill="#3176BB" d="M70.8,73.4l3.9-3.8c2.8,6.6,3.8,14.6,4.9,23.4c2.3,18.6,5.1,41.8,25.7,62.8l-2.2,2.2
			c-22.5-23-25.5-47.9-27.7-66.1C74.3,83.7,73.3,75.9,70.8,73.4z"/>
		<path fill="#1EBBEE" d="M25,284.1l0.2,0.2v8.6v10.2h8.6v-3.2h5.9l2.9,3.2h20.7h4.1H72v-3.2h5.9l2.9,3.2h24.8v-10.2L82.1,288
			l-4.4-118.6l8.5-0.9l-4.7-91.3l1.6-15.7l-19.9-6.9H44.5l-17.9,4.3l-7.1,109.6l0,0l9.9-0.1l-4.1,115.8L25,284.1z M43.9,288
			l7.2-111.7h2.8l9.5,107.8l-0.2,0l0.2,0.2v7.7L43.9,288z"/>
		<g>
			<path fill="#3176BB" d="M25,284.1l0.2,0.2v8.6v10.2h8.6v-3.2h5.9l2.9,3.2h20.7h4.1H72v-3.2h5.9l2.9,3.2h24.8v-10.2L82.1,288
				l-0.7-118.6l-25.2-0.8l-2.8-18.9l-4.6,17.7L25,168.4l0.2,115.8L25,284.1z M43.9,288l7.2-111.7h2.8l9.5,107.8l-0.2,0l0.2,0.2v7.7
				L43.9,288z"/>
		</g>
		<path fill="#F89420" d="M64.1,45.2l-4.4-1.6l-1.4,3.6l-14-2.1l1.1,15.2L59,71.2L61.4,53C61.5,50.6,60.7,46.2,64.1,45.2"/>
		<path fill="#F89420" d="M18.5,141.1c0.1,0.1,0.1,0.1,0.2,0.2c2.4,2.5,6.4,2.6,8.9,0.2c2.5-2.4,2.5-6.4,0.1-8.9
			c-0.1-0.1-0.1-0.1-0.2-0.2l0,0l-4.6-4.7l-9,8.8L18.5,141.1L18.5,141.1z"/>
		<polygon fill="#3176BB" points="42.3,53 47,53 53.9,79.8 62,53 65.4,53 68.8,64.4 66.3,66.8 68.8,69.3 53.9,115.7 39,69.3 
			41.4,66.8 39,64.4 		"/>
		<polygon fill="#FFFFFF" points="49.7,54.5 53.8,65.6 59.1,54.5 63.4,51 63.4,60 53.9,98.2 44.3,60 44.3,51 		"/>
		<g>
			<path fill="#1EBBEE" d="M14.4,139.8l12.3-11.9c-6.2-6.4-9.6-14.8-9.7-23.7C17,91,24.3,79.1,36.1,73.2L33.3,58
				c-0.7,0.3-6.1,0.5-6.8,0.9C9.9,68-0.2,85.3,0,104.4C0.1,117.7,5.2,130.3,14.4,139.8z"/>
		</g>
		<polygon fill="#3176BB" points="26.4,151.3 46.4,144.8 46.4,139.3 26.4,145.8 		"/>
		<polygon fill="#3176BB" points="79.1,151.3 59.1,144.8 59.1,139.3 79.1,145.8 		"/>
		<circle fill="#3176BB" cx="53.9" cy="130.5" r="2"/>
		<polygon fill="#1EBBEE" points="41.4,66.8 53.9,79.8 68.8,64.4 77.4,66.9 69.7,127.2 36.1,126.4 30.6,68.3 		"/>
		<g>
			<rect x="46.6" y="94.5" fill="#FFFFFF" width="3" height="14.2"/>
			<polygon fill="#FFFFFF" points="62.9,96.9 58.7,96.9 58.7,108.7 55.8,108.7 55.8,96.9 51.6,96.9 51.6,94.5 62.9,94.5 			"/>
			<path fill="#FFFFFF" d="M67.6,109.3l-13.6,8l-13.9-8V93.7l13.6-8l13.9,8V109.3z M53.7,83l-16,9.2v18.6L54,120l16-9.2V92.2
				L53.7,83z"/>
		</g>
		<polygon fill="#9A8D78" points="62.3,17.3 74.1,30.5 65.6,34.7 		"/>
		<path fill="#010101" d="M57.9,24.3c0.3,0.6,0,1.3-0.6,1.6c-0.6,0.3-1.3,0-1.6-0.6c-0.3-0.6,0-1.3,0.6-1.6
			C56.9,23.4,57.6,23.7,57.9,24.3"/>
		<polygon fill="#F89420" points="62.3,17.3 74.1,30.5 65.6,34.7 		"/>
		<path fill="#F89420" d="M29.9,20l9.3,19.4l0.1,0c7.7,14.1,21.7,12.7,36.3,5.6l-0.6-1.3l-5.3-11L63,18.9L57.2,6.7L29.9,20"/>
		<path fill="#1D4483" d="M57.1,6.8l-0.2,0.1L57.1,6.8c-3.2-7.4-15.3-8.4-19.5-2.1c-1.3,1.9-2.4,2.9-4.5,3.9c-1.7,0.8-3,1.7-4,3.3
			c-0.9,1.3-0.8,3.8,0,5.9c-9.8,6,13.9,27,13.9,27c5.1-8.1-0.6-19.5-0.6-19.5c0.2-0.3,0.3-0.6,0.4-0.9c1.2-3.3,3.3-3.6,6.3-5.3
			C52.9,17.1,58,11.5,57.1,6.8"/>
		<path fill="#F89420" d="M42.5,25.3c-3.4,1.6-4.8,5.7-3.2,9.1c1.6,3.4,5.7,4.8,9.1,3.2L42.5,25.3"/>
		<polyline fill="#D17E29" points="46.9,34.5 43.9,28.4 43.9,28.4 46.9,34.5 46.9,34.5 		"/>
		<path fill="#D17E29" d="M45.4,34.9c-1.3,0-2.5-0.7-3.1-1.9c-0.8-1.7-0.1-3.7,1.6-4.6l2.9,6.2C46.4,34.8,45.9,34.9,45.4,34.9"/>
		<path fill="none" stroke="#1D4483" stroke-width="0.5" stroke-miterlimit="10" d="M59.2,24.7c0,0-0.4-1.1-2.2-0.7s-1.8,2-1.8,2"/>
	</g>
</g>
<g id="kiosk">
</g>
<g id="conditional_access">
</g>
</svg>
