<?xml version="1.0" encoding="utf-8"?>
<!-- Generator: Adobe Illustrator 19.2.1, SVG Export Plug-In . SVG Version: 6.00 Build 0)  -->
<svg version="1.1" xmlns="http://www.w3.org/2000/svg" xmlns:xlink="http://www.w3.org/1999/xlink" x="0px" y="0px"
	 viewBox="0 0 177 333" enable-background="new 0 0 177 333" xml:space="preserve">
<g id="desktop_management">
</g>
<g id="corporate_mobile">
</g>
<g id="kiosk">
	<g>
		<g>
			<defs>
				<rect id="SVGID_63_" x="48.5" y="54.2" width="27.3" height="17.9"/>
			</defs>
			<clipPath id="SVGID_2_">
				<use xlink:href="#SVGID_63_"  overflow="visible"/>
			</clipPath>
			<path clip-path="url(#SVGID_2_)" fill="#0072C6" d="M49.2,55.9c0-0.8,0.7-1.5,1.5-1.5h24c0.9,0,1.5,0.7,1.5,1.5v14.7
				c0,0.8-0.6,1.5-1.5,1.5h-24c-0.8,0-1.5-0.7-1.5-1.5V55.9z"/>
			<rect x="49.2" y="66.1" clip-path="url(#SVGID_2_)" fill="#333333" width="26.9" height="2.8"/>
			
				<rect x="49.2" y="66.1" opacity="0" clip-path="url(#SVGID_2_)" fill="none" stroke="#FFFFFF" stroke-width="9.791923e-002" stroke-linecap="round" stroke-linejoin="round" stroke-miterlimit="10" width="26.9" height="2.8"/>
			<rect x="58.6" y="61.5" clip-path="url(#SVGID_2_)" fill="#FFFFFF" width="15" height="1.8"/>
			
				<rect x="58.6" y="61.5" opacity="0" clip-path="url(#SVGID_2_)" fill="none" stroke="#FFFFFF" stroke-width="9.791923e-002" stroke-linecap="round" stroke-linejoin="round" stroke-miterlimit="10" width="15" height="1.8"/>
			<rect x="51.1" y="61.5" clip-path="url(#SVGID_2_)" fill="#FFFFFF" width="5.1" height="1.8"/>
			
				<rect x="51.1" y="61.5" opacity="0" clip-path="url(#SVGID_2_)" fill="none" stroke="#FFFFFF" stroke-width="9.791923e-002" stroke-linecap="round" stroke-linejoin="round" stroke-miterlimit="10" width="5.1" height="1.8"/>
		</g>
		<g>
			<path fill="#505050" d="M62.3,77.3c0,0.4,0,0.4,0.4,0.4v-0.4H62.3z"/>
			<path fill="#505050" d="M61.2,77.3c0,0.4,0,0.4,0.4,0.4v-0.4H61.2z"/>
			<path fill="#2F2F2F" d="M0,119.1c0,0.6,0.5,1.1,1.1,1.1h73.5c0.6,0,1.1-0.5,1.1-1.1V74.3c0-0.6-0.4-1.1-1.1-1.1H1.1
				c-0.6,0-1.1,0.5-1.1,1.1L0,119.1"/>
			<path fill="#464646" d="M74.6,73.2H30.6l5.6,5.6h32.6c0.5,0,0.9,0.4,0.9,0.9v31.4v1.1l5.9,5.8V74.3
				C75.6,73.7,75.2,73.2,74.6,73.2"/>
			<g>
				<path d="M5.9,113.2c0,0.5,0.4,1,0.9,1h62.1c0.5,0,0.9-0.4,0.9-1V79.8c0-0.5-0.4-0.9-0.9-0.9H6.8c-0.5,0-0.9,0.4-0.9,0.9V113.2"
					/>
			</g>
			<path fill="#2F2F2F" d="M71.4,73.2H58.5c-1.1,0-2-0.9-2-2v-2c0-1.1,0.9-2,2-2h12.9c1.1,0,2,0.9,2,2v2
				C73.4,72.3,72.5,73.2,71.4,73.2z"/>
			<g>
				<path fill="#FFFFFF" d="M68.8,114.1H7c-0.5,0-1-0.4-1-1V79.9c0-0.6,0.5-1,1-1h61.7c0.6,0,1,0.4,1,1v33.2
					C69.8,113.6,69.3,114.1,68.8,114.1z"/>
				<path fill="#D2D2D2" d="M16.8,114.1H7c-0.5,0-1-0.4-1-1V83.8h10.8V114.1z"/>
				<path fill="#0072C6" d="M69.8,84.1H6v-4.2c0-0.6,0.5-1,1-1h61.7c0.6,0,1,0.4,1,1V84.1z"/>
				<g>
					<path fill="#FFFFFF" d="M10.6,82.5v-1.3c0-0.1,0-0.2,0-0.3h0c0,0,0,0.1,0,0.1c0,0,0,0.1,0,0.1l-0.7,1.5H9.8L9.1,81
						c0,0,0-0.1-0.1-0.2h0c0,0,0,0.1,0,0.1c0,0.1,0,0.1,0,0.2v1.3H8.9v-1.9h0.2L9.7,82c0,0,0,0.1,0,0.1s0,0.1,0,0.1h0
						c0,0,0-0.1,0-0.1c0,0,0-0.1,0-0.1l0.6-1.4h0.2v1.9H10.6z"/>
					<path fill="#FFFFFF" d="M11.3,80.8C11.3,80.8,11.2,80.8,11.3,80.8c-0.1-0.1-0.1-0.1-0.1-0.1c0,0,0-0.1,0-0.1c0,0,0.1,0,0.1,0
						c0,0,0,0,0,0s0,0,0,0s0,0,0,0s0,0,0,0c0,0,0,0,0,0C11.4,80.7,11.4,80.7,11.3,80.8C11.4,80.8,11.4,80.8,11.3,80.8
						C11.3,80.8,11.3,80.8,11.3,80.8z M11.2,82.5v-1.4h0.2v1.4H11.2z"/>
					<path fill="#FFFFFF" d="M12.7,82.4c-0.1,0.1-0.2,0.1-0.4,0.1c-0.1,0-0.2,0-0.3-0.1c-0.1,0-0.1-0.1-0.2-0.1
						c-0.1-0.1-0.1-0.1-0.1-0.2c0-0.1,0-0.2,0-0.3c0-0.1,0-0.2,0-0.3c0-0.1,0.1-0.2,0.1-0.2c0.1-0.1,0.1-0.1,0.2-0.2
						c0.1,0,0.2-0.1,0.3-0.1c0.1,0,0.2,0,0.3,0.1v0.2c-0.1-0.1-0.2-0.1-0.3-0.1c-0.1,0-0.2,0-0.2,0c-0.1,0-0.1,0.1-0.2,0.1
						c0,0.1-0.1,0.1-0.1,0.2c0,0.1,0,0.1,0,0.2c0,0.1,0,0.1,0,0.2c0,0.1,0,0.1,0.1,0.2c0,0.1,0.1,0.1,0.1,0.1s0.1,0,0.2,0
						c0.1,0,0.2,0,0.3-0.1V82.4z"/>
				</g>
				<g>
					<path fill="#FFFFFF" d="M13.5,81.3c0,0-0.1,0-0.2,0c0,0-0.1,0-0.1,0c0,0-0.1,0-0.1,0.1c0,0,0,0.1-0.1,0.1c0,0,0,0.1,0,0.1
						c0,0,0,0.1,0,0.1s0,0.1,0,0.1v0.7h-0.2v-1.4H13v0.3h0c0,0,0-0.1,0.1-0.1c0,0,0.1-0.1,0.1-0.1c0,0,0.1,0,0.1-0.1
						c0,0,0.1,0,0.1,0c0,0,0.1,0,0.1,0c0,0,0,0,0.1,0V81.3z"/>
				</g>
				<g>
					<path fill="#FFFFFF" d="M14.2,82.5c-0.1,0-0.2,0-0.3,0s-0.1-0.1-0.2-0.1c-0.1-0.1-0.1-0.1-0.1-0.2c0-0.1,0-0.2,0-0.3
						c0-0.1,0-0.2,0-0.3s0.1-0.2,0.1-0.2c0.1-0.1,0.1-0.1,0.2-0.1c0.1,0,0.2,0,0.3,0c0.1,0,0.2,0,0.3,0c0.1,0,0.1,0.1,0.2,0.1
						s0.1,0.1,0.1,0.2s0,0.2,0,0.3c0,0.1,0,0.2,0,0.3c0,0.1-0.1,0.2-0.1,0.2c-0.1,0.1-0.1,0.1-0.2,0.1
						C14.4,82.5,14.3,82.5,14.2,82.5z M14.3,81.2c-0.1,0-0.1,0-0.2,0c-0.1,0-0.1,0.1-0.2,0.1c0,0-0.1,0.1-0.1,0.2c0,0.1,0,0.2,0,0.2
						c0,0.1,0,0.2,0,0.2c0,0.1,0.1,0.1,0.1,0.2c0,0,0.1,0.1,0.2,0.1c0.1,0,0.1,0,0.2,0c0.1,0,0.1,0,0.2,0c0.1,0,0.1-0.1,0.1-0.1
						s0.1-0.1,0.1-0.2s0-0.1,0-0.2c0-0.2,0-0.3-0.1-0.4C14.5,81.3,14.4,81.2,14.3,81.2z"/>
					<path fill="#FFFFFF" d="M15.2,82.2C15.2,82.2,15.2,82.3,15.2,82.2c0.1,0.1,0.1,0.1,0.2,0.1c0,0,0.1,0,0.1,0c0,0,0.1,0,0.1,0
						c0.2,0,0.3-0.1,0.3-0.2c0,0,0-0.1,0-0.1c0,0,0,0-0.1-0.1s-0.1,0-0.1-0.1s-0.1,0-0.1-0.1c-0.1,0-0.1-0.1-0.2-0.1
						c0,0-0.1-0.1-0.1-0.1s-0.1-0.1-0.1-0.1s0-0.1,0-0.1c0-0.1,0-0.1,0-0.2c0,0,0.1-0.1,0.1-0.1c0,0,0.1-0.1,0.2-0.1
						c0.1,0,0.1,0,0.2,0c0.1,0,0.2,0,0.3,0.1v0.2c-0.1-0.1-0.2-0.1-0.3-0.1c0,0-0.1,0-0.1,0c0,0-0.1,0-0.1,0s0,0-0.1,0.1
						c0,0,0,0.1,0,0.1c0,0,0,0.1,0,0.1s0,0,0,0.1c0,0,0.1,0,0.1,0.1c0,0,0.1,0,0.1,0.1c0.1,0,0.1,0.1,0.2,0.1c0,0,0.1,0.1,0.1,0.1
						c0,0,0.1,0.1,0.1,0.1c0,0,0,0.1,0,0.1c0,0.1,0,0.1,0,0.2c0,0-0.1,0.1-0.1,0.1c0,0-0.1,0.1-0.2,0.1s-0.1,0-0.2,0
						c-0.1,0-0.3,0-0.3-0.1V82.2z"/>
				</g>
				<g>
					<path fill="#FFFFFF" d="M16.8,82.5c-0.1,0-0.2,0-0.3,0s-0.1-0.1-0.2-0.1c-0.1-0.1-0.1-0.1-0.1-0.2c0-0.1,0-0.2,0-0.3
						c0-0.1,0-0.2,0-0.3s0.1-0.2,0.1-0.2c0.1-0.1,0.1-0.1,0.2-0.1c0.1,0,0.2,0,0.3,0c0.1,0,0.2,0,0.3,0c0.1,0,0.1,0.1,0.2,0.1
						s0.1,0.1,0.1,0.2s0,0.2,0,0.3c0,0.1,0,0.2,0,0.3c0,0.1-0.1,0.2-0.1,0.2c-0.1,0.1-0.1,0.1-0.2,0.1C17,82.5,16.9,82.5,16.8,82.5z
						 M16.8,81.2c-0.1,0-0.1,0-0.2,0c-0.1,0-0.1,0.1-0.2,0.1c0,0-0.1,0.1-0.1,0.2c0,0.1,0,0.2,0,0.2c0,0.1,0,0.2,0,0.2
						c0,0.1,0.1,0.1,0.1,0.2c0,0,0.1,0.1,0.2,0.1c0.1,0,0.1,0,0.2,0c0.1,0,0.1,0,0.2,0c0.1,0,0.1-0.1,0.1-0.1s0.1-0.1,0.1-0.2
						s0-0.1,0-0.2c0-0.2,0-0.3-0.1-0.4C17.1,81.3,16.9,81.2,16.8,81.2z"/>
				</g>
				<g>
					<path fill="#FFFFFF" d="M18.3,80.6c0,0-0.1,0-0.1,0c-0.2,0-0.2,0.1-0.2,0.3v0.2h0.3v0.1h-0.3v1.2h-0.2v-1.2h-0.2v-0.1h0.2v-0.2
						c0-0.1,0-0.1,0-0.2c0-0.1,0-0.1,0.1-0.1c0,0,0.1-0.1,0.1-0.1c0,0,0.1,0,0.2,0c0.1,0,0.1,0,0.2,0V80.6z"/>
				</g>
				<g>
					<path fill="#FFFFFF" d="M19,82.5c-0.1,0-0.1,0-0.2,0c-0.2,0-0.3-0.1-0.3-0.4v-0.9h-0.2v-0.1h0.2v-0.3l0.2-0.1v0.4H19v0.1h-0.3
						v0.8c0,0.1,0,0.2,0,0.2c0,0,0.1,0.1,0.2,0.1c0.1,0,0.1,0,0.2,0V82.5z"/>
					<path fill="#FFFFFF" d="M21.4,82.5l-0.2-0.6h-0.8l-0.2,0.6H20l0.7-1.9h0.2l0.7,1.9H21.4z M20.8,80.9
						C20.8,80.9,20.8,80.9,20.8,80.9c0-0.1,0-0.1,0-0.1h0C20.8,80.8,20.8,80.8,20.8,80.9C20.8,80.9,20.8,80.9,20.8,80.9l-0.4,0.8
						h0.7L20.8,80.9z"/>
					<path fill="#FFFFFF" d="M22.7,82.4c-0.1,0.1-0.2,0.1-0.4,0.1c-0.1,0-0.2,0-0.3-0.1c-0.1,0-0.1-0.1-0.2-0.1
						c-0.1-0.1-0.1-0.1-0.1-0.2c0-0.1,0-0.2,0-0.3c0-0.1,0-0.2,0-0.3c0-0.1,0.1-0.2,0.1-0.2c0.1-0.1,0.1-0.1,0.2-0.2
						c0.1,0,0.2-0.1,0.3-0.1c0.1,0,0.2,0,0.3,0.1v0.2c-0.1-0.1-0.2-0.1-0.3-0.1c-0.1,0-0.2,0-0.2,0c-0.1,0-0.1,0.1-0.2,0.1
						c0,0.1-0.1,0.1-0.1,0.2c0,0.1,0,0.1,0,0.2c0,0.1,0,0.1,0,0.2c0,0.1,0,0.1,0.1,0.2c0,0.1,0.1,0.1,0.1,0.1s0.1,0,0.2,0
						c0.1,0,0.2,0,0.3-0.1V82.4z"/>
					<path fill="#FFFFFF" d="M24,82.4c-0.1,0.1-0.2,0.1-0.4,0.1c-0.1,0-0.2,0-0.3-0.1c-0.1,0-0.1-0.1-0.2-0.1
						c-0.1-0.1-0.1-0.1-0.1-0.2c0-0.1,0-0.2,0-0.3c0-0.1,0-0.2,0-0.3c0-0.1,0.1-0.2,0.1-0.2c0.1-0.1,0.1-0.1,0.2-0.2
						c0.1,0,0.2-0.1,0.3-0.1c0.1,0,0.2,0,0.3,0.1v0.2c-0.1-0.1-0.2-0.1-0.3-0.1c-0.1,0-0.2,0-0.2,0c-0.1,0-0.1,0.1-0.2,0.1
						c0,0.1-0.1,0.1-0.1,0.2c0,0.1,0,0.1,0,0.2c0,0.1,0,0.1,0,0.2c0,0.1,0,0.1,0.1,0.2c0,0.1,0.1,0.1,0.1,0.1s0.1,0,0.2,0
						c0.1,0,0.2,0,0.3-0.1V82.4z"/>
					<path fill="#FFFFFF" d="M24.9,82.5c-0.1,0-0.2,0-0.3,0s-0.1-0.1-0.2-0.1c-0.1-0.1-0.1-0.1-0.1-0.2c0-0.1,0-0.2,0-0.3
						c0-0.1,0-0.2,0-0.3s0.1-0.2,0.1-0.2c0.1-0.1,0.1-0.1,0.2-0.1c0.1,0,0.2,0,0.3,0c0.1,0,0.2,0,0.3,0c0.1,0,0.1,0.1,0.2,0.1
						s0.1,0.1,0.1,0.2s0,0.2,0,0.3c0,0.1,0,0.2,0,0.3c0,0.1-0.1,0.2-0.1,0.2c-0.1,0.1-0.1,0.1-0.2,0.1C25.1,82.5,25,82.5,24.9,82.5z
						 M24.9,81.2c-0.1,0-0.1,0-0.2,0c-0.1,0-0.1,0.1-0.2,0.1c0,0-0.1,0.1-0.1,0.2c0,0.1,0,0.2,0,0.2c0,0.1,0,0.2,0,0.2
						c0,0.1,0.1,0.1,0.1,0.2c0,0,0.1,0.1,0.2,0.1c0.1,0,0.1,0,0.2,0c0.1,0,0.1,0,0.2,0c0.1,0,0.1-0.1,0.1-0.1s0.1-0.1,0.1-0.2
						s0-0.1,0-0.2c0-0.2,0-0.3-0.1-0.4C25.1,81.3,25,81.2,24.9,81.2z"/>
					<path fill="#FFFFFF" d="M26.8,82.5v-0.2h0c-0.1,0.2-0.2,0.3-0.4,0.3c-0.3,0-0.5-0.2-0.5-0.6v-0.8H26v0.8c0,0.2,0,0.3,0.1,0.4
						s0.1,0.1,0.3,0.1c0.1,0,0.1,0,0.2,0c0,0,0.1-0.1,0.1-0.1s0.1-0.1,0.1-0.1c0-0.1,0-0.1,0-0.2v-0.8h0.2v1.4H26.8z"/>
					<path fill="#FFFFFF" d="M28.3,82.5v-0.8c0-0.3-0.1-0.5-0.3-0.5c-0.1,0-0.1,0-0.2,0c-0.1,0-0.1,0.1-0.1,0.1c0,0-0.1,0.1-0.1,0.1
						c0,0.1,0,0.1,0,0.2v0.8h-0.2v-1.4h0.2v0.2h0c0.1-0.2,0.3-0.3,0.5-0.3c0.1,0,0.3,0,0.3,0.1s0.1,0.2,0.1,0.4v0.8H28.3z"/>
					<path fill="#FFFFFF" d="M29.4,82.5c-0.1,0-0.1,0-0.2,0c-0.2,0-0.3-0.1-0.3-0.4v-0.9h-0.2v-0.1h0.2v-0.3l0.2-0.1v0.4h0.3v0.1H29
						v0.8c0,0.1,0,0.2,0,0.2c0,0,0.1,0.1,0.2,0.1c0.1,0,0.1,0,0.2,0V82.5z"/>
				</g>
				<line fill="none" stroke="#969696" stroke-width="0.5624" stroke-miterlimit="10" x1="15.6" y1="86.3" x2="8.5" y2="86.3"/>
				<line fill="none" stroke="#969696" stroke-width="0.5624" stroke-miterlimit="10" x1="15.6" y1="87.9" x2="8.5" y2="87.9"/>
				<line fill="none" stroke="#969696" stroke-width="0.5624" stroke-miterlimit="10" x1="15.6" y1="89.3" x2="8.5" y2="89.3"/>
				<line fill="none" stroke="#969696" stroke-width="0.5624" stroke-miterlimit="10" x1="15.6" y1="90.9" x2="8.5" y2="90.9"/>
				<line fill="none" stroke="#969696" stroke-width="0.5624" stroke-miterlimit="10" x1="15.6" y1="92.5" x2="8.5" y2="92.5"/>
				<line fill="none" stroke="#969696" stroke-width="0.5624" stroke-miterlimit="10" x1="15.6" y1="94.1" x2="8.5" y2="94.1"/>
				<line fill="none" stroke="#969696" stroke-width="0.5624" stroke-miterlimit="10" x1="15.6" y1="95.7" x2="8.5" y2="95.7"/>
				<g>
					<path fill="#0072C6" d="M20.5,88.8v0.6h-0.2v-1.6h0.4c0.2,0,0.3,0,0.4,0.1s0.1,0.2,0.1,0.3s-0.1,0.3-0.2,0.4
						c-0.1,0.1-0.2,0.1-0.4,0.1H20.5z M20.5,88v0.6h0.2c0.1,0,0.2,0,0.3-0.1c0.1-0.1,0.1-0.1,0.1-0.2c0-0.2-0.1-0.3-0.4-0.3H20.5z"
						/>
					<path fill="#0072C6" d="M22.5,89.4h-0.2v-0.2h0c-0.1,0.1-0.2,0.2-0.3,0.2c-0.3,0-0.4-0.2-0.4-0.5v-0.7h0.2v0.6
						c0,0.2,0.1,0.4,0.3,0.4c0.1,0,0.2,0,0.2-0.1c0.1-0.1,0.1-0.1,0.1-0.3v-0.6h0.2V89.4z"/>
				</g>
				<g>
					<path fill="#0072C6" d="M23.5,88.5c0,0-0.1,0-0.1,0c-0.1,0-0.1,0-0.2,0.1s-0.1,0.2-0.1,0.3v0.6h-0.2v-1.1h0.2v0.2h0
						c0-0.1,0.1-0.1,0.1-0.2c0.1,0,0.1-0.1,0.2-0.1c0,0,0.1,0,0.1,0V88.5z"/>
				</g>
				<g>
					<path fill="#0072C6" d="M24.4,89.4c-0.1,0.1-0.2,0.1-0.3,0.1c-0.2,0-0.3-0.1-0.4-0.2s-0.1-0.2-0.1-0.4c0-0.2,0.1-0.3,0.2-0.4
						s0.2-0.2,0.4-0.2c0.1,0,0.2,0,0.3,0.1v0.2c-0.1-0.1-0.2-0.1-0.3-0.1c-0.1,0-0.2,0-0.3,0.1c-0.1,0.1-0.1,0.2-0.1,0.3
						c0,0.1,0,0.2,0.1,0.3s0.2,0.1,0.3,0.1c0.1,0,0.2,0,0.3-0.1V89.4z"/>
					<path fill="#0072C6" d="M25.6,89.4h-0.2v-0.6c0-0.2-0.1-0.4-0.3-0.4c-0.1,0-0.2,0-0.2,0.1c-0.1,0.1-0.1,0.2-0.1,0.3v0.6h-0.2
						v-1.7h0.2v0.7h0c0.1-0.1,0.2-0.2,0.4-0.2c0.3,0,0.4,0.2,0.4,0.5V89.4z"/>
					<path fill="#0072C6" d="M26.7,89.4h-0.2v-0.2h0c-0.1,0.1-0.2,0.2-0.3,0.2c-0.1,0-0.2,0-0.3-0.1c-0.1-0.1-0.1-0.1-0.1-0.2
						c0-0.2,0.1-0.3,0.4-0.4l0.3,0c0-0.2-0.1-0.3-0.2-0.3c-0.1,0-0.3,0-0.4,0.1v-0.2c0.1-0.1,0.2-0.1,0.4-0.1c0.3,0,0.4,0.1,0.4,0.4
						V89.4z M26.5,88.8l-0.3,0c-0.1,0-0.1,0-0.2,0.1c0,0-0.1,0.1-0.1,0.2c0,0.1,0,0.1,0.1,0.1c0,0,0.1,0.1,0.2,0.1
						c0.1,0,0.2,0,0.2-0.1c0.1-0.1,0.1-0.1,0.1-0.2V88.8z"/>
					<path fill="#0072C6" d="M27,89.4v-0.2c0.1,0.1,0.2,0.1,0.3,0.1c0.2,0,0.2-0.1,0.2-0.2c0,0,0-0.1,0-0.1c0,0,0,0-0.1-0.1
						c0,0,0,0-0.1,0s-0.1,0-0.1,0c0,0-0.1,0-0.1-0.1s-0.1,0-0.1-0.1s0-0.1-0.1-0.1s0-0.1,0-0.1c0-0.1,0-0.1,0-0.1
						c0,0,0.1-0.1,0.1-0.1s0.1,0,0.1-0.1c0.1,0,0.1,0,0.2,0c0.1,0,0.2,0,0.3,0.1v0.2c-0.1-0.1-0.2-0.1-0.3-0.1c0,0-0.1,0-0.1,0
						s-0.1,0-0.1,0c0,0,0,0,0,0c0,0,0,0,0,0.1c0,0,0,0.1,0,0.1c0,0,0,0,0,0.1c0,0,0,0,0.1,0c0,0,0.1,0,0.1,0c0,0,0.1,0,0.1,0.1
						c0,0,0.1,0,0.1,0.1c0,0,0,0.1,0.1,0.1c0,0,0,0.1,0,0.1c0,0.1,0,0.1,0,0.1s-0.1,0.1-0.1,0.1s-0.1,0-0.1,0.1c-0.1,0-0.1,0-0.2,0
						C27.1,89.4,27,89.4,27,89.4z"/>
					<path fill="#0072C6" d="M28.8,88.9H28c0,0.1,0,0.2,0.1,0.3c0.1,0.1,0.2,0.1,0.3,0.1c0.1,0,0.2,0,0.3-0.1v0.2
						c-0.1,0.1-0.2,0.1-0.4,0.1c-0.2,0-0.3-0.1-0.4-0.2s-0.1-0.2-0.1-0.4c0-0.2,0-0.3,0.1-0.4c0.1-0.1,0.2-0.2,0.4-0.2
						c0.1,0,0.3,0,0.3,0.1C28.8,88.5,28.8,88.6,28.8,88.9L28.8,88.9z M28.6,88.7c0-0.1,0-0.2-0.1-0.2c0-0.1-0.1-0.1-0.2-0.1
						c-0.1,0-0.2,0-0.2,0.1c-0.1,0.1-0.1,0.1-0.1,0.2H28.6z"/>
					<path fill="#0072C6" d="M29,89.4v-0.2c0.1,0.1,0.2,0.1,0.3,0.1c0.2,0,0.2-0.1,0.2-0.2c0,0,0-0.1,0-0.1c0,0,0,0-0.1-0.1
						c0,0,0,0-0.1,0s-0.1,0-0.1,0c0,0-0.1,0-0.1-0.1s-0.1,0-0.1-0.1s0-0.1-0.1-0.1s0-0.1,0-0.1c0-0.1,0-0.1,0-0.1
						c0,0,0.1-0.1,0.1-0.1s0.1,0,0.1-0.1c0.1,0,0.1,0,0.2,0c0.1,0,0.2,0,0.3,0.1v0.2c-0.1-0.1-0.2-0.1-0.3-0.1c0,0-0.1,0-0.1,0
						s-0.1,0-0.1,0c0,0,0,0,0,0c0,0,0,0,0,0.1c0,0,0,0.1,0,0.1c0,0,0,0,0,0.1c0,0,0,0,0.1,0c0,0,0.1,0,0.1,0c0,0,0.1,0,0.1,0.1
						c0,0,0.1,0,0.1,0.1c0,0,0,0.1,0.1,0.1c0,0,0,0.1,0,0.1c0,0.1,0,0.1,0,0.1s-0.1,0.1-0.1,0.1s-0.1,0-0.1,0.1c-0.1,0-0.1,0-0.2,0
						C29.2,89.4,29.1,89.4,29,89.4z"/>
				</g>
				<g>
					<path d="M21.2,94.7V95h-0.1v-0.3c-0.2,0-0.3,0-0.5-0.1v-0.2c0.1,0,0.1,0.1,0.2,0.1c0.1,0,0.2,0,0.2,0v-0.7
						c-0.2-0.1-0.3-0.2-0.4-0.3c-0.1-0.1-0.1-0.2-0.1-0.3c0-0.1,0-0.2,0.1-0.3s0.2-0.1,0.3-0.2v-0.2h0.1v0.2c0.2,0,0.3,0,0.4,0.1
						v0.2C21.5,93,21.4,93,21.2,93v0.7c0.2,0.1,0.3,0.2,0.4,0.3c0.1,0.1,0.1,0.2,0.1,0.3c0,0.1,0,0.2-0.1,0.3
						C21.5,94.6,21.4,94.7,21.2,94.7z M21.1,93.6V93c-0.1,0-0.1,0-0.2,0.1c0,0-0.1,0.1-0.1,0.2c0,0.1,0,0.1,0.1,0.2
						C20.9,93.5,21,93.6,21.1,93.6z M21.2,93.9v0.6c0.2,0,0.3-0.1,0.3-0.3C21.5,94.1,21.4,94,21.2,93.9z"/>
					<path d="M22.8,94.7h-0.2v-1.6c0,0,0,0-0.1,0.1s-0.1,0-0.1,0.1c0,0-0.1,0-0.1,0.1c0,0-0.1,0-0.1,0v-0.2c0,0,0.1,0,0.2-0.1
						c0.1,0,0.1,0,0.2-0.1c0.1,0,0.1-0.1,0.1-0.1s0.1-0.1,0.1-0.1h0.1V94.7z"/>
					<path d="M23.6,94.7c0,0-0.1,0-0.1,0s0-0.1,0-0.1c0,0,0-0.1,0-0.1s0.1,0,0.1,0c0,0,0.1,0,0.1,0s0,0.1,0,0.1c0,0,0,0.1,0,0.1
						S23.7,94.7,23.6,94.7z"/>
					<path d="M25.2,93.8c0,0.2,0,0.3,0,0.4c0,0.1-0.1,0.2-0.1,0.3c-0.1,0.1-0.1,0.1-0.2,0.2c-0.1,0-0.2,0.1-0.3,0.1
						c-0.1,0-0.2,0-0.3-0.1c-0.1,0-0.1-0.1-0.2-0.2s-0.1-0.2-0.1-0.3s0-0.3,0-0.4c0-0.2,0-0.3,0-0.4c0-0.1,0.1-0.2,0.1-0.3
						s0.1-0.2,0.2-0.2c0.1,0,0.2-0.1,0.3-0.1C25,92.8,25.2,93.1,25.2,93.8z M25,93.8c0-0.5-0.1-0.8-0.4-0.8c-0.3,0-0.4,0.3-0.4,0.8
						c0,0.5,0.1,0.8,0.4,0.8C24.9,94.6,25,94.3,25,93.8z"/>
					<path d="M26.7,93.8c0,0.2,0,0.3,0,0.4c0,0.1-0.1,0.2-0.1,0.3c-0.1,0.1-0.1,0.1-0.2,0.2c-0.1,0-0.2,0.1-0.3,0.1
						c-0.1,0-0.2,0-0.3-0.1c-0.1,0-0.1-0.1-0.2-0.2s-0.1-0.2-0.1-0.3s0-0.3,0-0.4c0-0.2,0-0.3,0-0.4c0-0.1,0.1-0.2,0.1-0.3
						s0.1-0.2,0.2-0.2c0.1,0,0.2-0.1,0.3-0.1C26.5,92.8,26.7,93.1,26.7,93.8z M26.5,93.8c0-0.5-0.1-0.8-0.4-0.8
						c-0.3,0-0.4,0.3-0.4,0.8c0,0.5,0.1,0.8,0.4,0.8C26.4,94.6,26.5,94.3,26.5,93.8z"/>
					<path d="M29.3,94.7h-0.2v-0.9h-1v0.9h-0.2v-1.9h0.2v0.8h1v-0.8h0.2V94.7z"/>
					<path d="M30.7,94.7h-0.2v-0.2h0c-0.1,0.2-0.2,0.2-0.4,0.2c-0.1,0-0.2,0-0.3-0.1s-0.1-0.2-0.1-0.3c0-0.3,0.1-0.4,0.4-0.4
						l0.4-0.1c0-0.2-0.1-0.3-0.3-0.3c-0.2,0-0.3,0.1-0.4,0.2v-0.2c0.1-0.1,0.3-0.1,0.5-0.1c0.3,0,0.5,0.2,0.5,0.5V94.7z M30.5,94
						l-0.3,0c-0.1,0-0.2,0-0.2,0.1c-0.1,0-0.1,0.1-0.1,0.2c0,0.1,0,0.1,0.1,0.2s0.1,0.1,0.2,0.1c0.1,0,0.2,0,0.3-0.1
						c0.1-0.1,0.1-0.2,0.1-0.3V94z"/>
					<path d="M31.3,94.7h-0.2v-2h0.2V94.7z"/>
					<path d="M32.3,94.7c-0.2,0-0.4-0.1-0.5-0.2s-0.2-0.3-0.2-0.5c0-0.2,0.1-0.4,0.2-0.5c0.1-0.1,0.3-0.2,0.5-0.2
						c0.2,0,0.4,0.1,0.5,0.2c0.1,0.1,0.2,0.3,0.2,0.5c0,0.2-0.1,0.4-0.2,0.5C32.7,94.7,32.5,94.7,32.3,94.7z M32.3,93.5
						c-0.1,0-0.2,0-0.3,0.1c-0.1,0.1-0.1,0.2-0.1,0.4c0,0.2,0,0.3,0.1,0.4c0.1,0.1,0.2,0.1,0.3,0.1c0.1,0,0.2,0,0.3-0.1
						c0.1-0.1,0.1-0.2,0.1-0.4c0-0.2,0-0.3-0.1-0.4C32.6,93.6,32.5,93.5,32.3,93.5z"/>
					<path d="M34.1,94.6v-0.3c0,0,0.1,0.1,0.1,0.1c0,0,0.1,0,0.1,0.1s0.1,0,0.1,0c0,0,0.1,0,0.1,0c0.1,0,0.2,0,0.3-0.1
						s0.1-0.1,0.1-0.2c0-0.1,0-0.1,0-0.1S34.9,94,34.8,94c0,0-0.1-0.1-0.1-0.1c-0.1,0-0.1-0.1-0.2-0.1c-0.1,0-0.1-0.1-0.2-0.1
						c-0.1,0-0.1-0.1-0.1-0.1c0,0-0.1-0.1-0.1-0.1s0-0.1,0-0.2c0-0.1,0-0.2,0.1-0.2c0-0.1,0.1-0.1,0.1-0.2s0.1-0.1,0.2-0.1
						c0.1,0,0.2,0,0.2,0c0.2,0,0.3,0,0.4,0.1v0.3C35,93,34.9,93,34.7,93c0,0-0.1,0-0.1,0c0,0-0.1,0-0.1,0c0,0-0.1,0.1-0.1,0.1
						s0,0.1,0,0.1c0,0,0,0.1,0,0.1c0,0,0,0.1,0.1,0.1c0,0,0.1,0.1,0.1,0.1c0.1,0,0.1,0.1,0.2,0.1c0.1,0,0.1,0.1,0.2,0.1
						c0.1,0,0.1,0.1,0.2,0.1c0,0,0.1,0.1,0.1,0.1c0,0.1,0,0.1,0,0.2c0,0.1,0,0.2-0.1,0.2c0,0.1-0.1,0.1-0.1,0.2
						c-0.1,0-0.1,0.1-0.2,0.1c-0.1,0-0.2,0-0.3,0c0,0-0.1,0-0.1,0s-0.1,0-0.1,0C34.2,94.7,34.2,94.7,34.1,94.6
						C34.1,94.7,34.1,94.7,34.1,94.6z"/>
				</g>
				<g>
					<path d="M35.4,94.5L35.4,94.5l0,0.8h-0.2v-2h0.2v0.2h0c0.1-0.2,0.3-0.3,0.5-0.3c0.2,0,0.3,0.1,0.4,0.2s0.1,0.3,0.1,0.5
						c0,0.2-0.1,0.4-0.2,0.5c-0.1,0.1-0.3,0.2-0.5,0.2C35.6,94.7,35.5,94.7,35.4,94.5z M35.4,94v0.2c0,0.1,0,0.2,0.1,0.3
						c0.1,0.1,0.2,0.1,0.3,0.1c0.1,0,0.2,0,0.3-0.2c0.1-0.1,0.1-0.2,0.1-0.4c0-0.2,0-0.3-0.1-0.4c-0.1-0.1-0.2-0.1-0.3-0.1
						c-0.1,0-0.2,0-0.3,0.1C35.5,93.7,35.4,93.8,35.4,94z"/>
				</g>
				<g>
					<path d="M37.7,94.7h-0.2v-0.2h0c-0.1,0.2-0.2,0.2-0.4,0.2c-0.1,0-0.2,0-0.3-0.1s-0.1-0.2-0.1-0.3c0-0.3,0.1-0.4,0.4-0.4
						l0.4-0.1c0-0.2-0.1-0.3-0.3-0.3c-0.2,0-0.3,0.1-0.4,0.2v-0.2c0.1-0.1,0.3-0.1,0.5-0.1c0.3,0,0.5,0.2,0.5,0.5V94.7z M37.5,94
						l-0.3,0c-0.1,0-0.2,0-0.2,0.1c-0.1,0-0.1,0.1-0.1,0.2c0,0.1,0,0.1,0.1,0.2s0.1,0.1,0.2,0.1c0.1,0,0.2,0,0.3-0.1
						c0.1-0.1,0.1-0.2,0.1-0.3V94z"/>
				</g>
				<g>
					<path d="M38.8,93.6c0,0-0.1,0-0.2,0c-0.1,0-0.2,0-0.2,0.1c-0.1,0.1-0.1,0.2-0.1,0.4v0.7h-0.2v-1.4h0.2v0.3h0
						c0-0.1,0.1-0.2,0.1-0.2c0.1-0.1,0.1-0.1,0.2-0.1c0.1,0,0.1,0,0.1,0V93.6z"/>
				</g>
				<g>
					<path d="M39.7,94.7c-0.1,0-0.1,0-0.2,0c-0.2,0-0.4-0.1-0.4-0.4v-0.8h-0.2v-0.2h0.2V93l0.2-0.1v0.4h0.3v0.2h-0.3v0.8
						c0,0.1,0,0.2,0,0.2s0.1,0.1,0.2,0.1c0.1,0,0.1,0,0.1,0V94.7z"/>
					<path d="M40.9,94.7h-0.2v-0.2h0c-0.1,0.2-0.2,0.2-0.4,0.2c-0.1,0-0.2,0-0.3-0.1s-0.1-0.2-0.1-0.3c0-0.3,0.1-0.4,0.4-0.4
						l0.4-0.1c0-0.2-0.1-0.3-0.3-0.3c-0.2,0-0.3,0.1-0.4,0.2v-0.2c0.1-0.1,0.3-0.1,0.5-0.1c0.3,0,0.5,0.2,0.5,0.5V94.7z M40.7,94
						l-0.3,0c-0.1,0-0.2,0-0.2,0.1c-0.1,0-0.1,0.1-0.1,0.2c0,0.1,0,0.1,0.1,0.2s0.1,0.1,0.2,0.1c0.1,0,0.2,0,0.3-0.1
						c0.1-0.1,0.1-0.2,0.1-0.3V94z"/>
					<path d="M42.4,94.7h-0.2v-0.8c0-0.3-0.1-0.4-0.3-0.4c-0.1,0-0.2,0-0.3,0.1c-0.1,0.1-0.1,0.2-0.1,0.3v0.8h-0.2v-1.4h0.2v0.2h0
						c0.1-0.2,0.2-0.3,0.4-0.3c0.1,0,0.3,0,0.3,0.1c0.1,0.1,0.1,0.2,0.1,0.4V94.7z"/>
					<path d="M45.2,94.7h-0.2l-0.2-0.5h-0.8l-0.2,0.5h-0.2l0.7-1.9h0.2L45.2,94.7z M44.6,94l-0.3-0.8c0,0,0-0.1,0-0.1h0
						c0,0.1,0,0.1,0,0.1L44,94H44.6z"/>
					<path d="M45.3,94.7v-0.2c0.1,0.1,0.2,0.1,0.4,0.1c0.2,0,0.3-0.1,0.3-0.2c0,0,0-0.1,0-0.1c0,0,0,0-0.1-0.1c0,0-0.1,0-0.1-0.1
						c0,0-0.1,0-0.1,0c-0.1,0-0.1,0-0.2-0.1c0,0-0.1-0.1-0.1-0.1s-0.1-0.1-0.1-0.1c0,0,0-0.1,0-0.1c0-0.1,0-0.1,0-0.2
						c0,0,0.1-0.1,0.1-0.1c0,0,0.1-0.1,0.2-0.1c0.1,0,0.1,0,0.2,0c0.1,0,0.2,0,0.3,0.1v0.2c-0.1-0.1-0.2-0.1-0.3-0.1
						c0,0-0.1,0-0.1,0c0,0-0.1,0-0.1,0c0,0,0,0-0.1,0.1s0,0,0,0.1c0,0,0,0.1,0,0.1c0,0,0,0,0.1,0.1c0,0,0.1,0,0.1,0c0,0,0.1,0,0.1,0
						c0.1,0,0.1,0,0.2,0.1c0,0,0.1,0.1,0.1,0.1s0.1,0.1,0.1,0.1c0,0,0,0.1,0,0.1c0,0.1,0,0.1,0,0.2c0,0-0.1,0.1-0.1,0.1
						c0,0-0.1,0.1-0.2,0.1c-0.1,0-0.1,0-0.2,0C45.5,94.7,45.4,94.7,45.3,94.7z"/>
					<path d="M46.4,94.7v-0.2c0.1,0.1,0.2,0.1,0.4,0.1c0.2,0,0.3-0.1,0.3-0.2c0,0,0-0.1,0-0.1c0,0,0,0-0.1-0.1c0,0-0.1,0-0.1-0.1
						c0,0-0.1,0-0.1,0c-0.1,0-0.1,0-0.2-0.1c0,0-0.1-0.1-0.1-0.1s-0.1-0.1-0.1-0.1c0,0,0-0.1,0-0.1c0-0.1,0-0.1,0-0.2
						c0,0,0.1-0.1,0.1-0.1c0,0,0.1-0.1,0.2-0.1c0.1,0,0.1,0,0.2,0c0.1,0,0.2,0,0.3,0.1v0.2c-0.1-0.1-0.2-0.1-0.3-0.1
						c0,0-0.1,0-0.1,0c0,0-0.1,0-0.1,0c0,0,0,0-0.1,0.1s0,0,0,0.1c0,0,0,0.1,0,0.1c0,0,0,0,0.1,0.1c0,0,0.1,0,0.1,0c0,0,0.1,0,0.1,0
						c0.1,0,0.1,0,0.2,0.1c0,0,0.1,0.1,0.1,0.1s0.1,0.1,0.1,0.1c0,0,0,0.1,0,0.1c0,0.1,0,0.1,0,0.2c0,0-0.1,0.1-0.1,0.1
						c0,0-0.1,0.1-0.2,0.1c-0.1,0-0.1,0-0.2,0C46.6,94.7,46.5,94.7,46.4,94.7z"/>
					<path d="M48.6,94.7h-0.2v-0.2h0c-0.1,0.2-0.2,0.2-0.4,0.2c-0.1,0-0.2,0-0.3-0.1s-0.1-0.2-0.1-0.3c0-0.3,0.1-0.4,0.4-0.4
						l0.4-0.1c0-0.2-0.1-0.3-0.3-0.3c-0.2,0-0.3,0.1-0.4,0.2v-0.2c0.1-0.1,0.3-0.1,0.5-0.1c0.3,0,0.5,0.2,0.5,0.5V94.7z M48.4,94
						l-0.3,0c-0.1,0-0.2,0-0.2,0.1c-0.1,0-0.1,0.1-0.1,0.2c0,0.1,0,0.1,0.1,0.2s0.1,0.1,0.2,0.1c0.1,0,0.2,0,0.3-0.1
						c0.1-0.1,0.1-0.2,0.1-0.3V94z"/>
					<path d="M50.1,94.7h-0.2v-0.2h0c-0.1,0.2-0.2,0.2-0.4,0.2c-0.3,0-0.5-0.2-0.5-0.6v-0.8h0.2v0.8c0,0.3,0.1,0.4,0.3,0.4
						c0.1,0,0.2,0,0.3-0.1c0.1-0.1,0.1-0.2,0.1-0.3v-0.8h0.2V94.7z"/>
					<path d="M50.8,94.7h-0.2v-2h0.2V94.7z"/>
					<path d="M51.8,94.7c-0.1,0-0.1,0-0.2,0c-0.2,0-0.4-0.1-0.4-0.4v-0.8h-0.2v-0.2h0.2V93l0.2-0.1v0.4h0.3v0.2h-0.3v0.8
						c0,0.1,0,0.2,0,0.2s0.1,0.1,0.2,0.1c0.1,0,0.1,0,0.1,0V94.7z"/>
				</g>
				<g>
					<path fill="#0072C6" d="M24.5,99.9h-1.6v5h-0.7v-5h-1.6v-0.6h3.9V99.9z"/>
					<path fill="#0072C6" d="M26.9,105c-0.6,0-1.1-0.2-1.4-0.6s-0.5-0.9-0.5-1.5c0-0.7,0.2-1.2,0.6-1.6s0.9-0.6,1.5-0.6
						c0.6,0,1.1,0.2,1.4,0.6s0.5,0.9,0.5,1.5c0,0.6-0.2,1.1-0.5,1.5C28,104.8,27.5,105,26.9,105z M27,101.3c-0.4,0-0.7,0.1-1,0.4
						s-0.4,0.7-0.4,1.2c0,0.5,0.1,0.8,0.4,1.1c0.2,0.3,0.6,0.4,1,0.4c0.4,0,0.7-0.1,1-0.4c0.2-0.3,0.3-0.6,0.3-1.1
						c0-0.5-0.1-0.9-0.3-1.2C27.7,101.5,27.4,101.3,27,101.3z"/>
					<path fill="#0072C6" d="M31.8,104.8c-0.2,0.1-0.4,0.1-0.6,0.1c-0.7,0-1.1-0.4-1.1-1.2v-2.4h-0.7v-0.5h0.7v-1l0.6-0.2v1.2h1v0.5
						h-1v2.3c0,0.3,0,0.5,0.1,0.6c0.1,0.1,0.2,0.2,0.5,0.2c0.2,0,0.3,0,0.4-0.1V104.8z"/>
					<path fill="#0072C6" d="M35.6,104.9h-0.6v-0.6h0c-0.3,0.5-0.7,0.7-1.2,0.7c-0.4,0-0.7-0.1-0.9-0.3s-0.3-0.5-0.3-0.8
						c0-0.7,0.4-1.2,1.3-1.3l1.2-0.2c0-0.7-0.3-1-0.8-1c-0.5,0-0.9,0.2-1.3,0.5v-0.7c0.4-0.3,0.8-0.4,1.4-0.4c0.9,0,1.4,0.5,1.4,1.5
						V104.9z M34.9,102.9l-1,0.1c-0.3,0-0.5,0.1-0.7,0.2s-0.2,0.3-0.2,0.6c0,0.2,0.1,0.4,0.2,0.5c0.1,0.1,0.3,0.2,0.6,0.2
						c0.3,0,0.6-0.1,0.8-0.3c0.2-0.2,0.3-0.5,0.3-0.8V102.9z"/>
					<path fill="#0072C6" d="M37.4,104.9h-0.6V99h0.6V104.9z"/>
					<path fill="#0072C6" d="M39,101.7c-0.1,0-0.2,0-0.3-0.1s-0.1-0.2-0.1-0.3s0-0.2,0.1-0.3c0.1-0.1,0.2-0.1,0.3-0.1
						c0.1,0,0.2,0,0.3,0.1c0.1,0.1,0.1,0.2,0.1,0.3s0,0.2-0.1,0.3S39.1,101.7,39,101.7z M39,105c-0.1,0-0.2,0-0.3-0.1
						s-0.1-0.2-0.1-0.3s0-0.2,0.1-0.3c0.1-0.1,0.2-0.1,0.3-0.1c0.1,0,0.2,0,0.3,0.1c0.1,0.1,0.1,0.2,0.1,0.3s0,0.2-0.1,0.3
						S39.1,105,39,105z"/>
					<path fill="#0072C6" d="M44.5,104.9v0.8h-0.4v-0.8c-0.6,0-1-0.1-1.4-0.3v-0.7c0.2,0.1,0.4,0.2,0.6,0.3s0.5,0.1,0.7,0.1v-2
						c-0.6-0.3-0.9-0.5-1.1-0.8s-0.3-0.5-0.3-0.8c0-0.4,0.1-0.7,0.4-1c0.3-0.3,0.6-0.4,1-0.5v-0.7h0.4v0.7c0.5,0,0.9,0.1,1.1,0.2
						v0.7c-0.3-0.2-0.6-0.3-1.1-0.3v2.1c0.5,0.3,0.9,0.5,1.1,0.7c0.2,0.2,0.3,0.5,0.3,0.8c0,0.4-0.1,0.7-0.4,0.9
						C45.2,104.6,44.9,104.8,44.5,104.9z M44.1,101.6v-1.8c-0.2,0-0.4,0.1-0.5,0.3c-0.1,0.2-0.2,0.3-0.2,0.5c0,0.2,0.1,0.4,0.2,0.6
						S43.8,101.5,44.1,101.6z M44.5,102.5v1.8c0.5-0.1,0.8-0.4,0.8-0.8C45.2,103.1,45,102.8,44.5,102.5z"/>
					<path fill="#0072C6" d="M49.2,104.9h-0.6V100c0,0-0.1,0.1-0.2,0.2c-0.1,0.1-0.2,0.1-0.3,0.2s-0.2,0.1-0.4,0.2s-0.3,0.1-0.4,0.1
						v-0.6c0.1,0,0.3-0.1,0.4-0.2s0.3-0.1,0.5-0.2s0.3-0.2,0.4-0.3s0.3-0.2,0.4-0.3h0.2V104.9z"/>
					<path fill="#0072C6" d="M54.7,102.1c0,0.5,0,0.9-0.1,1.2s-0.2,0.7-0.4,0.9c-0.2,0.2-0.4,0.4-0.6,0.6s-0.5,0.2-0.8,0.2
						c-0.3,0-0.5-0.1-0.8-0.2s-0.4-0.3-0.6-0.5c-0.2-0.2-0.3-0.5-0.3-0.9c-0.1-0.3-0.1-0.7-0.1-1.2c0-0.5,0-0.9,0.1-1.3
						c0.1-0.4,0.2-0.7,0.4-0.9s0.4-0.4,0.6-0.6s0.5-0.2,0.8-0.2C54.1,99.2,54.7,100.1,54.7,102.1z M54,102.1c0-1.6-0.4-2.4-1.1-2.4
						c-0.8,0-1.2,0.8-1.2,2.4c0,1.5,0.4,2.3,1.2,2.3C53.6,104.4,54,103.7,54,102.1z"/>
					<path fill="#0072C6" d="M55.9,105c-0.1,0-0.2,0-0.3-0.1s-0.1-0.2-0.1-0.3s0-0.2,0.1-0.3c0.1-0.1,0.2-0.1,0.3-0.1
						c0.1,0,0.2,0,0.3,0.1c0.1,0.1,0.1,0.2,0.1,0.3s0,0.2-0.1,0.3S56,105,55.9,105z"/>
					<path fill="#0072C6" d="M60.8,102.1c0,0.5,0,0.9-0.1,1.2s-0.2,0.7-0.4,0.9c-0.2,0.2-0.4,0.4-0.6,0.6s-0.5,0.2-0.8,0.2
						c-0.3,0-0.5-0.1-0.8-0.2s-0.4-0.3-0.6-0.5c-0.2-0.2-0.3-0.5-0.3-0.9c-0.1-0.3-0.1-0.7-0.1-1.2c0-0.5,0-0.9,0.1-1.3
						c0.1-0.4,0.2-0.7,0.4-0.9s0.4-0.4,0.6-0.6s0.5-0.2,0.8-0.2C60.2,99.2,60.8,100.1,60.8,102.1z M60.1,102.1
						c0-1.6-0.4-2.4-1.1-2.4c-0.8,0-1.2,0.8-1.2,2.4c0,1.5,0.4,2.3,1.2,2.3C59.7,104.4,60.1,103.7,60.1,102.1z"/>
					<path fill="#0072C6" d="M65.1,102.1c0,0.5,0,0.9-0.1,1.2s-0.2,0.7-0.4,0.9c-0.2,0.2-0.4,0.4-0.6,0.6s-0.5,0.2-0.8,0.2
						c-0.3,0-0.5-0.1-0.8-0.2s-0.4-0.3-0.6-0.5c-0.2-0.2-0.3-0.5-0.3-0.9c-0.1-0.3-0.1-0.7-0.1-1.2c0-0.5,0-0.9,0.1-1.3
						c0.1-0.4,0.2-0.7,0.4-0.9s0.4-0.4,0.6-0.6s0.5-0.2,0.8-0.2C64.5,99.2,65.1,100.1,65.1,102.1z M64.4,102.1
						c0-1.6-0.4-2.4-1.1-2.4c-0.8,0-1.2,0.8-1.2,2.4c0,1.5,0.4,2.3,1.2,2.3C64.1,104.4,64.4,103.7,64.4,102.1z"/>
				</g>
				<line fill="none" stroke="#000000" stroke-width="0.2249" stroke-miterlimit="10" x1="60.6" y1="96.7" x2="20.2" y2="96.7"/>
			</g>
		</g>
		
			<rect x="104.6" y="74" opacity="0" fill="none" stroke="#FFFFFF" stroke-width="0.4263" stroke-linecap="round" stroke-linejoin="round" stroke-miterlimit="10" width="55.8" height="45.2"/>
		
			<rect x="104.6" y="94.9" opacity="0" fill="none" stroke="#FFFFFF" stroke-width="0.4263" stroke-linecap="round" stroke-linejoin="round" stroke-miterlimit="10" width="55.8" height="24.3"/>
		
			<polygon opacity="0" fill="none" stroke="#FFFFFF" stroke-width="0.4263" stroke-linecap="round" stroke-linejoin="round" stroke-miterlimit="10" points="
			117.8,314.2 84.5,314.2 102,183.6 117.8,183.6 		"/>
		
			<polygon opacity="0" fill="none" stroke="#FFFFFF" stroke-width="0.4263" stroke-linecap="round" stroke-linejoin="round" stroke-miterlimit="10" points="
			162.9,314.2 129.7,314.2 147.2,183.6 162.9,183.6 		"/>
		<path d="M102,314.2c-10.7,0-19.6,8.1-20.4,18.8H102h16.2v-18.8H102z"/>
		<g>
			<polygon fill="#F89420" points="94.9,58.1 125.9,106.1 108.7,110.1 81,67.1 			"/>
			<path fill="#F89420" d="M90,81L72.2,53.4c7.5-4.8,17.9-2.9,23,5C100,65.9,97.5,76.2,90,81"/>
		</g>
		<path d="M147.2,314.2c-11.1,0-20,8.1-20.9,18.8h20.9h15.8v-18.8H147.2z"/>
		
			<polygon opacity="0" fill="none" stroke="#FFFFFF" stroke-width="0.4263" stroke-linecap="round" stroke-linejoin="round" stroke-miterlimit="10" points="
			117.3,84.7 111,89 132.7,113.7 114.4,67.2 97.8,74 106.7,84.7 		"/>
		
			<polygon opacity="0" fill="none" stroke="#FFFFFF" stroke-width="0.4263" stroke-linecap="round" stroke-linejoin="round" stroke-miterlimit="10" points="
			102,183.6 162.9,183.6 162.9,207.5 99,207.5 		"/>
		<path fill="#F89420" d="M19.9,129.9c-8.7-2.3-13.8-11.2-11.5-19.8l70,18.8l-2.7,9.9l-4,4.6l-14.7-3.2L19.9,129.9z"/>
		<polygon fill="#1D4483" points="118.7,314.2 90.8,314.2 102,183.6 124.9,183.6 		"/>
		<polygon fill="#1D4483" points="162.9,314.2 134.2,314.2 136.5,183.6 162.9,183.6 		"/>
		<path fill="#002050" d="M162.9,74h-12.4c0,0-30.7,11.5-35.4,0H102c-6.4,0-11.9,2.6-15.8,6.8c-4.3,3.8-26.8,46.1-26.8,46.1l8.9,1.3
			l10.7,4.7l23-25.6v98.1h60.9v-90l-43,40.5l29.6-5l27-54.3C176.5,84.3,175.3,74,162.9,74"/>
		<polygon fill="#1D4483" points="102,183.6 162.9,183.6 162.9,207.5 99.9,207.5 		"/>
		<g>
			<path fill="#F89420" d="M124.2,60.2l5.4-1.9l1.8,4.5l17.4-2.7L147.4,79l-28.6,13.6l8.7-22.7C127.4,67,128.4,61.5,124.2,60.2"/>
			<path fill="#F89420" d="M106.4,39.7c0.3-0.5,6-7.9,6-7.9c1.9-15.9,11.7-23.8,11.7-23.8L144.9,9c15.8,0,16.1,9.5,16.1,25.6
				c0.3,15.9-14.2,32-30.1,32.3h-9c0,0,0.5,0.3-5.5,0.3c-6,0-5.7-6.6-5.7-6.6v-2.5l1.4-0.3l1.1-7.7l-2.5-0.3v-3.8v-1.9h-2.5
				c-1.4,0-2.7-1.4-2.7-2.7C105.6,40.8,105.9,40.2,106.4,39.7"/>
			<path d="M117.9,36.1c-0.3,1.1,0.5,1.9,1.4,2.2c1.1,0,1.9-0.5,1.9-1.4c0.3-1.1-0.3-1.9-1.4-2.2C119,34.5,117.9,35.3,117.9,36.1"/>
			<path fill="#002050" d="M92.2,88.9c0,8.2,6.8,15,15,15h47.5c8.2,0,15-6.8,15-15c0-8.2-6.8-15-15-15h-47.5
				C99.1,73.8,92.2,80.7,92.2,88.9"/>
			<path fill="#FFFFFF" d="M110.8,50h11.5c0,0-0.5,8.2-11.5,8.2C111.3,58.2,110.8,50,110.8,50"/>
			
				<polygon opacity="0" fill="none" stroke="#FFFFFF" stroke-width="0.2732" stroke-linecap="round" stroke-linejoin="round" stroke-miterlimit="10" points="
				138.7,62.9 126.6,62.9 115.7,73.8 143.8,73.8 			"/>
			<path fill="#1D4483" d="M117.3,15.4l0.3,0L117.3,15.4c-0.4-10.9,13.8-18.9,22.4-13.8c2.7,1.6,4.6,2.1,7.7,2.2
				c2.6,0,4.5,0.3,6.8,1.6c1.8,1.1,3.2,4.2,3.4,7.1c7.2,0.8,7,17.9,3.4,28.8c-4.1,12.4-12.3,18.7-12.3,18.7c-10.8-6.9-9.3-26-9.3-26
				c-0.4-0.3-0.7-1.4-1.1-1.8c-3.4-3.3,0.3-6.2-4.4-6.5C128.4,25.4,119,21.6,117.3,15.4"/>
			<path fill="#F89420" d="M138.4,32.4c4.7,0.1,8.4,4,8.3,8.7c-0.1,4.7-4,8.4-8.7,8.3L138.4,32.4"/>
			<path fill="#D17E29" d="M140,44.6c1.4-0.7,2.4-2.1,2.5-3.8c0-2.4-1.8-4.3-4.2-4.4l-0.2,8.5C138.8,45,139.4,44.9,140,44.6"/>
		</g>
		
			<polygon opacity="0" fill="none" stroke="#FFFFFF" stroke-width="0.4263" stroke-linecap="round" stroke-linejoin="round" stroke-miterlimit="10" points="
			51.3,120.9 79,120.9 79,135 64.5,135 59.4,129.5 59.4,135 51.3,135 		"/>
		<polygon fill="#1D4483" points="58.6,119.1 82.4,133.3 75.2,145.4 62.7,137.9 61.2,130.5 58.3,135.3 51.4,131.1 		"/>
	</g>
</g>
<g id="conditional_access">
</g>
</svg>
