<?xml version="1.0" encoding="utf-8"?>
<!-- Generator: Adobe Illustrator 19.2.1, SVG Export Plug-In . SVG Version: 6.00 Build 0)  -->
<svg version="1.1" xmlns="http://www.w3.org/2000/svg" xmlns:xlink="http://www.w3.org/1999/xlink" x="0px" y="0px"
	 viewBox="0 0 113 89" enable-background="new 0 0 113 89" xml:space="preserve">
<g id="desktop_management">
	<g>
		<path fill="#17244E" d="M7.9,12.6c0.3-0.3,1-0.7,1.1-0.3c4.8,14.8,29.3,26.6,43.6,43.1c16.4,19,28.9,28.9,40.8,31.5
			c11.3,2.4,15.9-8.3,17.9-16.4c0.1-0.5,0.9-0.6,1.4-0.2c0.5,0.3,0.4,0.9,0.2,1.4c-1.7,7.5-7.6,19.5-19.4,17.3
			C81.2,86.6,66.8,75.3,51,56.8C37,40.3,12.2,28.1,7.9,13.9c-0.2-0.5-0.2-0.7-0.4-1.1C7.4,12.7,7.8,12.7,7.9,12.6z"/>
		<g>
			<path fill="#17244E" d="M0,3.2l1.5,4.4c0.7,1.9,2.6,2.8,4.5,2.2l2.3-0.8c1.8-0.6,2.8-2.6,2.1-4.5L9,0L0,3.2z"/>
			<polygon fill="#17244E" points="9.4,11.3 6.8,12.3 4.4,7.1 8,5.8 			"/>
			<polygon fill="#17244E" points="9.4,11.3 6.8,12.3 4.4,7.1 8,5.8 			"/>
			<path fill="#17244E" d="M10.2,11.1c0.2,0.5-0.1,1-0.6,1.2l-2.6,0.9C6.6,13.3,6.2,13,6,12.5c-0.1-0.4,0-0.9,0.5-1l2.6-0.9
				C9.5,10.4,10,10.7,10.2,11.1"/>
		</g>
	</g>
</g>
<g id="corporate_mobile">
</g>
<g id="kiosk">
</g>
<g id="conditional_access">
</g>
</svg>
