<?xml version="1.0" encoding="utf-8"?>
<!-- Generator: Adobe Illustrator 19.2.1, SVG Export Plug-In . SVG Version: 6.00 Build 0)  -->
<svg version="1.1" xmlns="http://www.w3.org/2000/svg" xmlns:xlink="http://www.w3.org/1999/xlink" x="0px" y="0px"
	 viewBox="0 0 375 121" enable-background="new 0 0 375 121" xml:space="preserve">
<g id="desktop_management">
	<g>
		<g>
			<g>
				<line fill="none" stroke="#99C9EF" stroke-width="0.75" stroke-miterlimit="10" x1="104.2" y1="60.4" x2="105.2" y2="60.4"/>
				
					<line fill="none" stroke="#99C9EF" stroke-width="0.75" stroke-miterlimit="10" stroke-dasharray="1.9873,1.9873" x1="107.2" y1="60.4" x2="277.1" y2="60.4"/>
				<line fill="none" stroke="#99C9EF" stroke-width="0.75" stroke-miterlimit="10" x1="278.1" y1="60.4" x2="279.1" y2="60.4"/>
			</g>
		</g>
		<g>
			<path fill="#E6E6E6" d="M115,31.5c-2.4-7.9-10.9-13.7-21.1-13.7c-0.1,0-0.1,0-0.2,0v0c0-9.9-9.7-18-21.6-18
				c-8.2,0-15.4,3.8-19,9.5c-2.1-0.6-4.4-1-6.8-1c-11.2,0-20.3,7.6-20.3,16.9c0,0.1,0,0.1,0,0.1c-0.9-0.1-1.8-0.1-2.7-0.1
				c-12.7,0-23,8.6-23,19.2c0,10.6,10.3,19.2,23,19.2l84.3,0l0,0c11,0,19.9-7.4,19.9-16.6C127.6,39.9,122.4,34,115,31.5"/>
			<path fill="#E6E6E6" d="M115,88.8c-2.4,7.9-10.9,13.7-21.1,13.7c-0.1,0-0.1,0-0.2,0v0c0,9.9-9.7,18-21.6,18
				c-8.2,0-15.4-3.8-19-9.5c-2.1,0.6-4.4,1-6.8,1c-11.2,0-20.3-7.6-20.3-16.9c0-0.1,0-0.1,0-0.1c-0.9,0.1-1.8,0.1-2.7,0.1
				c-12.7,0-23-8.6-23-19.2c0-10.6,10.3-19.2,23-19.2l84.3,0l0,0c11,0,19.9,7.4,19.9,16.6C127.6,80.4,122.4,86.3,115,88.8"/>
			<path fill="#E6E6E6" d="M66.7,31.5c2.4-7.9,10.9-13.7,21.1-13.7c0.1,0,0.1,0,0.2,0v0c0-9.9,9.7-18,21.6-18c8.2,0,15.4,3.8,19,9.5
				c2.1-0.6,4.4-1,6.8-1c11.2,0,20.3,7.6,20.3,16.9c0,0.1,0,0.1,0,0.1c0.9-0.1,1.8-0.1,2.7-0.1c12.7,0,23,8.6,23,19.2
				c0,10.6-10.3,19.2-23,19.2l-84.3,0l0,0c-11,0-19.9-7.4-19.9-16.6C54.2,39.9,59.4,34,66.7,31.5"/>
			<path fill="#E6E6E6" d="M66.7,88.8c2.4,7.9,10.9,13.7,21.1,13.7c0.1,0,0.1,0,0.2,0v0c0,9.9,9.7,18,21.6,18c8.2,0,15.4-3.8,19-9.5
				c2.1,0.6,4.4,1,6.8,1c11.2,0,20.3-7.6,20.3-16.9c0-0.1,0-0.1,0-0.1c0.9,0.1,1.8,0.1,2.7,0.1c12.7,0,23-8.6,23-19.2
				c0-10.6-10.3-19.2-23-19.2l-84.3,0l0,0c-11,0-19.9,7.4-19.9,16.6C54.2,80.4,59.4,86.3,66.7,88.8"/>
		</g>
		<g>
			<path fill="#E6E6E6" d="M308.3,32.2c-2.4-7.9-10.9-13.7-21.1-13.7c-0.1,0-0.1,0-0.2,0v0c0-9.9-9.7-18-21.6-18
				c-8.2,0-15.4,3.8-19,9.5c-2.1-0.6-4.4-1-6.8-1c-11.2,0-20.3,7.6-20.3,16.9c0,0.1,0,0.1,0,0.1c-0.9-0.1-1.8-0.1-2.7-0.1
				c-12.7,0-23,8.6-23,19.2c0,10.6,10.3,19.2,23,19.2l84.3,0l0,0c11,0,19.9-7.4,19.9-16.6C320.8,40.6,315.6,34.7,308.3,32.2"/>
			<path fill="#E6E6E6" d="M308.3,89.5c-2.4,7.9-10.9,13.7-21.1,13.7c-0.1,0-0.1,0-0.2,0v0c0,9.9-9.7,18-21.6,18
				c-8.2,0-15.4-3.8-19-9.5c-2.1,0.6-4.4,1-6.8,1c-11.2,0-20.3-7.6-20.3-16.9c0-0.1,0-0.1,0-0.1c-0.9,0.1-1.8,0.1-2.7,0.1
				c-12.7,0-23-8.6-23-19.2c0-10.6,10.3-19.2,23-19.2l84.3,0l0,0c11,0,19.9,7.4,19.9,16.6C320.8,81.1,315.6,87,308.3,89.5"/>
			<path fill="#E6E6E6" d="M260,32.2c2.4-7.9,10.9-13.7,21.1-13.7c0.1,0,0.1,0,0.2,0v0c0-9.9,9.7-18,21.6-18c8.2,0,15.4,3.8,19,9.5
				c2.1-0.6,4.4-1,6.8-1c11.2,0,20.3,7.6,20.3,16.9c0,0.1,0,0.1,0,0.1c0.9-0.1,1.8-0.1,2.7-0.1c12.7,0,23,8.6,23,19.2
				c0,10.6-10.3,19.2-23,19.2l-84.3,0l0,0c-11,0-19.9-7.4-19.9-16.6C247.4,40.6,252.6,34.7,260,32.2"/>
			<path fill="#E6E6E6" d="M260,89.5c2.4,7.9,10.9,13.7,21.1,13.7c0.1,0,0.1,0,0.2,0v0c0,9.9,9.7,18,21.6,18c8.2,0,15.4-3.8,19-9.5
				c2.1,0.6,4.4,1,6.8,1c11.2,0,20.3-7.6,20.3-16.9c0-0.1,0-0.1,0-0.1c0.9,0.1,1.8,0.1,2.7,0.1c12.7,0,23-8.6,23-19.2
				c0-10.6-10.3-19.2-23-19.2l-84.3,0l0,0c-11,0-19.9,7.4-19.9,16.6C247.4,81.1,252.6,87,260,89.5"/>
		</g>
		<path fill="#04AF91" d="M90.7,16.5c17.6,0,31.9,14.3,31.9,31.9s-14.3,31.9-31.9,31.9S58.8,66.1,58.8,48.5S73,16.5,90.7,16.5z
			 M90.7,20.6c-15.4,0-27.8,12.5-27.8,27.8s12.5,27.8,27.8,27.8s27.8-12.5,27.8-27.8S106,20.6,90.7,20.6z"/>
		<path fill="#04AF91" d="M78.4,44.4l9.5,9.5l14.9-19L107,39L88,62L74.4,48.5L78.4,44.4z"/>
		<g>
			<path fill="#515150" d="M32.3,50.4c1-1,2.3-1.6,3.7-1.6c1.9,0,3.6,1.1,4.6,2.7c0.8-0.4,1.7-0.5,2.6-0.5c3.5,0,6.4,2.9,6.4,6.4
				c0,3.5-2.8,6.4-6.4,6.4c-0.4,0-0.8,0-1.3-0.1c-0.8,1.4-2.3,2.4-4.1,2.4c-0.7,0-1.4-0.2-2-0.5c-0.8,1.9-2.7,3.2-4.9,3.2
				c-2.3,0-4.2-1.4-5-3.5c-0.3,0.1-0.7,0.1-1,0.1c-2.7,0-4.9-2.2-4.9-5c0-1.8,1-3.4,2.5-4.3c-0.3-0.7-0.5-1.5-0.5-2.3
				c0-3.2,2.6-5.7,5.7-5.7C29.6,48.1,31.3,49,32.3,50.4"/>
			<path fill="#FFFFFF" d="M24.3,58.8C24.3,58.9,24.3,58.9,24.3,58.8c0.1,0.1,0.1,0.1,0.2,0.2c0.3,0.2,0.6,0.2,0.9,0.2
				c0.6,0,1-0.3,1-0.8v0c0-0.5-0.4-0.7-0.8-0.8l-0.1,0c-0.3-0.1-0.6-0.2-0.6-0.4v0c0-0.2,0.2-0.3,0.4-0.3c0.3,0,0.6,0.1,0.8,0.2
				c0,0,0.1,0,0.1,0c0,0,0.1-0.3,0.1-0.3c0,0,0-0.1,0-0.1c-0.2-0.1-0.5-0.2-0.9-0.2l-0.1,0c-0.6,0-0.9,0.3-0.9,0.8v0
				c0,0.5,0.4,0.7,0.8,0.8l0.1,0c0.3,0.1,0.5,0.2,0.5,0.4v0c0,0.2-0.2,0.3-0.4,0.3c-0.1,0-0.4,0-0.8-0.2c0,0-0.1,0-0.1-0.1
				c0,0-0.1,0-0.1,0L24.3,58.8z"/>
			<path fill="#FFFFFF" d="M33.2,58.8C33.1,58.9,33.2,58.9,33.2,58.8c0.1,0.1,0.1,0.1,0.2,0.2c0.3,0.2,0.6,0.2,0.9,0.2
				c0.6,0,1-0.3,1-0.8v0c0-0.5-0.4-0.7-0.8-0.8l-0.1,0c-0.3-0.1-0.6-0.2-0.6-0.4v0c0-0.2,0.2-0.3,0.4-0.3c0.3,0,0.6,0.1,0.8,0.2
				c0,0,0.1,0,0.1,0c0,0,0.1-0.3,0.1-0.3c0,0,0-0.1,0-0.1c-0.2-0.1-0.5-0.2-0.9-0.2l-0.1,0c-0.6,0-0.9,0.3-0.9,0.8v0
				c0,0.5,0.4,0.7,0.8,0.8l0.1,0c0.3,0.1,0.5,0.2,0.5,0.4v0c0,0.2-0.2,0.3-0.4,0.3c-0.1,0-0.4,0-0.8-0.2c0,0-0.1,0-0.1-0.1
				c0,0-0.1,0-0.1,0L33.2,58.8z"/>
			<path fill="#FFFFFF" d="M39.7,57.3c0-0.2-0.1-0.3-0.2-0.4c-0.1-0.1-0.2-0.2-0.4-0.3c-0.2-0.1-0.3-0.1-0.5-0.1
				c-0.2,0-0.4,0-0.5,0.1c-0.2,0.1-0.3,0.2-0.4,0.3c-0.1,0.1-0.2,0.3-0.2,0.4c0,0.2-0.1,0.3-0.1,0.5c0,0.2,0,0.4,0.1,0.5
				c0,0.2,0.1,0.3,0.2,0.4c0.1,0.1,0.2,0.2,0.4,0.3s0.3,0.1,0.5,0.1c0.2,0,0.4,0,0.5-0.1c0.2-0.1,0.3-0.2,0.4-0.3
				c0.1-0.1,0.2-0.3,0.2-0.4c0-0.2,0.1-0.3,0.1-0.5C39.8,57.6,39.8,57.4,39.7,57.3 M39.2,57.8c0,0.3-0.1,0.5-0.2,0.7
				c-0.1,0.2-0.3,0.2-0.5,0.2c-0.2,0-0.4-0.1-0.5-0.2c-0.1-0.2-0.2-0.4-0.2-0.7c0-0.3,0.1-0.5,0.2-0.7c0.1-0.2,0.3-0.2,0.5-0.2
				c0.2,0,0.4,0.1,0.5,0.2C39.2,57.3,39.2,57.5,39.2,57.8"/>
			<path fill-rule="evenodd" clip-rule="evenodd" fill="#FFFFFF" d="M43.9,58.7C43.8,58.6,43.8,58.6,43.9,58.7c-0.1,0-0.2,0-0.3,0
				c-0.1,0-0.2,0-0.3,0c-0.2,0-0.4-0.1-0.6-0.2c-0.1-0.1-0.2-0.4-0.2-0.7c0-0.3,0.1-0.5,0.2-0.7c0.1-0.2,0.3-0.2,0.6-0.2
				c0.2,0,0.4,0,0.5,0.1c0,0,0,0,0.1,0c0-0.1,0.1-0.2,0.1-0.3c0,0,0-0.1,0-0.1c-0.1,0-0.2-0.1-0.3-0.1c-0.1,0-0.2,0-0.4,0
				c-0.2,0-0.4,0-0.6,0.1c-0.2,0.1-0.3,0.2-0.4,0.3c-0.1,0.1-0.2,0.3-0.2,0.4c-0.1,0.2-0.1,0.3-0.1,0.5c0,0.4,0.1,0.8,0.3,1
				c0.2,0.2,0.6,0.4,1,0.4c0.3,0,0.5-0.1,0.7-0.1c0,0,0,0,0-0.1L43.9,58.7z"/>
			<path fill-rule="evenodd" clip-rule="evenodd" fill="#FFFFFF" d="M46.4,57.2c0-0.2-0.1-0.3-0.2-0.4c-0.1-0.1-0.2-0.2-0.3-0.2
				c-0.1-0.1-0.3-0.1-0.5-0.1c-0.2,0-0.4,0-0.6,0.1c-0.2,0.1-0.3,0.2-0.4,0.3c-0.1,0.1-0.2,0.3-0.2,0.4c0,0.2-0.1,0.4-0.1,0.5
				c0,0.2,0,0.4,0.1,0.5c0.1,0.2,0.1,0.3,0.2,0.4c0.1,0.1,0.3,0.2,0.4,0.3c0.2,0.1,0.4,0.1,0.6,0.1c0.5,0,0.8-0.1,0.9-0.2
				c0,0,0,0,0-0.1l-0.1-0.3c0,0-0.1,0-0.1,0c-0.1,0-0.3,0.1-0.7,0.1c-0.3,0-0.5-0.1-0.6-0.2c-0.1-0.1-0.2-0.3-0.2-0.6l1.7,0
				c0,0,0,0,0,0C46.5,57.9,46.6,57.6,46.4,57.2 M44.7,57.5c0-0.2,0.1-0.3,0.1-0.4c0.1-0.2,0.3-0.2,0.5-0.2c0.2,0,0.4,0.1,0.5,0.2
				c0.1,0.1,0.1,0.2,0.1,0.4L44.7,57.5z"/>
			<path fill-rule="evenodd" clip-rule="evenodd" fill="#FFFFFF" d="M32.8,57.2c0-0.2-0.1-0.3-0.2-0.4c-0.1-0.1-0.2-0.2-0.3-0.2
				c-0.1-0.1-0.3-0.1-0.5-0.1c-0.2,0-0.4,0-0.6,0.1c-0.2,0.1-0.3,0.2-0.4,0.3c-0.1,0.1-0.2,0.3-0.2,0.4c0,0.2-0.1,0.4-0.1,0.5
				c0,0.2,0,0.4,0.1,0.5c0.1,0.2,0.1,0.3,0.2,0.4c0.1,0.1,0.3,0.2,0.4,0.3c0.2,0.1,0.4,0.1,0.6,0.1c0.5,0,0.8-0.1,0.9-0.2
				c0,0,0,0,0-0.1l-0.1-0.3c0,0-0.1,0-0.1,0c-0.1,0-0.3,0.1-0.7,0.1c-0.3,0-0.5-0.1-0.6-0.2c-0.1-0.1-0.2-0.3-0.2-0.6l1.7,0
				c0,0,0,0,0,0C32.8,57.9,32.9,57.6,32.8,57.2 M31.1,57.5c0-0.2,0.1-0.3,0.1-0.4c0.1-0.2,0.3-0.2,0.5-0.2c0.2,0,0.4,0.1,0.5,0.2
				c0.1,0.1,0.1,0.2,0.1,0.4L31.1,57.5z"/>
			<path fill="#FFFFFF" d="M28,57.5c-0.1,0-0.2,0-0.3,0c-0.1,0-0.3,0-0.4,0.1c-0.1,0-0.3,0.1-0.4,0.2c-0.1,0.1-0.2,0.2-0.2,0.3
				s-0.1,0.2-0.1,0.4c0,0.2,0,0.3,0.1,0.4c0.1,0.1,0.1,0.2,0.2,0.3c0.1,0.1,0.2,0.1,0.3,0.2c0.1,0,0.3,0,0.5,0c0.2,0,0.3,0,0.5,0
				c0.2,0,0.4-0.1,0.4-0.1c0.1,0,0.1,0,0.1,0c0,0,0-0.1,0-0.1l0-1.6c0-0.3-0.1-0.6-0.3-0.8c-0.2-0.2-0.4-0.2-0.8-0.2
				c-0.1,0-0.3,0-0.5,0c0,0-0.4,0.1-0.5,0.2c0,0,0,0,0,0.1l0.1,0.3c0,0,0.1,0,0.1,0s0,0,0,0c0.3-0.2,0.7-0.2,0.7-0.2
				c0.2,0,0.3,0,0.4,0.1c0.1,0.1,0.1,0.2,0.1,0.4v0.1C28.2,57.5,28,57.5,28,57.5 M27.4,58.7c-0.1-0.1-0.1-0.1-0.1-0.1
				c0-0.1-0.1-0.1-0.1-0.2c0-0.1,0-0.3,0.2-0.3c0,0,0.1-0.1,0.5-0.1c0.2,0,0.5,0,0.5,0v0.8c0,0-0.2,0-0.5,0.1
				C27.5,58.8,27.4,58.7,27.4,58.7"/>
			<path fill-rule="evenodd" clip-rule="evenodd" fill="#FFFFFF" d="M41.8,56.6C41.8,56.5,41.8,56.5,41.8,56.6
				c-0.1-0.1-0.2-0.1-0.3-0.1c-0.2,0-0.3,0-0.4,0.1c-0.1,0-0.2,0.1-0.3,0.2l0-0.2c0,0,0-0.1,0-0.1h-0.4c0,0,0,0,0,0.1v2.6
				c0,0,0,0.1,0.1,0.1h0.4c0,0,0.1,0,0.1-0.1v-1.3c0-0.2,0-0.3,0.1-0.4c0-0.1,0.1-0.2,0.1-0.3c0.1-0.1,0.1-0.1,0.2-0.1
				c0.1,0,0.2,0,0.2,0c0.1,0,0.2,0,0.2,0c0,0,0.1,0,0.1,0C41.7,56.9,41.8,56.6,41.8,56.6"/>
			<path fill-rule="evenodd" clip-rule="evenodd" fill="#FFFFFF" d="M37.6,55.4c-0.1,0-0.1,0-0.2,0c-0.1,0-0.1,0-0.2,0
				c-0.3,0-0.6,0.1-0.7,0.3c-0.2,0.2-0.3,0.4-0.3,0.8l0,0.1h-0.4c0,0,0,0-0.1,0l-0.1,0.4c0,0,0,0.1,0.1,0.1H36l-0.4,2.1
				c0,0.2-0.1,0.3-0.1,0.4c0,0.1-0.1,0.2-0.1,0.2c0,0.1-0.1,0.1-0.2,0.1c-0.1,0-0.1,0-0.2,0c0,0-0.1,0-0.1,0c0,0-0.1,0-0.1,0
				c0,0,0,0-0.1,0c0,0-0.1,0.3-0.1,0.3c0,0,0,0.1,0,0.1c0.1,0,0.1,0,0.2,0c0.1,0,0.2,0,0.3,0c0.2,0,0.3,0,0.4-0.1
				c0.1,0,0.2-0.1,0.3-0.2c0.1-0.1,0.2-0.2,0.2-0.4c0.1-0.2,0.1-0.3,0.2-0.6l0.4-2.2h0.6c0,0,0,0,0.1,0l0.1-0.4c0,0,0-0.1-0.1-0.1
				h-0.5c0,0,0-0.2,0.1-0.4c0-0.1,0.1-0.1,0.1-0.2c0,0,0.1-0.1,0.1-0.1c0.1,0,0.1,0,0.2,0c0.1,0,0.1,0,0.1,0c0.1,0,0.1,0,0.1,0
				c0.1,0,0.1,0,0.1,0L37.6,55.4C37.7,55.4,37.6,55.4,37.6,55.4"/>
			<path fill-rule="evenodd" clip-rule="evenodd" fill="#FFFFFF" d="M30,59.1C30,59.1,30,59.1,30,59.1l-0.5,0.1c0,0,0,0,0-0.1v-3.6
				c0,0,0-0.1,0-0.1l0.5,0c0,0,0,0,0,0.1V59.1z"/>
		</g>
		<path fill="#4F504F" d="M152.6,52.5c-0.7,0.3-1.4,0.5-2.2,0.6c0.8-0.5,1.4-1.2,1.7-2.1c-0.7,0.4-1.6,0.8-2.4,0.9
			c-0.7-0.7-1.7-1.2-2.8-1.2c-2.1,0-3.9,1.7-3.9,3.9c0,0.3,0,0.6,0.1,0.9c-3.2-0.2-6-1.7-7.9-4c-0.3,0.6-0.5,1.2-0.5,1.9
			c0,1.3,0.7,2.5,1.7,3.2c-0.6,0-1.2-0.2-1.7-0.5c0,0,0,0,0,0c0,1.9,1.3,3.4,3.1,3.8c-0.3,0.1-0.7,0.1-1,0.1c-0.2,0-0.5,0-0.7-0.1
			c0.5,1.5,1.9,2.6,3.6,2.7c-1.3,1-3,1.6-4.8,1.6c-0.3,0-0.6,0-0.9-0.1c1.7,1.1,3.7,1.7,5.9,1.7c7.1,0,11-5.9,11-11
			c0-0.2,0-0.3,0-0.5C151.4,54,152.1,53.3,152.6,52.5z"/>
		<g id="fb_3_">
			<g>
				<g>
					<path fill="#4F504F" d="M92.7,89.6l-2.6,0c-0.3,0-0.7,0.4-0.7,1l0,1.7h3.3l0,3.2h-3.2l0,7.9h-3.3l0-7.9h-2.6l0-3.2l2.6,0v-1.6
						c0-2.4,1.7-4.2,3.9-4.2l2.6,0L92.7,89.6z"/>
				</g>
			</g>
		</g>
		<g>
			<g>
				<path fill="#4F504F" d="M149.9,89c0.1,0,0.2-0.1,0.2-0.2c0-0.1-0.1-0.2-0.2-0.2h-0.2v0.6h0.1V89L149.9,89L149.9,89l0.1,0.3h0.1
					L149.9,89L149.9,89z M149.8,88.9h-0.1v-0.2h0.1c0.1,0,0.1,0,0.1,0.1C149.9,88.9,149.9,88.9,149.8,88.9z"/>
				<path fill="#4F504F" d="M149.8,88.4c-0.3,0-0.6,0.3-0.6,0.6c0,0.3,0.3,0.6,0.6,0.6c0.3,0,0.6-0.3,0.6-0.6
					C150.4,88.6,150.1,88.4,149.8,88.4z M149.8,89.5c-0.3,0-0.5-0.2-0.5-0.5c0-0.3,0.2-0.5,0.5-0.5c0.3,0,0.5,0.2,0.5,0.5
					C150.3,89.2,150,89.5,149.8,89.5z"/>
			</g>
			<g>
				<g>
					<polygon fill="#4F504F" points="113.3,83 114.6,83 114.6,88.1 117.2,88.1 117.2,89.4 113.3,89.4 					"/>
					<g>
						<path fill="#4F504F" d="M117.8,85.1h1.3v4.3h-1.3V85.1z M118.5,83c0.4,0,0.8,0.3,0.8,0.8c0,0.4-0.3,0.8-0.8,0.8
							c-0.4,0-0.8-0.3-0.8-0.8C117.7,83.3,118.1,83,118.5,83"/>
					</g>
					<polygon fill="#4F504F" points="124.7,83 126.1,83 126.1,86.8 127.6,85.1 129.2,85.1 127.5,87.1 129.2,89.4 127.5,89.4 
						126.1,87.3 126.1,87.3 126.1,89.4 124.7,89.4 					"/>
					<path fill="#4F504F" d="M119.9,85.1h1.3v0.6h0c0.2-0.3,0.6-0.7,1.3-0.7c1.4,0,1.6,0.9,1.6,2v2.4h-1.3v-2.1c0-0.5,0-1.1-0.7-1.1
						c-0.7,0-0.8,0.5-0.8,1.1v2.1h-1.3V85.1z"/>
					<path fill="#4F504F" d="M132,86.7c0-0.4-0.3-0.8-0.8-0.8c-0.6,0-0.9,0.4-0.9,0.8H132z M133.2,88.6c-0.4,0.5-1.1,0.9-1.8,0.9
						c-1.3,0-2.4-0.9-2.4-2.3c0-1.4,1.1-2.3,2.4-2.3c1.2,0,2,0.9,2,2.3v0.4h-3.1c0.1,0.5,0.5,0.8,1,0.8c0.4,0,0.7-0.2,1-0.5
						L133.2,88.6z"/>
					<path fill="#4F504F" d="M136.2,86.1c-0.7,0-1.1,0.4-1.1,1.1c0,0.7,0.4,1.1,1.1,1.1c0.7,0,1.1-0.4,1.1-1.1
						C137.2,86.6,136.8,86.1,136.2,86.1 M138.4,89.4h-1.2v-0.6h0c-0.2,0.3-0.7,0.7-1.3,0.7c-1.3,0-2.1-0.9-2.1-2.2
						c0-1.2,0.7-2.3,2-2.3c0.6,0,1.1,0.2,1.4,0.6h0V83h1.3V89.4z"/>
				</g>
				<path fill="#4F504F" d="M148.1,81.7h-7.7c-0.4,0-0.7,0.3-0.7,0.6v7.7c0,0.4,0.3,0.6,0.7,0.6h7.7c0.4,0,0.7-0.3,0.7-0.6v-7.7
					C148.8,82,148.5,81.7,148.1,81.7z M142.5,89.4h-1.3v-4.3h1.3V89.4z M141.8,84.5c-0.4,0-0.8-0.3-0.8-0.8c0-0.4,0.3-0.8,0.8-0.8
					c0.4,0,0.8,0.3,0.8,0.8C142.6,84.2,142.2,84.5,141.8,84.5z M147.5,89.4h-1.3v-2.1c0-0.5,0-1.1-0.7-1.1c-0.7,0-0.8,0.5-0.8,1.1
					v2.1h-1.3v-4.3h1.3v0.6h0c0.2-0.3,0.6-0.7,1.3-0.7c1.4,0,1.6,0.9,1.6,2V89.4z"/>
			</g>
		</g>
		<g id="outlook_3_">
			<path fill="#515150" d="M63,81.1c0-0.5-0.6-0.7-1-0.6c-2.2,0-4.3,0-6.4,0c0-1.4,0-2.8,0-4.1V76c-3.2,0.6-7.6,1.3-10.8,1.9
				c0,4.8,0,9.7,0,14.5c3.2,0.5,7.6,1.3,10.8,1.8v-0.2c0-1.3,0-2.6,0-3.9c2.3,0,4.6,0,6.8,0c0.6,0,0.6-0.7,0.6-1.2
				C63,86.3,63.1,83.7,63,81.1z M51.5,88c-1.2,1.1-3.3,0.5-3.9-1.1c-0.7-1.7-0.4-4.4,1.6-5.1c1.2-0.4,2.5,0.2,3,1.3
				C53,84.7,52.8,86.8,51.5,88z M62.4,89.6c-2.3,0-4.6,0-6.8,0c0-1.8,0-3.6,0-5.4c0.8,0.7,1.5,1.5,2.3,2.1c0.4,0.1,0.6-0.2,0.8-0.4
				c1.2-1.2,2.5-2.4,3.8-3.5C62.4,84.7,62.4,87.1,62.4,89.6z M62.1,81.8c-1.4,1.3-2.7,2.6-4.1,3.9c-0.8-0.7-1.6-1.5-2.4-2.3
				c0-0.7,0-1.5,0-2.3c2.3,0,4.6,0,6.9,0C62.4,81.3,62.3,81.6,62.1,81.8z"/>
			<path fill="#515150" d="M49.4,83.1c0.6-0.3,1.2,0,1.5,0.5c0.4,0.8,0.4,1.8,0.1,2.7c-0.2,0.6-0.9,1.1-1.5,0.9
				c-0.8-0.2-1.1-1.2-1.1-2C48.5,84.4,48.7,83.4,49.4,83.1z"/>
		</g>
		<g>
			<path fill="#4F504F" d="M331.8,67.1c1.1,0,1.9,0.9,1.9,1.9c0,1.1-0.9,1.9-1.9,1.9l-0.5-0.1l-1.8,2.3c1.2,0.9,2.3,2.1,3.1,3.6
				c-2.1,0.7-4.7,1.1-7.4,1.1c-2.7,0-5.3-0.4-7.4-1.1c0.8-1.5,1.8-2.7,3-3.6L319,71c-0.1,0-0.2,0-0.3,0c-1.1,0-1.9-0.9-1.9-1.9
				c0-1.1,0.9-1.9,1.9-1.9s1.9,0.9,1.9,1.9c0,0.4-0.1,0.7-0.3,1l1.9,2.4c1-0.5,2-0.7,3.1-0.7c1,0,2,0.2,2.9,0.7l1.9-2.4
				c-0.1-0.3-0.2-0.6-0.2-0.9C329.9,68,330.8,67.1,331.8,67.1z M338,83.3c0.6,0,1.2,0.5,1.2,1.2s-0.5,1.2-1.2,1.2h-3.5
				c-0.1,0.8-0.2,1.6-0.3,2.4l4.1,1.9c0.6,0.3,0.8,1,0.6,1.5c-0.3,0.6-1,0.8-1.5,0.6l-3.8-1.7c-1.4,3.8-4.2,6.5-7.4,6.8V79.4
				c2.7-0.1,5.2-0.5,7.3-1.3l0.2,0.4l3.9-1.5c0.6-0.2,1.3,0.1,1.5,0.7c0.2,0.6-0.1,1.3-0.7,1.5l-4.1,1.6c0.2,0.8,0.3,1.7,0.4,2.6
				H338z M312.6,83.3h3.5c0.1-0.9,0.2-1.7,0.4-2.6l-4.1-1.6c-0.6-0.2-0.9-0.9-0.7-1.5c0.2-0.6,0.9-0.9,1.5-0.7l3.9,1.5l0.2-0.4
				c2,0.7,4.5,1.2,7.3,1.3v17.7c-3.2-0.4-6-3-7.4-6.8l-3.8,1.7c-0.6,0.3-1.3,0-1.5-0.6c-0.3-0.6,0-1.3,0.6-1.5l4.1-1.9
				c-0.2-0.8-0.3-1.6-0.3-2.4h-3.5c-0.6,0-1.2-0.5-1.2-1.2C311.4,83.8,311.9,83.3,312.6,83.3z"/>
			<g>
				<path fill="#4F504F" d="M325.3,59c12.8,0,23.1,10.3,23.1,23.1s-10.3,23.1-23.1,23.1c-12.8,0-23.1-10.3-23.1-23.1
					S312.5,59,325.3,59z M325.3,62c-11.1,0-20.2,9-20.2,20.2s9,20.2,20.2,20.2c11.1,0,20.2-9,20.2-20.2S336.4,62,325.3,62z"/>
				
					<rect x="302.2" y="80.7" transform="matrix(0.7071 -0.7071 0.7071 0.7071 37.1919 254.056)" fill="#4F504F" width="46.2" height="2.9"/>
			</g>
		</g>
		<path fill="#FFFFFF" d="M223.9,63.9c-4.4,14.1,2.2,30.5,16,37.7c13.8-7.2,20.7-23.6,16.3-37.7c-2.5,1.3-5,1.9-7.2,1.9
			c-4.1,0-6.9-2.2-8.8-3.8c0-0.3,0-0.3-0.3-0.3V62c-1.9,1.6-4.7,3.8-8.8,3.8C228.9,65.8,226.4,65.2,223.9,63.9"/>
		<path fill="#4F504F" d="M223.9,63.9c-4.4,14.1,2.2,30.5,16,37.7c13.8-7.2,20.7-23.6,16.3-37.7c-2.5,1.3-5,1.9-7.2,1.9
			c-4.1,0-6.9-2.2-8.8-3.8c0-0.3,0-0.3-0.3-0.3V62c-1.9,1.6-4.7,3.8-8.8,3.8C228.9,65.8,226.4,65.2,223.9,63.9 M239.9,104.2
			l-0.3-0.3C224.2,96,216.7,77.8,222.3,62c0-0.3,0.3-0.6,0.6-0.6c0.3-0.3,0.6-0.3,0.9,0c2.5,1.6,5,2.2,7.2,2.2
			c3.5,0,5.6-1.9,7.2-3.5c0.3-0.3,0.6-0.3,0.9-0.6c0.6-0.3,0.9-0.3,1.6,0c0,0.3,0.6,0.3,0.9,0.6c1.6,1.6,3.8,3.5,7.2,3.5
			c2.2,0,4.7-0.6,7.2-2.2c0.3-0.3,0.6-0.3,0.9,0c0.3,0,0.6,0.3,0.6,0.6c5.6,15.7-1.9,33.9-17.3,41.8
			C240.5,103.8,240.2,104.2,239.9,104.2"/>
		<path fill="#4F504F" d="M222.6,81.5c-1.9-6.3-1.6-12.9,0.6-19.2c9.7,5.7,14.4-0.3,16.6-2.2v21.4"/>
		<path fill="#4F504F" d="M239.9,81.5v21.4c8.8-4.4,15.1-12.3,17.6-21.4"/>
		<g>
			<rect x="271.6" y="31.9" fill="#0060AC" width="5.1" height="24.5"/>
			<polygon fill="#0060AC" points="299.7,36 292.6,36 292.6,56.4 287.5,56.4 287.5,36 280.3,36 280.3,31.9 299.7,31.9 			"/>
			<path fill="#0060AC" d="M307.9,57.4l-23.5,13.8l-24-13.8V30.3l23.5-13.8l24,13.8V57.4z M283.9,12l-27.6,15.8V60l28.1,15.8L312,60
				V27.8L283.9,12z"/>
		</g>
	</g>
</g>
<g id="corporate_mobile">
</g>
<g id="kiosk">
</g>
<g id="conditional_access">
</g>
</svg>
