<?xml version="1.0" encoding="utf-8"?>
<!-- Generator: Adobe Illustrator 19.2.1, SVG Export Plug-In . SVG Version: 6.00 Build 0)  -->
<svg version="1.1" xmlns="http://www.w3.org/2000/svg" xmlns:xlink="http://www.w3.org/1999/xlink" x="0px" y="0px"
	 viewBox="0 0 116 124" enable-background="new 0 0 116 124" xml:space="preserve">
<g id="desktop_management">
</g>
<g id="corporate_mobile">
	<g>
		<g>
			
				<ellipse transform="matrix(0.2443 -0.9697 0.9697 0.2443 -52.8726 130.3851)" fill="#E6E6E6" cx="57.2" cy="99.1" rx="7.5" ry="7.5"/>
			
				<ellipse transform="matrix(0.2443 -0.9697 0.9697 0.2443 -78.7972 124.646)" fill="#E6E6E6" cx="40.6" cy="112.9" rx="5.3" ry="5.3"/>
			
				<ellipse transform="matrix(0.2443 -0.9697 0.9697 0.2443 -96.0268 115.663)" fill="#E6E6E6" cx="26.2" cy="119.4" rx="3.7" ry="3.7"/>
		</g>
		<g>
			<path fill="#E6E6E6" d="M42.6,24c1.5-5.8,6.9-10,13.4-10c0,0,0.1,0,0.1,0v0c0-7.2,6.2-13.1,13.8-13.1c5.2,0,9.8,2.8,12.1,6.9
				c1.4-0.5,2.8-0.7,4.3-0.7c7.1,0,12.9,5.5,12.9,12.3c0,0,0,0.1,0,0.1c0.6-0.1,1.2-0.1,1.8-0.1c8.1,0,14.7,6.3,14.7,14
				c0,7.7-6.6,14-14.7,14l-53.7,0l0,0c-7,0-12.7-5.4-12.7-12.1C34.6,30.2,37.9,25.8,42.6,24"/>
			<path fill="#E6E6E6" d="M42.6,65.8c1.5,5.8,6.9,10,13.4,10c0,0,0.1,0,0.1,0v0c0,7.2,6.2,13.1,13.8,13.1c5.2,0,9.8-2.8,12.1-6.9
				c1.4,0.5,2.8,0.7,4.3,0.7c7.1,0,12.9-5.5,12.9-12.3c0,0,0-0.1,0-0.1c0.6,0.1,1.2,0.1,1.8,0.1c8.1,0,14.7-6.3,14.7-14
				c0-7.7-6.6-14-14.7-14l-53.7,0l0,0c-7,0-12.7,5.4-12.7,12.1C34.6,59.7,37.9,64,42.6,65.8"/>
			<path fill="#E6E6E6" d="M73.4,24c-1.5-5.8-6.9-10-13.4-10c0,0-0.1,0-0.1,0v0c0-7.2-6.2-13.1-13.8-13.1c-5.2,0-9.8,2.8-12.1,6.9
				c-1.4-0.5-2.8-0.7-4.3-0.7c-7.1,0-12.9,5.5-12.9,12.3c0,0,0,0.1,0,0.1c-0.6-0.1-1.2-0.1-1.8-0.1c-8.1,0-14.7,6.3-14.7,14
				c0,7.7,6.6,14,14.7,14l53.7,0l0,0c7,0,12.7-5.4,12.7-12.1C81.4,30.2,78.1,25.8,73.4,24"/>
			<path fill="#E6E6E6" d="M73.4,65.8c-1.5,5.8-6.9,10-13.4,10c0,0-0.1,0-0.1,0v0c0,7.2-6.2,13.1-13.8,13.1c-5.2,0-9.8-2.8-12.1-6.9
				c-1.4,0.5-2.8,0.7-4.3,0.7c-7.1,0-12.9-5.5-12.9-12.3c0,0,0-0.1,0-0.1c-0.6,0.1-1.2,0.1-1.8,0.1c-8.1,0-14.7-6.3-14.7-14
				c0-7.7,6.6-14,14.7-14l53.7,0l0,0c7,0,12.7,5.4,12.7,12.1C81.4,59.7,78.1,64,73.4,65.8"/>
		</g>
		<rect x="41.8" y="14.8" width="31.4" height="58.7"/>
		<rect x="44.9" y="23.4" fill="#04AF91" width="25.1" height="42.4"/>
		<path fill="#333333" d="M65.4,19.5c0,0.3-0.3,0.3-0.5,0.3H50.2c-0.3,0-0.5,0-0.5-0.3c0-0.3,0.3-0.5,0.5-0.5h14.7
			C65.1,19,65.4,19.2,65.4,19.5"/>
		<g>
			<path fill="#333333" d="M47.8,69.5c0,0.5-0.5,0.8-0.8,0.8h-1.3c-0.5,0-0.8-0.3-0.8-0.8c0-0.3,0.3-0.8,0.8-0.8H47
				C47.3,68.7,47.8,69.2,47.8,69.5"/>
			<path fill="#333333" d="M70.1,69.5c0,0.5-0.3,0.8-0.8,0.8H68c-0.3,0-0.8-0.3-0.8-0.8c0-0.3,0.5-0.8,0.8-0.8h1.3
				C69.8,68.7,70.1,69.2,70.1,69.5"/>
			<path fill="#333333" d="M60.6,69.5c0,1-0.8,1.8-1.6,1.8h-2.9c-1,0-1.6-0.8-1.6-1.8c0-0.8,0.5-1.6,1.6-1.6h2.9
				C59.9,67.9,60.6,68.7,60.6,69.5"/>
		</g>
		<path fill="#FFFFFF" d="M51,41.5l5.5,5.5L65,36.1l2.3,2.3L56.4,51.6l-7.8-7.8L51,41.5z"/>
	</g>
</g>
<g id="kiosk">
</g>
<g id="conditional_access">
</g>
</svg>
