<?xml version="1.0" encoding="utf-8"?>
<!-- Generator: Adobe Illustrator 19.2.1, SVG Export Plug-In . SVG Version: 6.00 Build 0)  -->
<svg version="1.1" xmlns="http://www.w3.org/2000/svg" xmlns:xlink="http://www.w3.org/1999/xlink" x="0px" y="0px"
	 viewBox="0 0 744 452" enable-background="new 0 0 744 452" xml:space="preserve">
<g id="desktop_management">
</g>
<g id="corporate_mobile">
</g>
<g id="kiosk">
</g>
<g id="conditional_access">
	<g>
		<g>
			<defs>
				<path id="SVGID_83_" d="M335.8,240.5l-164.4,0l0-124.8c0-46.9,36.8-84.9,82.2-84.9c45.4,0,82.2,38,82.2,84.9V240.5z"/>
			</defs>
			<clipPath id="SVGID_2_">
				<use xlink:href="#SVGID_83_"  overflow="visible"/>
			</clipPath>
			<path clip-path="url(#SVGID_2_)" fill="#17244E" d="M404.6,102.2l-27.5-10.4c9.8,0,17.7-7.9,17.7-17.7c0-9.8-7.9-17.7-17.7-17.7
				l-52.4-6.8c6,0,10.9-4.9,10.9-10.9c0-6-4.9-10.9-10.9-10.9l-146.7,0c-6,0-10.9,4.9-10.9,10.9c0,6,4.9,10.9,10.9,10.9l-46.7,14.1
				v0c-21.6,0-39.1,17.5-39.1,39.1c0,21.6,17.5,39.1,39.1,39.1c0,0,37.9,44.9,30.6,44.9c-15.2,0-27.6,12.3-27.6,27.6
				c0,15.2,12.3,27.6,27.6,27.6c10.8,0,40.3,0.5,40.3,0.5l54.6,0.2c7.9,0,115.8,1.8,115.8,1.8c17.6,0,32-33.5,32-51
				c0-17.6-14.2-31.8-31.8-31.8h-23.6c-3.8,0-6.8-3.1-6.8-6.8c0-3.8,3.1-6.7,6.8-6.7c0.5,0,55.3,0,55.3,0
				c12.7,0,22.9-10.3,22.9-22.9C427.5,112.6,417.3,102.3,404.6,102.2z"/>
		</g>
		<circle fill="#3393DF" cx="256.9" cy="91.3" r="26.5"/>
		<circle fill="#FFFFFF" cx="236.5" cy="186" r="2.4"/>
		<ellipse fill="#FFFFFF" cx="192.3" cy="212.5" rx="2.4" ry="2.4"/>
		<ellipse fill="#FFFFFF" cx="265.2" cy="38.4" rx="2.4" ry="2.4"/>
		<circle fill="#FFFFFF" cx="305.5" cy="72.9" r="5.3"/>
		<circle fill="#FFFFFF" cx="307.9" cy="157.8" r="2.4"/>
		<circle fill="#FFFFFF" cx="305.5" cy="124.7" r="1.9"/>
		<circle fill="#FFFFFF" cx="315.5" cy="220.9" r="2.4"/>
		<circle fill="#FFFFFF" cx="196.2" cy="70.6" r="3.4"/>
		<ellipse fill="#FFFFFF" cx="199.5" cy="171.6" rx="3.4" ry="3.4"/>
		<circle fill="#FFFFFF" cx="215.3" cy="118.5" r="1"/>
		<circle fill="#FFFFFF" cx="281" cy="195.9" r="7.9"/>
		<path fill="#FFFFFF" d="M236.2,91.3c0-11.5,9.3-20.7,20.7-20.7c11.4,0,20.7,9.3,20.7,20.7c0,11.4-9.3,20.7-20.7,20.7
			C245.5,112,236.2,102.8,236.2,91.3z"/>
		<path opacity="0.15" d="M256.9,112c11.4,0,20.7-9.3,20.7-20.7c0-5.8-2.4-11.1-6.3-14.9l0,0l-29.3,29.3
			C245.9,109.6,251.1,112,256.9,112z"/>
		<g>
			<rect x="170.4" y="108.6" fill="#B98F70" width="165.4" height="4.6"/>
			<rect x="170.4" y="147.9" fill="#B98F70" width="165.4" height="4.6"/>
			<rect x="170.4" y="187.3" fill="#B98F70" width="165.4" height="4.6"/>
			<rect x="251.2" y="30" fill="#B98F70" width="4.6" height="212.5"/>
			<path fill="none" stroke="#B98F70" stroke-width="5.6505" stroke-miterlimit="10" d="M335.8,240.5l-164.4,0l0-124.8
				c0-46.9,36.8-84.9,82.2-84.9c45.4,0,82.2,38,82.2,84.9V240.5z"/>
			<rect x="171.7" y="233.8" fill="#B98F70" width="165.3" height="8.6"/>
		</g>
	</g>
	<g>
		<path fill="#99C9EF" d="M625.5,394V278.2c0-25.3-20.7-46.1-46-46.1H234.2c-25.9,0-46,20.7-46,46.1V394H625.5z"/>
		<path fill="#3393DF" d="M221,277.1h-66.7V394h33.9H221h32.8v-83.5C253.8,292.1,239.4,277.1,221,277.1"/>
		<path fill="#99C9EF" d="M187,394v-83.5c0-18.4-14.4-33.4-32.8-33.4s-32.8,15-32.8,33.4V394H187z"/>
		<path fill="#3393DF" d="M521.3,394v-36.8c0-9.8-8.1-17.8-17.8-17.8H250.3c-9.8,0-18.4,8.1-18.4,17.8V394H521.3z"/>
		<path fill="#99C9EF" d="M485.1,394v-23c0-9.8-8.1-17.8-18.4-17.8H213.5c-9.8,0-17.8,8.1-17.8,17.8v23H485.1z"/>
		<path fill="#002050" d="M287.1,295.5c-1.2-5.8-7.5-10.4-13.2-10.4h-37.4c-5.8,0-9.8,4.6-8.6,10.4l8.6,36.8
			c1.2,5.8,6.9,10.9,13.2,10.9h37.4c5.8,0,9.8-5.2,8.1-10.9L287.1,295.5z"/>
		<g>
			
				<rect x="566.8" y="242" transform="matrix(0.7335 -0.6797 0.6797 0.7335 -22.3567 460.1477)" fill="#B98F70" width="17.4" height="33.2"/>
			<path fill="#927458" d="M436.6,281.2c-26.8-7.2-24.5-21.9-24.5-21.9l28.3,7.6l57.6,15.4l-3.8,14.3L436.6,281.2z"/>
			
				<rect x="495.7" y="192" opacity="0" fill="none" stroke="#FFFFFF" stroke-width="0.3223" stroke-linecap="round" stroke-linejoin="round" stroke-miterlimit="10" width="41.9" height="29.3"/>
			<polygon fill="#B98F70" points="535.6,258.1 494.4,258.1 495.7,210.1 535.6,210.1 			"/>
			
				<polygon opacity="0" fill="none" stroke="#FFFFFF" stroke-width="0.3223" stroke-linecap="round" stroke-linejoin="round" stroke-miterlimit="10" points="
				535.6,258.1 494.4,258.1 495.7,210.1 535.6,210.1 			"/>
			<polygon fill="#B98F70" points="497,220 502.8,202.6 502.8,185.9 523.4,185.9 523.4,220 			"/>
			
				<polygon opacity="0" fill="none" stroke="#FFFFFF" stroke-width="0.3223" stroke-linecap="round" stroke-linejoin="round" stroke-miterlimit="10" points="
				497,220 502.8,202.6 502.8,185.9 523.4,185.9 523.4,220 			"/>
			<path fill="#927458" d="M502.8,202.6c3.2,0.6,6.8,1.3,10.3,1.3c3.5,0,7.1-0.6,10.3-1.3v-16.8h-20.6V202.6z"/>
			<path fill="#B98F70" d="M488.9,154v38c6.8,4.8,15.1,7.7,24.2,7.7c9,0,17.7-8.9,24.5-13.7v-32H488.9z"/>
			<path fill="#B98F70" d="M464.4,400.9L464.4,400.9h-16.8c-0.6,0-1.3,0-1.9,0.1c-0.2,0-0.3,0-0.5,0c-0.6,0.1-1.2,0.1-1.8,0.3
				c0,0-0.1,0-0.1,0c-0.6,0.1-1.1,0.3-1.7,0.4c-0.2,0.1-0.4,0.1-0.6,0.2c-0.4,0.1-0.9,0.3-1.3,0.4c-0.3,0.1-0.6,0.2-0.9,0.3
				c-0.3,0.1-0.6,0.3-0.9,0.4c-0.3,0.2-0.6,0.3-0.9,0.5c-0.1,0-0.2,0.1-0.3,0.2c-6.2,3.4-10.5,9.7-11.1,17.2h21.9h17.1v-20H464.4z"
				/>
			<polygon fill="#002050" points="464.7,400.9 432.5,400.9 445.4,335.1 464.7,340.9 			"/>
			
				<polygon opacity="0" fill="none" stroke="#FFFFFF" stroke-width="0.3223" stroke-linecap="round" stroke-linejoin="round" stroke-miterlimit="10" points="
				464.7,400.9 432.5,400.9 445.4,335.1 464.7,340.9 			"/>
			<path fill="#002050" d="M464.4,391.5h-19.3v-52.2c0-14.5,11.9-26.1,26.1-26.1h40V340h-40c-3.5,0-6.8,2.9-6.8,6.8V391.5z"/>
			<path fill="#002050" d="M511.1,340c14.8,0,26.8-11.9,26.8-26.8h-43.5C494.4,328,496.6,340,511.1,340"/>
			<path fill="#B98F70" d="M423.5,400.9h-16.8c-0.7,0-1.4,0-2.1,0.1c-0.1,0-0.1,0-0.2,0c-6.3,0.6-11.7,3.6-15.2,8.2
				c-2.7,3.3-4.4,7.3-4.8,11.7h22.2h16.8V400.9L423.5,400.9L423.5,400.9z"/>
			<polygon fill="#002050" points="423.5,400.9 391.6,400.9 404.1,335.1 423.5,340.9 			"/>
			
				<polygon opacity="0" fill="none" stroke="#FFFFFF" stroke-width="0.3223" stroke-linecap="round" stroke-linejoin="round" stroke-miterlimit="10" points="
				423.5,400.9 391.6,400.9 404.1,335.1 423.5,340.9 			"/>
			<path fill="#002050" d="M423.5,391.5h-19.7v-52.2c0-14.5,11.9-26.1,26.4-26.1h40V340h-40c-3.9,0-6.8,2.9-6.8,6.8V391.5z"/>
			<path fill="#002050" d="M470.2,340C485,340,497,328,497,313.2h-43.8C453.1,328,455.4,340,470.2,340"/>
			<rect x="473.4" y="305.5" fill="#002050" width="64.5" height="11.3"/>
			
				<rect x="473.4" y="305.5" opacity="0" fill="none" stroke="#FFFFFF" stroke-width="0.3223" stroke-linecap="round" stroke-linejoin="round" stroke-miterlimit="10" width="64.5" height="11.3"/>
			<path fill="#BADB0A" d="M538.2,210h-13.5c0,0-10.9,13.2-21.9,9.1c-8.5-3.2-7.1-9.1-7.1-9.1s-22.2,5.2-22.2,42.9V306h64.5
				l0.3-67.5l16.4,16.8l21-15.5c0,0-6.9-8.6-14.5-16.4C556.7,217.7,546,210,538.2,210"/>
			
				<polygon opacity="0" fill="none" stroke="#FFFFFF" stroke-width="0.3223" stroke-linecap="round" stroke-linejoin="round" stroke-miterlimit="10" points="
				570.8,284.5 541.4,284.5 541.4,269.4 556.9,269.4 562.1,275.8 562.1,269.4 570.8,269.4 			"/>
			<rect x="488.9" y="169.8" fill="#B98F70" width="24.2" height="30"/>
			
				<rect x="488.9" y="169.8" opacity="0" fill="none" stroke="#FFFFFF" stroke-width="0.3223" stroke-linecap="round" stroke-linejoin="round" stroke-miterlimit="10" width="24.2" height="30"/>
			<path fill="#B98F70" d="M537.6,181v-25.8c0-13.5-11-24.5-24.5-24.5c-13.2,0-24.2,11-24.2,24.5V181H537.6z"/>
			<g>
				<defs>
					<path id="SVGID_85_" d="M488.9,155.2V181h48.7v-25.8c0-13.5-11-24.5-24.5-24.5C499.9,130.7,488.9,141.7,488.9,155.2"/>
				</defs>
				<clipPath id="SVGID_4_">
					<use xlink:href="#SVGID_85_"  overflow="visible"/>
				</clipPath>
				<path clip-path="url(#SVGID_4_)" d="M499.5,126.6c4.5-1.9,9.3-3.2,14.5-3.2c19.7,0,35.5,15.8,35.5,35.5v12.4
					C523.4,168.3,502.4,152.7,499.5,126.6"/>
				<path clip-path="url(#SVGID_4_)" d="M510.2,132.4c-1.9-1-4.5-1.6-7.1-1.6c-9.3,0-17.1,7.7-17.1,17.4v8.4
					C498.6,155.2,508.9,144.9,510.2,132.4"/>
			</g>
			<path fill="#927458" d="M529.2,164.3h-3.5v12.2h3.5c1.6,0,2.9-1.3,2.9-2.9v-6.4C532.1,165.6,530.8,164.3,529.2,164.3"/>
			<path fill="#B98F70" d="M593.2,264.7c0,8.4-6.4,14.8-14.5,14.8v-14.8H593.2z"/>
			<path fill="#B98F70" d="M540.6,264.7c-27.7,0-29.3,14.8-29.3,14.8h29.3h38.9v-14.8H540.6z"/>
			
				<polygon opacity="0" fill="none" stroke="#FFFFFF" stroke-width="0.3223" stroke-linecap="round" stroke-linejoin="round" stroke-miterlimit="10" points="
				514.4,169.1 525.6,167.8 525.6,164.3 511.8,164.3 			"/>
			<polygon fill="#927458" points="498.6,183.3 491.8,183.3 498.6,169.1 			"/>
			
				<polygon opacity="0" fill="none" stroke="#FFFFFF" stroke-width="0.3223" stroke-linecap="round" stroke-linejoin="round" stroke-miterlimit="10" points="
				498.6,183.3 491.8,183.3 498.6,169.1 			"/>
			<path fill="#FFFFFF" d="M493.4,186.8c1.3,3.5,4.5,5.8,8.1,5.8c3.9,0,6.8-2.3,8.1-5.8H493.4z"/>
			<path d="M494.4,170.1c0,1-0.6,1.6-1.6,1.6c-1,0-1.6-0.6-1.6-1.6c0-1,0.6-1.6,1.6-1.6C493.7,168.5,494.4,169.1,494.4,170.1"/>
			<path d="M511.1,170.1c0,1-0.6,1.6-1.6,1.6c-1,0-1.6-0.6-1.6-1.6c0-1,0.6-1.6,1.6-1.6C510.5,168.5,511.1,169.1,511.1,170.1"/>
		</g>
		<g>
			<path fill="#3393DF" d="M593.3,277.1h-67.3V394h33.9h33.4h32.8v-83.5C626.1,292.1,611.1,277.1,593.3,277.1"/>
			<path fill="#99C9EF" d="M559.3,394v-83.5c0-18.4-15-33.4-33.4-33.4c-17.8,0-32.8,15-32.8,33.4V394H559.3z"/>
		</g>
	</g>
	<g>
		<path d="M432.4,267.2c0,0.5-1,1.4-1.4,1.4h-97.3c-0.5,0-1.4-1-1.4-1.4v-59.1c0-1,1-1.4,1.4-1.4h97.3c0.5,0,1.4,0.5,1.4,1.4V267.2z
			"/>
		<rect x="336.5" y="211.9" fill="#969696" width="91.6" height="51.5"/>
	</g>
	<g>
		<path fill="#3393DF" d="M397.4,379.1c-4.3,1.7-7.5,5.8-7.5,11c0,4.9,3.2,9.2,7.5,11V379.1z"/>
		<path fill="#0060AC" d="M374.1,382c-2,4.3-1.2,9.5,2.3,13c3.5,3.7,8.6,4.3,13,2.3L374.1,382z"/>
		<path fill="#3393DF" d="M409.5,420.9c-6.6,0-12.1-5.2-12.1-11.8V401l0,0h-11.7c0,0,0,0,0,0h-0.9c-5.4,0-10.2,4.8-10.2,10.2
			c0,5.4,4.8,9.7,10.2,9.7h3l0,0H409.5z"/>
		<rect x="398.5" y="414.9" fill="#3393DF" width="27" height="6"/>
		<path d="M389.5,407.6c0,0.9-0.9,1.4-1.7,1.4c-0.9,0-1.4-0.6-1.4-1.4c0-0.9,0.6-1.7,1.4-1.7C388.7,405.9,389.5,406.8,389.5,407.6"
			/>
	</g>
	<g>
		<path fill="#0060AC" d="M416.7,414.9L416.7,414.9l0,6h8.8v0C421.7,420.6,418.2,418.2,416.7,414.9z"/>
	</g>
	<g>
		<path fill="#3393DF" d="M438.7,379.1c-4.3,1.7-7.5,5.8-7.5,11c0,4.9,3.2,9.2,7.5,11V379.1z"/>
		<path fill="#0060AC" d="M415.4,382c-2,4.3-1.2,9.5,2.3,13c3.5,3.7,8.6,4.3,13,2.3L415.4,382z"/>
		<path fill="#3393DF" d="M450.8,420.9c-6.6,0-12.1-5.2-12.1-11.8V401l0,0h-11.7c0,0,0,0,0,0h-0.9c-5.4,0-10.2,4.8-10.2,10.2
			c0,5.4,4.8,9.7,10.2,9.7h3l0,0H450.8z"/>
		<rect x="439.8" y="414.9" fill="#3393DF" width="27" height="6"/>
		<path d="M430.9,407.6c0,0.9-0.9,1.4-1.7,1.4c-0.9,0-1.4-0.6-1.4-1.4c0-0.9,0.6-1.7,1.4-1.7C430,405.9,430.9,406.8,430.9,407.6"/>
	</g>
</g>
</svg>
