<?xml version="1.0" encoding="utf-8"?>
<!-- Generator: Adobe Illustrator 19.2.1, SVG Export Plug-In . SVG Version: 6.00 Build 0)  -->
<svg version="1.1" xmlns="http://www.w3.org/2000/svg" xmlns:xlink="http://www.w3.org/1999/xlink" x="0px" y="0px"
	 viewBox="0 0 744 452" enable-background="new 0 0 744 452" xml:space="preserve">
<g id="desktop_management">
</g>
<g id="corporate_mobile">
	<g>
		<rect x="350.1" y="335.4" fill="#969696" width="19.7" height="93.1"/>
		
			<rect x="350.1" y="335.4" opacity="0" fill="none" stroke="#FFFFFF" stroke-width="0.273" stroke-linecap="round" stroke-linejoin="round" stroke-miterlimit="10" width="19.7" height="93.1"/>
		<rect x="599.6" y="347.9" fill="#A2886C" width="8.5" height="10.9"/>
		
			<rect x="599.6" y="347.9" opacity="0" fill="none" stroke="#FFFFFF" stroke-width="0.273" stroke-linecap="round" stroke-linejoin="round" stroke-miterlimit="10" width="8.5" height="10.9"/>
		<g>
			<defs>
				<rect id="SVGID_39_" x="323" y="176.5" width="382.5" height="253.9"/>
			</defs>
			<clipPath id="SVGID_2_">
				<use xlink:href="#SVGID_39_"  overflow="visible"/>
			</clipPath>
			<path clip-path="url(#SVGID_2_)" d="M559.7,285.1c0-4.4,3.5-7.9,7.9-7.9h39.6c4.4,0,7.9,3.5,7.9,7.9v55.2c0,4.4-3.5,7.9-7.9,7.9
				h-39.6c-4.4,0-7.9-3.5-7.9-7.9V285.1z"/>
			<rect x="389.1" y="335.4" clip-path="url(#SVGID_2_)" fill="#969696" width="16.4" height="93.1"/>
			
				<rect x="389.1" y="335.4" opacity="0" clip-path="url(#SVGID_2_)" fill="none" stroke="#FFFFFF" stroke-width="0.273" stroke-linecap="round" stroke-linejoin="round" stroke-miterlimit="10" width="16.4" height="93.1"/>
			<polygon clip-path="url(#SVGID_2_)" fill="#505050" points="405.5,347.9 389.1,335.4 405.5,335.4 			"/>
			
				<polygon opacity="0" clip-path="url(#SVGID_2_)" fill="none" stroke="#FFFFFF" stroke-width="0.273" stroke-linecap="round" stroke-linejoin="round" stroke-miterlimit="10" points="
				405.5,347.9 389.1,335.4 405.5,335.4 			"/>
			<polygon clip-path="url(#SVGID_2_)" points="580.5,410.7 567.1,410.7 568.7,385.6 578.8,385.6 			"/>
			
				<polygon opacity="0" clip-path="url(#SVGID_2_)" fill="none" stroke="#FFFFFF" stroke-width="0.273" stroke-linecap="round" stroke-linejoin="round" stroke-miterlimit="10" points="
				580.5,410.7 567.1,410.7 568.7,385.6 578.8,385.6 			"/>
			<polygon clip-path="url(#SVGID_2_)" points="577.2,385.6 570.1,385.6 570.9,375 576.7,375 			"/>
			
				<polygon opacity="0" clip-path="url(#SVGID_2_)" fill="none" stroke="#FFFFFF" stroke-width="0.273" stroke-linecap="round" stroke-linejoin="round" stroke-miterlimit="10" points="
				577.2,385.6 570.1,385.6 570.9,375 576.7,375 			"/>
			<path clip-path="url(#SVGID_2_)" d="M546.4,422.2c0,4.1-3.5,7.4-7.6,7.4c-4.1,0-7.4-3.3-7.4-7.4c0-4.1,3.3-7.6,7.4-7.6
				C542.8,414.6,546.4,418.1,546.4,422.2"/>
			<path clip-path="url(#SVGID_2_)" d="M615.2,421.7c0,4.1-3.5,7.4-7.6,7.4c-4.1,0-7.4-3.3-7.4-7.4c0-4.1,3.3-7.4,7.4-7.4
				C611.6,414.3,615.2,417.6,615.2,421.7"/>
			<path clip-path="url(#SVGID_2_)" d="M607.5,413.5c-1.4-3.5-4.4-4.9-8.7-5.7l-25.7-5.2l-25.4,5.2c-3.8,0.8-7.4,2.2-9,5.7H607.5z"
				/>
			<rect x="538.7" y="413.5" clip-path="url(#SVGID_2_)" width="7.6" height="8.7"/>
			
				<rect x="538.7" y="413.5" opacity="0" clip-path="url(#SVGID_2_)" fill="none" stroke="#FFFFFF" stroke-width="0.273" stroke-linecap="round" stroke-linejoin="round" stroke-miterlimit="10" width="7.6" height="8.7"/>
			<rect x="600.1" y="413.5" clip-path="url(#SVGID_2_)" width="7.4" height="8.2"/>
			
				<rect x="600.1" y="413.5" opacity="0" clip-path="url(#SVGID_2_)" fill="none" stroke="#FFFFFF" stroke-width="0.273" stroke-linecap="round" stroke-linejoin="round" stroke-miterlimit="10" width="7.4" height="8.2"/>
			<path clip-path="url(#SVGID_2_)" d="M571.7,428.8c0,0.5-0.5,0.8-0.8,0.8H569c-0.5,0-0.8-0.3-0.8-0.8v-13.4c0-0.3,0.3-0.8,0.8-0.8
				h1.9c0.3,0,0.8,0.5,0.8,0.8V428.8z"/>
			<path clip-path="url(#SVGID_2_)" d="M579.4,428.8c0,0.5-0.5,0.8-0.8,0.8h-1.9c-0.5,0-0.8-0.3-0.8-0.8v-13.4
				c0-0.3,0.3-0.8,0.8-0.8h1.9c0.3,0,0.8,0.5,0.8,0.8V428.8z"/>
			<rect x="569.8" y="403.9" clip-path="url(#SVGID_2_)" width="7.6" height="21"/>
			
				<rect x="569.8" y="403.9" opacity="0" clip-path="url(#SVGID_2_)" fill="none" stroke="#FFFFFF" stroke-width="0.273" stroke-linecap="round" stroke-linejoin="round" stroke-miterlimit="10" width="7.6" height="21"/>
			<path clip-path="url(#SVGID_2_)" d="M595.8,373.1c0,1.6-1.4,3-3,3h-38.2c-1.6,0-2.7-1.4-2.7-3s1.1-3,2.7-3h38.2
				C594.4,370.1,595.8,371.4,595.8,373.1"/>
			<path clip-path="url(#SVGID_2_)" fill="#A2886C" d="M531.9,367.1L531.9,367.1c0,3.3,2.7,6,6,6h71.8c3.3,0,6-2.7,6-6H531.9z"/>
			<path clip-path="url(#SVGID_2_)" d="M615.2,363c0-2.2-1.9-4.1-4.1-4.1h-75.4c-2.2,0-3.8,1.9-3.8,4.1s1.6,4.1,3.8,4.1h75.4
				C613.2,367.1,615.2,365.1,615.2,363"/>
			<path clip-path="url(#SVGID_2_)" fill="#927458" d="M505.7,313c-23.5,0-24.8,12.6-24.8,12.6h24.8h50.5V313H505.7z"/>
			<polygon clip-path="url(#SVGID_2_)" fill="#2F2F2F" points="525.9,313 550.7,313 550.7,300.2 537.6,300.2 533.2,305.6 533,300.2 
				525.9,300.2 			"/>
			
				<polygon opacity="0" clip-path="url(#SVGID_2_)" fill="none" stroke="#FFFFFF" stroke-width="0.273" stroke-linecap="round" stroke-linejoin="round" stroke-miterlimit="10" points="
				525.9,313 550.7,313 550.7,300.2 537.6,300.2 533.2,305.6 533,300.2 525.9,300.2 			"/>
			<rect x="554.5" y="234.6" clip-path="url(#SVGID_2_)" width="35.5" height="24.8"/>
			
				<rect x="554.5" y="234.6" opacity="0" clip-path="url(#SVGID_2_)" fill="none" stroke="#FFFFFF" stroke-width="0.273" stroke-linecap="round" stroke-linejoin="round" stroke-miterlimit="10" width="35.5" height="24.8"/>
			<polygon clip-path="url(#SVGID_2_)" fill="#B98F70" points="588.4,290.6 553.4,290.6 554.5,249.9 588.4,249.9 			"/>
			
				<polygon opacity="0" clip-path="url(#SVGID_2_)" fill="none" stroke="#FFFFFF" stroke-width="0.273" stroke-linecap="round" stroke-linejoin="round" stroke-miterlimit="10" points="
				588.4,290.6 553.4,290.6 554.5,249.9 588.4,249.9 			"/>
			<polygon clip-path="url(#SVGID_2_)" fill="#B98F70" points="555.6,258.4 560.5,243.6 560.5,229.4 578,229.4 578,258.4 			"/>
			
				<polygon opacity="0" clip-path="url(#SVGID_2_)" fill="none" stroke="#FFFFFF" stroke-width="0.273" stroke-linecap="round" stroke-linejoin="round" stroke-miterlimit="10" points="
				555.6,258.4 560.5,243.6 560.5,229.4 578,229.4 578,258.4 			"/>
			<path clip-path="url(#SVGID_2_)" fill="#927458" d="M560.5,243.6c2.7,0.5,5.7,1.1,8.7,1.1s6-0.5,8.7-1.1v-14.2h-17.5V243.6z"/>
			<path clip-path="url(#SVGID_2_)" fill="#B98F70" d="M548.8,202.4v32.2c5.7,4.1,12.8,6.6,20.5,6.6s15-2.5,20.7-6.6v-32.2H548.8z"
				/>
			<path clip-path="url(#SVGID_2_)" d="M513.9,411.6c-9.8,0-17.7,7.4-18.6,16.9h18.6h14.5v-16.9H513.9z"/>
			<path clip-path="url(#SVGID_2_)" fill="#B98F70" d="M513.9,411.6c-6.6,0-12.3,3.3-15.6,8.5h20.2c4.9,0,9-3.8,9.6-8.5H513.9z"/>
			<polygon clip-path="url(#SVGID_2_)" fill="#2F2F2F" points="528.3,411.6 501,411.6 512,355.9 528.3,360.8 			"/>
			
				<polygon opacity="0" clip-path="url(#SVGID_2_)" fill="none" stroke="#FFFFFF" stroke-width="0.273" stroke-linecap="round" stroke-linejoin="round" stroke-miterlimit="10" points="
				528.3,411.6 501,411.6 512,355.9 528.3,360.8 			"/>
			<path clip-path="url(#SVGID_2_)" fill="#2F2F2F" d="M528.1,403.6h-16.4v-44.2c0-12.3,10.1-22.1,22.1-22.1h33.9V360h-33.9
				c-3,0-5.7,2.5-5.7,5.7V403.6z"/>
			<path clip-path="url(#SVGID_2_)" fill="#2F2F2F" d="M567.6,360c12.6,0,22.7-10.1,22.7-22.7h-36.9
				C553.4,349.9,555.4,360,567.6,360"/>
			<path clip-path="url(#SVGID_2_)" d="M479.2,411.6c-9.8,0-18,7.4-18.8,16.9h18.8h14.2v-16.9H479.2z"/>
			<path clip-path="url(#SVGID_2_)" fill="#B98F70" d="M479.2,411.6c-6.8,0-12.6,3.3-15.8,8.5h20.2c5.2,0,9-3.8,9.8-8.5H479.2z"/>
			<polygon clip-path="url(#SVGID_2_)" fill="#2F2F2F" points="493.4,411.6 466.4,411.6 477,355.9 493.4,360.8 			"/>
			
				<polygon opacity="0" clip-path="url(#SVGID_2_)" fill="none" stroke="#FFFFFF" stroke-width="0.273" stroke-linecap="round" stroke-linejoin="round" stroke-miterlimit="10" points="
				493.4,411.6 466.4,411.6 477,355.9 493.4,360.8 			"/>
			<path clip-path="url(#SVGID_2_)" fill="#2F2F2F" d="M493.4,403.6h-16.7v-44.2c0-12.3,10.1-22.1,22.4-22.1H533V360h-33.9
				c-3.3,0-5.7,2.5-5.7,5.7V403.6z"/>
			<path clip-path="url(#SVGID_2_)" fill="#2F2F2F" d="M533,360c12.6,0,22.7-10.1,22.7-22.7h-37.1C518.5,349.9,520.4,360,533,360"/>
			<rect x="535.7" y="330.7" clip-path="url(#SVGID_2_)" fill="#2F2F2F" width="54.6" height="9.6"/>
			
				<rect x="535.7" y="330.7" opacity="0" clip-path="url(#SVGID_2_)" fill="none" stroke="#FFFFFF" stroke-width="0.273" stroke-linecap="round" stroke-linejoin="round" stroke-miterlimit="10" width="54.6" height="9.6"/>
			<path clip-path="url(#SVGID_2_)" fill="#6DC2E9" d="M549.4,335.4c0,15,19.1,32.5,41,32.5v-32.5H549.4z"/>
			<path clip-path="url(#SVGID_2_)" fill="#6DC2E9" d="M590.6,249.9h-11.5l-25.4,30.6l0.8-30.6c0,0-18.8,4.4-18.8,36.3v43.7h54.6
				l0.3-42.6h2.7v23.5h17.5v-40.4C610.8,259.2,601.8,249.9,590.6,249.9"/>
			<polygon clip-path="url(#SVGID_2_)" fill="#2F2F2F" points="618.2,313 593.3,313 593.3,300.2 606.4,300.2 610.8,305.6 
				610.8,300.2 618.2,300.2 			"/>
			
				<polygon opacity="0" clip-path="url(#SVGID_2_)" fill="none" stroke="#FFFFFF" stroke-width="0.273" stroke-linecap="round" stroke-linejoin="round" stroke-miterlimit="10" points="
				618.2,313 593.3,313 593.3,300.2 606.4,300.2 610.8,305.6 610.8,300.2 618.2,300.2 			"/>
			<polygon clip-path="url(#SVGID_2_)" fill="#2F2F2F" points="573.7,258.4 578.3,263.8 553.7,280.5 578,243.6 593.3,253.5 
				582.9,260.6 			"/>
			
				<polygon opacity="0" clip-path="url(#SVGID_2_)" fill="none" stroke="#FFFFFF" stroke-width="0.273" stroke-linecap="round" stroke-linejoin="round" stroke-miterlimit="10" points="
				573.7,258.4 578.3,263.8 553.7,280.5 578,243.6 593.3,253.5 582.9,260.6 			"/>
			<rect x="548.8" y="215.8" clip-path="url(#SVGID_2_)" fill="#B98F70" width="20.5" height="25.4"/>
			
				<rect x="548.8" y="215.8" opacity="0" clip-path="url(#SVGID_2_)" fill="none" stroke="#FFFFFF" stroke-width="0.273" stroke-linecap="round" stroke-linejoin="round" stroke-miterlimit="10" width="20.5" height="25.4"/>
			<path clip-path="url(#SVGID_2_)" fill="#B98F70" d="M590,225.3v-21.8c0-11.5-9.3-20.8-20.7-20.8c-11.2,0-20.5,9.3-20.5,20.8v21.8
				H590z"/>
		</g>
		<g>
			<defs>
				<path id="SVGID_41_" d="M548.8,203.5v21.8H590v-21.8c0-11.5-9.3-20.8-20.7-20.8C558.1,182.7,548.8,192,548.8,203.5"/>
			</defs>
			<clipPath id="SVGID_4_">
				<use xlink:href="#SVGID_41_"  overflow="visible"/>
			</clipPath>
			<path clip-path="url(#SVGID_4_)" d="M557.8,179.2c3.8-1.6,7.9-2.7,12.3-2.7c16.7,0,30,13.4,30,30v14.7
				C578,218.8,560.3,201.3,557.8,179.2"/>
			<path clip-path="url(#SVGID_4_)" d="M566.8,184.1c-1.6-0.8-3.8-1.4-6-1.4c-7.9,0-14.5,6.6-14.5,14.7v7.1
				C557,203.5,565.7,194.8,566.8,184.1"/>
		</g>
		<path fill="#927458" d="M582.9,211.1h-3v10.4h3c1.4,0,2.5-1.1,2.5-2.5v-5.5C585.4,212.2,584.3,211.1,582.9,211.1"/>
		<path fill="#FFFFFF" d="M584,222.3c0,0.8-0.5,1.4-1.4,1.4c-0.8,0-1.4-0.5-1.4-1.4c0-0.8,0.5-1.6,1.4-1.6
			C583.5,220.7,584,221.5,584,222.3"/>
		<polygon fill="#2F2F2F" points="553.7,280.5 560.5,243.9 550.7,252.9 551.3,258.4 554.3,258.4 551.8,262.2 		"/>
		
			<polygon opacity="0" fill="none" stroke="#FFFFFF" stroke-width="0.273" stroke-linecap="round" stroke-linejoin="round" stroke-miterlimit="10" points="
			553.7,280.5 560.5,243.9 550.7,252.9 551.3,258.4 554.3,258.4 551.8,262.2 		"/>
		<path fill="#B98F70" d="M610.8,313c0,7.1-5.5,12.6-12.3,12.6V313H610.8z"/>
		<path fill="#B98F70" d="M547.7,313c-23.5,0-24.8,12.6-24.8,12.6h24.8h50.8V313H547.7z"/>
		<polygon fill="#D2D2D2" points="570.4,215.2 579.9,214.1 579.9,211.1 568.2,211.1 		"/>
		
			<polygon opacity="0" fill="none" stroke="#FFFFFF" stroke-width="0.273" stroke-linecap="round" stroke-linejoin="round" stroke-miterlimit="10" points="
			570.4,215.2 579.9,214.1 579.9,211.1 568.2,211.1 		"/>
		<path fill="#FFFFFF" d="M569.3,217.4c0,0.8-0.5,1.1-1.1,1.1h-6.3c-0.5,0-1.1-0.3-1.1-1.1l-0.5-4.1c0-0.5,0.5-1.1,1.1-1.1h6.8
			c0.5,0,1.1,0.5,1.1,1.1V217.4z M553.4,217.4L553.4,217.4c0,0.8-0.3,1.1-1.1,1.1h-6.3c-0.5,0-1.1-0.3-1.1-1.1v-4.1
			c0-0.5,0.5-1.1,1.1-1.1h6.8c0.5,0,1.1,0.5,1.1,1.1L553.4,217.4z M568.2,211.1h-6.8c-0.8,0-1.6,0.5-1.9,1.4h-4.6
			c-0.3-0.8-1.1-1.4-1.9-1.4h-6.8c-1.1,0-2.2,1.1-2.2,2.2v4.1c0,1.4,1.1,2.5,2.2,2.5h6.3c1.4,0,2.5-1.1,2.5-2.5l0.3-3.5h4.1l0.5,3.8
			c0,1.1,1.1,2.2,2.2,2.2h6.3c1.4,0,2.2-1.1,2.2-2.5v-4.1C570.4,212.2,569.6,211.1,568.2,211.1"/>
		<polygon fill="#505050" points="369.7,350.4 350.1,335.4 369.7,335.4 		"/>
		
			<polygon opacity="0" fill="none" stroke="#FFFFFF" stroke-width="0.273" stroke-linecap="round" stroke-linejoin="round" stroke-miterlimit="10" points="
			369.7,350.4 350.1,335.4 369.7,335.4 		"/>
		<rect x="661" y="335.4" fill="#969696" width="16.4" height="94.2"/>
		
			<rect x="661" y="335.4" opacity="0" fill="none" stroke="#FFFFFF" stroke-width="0.273" stroke-linecap="round" stroke-linejoin="round" stroke-miterlimit="10" width="16.4" height="94.2"/>
		<polygon fill="#505050" points="677.4,347.9 661,335.4 677.4,335.4 		"/>
		
			<polygon opacity="0" fill="none" stroke="#FFFFFF" stroke-width="0.273" stroke-linecap="round" stroke-linejoin="round" stroke-miterlimit="10" points="
			677.4,347.9 661,335.4 677.4,335.4 		"/>
		<rect x="618.7" y="335.4" fill="#969696" width="19.7" height="94.2"/>
		
			<rect x="618.7" y="335.4" opacity="0" fill="none" stroke="#FFFFFF" stroke-width="0.273" stroke-linecap="round" stroke-linejoin="round" stroke-miterlimit="10" width="19.7" height="94.2"/>
		<polygon fill="#505050" points="638.4,350.4 618.7,335.4 638.4,335.4 		"/>
		
			<polygon opacity="0" fill="none" stroke="#FFFFFF" stroke-width="0.273" stroke-linecap="round" stroke-linejoin="round" stroke-miterlimit="10" points="
			638.4,350.4 618.7,335.4 638.4,335.4 		"/>
		<rect x="322.8" y="324.2" fill="#737373" width="381.7" height="11.2"/>
		
			<rect x="322.8" y="324.2" opacity="0" fill="none" stroke="#FFFFFF" stroke-width="0.273" stroke-linecap="round" stroke-linejoin="round" stroke-miterlimit="10" width="381.7" height="11.2"/>
		<rect x="605.6" y="324.2" fill="#505050" width="98.8" height="11.2"/>
		
			<rect x="605.6" y="324.2" opacity="0" fill="none" stroke="#FFFFFF" stroke-width="0.273" stroke-linecap="round" stroke-linejoin="round" stroke-miterlimit="10" width="98.8" height="11.2"/>
		<polygon points="481.9,250.2 382,250.2 397.6,312.7 497.5,312.7 		"/>
		
			<polygon opacity="0" fill="none" stroke="#FFFFFF" stroke-width="0.273" stroke-linecap="round" stroke-linejoin="round" stroke-miterlimit="10" points="
			481.9,250.2 382,250.2 397.6,312.7 497.5,312.7 		"/>
		<rect x="397.6" y="312.7" fill="#505050" width="99.9" height="11.5"/>
		
			<rect x="397.6" y="312.7" opacity="0" fill="none" stroke="#FFFFFF" stroke-width="0.273" stroke-linecap="round" stroke-linejoin="round" stroke-miterlimit="10" width="99.9" height="11.5"/>
		<polygon points="497.5,324.2 526.7,324.2 526.7,318.7 497.5,312.7 		"/>
		
			<polygon opacity="0" fill="none" stroke="#FFFFFF" stroke-width="0.273" stroke-linecap="round" stroke-linejoin="round" stroke-miterlimit="10" points="
			497.5,324.2 526.7,324.2 526.7,318.7 497.5,312.7 		"/>
		<polygon fill="#927458" points="557,227.3 551.3,227.3 557,215.2 		"/>
		
			<polygon opacity="0" fill="none" stroke="#FFFFFF" stroke-width="0.273" stroke-linecap="round" stroke-linejoin="round" stroke-miterlimit="10" points="
			557,227.3 551.3,227.3 557,215.2 		"/>
		<path fill="#FFFFFF" d="M552.6,230.3c1.1,3,3.8,4.9,6.8,4.9c3.3,0,5.7-1.9,6.8-4.9H552.6z"/>
		<path d="M553.4,216.1c0,0.8-0.5,1.4-1.4,1.4c-0.8,0-1.4-0.5-1.4-1.4c0-0.8,0.5-1.4,1.4-1.4C552.9,214.7,553.4,215.2,553.4,216.1"
			/>
		<path d="M567.6,216.1c0,0.8-0.5,1.4-1.4,1.4c-0.8,0-1.4-0.5-1.4-1.4c0-0.8,0.5-1.4,1.4-1.4C567.1,214.7,567.6,215.2,567.6,216.1"
			/>
	</g>
	<g>
		<rect x="240.2" y="423.7" fill="#505050" width="42.1" height="3.9"/>
		
			<rect x="240.2" y="423.7" opacity="0" fill="none" stroke="#FFFFFF" stroke-width="0.1329" stroke-linecap="round" stroke-linejoin="round" stroke-miterlimit="10" width="42.1" height="3.9"/>
		<rect x="259.9" y="342.6" fill="#505050" width="2.9" height="81.8"/>
		
			<rect x="259.9" y="342.6" opacity="0" fill="none" stroke="#FFFFFF" stroke-width="0.1329" stroke-linecap="round" stroke-linejoin="round" stroke-miterlimit="10" width="2.9" height="81.8"/>
		<rect x="240.2" y="211.2" fill="#F9E491" width="42.1" height="133.5"/>
		
			<rect x="240.2" y="211.2" opacity="0" fill="none" stroke="#FFFFFF" stroke-width="0.1329" stroke-linecap="round" stroke-linejoin="round" stroke-miterlimit="10" width="42.1" height="133.5"/>
		<rect x="240.2" y="338.8" fill="#FFC20E" width="42.1" height="0.9"/>
		
			<rect x="240.2" y="338.8" opacity="0" fill="none" stroke="#FFFFFF" stroke-width="0.1329" stroke-linecap="round" stroke-linejoin="round" stroke-miterlimit="10" width="42.1" height="0.9"/>
		<rect x="240.2" y="329.8" fill="#FFC20E" width="42.1" height="0.8"/>
		
			<rect x="240.2" y="329.8" opacity="0" fill="none" stroke="#FFFFFF" stroke-width="0.1329" stroke-linecap="round" stroke-linejoin="round" stroke-miterlimit="10" width="42.1" height="0.8"/>
		<rect x="240.2" y="320.6" fill="#FFC20E" width="42.1" height="0.9"/>
		
			<rect x="240.2" y="320.6" opacity="0" fill="none" stroke="#FFFFFF" stroke-width="0.1329" stroke-linecap="round" stroke-linejoin="round" stroke-miterlimit="10" width="42.1" height="0.9"/>
		<rect x="240.2" y="311.6" fill="#FFC20E" width="42.1" height="0.9"/>
		
			<rect x="240.2" y="311.6" opacity="0" fill="none" stroke="#FFFFFF" stroke-width="0.1329" stroke-linecap="round" stroke-linejoin="round" stroke-miterlimit="10" width="42.1" height="0.9"/>
		<rect x="240.2" y="302.4" fill="#FFC20E" width="42.1" height="0.9"/>
		
			<rect x="240.2" y="302.4" opacity="0" fill="none" stroke="#FFFFFF" stroke-width="0.1329" stroke-linecap="round" stroke-linejoin="round" stroke-miterlimit="10" width="42.1" height="0.9"/>
		<rect x="240.2" y="293.4" fill="#FFC20E" width="42.1" height="0.9"/>
		
			<rect x="240.2" y="293.4" opacity="0" fill="none" stroke="#FFFFFF" stroke-width="0.1329" stroke-linecap="round" stroke-linejoin="round" stroke-miterlimit="10" width="42.1" height="0.9"/>
		<rect x="240.2" y="284.2" fill="#FFC20E" width="42.1" height="0.9"/>
		
			<rect x="240.2" y="284.2" opacity="0" fill="none" stroke="#FFFFFF" stroke-width="0.1329" stroke-linecap="round" stroke-linejoin="round" stroke-miterlimit="10" width="42.1" height="0.9"/>
		<rect x="240.2" y="275.2" fill="#FFC20E" width="42.1" height="0.9"/>
		
			<rect x="240.2" y="275.2" opacity="0" fill="none" stroke="#FFFFFF" stroke-width="0.1329" stroke-linecap="round" stroke-linejoin="round" stroke-miterlimit="10" width="42.1" height="0.9"/>
		<rect x="240.2" y="266.2" fill="#FFC20E" width="42.1" height="0.8"/>
		
			<rect x="240.2" y="266.2" opacity="0" fill="none" stroke="#FFFFFF" stroke-width="0.1329" stroke-linecap="round" stroke-linejoin="round" stroke-miterlimit="10" width="42.1" height="0.8"/>
		<rect x="240.2" y="257" fill="#FFC20E" width="42.1" height="0.9"/>
		
			<rect x="240.2" y="257" opacity="0" fill="none" stroke="#FFFFFF" stroke-width="0.1329" stroke-linecap="round" stroke-linejoin="round" stroke-miterlimit="10" width="42.1" height="0.9"/>
		<rect x="240.2" y="248" fill="#FFC20E" width="42.1" height="0.8"/>
		
			<rect x="240.2" y="248" opacity="0" fill="none" stroke="#FFFFFF" stroke-width="0.1329" stroke-linecap="round" stroke-linejoin="round" stroke-miterlimit="10" width="42.1" height="0.8"/>
		<rect x="240.2" y="238.5" fill="#FFC20E" width="42.1" height="0.9"/>
		
			<rect x="240.2" y="238.5" opacity="0" fill="none" stroke="#FFFFFF" stroke-width="0.1329" stroke-linecap="round" stroke-linejoin="round" stroke-miterlimit="10" width="42.1" height="0.9"/>
		<rect x="240.2" y="229.5" fill="#FFC20E" width="42.1" height="0.9"/>
		
			<rect x="240.2" y="229.5" opacity="0" fill="none" stroke="#FFFFFF" stroke-width="0.1329" stroke-linecap="round" stroke-linejoin="round" stroke-miterlimit="10" width="42.1" height="0.9"/>
		<rect x="240.2" y="220.3" fill="#FFC20E" width="42.1" height="0.9"/>
		
			<rect x="240.2" y="220.3" opacity="0" fill="none" stroke="#FFFFFF" stroke-width="0.1329" stroke-linecap="round" stroke-linejoin="round" stroke-miterlimit="10" width="42.1" height="0.9"/>
		<rect x="240.2" y="211.3" fill="#FFC20E" width="42.1" height="0.9"/>
		
			<rect x="240.2" y="211.3" opacity="0" fill="none" stroke="#FFFFFF" stroke-width="0.1329" stroke-linecap="round" stroke-linejoin="round" stroke-miterlimit="10" width="42.1" height="0.9"/>
	</g>
</g>
<g id="kiosk">
</g>
<g id="conditional_access">
</g>
</svg>
