<?xml version="1.0" encoding="utf-8"?>
<!-- Generator: Adobe Illustrator 19.2.1, SVG Export Plug-In . SVG Version: 6.00 Build 0)  -->
<svg version="1.1" xmlns="http://www.w3.org/2000/svg" xmlns:xlink="http://www.w3.org/1999/xlink" x="0px" y="0px"
	 viewBox="0 0 448 361" enable-background="new 0 0 448 361" xml:space="preserve">
<g id="desktop_management">
</g>
<g id="corporate_mobile">
</g>
<g id="kiosk">
	<g>
		<path fill="#969696" d="M29.9,21.8L29.9,21.8L22.4,21l-0.8-0.8v-2.5c0.8-1.7,2.5-5,2.5-5c0.8,0,0.8,0,0.8-0.8V9.2V8.4
			c0-2.5,0-5.9-3.4-6.7h-1.7C18.2,0,15.7,0,13.2,0.8c-2.5,1.7-2.5,4.2-2.5,7.5v0.8v2.5c0,0.8,0,0.8,0.8,0.8c0,0,1.7,4.2,2.5,5v2.5
			L13.2,21l-6.7,0.8v0.8C0.6,35.2,0.6,47.8-0.3,62.1h0.8v3.4c0,0.8,0.8,1.7,2.5,1.7c0.8,0,1.7-0.8,1.7-1.7l1.7,47h9.2h6.7h6.7
			l1.7-47c0,0.8,0.8,1.7,2.5,1.7c0.8,0,2.5-0.8,2.5-1.7v-3.4h0.8C35,47.8,35.8,35.2,29.9,21.8"/>
		<path fill="#969696" d="M56.8,38.4L56.8,38.4l-7.5-1.7l-0.8-0.8v-2.5c1.7-0.8,2.5-4.2,2.5-4.2c0.8,0,0.8-0.8,0.8-1.7v-1.7v-0.8
			c0.8-3.4,0-6.7-2.5-7.5h-2.5c-1.7-0.8-4.2-0.8-6.7,0c-2.5,0.8-2.5,4.2-2.5,7.5v0.8v1.7c0,0.8,0.8,1.7,0.8,1.7s1.7,3.4,2.5,5v1.7
			L40,36.7l-6.7,1.7c-5.9,13.4-5.9,26-6.7,40.3h0.8v2.5c0,1.7,0.8,2.5,2.5,2.5c0.8,0,1.7-0.8,1.7-2.5l1.7,47.8h9.2h6.7h6.7l1.7-47.8
			c0,1.7,0.8,2.5,2.5,2.5c0.8,0,2.5-0.8,2.5-2.5v-2.5h0.8C61.8,64.4,62.6,50.9,56.8,38.4"/>
		<path fill="#969696" d="M83.6,38.4L83.6,38.4l-7.5-1.7l-0.8-0.8v-2.5c1.7-0.8,2.5-4.2,2.5-4.2c0.8,0,0.8-0.8,0.8-1.7v-1.7v-0.8
			c0.8-3.4,0-6.7-2.5-7.5h-2.5c-1.7-0.8-4.2-0.8-6.7,0c-2.5,0.8-2.5,4.2-2.5,7.5v0.8v1.7c0,0.8,0.8,1.7,0.8,1.7s1.7,3.4,2.5,5v1.7
			l-0.8,0.8l-6.7,1.7c-5.9,13.4-5,26-6.7,40.3h0.8v2.5c0,1.7,0.8,2.5,2.5,2.5c0.8,0,1.7-0.8,1.7-2.5l1.7,47.8h9.2h6.7h6.7l1.7-47.8
			c0,1.7,0.8,2.5,2.5,2.5c0.8,0,2.5-0.8,2.5-2.5v-2.5h0.8C88.6,64.4,89.5,50.9,83.6,38.4"/>
		<path fill="#969696" d="M156.9,68.6L156.9,68.6l-10.1-2.5l-1.7-0.8v-3.4c2.5-1.7,3.4-6.7,3.4-6.7c0.8,0,1.7-0.8,1.7-1.7V51v-0.8
			c0.8-5,0-9.2-4.2-10.1c-0.8-0.8-1.7-0.8-2.5-0.8c-2.5-1.7-6.7-1.7-9.2,0c-3.4,1.7-4.2,5.9-3.4,10.1c0,0.8-0.8,0.8-0.8,1.7v2.5
			c0,0.8,0.8,1.7,1.7,1.7c0,0,1.7,5,3.4,6.7v3.4l-0.8,0.8l-10.1,2.5c-8.4,18.5-7.5,36.1-9.2,55.4h1.7v4.2c0,1.7,0.8,3.4,2.5,3.4
			c2.5,0,3.4-1.7,3.4-3.4l1.7,65.4h13.4h9.2h9.2l2.5-65.4c0,1.7,1.7,3.4,3.4,3.4c1.7,0,3.4-1.7,3.4-3.4v-4.2h0.8
			C164.5,104.7,165.3,86.2,156.9,68.6"/>
		<path fill="#505050" d="M202.2,77.3L202.2,77.3l-11.7-2.5l-1.7-1.7v-4.2c1.7-2.5,4.2-8.4,4.2-8.4c0.8,0,1.7-0.8,1.7-1.7v-3.4
			c0-0.8,0-0.8-0.8-1.7c1.7-5,0-10.9-4.2-12.6h-3.4c-3.4-2.5-8.4-1.7-11.7,0c-4.2,1.7-5,6.7-4.2,12.6c0,0-0.8,0.8-0.8,1.7v3.4
			c0,0.8,0.8,1.7,1.7,1.7c0,0,2.5,6.7,5,9.2v3.4l-1.7,1.7L162,77.3c-10.1,22.6-9.2,45.3-10.9,69.6h0.8v4.2c0,2.5,1.7,4.2,4.2,4.2
			s4.2-1.7,4.2-4.2l2.5,82.2h15.9h10.9h11.7l3.4-82.2c0,2.5,1.7,4.2,4.2,4.2c1.7,0,4.2-1.7,4.2-4.2v-4.2h0.8
			C212.3,121.8,213.1,99.1,202.2,77.3"/>
		<path fill="#505050" d="M241.6,90.2L241.6,90.2l-14.3-2.5l-1.7-1.7v-5c2.5-2.5,4.2-9.2,4.2-9.2c1.7,0,2.5-0.8,2.5-1.7v-5l-0.8-0.8
			c0.8-6.7,0-12.6-5-14.3h-3.4c-4.2-2.5-10.1-2.5-13.4-0.8c-5,2.5-5.9,8.4-5,15.1c-0.8,0-0.8,0.8-0.8,0.8v5c0,0.8,0.8,1.7,2.5,1.7
			c0,0,1.7,7.5,5,10.1V86l-1.7,1.7l-14.3,2.5v0.8c-11.7,25.2-10.1,50.3-13.4,78h1.7v5.9c0,2.5,2.5,4.2,5,4.2s4.2-1.7,4.2-4.2
			l2.5,92.3h19.3h12.6h12.6l3.4-92.3c0,2.5,2.5,4.2,5,4.2c2.5,0,4.2-1.7,4.2-4.2v-5.9h1.7C251.7,141.4,253.4,115.4,241.6,90.2"/>
		<path fill="#969696" d="M113.3,53.8L113.3,53.8l-5-0.8c0.8-5,0.8-12.6,0.8-13.4c0-3.4-1.7-5.9-4.2-6.7c-1.7-2.5-3.4-3.4-5.9-3.4
			c-4.2,0-7.5,4.2-7.5,9.2c0,0,0,8.4,0.8,14.3l-5.9,0.8c-6.7,15.1-5.9,29.4-7.5,45.3h0.8v3.4c0,1.7,1.7,2.5,2.5,2.5
			c1.7,0,2.5-0.8,2.5-2.5l1.7,53.7h10.9h7.5h7.5l1.7-53.7c0,1.7,1.7,2.5,2.5,2.5c1.7,0,3.4-0.8,3.4-2.5v-3.4h0.8
			C119.2,83.2,120,68.9,113.3,53.8"/>
		<path fill="#505050" d="M390.7,73c0,0.5-0.5,0.8-1,0.8s-0.8-0.3-0.8-0.8c0-0.5,0.3-1,0.8-1S390.7,72.5,390.7,73"/>
		<path fill="#505050" d="M406.3,73c0,0.5-0.3,0.8-0.8,0.8s-0.8-0.3-0.8-0.8c0-0.5,0.3-1,0.8-1S406.3,72.5,406.3,73"/>
		<path fill="#C69B71" d="M395.2,77.2c0.2,1.2,1.2,2,2.3,2c1.2,0,2.2-0.8,2.3-2H395.2z"/>
		
			<line fill="none" stroke="#FFFFFF" stroke-width="0.6711" stroke-linecap="round" stroke-miterlimit="1" x1="394.5" y1="86.6" x2="401.2" y2="86.6"/>
		<path fill="#505050" d="M252.3,67.6c0,0.5-0.5,0.8-1,0.8s-0.8-0.3-0.8-0.8c0-0.5,0.3-1,0.8-1S252.3,67.1,252.3,67.6"/>
		<path fill="#505050" d="M267.9,67.6c0,0.5-0.3,0.8-0.8,0.8s-0.8-0.3-0.8-0.8c0-0.5,0.3-1,0.8-1S267.9,67.1,267.9,67.6"/>
		<path fill="#C69B71" d="M256.9,72.8c0.2,1.2,1.2,2,2.3,2c1.2,0,2.2-0.8,2.3-2H256.9z"/>
		
			<line fill="none" stroke="#FFFFFF" stroke-width="0.6711" stroke-linecap="round" stroke-miterlimit="1" x1="256.2" y1="80.2" x2="262.9" y2="80.2"/>
		<g>
			<path fill="#A88763" d="M260.3,90.8h26.9c4.1,0,7.7,3.3,7.7,7.7v8.5h-34.6V90.8z"/>
			<path fill="#A88763" d="M258.7,90.8h-26.9c-4.4,0-7.7,3.3-7.7,7.7v8.5h34.6V90.8z"/>
			<path d="M259.2,36.5c-13.6,0-24.9,11-24.9,24.8v20.2h49.5V61.4C283.8,47.6,272.8,36.5,259.2,36.5"/>
			<path fill="#70553A" d="M239.8,66.5c0,1.3,0.8,2,2,2h35.1c1,0,1.8-0.8,1.8-2v-4.1c0-1-0.8-2-1.8-2h-35.1c-1.3,0-2,1-2,2V66.5z"/>
			<path fill="#EC008C" d="M272.1,195.9c0,7.4-5.9,13.8-13.3,14.6v-14.6v-11.3h13.3V195.9z"/>
			<path fill="#EC008C" d="M249,259.6c7.4,0,13.8,5.9,14.6,13.3H249h-11.3v-13.3H249z"/>
			<rect x="224.1" y="105.2" fill="#A88763" width="11.5" height="79.1"/>
			
				<rect x="224.1" y="105.2" opacity="0" fill="none" stroke="#FFFFFF" stroke-width="0.2562" stroke-linecap="round" stroke-linejoin="round" stroke-miterlimit="10" width="11.5" height="79.1"/>
			<path fill="#A88763" d="M235.7,172.8v23.1c-6.4,0-11.5-5.1-11.5-11.5C224.1,177.9,229.3,172.8,235.7,172.8"/>
			<polygon fill="#A88763" points="259.2,102.4 266.2,100.8 266.2,75 252.6,75 252.6,102.4 			"/>
			
				<polygon opacity="0" fill="none" stroke="#FFFFFF" stroke-width="0.2562" stroke-linecap="round" stroke-linejoin="round" stroke-miterlimit="10" points="
				259.2,102.4 266.2,100.8 266.2,75 252.6,75 252.6,102.4 			"/>
			<path fill="#70553A" d="M266.2,86c-2.3,0.5-4.6,1-6.9,1c-2.3,0-4.6-0.5-6.7-1V75h13.6V86z"/>
			<path d="M259.2,37.3c9,0,16.1,7.2,16.1,16.1v5.9h-32.3v-5.9C243.1,44.5,250.3,37.3,259.2,37.3"/>
			<path fill="#A88763" d="M271.3,54l4.1,7.9v17.2c-4.6,3.3-10,5.1-16.1,5.1c-8.5,0-16.1-5.1-16.1-5.1V61.9l2.6-7.9H271.3z"/>
			<rect x="238" y="167.7" fill="#333333" width="14.4" height="92"/>
			
				<rect x="238" y="167.7" opacity="0" fill="none" stroke="#FFFFFF" stroke-width="0.2562" stroke-linecap="round" stroke-linejoin="round" stroke-miterlimit="10" width="11" height="92"/>
			
				<line opacity="0" fill="none" stroke="#FFFFFF" stroke-width="0.2562" stroke-linecap="round" stroke-linejoin="round" stroke-miterlimit="10" x1="249" y1="207.6" x2="249" y2="207.6"/>
			<polygon fill="#00D8CC" points="277.7,90.8 258.7,101.9 242.1,90.8 237.7,90.8 237.7,167.9 281,167.9 281,90.8 			"/>
			
				<polygon opacity="0" fill="none" stroke="#FFFFFF" stroke-width="0.2562" stroke-linecap="round" stroke-linejoin="round" stroke-miterlimit="10" points="
				277.7,90.8 258.7,101.9 242.1,90.8 237.7,90.8 237.7,167.9 281,167.9 281,90.8 			"/>
			<path d="M264.9,53.4c1,4.9,5.1,8.5,10.5,8.5v-8.5H264.9z"/>
			<path d="M243.1,53.4v8.5c8.7,0,16.4-3.1,22.3-8.5H243.1z"/>
			<rect x="238" y="167.7" fill="#333333" width="42.8" height="17.2"/>
			
				<rect x="238" y="167.7" opacity="0" fill="none" stroke="#FFFFFF" stroke-width="0.2562" stroke-linecap="round" stroke-linejoin="round" stroke-miterlimit="10" width="42.8" height="17.2"/>
			<path fill="#333333" d="M307.7,173.8h-63.8v11h75.3C319,178.7,313.8,173.8,307.7,173.8"/>
			<path fill="#333333" d="M307.7,195.9h-35.6v-11h47.1C319,191,313.8,195.9,307.7,195.9"/>
			
				<line fill="none" stroke="#000000" stroke-width="1.0247" stroke-linecap="round" stroke-miterlimit="1" x1="252" y1="184.6" x2="309.1" y2="184.6"/>
			<line fill="none" stroke="#FFFFFF" stroke-width="1.0247" stroke-miterlimit="1" x1="240.8" y1="167.7" x2="240.8" y2="259.6"/>
			<rect x="283.3" y="104.2" fill="#A88763" width="11.5" height="80.2"/>
			
				<rect x="283.3" y="104.2" opacity="0" fill="none" stroke="#FFFFFF" stroke-width="0.2562" stroke-linecap="round" stroke-linejoin="round" stroke-miterlimit="1" width="11.5" height="80.2"/>
			<path fill="#A88763" d="M283.3,172.8v23.1c6.4,0,11.5-5.1,11.5-11.5C294.9,177.9,289.7,172.8,283.3,172.8"/>
			<path fill="#FFFFFF" d="M250.5,67.8c0,0.8-0.5,1.3-1.3,1.3s-1.3-0.5-1.3-1.3c0-0.8,0.5-1.3,1.3-1.3S250.5,67,250.5,67.8"/>
			<path fill="#FFFFFF" d="M270,67.8c0,0.8-0.5,1.3-1.3,1.3c-0.8,0-1.3-0.5-1.3-1.3c0-0.8,0.5-1.3,1.3-1.3
				C269.5,66.5,270,67,270,67.8"/>
			<path fill="#70553A" d="M256.4,72.4c0.3,1.3,1.5,2.3,3.1,2.3c1.3,0,2.6-1,2.8-2.3H256.4z"/>
			
				<line fill="none" stroke="#FFFFFF" stroke-width="0.7758" stroke-linecap="round" stroke-miterlimit="1" x1="254.9" y1="78.5" x2="263.9" y2="78.5"/>
		</g>
		<g>
			<rect x="301.8" y="225" fill="#00188F" width="32.2" height="54.9"/>
			
				<rect x="301.8" y="225" opacity="0" fill="none" stroke="#FFFFFF" stroke-width="0.2703" stroke-linecap="round" stroke-linejoin="round" stroke-miterlimit="10" width="32.2" height="54.9"/>
			<path fill="#E0BB8D" d="M344.3,302.8c6.2,0,11.6,3.2,14.6,7.8l0.5,1.9l-19.2,0.3c-4.6,0-8.4-5.4-8.9-10H344.3z"/>
			<rect x="299.7" y="87.9" fill="#6D4929" width="38.1" height="23"/>
			
				<rect x="299.7" y="87.9" opacity="0" fill="none" stroke="#FFFFFF" stroke-width="0.2703" stroke-linecap="round" stroke-linejoin="round" stroke-miterlimit="10" width="38.1" height="23"/>
			<path fill="#C3986F" d="M295.6,73.3c0,1.4,1.1,2.4,2.2,2.4h41.9c1.4,0,2.4-1.1,2.4-2.4v-5.1c0-1.4-1.1-2.2-2.4-2.2h-41.9
				c-1.1,0-2.2,0.8-2.2,2.2V73.3z"/>
			<polygon fill="#E0BB8D" points="318.9,114.1 327,106.3 327,87.4 310.7,87.4 310.7,106.3 			"/>
			
				<polygon opacity="0" fill="none" stroke="#FFFFFF" stroke-width="0.2703" stroke-linecap="round" stroke-linejoin="round" stroke-miterlimit="10" points="
				318.9,114.1 327,106.3 327,87.4 310.7,87.4 310.7,106.3 			"/>
			<path fill="#C3986F" d="M327,96.3c-2.7,0.8-5.1,1.1-8.1,1.1c-2.7,0-5.4-0.3-8.1-1.1v-13H327V96.3z"/>
			<path fill="#E0BB8D" d="M337.8,58.2v29.7c-5.1,4.1-11.9,6.2-18.9,6.2c-7,0-14.1-2.2-19.2-6.2V58.2H337.8z"/>
			<path fill="#6D4929" d="M311,41.7c2.4-1.1,4.9-1.6,7.8-1.6c10.5,0,19.2,8.6,19.2,19.2v9.5C323.7,67.1,312.6,55.8,311,41.7"/>
			<path fill="#6D4929" d="M326.7,41.7c-2.4-1.1-5.1-1.6-7.8-1.6c-10.5,0-19.2,8.6-19.2,19.2v9.5C313.7,67.1,325.1,55.8,326.7,41.7"
				/>
			<path fill="#E0BB8D" d="M359.4,184.4h8.1l11.6-13.5h-17.6v-33.5h-13.8v35.4C347.8,179.3,352.9,184.4,359.4,184.4"/>
			<rect x="331.3" y="193.9" fill="#E0BB8D" width="13.2" height="110.5"/>
			
				<rect x="331.3" y="193.9" opacity="0" fill="none" stroke="#FFFFFF" stroke-width="0.2703" stroke-linecap="round" stroke-linejoin="round" stroke-miterlimit="10" width="13.2" height="110.5"/>
			<rect x="293.2" y="193.9" fill="#E0BB8D" width="13.2" height="110.5"/>
			
				<rect x="293.2" y="193.9" opacity="0" fill="none" stroke="#FFFFFF" stroke-width="0.2703" stroke-linecap="round" stroke-linejoin="round" stroke-miterlimit="10" width="13.2" height="110.5"/>
			<rect x="277" y="136.6" fill="#E0BB8D" width="13.8" height="81.9"/>
			
				<rect x="277" y="136.6" opacity="0" fill="none" stroke="#FFFFFF" stroke-width="0.2703" stroke-linecap="round" stroke-linejoin="round" stroke-miterlimit="10" width="13.8" height="81.9"/>
			<rect x="294.3" y="102.2" fill="#E0BB8D" width="49.7" height="20.5"/>
			
				<rect x="294.3" y="102.2" opacity="0" fill="none" stroke="#FFFFFF" stroke-width="0.2703" stroke-linecap="round" stroke-linejoin="round" stroke-miterlimit="10" width="49.7" height="20.5"/>
			<path fill="#00BCF2" d="M293.5,102.2h1.9c3.8,9.5,13,16.2,23.8,16.2c10.8,0,20-6.8,23.8-16.2h1.6c10.5,0,18.9,8.4,18.9,18.9v42.7
				h-15.7v-27h-3.2v143l-38.1-30.5l-13.2,29.2V136.8h-2.4V162h-15.9v-40.8C274.8,110.6,283.2,102.2,293.5,102.2"/>
			<path fill="#E0BB8D" d="M290.7,204.7v27.6c-7.6,0-13.8-6.2-13.8-13.8C277,210.9,283.2,204.7,290.7,204.7"/>
			<rect x="293.2" y="166.8" fill="#00188F" width="51.3" height="6.2"/>
			
				<rect x="293.2" y="166.8" opacity="0" fill="none" stroke="#FFFFFF" stroke-width="0.2703" stroke-linecap="round" stroke-linejoin="round" stroke-miterlimit="10" width="51.3" height="6.2"/>
			<path fill="#524940" d="M331.3,302.8c0.5,4.6,4.3,7.8,8.9,7.8h18.6c1.6,2.4,2.7,5.1,3,8.1h-17.3h-13.2V302.8z"/>
			<path fill="#E0BB8D" d="M306.4,302.8c6.2,0,11.6,3.2,14.6,7.8l0.3,1.9l-19.2,0.3c-4.6,0-8.1-5.4-8.6-10H306.4z"/>
			<path fill="#524940" d="M293.5,302.8c0.5,4.6,4.3,7.8,8.9,7.8H321c1.6,2.4,2.7,5.1,3,8.1h-17.6h-13.2v-15.9H293.5z"/>
			<path fill="#E0BB8D" d="M354,170.9h27.3c0,7.6-6.2,13.5-13.8,13.5C359.9,184.4,354,178.5,354,170.9"/>
			<path d="M373.7,187.1c0,0.5,0.3,0.8,0.8,0.8h17.3c0.3,0,0.8-0.3,0.8-0.8v-36.2c0-0.5-0.5-0.8-0.8-0.8h-17.3
				c-0.5,0-0.8,0.3-0.8,0.8V187.1z"/>
			<rect x="375.9" y="164.1" fill="#00BCF2" width="14.6" height="7.6"/>
			
				<rect x="375.9" y="164.1" opacity="0" fill="none" stroke="#FFFFFF" stroke-width="0.2703" stroke-linecap="round" stroke-linejoin="round" stroke-miterlimit="10" width="14.6" height="7.6"/>
			<rect x="375.9" y="171.7" fill="#FFB900" width="14.6" height="11.6"/>
			
				<rect x="375.9" y="171.7" opacity="0" fill="none" stroke="#FFFFFF" stroke-width="0.2703" stroke-linecap="round" stroke-linejoin="round" stroke-miterlimit="10" width="14.6" height="11.6"/>
			<rect x="383.2" y="157.1" fill="#FFB900" width="7.3" height="7"/>
			
				<rect x="383.2" y="157.1" opacity="0" fill="none" stroke="#FFFFFF" stroke-width="0.2703" stroke-linecap="round" stroke-linejoin="round" stroke-miterlimit="10" width="7.3" height="7"/>
			<rect x="375.9" y="157.1" fill="#FFFFFF" width="7.3" height="7"/>
			
				<rect x="375.9" y="157.1" opacity="0" fill="none" stroke="#FFFFFF" stroke-width="0.2703" stroke-linecap="round" stroke-linejoin="round" stroke-miterlimit="10" width="7.3" height="7"/>
			<rect x="373.4" y="178.2" width="1.1" height="4.6"/>
			
				<rect x="373.4" y="178.2" opacity="0" fill="none" stroke="#FFFFFF" stroke-width="0.2703" stroke-linecap="round" stroke-linejoin="round" stroke-miterlimit="10" width="1.1" height="4.6"/>
			<path fill="#969696" d="M380.7,153.1c0,0.3,0,0.3,0.3,0.3h3.8c0.3,0,0.3,0,0.3-0.3c0-0.3,0-0.3-0.3-0.3H381
				C380.7,152.8,380.7,152.8,380.7,153.1"/>
			<path fill="#E0BB8D" d="M382.9,172.5c0,1.1-0.8,1.9-1.9,1.9h-10.5c-0.8,0-1.6-0.8-1.6-1.9c0-0.8,0.8-1.6,1.6-1.6H381
				C382.1,170.9,382.9,171.7,382.9,172.5"/>
			<path fill="#EEEEEE" d="M329.1,73.9c0,0.8,0.5,1.4,1.4,1.4c0.8,0,1.4-0.5,1.4-1.4c0-0.8-0.5-1.4-1.4-1.4
				C329.7,72.5,329.1,73,329.1,73.9"/>
			<path fill="#EEEEEE" d="M305.6,73.9c0,0.8,0.5,1.4,1.4,1.4c0.8,0,1.4-0.5,1.4-1.4c0-0.8-0.5-1.4-1.4-1.4
				C306.2,72.5,305.6,73,305.6,73.9"/>
			<path fill="#C3986F" d="M321.8,79.3c-0.3,1.1-1.6,2.2-3,2.2s-2.7-1.1-3-2.2H321.8z"/>
			<path fill="#EC008C" d="M319.1,30.6c10.3,0,18.6,8.4,18.6,18.6V56h-37.3v-6.8C300.5,39,308.9,30.6,319.1,30.6"/>
			<path fill="#EC008C" d="M354,54.9c-8.4,9.7-21.1,15.9-34.9,15.9c-14.1,0-26.5-6.2-35.1-15.9H354z"/>
			<rect x="300.5" y="49.3" width="37.3" height="5.7"/>
			
				<rect x="300.5" y="49.3" opacity="0" fill="none" stroke="#FFFFFF" stroke-width="0.2703" stroke-linecap="round" stroke-linejoin="round" stroke-miterlimit="10" width="37.3" height="5.7"/>
			<path fill="#B4009E" d="M325.1,85.9c-0.6-0.9-2.1-1.8-3.3-1.8c-1.5,0-2.7,0.9-3.6,1.8H325.1z"/>
			<path fill="#B4009E" d="M319.6,85.9c-0.9-0.9-2.1-1.8-3.6-1.8s-2.7,0.9-3.3,1.8H319.6z"/>
			<path fill="#F472D0" d="M314.2,88.4h9.4c0.9,0,1.5-0.9,1.5-1.8v-0.6h-12.4v0.6C312.6,87.4,313.2,88.4,314.2,88.4"/>
		</g>
		<g>
			<path d="M421.1,66v-8.8c0-10.5-8.5-19-19-19h-3.5c-10.2,0-18.7,8.5-18.7,19V66H421.1z"/>
			<path fill="#C3986F" d="M375.2,80c0,1.5,1.2,2.6,2.6,2.6h45.3c1.5,0,2.3-1.2,2.3-2.6v-5.6c0-1.5-0.9-2.3-2.3-2.3h-45.3
				c-1.5,0-2.6,0.9-2.6,2.3V80z"/>
			<rect x="372.8" y="210.4" fill="#00BCF2" width="55.2" height="18.1"/>
			
				<rect x="372.8" y="210.4" opacity="0" fill="none" stroke="#FFFFFF" stroke-width="0.2924" stroke-linecap="round" stroke-linejoin="round" stroke-miterlimit="10" width="55.2" height="18.1"/>
			<rect x="413.8" y="210.4" fill="#00BCF2" width="14.3" height="134.8"/>
			
				<rect x="413.8" y="210.4" opacity="0" fill="none" stroke="#FFFFFF" stroke-width="0.2924" stroke-linecap="round" stroke-linejoin="round" stroke-miterlimit="10" width="14.3" height="134.8"/>
			<path fill="#563F25" d="M428.1,343.5c9.9,0,17.8,7.6,18.7,17.3h-18.7h-14.3v-17.3H428.1z"/>
			<rect x="372.8" y="210.4" fill="#00BCF2" width="14.3" height="134.8"/>
			
				<rect x="372.8" y="210.4" opacity="0" fill="none" stroke="#FFFFFF" stroke-width="0.2924" stroke-linecap="round" stroke-linejoin="round" stroke-miterlimit="10" width="14.3" height="134.8"/>
			<path fill="#563F25" d="M387.2,343.5c9.6,0,17.8,7.6,18.7,17.3h-18.7h-14.3v-17.3H387.2z"/>
			<path fill="#505050" d="M372.8,111h55.2c11.1,0,20.2,9.4,20.2,20.5v17h-20.2v62h-55.2v-62h-20.2v-17
				C352.7,120.4,361.7,111,372.8,111"/>
			<rect x="355.3" y="148.4" fill="#E0BB8D" width="14.9" height="88.6"/>
			
				<rect x="355.3" y="148.4" opacity="0" fill="none" stroke="#FFFFFF" stroke-width="0.2924" stroke-linecap="round" stroke-linejoin="round" stroke-miterlimit="10" width="14.9" height="88.6"/>
			<path fill="#E0BB8D" d="M370.2,221.8v29.8c-8.5,0-14.9-6.7-14.9-14.9S361.7,221.8,370.2,221.8"/>
			<rect x="430.7" y="148.4" fill="#E0BB8D" width="14.9" height="88.6"/>
			<path fill="#E0BB8D" d="M430.7,221.8v29.8c8.5,0,14.9-6.7,14.9-14.9S439.2,221.8,430.7,221.8"/>
			<rect x="355" y="218.3" fill="#E81123" width="15.2" height="7.9"/>
			
				<rect x="355" y="218.3" opacity="0" fill="none" stroke="#FFFFFF" stroke-width="0.2924" stroke-linecap="round" stroke-linejoin="round" stroke-miterlimit="10" width="15.2" height="7.9"/>
			<polygon fill="#E0BB8D" points="400.3,119.8 409.1,111 409.1,90.8 391.6,90.8 391.6,111 			"/>
			
				<polygon opacity="0" fill="none" stroke="#FFFFFF" stroke-width="0.2924" stroke-linecap="round" stroke-linejoin="round" stroke-miterlimit="10" points="
				400.3,119.8 409.1,111 409.1,90.8 391.6,90.8 391.6,111 			"/>
			<path fill="#C3986F" d="M409.1,104.9c-2.6,0.9-5.6,1.2-8.5,1.2c-3.2,0-6.1-0.3-9.1-1.2v-14h17.5V104.9z"/>
			<path fill="#E0BB8D" d="M421.1,63.6v32.2h-0.3c-5.6,4.4-12.6,7-20.2,7c-7.6,0-15.2-2.6-20.8-7V63.6H421.1z"/>
			<rect x="355.3" y="148.4" fill="#C3986F" width="14.9" height="4.4"/>
			
				<rect x="355.3" y="148.4" opacity="0" fill="none" stroke="#FFFFFF" stroke-width="0.2924" stroke-linecap="round" stroke-linejoin="round" stroke-miterlimit="10" width="14.9" height="4.4"/>
			<rect x="430.7" y="148.4" fill="#C3986F" width="14.9" height="4.4"/>
			
				<rect x="430.7" y="148.4" opacity="0" fill="none" stroke="#FFFFFF" stroke-width="0.2924" stroke-linecap="round" stroke-linejoin="round" stroke-miterlimit="10" width="14.9" height="4.4"/>
			<rect x="417.9" y="61" width="3.2" height="21.6"/>
			
				<rect x="417.9" y="61" opacity="0" fill="none" stroke="#FFFFFF" stroke-width="0.2924" stroke-linecap="round" stroke-linejoin="round" stroke-miterlimit="10" width="3.2" height="21.6"/>
			<rect x="379.9" y="61" width="3.2" height="21.6"/>
			
				<rect x="379.9" y="61" opacity="0" fill="none" stroke="#FFFFFF" stroke-width="0.2924" stroke-linecap="round" stroke-linejoin="round" stroke-miterlimit="10" width="3.2" height="21.6"/>
			<path fill="#505050" d="M391,77.4c0,0.9-0.9,1.5-1.8,1.5c-0.9,0-1.5-0.6-1.5-1.5c0-0.9,0.6-1.8,1.5-1.8
				C390.1,75.6,391,76.5,391,77.4"/>
			<path fill="#505050" d="M413.2,77.4c0,0.9-0.6,1.5-1.5,1.5c-0.9,0-1.8-0.6-1.8-1.5c0-0.9,0.9-1.8,1.8-1.8
				C412.6,75.6,413.2,76.5,413.2,77.4"/>
			<path fill="#C3986F" d="M400.3,87.6c1.8,0,2.9-1.2,2.9-2.6h-5.6C397.7,86.4,398.9,87.6,400.3,87.6"/>
			<path fill="#C3986F" d="M406.5,96.1c0,0.9-0.6,1.8-1.5,1.8h-9.1c-0.9,0-1.5-0.9-1.5-1.8c0-0.9,0.6-1.8,1.5-1.8h9.1
				C405.9,94.3,406.5,95.2,406.5,96.1"/>
			<path d="M407.1,100.8c-1.5,0.3-3.2,0.6-4.7,0.9v-3.8h-3.8v3.8c-1.5-0.3-3.2-0.6-5-0.9v-2.3c0-3.8,3.2-3.8,6.7-3.8
				c3.8,0,7,0,7,3.8C407.3,98.4,407.1,100.5,407.1,100.8 M400.3,87.6c-6.1,0-11.1,5.3-11.1,11.4v6.1v0.9c3.8,1.2,7.3,1.8,11.4,1.8
				c3.8,0,7.6-0.6,11.1-1.8v-0.9V99C411.7,92.9,406.8,87.6,400.3,87.6"/>
			<path fill="#00188F" d="M400.3,66.8h-12c-2.6,0-6.7,0.6-7.9,4.1c-0.6,1.8-1.8,2.3-1.8,2.3v1.5c0,0,0.6,0.9,0.9,2.3
				c0.3,1.5,0.6,7.3,8.2,7.3c7.6,0,9.4-5.3,10.5-8.5c1.2-2.6,2-2.3,2-2.3V66.8z"/>
			<path fill="#0193B5" d="M390.4,67.7c4.4,0,7,0.9,7.3,1.2c0.3,0.3,0.9,2.3,0,5.3c-0.9,2.9-3.2,9.4-9.9,9.4s-7.3-4.7-7-7.9
				C381,69.2,383.4,67.7,390.4,67.7"/>
			<path fill="#00188F" d="M400.3,66.8h12c2.6,0,6.7,0.6,7.9,4.1c0.6,1.8,1.8,2.3,1.8,2.3v1.5c0,0-0.6,0.9-0.6,2.3
				c-0.3,1.5-0.9,7.3-8.5,7.3c-7.6,0-9.1-5.3-10.5-8.5c-0.9-2.6-2-2.3-2-2.3V66.8z"/>
			<path fill="#0193B5" d="M410.6,67.7c-4.4,0-7,0.9-7.3,1.2c-0.6,0.3-1.2,2.3,0,5.3c0.9,2.9,2.9,9.4,9.6,9.4c7,0,7.3-4.7,7-7.9
				C419.6,69.2,417.3,67.7,410.6,67.7"/>
			<path fill="#232358" d="M400.9,71.5c0,0.3-0.3,0.6-0.6,0.6c-0.3,0-0.6-0.3-0.6-0.6v-2.3c0-0.3,0.3-0.6,0.6-0.6
				c0.3,0,0.6,0.3,0.6,0.6V71.5z"/>
		</g>
	</g>
</g>
<g id="conditional_access">
</g>
</svg>
