<?xml version="1.0" encoding="utf-8"?>
<!-- Generator: Adobe Illustrator 19.2.1, SVG Export Plug-In . SVG Version: 6.00 Build 0)  -->
<svg version="1.1" xmlns="http://www.w3.org/2000/svg" xmlns:xlink="http://www.w3.org/1999/xlink" x="0px" y="0px"
	 viewBox="0 0 172 146" enable-background="new 0 0 172 146" xml:space="preserve">
<g id="desktop_management">
</g>
<g id="corporate_mobile">
	<g>
		<g>
			<circle fill="#E6E7E8" cx="22.2" cy="115.5" r="7"/>
			<circle fill="#E6E7E8" cx="16.1" cy="133.4" r="4.9"/>
			<circle fill="#E6E7E8" cx="4.6" cy="142.6" r="3.4"/>
		</g>
		<polygon fill="#E6E7E8" points="159.4,85.7 161.7,89.7 161,93.6 165.5,98.9 155.8,99.7 161.3,106.8 161.1,112.1 150.6,108.5 
			147.4,110 152.6,124.5 146.7,123.7 141.6,123.5 135.1,118.1 133.7,127.5 127.9,121.9 125.1,129.1 121.6,135.3 115.9,125.4 
			112.6,135.9 107.4,123.9 103.3,128 99,123.4 94.8,135.3 90.2,134.7 85.9,130.5 80.6,136.4 77,129.8 72.7,128.3 69.7,122.7 
			66,120.5 57.4,130.6 57.4,119.1 49.3,125.2 48.7,117.1 41,120.5 38.6,115.9 38.4,109 40.4,100.6 29.9,104.9 31.6,97.7 20.2,100.6 
			20.6,94.7 22,88.7 22.3,83.9 16.4,81.4 10.6,78.1 10.5,73.2 14.6,68 18.2,63.6 15.3,59 18.4,55.2 25.6,53.5 14.4,43.5 26,45 
			20.9,36 23.2,31.6 28.9,30.5 37.6,33.6 35.7,24.3 39.5,21.8 42.2,17.4 51.3,24.3 51,14.3 56.4,15.2 63.6,21.2 64.8,12.4 
			70.4,15.5 71.2,2 76,2 82.5,11.5 87.2,14.1 90.7,8 94.9,4.2 99.4,10.3 104,4.5 108.8,3.1 114.4,-0.1 117.5,6.6 123.2,4.9 
			122.4,16.9 130.6,11.3 135.7,12.1 134.9,20.6 144,17.3 147.2,20.9 138.4,34.4 153.8,27.9 150.2,36 151.4,40.4 159.6,40.9 
			152.6,49.4 152.8,53.8 155.9,57.1 167.8,57.8 164.3,63.5 160.9,68.8 170.8,71.5 169.1,76.4 158.7,81.7 		"/>
		<g>
			<g>
				<defs>
					<rect id="SVGID_19_" x="44.8" y="32.5" width="20.2" height="35.5"/>
				</defs>
				<clipPath id="SVGID_2_">
					<use xlink:href="#SVGID_19_"  overflow="visible"/>
				</clipPath>
				
					<rect x="44.3" y="32.9" opacity="0" clip-path="url(#SVGID_2_)" fill="none" stroke="#FFFFFF" stroke-width="0.1768" stroke-linecap="round" stroke-linejoin="round" stroke-miterlimit="10" width="19.6" height="34.6"/>
				<path clip-path="url(#SVGID_2_)" fill="#333333" d="M63.1,64.5c0,1.1-0.9,2.1-2.1,2.1H47.3c-1.2,0-2.1-1.1-2.1-2.1V36
					c0-1.1,0.9-2.1,2.1-2.1h13.6c1.2,0,2.1,1.1,2.1,2.1V64.5z"/>
				<rect x="46.1" y="36" clip-path="url(#SVGID_2_)" width="16.1" height="24.7"/>
				
					<rect x="46.1" y="36" opacity="0" clip-path="url(#SVGID_2_)" fill="none" stroke="#FFFFFF" stroke-width="0.1768" stroke-linecap="round" stroke-linejoin="round" stroke-miterlimit="10" width="16.1" height="24.7"/>
				<path clip-path="url(#SVGID_2_)" fill="#FFFFFF" d="M47.5,63.3L47.5,63.3l-0.9-0.7l0.9-0.5c0-0.2,0-0.2,0.2,0v0.2L47,62.6
					l0.7,0.5v0.2H47.5z"/>
				<path clip-path="url(#SVGID_2_)" fill="#FFFFFF" d="M48,62.7h-1.2c0,0-0.2,0-0.2-0.2h0.2H48h0.2C48.2,62.7,48,62.7,48,62.7"/>
				<path clip-path="url(#SVGID_2_)" fill="#FFFFFF" d="M60.9,62.2c-0.2,0-0.2,0.2-0.2,0.4c0,0.2,0,0.2,0.2,0.2c0.2,0,0.4,0,0.4-0.2
					C61.3,62.4,61.1,62.2,60.9,62.2 M60.9,63.1c-0.2,0-0.5-0.4-0.5-0.5c0-0.4,0.4-0.7,0.5-0.7c0.4,0,0.7,0.4,0.7,0.7
					C61.6,62.7,61.3,63.1,60.9,63.1"/>
				<path clip-path="url(#SVGID_2_)" fill="#FFFFFF" d="M60.2,63.3L60.2,63.3v-0.2l0.4-0.4h0.2c0.2,0,0.2,0.2,0,0.2l-0.4,0.4H60.2z"
					/>
				<rect x="53.7" y="62.2" clip-path="url(#SVGID_2_)" fill="#FFFFFF" width="0.4" height="0.4"/>
				
					<rect x="53.7" y="62.2" opacity="0" clip-path="url(#SVGID_2_)" fill="none" stroke="#FFFFFF" stroke-width="0.1768" stroke-linecap="round" stroke-linejoin="round" stroke-miterlimit="10" width="0.4" height="0.4"/>
				<rect x="53.7" y="62.7" clip-path="url(#SVGID_2_)" fill="#FFFFFF" width="0.4" height="0.4"/>
				
					<rect x="53.7" y="62.7" opacity="0" clip-path="url(#SVGID_2_)" fill="none" stroke="#FFFFFF" stroke-width="0.1768" stroke-linecap="round" stroke-linejoin="round" stroke-miterlimit="10" width="0.4" height="0.4"/>
				<polygon clip-path="url(#SVGID_2_)" fill="#FFFFFF" points="54.2,63.1 54.7,63.3 54.7,62.7 54.2,62.7 				"/>
				
					<polygon opacity="0" clip-path="url(#SVGID_2_)" fill="none" stroke="#FFFFFF" stroke-width="0.1768" stroke-linecap="round" stroke-linejoin="round" stroke-miterlimit="10" points="
					54.2,63.1 54.7,63.3 54.7,62.7 54.2,62.7 				"/>
				<rect x="54.2" y="62.2" clip-path="url(#SVGID_2_)" fill="#FFFFFF" width="0.5" height="0.4"/>
				
					<rect x="54.2" y="62.2" opacity="0" clip-path="url(#SVGID_2_)" fill="none" stroke="#FFFFFF" stroke-width="0.1768" stroke-linecap="round" stroke-linejoin="round" stroke-miterlimit="10" width="0.5" height="0.4"/>
			</g>
			<g>
				<defs>
					<rect id="SVGID_21_" x="80.7" y="80.1" width="19.7" height="35.5"/>
				</defs>
				<clipPath id="SVGID_4_">
					<use xlink:href="#SVGID_21_"  overflow="visible"/>
				</clipPath>
				<path clip-path="url(#SVGID_4_)" fill="#EC008C" d="M99.8,113.1c0,0.9-0.7,1.4-1.4,1.4H82.2c-0.9,0-1.6-0.5-1.6-1.4V81.5
					c0-0.9,0.7-1.6,1.6-1.6h16.1c0.7,0,1.4,0.7,1.4,1.6V113.1z"/>
				<rect x="81.7" y="84.9" clip-path="url(#SVGID_4_)" fill="#505050" width="17" height="24.7"/>
				
					<rect x="81.7" y="84.9" opacity="0" clip-path="url(#SVGID_4_)" fill="none" stroke="#FFFFFF" stroke-width="0.1768" stroke-linecap="round" stroke-linejoin="round" stroke-miterlimit="10" width="17" height="24.7"/>
				<path clip-path="url(#SVGID_4_)" fill="#333333" d="M95.5,82.2c0,0.2-0.2,0.2-0.4,0.2h-9.9c-0.2,0-0.4,0-0.4-0.2
					c0-0.2,0.2-0.4,0.4-0.4h9.9C95.3,81.9,95.5,82.1,95.5,82.2"/>
				<path clip-path="url(#SVGID_4_)" fill="#333333" d="M83.6,112.1c0,0.4-0.4,0.5-0.5,0.5h-0.9c-0.4,0-0.5-0.2-0.5-0.5
					c0-0.2,0.2-0.5,0.5-0.5h0.9C83.3,111.5,83.6,111.9,83.6,112.1"/>
				<path clip-path="url(#SVGID_4_)" fill="#333333" d="M98.7,112.1c0,0.4-0.2,0.5-0.5,0.5h-0.9c-0.2,0-0.5-0.2-0.5-0.5
					c0-0.2,0.4-0.5,0.5-0.5h0.9C98.5,111.5,98.7,111.9,98.7,112.1"/>
				<path clip-path="url(#SVGID_4_)" fill="#333333" d="M92.3,112.1c0,0.7-0.5,1.2-1.1,1.2h-1.9c-0.7,0-1.1-0.5-1.1-1.2
					c0-0.5,0.4-1.1,1.1-1.1h1.9C91.8,111,92.3,111.5,92.3,112.1"/>
			</g>
			<g>
				<defs>
					<rect id="SVGID_23_" x="113.3" y="31.3" width="19.2" height="35.5"/>
				</defs>
				<clipPath id="SVGID_6_">
					<use xlink:href="#SVGID_23_"  overflow="visible"/>
				</clipPath>
				<path clip-path="url(#SVGID_6_)" d="M131,65.6c0,0.4-0.4,0.7-0.7,0.7h-15.9c-0.4,0-0.7-0.4-0.7-0.7V32.3c0-0.4,0.4-0.7,0.7-0.7
					h15.9c0.4,0,0.7,0.4,0.7,0.7V65.6z"/>
				<rect x="115.3" y="38.6" clip-path="url(#SVGID_6_)" fill="#00AEEF" width="14.3" height="6.9"/>
				
					<rect x="115.3" y="38.6" opacity="0" clip-path="url(#SVGID_6_)" fill="none" stroke="#FFFFFF" stroke-width="0.1764" stroke-linecap="round" stroke-linejoin="round" stroke-miterlimit="10" width="14.3" height="6.9"/>
				<rect x="115.3" y="45.9" clip-path="url(#SVGID_6_)" fill="#FFFFFF" width="3.2" height="3.2"/>
				
					<rect x="115.3" y="45.9" opacity="0" clip-path="url(#SVGID_6_)" fill="none" stroke="#FFFFFF" stroke-width="0.1764" stroke-linecap="round" stroke-linejoin="round" stroke-miterlimit="10" width="3.2" height="3.2"/>
				<rect x="118.8" y="45.9" clip-path="url(#SVGID_6_)" fill="#00AEEF" width="3.4" height="3.2"/>
				
					<rect x="118.8" y="45.9" opacity="0" clip-path="url(#SVGID_6_)" fill="none" stroke="#FFFFFF" stroke-width="0.1764" stroke-linecap="round" stroke-linejoin="round" stroke-miterlimit="10" width="3.4" height="3.2"/>
				<rect x="122.5" y="45.9" clip-path="url(#SVGID_6_)" fill="#00AEEF" width="3.4" height="3.2"/>
				
					<rect x="122.5" y="45.9" opacity="0" clip-path="url(#SVGID_6_)" fill="none" stroke="#FFFFFF" stroke-width="0.1764" stroke-linecap="round" stroke-linejoin="round" stroke-miterlimit="10" width="3.4" height="3.2"/>
				<rect x="126.2" y="45.9" clip-path="url(#SVGID_6_)" fill="#00AEEF" width="3.4" height="3.2"/>
				
					<rect x="126.2" y="45.9" opacity="0" clip-path="url(#SVGID_6_)" fill="none" stroke="#FFFFFF" stroke-width="0.1764" stroke-linecap="round" stroke-linejoin="round" stroke-miterlimit="10" width="3.4" height="3.2"/>
				<rect x="115.3" y="49.4" clip-path="url(#SVGID_6_)" fill="#00AEEF" width="6.9" height="6.9"/>
				
					<rect x="115.3" y="49.4" opacity="0" clip-path="url(#SVGID_6_)" fill="none" stroke="#FFFFFF" stroke-width="0.1764" stroke-linecap="round" stroke-linejoin="round" stroke-miterlimit="10" width="6.9" height="6.9"/>
				<rect x="122.5" y="49.4" clip-path="url(#SVGID_6_)" fill="#FDB813" width="3.4" height="3.4"/>
				
					<rect x="122.5" y="49.4" opacity="0" clip-path="url(#SVGID_6_)" fill="none" stroke="#FFFFFF" stroke-width="0.1764" stroke-linecap="round" stroke-linejoin="round" stroke-miterlimit="10" width="3.4" height="3.4"/>
				<rect x="126.2" y="49.4" clip-path="url(#SVGID_6_)" fill="#00AEEF" width="3.4" height="3.4"/>
				
					<rect x="126.2" y="49.4" opacity="0" clip-path="url(#SVGID_6_)" fill="none" stroke="#FFFFFF" stroke-width="0.1764" stroke-linecap="round" stroke-linejoin="round" stroke-miterlimit="10" width="3.4" height="3.4"/>
				<rect x="122.5" y="52.9" clip-path="url(#SVGID_6_)" fill="#FFFFFF" width="3.4" height="3.4"/>
				
					<rect x="122.5" y="52.9" opacity="0" clip-path="url(#SVGID_6_)" fill="none" stroke="#FFFFFF" stroke-width="0.1764" stroke-linecap="round" stroke-linejoin="round" stroke-miterlimit="10" width="3.4" height="3.4"/>
				<rect x="126.2" y="52.9" clip-path="url(#SVGID_6_)" fill="#00AEEF" width="3.4" height="3.4"/>
				
					<rect x="126.2" y="52.9" opacity="0" clip-path="url(#SVGID_6_)" fill="none" stroke="#FFFFFF" stroke-width="0.1764" stroke-linecap="round" stroke-linejoin="round" stroke-miterlimit="10" width="3.4" height="3.4"/>
				<rect x="126.2" y="60.2" clip-path="url(#SVGID_6_)" fill="#00AEEF" width="3.4" height="1.9"/>
				
					<rect x="126.2" y="60.2" opacity="0" clip-path="url(#SVGID_6_)" fill="none" stroke="#FFFFFF" stroke-width="0.1764" stroke-linecap="round" stroke-linejoin="round" stroke-miterlimit="10" width="3.4" height="1.9"/>
				<rect x="118.8" y="59.8" clip-path="url(#SVGID_6_)" fill="#00AEEF" width="7.1" height="2.3"/>
				
					<rect x="118.8" y="59.8" opacity="0" clip-path="url(#SVGID_6_)" fill="none" stroke="#FFFFFF" stroke-width="0.1764" stroke-linecap="round" stroke-linejoin="round" stroke-miterlimit="10" width="7.1" height="2.3"/>
				<rect x="115.3" y="60.2" clip-path="url(#SVGID_6_)" fill="#00AEEF" width="3.2" height="1.9"/>
				
					<rect x="115.3" y="60.2" opacity="0" clip-path="url(#SVGID_6_)" fill="none" stroke="#FFFFFF" stroke-width="0.1764" stroke-linecap="round" stroke-linejoin="round" stroke-miterlimit="10" width="3.2" height="1.9"/>
				<rect x="115.3" y="56.6" clip-path="url(#SVGID_6_)" fill="#4BC1BF" width="3.2" height="3.2"/>
				
					<rect x="115.3" y="56.6" opacity="0" clip-path="url(#SVGID_6_)" fill="none" stroke="#FFFFFF" stroke-width="0.1764" stroke-linecap="round" stroke-linejoin="round" stroke-miterlimit="10" width="3.2" height="3.2"/>
				<rect x="118.8" y="56.6" clip-path="url(#SVGID_6_)" fill="#00AEEF" width="7.1" height="3.2"/>
				
					<rect x="118.8" y="56.6" opacity="0" clip-path="url(#SVGID_6_)" fill="none" stroke="#FFFFFF" stroke-width="0.1764" stroke-linecap="round" stroke-linejoin="round" stroke-miterlimit="10" width="7.1" height="3.2"/>
				<rect x="126.2" y="56.6" clip-path="url(#SVGID_6_)" fill="#68217A" width="3.4" height="3.2"/>
				
					<rect x="126.2" y="56.6" opacity="0" clip-path="url(#SVGID_6_)" fill="none" stroke="#FFFFFF" stroke-width="0.1764" stroke-linecap="round" stroke-linejoin="round" stroke-miterlimit="10" width="3.4" height="3.2"/>
				<path clip-path="url(#SVGID_6_)" fill="#969696" d="M116.9,64.9L116.9,64.9l-0.7-0.5l0.7-0.5h0.2c0,0,0,0.2-0.2,0.2l-0.4,0.4
					l0.4,0.4l0.2,0.2H116.9z"/>
				<path clip-path="url(#SVGID_6_)" fill="#969696" d="M117.2,64.6h-0.9c0,0-0.2,0-0.2-0.2h0.2h0.9h0.2
					C117.4,64.6,117.4,64.6,117.2,64.6"/>
				<path clip-path="url(#SVGID_6_)" fill="#969696" d="M128,64c-0.2,0-0.4,0.2-0.4,0.4c0,0,0.2,0.2,0.4,0.2c0.2,0,0.2-0.2,0.2-0.2
					C128.2,64.2,128.2,64,128,64 M128,64.7c-0.4,0-0.5-0.2-0.5-0.4c0-0.4,0.2-0.5,0.5-0.5c0.2,0,0.4,0.2,0.4,0.5
					C128.3,64.6,128.2,64.7,128,64.7"/>
				<path clip-path="url(#SVGID_6_)" fill="#969696" d="M127.3,65.1v-0.2v-0.2l0.4-0.2c0-0.2,0.2-0.2,0.2,0l-0.4,0.4
					C127.5,64.9,127.5,65.1,127.3,65.1"/>
				<polygon clip-path="url(#SVGID_6_)" fill="#969696" points="122.3,64.4 122.9,64.4 122.9,63.9 122.3,64 				"/>
				
					<polygon opacity="0" clip-path="url(#SVGID_6_)" fill="none" stroke="#FFFFFF" stroke-width="0.1764" stroke-linecap="round" stroke-linejoin="round" stroke-miterlimit="10" points="
					122.3,64.4 122.9,64.4 122.9,63.9 122.3,64 				"/>
				<rect x="121.8" y="64" clip-path="url(#SVGID_6_)" fill="#969696" width="0.4" height="0.4"/>
				
					<rect x="121.8" y="64" opacity="0" clip-path="url(#SVGID_6_)" fill="none" stroke="#FFFFFF" stroke-width="0.1764" stroke-linecap="round" stroke-linejoin="round" stroke-miterlimit="10" width="0.4" height="0.4"/>
				<rect x="122.3" y="64.4" clip-path="url(#SVGID_6_)" fill="#969696" width="0.5" height="0.5"/>
				
					<rect x="122.3" y="64.4" opacity="0" clip-path="url(#SVGID_6_)" fill="none" stroke="#FFFFFF" stroke-width="0.1764" stroke-linecap="round" stroke-linejoin="round" stroke-miterlimit="10" width="0.5" height="0.5"/>
				<rect x="121.8" y="64.4" clip-path="url(#SVGID_6_)" fill="#969696" width="0.4" height="0.5"/>
				
					<rect x="121.8" y="64.4" opacity="0" clip-path="url(#SVGID_6_)" fill="none" stroke="#FFFFFF" stroke-width="0.1764" stroke-linecap="round" stroke-linejoin="round" stroke-miterlimit="10" width="0.4" height="0.5"/>
				<rect x="130.1" y="57.5" clip-path="url(#SVGID_6_)" width="1.2" height="4.1"/>
				
					<rect x="130.1" y="57.5" opacity="0" clip-path="url(#SVGID_6_)" fill="none" stroke="#FFFFFF" stroke-width="0.1764" stroke-linecap="round" stroke-linejoin="round" stroke-miterlimit="10" width="1.2" height="4.1"/>
				<path clip-path="url(#SVGID_6_)" fill="#969696" d="M124.6,33.7c0,0.2-0.2,0.2-0.4,0.2h-3.5c-0.2,0-0.4,0-0.4-0.2
					c0-0.2,0.2-0.4,0.4-0.4h3.5C124.5,33.3,124.6,33.5,124.6,33.7"/>
				<rect x="115.5" y="36" clip-path="url(#SVGID_6_)" fill="#FFFFFF" width="0.2" height="0.7"/>
				
					<rect x="115.5" y="36" opacity="0" clip-path="url(#SVGID_6_)" fill="none" stroke="#FFFFFF" stroke-width="0.1764" stroke-linecap="round" stroke-linejoin="round" stroke-miterlimit="10" width="0.2" height="0.7"/>
				<rect x="115.3" y="36.2" clip-path="url(#SVGID_6_)" fill="#FFFFFF" width="0.2" height="0.5"/>
				
					<rect x="115.3" y="36.2" opacity="0" clip-path="url(#SVGID_6_)" fill="none" stroke="#FFFFFF" stroke-width="0.1764" stroke-linecap="round" stroke-linejoin="round" stroke-miterlimit="10" width="0.2" height="0.5"/>
				<rect x="115.1" y="36.3" clip-path="url(#SVGID_6_)" fill="#FFFFFF" width="0.2" height="0.4"/>
				
					<rect x="115.1" y="36.3" opacity="0" clip-path="url(#SVGID_6_)" fill="none" stroke="#FFFFFF" stroke-width="0.1764" stroke-linecap="round" stroke-linejoin="round" stroke-miterlimit="10" width="0.2" height="0.4"/>
				<rect x="114.9" y="36.3" clip-path="url(#SVGID_6_)" fill="#FFFFFF" width="0.2" height="0.4"/>
				
					<rect x="114.9" y="36.3" opacity="0" clip-path="url(#SVGID_6_)" fill="none" stroke="#FFFFFF" stroke-width="0.1764" stroke-linecap="round" stroke-linejoin="round" stroke-miterlimit="10" width="0.2" height="0.4"/>
				<rect x="114.8" y="36.5" clip-path="url(#SVGID_6_)" fill="#FFFFFF" width="0.2" height="0.2"/>
				
					<rect x="114.8" y="36.5" opacity="0" clip-path="url(#SVGID_6_)" fill="none" stroke="#FFFFFF" stroke-width="0.1764" stroke-linecap="round" stroke-linejoin="round" stroke-miterlimit="10" width="0.2" height="0.2"/>
				<rect x="127.1" y="36" clip-path="url(#SVGID_6_)" fill="#FFFFFF" width="0.7" height="0.7"/>
				
					<rect x="127.1" y="36" opacity="0" clip-path="url(#SVGID_6_)" fill="none" stroke="#FFFFFF" stroke-width="0.1764" stroke-linecap="round" stroke-linejoin="round" stroke-miterlimit="10" width="0.7" height="0.7"/>
				<rect x="126.6" y="36.2" clip-path="url(#SVGID_6_)" fill="#FFFFFF" width="0.2" height="0.4"/>
				
					<rect x="126.6" y="36.2" opacity="0" clip-path="url(#SVGID_6_)" fill="none" stroke="#FFFFFF" stroke-width="0.1764" stroke-linecap="round" stroke-linejoin="round" stroke-miterlimit="10" width="0.2" height="0.4"/>
			</g>
			<g>
				<path fill="#515150" d="M54.7,79.4c1-1,2.3-1.6,3.7-1.6c1.9,0,3.6,1.1,4.6,2.7c0.8-0.4,1.7-0.5,2.6-0.5c3.5,0,6.4,2.9,6.4,6.4
					c0,3.5-2.8,6.4-6.4,6.4c-0.4,0-0.8,0-1.3-0.1C63.5,94,62,95,60.3,95c-0.7,0-1.4-0.2-2-0.5c-0.8,1.9-2.7,3.2-4.9,3.2
					c-2.3,0-4.2-1.4-5-3.5c-0.3,0.1-0.7,0.1-1,0.1c-2.7,0-4.9-2.2-4.9-5c0-1.8,1-3.4,2.5-4.3c-0.3-0.7-0.5-1.5-0.5-2.3
					c0-3.2,2.6-5.7,5.7-5.7C52,77.1,53.7,78,54.7,79.4"/>
				<path fill="#FFFFFF" d="M46.7,87.8C46.7,87.9,46.7,87.9,46.7,87.8c0.1,0.1,0.1,0.1,0.2,0.2c0.3,0.2,0.6,0.2,0.9,0.2
					c0.6,0,1-0.3,1-0.8v0c0-0.5-0.4-0.7-0.8-0.8l-0.1,0c-0.3-0.1-0.6-0.2-0.6-0.4v0c0-0.2,0.2-0.3,0.4-0.3c0.3,0,0.6,0.1,0.8,0.2
					c0,0,0.1,0,0.1,0c0,0,0.1-0.3,0.1-0.3c0,0,0-0.1,0-0.1c-0.2-0.1-0.5-0.2-0.9-0.2l-0.1,0c-0.6,0-0.9,0.3-0.9,0.8v0
					c0,0.5,0.4,0.7,0.8,0.8l0.1,0c0.3,0.1,0.5,0.2,0.5,0.4v0c0,0.2-0.2,0.3-0.4,0.3c-0.1,0-0.4,0-0.8-0.2c0,0-0.1,0-0.1-0.1
					c0,0-0.1,0-0.1,0L46.7,87.8z"/>
				<path fill="#FFFFFF" d="M55.6,87.8C55.6,87.9,55.6,87.9,55.6,87.8c0.1,0.1,0.1,0.1,0.2,0.2c0.3,0.2,0.6,0.2,0.9,0.2
					c0.6,0,1-0.3,1-0.8v0c0-0.5-0.4-0.7-0.8-0.8l-0.1,0c-0.3-0.1-0.6-0.2-0.6-0.4v0c0-0.2,0.2-0.3,0.4-0.3c0.3,0,0.6,0.1,0.8,0.2
					c0,0,0.1,0,0.1,0c0,0,0.1-0.3,0.1-0.3c0,0,0-0.1,0-0.1c-0.2-0.1-0.5-0.2-0.9-0.2l-0.1,0c-0.6,0-0.9,0.3-0.9,0.8v0
					c0,0.5,0.4,0.7,0.8,0.8l0.1,0c0.3,0.1,0.5,0.2,0.5,0.4v0c0,0.2-0.2,0.3-0.4,0.3c-0.1,0-0.4,0-0.8-0.2c0,0-0.1,0-0.1-0.1
					c0,0-0.1,0-0.1,0L55.6,87.8z"/>
				<path fill="#FFFFFF" d="M62.1,86.3c0-0.2-0.1-0.3-0.2-0.4c-0.1-0.1-0.2-0.2-0.4-0.3c-0.2-0.1-0.3-0.1-0.5-0.1
					c-0.2,0-0.4,0-0.5,0.1c-0.2,0.1-0.3,0.2-0.4,0.3c-0.1,0.1-0.2,0.3-0.2,0.4c0,0.2-0.1,0.3-0.1,0.5c0,0.2,0,0.4,0.1,0.5
					c0,0.2,0.1,0.3,0.2,0.4c0.1,0.1,0.2,0.2,0.4,0.3s0.3,0.1,0.5,0.1c0.2,0,0.4,0,0.5-0.1c0.2-0.1,0.3-0.2,0.4-0.3
					c0.1-0.1,0.2-0.3,0.2-0.4c0-0.2,0.1-0.3,0.1-0.5C62.2,86.6,62.2,86.4,62.1,86.3 M61.6,86.8c0,0.3-0.1,0.5-0.2,0.7
					c-0.1,0.2-0.3,0.2-0.5,0.2c-0.2,0-0.4-0.1-0.5-0.2c-0.1-0.2-0.2-0.4-0.2-0.7c0-0.3,0.1-0.5,0.2-0.7c0.1-0.2,0.3-0.2,0.5-0.2
					c0.2,0,0.4,0.1,0.5,0.2C61.6,86.3,61.6,86.5,61.6,86.8"/>
				<path fill-rule="evenodd" clip-rule="evenodd" fill="#FFFFFF" d="M66.3,87.6C66.3,87.6,66.2,87.6,66.3,87.6c-0.1,0-0.2,0-0.3,0
					c-0.1,0-0.2,0-0.3,0c-0.2,0-0.4-0.1-0.6-0.2c-0.1-0.1-0.2-0.4-0.2-0.7c0-0.3,0.1-0.5,0.2-0.7c0.1-0.2,0.3-0.2,0.6-0.2
					c0.2,0,0.4,0,0.5,0.1c0,0,0,0,0.1,0c0-0.1,0.1-0.2,0.1-0.3c0,0,0-0.1,0-0.1c-0.1,0-0.2-0.1-0.3-0.1c-0.1,0-0.2,0-0.4,0
					c-0.2,0-0.4,0-0.6,0.1c-0.2,0.1-0.3,0.2-0.4,0.3c-0.1,0.1-0.2,0.3-0.2,0.4c-0.1,0.2-0.1,0.3-0.1,0.5c0,0.4,0.1,0.8,0.3,1
					c0.2,0.2,0.6,0.4,1,0.4c0.3,0,0.5-0.1,0.7-0.1c0,0,0,0,0-0.1L66.3,87.6z"/>
				<path fill-rule="evenodd" clip-rule="evenodd" fill="#FFFFFF" d="M68.9,86.2c0-0.2-0.1-0.3-0.2-0.4c-0.1-0.1-0.2-0.2-0.3-0.2
					c-0.1-0.1-0.3-0.1-0.5-0.1c-0.2,0-0.4,0-0.6,0.1c-0.2,0.1-0.3,0.2-0.4,0.3c-0.1,0.1-0.2,0.3-0.2,0.4c0,0.2-0.1,0.4-0.1,0.5
					c0,0.2,0,0.4,0.1,0.5c0.1,0.2,0.1,0.3,0.2,0.4c0.1,0.1,0.3,0.2,0.4,0.3c0.2,0.1,0.4,0.1,0.6,0.1c0.5,0,0.8-0.1,0.9-0.2
					c0,0,0,0,0-0.1l-0.1-0.3c0,0-0.1,0-0.1,0c-0.1,0-0.3,0.1-0.7,0.1c-0.3,0-0.5-0.1-0.6-0.2c-0.1-0.1-0.2-0.3-0.2-0.6l1.7,0
					c0,0,0,0,0,0C68.9,86.9,69,86.5,68.9,86.2 M67.2,86.5c0-0.2,0.1-0.3,0.1-0.4c0.1-0.2,0.3-0.2,0.5-0.2s0.4,0.1,0.5,0.2
					c0.1,0.1,0.1,0.2,0.1,0.4L67.2,86.5z"/>
				<path fill-rule="evenodd" clip-rule="evenodd" fill="#FFFFFF" d="M55.2,86.2c0-0.2-0.1-0.3-0.2-0.4c-0.1-0.1-0.2-0.2-0.3-0.2
					c-0.1-0.1-0.3-0.1-0.5-0.1c-0.2,0-0.4,0-0.6,0.1c-0.2,0.1-0.3,0.2-0.4,0.3c-0.1,0.1-0.2,0.3-0.2,0.4c0,0.2-0.1,0.4-0.1,0.5
					c0,0.2,0,0.4,0.1,0.5c0.1,0.2,0.1,0.3,0.2,0.4c0.1,0.1,0.3,0.2,0.4,0.3c0.2,0.1,0.4,0.1,0.6,0.1c0.5,0,0.8-0.1,0.9-0.2
					c0,0,0,0,0-0.1L55,87.6c0,0-0.1,0-0.1,0c-0.1,0-0.3,0.1-0.7,0.1c-0.3,0-0.5-0.1-0.6-0.2c-0.1-0.1-0.2-0.3-0.2-0.6l1.7,0
					c0,0,0,0,0,0C55.2,86.9,55.3,86.5,55.2,86.2 M53.5,86.5c0-0.2,0.1-0.3,0.1-0.4c0.1-0.2,0.3-0.2,0.5-0.2s0.4,0.1,0.5,0.2
					c0.1,0.1,0.1,0.2,0.1,0.4L53.5,86.5z"/>
				<path fill="#FFFFFF" d="M50.5,86.4c-0.1,0-0.2,0-0.3,0c-0.1,0-0.3,0-0.4,0.1c-0.1,0-0.3,0.1-0.4,0.2c-0.1,0.1-0.2,0.2-0.2,0.3
					c-0.1,0.1-0.1,0.2-0.1,0.4c0,0.2,0,0.3,0.1,0.4c0.1,0.1,0.1,0.2,0.2,0.3c0.1,0.1,0.2,0.1,0.3,0.2c0.1,0,0.3,0,0.5,0
					c0.2,0,0.3,0,0.5,0c0.2,0,0.4-0.1,0.4-0.1c0.1,0,0.1,0,0.1,0c0,0,0-0.1,0-0.1l0-1.6c0-0.3-0.1-0.6-0.3-0.8
					c-0.2-0.2-0.4-0.2-0.8-0.2c-0.1,0-0.3,0-0.5,0c0,0-0.4,0.1-0.5,0.2c0,0,0,0,0,0.1l0.1,0.3c0,0,0.1,0,0.1,0s0,0,0,0
					c0.3-0.2,0.7-0.2,0.7-0.2c0.2,0,0.3,0,0.4,0.1c0.1,0.1,0.1,0.2,0.1,0.4v0.1C50.6,86.4,50.5,86.4,50.5,86.4 M49.8,87.6
					c-0.1-0.1-0.1-0.1-0.1-0.1c0-0.1-0.1-0.1-0.1-0.2c0-0.1,0-0.3,0.2-0.3c0,0,0.1-0.1,0.5-0.1c0.2,0,0.5,0,0.5,0v0.8
					c0,0-0.2,0-0.5,0.1C49.9,87.8,49.8,87.6,49.8,87.6"/>
				<path fill-rule="evenodd" clip-rule="evenodd" fill="#FFFFFF" d="M64.2,85.5C64.3,85.5,64.2,85.5,64.2,85.5
					c-0.1-0.1-0.2-0.1-0.3-0.1c-0.2,0-0.3,0-0.4,0.1c-0.1,0-0.2,0.1-0.3,0.2l0-0.2c0,0,0-0.1,0-0.1h-0.4c0,0,0,0,0,0.1v2.6
					c0,0,0,0.1,0.1,0.1h0.4c0,0,0.1,0,0.1-0.1v-1.3c0-0.2,0-0.3,0.1-0.4c0-0.1,0.1-0.2,0.1-0.3c0.1-0.1,0.1-0.1,0.2-0.1
					c0.1,0,0.2,0,0.2,0c0.1,0,0.2,0,0.2,0c0,0,0.1,0,0.1,0C64.1,85.8,64.2,85.6,64.2,85.5"/>
				<path fill-rule="evenodd" clip-rule="evenodd" fill="#FFFFFF" d="M60,84.4c-0.1,0-0.1,0-0.2,0c-0.1,0-0.1,0-0.2,0
					c-0.3,0-0.6,0.1-0.7,0.3c-0.2,0.2-0.3,0.4-0.3,0.8l0,0.1h-0.4c0,0,0,0-0.1,0L58,85.9c0,0,0,0.1,0.1,0.1h0.4l-0.4,2.1
					c0,0.2-0.1,0.3-0.1,0.4c0,0.1-0.1,0.2-0.1,0.2c0,0.1-0.1,0.1-0.2,0.1c-0.1,0-0.1,0-0.2,0c0,0-0.1,0-0.1,0c0,0-0.1,0-0.1,0
					c0,0,0,0-0.1,0c0,0-0.1,0.3-0.1,0.3c0,0,0,0.1,0,0.1c0.1,0,0.1,0,0.2,0c0.1,0,0.2,0,0.3,0c0.2,0,0.3,0,0.4-0.1
					c0.1,0,0.2-0.1,0.3-0.2c0.1-0.1,0.2-0.2,0.2-0.4c0.1-0.2,0.1-0.3,0.2-0.6l0.4-2.2h0.6c0,0,0,0,0.1,0l0.1-0.4c0,0,0-0.1-0.1-0.1
					h-0.5c0,0,0-0.2,0.1-0.4c0-0.1,0.1-0.1,0.1-0.2c0,0,0.1-0.1,0.1-0.1c0.1,0,0.1,0,0.2,0c0.1,0,0.1,0,0.1,0c0.1,0,0.1,0,0.1,0
					c0.1,0,0.1,0,0.1,0L60,84.4C60.1,84.4,60,84.4,60,84.4"/>
				<path fill-rule="evenodd" clip-rule="evenodd" fill="#FFFFFF" d="M52.4,88.1C52.4,88.1,52.4,88.1,52.4,88.1l-0.5,0.1
					c0,0,0,0,0-0.1v-3.6c0,0,0-0.1,0-0.1h0.5c0,0,0,0,0,0.1V88.1z"/>
			</g>
			<g id="fb_4_">
				<g>
					<g>
						<path fill="#4F504F" d="M128.8,86.7l-2.6,0c-0.3,0-0.7,0.4-0.7,1l0,1.7h3.3l0,3.2h-3.2l0,7.9l-3.3,0l0-7.9h-2.6l0-3.2h2.6
							v-1.6c0-2.4,1.7-4.2,3.9-4.2l2.6,0L128.8,86.7z"/>
					</g>
				</g>
			</g>
			<g id="outlook_4_">
				<path fill="#515150" d="M97.2,43.9c0-0.5-0.6-0.7-1-0.6c-2.2,0-4.3,0-6.4,0c0-1.4,0-2.8,0-4.1v-0.2c-3.2,0.6-7.6,1.3-10.8,1.9
					c0,4.8,0,9.7,0,14.5c3.2,0.5,7.6,1.3,10.8,1.8v-0.2c0-1.3,0-2.6,0-3.9c2.3,0,4.6,0,6.8,0c0.6,0,0.6-0.7,0.6-1.2
					C97.2,49.1,97.3,46.5,97.2,43.9z M85.7,50.8c-1.2,1.1-3.3,0.5-3.9-1.1c-0.7-1.7-0.4-4.4,1.6-5.1c1.2-0.4,2.5,0.2,3,1.3
					C87.2,47.5,87.1,49.6,85.7,50.8z M96.6,52.3c-2.3,0-4.6,0-6.8,0c0-1.8,0-3.6,0-5.4c0.8,0.7,1.5,1.5,2.3,2.1
					c0.4,0.1,0.6-0.2,0.8-0.4c1.2-1.2,2.5-2.4,3.8-3.5C96.6,47.5,96.6,49.9,96.6,52.3z M96.3,44.5c-1.4,1.3-2.7,2.6-4.1,3.9
					c-0.8-0.7-1.6-1.5-2.4-2.3c0-0.7,0-1.5,0-2.3c2.3,0,4.6,0,6.9,0C96.6,44.1,96.6,44.4,96.3,44.5z"/>
				<path fill="#515150" d="M83.7,45.9c0.6-0.3,1.2,0,1.5,0.5c0.4,0.8,0.4,1.8,0.1,2.7c-0.2,0.6-0.9,1.1-1.5,0.9
					c-0.8-0.2-1.1-1.2-1.1-2C82.7,47.2,82.9,46.2,83.7,45.9z"/>
			</g>
		</g>
	</g>
</g>
<g id="kiosk">
</g>
<g id="conditional_access">
</g>
</svg>
