<?xml version="1.0" encoding="utf-8"?>
<!-- Generator: Adobe Illustrator 19.2.1, SVG Export Plug-In . SVG Version: 6.00 Build 0)  -->
<svg version="1.1" xmlns="http://www.w3.org/2000/svg" xmlns:xlink="http://www.w3.org/1999/xlink" x="0px" y="0px"
	 viewBox="0 0 101 62" enable-background="new 0 0 101 62" xml:space="preserve">
<g id="desktop_management">
</g>
<g id="corporate_mobile">
</g>
<g id="kiosk">
</g>
<g id="conditional_access">
	<g>
		<path d="M100.6,60.6c0,0.5-1,1.4-1.4,1.4H1.9c-0.5,0-1.4-1-1.4-1.4V1.4c0-1,1-1.4,1.4-1.4h97.3c0.5,0,1.4,0.5,1.4,1.4V60.6z"/>
		<rect x="4.7" y="5.3" fill="#BADB0A" width="91.6" height="51.5"/>
		<g>
			<rect x="11" y="40.7" width="15" height="2.5"/>
			<rect x="32.1" y="40.7" width="15" height="2.5"/>
			<rect x="53.2" y="40.7" width="15" height="2.5"/>
			<rect x="74.3" y="40.7" width="15" height="2.5"/>
			<g>
				<path d="M22.8,20.3v1.1c-0.8-0.4-1.6-0.6-2.5-0.6c-0.8,0-1.6,0.2-2.3,0.6s-1.2,1-1.7,1.7c-0.5,0.7-0.8,1.6-1.1,2.7
					s-0.4,2.2-0.4,3.4h0c0.8-1.9,2.2-2.8,4.2-2.8c0.7,0,1.3,0.1,1.9,0.4s1,0.6,1.4,1.1s0.7,1,0.9,1.6s0.3,1.3,0.3,2
					c0,0.8-0.1,1.6-0.4,2.3s-0.6,1.3-1,1.8s-1,0.9-1.6,1.2s-1.3,0.4-2,0.4c-0.8,0-1.5-0.2-2.1-0.5s-1.1-0.8-1.5-1.5s-0.7-1.4-1-2.4
					c-0.2-1-0.3-2.1-0.3-3.3c0-1.5,0.1-2.8,0.4-4s0.7-2.2,1.3-3.1c0.6-0.8,1.2-1.5,2.1-2s1.7-0.7,2.8-0.7
					C21.2,19.9,22.1,20.1,22.8,20.3z M18.9,27.5c-0.6,0-1.1,0.1-1.5,0.3s-0.9,0.5-1.2,0.9c-0.3,0.4-0.6,0.8-0.8,1.3S15,31,15,31.5
					c0,0.6,0.1,1.3,0.3,1.8s0.4,1.1,0.8,1.5c0.3,0.4,0.7,0.8,1.2,1s1,0.4,1.6,0.4c0.5,0,1-0.1,1.5-0.3s0.9-0.5,1.2-0.9
					s0.6-0.9,0.8-1.4s0.3-1.1,0.3-1.8c0-0.7-0.1-1.3-0.3-1.8s-0.4-1-0.7-1.4s-0.7-0.7-1.2-0.9S19.5,27.5,18.9,27.5z"/>
			</g>
			<g>
				<path d="M41.5,19.8V37h-1.1V21.5c-0.5,0.5-1.2,1-1.8,1.3s-1.4,0.7-2.3,1v-1c0.5-0.2,0.9-0.3,1.4-0.6s0.8-0.4,1.2-0.7
					s0.8-0.5,1.1-0.8s0.7-0.6,1.1-1H41.5z"/>
			</g>
			<g>
				<path d="M56.7,36.9v-1.2c0.9,0.4,1.7,0.6,2.5,0.6c1.8,0,3.1-0.7,4.1-2.1s1.4-3.5,1.4-6.3h0c-0.8,1.8-2.1,2.7-4.1,2.7
					c-0.7,0-1.3-0.1-1.9-0.4s-1.1-0.6-1.5-1.1s-0.7-1-0.9-1.6s-0.3-1.3-0.3-2.1c0-0.8,0.1-1.6,0.4-2.3s0.6-1.3,1.1-1.7
					s1-0.9,1.6-1.1s1.3-0.4,2-0.4c0.7,0,1.4,0.2,2,0.5s1.1,0.8,1.5,1.4s0.7,1.4,1,2.4s0.3,2.1,0.3,3.3c0,1.6-0.1,2.9-0.4,4.2
					c-0.3,1.2-0.7,2.2-1.3,3.1s-1.2,1.5-2.1,1.9s-1.8,0.7-2.8,0.7C58.3,37.3,57.4,37.2,56.7,36.9z M60.7,20.9
					c-0.5,0-1.1,0.1-1.5,0.3s-0.9,0.5-1.2,0.9s-0.6,0.8-0.8,1.4s-0.3,1.1-0.3,1.7c0,0.7,0.1,1.3,0.3,1.8s0.4,1,0.8,1.4
					s0.7,0.7,1.2,0.9s1,0.3,1.5,0.3c0.5,0,1-0.1,1.5-0.3s0.9-0.5,1.2-0.8s0.6-0.8,0.8-1.2s0.3-1,0.3-1.5c0-0.7-0.1-1.4-0.3-2
					s-0.4-1.1-0.8-1.6s-0.7-0.8-1.2-1S61.2,20.9,60.7,20.9z"/>
			</g>
		</g>
	</g>
</g>
</svg>
