<?xml version="1.0" encoding="utf-8"?>
<!-- Generator: Adobe Illustrator 19.2.1, SVG Export Plug-In . SVG Version: 6.00 Build 0)  -->
<svg version="1.1" xmlns="http://www.w3.org/2000/svg" xmlns:xlink="http://www.w3.org/1999/xlink" x="0px" y="0px"
	 viewBox="0 0 33 56" enable-background="new 0 0 33 56" xml:space="preserve">
<g id="desktop_management">
</g>
<g id="corporate_mobile">
	<g>
		<path fill="#DD5900" d="M14.2,37.4c-0.2-0.5-0.4-1.1-0.5-1.9c-0.1-0.8-0.2-1.6-0.2-2.3c0-0.9,0.1-1.7,0.4-2.5
			c0.2-0.7,0.6-1.4,1-2.1c0.4-0.7,1-1.3,1.6-1.9c0.6-0.6,1.3-1.3,2-1.9c0.6-0.6,1.2-1.1,1.8-1.8s1.1-1.3,1.6-2s0.8-1.5,1.1-2.3
			c0.3-0.8,0.4-1.7,0.4-2.7c0-1.1-0.2-2-0.5-2.9c-0.4-0.8-0.9-1.6-1.5-2.2c-0.6-0.6-1.4-1-2.3-1.4c-0.9-0.3-1.9-0.5-3-0.5
			c-1.8,0-3.5,0.3-5,1c-1.5,0.6-3,1.5-4.3,2.6V9.6c1.4-1,2.8-1.8,4.3-2.3c1.5-0.5,3.2-0.8,5.1-0.8c1.4,0,2.8,0.2,4,0.6
			c1.2,0.4,2.3,1,3.2,1.8c0.9,0.8,1.6,1.7,2.1,2.9s0.8,2.4,0.8,3.9c0,1.1-0.2,2.1-0.5,3c-0.3,0.9-0.7,1.8-1.2,2.5
			c-0.5,0.8-1.1,1.5-1.7,2.2c-0.6,0.7-1.3,1.3-1.9,2c-1,1-1.9,1.8-2.5,2.5c-0.6,0.7-1.2,1.3-1.5,1.8c-0.4,0.5-0.6,1.1-0.8,1.6
			c-0.1,0.5-0.2,1.1-0.2,1.8c0,0.9,0.1,1.7,0.2,2.4c0.2,0.7,0.3,1.3,0.5,1.8H14.2z M15.3,49.5c-0.7,0-1.2-0.2-1.6-0.7
			c-0.4-0.5-0.7-1-0.7-1.7c0-0.7,0.2-1.2,0.7-1.7c0.4-0.4,1-0.7,1.6-0.7c0.7,0,1.2,0.2,1.7,0.7c0.5,0.4,0.7,1,0.7,1.7
			c0,0.7-0.2,1.2-0.7,1.7C16.5,49.2,15.9,49.5,15.3,49.5z"/>
	</g>
</g>
<g id="kiosk">
</g>
<g id="conditional_access">
</g>
</svg>
