<?xml version="1.0" encoding="utf-8"?>
<!-- Generator: Adobe Illustrator 19.2.1, SVG Export Plug-In . SVG Version: 6.00 Build 0)  -->
<svg version="1.1" xmlns="http://www.w3.org/2000/svg" xmlns:xlink="http://www.w3.org/1999/xlink" x="0px" y="0px"
	 viewBox="0 0 104 149" enable-background="new 0 0 104 149" xml:space="preserve">
<g id="desktop_management">
</g>
<g id="corporate_mobile">
</g>
<g id="kiosk">
</g>
<g id="conditional_access">
	<g>
		<polygon fill="#BADB0A" points="103.8,41.9 103.8,55.2 70.4,55.2 70.4,148.8 58.8,148.8 58.8,55.2 11.8,55.2 11.8,148.8 
			0.2,148.8 0.2,55.2 0.2,54.1 0.2,41.9 		"/>
		<polygon fill="#BADB0A" points="103.8,41.9 103.8,53.9 103.8,55.2 103.8,148.8 92.2,148.8 92.2,55.2 45.2,55.2 45.2,148.8 
			33.6,148.8 33.6,55.2 33.6,53.9 33.6,41.9 		"/>
		<polygon opacity="0.1" points="39.4,41.9 39.4,53.9 39.4,55.2 39.4,148.8 33.6,148.8 33.6,55.2 6,55.2 6,148.8 0.2,148.8 
			0.2,55.2 0.2,53.9 0.2,41.9 		"/>
		<rect x="58.7" y="55.2" opacity="0.1" width="11.7" height="93.6"/>
		<g>
			<path fill="#E3E3E3" d="M53.3,14.8c0,0-1.7-2.4-1.7-5.1C51.8,7,54,2.4,52.4,0.4C51.6-0.8,56,3.6,54,8.9
				C52.3,13.1,53.3,14.8,53.3,14.8"/>
			<path fill="#002050" d="M60.3,34.3c0,0.3-0.3,0.7-0.7,0.7H45.4c-0.3,0-0.7-0.3-0.7-0.7v-0.8c0-0.3,0.3-0.7,0.7-0.7h14.2
				c0.3,0,0.7,0.3,0.7,0.7V34.3z"/>
			<path fill="#002050" d="M66.8,28.8c0,0.5-0.5,1-1,1H39c-0.5,0-0.8-0.5-0.8-1V18.3c0-0.5,0.3-1,0.8-1h26.8c0.5,0,1,0.5,1,1V28.8z"
				/>
			<path fill="#002050" d="M66.8,29c0,5.1-6.4,9.1-14.4,9.1c-8,0-14.2-4.1-14.2-9.1c0-5.1,6.3-9.1,14.2-9.1
				C60.3,19.8,66.8,23.9,66.8,29"/>
			<path fill="#002050" d="M63.7,33.1l-0.8-2.5c3.1-1.2,6.4-2.5,6.9-2.7c0.3-0.2,0.5-0.3,0.8-0.5c1.4-0.5,3.2-1.4,2.4-4.9
				c-0.2-1-0.7-1.4-1-1.5c-1.7-0.7-4.9,0.7-5.8,1.2l-1.4-2.2c0.5-0.3,4.9-2.7,8.1-1.4c0.8,0.3,2,1.4,2.5,3.4
				c1.4,5.6-2.4,7.3-3.9,7.8c-0.2,0.2-0.3,0.2-0.3,0.2C70.5,30.5,65.7,32.2,63.7,33.1"/>
			<path fill="#002050" d="M74.5,37.5c0,1.7-10,3.2-22.4,3.2C40,40.7,30,39.2,30,37.5H74.5z"/>
			<path fill="#002050" d="M65.7,40.7c0,0.5-0.5,1-1,1H39.8c-0.5,0-1-0.5-1-1v-0.5c0-0.5,0.5-1,1-1h24.9c0.5,0,1,0.5,1,1V40.7z"/>
		</g>
	</g>
</g>
</svg>
