<?xml version="1.0" encoding="utf-8"?>
<!-- Generator: Adobe Illustrator 19.2.1, SVG Export Plug-In . SVG Version: 6.00 Build 0)  -->
<svg version="1.1" xmlns="http://www.w3.org/2000/svg" xmlns:xlink="http://www.w3.org/1999/xlink" x="0px" y="0px"
	 viewBox="0 0 218.4 210.1" enable-background="new 0 0 218.4 210.1" xml:space="preserve">
<g id="Layer_1">
	<g>
		<g>
			<path fill="#4F504F" d="M64.7,7.8h-1.3v-5c0-0.4,0-0.9,0.1-1.5h0c-0.1,0.3-0.1,0.6-0.2,0.7L61,7.8h-0.9l-2.3-5.7
				c-0.1-0.2-0.1-0.4-0.2-0.8h0c0,0.3,0,0.8,0,1.5v5h-1.2V0.1h1.8l2,5.1c0.2,0.4,0.3,0.7,0.3,0.9h0c0.1-0.4,0.2-0.7,0.3-0.9L63,0.1
				h1.7V7.8z"/>
			<path fill="#4F504F" d="M72.6,4.7c0,2.2-1,3.2-3.1,3.2c-2,0-2.9-1-2.9-3.1V0.1h1.3v4.4c0,1.5,0.6,2.3,1.8,2.3
				c1.1,0,1.7-0.7,1.7-2.2V0.1h1.3V4.7z"/>
			<path fill="#4F504F" d="M78.6,7.8h-4.3V0.1h1.3v6.6h3V7.8z"/>
			<path fill="#4F504F" d="M84,1.2h-2.2v6.6h-1.3V1.2h-2.2V0.1H84V1.2z"/>
			<path fill="#4F504F" d="M86.5,7.8h-1.3V0.1h1.3V7.8z"/>
			<path fill="#4F504F" d="M91.1,5.3h-2.9V4.4h2.9V5.3z"/>
			<path fill="#4F504F" d="M94.1,5v2.8h-1.3V0.1h2.3c0.9,0,1.6,0.2,2.1,0.6c0.5,0.4,0.7,1,0.7,1.7s-0.3,1.4-0.8,1.8
				C96.6,4.8,96,5,95.1,5H94.1z M94.1,1.2V4h0.8c0.5,0,1-0.1,1.3-0.4c0.3-0.3,0.4-0.6,0.4-1.1c0-0.9-0.5-1.4-1.6-1.4H94.1z"/>
			<path fill="#4F504F" d="M105.1,4.7c0,2.2-1,3.2-3.1,3.2c-2,0-2.9-1-2.9-3.1V0.1h1.3v4.4c0,1.5,0.6,2.3,1.8,2.3
				c1.1,0,1.7-0.7,1.7-2.2V0.1h1.3V4.7z"/>
			<path fill="#4F504F" d="M112.9,7.8h-1.5l-1.2-2.1c-0.1-0.2-0.2-0.4-0.3-0.5c-0.1-0.1-0.2-0.2-0.3-0.3s-0.2-0.1-0.4-0.2
				s-0.3-0.1-0.4-0.1h-0.5v3.1h-1.3V0.1h2.5c0.4,0,0.7,0,1,0.1c0.3,0.1,0.6,0.2,0.8,0.4c0.2,0.2,0.4,0.4,0.5,0.6
				c0.1,0.3,0.2,0.6,0.2,0.9c0,0.3,0,0.5-0.1,0.7c-0.1,0.2-0.2,0.4-0.3,0.6c-0.1,0.2-0.3,0.3-0.5,0.5c-0.2,0.1-0.4,0.2-0.7,0.3v0
				c0.1,0.1,0.3,0.2,0.4,0.3c0.1,0.1,0.2,0.2,0.3,0.3s0.2,0.2,0.3,0.3c0.1,0.1,0.2,0.3,0.3,0.4L112.9,7.8z M108.2,1.2v2.5h1.1
				c0.2,0,0.4,0,0.5-0.1c0.2-0.1,0.3-0.1,0.4-0.3s0.2-0.3,0.3-0.4c0.1-0.2,0.1-0.3,0.1-0.6c0-0.4-0.1-0.7-0.3-0.9
				c-0.2-0.2-0.6-0.3-1-0.3H108.2z"/>
			<path fill="#4F504F" d="M115.1,5v2.8h-1.3V0.1h2.3c0.9,0,1.6,0.2,2.1,0.6c0.5,0.4,0.7,1,0.7,1.7s-0.3,1.4-0.8,1.8
				C117.6,4.8,117,5,116.1,5H115.1z M115.1,1.2V4h0.8c0.5,0,1-0.1,1.3-0.4c0.3-0.3,0.4-0.6,0.4-1.1c0-0.9-0.5-1.4-1.6-1.4H115.1z"/>
			<path fill="#4F504F" d="M123.4,8c-1.1,0-2-0.4-2.7-1.1s-1-1.7-1-2.8c0-1.2,0.3-2.2,1-3c0.7-0.7,1.6-1.1,2.8-1.1
				c1.1,0,2,0.4,2.6,1.1c0.7,0.7,1,1.7,1,2.8c0,1.3-0.3,2.3-1,3S124.5,8,123.4,8z M123.5,1.1c-0.7,0-1.3,0.3-1.7,0.8
				s-0.7,1.2-0.7,2.1c0,0.9,0.2,1.5,0.6,2.1s1,0.8,1.7,0.8c0.7,0,1.3-0.2,1.7-0.7s0.6-1.2,0.6-2.1c0-0.9-0.2-1.6-0.6-2.1
				C124.8,1.4,124.2,1.1,123.5,1.1z"/>
			<path fill="#4F504F" d="M128.2,7.5V6.2c0.1,0.1,0.3,0.2,0.4,0.3s0.3,0.2,0.5,0.2c0.2,0.1,0.4,0.1,0.5,0.1s0.4,0,0.5,0
				c0.5,0,0.9-0.1,1.2-0.3c0.3-0.2,0.4-0.4,0.4-0.8c0-0.2,0-0.3-0.1-0.5c-0.1-0.1-0.2-0.3-0.4-0.4s-0.3-0.2-0.6-0.3
				c-0.2-0.1-0.4-0.2-0.7-0.3c-0.3-0.1-0.5-0.3-0.7-0.4s-0.4-0.3-0.6-0.5c-0.2-0.2-0.3-0.4-0.4-0.6s-0.1-0.5-0.1-0.8
				c0-0.4,0.1-0.7,0.2-0.9c0.2-0.3,0.4-0.5,0.6-0.7c0.3-0.2,0.6-0.3,0.9-0.4c0.3-0.1,0.7-0.1,1-0.1c0.8,0,1.4,0.1,1.8,0.3v1.3
				c-0.4-0.3-1-0.5-1.7-0.5c-0.2,0-0.4,0-0.6,0.1c-0.2,0-0.4,0.1-0.5,0.2s-0.3,0.2-0.4,0.3s-0.1,0.3-0.1,0.5c0,0.2,0,0.3,0.1,0.4
				s0.2,0.2,0.3,0.3s0.3,0.2,0.5,0.3c0.2,0.1,0.4,0.2,0.7,0.3c0.3,0.1,0.5,0.3,0.8,0.4s0.4,0.3,0.6,0.5s0.3,0.4,0.4,0.6
				c0.1,0.2,0.2,0.5,0.2,0.8c0,0.4-0.1,0.7-0.2,1c-0.2,0.3-0.4,0.5-0.6,0.7s-0.6,0.3-0.9,0.4C131,7.9,130.6,8,130.2,8
				c-0.1,0-0.3,0-0.5,0c-0.2,0-0.4,0-0.6-0.1c-0.2,0-0.4-0.1-0.6-0.1S128.3,7.6,128.2,7.5z"/>
			<path fill="#4F504F" d="M138.9,7.8h-4.3V0.1h4.2v1.1h-2.9v2.2h2.6v1.1h-2.6v2.3h3V7.8z"/>
			<path fill="#4F504F" d="M80.2,21v-7.7h2.2c2.8,0,4.3,1.3,4.3,3.8c0,1.2-0.4,2.1-1.2,2.9c-0.8,0.7-1.8,1.1-3.2,1.1H80.2z
				 M81.4,14.4V20h1c0.9,0,1.6-0.2,2.1-0.7c0.5-0.5,0.7-1.2,0.7-2.1c0-1.8-0.9-2.7-2.8-2.7H81.4z"/>
			<path fill="#4F504F" d="M92.4,21h-4.3v-7.7h4.2v1.1h-2.9v2.2H92v1.1h-2.6V20h3V21z"/>
			<path fill="#4F504F" d="M99.8,13.3L97,21h-1.4l-2.7-7.7h1.4l1.9,5.8c0.1,0.2,0.1,0.4,0.1,0.6h0c0-0.2,0.1-0.4,0.2-0.7l1.9-5.8
				H99.8z"/>
			<path fill="#4F504F" d="M102.1,21h-1.3v-7.7h1.3V21z"/>
			<path fill="#4F504F" d="M109.4,20.7c-0.6,0.3-1.3,0.5-2.2,0.5c-1.1,0-2-0.4-2.7-1.1s-1-1.6-1-2.8c0-1.2,0.4-2.2,1.1-3
				c0.8-0.8,1.7-1.1,2.9-1.1c0.7,0,1.4,0.1,1.9,0.3v1.3c-0.5-0.3-1.1-0.5-1.7-0.5c-0.8,0-1.5,0.3-2,0.8s-0.8,1.2-0.8,2.1
				c0,0.8,0.2,1.5,0.7,2c0.5,0.5,1.1,0.8,1.9,0.8c0.7,0,1.4-0.2,1.9-0.5V20.7z"/>
			<path fill="#4F504F" d="M115.2,21h-4.3v-7.7h4.2v1.1h-2.9v2.2h2.6v1.1h-2.6V20h3V21z"/>
		</g>
		<g>
			<path fill="#9C4F96" d="M27.5,44.1v24.2h29.8V44.1H27.5z M55.5,66.5H29.3V46h26.1V66.5z"/>
			<rect x="20.1" y="47.7" fill="#E2E2E2" width="33.5" height="28.8"/>
			<g>
				<path fill="#9C4F96" d="M21.5,50.1v24.2h29.8V50.1H21.5z M49.5,72.5H23.3V52h26.1V72.5z M42,56.7c0,1.5,1.3,2.8,2.8,2.8
					s2.8-1.3,2.8-2.8s-1.3-2.8-2.8-2.8S42,55.1,42,56.7z M47.6,70.7H25.2l5.6-14.9l7.5,9.3l3.7-2.8L47.6,70.7z"/>
			</g>
		</g>
		<g>
			<g id="gmail_7_">
				<path fill="#9C4F96" d="M207.1,75.6h-21.7c-1.5,0-2.7,1.2-2.7,2.7v16.3c0,1.5,1.2,2.7,2.7,2.7h21.7c1.5,0,2.7-1.2,2.7-2.7V78.3
					C209.8,76.8,208.6,75.6,207.1,75.6z M207.1,94.6h-2.7V82.7l-8.1,5.2l-8.1-5.2v11.9h-2.7V78.3h1.6l9.2,5.7l9.2-5.7h1.6V94.6z"/>
			</g>
		</g>
		<g>
			<path fill="#008372" d="M63.9,142.7h13.2l-1.2-3c0,0-0.2-0.3-0.5-0.3h-9.7c0,0-0.4,0-0.5,0.3L63.9,142.7z"/>
			<path fill="#008372" d="M77.1,145.3c0,0,0-0.8-0.8-0.8h-5.6H55.8h-5.6c-0.8,0-0.8,0.8-0.8,0.8l0,15.6c0,0.8,0.8,0.8,0.8,0.8h5.6
				h14.9h5.6c0,0,0.8,0,0.8-0.8L77.1,145.3z"/>
		</g>
		<g id="outlook_3_">
			<path fill="#008372" d="M147,116c0-0.7-0.8-0.9-1.3-0.9c-2.9,0-5.7,0-8.6,0c0-1.9,0-3.7,0-5.5v-0.3c-4.2,0.7-10.1,1.8-14.4,2.6
				c0,6.4,0,12.9,0,19.4c4.2,0.7,10.2,1.7,14.4,2.5v-0.2c0-1.7,0-3.5,0-5.3c3-0.1,6.1,0.1,9.1-0.1c0.9,0,0.9-1,0.9-1.6
				C147,123,147.1,119.5,147,116z M131.6,125.2c-1.7,1.4-4.4,0.6-5.2-1.4c-1-2.3-0.5-5.9,2.2-6.8c1.5-0.6,3.4,0.2,4,1.7
				C133.5,120.8,133.4,123.7,131.6,125.2z M146.1,127.3c-3,0-6.1,0-9.1,0c0-2.4,0-4.8,0-7.2c1,0.9,2,2,3,2.8
				c0.5,0.1,0.8-0.3,1.1-0.6c1.7-1.6,3.3-3.2,5-4.7C146.1,120.8,146.1,124.1,146.1,127.3z M145.7,116.9c-1.8,1.7-3.7,3.4-5.5,5.1
				c-1.1-1-2.2-2-3.2-3c0-1,0-2,0-3c3.1,0,6.1,0,9.2,0C146.1,116.3,146,116.7,145.7,116.9z"/>
			<path fill="#008372" d="M128.8,118.6c0.7-0.4,1.7,0,2,0.7c0.6,1.1,0.6,2.4,0.2,3.6c-0.2,0.8-1.2,1.5-2,1.2
				c-1.1-0.3-1.4-1.6-1.4-2.6C127.6,120.4,127.8,119.1,128.8,118.6z"/>
		</g>
		<path fill="#008372" d="M108.4,193.1l-3,2.8v14.2h3V193.1z M104.5,196.7l-3,2.8v10.6h3V196.7z M100.6,199.9l-3-3.3v13.4h3V199.9z
			 M95.9,194.9l-2.3,2.1v13.1h3v-14.3L95.9,194.9z M92.8,197.8l-3,2.8v9.5h3V197.8z M88.9,201.4l-3,2.8v5.9h3V201.4z M110.2,189
			l2,2.1v-6.4h-6.4l2.3,2.3l-0.2-0.1l-7.6,6.9l-3.2-3.5l0,0l-1.5-1.6l-9.9,8.8v4.5l10.1-9.3l2.6,2.7l0,0l2.3,2.5l0,0l0,0l0-0.1
			L110.2,189z M112.3,210.1v-16.5l-2-2.2l-1,0.9v17.8H112.3z"/>
		<path fill="#9C4F96" d="M16.7,108.7c0,0.9-0.7,1.6-1.6,1.6c-0.9,0-1.6-0.7-1.6-1.6c0-0.9,0.7-1.6,1.6-1.6
			C16,107.1,16.7,107.8,16.7,108.7 M26,102.9c-0.5-0.9-4.1-2-4.6-1.8c-0.2,0.3-2.4,2.2-3.1,2.4c-0.7,0.2-3.1,0.2-3.1,0.2
			s-2.4,0-3.1-0.2c-0.7-0.2-2.8-2.1-3.1-2.4c-0.6-0.2-4.2,0.9-4.6,1.8c0,0-8,17-2.2,19c2.6,0.6,3.6-1.7,5.1-3.1
			c1.5-1.4,3.6-2.7,7.9-2.7c4.3,0,6.4,1.3,7.9,2.7c1.5,1.4,2.5,3.6,5.1,3.1C34.1,119.9,26,102.9,26,102.9"/>
		<path fill="#9C4F96" d="M193,30.6c-1.2,0.5-2.4,0.9-3.8,1c1.4-0.8,2.4-2.1,2.9-3.6c-1.3,0.8-2.7,1.3-4.2,1.6
			c-1.2-1.3-2.9-2.1-4.8-2.1c-3.6,0-6.6,2.9-6.6,6.6c0,0.5,0.1,1,0.2,1.5c-5.4-0.3-10.3-2.9-13.5-6.9c-0.6,1-0.9,2.1-0.9,3.3
			c0,2.3,1.2,4.3,2.9,5.5c-1.1,0-2.1-0.3-3-0.8c0,0,0,0.1,0,0.1c0,3.2,2.3,5.8,5.3,6.4c-0.6,0.1-1.1,0.2-1.7,0.2
			c-0.4,0-0.8,0-1.2-0.1c0.8,2.6,3.3,4.5,6.1,4.6c-2.2,1.8-5.1,2.8-8.1,2.8c-0.5,0-1.1,0-1.6-0.1c2.9,1.9,6.3,2.9,10.1,2.9
			c12.1,0,18.7-10,18.7-18.7c0-0.3,0-0.6,0-0.8C191,33.1,192.1,32,193,30.6z"/>
		<g id="fb_1_">
			<g>
				<g>
					<path fill="#9C4F96" d="M112.3,66.7l-4.4,0c-0.6,0-1.1,0.7-1.1,1.7l0,2.8l5.6,0l0,5.4l-5.4,0l0,13.3l-5.6,0l0-13.4l-4.4,0
						l0-5.4l4.4,0l0-2.7c0-4,3-7.1,6.6-7.1l4.4,0L112.3,66.7z"/>
				</g>
			</g>
		</g>
		<g>
			<path fill="#00B193" stroke="#E6E6E6" stroke-width="0.8532" stroke-miterlimit="10" d="M205.3,134.1l9.2,9.2
				c0.8-0.8,1.5-1.7,2.1-2.7L205.3,134.1z"/>
			<path fill="#008372" stroke="#E6E6E6" stroke-width="0.8532" stroke-miterlimit="10" d="M205.3,134.1l2.9,12.7
				c2.5-0.6,4.5-1.7,6.3-3.5L205.3,134.1z"/>
			<path fill="#00B193" stroke="#E6E6E6" stroke-width="0.8532" stroke-miterlimit="10" d="M205.3,134.1l-12.4-4
				c-2.2,6.8,1.5,14.2,8.4,16.4c2.4,0.8,4.5,0.9,7,0.3L205.3,134.1z"/>
			<path fill="#008372" stroke="#E6E6E6" stroke-width="0.8532" stroke-miterlimit="10" d="M205.3,134.1l-7.7-10.5
				c-2.3,1.7-3.9,3.8-4.7,6.5L205.3,134.1z"/>
			<path fill="#00B193" stroke="#E6E6E6" stroke-width="0.8532" stroke-miterlimit="10" d="M205.3,134.1l11.3-6.5
				c-3.6-6.2-11.6-8.4-17.8-4.8c-0.4,0.2-0.7,0.5-1.1,0.7L205.3,134.1z"/>
			<path fill="#008372" stroke="#E6E6E6" stroke-width="0.8532" stroke-miterlimit="10" d="M205.3,134.1l11.3,6.5
				c2.4-4.2,2.4-8.8,0-13L205.3,134.1z"/>
		</g>
		<path fill="#008372" d="M170.8,180.7l13.4-9.1l0-1.9l-13.2-0.3l-13.2-0.3l0,1.9L170.8,180.7z M183.8,189.9l0.4-16.4l-13.4,9.3
			l-13-9.9l-0.4,16.4l13.2,0.3L183.8,189.9z"/>
	</g>
</g>
<g id="Layer_2">
</g>
<g id="Layer_3">
</g>
<g id="Layer_4">
</g>
</svg>
