<?xml version="1.0" encoding="utf-8"?>
<!-- Generator: Adobe Illustrator 19.2.1, SVG Export Plug-In . SVG Version: 6.00 Build 0)  -->
<svg version="1.1" xmlns="http://www.w3.org/2000/svg" xmlns:xlink="http://www.w3.org/1999/xlink" x="0px" y="0px"
	 viewBox="0 0 156.2 310.4" enable-background="new 0 0 156.2 310.4" xml:space="preserve">
<g id="Layer_1">
	<g>
		<path fill="#F89420" d="M6.5,163.4c0,0.1,0,0.2,0,0.3c0.5,3.6,3.7,6.1,7.2,5.6c3.5-0.5,6-3.7,5.5-7.3c0-0.1,0-0.2-0.1-0.3l0,0
			l-0.9-6.7l-12.8,1.7L6.5,163.4L6.5,163.4z"/>
		<path fill="#B5E5DD" d="M3.5,160.4l16.9-4.7c-7.3-26,0.7-45.9,7.1-61.9c4.5-11.2,6.6-11.3,7.1-23.6l-6.2-6.6
			c-0.3-0.3-0.5-1.2-0.9-1c-3.3,2-10.3,8.4-16.3,24.7C4.7,104.9-5.4,128.6,3.5,160.4z"/>
		<path fill="#F89420" d="M146.4,140.1c0.1,0,0.1,0.1,0.2,0.1c3.2,1.7,7.1,0.6,8.8-2.5c1.7-3.1,0.5-7-2.6-8.8
			c-0.1,0-0.2-0.1-0.2-0.1l0,0l-5.9-3.2l-6.2,11.3L146.4,140.1L146.4,140.1z"/>
		<path fill="#B5E5DD" d="M142.3,140.7l6.1-16.5c-25.3-9.4-36.8-27.6-45.9-42.2c-6.4-10.2-5.3-12-14.9-19.6L75.4,76.2
			c3.4,1.3,7.7,8.1,12.2,15.2C97.6,107.4,111.4,129.2,142.3,140.7z"/>
		<path fill="#4BC1BF" d="M75.4,76.2l1.9-5.2c5.5,4.9,9.9,11.9,14.8,19.6c10.3,16.3,23,36.6,51.3,47.1l-1.1,3
			c-30.9-11.5-44.6-33.3-54.7-49.3C83.1,84.3,78.8,77.5,75.4,76.2z"/>
		<path fill="#B5E5DD" d="M28,290.9l0.2,0.3l0,8.8l0,10.4l8.8,0v-3.2h6l3,3.2h21.2h4.2h4.6v-3.2h6l3,3.2h25.5V300l-24.2-5L82,173.3
			l8.7-1l-4.8-93.7l1.7-16.1l-20.5-7.1l-19.2,0l-20.4,7.1l-5.2,109.8l0,0l10.2-0.1L28.3,291L28,290.9z M47.4,294.9l7.4-114.6h2.8
			L67.4,291l-0.2,0l0.2,0.3v7.9L47.4,294.9z"/>
		<g>
			<path fill="#4BC1BF" d="M28.3,290.9l0.2,0.3l0,8.8l0,10.4l8.8,0v-3.2h6l3,3.2h21.2h4.2h4.6v-3.2h6l3,3.2H111l0-10.4l-24.2-5
				l-0.7-121.7l-25.9-0.8l-2.9-19.4l-4.7,18.2l-24.4,0.9L28.5,291L28.3,290.9z M47.7,294.9l7.4-114.6h2.8L67.7,291l-0.2,0l0.2,0.3
				v7.9L47.7,294.9z"/>
		</g>
		<path fill="#F89420" d="M46.9,45.8l4.5-1.6l1.5,3.7l14.3-2.2l-1.1,15.6l-14,11.2l-2.4-18.7C49.6,51.4,50.4,46.9,46.9,45.8"/>
		<polygon fill="#4BC1BF" points="69.3,53.8 64.5,53.8 57.4,81.3 49.1,53.8 45.6,53.8 42.2,65.5 44.7,68 42.2,70.6 57.4,118.2 
			72.7,70.6 70.2,68 72.7,65.5 		"/>
		<polygon fill="#FFFFFF" points="61.7,55.4 57.5,66.7 52.1,55.4 47.7,51.8 47.7,61 57.4,100.2 67.2,61 67.2,51.8 		"/>
		<circle fill="#4BC1BF" cx="57.4" cy="133.4" r="2"/>
		<polygon fill="#B5E5DD" points="70.2,68 57.4,81.3 42.2,65.5 33.3,68.1 41.2,130 75.6,129.1 81.3,69.5 		"/>
		<polygon fill="#9A8D78" points="62.8,17.3 74.8,30.8 66.1,35 		"/>
		<path fill="#010101" d="M58.3,24.4c0.3,0.6,0,1.4-0.6,1.7c-0.6,0.3-1.4,0-1.7-0.6c-0.3-0.6,0-1.4,0.6-1.7
			C57.2,23.5,58,23.8,58.3,24.4"/>
		<polygon fill="#F89420" points="62.8,17.3 74.8,30.8 66.1,35 		"/>
		<path fill="#F89420" d="M29.5,20L39,39.8l0.1,0c7.9,14.4,22.3,13,37.3,5.8l-0.6-1.3L70.3,33l-6.8-14.2l-6-12.5L29.5,20"/>
		<path fill="#2F2F2F" d="M57.5,6.4l-0.2,0.1L57.5,6.4c-3.3-7.6-15.7-8.6-20-2.2c-1.3,2-2.4,3-4.6,4c-1.8,0.9-3,1.7-4.1,3.4
			c-0.9,1.3-0.8,3.9,0,6C18.6,23.8,43,45.4,43,45.4c5.2-8.3-0.6-20-0.6-20c0.2-0.3,0.3-0.6,0.4-1c1.3-3.4,3.4-3.7,6.5-5.4
			C53.1,16.9,58.3,11.2,57.5,6.4"/>
		<path fill="#F89420" d="M42.4,25.4c-3.5,1.7-4.9,5.9-3.3,9.4c1.7,3.5,5.8,5,9.3,3.3L42.4,25.4"/>
		<polyline fill="#D17E29" points="46.9,34.9 43.9,28.6 43.9,28.6 47,34.9 46.9,34.9 		"/>
		<path fill="#D17E29" d="M45.4,35.2c-1.3,0-2.5-0.7-3.1-2c-0.8-1.7-0.1-3.8,1.6-4.7l3,6.3C46.5,35.1,45.9,35.2,45.4,35.2"/>
		<g>
			<rect x="49.6" y="96.4" fill="#4BC1BF" width="3" height="14.6"/>
			<polygon fill="#4BC1BF" points="66.2,98.9 62,98.9 62,111 59,111 59,98.9 54.7,98.9 54.7,96.4 66.2,96.4 			"/>
			<path fill="#4BC1BF" d="M71.1,111.6l-13.9,8.2l-14.2-8.2l0-16.1l13.9-8.2l14.2,8.2V111.6z M56.8,84.6L40.5,94l0,19.1l16.7,9.4
				l16.4-9.4V94L56.8,84.6z"/>
		</g>
		<path fill="none" stroke="#17244E" stroke-width="0.6636" stroke-miterlimit="10" d="M59.5,22.9c0,0-0.6-1.1-2.4-0.3
			s-1.4,2.5-1.4,2.5"/>
		<g>
			<g>
				
					<rect x="37.9" y="111" transform="matrix(0.9321 -0.3623 0.3623 0.9321 -45.1151 23.0124)" fill="#F68C1F" width="1.8" height="41.7"/>
				
					<rect x="35" y="112.1" transform="matrix(0.9321 -0.3623 0.3623 0.9321 -45.7237 22.033)" fill="#F68C1F" width="1.8" height="41.7"/>
			</g>
			<g>
				<path fill="#F68C1F" d="M34.6,149.1l-0.9-2.4c2.7,0.5,5.2,0.4,7.5-0.5c2.4-0.9,4-2.1,4.9-3.6c0.9-1.5,0.9-3.1,0.2-4.9
					c-0.6-1.6-1.5-2.6-2.7-3.3c-1.2-0.6-3.5-1.2-6.9-1.7c-3.8-0.6-6.3-1.3-7.6-2.2c-1.3-0.9-2.3-2.1-2.9-3.7
					c-0.8-2.2-0.7-4.3,0.4-6.5c1.1-2.2,3-3.8,5.8-4.9c1.8-0.7,3.8-1.1,5.8-1.2l0.9,2.2c-2.1-0.1-4.2,0.2-6.2,1
					c-2.1,0.8-3.5,2-4.3,3.5c-0.8,1.5-0.9,3.1-0.3,4.7c0.6,1.6,1.5,2.6,2.7,3.2c1.2,0.6,3.5,1.2,6.9,1.7c3.5,0.5,5.9,1.2,7.4,2.1
					c1.4,0.9,2.5,2.2,3.1,3.8c0.9,2.3,0.8,4.6-0.2,6.7c-1.1,2.1-3.1,3.7-6,4.9c-1.1,0.4-2.3,0.7-3.8,0.9
					C36.6,149.2,35.5,149.2,34.6,149.1z"/>
			</g>
		</g>
		<g>
			<g>
				
					<rect x="61.5" y="134.1" transform="matrix(0.4621 -0.8868 0.8868 0.4621 -75.3903 145.6262)" fill="#F68C1F" width="41.7" height="1.8"/>
				
					<rect x="58.7" y="132.6" transform="matrix(0.4621 -0.8868 0.8868 0.4621 -75.6004 142.3882)" fill="#F68C1F" width="41.7" height="1.8"/>
			</g>
			<g>
				<path fill="#F68C1F" d="M66.6,143.2l1.2-2.3c1.4,2.4,3.2,4.2,5.3,5.3c2.3,1.2,4.2,1.6,5.9,1.3c1.7-0.3,2.9-1.3,3.8-3
					c0.8-1.5,1-2.9,0.7-4.2c-0.3-1.3-1.4-3.4-3.3-6.3c-2.1-3.3-3.2-5.7-3.4-7.2c-0.2-1.6,0.1-3.1,0.9-4.6c1.1-2.1,2.8-3.4,5.1-4
					c2.3-0.6,4.8-0.2,7.5,1.2c1.7,0.9,3.3,2.1,4.7,3.6L94,125c-1.3-1.7-2.9-3-4.9-4c-2-1-3.8-1.3-5.5-0.9c-1.7,0.4-2.9,1.4-3.7,2.9
					c-0.8,1.5-1,2.9-0.7,4.2c0.3,1.3,1.4,3.4,3.3,6.3c1.9,3,3,5.3,3.3,6.9c0.3,1.7,0,3.3-0.8,4.8c-1.2,2.2-2.9,3.6-5.2,4.2
					c-2.3,0.6-4.8,0.2-7.7-1.3c-1-0.5-2.1-1.3-3.2-2.3C67.9,144.8,67,143.9,66.6,143.2z"/>
			</g>
		</g>
		<polygon fill="#B5E5DD" points="46.6,169.5 58.1,154.7 74.6,170.3 83.5,169.3 83.5,151.6 57.3,146.2 32.7,153.1 		"/>
		<polygon fill="#4BC1BF" points="85.6,154.7 65.1,148 65.1,142.4 85.6,149.1 		"/>
		<polygon fill="#4BC1BF" points="31.5,154.7 52,148 52,142.4 31.5,149.1 		"/>
	</g>
</g>
<g id="Layer_2">
</g>
<g id="Layer_3">
</g>
<g id="Layer_4">
</g>
</svg>
