<?xml version="1.0" encoding="utf-8"?>
<!-- Generator: Adobe Illustrator 19.2.1, SVG Export Plug-In . SVG Version: 6.00 Build 0)  -->
<svg version="1.1" xmlns="http://www.w3.org/2000/svg" xmlns:xlink="http://www.w3.org/1999/xlink" x="0px" y="0px"
	 viewBox="0 0 744 452" enable-background="new 0 0 744 452" xml:space="preserve">
<g id="Layer_1">
</g>
<g id="Layer_2">
</g>
<g id="Layer_3">
	<g>
		<g>
			<path fill="#B8D433" d="M513.6,202c0,15.2,12.3,27.6,27.6,27.6c15.2,0,27.6-12.3,27.6-27.6c0-15.2-12.3-27.6-27.6-27.6
				C525.9,174.4,513.6,186.8,513.6,202"/>
			<polygon fill="#A98864" points="538,221.4 538.7,212.2 524.2,192.5 539.1,207.3 539.7,198.8 531.6,187.7 539.9,196.1 541,181 
				542,196.2 550.4,187.7 542.2,199 542.7,207.5 557.8,192.5 543,212.6 543.6,221.8 553.9,211.5 543.8,225.3 545.1,246.9 
				536.1,246.9 537.7,224.7 528.1,211.5 			"/>
			<path fill="#B8D433" d="M490.5,216.8c0,9.6,7.8,17.3,17.3,17.3c9.6,0,17.3-7.8,17.3-17.3c0-9.6-7.8-17.3-17.3-17.3
				C498.3,199.5,490.5,207.3,490.5,216.8"/>
			<polygon fill="#A98864" points="505.9,229 506.3,223.3 497.2,210.8 506.6,220.2 507,214.8 501.9,207.9 507.1,213.1 507.8,203.7 
				508.4,213.2 513.7,207.9 508.5,214.9 508.8,220.3 518.3,210.8 509,223.5 509.4,229.3 515.9,222.8 509.5,231.4 510.4,245 
				504.7,245 505.7,231.1 499.7,222.8 			"/>
			<path fill="#B8D433" d="M513.6,202c0,15.2,12.3,27.6,27.6,27.6c15.2,0,27.6-12.3,27.6-27.6c0-15.2-12.3-27.6-27.6-27.6
				C525.9,174.4,513.6,186.8,513.6,202"/>
			<polygon fill="#A98864" points="538,221.4 538.7,212.2 524.2,192.5 539.1,207.3 539.7,198.8 531.6,187.7 539.9,196.1 541,181 
				542,196.2 550.4,187.7 542.2,199 542.7,207.5 557.8,192.5 543,212.6 543.6,221.8 553.9,211.5 543.8,225.3 545.1,246.9 
				536.1,246.9 537.7,224.7 528.1,211.5 			"/>
		</g>
		<g>
			<rect x="502.7" y="342.8" fill="#A98864" width="8.5" height="74.2"/>
			<rect x="488.1" y="279.6" fill="#A98864" width="8.5" height="122.7"/>
			<rect x="318.1" y="279.6" fill="#A98864" width="8.5" height="122.7"/>
			<rect x="303.5" y="342.8" fill="#A98864" width="8.5" height="74.2"/>
			<rect x="303.5" y="340.3" fill="#B8D433" width="207.7" height="17"/>
			<rect x="303.5" y="277.2" fill="#B8D433" width="207.7" height="17"/>
			<rect x="303.5" y="302.7" fill="#B8D433" width="207.7" height="17"/>
		</g>
		<path fill="#9C4F96" d="M428.9,245.2c0.1-0.6,0.2-1.2,0.3-1.8l-12.3-1.7c-0.1,0.5-0.5,1.7-0.6,2.2c-1.6,10-6.6,15.6-11.8,20.3
			c-5.2,4.7-11.8,7.7-18.8,9.4c-14,3.5-28.9,1.6-31.9,1.1c-0.4-0.1-0.6-0.1-0.6-0.1l0,0l-2.4,13.7c0,0,0.3,0.1,0.8,0.1
			c3,0.5,12.8,1.8,24.8,0.7c11.9-1.1,26.3-4.5,37.5-14.6c7.4-6.7,13.1-16.5,15-29.2L428.9,245.2"/>
		<path opacity="0.1" d="M486.4,408.1c-0.5,0-0.9,0.1-1.3,0.1v-0.1H350.5v0.1c-5.4,0.5-9.6,4.2-9.6,8.7c0,4.9,4.9,8.8,10.9,8.8
			c0.8,0,133.9,0,134.7,0c6,0,10.9-4,10.9-8.8C497.4,412.1,492.5,408.1,486.4,408.1"/>
		<path fill="#9C4F96" d="M416.5,266.7v-31.6h58.7v108.4h-58.7v2.3c0.5-13.7,2-30.6,6.2-42.3C422.7,303.6,417.6,278.7,416.5,266.7"
			/>
		<path fill="#9C4F96" d="M489.8,338.7c0-62.3-14.3-102.9-14.5-103.4v0l-12.4,4.4c0,0,0.8,2.2,2.1,6.8c1.3,4.6,3,11.3,4.7,20
			c3.5,17.3,6.9,42.2,6.9,72.3H489.8z"/>
		<path fill="#FDB813" d="M489.7,345.6c0,0.1,0,0.2,0,0.3c0,3.7-3,6.7-6.6,6.7c-3.7,0-6.6-3-6.6-6.7c0-0.1,0-0.2,0-0.3h0l0-6.9
			l13.3,0L489.7,345.6L489.7,345.6z"/>
		<polygon fill="#672A7A" points="360.5,416.6 373.6,403.6 390.7,403.6 390.7,420.3 360.5,420.3 		"/>
		<polygon fill="#17244E" points="475.2,329.8 475.2,346 390.8,346 390.8,403.6 373.8,403.6 373.7,329.8 		"/>
		<rect x="397.5" y="330.4" fill="#17244E" width="17" height="73.2"/>
		<polygon fill="#672A7A" points="384.3,416.6 397.3,403.6 414.5,403.6 414.5,420.3 384.3,420.3 		"/>
		<path fill="#843D82" d="M417.5,335.5c0.3-8.8,0.1-8.4,1.6-17.6l56-50.4l0,78.6L417.5,335.5z"/>
		<path fill="#FDB813" d="M343.9,287.3c-0.1,0-0.2,0-0.3,0c-3.8-0.6-6.4-4.1-5.8-7.9c0.6-3.8,4.1-6.4,7.9-5.8c0.1,0,0.2,0.1,0.3,0.1
			l0,0l7.1,1.1l-2.1,13.7L343.9,287.3L343.9,287.3z"/>
		<path fill="#FDB813" d="M343.6,287.2c-3.8-0.6-6.4-4.1-5.8-7.9c0.2-1.2,0.7-2.3,1.4-3.2c3-1.6,6.8-0.8,8.8,2
			c2.2,3.1,1.6,7.3-1.4,9.6l-2.8-0.4l0,0C343.8,287.3,343.7,287.3,343.6,287.2"/>
		<path fill="#FDB813" d="M453.6,211.8l-4.2-0.8l-1.5,3.6l-10.5-0.2l-0.7,24.8l5.9,4.2l6.1-4l0.6-19.4
			C449.5,217.6,450.2,212.7,453.6,211.8"/>
		<polygon fill="#FDB813" points="431.5,201.6 425.1,214.8 432.9,216.1 		"/>
		<path fill="#FDB813" d="M464.3,197.1l-0.2,13.3l-3,3.7c-0.2,1.1,0.7-2.6,0.3-1.6l-6.8,7.5c-1.7,3.2-3.7,5.8-5.8,7.8
			c-4.2,3.3-11.2,5.6-22.4,2.4l6.3-38.3L464.3,197.1z"/>
		<path fill="#6E573E" d="M471.6,200.5c0.4-6.2-0.5-13.2-4.5-17.6c-2,3-6.1,6.1-6.1,8.4c0,0.2-8.1,4.8-4.2,18c0,0-4.6-1-1.5,8.7
			C455.2,218,470,218.5,471.6,200.5"/>
		<path fill="#6E573E" d="M433.4,191.9l-4.3-3.7c6.5-7.8,14.9-3.1,14.9-3.1l-3.4-7c11.6-1.1,16.5,9.5,16.5,9.5l-1.8-8.8
			c15.2,4.3,15.1,18.8,15.1,18.8l-2,12.3l-7.3,4l-7.5-5.1l-0.2,2.3l-3.4-1.1c-8.5-4.3-9.5-10.1-9.5-10.1l0.3,4.6
			c-5.5-2.8-7.3-5.7-7.6-7.9l-3.6,1.1C429.3,193.9,431.9,192.5,433.4,191.9"/>
		<path fill="#FDB813" d="M453.2,206.1c3.5,0.6,5.9,3.9,5.4,7.5c-0.6,3.5-3.9,5.9-7.5,5.3L453.2,206.1z"/>
		<path fill="#F68C1F" d="M453,209.4c1.7,0.3,2.8,2,2.5,3.6c-0.3,1.7-2,2.8-3.6,2.5L453,209.4z"/>
		<path fill="none" stroke="#17244E" stroke-width="0.5894" stroke-miterlimit="10" d="M436.9,210.7c0,0,0.7-0.9-0.7-2.1
			c-1.3-1.2-2.5-0.2-2.5-0.2"/>
		<g>
			<path fill="#1B1C1C" d="M355.4,270.3c0.3,0.3,0.3,0.7,0,1l-11,11.6c-0.3,0.3-0.7,0.3-1,0L319,259.9c-0.3-0.3-0.3-0.7,0-1l11-11.6
				c0.3-0.3,0.7-0.3,1,0L355.4,270.3z"/>
			
				<rect x="330.2" y="252.1" transform="matrix(0.6867 -0.727 0.727 0.6867 -87.0959 328.3419)" fill="#1EBBEE" width="14.4" height="26.2"/>
			<path fill="#959595" d="M327.5,252.9c0.1,0.1,0.1,0.3,0,0.4l-2.4,2.6c-0.1,0.1-0.3,0.1-0.4,0c-0.1-0.1-0.1-0.3,0-0.4l2.4-2.6
				C327.2,252.8,327.4,252.7,327.5,252.9"/>
		</g>
	</g>
</g>
<g id="Layer_4">
</g>
</svg>
