<?xml version="1.0" encoding="utf-8"?>
<!-- Generator: Adobe Illustrator 19.2.1, SVG Export Plug-In . SVG Version: 6.00 Build 0)  -->
<svg version="1.1" xmlns="http://www.w3.org/2000/svg" xmlns:xlink="http://www.w3.org/1999/xlink" x="0px" y="0px"
	 viewBox="0 0 309 250" enable-background="new 0 0 309 250" xml:space="preserve">
<g id="Layer_1">
</g>
<g id="Layer_2">
	<g>
		<g>
			<path fill="#E6E6E6" d="M207.8,130.1c-3.6-11.9-16.5-20.8-31.9-20.8c-0.1,0-0.2,0-0.3,0v0c0-15-14.6-27.2-32.6-27.2
				c-12.4,0-23.3,5.8-28.8,14.3c-3.2-1-6.7-1.5-10.3-1.5c-16.9,0-30.7,11.4-30.7,25.5c0,0.1,0,0.2,0,0.2c-1.4-0.1-2.8-0.2-4.2-0.2
				c-19.2,0-34.8,13-34.8,29c0,16,15.6,29,34.8,29l127.5,0l0,0c16.7,0,30.2-11.3,30.2-25.1C226.7,142.8,218.9,133.8,207.8,130.1"/>
			<path fill="#E6E6E6" d="M201.1,210.4c-2.9,9.8-13.5,17-26.1,17c-0.1,0-0.1,0-0.2,0v0c0,12.3-12,22.3-26.7,22.3
				c-10.2,0-19-4.7-23.5-11.7c-2.6,0.8-5.5,1.2-8.4,1.2c-13.9,0-25.1-9.4-25.1-20.9c0-0.1,0-0.1,0-0.2c-1.1,0.1-2.3,0.2-3.4,0.2
				c-15.7,0-28.5-10.6-28.5-23.8c0-13.1,12.8-23.7,28.5-23.7l104.4,0l0,0c13.6,0,24.7,9.2,24.7,20.6
				C216.7,200,210.2,207.4,201.1,210.4"/>
			<path fill="#E6E6E6" d="M134.7,130.1c3.6-11.9,16.5-20.8,31.9-20.8c0.1,0,0.2,0,0.3,0v0c0-15,14.6-27.2,32.6-27.2
				c12.4,0,23.3,5.8,28.8,14.3c3.2-1,6.7-1.5,10.3-1.5c16.9,0,30.7,11.4,30.7,25.5c0,0.1,0,0.2,0,0.2c1.4-0.1,2.8-0.2,4.2-0.2
				c19.2,0,34.8,13,34.8,29c0,16-15.6,29-34.8,29l-127.5,0l0,0c-16.7,0-30.2-11.3-30.2-25.1C115.7,142.8,123.6,133.8,134.7,130.1"/>
			<path fill="#E6E6E6" d="M141.3,210.4c2.9,9.8,13.5,17,26.1,17c0.1,0,0.1,0,0.2,0v0c0,12.3,12,22.3,26.7,22.3
				c10.2,0,19-4.7,23.5-11.7c2.6,0.8,5.5,1.2,8.4,1.2c13.9,0,25.1-9.4,25.1-20.9c0-0.1,0-0.1,0-0.2c1.1,0.1,2.3,0.2,3.4,0.2
				c15.7,0,28.5-10.6,28.5-23.8c0-13.1-12.8-23.7-28.5-23.7l-104.4,0l0,0c-13.6,0-24.7,9.2-24.7,20.6
				C125.8,200,132.2,207.4,141.3,210.4"/>
			<path fill="#E6E6E6" d="M207.8,119.9c-3.6,11.9-16.5,20.8-31.9,20.8c-0.1,0-0.2,0-0.3,0v0c0,15-14.6,27.2-32.6,27.2
				c-12.4,0-23.3-5.8-28.8-14.3c-3.2,1-6.7,1.5-10.3,1.5c-16.9,0-30.7-11.4-30.7-25.5c0-0.1,0-0.2,0-0.2c-1.4,0.1-2.8,0.2-4.2,0.2
				c-19.2,0-34.8-13-34.8-29c0-16,15.6-29,34.8-29l127.5,0l0,0c16.7,0,30.2,11.3,30.2,25.1C226.7,107.2,218.9,116.2,207.8,119.9"/>
			<path fill="#E6E6E6" d="M201.1,39.6c-2.9-9.8-13.5-17-26.1-17c-0.1,0-0.1,0-0.2,0v0c0-12.3-12-22.3-26.7-22.3
				c-10.2,0-19,4.7-23.5,11.7c-2.6-0.8-5.5-1.2-8.4-1.2c-13.9,0-25.1,9.4-25.1,20.9c0,0.1,0,0.1,0,0.2c-1.1-0.1-2.3-0.2-3.4-0.2
				c-15.7,0-28.5,10.6-28.5,23.8c0,13.1,12.8,23.7,28.5,23.7l104.4,0l0,0c13.6,0,24.7-9.2,24.7-20.6C216.7,50,210.2,42.6,201.1,39.6
				"/>
			<path fill="#E6E6E6" d="M134.7,119.9c3.6,11.9,16.5,20.8,31.9,20.8c0.1,0,0.2,0,0.3,0v0c0,15,14.6,27.2,32.6,27.2
				c12.4,0,23.3-5.8,28.8-14.3c3.2,1,6.7,1.5,10.3,1.5c16.9,0,30.7-11.4,30.7-25.5c0-0.1,0-0.2,0-0.2c1.4,0.1,2.8,0.2,4.2,0.2
				c19.2,0,34.8-13,34.8-29c0-16-15.6-29-34.8-29l-127.5,0l0,0c-16.7,0-30.2,11.3-30.2,25.1C115.7,107.2,123.6,116.2,134.7,119.9"/>
			<path fill="#E6E6E6" d="M141.3,39.6c2.9-9.8,13.5-17,26.1-17c0.1,0,0.1,0,0.2,0v0c0-12.3,12-22.3,26.7-22.3
				c10.2,0,19,4.7,23.5,11.7c2.6-0.8,5.5-1.2,8.4-1.2c13.9,0,25.1,9.4,25.1,20.9c0,0.1,0,0.1,0,0.2c1.1-0.1,2.3-0.2,3.4-0.2
				c15.7,0,28.5,10.6,28.5,23.8c0,13.1-12.8,23.7-28.5,23.7l-104.4,0l0,0c-13.6,0-24.7-9.2-24.7-20.6
				C125.8,50,132.2,42.6,141.3,39.6"/>
		</g>
		<g>
			<ellipse transform="matrix(0.6499 -0.76 0.76 0.6499 -24.7054 49.4363)" fill="#E6E6E6" cx="41.3" cy="51.5" rx="7.5" ry="7.5"/>
			<ellipse transform="matrix(0.6499 -0.76 0.76 0.6499 -35.8145 35.1807)" fill="#E6E6E6" cx="20.3" cy="56.5" rx="5.3" ry="5.3"/>
			<ellipse transform="matrix(0.6499 -0.76 0.76 0.6499 -40.9557 22.9952)" fill="#E6E6E6" cx="4.5" cy="56" rx="3.7" ry="3.7"/>
		</g>
	</g>
</g>
<g id="Layer_3">
</g>
<g id="Layer_4">
</g>
</svg>
