<?xml version="1.0" encoding="utf-8"?>
<!-- Generator: Adobe Illustrator 19.2.1, SVG Export Plug-In . SVG Version: 6.00 Build 0)  -->
<svg version="1.1" xmlns="http://www.w3.org/2000/svg" xmlns:xlink="http://www.w3.org/1999/xlink" x="0px" y="0px"
	 viewBox="0 0 185 149" enable-background="new 0 0 185 149" xml:space="preserve">
<g id="Layer_1">
</g>
<g id="Layer_2">
	<g>
		<g>
			<path fill="#4F504F" d="M44.4,5.6h-0.9V2c0-0.3,0-0.7,0.1-1.1h0c-0.1,0.2-0.1,0.4-0.2,0.5l-1.7,4.1H41l-1.7-4.1
				c0-0.1-0.1-0.3-0.1-0.6h0c0,0.2,0,0.6,0,1.1v3.6h-0.9V0h1.3l1.5,3.7c0.1,0.3,0.2,0.5,0.2,0.6h0c0.1-0.3,0.2-0.5,0.2-0.6L43.1,0
				h1.2V5.6z"/>
			<path fill="#4F504F" d="M50.3,5.6h-1l-0.5-1.4h-2.2l-0.5,1.4h-1L47.2,0h1L50.3,5.6z M48.5,3.4l-0.8-2.2c0-0.1,0-0.2-0.1-0.3h0
				c0,0.1,0,0.3-0.1,0.3l-0.8,2.2H48.5z"/>
			<path fill="#4F504F" d="M55.3,5.6h-1.1l-0.9-1.5c-0.1-0.1-0.2-0.3-0.2-0.3c-0.1-0.1-0.2-0.2-0.2-0.2c-0.1-0.1-0.2-0.1-0.3-0.1
				c-0.1,0-0.2,0-0.3,0H52v2.3H51V0h1.8c0.3,0,0.5,0,0.7,0.1c0.2,0.1,0.4,0.2,0.6,0.3c0.2,0.1,0.3,0.3,0.4,0.5
				c0.1,0.2,0.1,0.4,0.1,0.7c0,0.2,0,0.4-0.1,0.5c-0.1,0.2-0.1,0.3-0.2,0.4c-0.1,0.1-0.2,0.2-0.4,0.3c-0.2,0.1-0.3,0.2-0.5,0.2v0
				c0.1,0.1,0.2,0.1,0.3,0.2c0.1,0.1,0.1,0.1,0.2,0.2c0.1,0.1,0.1,0.2,0.2,0.2s0.1,0.2,0.2,0.3L55.3,5.6z M52,0.8v1.8h0.8
				c0.1,0,0.3,0,0.4-0.1c0.1,0,0.2-0.1,0.3-0.2c0.1-0.1,0.2-0.2,0.2-0.3c0-0.1,0.1-0.3,0.1-0.4c0-0.3-0.1-0.5-0.3-0.6
				S53,0.8,52.7,0.8H52z"/>
			<path fill="#4F504F" d="M60.2,5.6H59L57,3.1C57,3,56.9,2.9,56.9,2.9h0v2.7H56V0h0.9v2.6h0c0-0.1,0.1-0.1,0.1-0.2L58.9,0H60
				l-2.2,2.7L60.2,5.6z"/>
			<path fill="#4F504F" d="M63.9,5.6h-3.1V0h3v0.8h-2.1v1.6h1.9v0.8h-1.9v1.6h2.2V5.6z"/>
			<path fill="#4F504F" d="M68.5,0.8h-1.6v4.8H66V0.8h-1.6V0h4.1V0.8z"/>
			<path fill="#4F504F" d="M70.3,5.6h-0.9V0h0.9V5.6z"/>
			<path fill="#4F504F" d="M76.3,5.6h-1l-2.6-4.1c-0.1-0.1-0.1-0.2-0.2-0.3h0c0,0.1,0,0.4,0,0.8v3.6h-0.9V0h1.1l2.6,4
				c0.1,0.2,0.2,0.3,0.2,0.3h0c0-0.1,0-0.4,0-0.7V0h0.9V5.6z"/>
			<path fill="#4F504F" d="M82,5.2c-0.6,0.3-1.2,0.5-1.9,0.5c-0.8,0-1.5-0.3-2-0.8c-0.5-0.5-0.8-1.2-0.8-2c0-0.9,0.3-1.6,0.8-2.1
				C78.7,0.2,79.4,0,80.3,0c0.6,0,1.1,0.1,1.6,0.3v0.9c-0.4-0.3-0.9-0.4-1.5-0.4c-0.6,0-1.1,0.2-1.5,0.6c-0.4,0.4-0.6,0.9-0.6,1.5
				c0,0.6,0.2,1.1,0.5,1.5c0.3,0.4,0.8,0.5,1.3,0.5c0.4,0,0.7-0.1,1-0.2V3.4h-1.2V2.6H82V5.2z"/>
		</g>
		<g>
			<path fill="#4F504F" d="M90.3,5.4V4.4c0.1,0.1,0.2,0.1,0.3,0.2c0.1,0.1,0.2,0.1,0.4,0.2c0.1,0,0.3,0.1,0.4,0.1c0.1,0,0.3,0,0.4,0
				c0.4,0,0.7-0.1,0.9-0.2s0.3-0.3,0.3-0.6c0-0.1,0-0.2-0.1-0.3s-0.2-0.2-0.3-0.3c-0.1-0.1-0.2-0.2-0.4-0.2s-0.3-0.2-0.5-0.2
				c-0.2-0.1-0.4-0.2-0.5-0.3c-0.2-0.1-0.3-0.2-0.4-0.3c-0.1-0.1-0.2-0.3-0.3-0.4s-0.1-0.3-0.1-0.6c0-0.3,0.1-0.5,0.2-0.7
				c0.1-0.2,0.3-0.4,0.5-0.5c0.2-0.1,0.4-0.2,0.7-0.3C91.9,0,92.1,0,92.4,0c0.6,0,1,0.1,1.3,0.2v0.9c-0.3-0.2-0.7-0.3-1.2-0.3
				c-0.1,0-0.3,0-0.4,0c-0.1,0-0.3,0.1-0.4,0.1c-0.1,0.1-0.2,0.1-0.3,0.2s-0.1,0.2-0.1,0.3c0,0.1,0,0.2,0.1,0.3
				c0.1,0.1,0.1,0.2,0.2,0.2c0.1,0.1,0.2,0.1,0.4,0.2c0.1,0.1,0.3,0.1,0.5,0.2c0.2,0.1,0.4,0.2,0.5,0.3c0.2,0.1,0.3,0.2,0.5,0.4
				s0.2,0.3,0.3,0.4c0.1,0.2,0.1,0.3,0.1,0.6c0,0.3-0.1,0.5-0.2,0.7c-0.1,0.2-0.3,0.4-0.5,0.5c-0.2,0.1-0.4,0.2-0.7,0.3
				c-0.3,0.1-0.5,0.1-0.8,0.1c-0.1,0-0.2,0-0.3,0c-0.1,0-0.3,0-0.4-0.1s-0.3-0.1-0.4-0.1S90.4,5.4,90.3,5.4z"/>
			<path fill="#4F504F" d="M99.5,5.6h-1L98,4.2h-2.2l-0.5,1.4h-1L96.4,0h1L99.5,5.6z M97.7,3.4l-0.8-2.2c0-0.1,0-0.2-0.1-0.3h0
				c0,0.1,0,0.3-0.1,0.3L96,3.4H97.7z"/>
			<path fill="#4F504F" d="M103.3,5.6h-3.1V0h0.9v4.8h2.1V5.6z"/>
			<path fill="#4F504F" d="M107.2,5.6h-3.1V0h3v0.8H105v1.6h1.9v0.8H105v1.6h2.2V5.6z"/>
			<path fill="#4F504F" d="M107.9,5.4V4.4c0.1,0.1,0.2,0.1,0.3,0.2c0.1,0.1,0.2,0.1,0.4,0.2c0.1,0,0.3,0.1,0.4,0.1
				c0.1,0,0.3,0,0.4,0c0.4,0,0.7-0.1,0.9-0.2s0.3-0.3,0.3-0.6c0-0.1,0-0.2-0.1-0.3s-0.2-0.2-0.3-0.3c-0.1-0.1-0.2-0.2-0.4-0.2
				s-0.3-0.2-0.5-0.2c-0.2-0.1-0.4-0.2-0.5-0.3c-0.2-0.1-0.3-0.2-0.4-0.3c-0.1-0.1-0.2-0.3-0.3-0.4s-0.1-0.3-0.1-0.6
				c0-0.3,0.1-0.5,0.2-0.7c0.1-0.2,0.3-0.4,0.5-0.5c0.2-0.1,0.4-0.2,0.7-0.3C109.5,0,109.7,0,110,0c0.6,0,1,0.1,1.3,0.2v0.9
				c-0.3-0.2-0.7-0.3-1.2-0.3c-0.1,0-0.3,0-0.4,0c-0.1,0-0.3,0.1-0.4,0.1c-0.1,0.1-0.2,0.1-0.3,0.2s-0.1,0.2-0.1,0.3
				c0,0.1,0,0.2,0.1,0.3c0.1,0.1,0.1,0.2,0.2,0.2c0.1,0.1,0.2,0.1,0.4,0.2c0.1,0.1,0.3,0.1,0.5,0.2c0.2,0.1,0.4,0.2,0.5,0.3
				c0.2,0.1,0.3,0.2,0.5,0.4s0.2,0.3,0.3,0.4c0.1,0.2,0.1,0.3,0.1,0.6c0,0.3-0.1,0.5-0.2,0.7c-0.1,0.2-0.3,0.4-0.5,0.5
				c-0.2,0.1-0.4,0.2-0.7,0.3c-0.3,0.1-0.5,0.1-0.8,0.1c-0.1,0-0.2,0-0.3,0c-0.1,0-0.3,0-0.4-0.1s-0.3-0.1-0.4-0.1
				S108,5.4,107.9,5.4z"/>
		</g>
		<g>
			<path fill="#4F504F" d="M127.3,0.8h-2.1v1.7h1.9v0.8h-1.9v2.3h-0.9V0h3V0.8z"/>
			<path fill="#4F504F" d="M129.2,5.6h-0.9V0h0.9V5.6z"/>
			<path fill="#4F504F" d="M135.3,5.6h-1l-2.6-4.1c-0.1-0.1-0.1-0.2-0.2-0.3h0c0,0.1,0,0.4,0,0.8v3.6h-0.9V0h1.1l2.6,4
				c0.1,0.2,0.2,0.3,0.2,0.3h0c0-0.1,0-0.4,0-0.7V0h0.9V5.6z"/>
			<path fill="#4F504F" d="M141.2,5.6h-1l-0.5-1.4h-2.2l-0.5,1.4h-1l2.1-5.5h1L141.2,5.6z M139.5,3.4l-0.8-2.2c0-0.1,0-0.2-0.1-0.3
				h0c0,0.1,0,0.3-0.1,0.3l-0.8,2.2H139.5z"/>
			<path fill="#4F504F" d="M146.7,5.6h-1L143,1.5c-0.1-0.1-0.1-0.2-0.2-0.3h0c0,0.1,0,0.4,0,0.8v3.6H142V0h1.1l2.6,4
				c0.1,0.2,0.2,0.3,0.2,0.3h0c0-0.1,0-0.4,0-0.7V0h0.9V5.6z"/>
			<path fill="#4F504F" d="M151.9,5.4c-0.4,0.2-0.9,0.3-1.6,0.3c-0.8,0-1.4-0.3-1.9-0.8s-0.7-1.2-0.7-2c0-0.9,0.3-1.6,0.8-2.1
				c0.5-0.5,1.2-0.8,2.1-0.8c0.5,0,1,0.1,1.3,0.2v0.9c-0.4-0.2-0.8-0.3-1.2-0.3c-0.6,0-1.1,0.2-1.5,0.6c-0.4,0.4-0.6,0.9-0.6,1.5
				c0,0.6,0.2,1.1,0.5,1.5c0.3,0.4,0.8,0.5,1.4,0.5c0.5,0,1-0.1,1.4-0.4V5.4z"/>
			<path fill="#4F504F" d="M156.1,5.6H153V0h3v0.8h-2.1v1.6h1.9v0.8h-1.9v1.6h2.2V5.6z"/>
		</g>
		<g>
			<path fill="#4F504F" d="M176.7,5.6h-0.9V3.2h-2.6v2.4h-0.9V0h0.9v2.3h2.6V0h0.9V5.6z"/>
			<path fill="#4F504F" d="M182.3,5.6h-1.1l-0.9-1.5c-0.1-0.1-0.2-0.3-0.2-0.3c-0.1-0.1-0.2-0.2-0.2-0.2c-0.1-0.1-0.2-0.1-0.3-0.1
				c-0.1,0-0.2,0-0.3,0h-0.4v2.3H178V0h1.8c0.3,0,0.5,0,0.7,0.1c0.2,0.1,0.4,0.2,0.6,0.3c0.2,0.1,0.3,0.3,0.4,0.5
				c0.1,0.2,0.1,0.4,0.1,0.7c0,0.2,0,0.4-0.1,0.5c-0.1,0.2-0.1,0.3-0.2,0.4c-0.1,0.1-0.2,0.2-0.4,0.3c-0.2,0.1-0.3,0.2-0.5,0.2v0
				c0.1,0.1,0.2,0.1,0.3,0.2c0.1,0.1,0.1,0.1,0.2,0.2c0.1,0.1,0.1,0.2,0.2,0.2s0.1,0.2,0.2,0.3L182.3,5.6z M178.9,0.8v1.8h0.8
				c0.1,0,0.3,0,0.4-0.1c0.1,0,0.2-0.1,0.3-0.2c0.1-0.1,0.2-0.2,0.2-0.3c0-0.1,0.1-0.3,0.1-0.4c0-0.3-0.1-0.5-0.3-0.6
				s-0.4-0.2-0.7-0.2H178.9z"/>
		</g>
		<g>
			<path fill="#515150" d="M16.4,46.1c0.8-0.9,2-1.4,3.3-1.4c1.7,0,3.2,1,4,2.4c0.7-0.3,1.5-0.5,2.3-0.5c3.1,0,5.6,2.5,5.6,5.6
				c0,3.1-2.5,5.6-5.6,5.6c-0.4,0-0.7,0-1.1-0.1c-0.7,1.2-2,2.1-3.6,2.1c-0.6,0-1.2-0.1-1.8-0.4c-0.7,1.7-2.4,2.8-4.3,2.8
				c-2,0-3.7-1.3-4.4-3.1c-0.3,0.1-0.6,0.1-0.9,0.1c-2.4,0-4.3-2-4.3-4.4c0-1.6,0.9-3,2.2-3.8c-0.3-0.6-0.4-1.3-0.4-2
				c0-2.8,2.3-5,5-5C14,44.1,15.5,44.9,16.4,46.1"/>
			<path fill="#FFFFFF" d="M9.4,53.6C9.4,53.6,9.4,53.6,9.4,53.6c0.1,0.1,0.1,0.1,0.2,0.1c0.3,0.1,0.5,0.2,0.8,0.2
				c0.5,0,0.9-0.3,0.9-0.7v0c0-0.4-0.4-0.6-0.7-0.7l0,0c-0.3-0.1-0.5-0.2-0.5-0.3v0c0-0.1,0.1-0.3,0.3-0.3c0.2,0,0.5,0.1,0.7,0.2
				c0,0,0.1,0,0.1,0c0,0,0.1-0.3,0.1-0.3c0,0,0,0,0-0.1c-0.2-0.1-0.5-0.2-0.8-0.2l-0.1,0c-0.5,0-0.8,0.3-0.8,0.7v0
				c0,0.4,0.4,0.6,0.7,0.7l0.1,0c0.3,0.1,0.5,0.1,0.5,0.3v0c0,0.2-0.1,0.3-0.4,0.3c-0.1,0-0.4,0-0.7-0.2c0,0-0.1,0-0.1-0.1
				c0,0-0.1,0-0.1,0L9.4,53.6z"/>
			<path fill="#FFFFFF" d="M17.2,53.6C17.1,53.6,17.2,53.6,17.2,53.6c0.1,0.1,0.1,0.1,0.2,0.1c0.3,0.1,0.5,0.2,0.8,0.2
				c0.5,0,0.9-0.3,0.9-0.7v0c0-0.4-0.4-0.6-0.7-0.7l0,0c-0.3-0.1-0.5-0.2-0.5-0.3v0c0-0.1,0.1-0.3,0.3-0.3c0.2,0,0.5,0.1,0.7,0.2
				c0,0,0.1,0,0.1,0c0,0,0.1-0.3,0.1-0.3c0,0,0,0,0-0.1c-0.2-0.1-0.5-0.2-0.8-0.2l-0.1,0c-0.5,0-0.8,0.3-0.8,0.7v0
				c0,0.4,0.4,0.6,0.7,0.7l0.1,0c0.3,0.1,0.5,0.1,0.5,0.3v0c0,0.2-0.1,0.3-0.4,0.3c-0.1,0-0.4,0-0.7-0.2c0,0-0.1,0-0.1-0.1
				c0,0-0.1,0-0.1,0L17.2,53.6z"/>
			<path fill="#FFFFFF" d="M22.9,52.2c0-0.1-0.1-0.3-0.2-0.4c-0.1-0.1-0.2-0.2-0.3-0.3c-0.1-0.1-0.3-0.1-0.5-0.1
				c-0.2,0-0.3,0-0.5,0.1c-0.1,0.1-0.3,0.2-0.3,0.3c-0.1,0.1-0.2,0.2-0.2,0.4c0,0.1-0.1,0.3-0.1,0.5c0,0.2,0,0.3,0.1,0.5
				c0,0.1,0.1,0.3,0.2,0.4c0.1,0.1,0.2,0.2,0.3,0.3c0.1,0.1,0.3,0.1,0.5,0.1c0.2,0,0.3,0,0.5-0.1c0.1-0.1,0.3-0.1,0.3-0.3
				c0.1-0.1,0.2-0.2,0.2-0.4c0-0.1,0.1-0.3,0.1-0.5C23,52.5,23,52.3,22.9,52.2 M22.5,52.7c0,0.3,0,0.5-0.1,0.6
				c-0.1,0.1-0.2,0.2-0.4,0.2c-0.2,0-0.3-0.1-0.4-0.2c-0.1-0.1-0.1-0.3-0.1-0.6c0-0.3,0-0.5,0.1-0.6c0.1-0.1,0.2-0.2,0.4-0.2
				c0.2,0,0.3,0.1,0.4,0.2C22.4,52.2,22.5,52.4,22.5,52.7"/>
			<path fill-rule="evenodd" clip-rule="evenodd" fill="#FFFFFF" d="M26.6,53.4C26.6,53.4,26.5,53.4,26.6,53.4c-0.1,0-0.2,0-0.3,0
				c-0.1,0-0.2,0-0.2,0c-0.2,0-0.4-0.1-0.5-0.2c-0.1-0.1-0.2-0.3-0.2-0.6c0-0.3,0.1-0.4,0.2-0.6c0.1-0.1,0.3-0.2,0.5-0.2
				c0.2,0,0.3,0,0.5,0.1c0,0,0,0,0.1,0c0-0.1,0.1-0.2,0.1-0.3c0,0,0,0,0-0.1c-0.1,0-0.2-0.1-0.3-0.1c-0.1,0-0.2,0-0.3,0
				c-0.2,0-0.4,0-0.5,0.1c-0.1,0.1-0.3,0.2-0.4,0.3c-0.1,0.1-0.2,0.2-0.2,0.4c0,0.1-0.1,0.3-0.1,0.5c0,0.4,0.1,0.7,0.3,0.9
				c0.2,0.2,0.5,0.3,0.9,0.3c0.2,0,0.5,0,0.6-0.1c0,0,0,0,0-0.1L26.6,53.4z"/>
			<path fill-rule="evenodd" clip-rule="evenodd" fill="#FFFFFF" d="M28.8,52.1c0-0.1-0.1-0.3-0.2-0.4c-0.1-0.1-0.2-0.2-0.3-0.2
				c-0.1-0.1-0.3-0.1-0.4-0.1c-0.2,0-0.4,0-0.5,0.1c-0.1,0.1-0.3,0.2-0.3,0.3c-0.1,0.1-0.2,0.2-0.2,0.4c0,0.1-0.1,0.3-0.1,0.5
				c0,0.2,0,0.3,0.1,0.5c0,0.1,0.1,0.3,0.2,0.4c0.1,0.1,0.2,0.2,0.4,0.3c0.2,0.1,0.3,0.1,0.5,0.1c0.4,0,0.7-0.1,0.8-0.2
				c0,0,0,0,0-0.1l-0.1-0.3c0,0-0.1,0-0.1,0c-0.1,0-0.3,0.1-0.6,0.1c-0.2,0-0.4-0.1-0.5-0.2c-0.1-0.1-0.2-0.3-0.2-0.5l1.5,0
				c0,0,0,0,0,0C28.9,52.7,28.9,52.4,28.8,52.1 M27.4,52.4c0-0.1,0.1-0.3,0.1-0.4c0.1-0.1,0.2-0.2,0.4-0.2c0.2,0,0.3,0.1,0.4,0.2
				c0.1,0.1,0.1,0.2,0.1,0.4L27.4,52.4z"/>
			<path fill-rule="evenodd" clip-rule="evenodd" fill="#FFFFFF" d="M16.8,52.1c0-0.1-0.1-0.3-0.2-0.4c-0.1-0.1-0.2-0.2-0.3-0.2
				c-0.1-0.1-0.3-0.1-0.4-0.1c-0.2,0-0.4,0-0.5,0.1c-0.1,0.1-0.3,0.2-0.3,0.3c-0.1,0.1-0.2,0.2-0.2,0.4c0,0.1-0.1,0.3-0.1,0.5
				c0,0.2,0,0.3,0.1,0.5c0,0.1,0.1,0.3,0.2,0.4c0.1,0.1,0.2,0.2,0.4,0.3c0.2,0.1,0.3,0.1,0.5,0.1c0.4,0,0.7-0.1,0.8-0.2
				c0,0,0,0,0-0.1l-0.1-0.3c0,0-0.1,0-0.1,0c-0.1,0-0.3,0.1-0.6,0.1c-0.2,0-0.4-0.1-0.5-0.2c-0.1-0.1-0.2-0.3-0.2-0.5l1.5,0
				c0,0,0,0,0,0C16.9,52.7,16.9,52.4,16.8,52.1 M15.3,52.4c0-0.1,0.1-0.3,0.1-0.4c0.1-0.1,0.2-0.2,0.4-0.2c0.2,0,0.3,0.1,0.4,0.2
				c0.1,0.1,0.1,0.2,0.1,0.4L15.3,52.4z"/>
			<path fill="#FFFFFF" d="M12.7,52.3c-0.1,0-0.1,0-0.2,0c-0.1,0-0.3,0-0.4,0c-0.1,0-0.2,0.1-0.3,0.1c-0.1,0.1-0.2,0.1-0.2,0.2
				c-0.1,0.1-0.1,0.2-0.1,0.3c0,0.1,0,0.2,0.1,0.3c0,0.1,0.1,0.2,0.2,0.2c0.1,0.1,0.2,0.1,0.3,0.1c0.1,0,0.3,0,0.4,0
				c0.2,0,0.3,0,0.5,0c0.1,0,0.3-0.1,0.4-0.1c0,0,0.1,0,0.1,0c0,0,0,0,0,0l0-1.4c0-0.3-0.1-0.5-0.2-0.7c-0.2-0.1-0.4-0.2-0.7-0.2
				c-0.1,0-0.3,0-0.4,0c0,0-0.3,0.1-0.5,0.2c0,0,0,0,0,0.1l0.1,0.3c0,0,0,0,0,0s0,0,0,0c0.3-0.2,0.7-0.2,0.7-0.2
				c0.2,0,0.3,0,0.4,0.1c0.1,0.1,0.1,0.2,0.1,0.4v0.1C12.8,52.4,12.7,52.3,12.7,52.3 M12.1,53.4C12,53.4,12,53.3,12.1,53.4
				c-0.1-0.1-0.1-0.2-0.1-0.3c0-0.1,0-0.2,0.1-0.3c0,0,0.1-0.1,0.4-0.1c0.2,0,0.4,0,0.4,0v0.7c0,0-0.2,0-0.4,0.1
				C12.2,53.5,12.1,53.4,12.1,53.4"/>
			<path fill-rule="evenodd" clip-rule="evenodd" fill="#FFFFFF" d="M24.8,51.6C24.8,51.5,24.8,51.5,24.8,51.6
				c0-0.1-0.2-0.1-0.3-0.1c-0.2,0-0.3,0-0.4,0.1c-0.1,0-0.2,0.1-0.3,0.2l0-0.2c0,0,0,0,0,0h-0.4c0,0,0,0,0,0v2.2c0,0,0,0,0,0h0.4
				c0,0,0,0,0,0v-1.1c0-0.2,0-0.3,0-0.4c0-0.1,0.1-0.2,0.1-0.2c0.1-0.1,0.1-0.1,0.2-0.1c0.1,0,0.1,0,0.2,0c0.1,0,0.2,0,0.2,0
				c0,0,0,0,0.1,0C24.7,51.8,24.8,51.6,24.8,51.6"/>
			<path fill-rule="evenodd" clip-rule="evenodd" fill="#FFFFFF" d="M21.1,50.5c0,0-0.1,0-0.1,0c-0.1,0-0.1,0-0.2,0
				c-0.3,0-0.5,0.1-0.6,0.2c-0.1,0.2-0.3,0.4-0.3,0.7l0,0.1h-0.3c0,0,0,0-0.1,0l-0.1,0.3c0,0,0,0,0,0h0.3l-0.3,1.9
				c0,0.2-0.1,0.3-0.1,0.4c0,0.1-0.1,0.2-0.1,0.2c0,0-0.1,0.1-0.1,0.1c-0.1,0-0.1,0-0.2,0c0,0-0.1,0-0.1,0c0,0-0.1,0-0.1,0
				c0,0,0,0-0.1,0c0,0-0.1,0.3-0.1,0.3c0,0,0,0.1,0,0.1c0,0,0.1,0,0.1,0c0.1,0,0.2,0,0.2,0c0.1,0,0.3,0,0.4-0.1
				c0.1,0,0.2-0.1,0.3-0.2c0.1-0.1,0.1-0.2,0.2-0.3c0.1-0.1,0.1-0.3,0.1-0.5l0.3-1.9h0.5c0,0,0,0,0.1,0l0.1-0.3c0,0,0,0,0,0h-0.5
				c0,0,0-0.2,0.1-0.3c0-0.1,0.1-0.1,0.1-0.2c0,0,0.1-0.1,0.1-0.1c0,0,0.1,0,0.2,0c0,0,0.1,0,0.1,0c0,0,0.1,0,0.1,0c0,0,0.1,0,0.1,0
				L21.1,50.5C21.1,50.6,21.1,50.5,21.1,50.5"/>
			<path fill-rule="evenodd" clip-rule="evenodd" fill="#FFFFFF" d="M14.4,53.8C14.4,53.8,14.3,53.8,14.4,53.8l-0.4,0c0,0,0,0,0,0
				v-3.2c0,0,0,0,0,0h0.4c0,0,0,0,0,0L14.4,53.8z"/>
		</g>
		<path fill="#4F504F" d="M25.8,112c-0.6,0.3-1.3,0.5-1.9,0.5c0.7-0.4,1.2-1.1,1.5-1.9c-0.7,0.4-1.4,0.7-2.2,0.8
			c-0.6-0.7-1.5-1.1-2.5-1.1c-1.9,0-3.4,1.5-3.4,3.4c0,0.3,0,0.5,0.1,0.8c-2.8-0.1-5.3-1.5-7-3.5c-0.3,0.5-0.5,1.1-0.5,1.7
			c0,1.2,0.6,2.2,1.5,2.8c-0.6,0-1.1-0.2-1.5-0.4c0,0,0,0,0,0c0,1.6,1.2,3,2.7,3.3c-0.3,0.1-0.6,0.1-0.9,0.1c-0.2,0-0.4,0-0.6-0.1
			c0.4,1.3,1.7,2.3,3.2,2.4c-1.2,0.9-2.6,1.5-4.2,1.5c-0.3,0-0.5,0-0.8,0c1.5,1,3.3,1.5,5.2,1.5c6.2,0,9.6-5.2,9.6-9.6
			c0-0.1,0-0.3,0-0.4C24.8,113.2,25.4,112.7,25.8,112z"/>
		<g id="fb_2_">
			<g>
				<g>
					<path fill="#4F504F" d="M19.1,136.9l-2.3,0c-0.3,0-0.6,0.4-0.6,0.9l0,1.5h2.9l0,2.8h-2.8l0,6.9l-2.9,0l0-7l-2.3,0l0-2.8h2.3
						l0-1.4c0-2.1,1.5-3.7,3.4-3.7h2.3L19.1,136.9z"/>
				</g>
			</g>
		</g>
		<g>
			<g>
				<path fill="#4F504F" d="M32.3,76.7c0.1,0,0.1-0.1,0.1-0.1c0-0.1-0.1-0.2-0.2-0.2H32v0.6h0.1v-0.2L32.3,76.7L32.3,76.7l0.1,0.2
					h0.1L32.3,76.7L32.3,76.7z M32.2,76.6L32.2,76.6l-0.1-0.2h0.1c0.1,0,0.1,0,0.1,0.1C32.3,76.6,32.3,76.6,32.2,76.6z"/>
				<path fill="#4F504F" d="M32.2,76.1c-0.3,0-0.5,0.2-0.5,0.5c0,0.3,0.2,0.5,0.5,0.5c0.3,0,0.5-0.2,0.5-0.5
					C32.7,76.3,32.5,76.1,32.2,76.1z M32.2,77.1c-0.2,0-0.4-0.2-0.4-0.5c0-0.3,0.2-0.5,0.4-0.5c0.2,0,0.4,0.2,0.4,0.5
					C32.6,76.9,32.4,77.1,32.2,77.1z"/>
			</g>
			<g>
				<g>
					<polygon fill="#4F504F" points="0.1,71.4 1.3,71.4 1.3,75.9 3.5,75.9 3.5,77 0.1,77 					"/>
					<g>
						<path fill="#4F504F" d="M4.1,73.2h1.2V77H4.1V73.2z M4.7,71.3c0.4,0,0.7,0.3,0.7,0.7c0,0.4-0.3,0.7-0.7,0.7
							C4.3,72.7,4,72.4,4,72C4,71.7,4.3,71.3,4.7,71.3"/>
					</g>
					<polygon fill="#4F504F" points="10.2,71.4 11.3,71.4 11.3,74.8 12.7,73.2 14.1,73.2 12.6,75 14.1,77 12.6,77 11.4,75.1 
						11.3,75.1 11.3,77 10.2,77 					"/>
					<path fill="#4F504F" d="M5.9,73.2H7v0.5h0c0.2-0.3,0.5-0.6,1.1-0.6c1.2,0,1.4,0.8,1.4,1.8V77H8.4v-1.8c0-0.4,0-1-0.6-1
						c-0.6,0-0.7,0.5-0.7,1V77H5.9V73.2z"/>
					<path fill="#4F504F" d="M16.6,74.7c0-0.4-0.3-0.7-0.7-0.7c-0.5,0-0.8,0.4-0.8,0.7H16.6z M17.6,76.4c-0.4,0.5-1,0.8-1.6,0.8
						c-1.2,0-2.1-0.8-2.1-2c0-1.2,0.9-2,2.1-2c1.1,0,1.8,0.8,1.8,2v0.4H15c0.1,0.4,0.4,0.7,0.9,0.7c0.4,0,0.6-0.2,0.8-0.5L17.6,76.4
						z"/>
					<path fill="#4F504F" d="M20.2,74.1c-0.6,0-0.9,0.4-0.9,1c0,0.6,0.4,1,0.9,1c0.6,0,0.9-0.4,0.9-1C21.1,74.5,20.8,74.1,20.2,74.1
						 M22.2,77h-1.1v-0.5h0c-0.2,0.3-0.6,0.6-1.2,0.6c-1.1,0-1.9-0.8-1.9-2c0-1.1,0.7-2,1.7-2c0.5,0,0.9,0.1,1.2,0.5h0v-2.2h1.2V77z
						"/>
				</g>
				<path fill="#4F504F" d="M30.7,70.3H24c-0.3,0-0.6,0.3-0.6,0.6v6.8c0,0.3,0.3,0.6,0.6,0.6h6.8c0.3,0,0.6-0.3,0.6-0.6v-6.8
					C31.3,70.5,31.1,70.3,30.7,70.3z M25.8,77h-1.2v-3.8h1.2V77z M25.2,72.7c-0.4,0-0.7-0.3-0.7-0.7c0-0.4,0.3-0.7,0.7-0.7
					c0.4,0,0.7,0.3,0.7,0.7C25.8,72.4,25.5,72.7,25.2,72.7z M30.2,77H29v-1.8c0-0.4,0-1-0.6-1c-0.6,0-0.7,0.5-0.7,1V77h-1.2v-3.8
					h1.1v0.5h0c0.2-0.3,0.5-0.6,1.1-0.6c1.2,0,1.4,0.8,1.4,1.8V77z"/>
			</g>
		</g>
		<g>
			<path fill="#4F504F" d="M11.6,86.1h10.5c1,0,1.8,0.7,1.8,1.8v10.5c0,1.1-0.8,1.8-1.8,1.8H11.6c-1,0-1.8-0.7-1.8-1.8V88
				C9.8,86.9,10.6,86.1,11.6,86.1L11.6,86.1z M20.1,87.7c-0.4,0-0.6,0.3-0.6,0.6v1.5c0,0.4,0.3,0.6,0.6,0.6h1.6
				c0.4,0,0.6-0.3,0.6-0.6v-1.5c0-0.4-0.3-0.6-0.6-0.6H20.1L20.1,87.7z M22.4,92.1h-1.2c0.1,0.4,0.2,0.8,0.2,1.2
				c0,2.4-2,4.3-4.4,4.3c-2.4,0-4.4-1.9-4.4-4.3c0-0.4,0.1-0.8,0.2-1.2h-1.3v6c0,0.3,0.3,0.6,0.6,0.6h9.8c0.3,0,0.6-0.3,0.6-0.6
				L22.4,92.1L22.4,92.1z M16.9,90.4c-1.6,0-2.8,1.2-2.8,2.8s1.3,2.8,2.8,2.8c1.6,0,2.8-1.2,2.8-2.8S18.5,90.4,16.9,90.4z"/>
		</g>
		<g id="outlook_7_">
			<path fill="#515150" d="M26.6,23.1c0-0.5-0.5-0.6-0.9-0.6c-1.9,0-3.8,0-5.7,0c0-1.2,0-2.4,0-3.6v-0.2c-2.8,0.5-6.7,1.2-9.5,1.7
				c0,4.2,0,8.5,0,12.8c2.8,0.5,6.7,1.1,9.5,1.6v-0.2c0-1.1,0-2.3,0-3.5c2,0,4,0,6,0c0.6,0,0.6-0.7,0.6-1.1
				C26.6,27.7,26.7,25.4,26.6,23.1z M16.5,29.2c-1.1,0.9-2.9,0.4-3.4-0.9c-0.7-1.5-0.3-3.9,1.4-4.5c1-0.4,2.2,0.2,2.7,1.1
				C17.7,26.3,17.6,28.2,16.5,29.2z M26.1,30.6c-2,0-4,0-6,0c0-1.6,0-3.2,0-4.8c0.7,0.6,1.3,1.3,2,1.8c0.3,0.1,0.5-0.2,0.7-0.4
				c1.1-1,2.2-2.1,3.3-3.1C26.1,26.3,26.1,28.4,26.1,30.6z M25.8,23.7c-1.2,1.1-2.4,2.3-3.6,3.4c-0.7-0.7-1.4-1.3-2.1-2
				c0-0.7,0-1.3,0-2c2,0,4,0,6.1,0C26.1,23.3,26,23.6,25.8,23.7z"/>
			<path fill="#515150" d="M14.6,24.9c0.5-0.2,1.1,0,1.3,0.5c0.4,0.7,0.4,1.6,0.1,2.4c-0.2,0.5-0.8,1-1.3,0.8
				c-0.7-0.2-0.9-1.1-0.9-1.7C13.8,26,14,25.2,14.6,24.9z"/>
		</g>
		<g>
			<path fill="#04AF91" d="M52.7,27.8l2.4-2.4l2.4,2.4l7-7l2.4,2.4l-9.4,9.4L52.7,27.8z"/>
			<path fill="#04AF91" d="M131.4,27.8l2.4-2.4l2.4,2.4l7-7l2.4,2.4l-9.4,9.4L131.4,27.8z"/>
			<path fill="#04AF91" d="M92.1,27.8l2.4-2.4l2.4,2.4l7-7l2.4,2.4l-9.4,9.4L92.1,27.8z"/>
			<path fill="#04AF91" d="M170.7,27.8l2.4-2.4l2.4,2.4l7-7l2.4,2.4l-9.4,9.4L170.7,27.8z"/>
		</g>
		<path fill="#04AF91" d="M52.7,50.9l2.4-2.4l2.4,2.4l7-7l2.4,2.4l-9.4,9.4L52.7,50.9z"/>
		<path fill="#04AF91" d="M92.1,50.9l2.4-2.4l2.4,2.4l7-7l2.4,2.4l-9.4,9.4L92.1,50.9z"/>
		<path fill="#04AF91" d="M52.7,73.9l2.4-2.4l2.4,2.4l7-7l2.4,2.4l-9.4,9.4L52.7,73.9z"/>
		<path fill="#04AF91" d="M170.7,73.9l2.4-2.4l2.4,2.4l7-7l2.4,2.4l-9.4,9.4L170.7,73.9z"/>
		<path fill="#04AF91" d="M52.7,97l2.4-2.4l2.4,2.4l7-7l2.4,2.4l-9.4,9.4L52.7,97z"/>
		<path fill="#04AF91" d="M52.7,120l2.4-2.4l2.4,2.4l7-7l2.4,2.4l-9.4,9.4L52.7,120z"/>
		<path fill="#04AF91" d="M170.7,120l2.4-2.4l2.4,2.4l7-7l2.4,2.4l-9.4,9.4L170.7,120z"/>
		<path fill="#04AF91" d="M52.7,143.1l2.4-2.4l2.4,2.4l7-7l2.4,2.4l-9.4,9.4L52.7,143.1z"/>
		<path fill="#04AF91" d="M92.1,143.1l2.4-2.4l2.4,2.4l7-7l2.4,2.4l-9.4,9.4L92.1,143.1z"/>
		<path fill="#F68C1F" d="M141.9,55.8l-3.2-3.2l-3.2,3.2l-2.4-2.4l3.2-3.2l-3.2-3.2l2.4-2.4l3.2,3.2l3.2-3.2l2.4,2.4l-3.2,3.2
			l3.2,3.2L141.9,55.8z"/>
		<path fill="#F68C1F" d="M181.3,55.8l-3.2-3.2l-3.2,3.2l-2.4-2.4l3.2-3.2l-3.2-3.2l2.4-2.4l3.2,3.2l3.2-3.2l2.4,2.4l-3.2,3.2
			l3.2,3.2L181.3,55.8z"/>
		<path fill="#F68C1F" d="M181.3,101.5l-3.2-3.2l-3.2,3.2l-2.4-2.4l3.2-3.2l-3.2-3.2l2.4-2.4l3.2,3.2l3.2-3.2l2.4,2.4l-3.2,3.2
			l3.2,3.2L181.3,101.5z"/>
		<g>
			<path fill="#F68C1F" d="M102.3,79.9L99,76.7l-3.2,3.2l-2.4-2.4l3.2-3.2L93.4,71l2.4-2.4l3.2,3.2l3.2-3.2l2.4,2.4l-3.2,3.2
				l3.2,3.2L102.3,79.9z"/>
			<path fill="#F68C1F" d="M141.9,79.9l-3.2-3.2l-3.2,3.2l-2.4-2.4l3.2-3.2L133,71l2.4-2.4l3.2,3.2l3.2-3.2l2.4,2.4l-3.2,3.2
				l3.2,3.2L141.9,79.9z"/>
		</g>
		<g>
			<path fill="#F68C1F" d="M102.3,124.5l-3.2-3.2l-3.2,3.2l-2.4-2.4l3.2-3.2l-3.2-3.2l2.4-2.4l3.2,3.2l3.2-3.2l2.4,2.4l-3.2,3.2
				l3.2,3.2L102.3,124.5z"/>
			<path fill="#F68C1F" d="M141.9,124.5l-3.2-3.2l-3.2,3.2L133,122l3.2-3.2l-3.2-3.2l2.4-2.4l3.2,3.2l3.2-3.2l2.4,2.4l-3.2,3.2
				l3.2,3.2L141.9,124.5z"/>
		</g>
		<path fill="#F68C1F" d="M102.3,101.5L99,98.3l-3.2,3.2l-2.4-2.4l3.2-3.2l-3.2-3.2l2.4-2.4l3.2,3.2l3.2-3.2l2.4,2.4l-3.2,3.2
			l3.2,3.2L102.3,101.5z"/>
		<path fill="#F68C1F" d="M141.9,101.5l-3.2-3.2l-3.2,3.2l-2.4-2.4l3.2-3.2l-3.2-3.2l2.4-2.4l3.2,3.2l3.2-3.2l2.4,2.4l-3.2,3.2
			l3.2,3.2L141.9,101.5z"/>
		<path fill="#F68C1F" d="M181.3,147.6l-3.2-3.2l-3.2,3.2l-2.4-2.4l3.2-3.2l-3.2-3.2l2.4-2.4l3.2,3.2l3.2-3.2l2.4,2.4l-3.2,3.2
			l3.2,3.2L181.3,147.6z"/>
		<path fill="#F68C1F" d="M141.9,147.6l-3.2-3.2l-3.2,3.2l-2.4-2.4l3.2-3.2l-3.2-3.2l2.4-2.4l3.2,3.2l3.2-3.2l2.4,2.4l-3.2,3.2
			l3.2,3.2L141.9,147.6z"/>
	</g>
</g>
<g id="Layer_3">
</g>
<g id="Layer_4">
</g>
</svg>
