<?xml version="1.0" encoding="utf-8"?>
<!-- Generator: Adobe Illustrator 19.2.1, SVG Export Plug-In . SVG Version: 6.00 Build 0)  -->
<svg version="1.1" xmlns="http://www.w3.org/2000/svg" xmlns:xlink="http://www.w3.org/1999/xlink" x="0px" y="0px"
	 viewBox="0 0 241 305" enable-background="new 0 0 241 305" xml:space="preserve">
<g id="Layer_1">
</g>
<g id="Layer_2">
</g>
<g id="Layer_3">
	<g>
		<path opacity="0.1" d="M90.7,287.3c0.5,0,0.9,0.1,1.3,0.1v-0.1h132.7v0.1c5.3,0.5,9.5,4.2,9.5,8.6c0,4.8-4.8,8.7-10.8,8.7
			c-0.8,0-132,0-132.7,0c-6,0-10.8-3.9-10.8-8.7C79.9,291.2,84.7,287.3,90.7,287.3"/>
		<path fill="#6E573E" d="M83.2,123c-0.1,0-0.2,0-0.2,0.1c-3.4,0.4-6.4-1.9-6.9-5.2c-0.4-3.3,2-6.4,5.3-6.8c0.1,0,0.2,0,0.2,0l0,0
			l6.3-0.8l1.5,12.1L83.2,123L83.2,123z"/>
		<path fill="#FDB813" d="M87.6,124.5L85.6,108c25.3-3.2,39.8-17.4,51.4-28.8c8.1-8,15.1-14.9,24.1-16l2.1,16.4
			c-3.4,0.4-8.8,5.7-14.5,11.4C135.9,103.5,118.5,120.6,87.6,124.5z"/>
		<path fill="#F68C1F" d="M163.1,79.7l-0.7-5.2c-6.1,3.3-11.7,8.8-17.8,14.8c-13,12.7-29.1,28.6-57.4,32.1l0.4,3
			c30.9-3.9,48.2-20.9,60.9-33.4C154.3,85.4,159.7,80.1,163.1,79.7z"/>
		<path fill="#FDB813" d="M216,277.8l-4-112.1l9.6,0.1l0,0l-13-51.1l6.2-55.1l-17.3-4.2h-18.1L160,62.1l1.6,15.2l8.2,38.9
			l-12.7,49.6l8.2,0.9L161,281.6l-22.9,4.8v9.8h24.1l2.8-3.1h5.7v3.1h4.3h4h20.1l2.8-3.1h5.7v3.1h8.3v-9.8V278l0.2-0.2L216,277.8z
			 M179.1,285.5V278l0.2-0.2l-0.2,0l9.2-104.5h2.7l6.9,108.2L179.1,285.5z"/>
		<path fill="#6E573E" d="M197.8,27c0-14-11.3-19.9-25.3-19.9l-6.3,25.6h4.4l2.8,13.8c0,0,5.1,0,7.5-0.8l-0.9,12l6.4,27.3l9.1-27.3
			V37.6C197,34.3,197.8,30.8,197.8,27z"/>
		<circle fill="#FFFFFF" cx="172.3" cy="25.1" r="1.1"/>
		<g>
			<path fill="#F68C1F" d="M216,277.8l0.2-112.1l-23-0.9l-4.4-17.2l-2.7,18.3l-24.4,0.8L161,281.6l-22.9,4.8v9.8h24.1l2.8-3.1h5.7
				v3.1h4.3h4h20.1l2.8-3.1h5.7v3.1h8.3v-9.8V278l0.2-0.2L216,277.8z M179.1,285.5V278l0.2-0.2l-0.2,0l9.2-104.5h2.7l6.9,108.2
				L179.1,285.5z"/>
		</g>
		<path fill="#6E573E" d="M222.6,139.3c-0.1,0.1-0.1,0.1-0.2,0.2c-2.4,2.4-6.2,2.5-8.6,0.2c-2.4-2.3-2.4-6.2-0.1-8.6
			c0.1-0.1,0.1-0.1,0.2-0.2l0,0l4.4-4.6l8.7,8.5L222.6,139.3L222.6,139.3z"/>
		<polygon fill="#F68C1F" points="199.5,53.9 194.9,53.9 188.3,79.9 180.4,53.9 177.2,53.9 173.9,65 176.3,67.4 173.9,69.8 
			188.3,114.7 202.7,69.8 200.3,67.4 202.7,65 		"/>
		<polygon fill="#FFFFFF" points="192.3,55.4 188.4,66.1 183.3,55.4 179.1,52 179.1,60.7 188.3,97.8 197.5,60.7 197.5,52 		"/>
		<g>
			<path fill="#FDB813" d="M226.5,138l-11.9-11.5c6-6.2,9.3-14.3,9.4-22.9c0.1-12.8-7-24.4-18.5-30.1l2.7-14.7
				c0.6,0.3,6,0.5,6.6,0.9c16.1,8.9,25.9,25.6,25.8,44.1C240.4,116.6,235.5,128.8,226.5,138z"/>
		</g>
		<polygon fill="#F68C1F" points="213.9,149.2 194.6,142.9 194.6,137.6 213.9,143.9 		"/>
		<polygon fill="#F68C1F" points="164.9,149.2 184.2,142.9 184.2,137.6 164.9,143.9 		"/>
		<circle fill="#F68C1F" cx="188.3" cy="129" r="1.9"/>
		<polygon fill="#FDB813" points="200.3,67.4 188.3,79.9 173.9,65 165.5,67.4 173,125.8 205.5,125 210.8,68.8 		"/>
		<g>
			<rect x="181.3" y="93.9" fill="#FFFFFF" width="2.9" height="13.7"/>
			<polygon fill="#FFFFFF" points="197,96.1 193,96.1 193,107.6 190.2,107.6 190.2,96.1 186.2,96.1 186.2,93.9 197,93.9 			"/>
			<path fill="#FFFFFF" d="M201.6,108.2l-13.2,7.7l-13.5-7.7V93l13.2-7.7l13.5,7.7V108.2z M188.2,82.7l-15.5,8.9v18l15.7,8.9
				l15.5-8.9v-18L188.2,82.7z"/>
		</g>
		<path fill="#1B1C1C" d="M194.5,35c0,0,25.6,2.3,23.3,27.8C217.8,62.8,192.2,60.6,194.5,35"/>
		<path fill="#1B1C1C" d="M170.9,12.2c-1.3-6.9,6.9-13.7,13.1-11.4c1.9,0.7,3.2,0.8,5.3,0.5c1.7-0.3,3-0.3,4.6,0.3
			c1.6,0.6,3,3,3.2,5.2c4.6,1.1,6.7,6.8,6.7,6.8c4.8,26.1-9.4,21.5-9.4,21.5c0.7-1.5,1.1-7.2,1.1-7.2l0.1,0
			c-2.5-3.2-3.8-7.3-4.4-9.8c-0.2-0.1-0.4-0.2-0.6-0.4c-2.7-1.8-4.3-0.9-7.4-0.5c-3.8,0.5-10.2-0.9-12.3-4.6l-0.1,0
			C170.9,12.3,170.9,12.3,170.9,12.2L170.9,12.2L170.9,12.2"/>
		<polygon fill="#4F504F" points="83.4,116.3 2.2,49.6 0.5,51.5 80.5,119.8 		"/>
	</g>
</g>
<g id="Layer_4">
</g>
</svg>
