<?xml version="1.0" encoding="utf-8"?>
<!-- Generator: Adobe Illustrator 19.2.1, SVG Export Plug-In . SVG Version: 6.00 Build 0)  -->
<svg version="1.1" xmlns="http://www.w3.org/2000/svg" xmlns:xlink="http://www.w3.org/1999/xlink" x="0px" y="0px"
	 viewBox="0 0 282 180" enable-background="new 0 0 282 180" xml:space="preserve">
<g id="Layer_1">
</g>
<g id="Layer_2">
</g>
<g id="Layer_3">
</g>
<g id="Layer_4">
	<g>
		<g>
			<ellipse transform="matrix(0.9719 -0.2355 0.2355 0.9719 -26.1582 9.7092)" fill="#E6E6E6" cx="27.6" cy="114.3" rx="7" ry="7"/>
			
				<ellipse transform="matrix(0.9719 -0.2355 0.2355 0.9719 -28.9889 6.233)" fill="#E6E6E6" cx="11.6" cy="124.5" rx="4.9" ry="4.9"/>
			
				<ellipse transform="matrix(0.9719 -0.2355 0.2355 0.9719 -32.3077 5.1393)" fill="#E6E6E6" cx="5.4" cy="137.8" rx="3.4" ry="3.4"/>
		</g>
		<g>
			<g>
				<path fill="#E6E6E6" d="M161.8,114c-1.7-5.8-8-10.1-15.5-10.1c0,0-0.1,0-0.1,0v0c0-7.3-7.1-13.2-15.8-13.2c-6,0-11.3,2.8-14,7
					c-1.6-0.5-3.2-0.7-5-0.7c-8.2,0-14.9,5.6-14.9,12.4c0,0,0,0.1,0,0.1c-0.7-0.1-1.3-0.1-2-0.1c-9.3,0-16.9,6.3-16.9,14.1
					c0,7.8,7.6,14.1,16.9,14.1l61.9,0l0,0c8.1,0,14.6-5.5,14.6-12.2C171,120.2,167.2,115.8,161.8,114"/>
				<path fill="#E6E6E6" d="M161.8,156c-1.7,5.8-8,10.1-15.5,10.1c0,0-0.1,0-0.1,0v0c0,7.3-7.1,13.2-15.8,13.2c-6,0-11.3-2.8-14-7
					c-1.6,0.5-3.2,0.7-5,0.7c-8.2,0-14.9-5.6-14.9-12.4c0,0,0-0.1,0-0.1c-0.7,0.1-1.3,0.1-2,0.1c-9.3,0-16.9-6.3-16.9-14.1
					c0-7.8,7.6-14.1,16.9-14.1l61.9,0l0,0c8.1,0,14.6,5.5,14.6,12.2C171,149.9,167.2,154.2,161.8,156"/>
				<path fill="#E6E6E6" d="M126.3,114c1.7-5.8,8-10.1,15.5-10.1c0,0,0.1,0,0.1,0v0c0-7.3,7.1-13.2,15.8-13.2c6,0,11.3,2.8,14,7
					c1.6-0.5,3.2-0.7,5-0.7c8.2,0,14.9,5.6,14.9,12.4c0,0,0,0.1,0,0.1c0.7-0.1,1.3-0.1,2-0.1c9.3,0,16.9,6.3,16.9,14.1
					c0,7.8-7.6,14.1-16.9,14.1l-61.9,0l0,0c-8.1,0-14.6-5.5-14.6-12.2C117.1,120.2,120.9,115.8,126.3,114"/>
				<path fill="#E6E6E6" d="M126.3,156c1.7,5.8,8,10.1,15.5,10.1c0,0,0.1,0,0.1,0v0c0,7.3,7.1,13.2,15.8,13.2c6,0,11.3-2.8,14-7
					c1.6,0.5,3.2,0.7,5,0.7c8.2,0,14.9-5.6,14.9-12.4c0,0,0-0.1,0-0.1c0.7,0.1,1.3,0.1,2,0.1c9.3,0,16.9-6.3,16.9-14.1
					c0-7.8-7.6-14.1-16.9-14.1h-61.9l0,0c-8.1,0-14.6,5.5-14.6,12.2C117.1,149.9,120.9,154.2,126.3,156"/>
			</g>
			<g>
				<polygon fill="#FFFFFF" points="127.5,138.5 135.5,140.8 138.2,138.5 137.6,135.7 132.9,132.7 129.2,135.1 				"/>
				<polygon fill="#FFFFFF" points="151.3,138.5 148.2,137.7 147.2,131.8 150.3,129.7 157.6,130.8 158.6,136.4 156.2,138.4 				"/>
				<path fill="#FED800" d="M128.5,134.1l7.1-3.3l-3.7-8.2c0,0-3,1.1-4.3,1.1c-1.2,0-1.4,4.6-1.4,4.6l1,4.2L128.5,134.1z"/>
				<path fill="#6EC2E9" d="M136.7,160.8l-6.1-1.8l1.7-5.5c0,0,1.6-2.1,2.7-2c1.1,0,5.7-1.2,5.7-1.2l2,5.2c0,0-1.8,4-2.5,3.5
					c-0.7-0.4-2.7-2.4-2.7-2.4L136.7,160.8z"/>
				<polygon fill="#FFFFFF" points="143.9,157.3 151.6,159.1 156.7,152.9 154.3,149 148.9,149 144.2,153.3 				"/>
				<polygon fill="#FFFFFF" points="143,151.3 135.5,149 137.3,144.8 141.2,141.8 143.9,147.4 150,143.7 149.3,148.3 145.9,151.8 
									"/>
				<path fill="#FFFFFF" d="M128,153.2l4.3-2.3l4.4-4.1l-2.1-5c0,0-3.2-0.8-4-1c-0.8-0.2-2.8,6.2-2.8,6.2L128,153.2z"/>
				<polygon fill="#FFFFFF" points="157.5,147 157.3,147.1 153.3,149 150.8,147 148.2,143.7 149.4,139.1 156.7,139.1 158.1,142.8 
					158.6,145.1 				"/>
				<path fill="#FED800" d="M145.1,143.3l-6.4-2l1.1-6.2c0,0,3.9-1.8,4.5-1.6c0.6,0.2,4,3.3,4,3.3v3.9L145.1,143.3z"/>
				<path fill="#7F7F7F" d="M158.8,161.8h-32l0-0.4l-4.4-48.5h41.4l0,0.5L158.8,161.8z M127.6,160.8h30.3l4.7-47h-39.3L127.6,160.8z
					"/>
				<g>
					<defs>
						<polygon id="SVGID_7_" points="122.8,113.3 127.2,161.3 158.3,161.3 163.1,113.3 						"/>
					</defs>
					<clipPath id="SVGID_2_">
						<use xlink:href="#SVGID_7_"  overflow="visible"/>
					</clipPath>
					
						<rect x="142.9" y="118" transform="matrix(0.7071 -0.7071 0.7071 0.7071 -63.5109 145.0607)" clip-path="url(#SVGID_2_)" fill="#7F7F7F" width="1" height="62.3"/>
					
						<rect x="142.9" y="108.4" transform="matrix(0.7071 -0.7071 0.7071 0.7071 -56.6866 142.2338)" clip-path="url(#SVGID_2_)" fill="#7F7F7F" width="1" height="62.3"/>
					<polygon clip-path="url(#SVGID_2_)" fill="#7F7F7F" points="165,152.3 121,108.2 121.6,107.5 165.7,151.6 					"/>
					<polygon clip-path="url(#SVGID_2_)" fill="#7F7F7F" points="165,142.6 121,98.5 121.6,97.9 165.7,141.9 					"/>
					
						<rect x="142.9" y="147" transform="matrix(0.7071 -0.7072 0.7072 0.7071 -83.9827 153.5454)" clip-path="url(#SVGID_2_)" fill="#333333" width="1" height="62.3"/>
					
						<rect x="142.9" y="137.3" transform="matrix(0.7071 -0.7071 0.7071 0.7071 -77.1591 150.71)" clip-path="url(#SVGID_2_)" fill="#7F7F7F" width="1" height="62.3"/>
					
						<rect x="142.9" y="127.7" transform="matrix(0.7071 -0.7071 0.7071 0.7071 -70.3346 147.8788)" clip-path="url(#SVGID_2_)" fill="#7F7F7F" width="1" height="62.3"/>
					
						<rect x="142.9" y="79.4" transform="matrix(0.7071 -0.7071 0.7071 0.7071 -36.2149 133.7537)" clip-path="url(#SVGID_2_)" fill="#7F7F7F" width="1" height="62.3"/>
					
						<rect x="142.9" y="69.8" transform="matrix(0.7071 -0.7071 0.7071 0.7071 -29.3909 130.9262)" clip-path="url(#SVGID_2_)" fill="#7F7F7F" width="1" height="62.3"/>
					
						<rect x="112.2" y="144.8" transform="matrix(0.708 -0.7062 0.7062 0.708 -60.7784 143.6495)" clip-path="url(#SVGID_2_)" fill="#7F7F7F" width="62.3" height="1"/>
					
						<rect x="112.2" y="135.2" transform="matrix(0.7071 -0.7071 0.7071 0.7071 -53.9587 141.0942)" clip-path="url(#SVGID_2_)" fill="#7F7F7F" width="62.3" height="1"/>
					
						<rect x="112.2" y="125.5" transform="matrix(0.706 -0.7082 0.7082 0.706 -47.1141 138.5708)" clip-path="url(#SVGID_2_)" fill="#7F7F7F" width="62.3" height="1"/>
					
						<rect x="112.2" y="115.9" transform="matrix(0.7062 -0.708 0.708 0.7062 -40.2854 135.6849)" clip-path="url(#SVGID_2_)" fill="#7F7F7F" width="62.3" height="1"/>
					
						<rect x="112.2" y="173.8" transform="matrix(0.7071 -0.7071 0.7071 0.7071 -81.2541 152.4003)" clip-path="url(#SVGID_2_)" fill="#7F7F7F" width="62.3" height="1"/>
					<polygon clip-path="url(#SVGID_2_)" fill="#7F7F7F" points="121.6,187 121,186.3 165,142.3 165.7,142.9 					"/>
					
						<rect x="112.2" y="154.5" transform="matrix(0.7069 -0.7073 0.7073 0.7069 -67.6078 146.8029)" clip-path="url(#SVGID_2_)" fill="#7F7F7F" width="62.3" height="1"/>
					
						<rect x="112.2" y="106.2" transform="matrix(0.7071 -0.7071 0.7071 0.7071 -33.4863 132.6142)" clip-path="url(#SVGID_2_)" fill="#7F7F7F" width="62.3" height="1"/>
					
						<rect x="112.2" y="96.6" transform="matrix(0.7069 -0.7073 0.7073 0.7069 -26.6546 129.8331)" clip-path="url(#SVGID_2_)" fill="#7F7F7F" width="62.3" height="1"/>
				</g>
			</g>
			<g>
				<path fill="#E6E6E6" d="M222,28.4c-2.1-6.9-9.5-12-18.4-12c-0.1,0-0.1,0-0.2,0v0c0-8.7-8.4-15.7-18.9-15.7
					c-7.2,0-13.5,3.4-16.6,8.3c-1.9-0.6-3.9-0.9-6-0.9c-9.8,0-17.7,6.6-17.7,14.8c0,0,0,0.1,0,0.1c-0.8-0.1-1.6-0.1-2.4-0.1
					c-11.1,0-20.1,7.5-20.1,16.8c0,9.3,9,16.8,20.1,16.8l73.7,0l0,0c9.6,0,17.4-6.5,17.4-14.5C233,35.8,228.4,30.6,222,28.4"/>
				<path fill="#E6E6E6" d="M222,78.5c-2.1,6.9-9.5,12-18.4,12c-0.1,0-0.1,0-0.2,0v0c0,8.7-8.4,15.7-18.9,15.7
					c-7.2,0-13.5-3.4-16.6-8.3c-1.9,0.6-3.9,0.9-6,0.9c-9.8,0-17.7-6.6-17.7-14.8c0,0,0-0.1,0-0.1c-0.8,0.1-1.6,0.1-2.4,0.1
					c-11.1,0-20.1-7.5-20.1-16.8c0-9.3,9-16.8,20.1-16.8l73.7,0l0,0c9.6,0,17.4,6.5,17.4,14.5C233,71.1,228.4,76.4,222,78.5"/>
				<path fill="#E6E6E6" d="M179.7,28.4c2.1-6.9,9.5-12,18.4-12c0.1,0,0.1,0,0.2,0v0c0-8.7,8.4-15.7,18.9-15.7
					c7.2,0,13.5,3.4,16.6,8.3c1.9-0.6,3.9-0.9,6-0.9c9.8,0,17.7,6.6,17.7,14.8c0,0,0,0.1,0,0.1c0.8-0.1,1.6-0.1,2.4-0.1
					c11.1,0,20.1,7.5,20.1,16.8c0,9.3-9,16.8-20.1,16.8l-73.7,0l0,0c-9.6,0-17.4-6.5-17.4-14.5C168.8,35.8,173.3,30.6,179.7,28.4"/>
				<path fill="#E6E6E6" d="M179.7,78.5c2.1,6.9,9.5,12,18.4,12c0.1,0,0.1,0,0.2,0v0c0,8.7,8.4,15.7,18.9,15.7
					c7.2,0,13.5-3.4,16.6-8.3c1.9,0.6,3.9,0.9,6,0.9c9.8,0,17.7-6.6,17.7-14.8c0,0,0-0.1,0-0.1c0.8,0.1,1.6,0.1,2.4,0.1
					c11.1,0,20.1-7.5,20.1-16.8c0-9.3-9-16.8-20.1-16.8l-73.7,0l0,0c-9.6,0-17.4,6.5-17.4,14.5C168.8,71.1,173.3,76.4,179.7,78.5"/>
			</g>
			<g>
				<path fill="#008372" d="M181,28.2l-2.1,7.7h-1.4l-1.5-5.4c-0.1-0.2-0.1-0.5-0.1-0.8h0c0,0.3-0.1,0.5-0.1,0.7l-1.5,5.4h-1.5
					l-2.2-7.7h1.4l1.4,5.6c0.1,0.2,0.1,0.5,0.1,0.7h0c0-0.2,0.1-0.4,0.2-0.7l1.6-5.6h1.3l1.5,5.7c0.1,0.2,0.1,0.4,0.1,0.7h0
					c0-0.2,0.1-0.4,0.1-0.7l1.4-5.7H181z"/>
				<path fill="#008372" d="M185.3,36c-1.1,0-2-0.4-2.7-1.1s-1-1.7-1-2.8c0-1.2,0.3-2.2,1-3c0.7-0.7,1.6-1.1,2.8-1.1
					c1.1,0,2,0.4,2.6,1.1c0.7,0.7,1,1.7,1,2.8c0,1.3-0.3,2.2-1,3S186.4,36,185.3,36z M185.3,29.2c-0.7,0-1.3,0.3-1.7,0.8
					s-0.7,1.2-0.7,2.1c0,0.9,0.2,1.5,0.6,2.1c0.4,0.5,1,0.8,1.7,0.8c0.7,0,1.3-0.2,1.7-0.7c0.4-0.5,0.6-1.2,0.6-2.1
					c0-0.9-0.2-1.6-0.6-2.1C186.6,29.4,186,29.2,185.3,29.2z"/>
				<path fill="#008372" d="M196.4,35.9h-1.5l-1.2-2.1c-0.1-0.2-0.2-0.4-0.3-0.5c-0.1-0.1-0.2-0.2-0.3-0.3s-0.2-0.1-0.4-0.2
					c-0.1,0-0.3-0.1-0.4-0.1h-0.5v3.1h-1.3v-7.7h2.5c0.4,0,0.7,0,1,0.1c0.3,0.1,0.6,0.2,0.8,0.4s0.4,0.4,0.5,0.6
					c0.1,0.3,0.2,0.6,0.2,0.9c0,0.3,0,0.5-0.1,0.7c-0.1,0.2-0.2,0.4-0.3,0.6c-0.1,0.2-0.3,0.3-0.5,0.5c-0.2,0.1-0.4,0.2-0.7,0.3v0
					c0.1,0.1,0.3,0.2,0.4,0.3c0.1,0.1,0.2,0.2,0.3,0.3c0.1,0.1,0.2,0.2,0.3,0.3c0.1,0.1,0.2,0.3,0.3,0.4L196.4,35.9z M191.7,29.2
					v2.5h1.1c0.2,0,0.4,0,0.5-0.1c0.2-0.1,0.3-0.1,0.4-0.3c0.1-0.1,0.2-0.3,0.3-0.4c0.1-0.2,0.1-0.3,0.1-0.6c0-0.4-0.1-0.7-0.3-0.9
					c-0.2-0.2-0.6-0.3-1-0.3H191.7z"/>
				<path fill="#008372" d="M203.1,35.9h-1.7l-2.7-3.5c-0.1-0.1-0.2-0.2-0.2-0.3h0v3.8h-1.3v-7.7h1.3v3.6h0c0-0.1,0.1-0.2,0.2-0.3
					l2.6-3.4h1.5l-3,3.7L203.1,35.9z"/>
				<path fill="#008372" d="M207,35.9v-7.7h2.2c2.8,0,4.3,1.3,4.3,3.8c0,1.2-0.4,2.1-1.2,2.9s-1.8,1.1-3.2,1.1H207z M208.3,29.3v5.5
					h1c0.9,0,1.6-0.2,2.1-0.7c0.5-0.5,0.7-1.2,0.7-2.1c0-1.8-0.9-2.7-2.8-2.7H208.3z"/>
				<path fill="#008372" d="M221,35.9h-1.4l-0.7-2h-3l-0.7,2h-1.4l2.9-7.7h1.4L221,35.9z M218.6,32.9l-1.1-3.1
					c0-0.1-0.1-0.3-0.1-0.5h0c0,0.2-0.1,0.4-0.1,0.5l-1.1,3.1H218.6z"/>
				<path fill="#008372" d="M226.3,29.3H224v6.6h-1.3v-6.6h-2.2v-1.1h5.7V29.3z"/>
				<path fill="#008372" d="M232.9,35.9h-1.4l-0.7-2h-3l-0.7,2h-1.4l2.9-7.7h1.4L232.9,35.9z M230.5,32.9l-1.1-3.1
					c0-0.1-0.1-0.3-0.1-0.5h0c0,0.2-0.1,0.4-0.1,0.5l-1.1,3.1H230.5z"/>
			</g>
			<g>
				<path fill="#008372" d="M231.7,71.3h6.7l-0.6-1.5c0,0-0.1-0.2-0.3-0.2h-4.9c0,0-0.2,0-0.3,0.2L231.7,71.3z"/>
				<path fill="#008372" d="M238.4,72.7c0,0,0-0.4-0.4-0.4h-2.8h-7.5h-2.8c-0.4,0-0.4,0.4-0.4,0.4l0,7.9c0,0.4,0.4,0.4,0.4,0.4h2.8
					h7.5h2.8c0,0,0.4,0,0.4-0.4L238.4,72.7z"/>
			</g>
			<g id="outlook_10_">
				<path fill="#008372" d="M187.4,57.5c0-0.5-0.6-0.6-1-0.6c-2.1,0-4.2,0-6.3,0c0-1.4,0-2.7,0-4v-0.2c-3.1,0.5-7.4,1.3-10.5,1.9
					c0,4.7,0,9.4,0,14.2c3.1,0.5,7.4,1.2,10.5,1.8v-0.2c0-1.3,0-2.6,0-3.8c2.2,0,4.4,0,6.7,0c0.6,0,0.6-0.7,0.6-1.2
					C187.4,62.6,187.4,60,187.4,57.5z M176.1,64.2c-1.2,1-3.2,0.4-3.8-1c-0.7-1.7-0.4-4.3,1.6-5c1.1-0.4,2.5,0.2,3,1.3
					C177.6,61,177.5,63.1,176.1,64.2z M186.8,65.7c-2.2,0-4.4,0-6.7,0c0-1.8,0-3.5,0-5.3c0.7,0.7,1.4,1.4,2.2,2
					c0.3,0.1,0.6-0.2,0.8-0.4c1.2-1.2,2.4-2.3,3.7-3.5C186.8,61,186.8,63.4,186.8,65.7z M186.5,58.1c-1.3,1.3-2.7,2.5-4,3.8
					c-0.8-0.7-1.6-1.5-2.4-2.2c0-0.7,0-1.5,0-2.2c2.2,0,4.5,0,6.7,0C186.8,57.7,186.7,58,186.5,58.1z"/>
				<path fill="#008372" d="M174.1,59.4c0.5-0.3,1.2,0,1.5,0.5c0.4,0.8,0.4,1.8,0.1,2.6c-0.2,0.6-0.8,1.1-1.5,0.9
					c-0.8-0.2-1-1.2-1.1-1.9C173.2,60.7,173.4,59.8,174.1,59.4z"/>
			</g>
			<g>
				<path fill="#E6E6E6" d="M108.3,28.4c-2.1-6.9-9.5-12-18.4-12c-0.1,0-0.1,0-0.2,0v0c0-8.7-8.4-15.7-18.9-15.7
					C63.7,0.7,57.4,4,54.2,9c-1.9-0.6-3.9-0.9-6-0.9c-9.8,0-17.7,6.6-17.7,14.8c0,0,0,0.1,0,0.1c-0.8-0.1-1.6-0.1-2.4-0.1
					C17,22.9,8,30.4,8,39.7c0,9.3,9,16.8,20.1,16.8l73.7,0l0,0c9.6,0,17.4-6.5,17.4-14.5C119.3,35.8,114.7,30.6,108.3,28.4"/>
				<path fill="#E6E6E6" d="M108.3,78.5c-2.1,6.9-9.5,12-18.4,12c-0.1,0-0.1,0-0.2,0v0c0,8.7-8.4,15.7-18.9,15.7
					c-7.2,0-13.5-3.4-16.6-8.3c-1.9,0.6-3.9,0.9-6,0.9c-9.8,0-17.7-6.6-17.7-14.8c0,0,0-0.1,0-0.1C29.8,84,28.9,84,28.1,84
					C17,84,8,76.5,8,67.3c0-9.3,9-16.8,20.1-16.8l73.7,0l0,0c9.6,0,17.4,6.5,17.4,14.5C119.3,71.1,114.7,76.4,108.3,78.5"/>
				<path fill="#E6E6E6" d="M66.1,28.4c2.1-6.9,9.5-12,18.4-12c0.1,0,0.1,0,0.2,0v0c0-8.7,8.4-15.7,18.9-15.7
					c7.2,0,13.5,3.4,16.6,8.3c1.9-0.6,3.9-0.9,6-0.9c9.8,0,17.7,6.6,17.7,14.8c0,0,0,0.1,0,0.1c0.8-0.1,1.6-0.1,2.4-0.1
					c11.1,0,20.1,7.5,20.1,16.8c0,9.3-9,16.8-20.1,16.8l-73.7,0l0,0c-9.6,0-17.4-6.5-17.4-14.5C55.1,35.8,59.7,30.6,66.1,28.4"/>
				<path fill="#E6E6E6" d="M66.1,78.5c2.1,6.9,9.5,12,18.4,12c0.1,0,0.1,0,0.2,0v0c0,8.7,8.4,15.7,18.9,15.7
					c7.2,0,13.5-3.4,16.6-8.3c1.9,0.6,3.9,0.9,6,0.9c9.8,0,17.7-6.6,17.7-14.8c0,0,0-0.1,0-0.1c0.8,0.1,1.6,0.1,2.4,0.1
					c11.1,0,20.1-7.5,20.1-16.8c0-9.3-9-16.8-20.1-16.8l-73.7,0l0,0c-9.6,0-17.4,6.5-17.4,14.5C55.1,71.1,59.7,76.4,66.1,78.5"/>
			</g>
			<g>
				<path fill="#F58B21" d="M36.6,33.1v2.8h-1.3v-7.7h2.3c0.9,0,1.6,0.2,2.1,0.6c0.5,0.4,0.7,1,0.7,1.7c0,0.7-0.3,1.4-0.8,1.8
					c-0.5,0.5-1.2,0.7-2.1,0.7H36.6z M36.6,29.3v2.8h0.8c0.5,0,1-0.1,1.3-0.4c0.3-0.3,0.4-0.6,0.4-1.1c0-0.9-0.5-1.4-1.6-1.4H36.6z"
					/>
				<path fill="#F58B21" d="M46.1,35.9h-4.3v-7.7h4.2v1.1H43v2.2h2.6v1.1H43v2.3h3V35.9z"/>
				<path fill="#F58B21" d="M53.4,35.9h-1.5l-1.2-2.1c-0.1-0.2-0.2-0.4-0.3-0.5c-0.1-0.1-0.2-0.2-0.3-0.3s-0.2-0.1-0.4-0.2
					c-0.1,0-0.3-0.1-0.4-0.1h-0.5v3.1h-1.3v-7.7H50c0.4,0,0.7,0,1,0.1c0.3,0.1,0.6,0.2,0.8,0.4s0.4,0.4,0.5,0.6
					c0.1,0.3,0.2,0.6,0.2,0.9c0,0.3,0,0.5-0.1,0.7c-0.1,0.2-0.2,0.4-0.3,0.6c-0.1,0.2-0.3,0.3-0.5,0.5c-0.2,0.1-0.4,0.2-0.7,0.3v0
					c0.1,0.1,0.3,0.2,0.4,0.3c0.1,0.1,0.2,0.2,0.3,0.3c0.1,0.1,0.2,0.2,0.3,0.3c0.1,0.1,0.2,0.3,0.3,0.4L53.4,35.9z M48.7,29.2v2.5
					h1.1c0.2,0,0.4,0,0.5-0.1c0.2-0.1,0.3-0.1,0.4-0.3c0.1-0.1,0.2-0.3,0.3-0.4c0.1-0.2,0.1-0.3,0.1-0.6c0-0.4-0.1-0.7-0.3-0.9
					c-0.2-0.2-0.6-0.3-1-0.3H48.7z"/>
				<path fill="#F58B21" d="M53.9,35.6v-1.3c0.1,0.1,0.3,0.2,0.4,0.3s0.3,0.2,0.5,0.2c0.2,0.1,0.4,0.1,0.5,0.1s0.4,0,0.5,0
					c0.5,0,0.9-0.1,1.2-0.3c0.3-0.2,0.4-0.4,0.4-0.8c0-0.2,0-0.3-0.1-0.5c-0.1-0.1-0.2-0.3-0.4-0.4c-0.2-0.1-0.3-0.2-0.6-0.3
					c-0.2-0.1-0.4-0.2-0.7-0.3c-0.3-0.1-0.5-0.3-0.7-0.4c-0.2-0.1-0.4-0.3-0.6-0.5c-0.2-0.2-0.3-0.4-0.4-0.6
					c-0.1-0.2-0.1-0.5-0.1-0.8c0-0.4,0.1-0.7,0.2-0.9s0.4-0.5,0.6-0.7c0.3-0.2,0.6-0.3,0.9-0.4c0.3-0.1,0.7-0.1,1-0.1
					c0.8,0,1.4,0.1,1.8,0.3v1.3c-0.4-0.3-1-0.5-1.7-0.5c-0.2,0-0.4,0-0.6,0.1c-0.2,0-0.4,0.1-0.5,0.2c-0.1,0.1-0.3,0.2-0.4,0.3
					s-0.1,0.3-0.1,0.5c0,0.2,0,0.3,0.1,0.4c0.1,0.1,0.2,0.2,0.3,0.3c0.1,0.1,0.3,0.2,0.5,0.3c0.2,0.1,0.4,0.2,0.7,0.3
					c0.3,0.1,0.5,0.3,0.8,0.4c0.2,0.2,0.4,0.3,0.6,0.5c0.2,0.2,0.3,0.4,0.4,0.6s0.2,0.5,0.2,0.8c0,0.4-0.1,0.7-0.2,1
					c-0.2,0.3-0.4,0.5-0.6,0.7c-0.3,0.2-0.6,0.3-0.9,0.4C56.7,36,56.3,36,55.9,36c-0.1,0-0.3,0-0.5,0c-0.2,0-0.4,0-0.6-0.1
					c-0.2,0-0.4-0.1-0.6-0.1S54,35.7,53.9,35.6z"/>
				<path fill="#F58B21" d="M63.4,36c-1.1,0-2-0.4-2.7-1.1s-1-1.7-1-2.8c0-1.2,0.3-2.2,1-3c0.7-0.7,1.6-1.1,2.8-1.1
					c1.1,0,2,0.4,2.6,1.1c0.7,0.7,1,1.7,1,2.8c0,1.3-0.3,2.2-1,3S64.6,36,63.4,36z M63.5,29.2c-0.7,0-1.3,0.3-1.7,0.8
					s-0.7,1.2-0.7,2.1c0,0.9,0.2,1.5,0.6,2.1c0.4,0.5,1,0.8,1.7,0.8c0.7,0,1.3-0.2,1.7-0.7c0.4-0.5,0.6-1.2,0.6-2.1
					c0-0.9-0.2-1.6-0.6-2.1C64.8,29.4,64.2,29.2,63.5,29.2z"/>
				<path fill="#F58B21" d="M75.1,35.9h-1.4L70,30.2c-0.1-0.1-0.2-0.3-0.2-0.4h0c0,0.2,0,0.5,0,1.1v5h-1.2v-7.7h1.5l3.6,5.5
					c0.2,0.2,0.2,0.4,0.3,0.5h0c0-0.2-0.1-0.5-0.1-1v-5h1.2V35.9z"/>
				<path fill="#F58B21" d="M83.3,35.9h-1.4l-0.7-2h-3l-0.7,2h-1.4l2.9-7.7h1.4L83.3,35.9z M80.9,32.9l-1.1-3.1
					c0-0.1-0.1-0.3-0.1-0.5h0c0,0.2-0.1,0.4-0.1,0.5l-1.1,3.1H80.9z"/>
				<path fill="#F58B21" d="M88.7,35.9h-4.3v-7.7h1.3v6.6h3V35.9z"/>
				<path fill="#F58B21" d="M92.8,35.9v-7.7H95c2.8,0,4.3,1.3,4.3,3.8c0,1.2-0.4,2.1-1.2,2.9s-1.8,1.1-3.2,1.1H92.8z M94.1,29.3v5.5
					h1c0.9,0,1.6-0.2,2.1-0.7c0.5-0.5,0.7-1.2,0.7-2.1c0-1.8-0.9-2.7-2.8-2.7H94.1z"/>
				<path fill="#F58B21" d="M106.8,35.9h-1.4l-0.7-2h-3l-0.7,2h-1.4l2.9-7.7h1.4L106.8,35.9z M104.4,32.9l-1.1-3.1
					c0-0.1-0.1-0.3-0.1-0.5h0c0,0.2-0.1,0.4-0.1,0.5l-1.1,3.1H104.4z"/>
				<path fill="#F58B21" d="M112.1,29.3h-2.2v6.6h-1.3v-6.6h-2.2v-1.1h5.7V29.3z"/>
				<path fill="#F58B21" d="M118.7,35.9h-1.4l-0.7-2h-3l-0.7,2h-1.4l2.9-7.7h1.4L118.7,35.9z M116.3,32.9l-1.1-3.1
					c0-0.1-0.1-0.3-0.1-0.5h0c0,0.2-0.1,0.4-0.1,0.5l-1.1,3.1H116.3z"/>
			</g>
			<g>
				<path fill="#F68C1F" d="M79.2,50.7v11.7h14.4V50.7H79.2z M92.7,61.5H80.1v-9.9h12.6V61.5z"/>
				<rect x="75.7" y="52.4" fill="#E2E2E2" stroke="#E6E6E6" stroke-miterlimit="10" width="16.1" height="13.9"/>
				<g>
					<path fill="#F68C1F" d="M76.3,53.6v11.7h14.4V53.6H76.3z M89.8,64.4H77.2v-9.9h12.6V64.4z M86.2,56.7c0,0.7,0.6,1.3,1.3,1.3
						s1.3-0.6,1.3-1.3c0-0.7-0.6-1.3-1.3-1.3S86.2,56,86.2,56.7z M88.9,63.5H78.1l2.7-7.2l3.6,4.5l1.8-1.3L88.9,63.5z"/>
				</g>
			</g>
			<g>
				<g id="gmail_10_">
					<path fill="#F58B21" d="M128.5,49h-13.6c-0.9,0-1.7,0.8-1.7,1.7v10.2c0,0.9,0.8,1.7,1.7,1.7h13.6c0.9,0,1.7-0.8,1.7-1.7V50.7
						C130.2,49.7,129.4,49,128.5,49z M128.5,60.9h-1.7v-7.5l-5.1,3.2l-5.1-3.2v7.5h-1.7V50.7h1l5.8,3.6l5.8-3.6h1V60.9z"/>
				</g>
			</g>
			<path fill="#F58B21" d="M36.6,58.1v8.9c0,0.4-0.2,0.8-0.6,1.3c-0.4,0.5-1,0.8-1.6,1c-0.8,0.3-1.5,0.3-2.1,0.1
				c-0.7-0.2-1.1-0.6-1.3-1.1c-0.2-0.5-0.1-1.1,0.4-1.6c0.4-0.6,1-1,1.8-1.2c0.7-0.2,1.4-0.3,2-0.1V55.2c0-0.1,0-0.2,0.1-0.3
				c0.1-0.1,0.2-0.2,0.2-0.2l11-2.8c0.1,0,0.2,0,0.2,0c0.1,0.1,0.1,0.1,0.1,0.2v12.9c0,0.5-0.2,1-0.6,1.4c-0.4,0.4-0.9,0.7-1.6,0.9
				c-0.8,0.2-1.5,0.3-2.2,0.1c-0.7-0.2-1.1-0.6-1.2-1.1c-0.2-0.5-0.1-1.1,0.4-1.6c0.4-0.6,1-1,1.8-1.2c0.7-0.2,1.4-0.3,2-0.1v-7.6
				L36.6,58.1z"/>
			<path fill="#F58B21" d="M67.5,75.7c0.4-0.6,0.9-1,1.4-1.3c0.5-0.3,1-0.5,1.5-0.5c0.5,0,1,0.1,1.5,0.3c0.5,0.2,0.9,0.5,1.3,0.8
				c0.4,0.4,0.7,0.8,0.9,1.3c0.2,0.5,0.3,1,0.3,1.6c0,0.5-0.1,1-0.4,1.5c-0.3,0.5-0.7,1-1.2,1.6c-0.5,0.5-1,1.1-1.6,1.6
				c-0.6,0.5-1.2,1.2-1.9,1.9c-0.7,0.8-1.3,1.5-1.9,2.2c-0.5-0.7-1.1-1.5-1.8-2.2c-0.7-0.8-1.3-1.4-1.9-1.9
				c-0.6-0.5-1.1-1.1-1.6-1.6c-0.5-0.5-0.9-1.1-1.2-1.6c-0.3-0.5-0.4-1-0.4-1.5c0-0.5,0.1-1.1,0.4-1.6c0.2-0.5,0.5-0.9,0.9-1.3
				c0.4-0.4,0.8-0.6,1.3-0.8c0.5-0.2,1-0.3,1.5-0.3c0.5,0,1,0.2,1.5,0.5C66.7,74.7,67.1,75.1,67.5,75.7z"/>
			<g>
				<g>
					<path fill="none" stroke="#F58B21" stroke-width="0.75" stroke-miterlimit="10" stroke-dasharray="2,2" d="M93.6,76.7
						c16.5,0.6,29.1,7.2,39.9,26.6"/>
					<g>
						<polygon fill="#F58B21" points="130,102.8 133,102.5 134.9,100.1 135.5,107.3 						"/>
					</g>
				</g>
			</g>
			<g>
				<g>
					<path fill="none" stroke="#00B193" stroke-width="0.75" stroke-miterlimit="10" stroke-dasharray="2,2" d="M192.5,76.7
						c-16.5,0.6-29.1,7.2-39.9,26.6"/>
					<g>
						<polygon fill="#00B193" points="151.2,100.1 153.1,102.5 156.1,102.8 150.6,107.3 						"/>
					</g>
				</g>
			</g>
			<path fill="#008372" d="M249.2,50l-1.7,1.6v7.9h1.7V50z M247,52l-1.7,1.6v5.9h1.7V52z M244.8,53.8l-1.7-1.8v7.5h1.7V53.8z
				 M242.2,51l-1.3,1.2v7.3h1.7v-8L242.2,51z M240.5,52.7l-1.7,1.6v5.3h1.7V52.7z M238.3,54.7l-1.7,1.6v3.3h1.7V54.7z M250.2,47.7
				l1.1,1.1v-3.6h-3.6l1.3,1.3l-0.1-0.1l-4.3,3.8l-1.8-1.9l0,0l-0.8-0.9l-5.5,4.9V55l5.6-5.2l1.4,1.5l0,0l1.3,1.4l0,0l0,0l0,0
				L250.2,47.7z M251.3,59.5v-9.2l-1.1-1.2l-0.6,0.5v9.9H251.3z"/>
			<g>
				<path fill="#00B193" stroke="#E6E6E6" stroke-width="0.4758" stroke-miterlimit="10" d="M208.7,60.1l5.1,5.1
					c0.4-0.4,0.8-1,1.2-1.5L208.7,60.1z"/>
				<path fill="#008372" stroke="#E6E6E6" stroke-width="0.4758" stroke-miterlimit="10" d="M208.7,60.1l1.6,7.1
					c1.4-0.3,2.5-0.9,3.5-1.9L208.7,60.1z"/>
				<path fill="#00B193" stroke="#E6E6E6" stroke-width="0.4758" stroke-miterlimit="10" d="M208.7,60.1l-6.9-2.2
					c-1.2,3.8,0.8,7.9,4.7,9.2c1.3,0.4,2.5,0.5,3.9,0.2L208.7,60.1z"/>
				<path fill="#008372" stroke="#E6E6E6" stroke-width="0.4758" stroke-miterlimit="10" d="M208.7,60.1l-4.3-5.9
					c-1.3,0.9-2.2,2.1-2.6,3.6L208.7,60.1z"/>
				<path fill="#00B193" stroke="#E6E6E6" stroke-width="0.4758" stroke-miterlimit="10" d="M208.7,60.1l6.3-3.6
					c-2-3.5-6.5-4.7-9.9-2.7c-0.2,0.1-0.4,0.3-0.6,0.4L208.7,60.1z"/>
				<path fill="#008372" stroke="#E6E6E6" stroke-width="0.4758" stroke-miterlimit="10" d="M208.7,60.1l6.3,3.6
					c1.4-2.3,1.4-4.9,0-7.3L208.7,60.1z"/>
			</g>
		</g>
	</g>
</g>
</svg>
