<?xml version="1.0" encoding="utf-8"?>
<!-- Generator: Adobe Illustrator 19.2.1, SVG Export Plug-In . SVG Version: 6.00 Build 0)  -->
<svg version="1.1" xmlns="http://www.w3.org/2000/svg" xmlns:xlink="http://www.w3.org/1999/xlink" x="0px" y="0px"
	 viewBox="0 0 34 26" enable-background="new 0 0 34 26" xml:space="preserve">
<g id="Layer_1">
</g>
<g id="Layer_2">
</g>
<g id="Layer_3">
</g>
<g id="Layer_4">
	<g>
		<path fill="#4F504F" d="M6.8,26.1c-0.3,0.1-0.7,0-0.8-0.3L0.1,13c-0.1-0.3,0-0.7,0.3-0.8L27.2-0.1c0.3-0.1,0.7,0,0.8,0.3L33.9,13
			c0.1,0.3,0,0.7-0.3,0.8L6.8,26.1z"/>
		<rect x="5.4" y="6.8" transform="matrix(0.9096 -0.4155 0.4155 0.9096 -3.9161 8.179)" fill="#F89420" width="23" height="12.6"/>
		<path fill="#959595" d="M30.1,9.2c-0.1,0.1-0.3,0-0.3-0.1l-1.3-2.8c-0.1-0.1,0-0.3,0.1-0.3c0.1-0.1,0.3,0,0.3,0.1l1.3,2.8
			C30.3,9,30.2,9.1,30.1,9.2"/>
	</g>
</g>
</svg>
