<?xml version="1.0" encoding="utf-8"?>
<!-- Generator: Adobe Illustrator 19.2.1, SVG Export Plug-In . SVG Version: 6.00 Build 0)  -->
<svg version="1.1" xmlns="http://www.w3.org/2000/svg" xmlns:xlink="http://www.w3.org/1999/xlink" x="0px" y="0px"
	 viewBox="0 0 52 74" enable-background="new 0 0 52 74" xml:space="preserve">
<g id="Layer_1">
</g>
<g id="Layer_2">
	<g>
		<path fill="#F58B21" d="M23.3,48.3c-0.2-0.6-0.4-1.3-0.6-2.3s-0.3-1.9-0.3-2.8c0-1.1,0.1-2.1,0.4-3c0.3-0.9,0.7-1.7,1.2-2.5
			s1.2-1.6,1.9-2.3s1.5-1.5,2.4-2.3c0.7-0.7,1.5-1.4,2.2-2.1c0.7-0.7,1.4-1.5,1.9-2.4c0.6-0.8,1-1.8,1.3-2.7s0.5-2.1,0.5-3.3
			c0-1.3-0.2-2.4-0.6-3.4c-0.4-1-1-1.9-1.8-2.6s-1.7-1.3-2.8-1.6c-1.1-0.4-2.3-0.6-3.6-0.6c-2.2,0-4.2,0.4-6.1,1.2
			c-1.9,0.8-3.6,1.8-5.2,3.1v-3.7c1.7-1.3,3.4-2.2,5.2-2.8c1.8-0.6,3.9-0.9,6.1-0.9c1.7,0,3.3,0.2,4.8,0.7c1.5,0.5,2.8,1.2,3.8,2.2
			c1.1,0.9,1.9,2.1,2.6,3.5s0.9,2.9,0.9,4.7c0,1.3-0.2,2.5-0.6,3.6c-0.4,1.1-0.9,2.1-1.5,3s-1.3,1.8-2,2.6c-0.8,0.8-1.6,1.6-2.3,2.4
			c-1.2,1.2-2.2,2.2-3,3s-1.4,1.5-1.8,2.2c-0.4,0.7-0.8,1.3-0.9,1.9s-0.3,1.3-0.3,2.2c0,1.1,0.1,2,0.3,2.9c0.2,0.9,0.4,1.6,0.6,2.2
			H23.3z M24.5,62.8c-0.8,0-1.5-0.3-2-0.8s-0.8-1.2-0.8-2c0-0.8,0.3-1.5,0.8-2c0.5-0.5,1.2-0.8,2-0.8c0.8,0,1.5,0.3,2,0.8
			c0.5,0.5,0.8,1.2,0.8,2c0,0.8-0.3,1.5-0.8,2S25.3,62.8,24.5,62.8z"/>
	</g>
</g>
<g id="Layer_3">
</g>
<g id="Layer_4">
</g>
</svg>
