<?xml version="1.0" encoding="utf-8"?>
<!-- Generator: Adobe Illustrator 19.2.1, SVG Export Plug-In . SVG Version: 6.00 Build 0)  -->
<svg version="1.1" xmlns="http://www.w3.org/2000/svg" xmlns:xlink="http://www.w3.org/1999/xlink" x="0px" y="0px"
	 viewBox="0 0 265 240" enable-background="new 0 0 265 240" xml:space="preserve">
<g id="Layer_1">
</g>
<g id="Layer_2">
</g>
<g id="Layer_3">
	<g>
		<g>
			<g>
				<path fill="none" stroke="#1EBBEE" stroke-miterlimit="10" stroke-dasharray="2,2" d="M177.8,108.3c17.9,48.6,60,82.6,84.3,92.1
					"/>
				<g>
					<polygon fill="#1EBBEE" points="175.4,112.2 178.3,109.4 182.4,109.7 175.9,102.7 					"/>
				</g>
			</g>
		</g>
		<g>
			<g>
				<path fill="none" stroke="#1EBBEE" stroke-miterlimit="10" stroke-dasharray="2,2" d="M262.6,191.5
					c-17.8-48.6-59.8-82.8-84.1-92.3"/>
				<g>
					<polygon fill="#1EBBEE" points="265.1,187.6 262.1,190.4 258.1,190.1 264.6,197.1 					"/>
				</g>
			</g>
		</g>
		<g>
			<g>
				<path fill="none" stroke="#1EBBEE" stroke-miterlimit="10" stroke-dasharray="2,2" d="M246.1,211.9
					c-7.4,9.7-13.9,17.6-36.7,25.3"/>
				<g>
					<polygon fill="#1EBBEE" points="202.6,239.3 210.8,232.4 209.8,237 213.3,240.1 					"/>
				</g>
			</g>
		</g>
		<g>
			<path fill="#E6E6E6" d="M52.5,45.8c3.4-11.2,15.5-19.5,30-19.5c0.1,0,0.2,0,0.2,0v0c0-14.1,13.7-25.6,30.7-25.6
				c11.7,0,21.9,5.4,27,13.5c3-0.9,6.3-1.4,9.7-1.4c15.9,0,28.8,10.8,28.8,24c0,0.1,0,0.1,0,0.2c1.3-0.1,2.6-0.2,3.9-0.2
				c18.1,0,32.7,12.2,32.7,27.3c0,15.1-14.7,27.3-32.7,27.3l-119.8,0l0,0c-15.7,0-28.3-10.6-28.3-23.6
				C34.7,57.7,42.1,49.2,52.5,45.8"/>
			<g>
				<path id="Dropbox_4_" fill="#7F7F7F" d="M83.6,61.1l-7.7-4.7l4.9-4l7.7,4.8L83.6,61.1z M80.7,70l7.4-4.3l-4.5-3.8l-7.3,4.4
					L80.7,70z M74.7,66.3l-7.3-4.4L63,65.7l7.4,4.3L74.7,66.3z M67.8,69.4v1.4l7.4,4.6v-8.6l-4.9,4L67.8,69.4z M83.3,69.4l-2.5,1.3
					l-4.9-4v8.6l7.4-4.6V69.4z M75.2,56.4l-4.9-4l-7.7,4.8l4.9,4L75.2,56.4z"/>
			</g>
			<g>
				<g>
					<path fill="none" stroke="#1EBBEE" stroke-miterlimit="10" stroke-dasharray="2,2" d="M243.3,27c-26.9-5.3-55.9,1.4-76.3,16.4"
						/>
					<g>
						<polygon fill="#1EBBEE" points="241.4,22.8 242.1,26.7 239.8,30 249.1,28.3 						"/>
					</g>
				</g>
			</g>
			<g>
				<g>
					<path fill="none" stroke="#1EBBEE" stroke-miterlimit="10" stroke-dasharray="2,2" d="M6.2,27c26.9-5.3,55.9,1.4,76.3,16.4"/>
					<g>
						<polygon fill="#1EBBEE" points="9.8,30 7.5,26.7 8.2,22.8 0.4,28.3 						"/>
					</g>
				</g>
			</g>
			<g>
				<g id="gmail_9_">
					<path fill="#7F7F7F" d="M187.7,58.7h-17.3c-1.2,0-2.2,1-2.2,2.2v13c0,1.2,1,2.2,2.2,2.2h17.3c1.2,0,2.2-1,2.2-2.2v-13
						C189.9,59.6,188.9,58.7,187.7,58.7z M187.7,73.8h-2.2v-9.5l-6.5,4.1l-6.5-4.1v9.5h-2.2v-13h1.3l7.4,4.5l7.4-4.5h1.3V73.8z"/>
				</g>
			</g>
			<g>
				<path fill="#9C4F96" d="M100.4,43.9v3H99v-8.4h2.5c1,0,1.7,0.2,2.2,0.7s0.8,1.1,0.8,1.9s-0.3,1.5-0.8,2s-1.3,0.8-2.3,0.8H100.4z
					 M100.4,39.7v3.1h0.9c0.6,0,1.1-0.1,1.4-0.4s0.5-0.7,0.5-1.2c0-1-0.6-1.5-1.7-1.5H100.4z"/>
				<path fill="#9C4F96" d="M110.8,47h-4.7v-8.4h4.5v1.2h-3.1v2.4h2.9v1.2h-2.9v2.5h3.3V47z"/>
				<path fill="#9C4F96" d="M118.8,47h-1.6l-1.3-2.3c-0.1-0.2-0.2-0.4-0.4-0.5s-0.2-0.3-0.4-0.4s-0.2-0.2-0.4-0.2s-0.3-0.1-0.5-0.1
					h-0.6V47h-1.4v-8.4h2.8c0.4,0,0.8,0,1.1,0.1s0.6,0.2,0.9,0.4s0.4,0.4,0.6,0.7s0.2,0.6,0.2,1c0,0.3,0,0.6-0.1,0.8
					s-0.2,0.5-0.4,0.7s-0.4,0.4-0.6,0.5s-0.5,0.2-0.8,0.3v0c0.2,0.1,0.3,0.2,0.4,0.3s0.2,0.2,0.3,0.3s0.2,0.2,0.3,0.4
					s0.2,0.3,0.3,0.5L118.8,47z M113.7,39.7v2.7h1.2c0.2,0,0.4,0,0.6-0.1s0.3-0.2,0.5-0.3s0.2-0.3,0.3-0.5s0.1-0.4,0.1-0.6
					c0-0.4-0.1-0.7-0.4-0.9s-0.6-0.3-1.1-0.3H113.7z"/>
				<path fill="#9C4F96" d="M119.4,46.6v-1.4c0.1,0.1,0.3,0.2,0.5,0.3s0.4,0.2,0.6,0.2s0.4,0.1,0.6,0.1s0.4,0.1,0.6,0.1
					c0.6,0,1-0.1,1.3-0.3s0.4-0.5,0.4-0.8c0-0.2,0-0.4-0.1-0.5s-0.2-0.3-0.4-0.4s-0.4-0.2-0.6-0.3s-0.5-0.2-0.7-0.3
					c-0.3-0.2-0.6-0.3-0.8-0.5s-0.5-0.3-0.6-0.5s-0.3-0.4-0.4-0.6s-0.2-0.5-0.2-0.8c0-0.4,0.1-0.7,0.3-1s0.4-0.5,0.7-0.7
					s0.6-0.3,1-0.4s0.8-0.1,1.1-0.1c0.9,0,1.5,0.1,1.9,0.3v1.4c-0.5-0.3-1.1-0.5-1.8-0.5c-0.2,0-0.4,0-0.6,0.1s-0.4,0.1-0.6,0.2
					s-0.3,0.2-0.4,0.3s-0.2,0.3-0.2,0.5c0,0.2,0,0.3,0.1,0.5s0.2,0.3,0.3,0.4s0.3,0.2,0.6,0.3s0.5,0.2,0.8,0.3
					c0.3,0.2,0.6,0.3,0.8,0.5s0.5,0.4,0.7,0.6s0.4,0.4,0.5,0.7s0.2,0.5,0.2,0.8c0,0.4-0.1,0.8-0.3,1.1s-0.4,0.5-0.7,0.7
					s-0.6,0.3-1,0.4s-0.8,0.1-1.2,0.1c-0.1,0-0.3,0-0.5,0s-0.4-0.1-0.6-0.1s-0.4-0.1-0.6-0.1S119.5,46.7,119.4,46.6z"/>
				<path fill="#9C4F96" d="M129.7,47.1c-1.2,0-2.2-0.4-2.9-1.2s-1.1-1.8-1.1-3.1c0-1.4,0.4-2.4,1.1-3.2s1.8-1.2,3-1.2
					c1.2,0,2.1,0.4,2.9,1.2s1.1,1.8,1.1,3.1c0,1.4-0.4,2.5-1.1,3.3S131,47.1,129.7,47.1z M129.8,39.7c-0.8,0-1.4,0.3-1.9,0.9
					c-0.5,0.6-0.7,1.3-0.7,2.3c0,0.9,0.2,1.7,0.7,2.3c0.5,0.6,1.1,0.9,1.8,0.9c0.8,0,1.4-0.3,1.9-0.8s0.7-1.3,0.7-2.3
					c0-1-0.2-1.8-0.7-2.3S130.6,39.7,129.8,39.7z"/>
				<path fill="#9C4F96" d="M142.5,47h-1.5l-4-6.2c-0.1-0.2-0.2-0.3-0.3-0.5h0c0,0.2,0,0.6,0,1.2V47h-1.3v-8.4h1.6l3.9,6
					c0.2,0.3,0.3,0.4,0.3,0.5h0c0-0.2-0.1-0.6-0.1-1.1v-5.4h1.3V47z"/>
				<path fill="#9C4F96" d="M151.5,47h-1.5l-0.8-2.1h-3.3l-0.7,2.1h-1.5l3.1-8.4h1.6L151.5,47z M148.8,43.7l-1.2-3.4
					c0-0.1-0.1-0.3-0.1-0.5h0c0,0.2-0.1,0.4-0.1,0.5l-1.2,3.4H148.8z"/>
				<path fill="#9C4F96" d="M157.3,47h-4.7v-8.4h1.4v7.2h3.3V47z"/>
				<path fill="#9C4F96" d="M121.4,61.4h-1.5l-0.8-2.1h-3.3l-0.7,2.1h-1.5l3.1-8.4h1.6L121.4,61.4z M118.7,58.1l-1.2-3.4
					c0-0.1-0.1-0.3-0.1-0.5h0c0,0.2-0.1,0.4-0.1,0.5l-1.2,3.4H118.7z"/>
				<path fill="#9C4F96" d="M123.9,58.3v3h-1.4V53h2.5c1,0,1.7,0.2,2.2,0.7s0.8,1.1,0.8,1.9s-0.3,1.5-0.8,2s-1.3,0.8-2.3,0.8H123.9z
					 M123.9,54.1v3.1h0.9c0.6,0,1.1-0.1,1.4-0.4s0.5-0.7,0.5-1.2c0-1-0.6-1.5-1.7-1.5H123.9z"/>
				<path fill="#9C4F96" d="M130.9,58.3v3h-1.4V53h2.5c1,0,1.7,0.2,2.2,0.7s0.8,1.1,0.8,1.9s-0.3,1.5-0.8,2s-1.3,0.8-2.3,0.8H130.9z
					 M130.9,54.1v3.1h0.9c0.6,0,1.1-0.1,1.4-0.4s0.5-0.7,0.5-1.2c0-1-0.6-1.5-1.7-1.5H130.9z"/>
				<path fill="#9C4F96" d="M136.1,61v-1.4c0.1,0.1,0.3,0.2,0.5,0.3s0.4,0.2,0.6,0.2s0.4,0.1,0.6,0.1s0.4,0.1,0.6,0.1
					c0.6,0,1-0.1,1.3-0.3s0.4-0.5,0.4-0.8c0-0.2,0-0.4-0.1-0.5s-0.2-0.3-0.4-0.4s-0.4-0.2-0.6-0.3s-0.5-0.2-0.7-0.3
					c-0.3-0.2-0.6-0.3-0.8-0.5s-0.5-0.3-0.6-0.5s-0.3-0.4-0.4-0.6s-0.2-0.5-0.2-0.8c0-0.4,0.1-0.7,0.3-1s0.4-0.5,0.7-0.7
					s0.6-0.3,1-0.4s0.8-0.1,1.1-0.1c0.9,0,1.5,0.1,1.9,0.3v1.4c-0.5-0.3-1.1-0.5-1.8-0.5c-0.2,0-0.4,0-0.6,0.1s-0.4,0.1-0.6,0.2
					s-0.3,0.2-0.4,0.3s-0.2,0.3-0.2,0.5c0,0.2,0,0.3,0.1,0.5s0.2,0.3,0.3,0.4s0.3,0.2,0.6,0.3s0.5,0.2,0.8,0.3
					c0.3,0.2,0.6,0.3,0.8,0.5s0.5,0.4,0.7,0.6s0.4,0.4,0.5,0.7s0.2,0.5,0.2,0.8c0,0.4-0.1,0.8-0.3,1.1s-0.4,0.5-0.7,0.7
					s-0.6,0.3-1,0.4s-0.8,0.1-1.2,0.1c-0.1,0-0.3,0-0.5,0s-0.4-0.1-0.6-0.1s-0.4-0.1-0.6-0.1S136.3,61.1,136.1,61z"/>
			</g>
		</g>
	</g>
</g>
<g id="Layer_4">
</g>
</svg>
