<?xml version="1.0" encoding="utf-8"?>
<!-- Generator: Adobe Illustrator 19.2.1, SVG Export Plug-In . SVG Version: 6.00 Build 0)  -->
<svg version="1.1" xmlns="http://www.w3.org/2000/svg" xmlns:xlink="http://www.w3.org/1999/xlink" x="0px" y="0px"
	 viewBox="0 0 205 205" enable-background="new 0 0 205 205" xml:space="preserve">
<g id="Layer_1">
</g>
<g id="Layer_2">
</g>
<g id="Layer_3">
	<g>
		<circle fill="none" stroke="#E6E6E6" stroke-width="5.8515" stroke-miterlimit="10" cx="102.5" cy="102.5" r="88"/>
		<circle fill="none" stroke="#E6E6E6" stroke-width="3" stroke-miterlimit="10" cx="102.5" cy="102.5" r="100.3"/>
		<path fill="#1EBBEE" d="M58.2,125.4l9.4-3.4l-1.4-1.2c0,0-0.2-0.2-0.5-0.1l-6.9,2.5c0,0-0.3,0.1-0.3,0.4L58.2,125.4z M69.8,122.2
			c0,0-0.2-0.6-0.8-0.4l-4,1.4l-12.7,4.6l-4,1.4c-0.6,0.2-0.4,0.8-0.4,0.8l4.6,12.6c0.2,0.6,0.8,0.4,0.8,0.4l4-1.4L70,137l4-1.4
			c0,0,0.6-0.2,0.4-0.8L69.8,122.2z"/>
		<path fill="#1EBBEE" d="M72.9,55.3l6.9-11.8l-0.6-1.5L69,46.6l-10.2,4.5l0.6,1.5L72.9,55.3z M86.2,57.6L80.5,45l-6.9,11.9
			l-13.5-2.8l5.7,12.6L76,62.2L86.2,57.6z"/>
		<path fill="#1EBBEE" d="M149.1,139.2l7.6-4.3l0.1-1l-7.1-0.8l-7.1-0.8l-0.1,1L149.1,139.2z M155.7,144.7l0.9-8.8l-7.6,4.4
			l-6.5-5.9l-0.9,8.8l7.1,0.7L155.7,144.7z"/>
		<g>
			<path fill="#17244E" d="M74.2,96.5h-1.5l-0.8-2.1h-3.3l-0.7,2.1h-1.5l3.1-8.4h1.6L74.2,96.5z M71.5,93.2l-1.2-3.4
				c0-0.1-0.1-0.3-0.1-0.5h0c0,0.2-0.1,0.4-0.1,0.5L69,93.2H71.5z"/>
			<path fill="#17244E" d="M80,96.5h-4.7v-8.4h1.4v7.2H80V96.5z"/>
			<path fill="#17244E" d="M85.9,96.5h-4.7v-8.4h1.4v7.2h3.3V96.5z"/>
			<path fill="#17244E" d="M96.2,96.2c-0.6,0.3-1.4,0.5-2.4,0.5c-1.2,0-2.2-0.4-2.9-1.2s-1.1-1.8-1.1-3c0-1.3,0.4-2.4,1.2-3.3
				S93,88,94.2,88c0.8,0,1.5,0.1,2,0.3v1.4c-0.6-0.3-1.2-0.5-1.9-0.5c-0.9,0-1.6,0.3-2.2,0.9s-0.8,1.4-0.8,2.3
				c0,0.9,0.3,1.7,0.8,2.2s1.2,0.8,2.1,0.8c0.8,0,1.5-0.2,2.1-0.6V96.2z"/>
			<path fill="#17244E" d="M101.1,96.6c-1.2,0-2.2-0.4-2.9-1.2s-1.1-1.8-1.1-3.1c0-1.4,0.4-2.4,1.1-3.2s1.8-1.2,3-1.2
				c1.2,0,2.1,0.4,2.9,1.2s1.1,1.8,1.1,3.1c0,1.4-0.4,2.5-1.1,3.3S102.4,96.6,101.1,96.6z M101.2,89.2c-0.8,0-1.4,0.3-1.9,0.9
				s-0.7,1.3-0.7,2.3c0,0.9,0.2,1.7,0.7,2.3s1.1,0.9,1.8,0.9c0.8,0,1.4-0.3,1.9-0.8s0.7-1.3,0.7-2.3c0-1-0.2-1.8-0.7-2.3
				S102,89.2,101.2,89.2z"/>
			<path fill="#17244E" d="M115.8,96.5h-1.4v-5.4c0-0.4,0-1,0.1-1.6h0c-0.1,0.4-0.2,0.6-0.2,0.8l-2.5,6.3h-1l-2.5-6.2
				c-0.1-0.2-0.1-0.5-0.2-0.8h0c0,0.3,0,0.9,0,1.6v5.4h-1.3v-8.4h2l2.2,5.6c0.2,0.4,0.3,0.8,0.3,1h0c0.1-0.4,0.3-0.8,0.4-1l2.3-5.6
				h1.9V96.5z"/>
			<path fill="#17244E" d="M119.2,93.5v3h-1.4v-8.4h2.5c1,0,1.7,0.2,2.2,0.7s0.8,1.1,0.8,1.9s-0.3,1.5-0.8,2s-1.3,0.8-2.3,0.8H119.2
				z M119.2,89.3v3.1h0.9c0.6,0,1.1-0.1,1.4-0.4s0.5-0.7,0.5-1.2c0-1-0.6-1.5-1.7-1.5H119.2z"/>
			<path fill="#17244E" d="M130.9,96.5h-1.5l-0.8-2.1h-3.3l-0.7,2.1h-1.5l3.1-8.4h1.6L130.9,96.5z M128.3,93.2l-1.2-3.4
				c0-0.1-0.1-0.3-0.1-0.5h0c0,0.2-0.1,0.4-0.1,0.5l-1.2,3.4H128.3z"/>
			<path fill="#17244E" d="M139.2,96.5h-1.5l-4-6.2c-0.1-0.2-0.2-0.3-0.3-0.5h0c0,0.2,0,0.6,0,1.2v5.5h-1.3v-8.4h1.6l3.9,6
				c0.2,0.3,0.3,0.4,0.3,0.5h0c0-0.2-0.1-0.6-0.1-1.1v-5.4h1.3V96.5z"/>
			<path fill="#17244E" d="M147.2,88.1l-2.8,5.3v3.1H143v-3l-2.7-5.4h1.6l1.7,3.6c0,0,0.1,0.2,0.2,0.5h0c0-0.1,0.1-0.3,0.2-0.5
				l1.7-3.6H147.2z"/>
			<path fill="#17244E" d="M93,110.9v-8.4h2.4c3.1,0,4.6,1.4,4.6,4.1c0,1.3-0.4,2.3-1.3,3.1s-2,1.2-3.5,1.2H93z M94.4,103.7v6h1.1
				c1,0,1.7-0.3,2.3-0.8s0.8-1.3,0.8-2.3c0-2-1-2.9-3.1-2.9H94.4z"/>
			<path fill="#17244E" d="M108.4,110.9h-1.5l-0.8-2.1h-3.3l-0.7,2.1h-1.5l3.1-8.4h1.6L108.4,110.9z M105.7,107.6l-1.2-3.4
				c0-0.1-0.1-0.3-0.1-0.5h0c0,0.2-0.1,0.4-0.1,0.5l-1.2,3.4H105.7z"/>
			<path fill="#17244E" d="M114.1,103.7h-2.4v7.2h-1.4v-7.2h-2.4v-1.2h6.2V103.7z"/>
			<path fill="#17244E" d="M121.3,110.9h-1.5l-0.8-2.1h-3.3l-0.7,2.1h-1.5l3.1-8.4h1.6L121.3,110.9z M118.7,107.6l-1.2-3.4
				c0-0.1-0.1-0.3-0.1-0.5h0c0,0.2-0.1,0.4-0.1,0.5l-1.2,3.4H118.7z"/>
		</g>
		<g>
			<path fill="#2172B9" d="M126.4,44c1.2-1.3,2.9-2.1,4.8-2.1c2.5,0,4.7,1.4,5.9,3.5c1-0.5,2.1-0.7,3.3-0.7c4.5,0,8.2,3.7,8.2,8.3
				c0,4.6-3.7,8.3-8.2,8.3c-0.6,0-1.1-0.1-1.6-0.2c-1,1.8-3,3.1-5.3,3.1c-0.9,0-1.8-0.2-2.6-0.6c-1,2.5-3.5,4.2-6.3,4.2
				c-3,0-5.5-1.9-6.4-4.5c-0.4,0.1-0.9,0.1-1.3,0.1c-3.5,0-6.4-2.9-6.4-6.4c0-2.4,1.3-4.5,3.2-5.6c-0.4-0.9-0.6-1.9-0.6-2.9
				c0-4.1,3.3-7.4,7.4-7.4C122.9,41,125.1,42.2,126.4,44"/>
			<path fill="#FFFFFF" d="M116,54.9C116,55,116.1,55,116,54.9c0.1,0.1,0.2,0.2,0.2,0.2c0.4,0.2,0.8,0.3,1.1,0.3
				c0.8,0,1.3-0.4,1.3-1.1v0c0-0.6-0.5-0.8-1.1-1l-0.1,0c-0.4-0.1-0.7-0.2-0.7-0.5v0c0-0.2,0.2-0.4,0.5-0.4c0.3,0,0.7,0.1,1,0.3
				c0,0,0.1,0,0.1,0c0,0,0.1-0.4,0.2-0.4c0,0,0-0.1,0-0.1c-0.3-0.2-0.7-0.3-1.1-0.3l-0.1,0c-0.7,0-1.2,0.4-1.2,1.1v0
				c0,0.7,0.6,0.9,1.1,1l0.1,0c0.4,0.1,0.7,0.2,0.7,0.5v0c0,0.2-0.2,0.4-0.6,0.4c-0.1,0-0.6,0-1-0.3c-0.1,0-0.1-0.1-0.1-0.1
				c0,0-0.1,0-0.1,0L116,54.9z"/>
			<path fill="#FFFFFF" d="M127.5,54.9C127.5,55,127.5,55,127.5,54.9c0.1,0.1,0.2,0.2,0.2,0.2c0.4,0.2,0.8,0.3,1.1,0.3
				c0.8,0,1.3-0.4,1.3-1.1v0c0-0.6-0.5-0.8-1.1-1l-0.1,0c-0.4-0.1-0.7-0.2-0.7-0.5v0c0-0.2,0.2-0.4,0.5-0.4c0.3,0,0.7,0.1,1,0.3
				c0,0,0.1,0,0.1,0c0,0,0.1-0.4,0.2-0.4c0,0,0-0.1,0-0.1c-0.3-0.2-0.7-0.3-1.1-0.3l-0.1,0c-0.7,0-1.2,0.4-1.2,1.1v0
				c0,0.7,0.6,0.9,1.1,1l0.1,0c0.4,0.1,0.7,0.2,0.7,0.5v0c0,0.2-0.2,0.4-0.6,0.4c-0.1,0-0.6,0-1-0.3c-0.1,0-0.1-0.1-0.1-0.1
				c0,0-0.1,0-0.1,0L127.5,54.9z"/>
			<path fill="#FFFFFF" d="M136,52.9c-0.1-0.2-0.2-0.4-0.3-0.6c-0.1-0.2-0.3-0.3-0.5-0.4c-0.2-0.1-0.4-0.1-0.7-0.1
				c-0.3,0-0.5,0-0.7,0.1c-0.2,0.1-0.4,0.2-0.5,0.4c-0.1,0.2-0.2,0.4-0.3,0.6c-0.1,0.2-0.1,0.5-0.1,0.7c0,0.3,0,0.5,0.1,0.7
				c0.1,0.2,0.2,0.4,0.3,0.6c0.1,0.2,0.3,0.3,0.5,0.4c0.2,0.1,0.4,0.1,0.7,0.1c0.3,0,0.5,0,0.7-0.1c0.2-0.1,0.4-0.2,0.5-0.4
				c0.1-0.2,0.2-0.4,0.3-0.6c0.1-0.2,0.1-0.5,0.1-0.7C136.1,53.3,136.1,53.1,136,52.9 M135.4,53.6c0,0.4-0.1,0.7-0.2,0.9
				c-0.1,0.2-0.3,0.3-0.6,0.3c-0.3,0-0.5-0.1-0.6-0.3c-0.1-0.2-0.2-0.5-0.2-0.9c0-0.4,0.1-0.7,0.2-0.9c0.1-0.2,0.3-0.3,0.6-0.3
				c0.3,0,0.5,0.1,0.6,0.3C135.3,52.9,135.4,53.2,135.4,53.6"/>
			<path fill-rule="evenodd" clip-rule="evenodd" fill="#FFFFFF" d="M141.4,54.7C141.4,54.6,141.3,54.7,141.4,54.7
				c-0.2,0-0.3,0-0.4,0c-0.1,0-0.2,0-0.4,0c-0.3,0-0.6-0.1-0.7-0.3c-0.2-0.2-0.3-0.5-0.3-0.9c0-0.4,0.1-0.6,0.3-0.9
				c0.2-0.2,0.4-0.3,0.7-0.3c0.3,0,0.5,0,0.7,0.1c0,0,0.1,0,0.1,0c0.1-0.2,0.1-0.3,0.2-0.4c0,0,0-0.1,0-0.1c-0.1,0-0.3-0.1-0.4-0.1
				c-0.1,0-0.3,0-0.5,0c-0.3,0-0.5,0-0.7,0.1c-0.2,0.1-0.4,0.2-0.5,0.4c-0.1,0.2-0.2,0.4-0.3,0.6c-0.1,0.2-0.1,0.5-0.1,0.7
				c0,0.5,0.1,1,0.4,1.3c0.3,0.3,0.7,0.5,1.3,0.5c0.3,0,0.7-0.1,0.9-0.2c0,0,0,0,0-0.1L141.4,54.7z"/>
			<path fill-rule="evenodd" clip-rule="evenodd" fill="#FFFFFF" d="M144.7,52.8c-0.1-0.2-0.2-0.4-0.3-0.5c-0.1-0.2-0.3-0.3-0.4-0.3
				c-0.2-0.1-0.4-0.1-0.6-0.1c-0.3,0-0.5,0-0.7,0.1c-0.2,0.1-0.4,0.2-0.5,0.4c-0.1,0.2-0.2,0.4-0.3,0.6c-0.1,0.2-0.1,0.5-0.1,0.7
				c0,0.3,0,0.5,0.1,0.7c0.1,0.2,0.2,0.4,0.3,0.6c0.1,0.2,0.3,0.3,0.6,0.4c0.2,0.1,0.5,0.1,0.8,0.1c0.6,0,1-0.1,1.1-0.2
				c0,0,0,0,0-0.1l-0.1-0.4c0-0.1-0.1,0-0.1,0c-0.2,0.1-0.4,0.2-0.9,0.2c-0.3,0-0.6-0.1-0.8-0.3c-0.2-0.2-0.2-0.4-0.3-0.7l2.2,0
				c0,0,0.1,0,0.1-0.1C144.8,53.7,144.9,53.3,144.7,52.8 M142.5,53.2c0-0.2,0.1-0.4,0.2-0.5c0.1-0.2,0.3-0.3,0.6-0.3
				s0.5,0.1,0.6,0.3c0.1,0.1,0.1,0.3,0.1,0.5L142.5,53.2z"/>
			<path fill-rule="evenodd" clip-rule="evenodd" fill="#FFFFFF" d="M127,52.8c-0.1-0.2-0.2-0.4-0.3-0.5c-0.1-0.2-0.3-0.3-0.4-0.3
				c-0.2-0.1-0.4-0.1-0.6-0.1c-0.3,0-0.5,0-0.7,0.1c-0.2,0.1-0.4,0.2-0.5,0.4c-0.1,0.2-0.2,0.4-0.3,0.6c-0.1,0.2-0.1,0.5-0.1,0.7
				c0,0.3,0,0.5,0.1,0.7c0.1,0.2,0.2,0.4,0.3,0.6c0.1,0.2,0.3,0.3,0.6,0.4c0.2,0.1,0.5,0.1,0.8,0.1c0.6,0,1-0.1,1.1-0.2
				c0,0,0,0,0-0.1l-0.1-0.4c0-0.1-0.1,0-0.1,0c-0.2,0.1-0.4,0.2-0.9,0.2c-0.3,0-0.6-0.1-0.8-0.3c-0.2-0.2-0.2-0.4-0.3-0.7l2.2,0
				c0,0,0.1,0,0.1-0.1C127.1,53.7,127.1,53.3,127,52.8 M124.8,53.2c0-0.2,0.1-0.4,0.2-0.5c0.1-0.2,0.3-0.3,0.6-0.3
				c0.3,0,0.5,0.1,0.6,0.3c0.1,0.1,0.1,0.3,0.1,0.5L124.8,53.2z"/>
			<path fill="#FFFFFF" d="M120.9,53.1c-0.1,0-0.2,0-0.3,0c-0.2,0-0.4,0-0.5,0.1c-0.2,0-0.3,0.1-0.5,0.2c-0.1,0.1-0.2,0.2-0.3,0.4
				c-0.1,0.1-0.1,0.3-0.1,0.5c0,0.2,0,0.4,0.1,0.5c0.1,0.1,0.2,0.3,0.3,0.3c0.1,0.1,0.3,0.2,0.5,0.2c0.2,0,0.4,0.1,0.6,0.1
				c0.2,0,0.5,0,0.7-0.1c0.2,0,0.5-0.1,0.6-0.1c0.1,0,0.2,0,0.2,0c0.1,0,0.1-0.1,0.1-0.1l0-2c0-0.4-0.1-0.8-0.4-1
				c-0.2-0.2-0.6-0.3-1-0.3c-0.2,0-0.4,0-0.6,0.1c0,0-0.5,0.1-0.7,0.2c0,0,0,0,0,0.1l0.2,0.4c0,0.1,0.1,0,0.1,0s0,0,0,0
				c0.4-0.2,1-0.2,1-0.2c0.2,0,0.4,0,0.5,0.1c0.1,0.1,0.2,0.2,0.2,0.5v0.1C121.1,53.1,120.9,53.1,120.9,53.1 M120,54.7
				c-0.1-0.1-0.1-0.1-0.1-0.1c0-0.1-0.1-0.2-0.1-0.3c0-0.2,0.1-0.3,0.2-0.4c0,0,0.2-0.2,0.6-0.2c0.3,0,0.6,0.1,0.6,0.1v1
				c0,0-0.3,0.1-0.6,0.1C120.2,54.8,120,54.7,120,54.7"/>
			<path fill-rule="evenodd" clip-rule="evenodd" fill="#FFFFFF" d="M138.7,52C138.8,51.9,138.7,51.9,138.7,52
				c-0.1-0.1-0.3-0.1-0.4-0.1c-0.3,0-0.4,0-0.6,0.1c-0.1,0.1-0.3,0.2-0.4,0.3l0-0.3c0,0,0-0.1-0.1-0.1h-0.6c0,0-0.1,0-0.1,0.1v3.3
				c0,0,0,0.1,0.1,0.1h0.6c0,0,0.1,0,0.1-0.1v-1.7c0-0.2,0-0.4,0.1-0.6c0-0.1,0.1-0.2,0.2-0.3c0.1-0.1,0.2-0.1,0.3-0.2
				c0.1,0,0.2,0,0.3,0c0.1,0,0.2,0,0.2,0c0,0,0.1,0,0.1-0.1C138.6,52.4,138.7,52,138.7,52"/>
			<path fill-rule="evenodd" clip-rule="evenodd" fill="#FFFFFF" d="M133.3,50.5c-0.1,0-0.1,0-0.2-0.1c-0.1,0-0.2,0-0.3,0
				c-0.4,0-0.7,0.1-0.9,0.3c-0.2,0.2-0.4,0.6-0.4,1l0,0.1h-0.5c0,0-0.1,0-0.1,0.1l-0.1,0.5c0,0,0,0.1,0.1,0.1h0.5l-0.5,2.8
				c0,0.2-0.1,0.4-0.1,0.5c0,0.1-0.1,0.2-0.2,0.3c-0.1,0.1-0.1,0.1-0.2,0.2c-0.1,0-0.2,0-0.3,0c-0.1,0-0.1,0-0.2,0
				c-0.1,0-0.1,0-0.1,0c0,0-0.1,0-0.1,0c0,0-0.1,0.4-0.2,0.5c0,0,0,0.1,0,0.1c0.1,0,0.1,0,0.2,0.1c0.1,0,0.2,0,0.3,0
				c0.2,0,0.4,0,0.5-0.1c0.2-0.1,0.3-0.2,0.4-0.3c0.1-0.1,0.2-0.3,0.3-0.5c0.1-0.2,0.1-0.5,0.2-0.7l0.5-2.8h0.7c0,0,0.1,0,0.1-0.1
				l0.1-0.5c0,0,0-0.1-0.1-0.1h-0.7c0,0,0-0.3,0.1-0.5c0-0.1,0.1-0.2,0.2-0.2c0.1-0.1,0.1-0.1,0.2-0.1c0.1,0,0.1,0,0.2,0
				c0.1,0,0.1,0,0.2,0c0.1,0,0.1,0,0.1,0c0.1,0,0.1,0,0.1,0L133.3,50.5C133.3,50.5,133.3,50.5,133.3,50.5"/>
			<path fill-rule="evenodd" clip-rule="evenodd" fill="#FFFFFF" d="M123.4,55.2C123.4,55.3,123.4,55.3,123.4,55.2l-0.7,0.1
				c0,0-0.1,0-0.1-0.1l0-4.7c0,0,0-0.1,0.1-0.1h0.6c0,0,0.1,0,0.1,0.1V55.2z"/>
		</g>
		<g id="outlook_9_">
			<path fill="#2172B9" d="M119.9,149.6c0-0.8-0.8-1-1.4-0.9c-3.1,0-6.2,0-9.3,0c0-2,0-4,0-6v-0.4c-4.6,0.8-11,1.9-15.6,2.8
				c0,7,0,14,0,21c4.6,0.8,11,1.8,15.6,2.7v-0.3c0-1.9,0-3.8,0-5.7c3.3-0.1,6.6,0.1,9.9-0.1c0.9,0,0.9-1.1,0.9-1.7
				C119.9,157.2,120,153.4,119.9,149.6z M103.2,159.6c-1.8,1.5-4.8,0.7-5.6-1.5c-1.1-2.5-0.5-6.4,2.3-7.4c1.7-0.6,3.7,0.3,4.4,1.9
				C105.3,154.8,105.2,157.9,103.2,159.6z M119,161.9c-3.3,0-6.6,0-9.9,0c0-2.6,0-5.2,0-7.9c1.1,1,2.1,2.1,3.3,3
				c0.5,0.1,0.8-0.3,1.2-0.6c1.8-1.7,3.6-3.4,5.4-5.1C119,154.8,119,158.4,119,161.9z M118.5,150.6c-2,1.9-4,3.7-5.9,5.6
				c-1.2-1.1-2.3-2.2-3.5-3.3c0-1.1,0-2.2,0-3.3c3.3,0,6.7,0,10,0C119,150,118.9,150.4,118.5,150.6z"/>
			<path fill="#2172B9" d="M100.2,152.5c0.8-0.4,1.8,0,2.2,0.8c0.6,1.2,0.6,2.6,0.2,3.9c-0.3,0.9-1.3,1.6-2.2,1.3
				c-1.2-0.4-1.5-1.8-1.6-2.8C98.9,154.5,99.1,153,100.2,152.5z"/>
		</g>
		<path fill="#1EBBEE" d="M172.1,87.6l6.2,1.9l-0.3-1.1c0,0,0-0.2-0.2-0.2l-4.6-1.4c0,0-0.2-0.1-0.3,0.1L172.1,87.6z M179.3,90.4
			c0,0,0.1-0.4-0.3-0.5l-2.6-0.8l-8.4-2.5l-2.6-0.8c-0.4-0.1-0.5,0.3-0.5,0.3l-2.5,8.3c-0.1,0.4,0.3,0.5,0.3,0.5l2.6,0.8l8.4,2.5
			l2.6,0.8c0,0,0.4,0.1,0.5-0.3L179.3,90.4z"/>
		<path fill="#1EBBEE" d="M46,79.8l6.2,1.9l-0.3-1.1c0,0,0-0.2-0.2-0.2l-4.6-1.4c0,0-0.2-0.1-0.3,0.1L46,79.8z M53.3,82.6
			c0,0,0.1-0.4-0.3-0.5l-2.6-0.8L42,78.8L39.4,78c-0.4-0.1-0.5,0.3-0.5,0.3l-2.5,8.3c-0.1,0.4,0.3,0.5,0.3,0.5l2.6,0.8l8.4,2.5
			l2.6,0.8c0,0,0.4,0.1,0.5-0.3L53.3,82.6z"/>
	</g>
</g>
<g id="Layer_4">
</g>
</svg>
