<?xml version="1.0" encoding="utf-8"?>
<!-- Generator: Adobe Illustrator 19.2.1, SVG Export Plug-In . SVG Version: 6.00 Build 0)  -->
<svg version="1.1" xmlns="http://www.w3.org/2000/svg" xmlns:xlink="http://www.w3.org/1999/xlink" x="0px" y="0px"
	 viewBox="0 0 107.9 125.7" enable-background="new 0 0 107.9 125.7" xml:space="preserve">
<g id="Layer_1">
	<g>
		<g>
			<rect x="61.5" y="3.4" fill="#A0A0A0" width="31.5" height="41.2"/>
			<rect x="66.1" y="5.9" fill="#4F504F" width="24.7" height="36.1"/>
		</g>
		<g>
			
				<rect x="64.9" y="27.5" transform="matrix(0.3378 -0.9412 0.9412 0.3378 15.9465 109.1355)" fill="#A0A0A0" width="41.2" height="31.5"/>
			
				<rect x="68.6" y="31.3" transform="matrix(0.3378 -0.9412 0.9412 0.3378 16.306 110.4443)" fill="#4F504F" width="36.1" height="24.7"/>
		</g>
		<g>
			<rect x="17.4" y="7.4" fill="#A0A0A0" width="31.5" height="41.2"/>
			<rect x="22" y="9.9" fill="#4F504F" width="24.7" height="36.1"/>
		</g>
		<g>
			
				<rect x="26.8" y="9.5" transform="matrix(0.3378 -0.9412 0.9412 0.3378 7.5882 61.3936)" fill="#A0A0A0" width="41.2" height="31.5"/>
			
				<rect x="30.5" y="13.4" transform="matrix(0.3378 -0.9412 0.9412 0.3378 7.9477 62.7024)" fill="#4F504F" width="36.1" height="24.7"/>
		</g>
		<g>
			<path fill="#7F7F7F" d="M37.1,36.5c0.3,0.3,0.3,0.7,0,1l-11,11.6c-0.3,0.3-0.7,0.3-1,0l-24.4-23c-0.3-0.3-0.3-0.7,0-1l11-11.6
				c0.3-0.3,0.7-0.3,1,0L37.1,36.5z"/>
			
				<rect x="11.9" y="18.3" transform="matrix(0.6867 -0.727 0.727 0.6867 -16.8295 23.7351)" fill="#4F504F" width="14.3" height="26.1"/>
			<path fill="#FFFFFF" d="M9.3,19.1c0.1,0.1,0.1,0.3,0,0.4L6.9,22c-0.1,0.1-0.3,0.1-0.4,0c-0.1-0.1-0.1-0.3,0-0.4l2.4-2.6
				C9,19,9.2,18.9,9.3,19.1"/>
		</g>
		<g>
			<path fill="#7F7F7F" d="M46.3,55.7c-0.1,0.4,0.2,0.8,0.6,0.8l15.7,2.9c0.4,0.1,0.8-0.2,0.8-0.6l6.1-33c0.1-0.4-0.2-0.8-0.6-0.8
				l-15.7-2.9c-0.4-0.1-0.8,0.2-0.8,0.6L46.3,55.7z"/>
			
				<rect x="44.8" y="33.8" transform="matrix(0.1817 -0.9834 0.9834 0.1817 6.9986 90.4336)" fill="#4F504F" width="26.1" height="14.3"/>
			<path fill="#FFFFFF" d="M58.5,25.3c0,0.2,0.1,0.3,0.2,0.3l3.5,0.6c0.2,0,0.3-0.1,0.3-0.2c0-0.2-0.1-0.3-0.2-0.3L58.8,25
				C58.6,25,58.5,25.1,58.5,25.3"/>
		</g>
		<g>
			
				<rect x="5.1" y="37.2" transform="matrix(-1 -4.488999e-011 4.488999e-011 -1 110.4021 162.3585)" fill="#FDB813" width="100.2" height="88"/>
			
				<rect x="5.1" y="37.2" transform="matrix(-1 -6.768776e-011 6.768776e-011 -1 37.9126 162.3585)" fill="#F58B21" width="27.8" height="88"/>
			<g>
				<rect x="59.3" y="71" fill="#FFFFFF" width="4.3" height="20.8"/>
				<polygon fill="#FFFFFF" points="83.2,74.5 77.1,74.5 77.1,91.8 72.8,91.8 72.8,74.5 66.7,74.5 66.7,71 83.2,71 				"/>
				<path fill="#FFFFFF" d="M90.1,92.7l-20,11.7L49.7,92.7v-23l20-11.7l20.4,11.7V92.7z M69.7,54.1L46.3,67.5v27.3l23.9,13.5
					l23.4-13.5V67.5L69.7,54.1z"/>
			</g>
		</g>
	</g>
</g>
<g id="Layer_2">
</g>
<g id="Layer_3">
</g>
<g id="Layer_4">
</g>
</svg>
