<?xml version="1.0" encoding="utf-8"?>
<!-- Generator: Adobe Illustrator 19.2.1, SVG Export Plug-In . SVG Version: 6.00 Build 0)  -->
<svg version="1.1" xmlns="http://www.w3.org/2000/svg" xmlns:xlink="http://www.w3.org/1999/xlink" x="0px" y="0px"
	 viewBox="0 0 744 452" enable-background="new 0 0 744 452" xml:space="preserve">
<g id="Layer_1">
</g>
<g id="Layer_2">
	<path opacity="0.1" d="M305.6,399.7c0.5,0,0.9,0.1,1.3,0.1v-0.1l132.7,0v0.1c5.3,0.5,9.5,4.2,9.5,8.6c0,4.8-4.8,8.7-10.8,8.7
		c-0.8,0-132,0-132.7,0c-6,0-10.8-3.9-10.8-8.7C294.9,403.6,299.7,399.7,305.6,399.7"/>
	<path fill="#9C4F96" d="M368.9,150.5l6.3,22.7c-0.7,3.8-4,3.9-5.5,8.6c-4.7,15.3-14.4,34.6-34,49.3l0,0l0,0
		c-7.2,5.5-15.8,10.3-25.8,14c-0.1,0-0.1,0-0.2,0.1l-6.3-17.1c8.5-3.1,15.5-7.1,21.4-11.6c14.7-11.1,23.4-25.2,26.8-37.8
		C354.2,169.2,368.9,150.5,368.9,150.5z"/>
	<path fill="#FCF4A1" d="M299.5,248.3l-0.3,0.2c-4.7,1.7-10-0.7-11.7-5.4c-1.8-4.7,0.6-9.9,5.4-11.7l0.3-0.1l0,0l8.8-3.3l6.3,17.1
		L299.5,248.3L299.5,248.3z"/>
	<g>
		<path fill="#0A72BA" d="M430.6,390.1l0.2-112.1l-23-0.9l-4.4-17.2l-2.7,18.3l-24.4,0.8l-0.7,114.9l-22.9,4.8v9.8h24.1l2.8-3.1h5.7
			v3.1h4.3h4h20.1l2.8-3.1h5.7v3.1h8.3v-9.8v-8.3l0.2-0.2L430.6,390.1z M393.7,397.7v-7.5l0.2-0.2l-0.2,0l9.2-104.5h2.7l6.9,108.2
			L393.7,397.7z"/>
	</g>
	<path fill="#9C4F96" d="M436.7,216.3v-65.8h-67.8l1.1,24.6c0,17.8,0.2,82.3,0,101.9v10.8h66.6V216.3"/>
	<path fill="#672A7A" d="M436.7,287.8h-5.9h-8.8h-20h-8.8H370V277c0,0,0-0.1,0-0.1c0-3.2,0.1-7,0.2-11.1l66.5-42.7
		C437.3,241.1,436.6,286,436.7,287.8L436.7,287.8L436.7,287.8L436.7,287.8L436.7,287.8L436.7,287.8L436.7,287.8L436.7,287.8
		L436.7,287.8L436.7,287.8L436.7,287.8L436.7,287.8L436.7,287.8L436.7,287.8L436.7,287.8L436.7,287.8L436.7,287.8L436.7,287.8
		L436.7,287.8L436.7,287.8L436.7,287.8L436.7,287.8L436.7,287.8L436.7,287.8L436.7,287.8L436.7,287.8L436.7,287.8L436.7,287.8
		L436.7,287.8"/>
	<g>
		
			<rect x="393.2" y="182.5" transform="matrix(1 -1.011411e-003 1.011411e-003 1 -0.1951 0.4)" fill="#FFFFFF" width="4.4" height="21.2"/>
		<polygon fill="#FFFFFF" points="417.5,186 411.3,186 411.3,203.6 406.9,203.6 406.9,186 400.7,186 400.7,182.5 417.4,182.5 		"/>
		<path fill="#FFFFFF" d="M424.5,204.5l-20.3,11.9l-20.7-11.9l0-23.4l20.3-11.9l20.7,11.9L424.5,204.5z M403.8,165.3L380,179l0,27.8
			l24.3,13.6l23.8-13.7l0-27.8L403.8,165.3z"/>
	</g>
	<g>
		<path fill="#9C4F96" d="M426.9,170.9l9.7-20.4c1.6,2.5,10.6,28.4,11.7,32c3.7,11.2,6.4,27.6,2.9,46l0,0l0,0
			c-1.3,6.8-3.6,13.9-7.4,21.1c0,0-0.1,0.1-0.1,0.1l-12.3-6.4c3.2-6.1,5.1-12,6.1-17.5c2.6-13.8,1.1-27-2.8-36.2
			C431.2,181.2,428.2,172.4,426.9,170.9z"/>
		<path fill="#FCF4A1" d="M440.6,256.2l-0.1,0.3c-1.8,3.4-6,4.7-9.4,3c-3.4-1.7-4.7-5.9-3-9.3l0.1-0.2l0,0l3.3-6.4l12.3,6.4
			L440.6,256.2L440.6,256.2z"/>
	</g>
	<path fill="#FCF4A1" d="M390.4,150.5c1.2,4.7,5.4,8.2,10.5,8.2c5,0,9.2-3.5,10.4-8.2L390.4,150.5z"/>
	<path fill="#FCF4A1" d="M411.6,133.2l-5.2-1.8l-1.7,4.3l-9.3,0l0.1,15.2l11.1,0l0-8.7C406.7,139.3,407.6,134.5,411.6,133.2"/>
	<g>
		
			<rect x="296.5" y="181.8" transform="matrix(-1 -4.481050e-011 4.481050e-011 -1 671.2676 432.2533)" fill="#FDB813" width="78.3" height="68.7"/>
		
			<rect x="296.5" y="181.8" transform="matrix(-1 -4.488733e-011 4.488733e-011 -1 625.6866 432.2533)" fill="#F58B21" width="32.7" height="68.7"/>
		<g>
			<path fill="#FFFFFF" d="M311.4,216.2c-0.7,0.4-1.6,0.6-2.7,0.6c-1.4,0-2.5-0.4-3.4-1.3c-0.8-0.9-1.3-2-1.3-3.5
				c0-1.5,0.5-2.8,1.4-3.7c0.9-1,2.1-1.4,3.6-1.4c0.9,0,1.7,0.1,2.3,0.4v1.6c-0.6-0.4-1.4-0.6-2.2-0.6c-1,0-1.9,0.3-2.5,1
				c-0.6,0.7-1,1.6-1,2.7c0,1.1,0.3,1.9,0.9,2.5c0.6,0.6,1.4,0.9,2.4,0.9c0.9,0,1.7-0.2,2.4-0.6V216.2z"/>
			<path fill="#FFFFFF" d="M317.1,216.7c-1.4,0-2.5-0.5-3.3-1.4c-0.8-0.9-1.3-2.1-1.3-3.5c0-1.6,0.4-2.8,1.3-3.7
				c0.9-0.9,2-1.4,3.5-1.4c1.4,0,2.4,0.4,3.3,1.3s1.2,2.1,1.2,3.5c0,1.6-0.4,2.8-1.3,3.7C319.6,216.3,318.5,216.7,317.1,216.7z
				 M317.1,208.2c-0.9,0-1.6,0.3-2.2,1s-0.8,1.5-0.8,2.6c0,1.1,0.3,1.9,0.8,2.6s1.2,1,2.1,1c0.9,0,1.7-0.3,2.2-0.9s0.8-1.5,0.8-2.6
				c0-1.2-0.3-2-0.8-2.7S318,208.2,317.1,208.2z"/>
			<path fill="#FFFFFF" d="M333.9,216.6h-1.6v-6.2c0-0.5,0-1.1,0.1-1.9h0c-0.1,0.4-0.2,0.7-0.3,0.9l-2.9,7.2h-1.1l-2.9-7.2
				c-0.1-0.2-0.2-0.5-0.3-1h0c0,0.4,0.1,1,0.1,1.9v6.2h-1.5v-9.6h2.3l2.5,6.4c0.2,0.5,0.3,0.9,0.4,1.1h0c0.2-0.5,0.3-0.9,0.4-1.1
				l2.6-6.4h2.2V216.6z"/>
			<path fill="#FFFFFF" d="M337.8,213.1v3.5h-1.6v-9.6h2.9c1.1,0,2,0.3,2.6,0.8s0.9,1.2,0.9,2.2c0,0.9-0.3,1.7-1,2.3
				c-0.6,0.6-1.5,0.9-2.6,0.9H337.8z M337.8,208.3v3.5h1c0.7,0,1.2-0.2,1.6-0.5c0.4-0.3,0.5-0.8,0.5-1.3c0-1.1-0.7-1.7-2-1.7H337.8z
				"/>
			<path fill="#FFFFFF" d="M351.2,216.6h-1.8l-0.9-2.5h-3.8l-0.8,2.5h-1.7l3.6-9.6h1.8L351.2,216.6z M348.2,212.8l-1.3-3.8
				c0-0.1-0.1-0.3-0.1-0.6h0c0,0.3-0.1,0.5-0.1,0.6l-1.3,3.8H348.2z"/>
			<path fill="#FFFFFF" d="M360.8,216.6H359l-4.6-7.1c-0.1-0.2-0.2-0.4-0.3-0.6h0c0,0.2,0.1,0.6,0.1,1.3v6.3h-1.5v-9.6h1.9l4.5,6.9
				c0.2,0.3,0.3,0.5,0.4,0.6h0c0-0.3-0.1-0.7-0.1-1.3v-6.2h1.5V216.6z"/>
			<path fill="#FFFFFF" d="M369.9,206.9l-3.2,6.1v3.5h-1.6v-3.5l-3.1-6.2h1.8l1.9,4.1c0,0,0.1,0.2,0.2,0.6h0c0-0.1,0.1-0.3,0.2-0.6
				l2-4.1H369.9z"/>
			<path fill="#FFFFFF" d="M329.4,233.1h-1.8l-0.9-2.5H323l-0.8,2.5h-1.7l3.6-9.6h1.8L329.4,233.1z M326.4,229.4l-1.3-3.8
				c0-0.1-0.1-0.3-0.1-0.6h0c0,0.3-0.1,0.5-0.1,0.6l-1.3,3.8H326.4z"/>
			<path fill="#FFFFFF" d="M332.3,229.6v3.5h-1.6v-9.6h2.9c1.1,0,2,0.3,2.6,0.8s0.9,1.2,0.9,2.2c0,0.9-0.3,1.7-1,2.3
				c-0.6,0.6-1.5,0.9-2.6,0.9H332.3z M332.3,224.8v3.5h1c0.7,0,1.2-0.2,1.6-0.5c0.4-0.3,0.5-0.8,0.5-1.3c0-1.1-0.7-1.7-2-1.7H332.3z
				"/>
			<path fill="#FFFFFF" d="M340.4,229.6v3.5h-1.6v-9.6h2.9c1.1,0,2,0.3,2.6,0.8s0.9,1.2,0.9,2.2c0,0.9-0.3,1.7-1,2.3
				c-0.6,0.6-1.5,0.9-2.6,0.9H340.4z M340.4,224.8v3.5h1c0.7,0,1.2-0.2,1.6-0.5c0.4-0.3,0.5-0.8,0.5-1.3c0-1.1-0.7-1.7-2-1.7H340.4z
				"/>
			<path fill="#FFFFFF" d="M346.4,232.7v-1.6c0.1,0.1,0.3,0.3,0.5,0.4c0.2,0.1,0.4,0.2,0.6,0.3s0.5,0.1,0.7,0.2
				c0.2,0,0.4,0.1,0.6,0.1c0.7,0,1.2-0.1,1.5-0.3c0.3-0.2,0.5-0.5,0.5-1c0-0.2-0.1-0.4-0.2-0.6c-0.1-0.2-0.3-0.3-0.5-0.5
				c-0.2-0.1-0.4-0.3-0.7-0.4c-0.3-0.1-0.6-0.3-0.9-0.4c-0.3-0.2-0.6-0.4-0.9-0.5c-0.3-0.2-0.5-0.4-0.7-0.6
				c-0.2-0.2-0.4-0.5-0.5-0.7c-0.1-0.3-0.2-0.6-0.2-1c0-0.5,0.1-0.8,0.3-1.2s0.5-0.6,0.8-0.8c0.3-0.2,0.7-0.4,1.1-0.5
				c0.4-0.1,0.9-0.2,1.3-0.2c1,0,1.7,0.1,2.2,0.3v1.6c-0.5-0.4-1.3-0.6-2.1-0.6c-0.2,0-0.5,0-0.7,0.1s-0.4,0.1-0.6,0.2
				c-0.2,0.1-0.3,0.2-0.5,0.4c-0.1,0.2-0.2,0.4-0.2,0.6c0,0.2,0,0.4,0.1,0.6c0.1,0.2,0.2,0.3,0.4,0.4c0.2,0.1,0.4,0.3,0.6,0.4
				c0.2,0.1,0.5,0.3,0.9,0.4c0.3,0.2,0.7,0.4,1,0.6c0.3,0.2,0.6,0.4,0.8,0.6c0.2,0.2,0.4,0.5,0.5,0.8c0.1,0.3,0.2,0.6,0.2,1
				c0,0.5-0.1,0.9-0.3,1.2c-0.2,0.3-0.5,0.6-0.8,0.8c-0.3,0.2-0.7,0.4-1.2,0.5c-0.4,0.1-0.9,0.1-1.4,0.1c-0.2,0-0.4,0-0.6,0
				c-0.2,0-0.5-0.1-0.7-0.1c-0.2,0-0.5-0.1-0.7-0.2C346.7,232.9,346.5,232.8,346.4,232.7z"/>
		</g>
	</g>
	<g>
		<g>
			<polygon fill="#EC2127" points="372.4,91.3 372.4,91.5 372.4,91.3 			"/>
			<polygon fill="#436BB3" points="372.4,91.2 372.4,91.3 372.4,91.3 			"/>
			<path fill="#FCF4A1" d="M382.9,106.4c0,0-6,5.7-9.5,14.1l7.1,2L382.9,106.4z"/>
			<path fill="#FCF4A1" d="M417.7,105.5l-6.4,22.5l-0.1,0c-5.8,16.5-21.2,17.6-38.2,12.7l0.4-1.5l3.7-12.8l4.6-16l4-14.1
				L417.7,105.5z"/>
			<path fill="#FCEE1E" d="M425.9,104.2c-1.7-2.4-4.6-3.6-7.5-3.6c0-1.6-0.5-3.1-1.3-4c-1.5-1.5-2.9-2.2-5-2.8
				c-2.5-0.7-3.8-1.6-5.6-3.4c-5.7-5.9-18.6-2.7-20.7,5.8l0.2,0.1l-0.2-0.1c0,5.2,6.5,10.2,10.9,11.8c2.5,0.9,4.3,1.1,5.9,2.2l0,0
				c0,0-7.1,22.8-19.8,19.1c0,0,0.7-6.1-4.4-7.6l-5.4,18.9c0,0,20.8,12.1,28-12.9l3.3-9.6c-0.6,4.6-0.5,11.5,3.8,16.3c0,0,0,0,0-0.1
				l0,0c5.1-1.1,4.9-5.3,6.7-9.2c1.3-2.9,5.8-5.7,8.2-8C425.9,114.6,428.4,107.9,425.9,104.2z"/>
			<path fill="#FCF4A1" d="M405.1,113.5c4,1.1,6.2,5.3,5.1,9.2c-1.1,4-5.3,6.2-9.2,5.1L405.1,113.5z"/>
			<path opacity="0.15" d="M404.1,117.1c2,0.6,3.1,2.6,2.6,4.6c-0.6,2-2.6,3.1-4.6,2.6L404.1,117.1z"/>
		</g>
		<path fill="none" stroke="#17244E" stroke-width="0.6266" stroke-miterlimit="10" d="M386.8,110c0,0,0.4-1.1,2.2-0.7
			c1.8,0.4,1.8,2,1.8,2"/>
	</g>
</g>
<g id="Layer_3">
</g>
<g id="Layer_4">
</g>
</svg>
