<?xml version="1.0" encoding="utf-8"?>
<!-- Generator: Adobe Illustrator 19.2.1, SVG Export Plug-In . SVG Version: 6.00 Build 0)  -->
<svg version="1.1" xmlns="http://www.w3.org/2000/svg" xmlns:xlink="http://www.w3.org/1999/xlink" x="0px" y="0px"
	 viewBox="0 0 744 452" enable-background="new 0 0 744 452" xml:space="preserve">
<g id="Layer_1">
</g>
<g id="Layer_2">
	<path opacity="0.1" d="M431.7,381.6c-0.5,0-0.9,0.1-1.3,0.1v-0.1l-102.7,0v0.1c-5.3,0.5-9.5,4.2-9.5,8.6c0,4.8,4.8,8.7,10.8,8.7
		c0.8,0,102,0,102.7,0c6,0,10.8-3.9,10.8-8.7C442.5,385.6,437.7,381.6,431.7,381.6"/>
	<path opacity="0.1" d="M25.2,381.6c0.5,0,0.9,0.1,1.3,0.1v-0.1l102.7,0v0.1c5.3,0.5,9.5,4.2,9.5,8.6c0,4.8-4.8,8.7-10.8,8.7
		c-0.8,0-102,0-102.7,0c-6,0-10.8-3.9-10.8-8.7C14.4,385.6,19.2,381.6,25.2,381.6"/>
	<path fill="#FDF59C" d="M425.3,277.7l0,0.2c0,3.3-2.6,5.9-5.9,5.9c-3.2,0-5.9-2.7-5.9-5.9l0-0.2h0l0-6.1l11.8,0L425.3,277.7
		L425.3,277.7"/>
	<polygon fill="#436BB3" points="354.7,387.1 365.7,376 380.3,376 380.3,390.4 354.7,390.4 	"/>
	<polygon fill="#436BB3" points="377.1,387.1 388.1,376 402.7,376 402.7,390.4 377.1,390.4 	"/>
	<rect x="365.9" y="282.4" fill="#A98864" width="14.4" height="93.6"/>
	<polygon fill="#385A99" points="373.4,390.4 377.1,390.4 377.1,387.1 380.3,383.9 380.3,376 373.4,376 	"/>
	<polygon fill="#385A99" points="377.1,390.4 380.3,390.4 380.3,383.9 377.1,387.1 	"/>
	<rect x="373.4" y="286.6" fill="#8E7154" width="6.9" height="89.4"/>
	<rect x="388.3" y="282.4" fill="#A98864" width="14.4" height="93.6"/>
	<rect x="395.8" y="376" fill="#385A99" width="6.9" height="14.4"/>
	<rect x="395.8" y="286.6" fill="#8E7154" width="6.9" height="89.4"/>
	<path fill="#B8D433" d="M367.6,235.9c-6.2-3.9-7-22.6-7.1-29.1v-2.3v-24.8h52v106.9h-52v-19.5C360.5,240.8,367.6,235.9,367.6,235.9
		"/>
	<path fill="#436BB3" d="M360.5,204.5v2.3C360.5,205.3,360.5,204.5,360.5,204.5"/>
	<path fill="#3DB4DC" d="M360.5,266.8C360.5,266.8,360.5,266.7,360.5,266.8C360.5,266.7,360.5,266.8,360.5,266.8 M360.5,266.8
		L360.5,266.8L360.5,266.8 M360.5,266.9L360.5,266.9L360.5,266.9 M360.5,267L360.5,267L360.5,267 M360.5,267.1L360.5,267.1
		L360.5,267.1 M360.5,267.2L360.5,267.2L360.5,267.2"/>
	<path fill="#A8BA2B" d="M360.5,286.6h12.9h6.9h15.6h6.9h9.8v-78.2l-51.4,46.2c-0.4,3.4-0.6,7.4-0.6,12.1c0,0,0,0,0,0.1v0v0v0v0.1v0
		v0.1v0v0v0v0.1V286.6"/>
	<g>
		<path fill="#B8D433" d="M373.1,198.8c0.1-0.5,0.2-1,0.3-1.5l-12.1-2.3c-0.1,0.5-0.2,0.9-0.3,1.3c-1.9,8.8-5.7,14.3-10.5,18.3
			c-4.8,3.9-10.9,6.2-17.1,7.4c-12.6,2.4-25.7,0-28.3-0.6c-0.4-0.1-0.5-0.1-0.5-0.1l0,0l-2.8,12c0,0,0.3,0.1,0.7,0.2
			c2.6,0.5,11.3,2.2,21.9,1.9c10.6-0.4,23.5-2.7,33.9-11.1c6.9-5.6,12.4-13.9,14.7-25.1L373.1,198.8"/>
		<path fill="#FCF4A1" d="M295.8,231.9l-0.2,0c-3.3-0.7-5.4-4-4.7-7.3c0.7-3.3,4-5.4,7.3-4.7l0.2,0.1l0,0l6.2,1.3l-2.6,12
			L295.8,231.9L295.8,231.9z"/>
	</g>
	<path fill="#FDF59C" d="M377.8,163l0.3,0.8l1.1,2.9h8v8.6v4.5l-4.7,4.7l-4.8-4.7v-2.7v-4.8c-0.1-2.4-0.7-7.4-4.2-8.5L377.8,163z"/>
	<polygon fill="#13284B" points="384.9,187.3 391.9,179.7 391.7,179.5 384.9,186.8 382.6,184.5 380.4,186.6 373.6,179.6 
		373.4,179.8 380.4,187 382.6,184.9 	"/>
	<path fill="#9C4F96" d="M398.1,200.6c0,0-20.7-11.1-9.5-31.8C388.6,168.7,409.3,179.9,398.1,200.6"/>
	<path fill="#13284B" d="M381.2,286.6h0.3c0-10.2-0.5-20.9-1-31.3c-1.2-23.7-2.4-48.2,2.3-70.6l-0.3-0.1c-4.6,22.5-3.4,47-2.3,70.7
		C380.6,265.7,381.2,276.4,381.2,286.6"/>
	<path fill="#13284B" d="M379.1,193.2c-0.7,0-1.2-0.5-1.2-1.2c0-0.7,0.5-1.2,1.2-1.2c0.7,0,1.2,0.5,1.2,1.2
		C380.3,192.7,379.7,193.2,379.1,193.2 M379.1,191.1c-0.5,0-0.9,0.4-0.9,0.9c0,0.5,0.4,0.9,0.9,0.9c0.5,0,0.9-0.4,0.9-0.9
		C380,191.5,379.6,191.1,379.1,191.1"/>
	<path fill="#13284B" d="M377,208.6c-0.7,0-1.2-0.5-1.2-1.2c0-0.7,0.5-1.2,1.2-1.2c0.7,0,1.2,0.5,1.2,1.2
		C378.2,208,377.7,208.6,377,208.6 M377,206.5c-0.5,0-0.9,0.4-0.9,0.9c0,0.5,0.4,0.9,0.9,0.9c0.5,0,0.9-0.4,0.9-0.9
		C377.9,206.9,377.5,206.5,377,206.5"/>
	<path fill="#13284B" d="M377,225c-0.7,0-1.2-0.5-1.2-1.2c0-0.7,0.5-1.2,1.2-1.2c0.7,0,1.2,0.5,1.2,1.2
		C378.2,224.5,377.7,225,377,225 M377,223c-0.5,0-0.9,0.4-0.9,0.9c0,0.5,0.4,0.9,0.9,0.9c0.5,0,0.9-0.4,0.9-0.9
		C377.9,223.3,377.5,223,377,223"/>
	<path fill="#13284B" d="M377,242.3c-0.7,0-1.2-0.5-1.2-1.2c0-0.7,0.5-1.2,1.2-1.2c0.7,0,1.2,0.5,1.2,1.2
		C378.2,241.8,377.7,242.3,377,242.3 M377,240.3c-0.5,0-0.9,0.4-0.9,0.9c0,0.5,0.4,0.9,0.9,0.9c0.5,0,0.9-0.4,0.9-0.9
		C377.9,240.7,377.5,240.3,377,240.3"/>
	<path fill="#13284B" d="M378.1,260.7c-0.7,0-1.2-0.5-1.2-1.2s0.5-1.2,1.2-1.2c0.7,0,1.2,0.5,1.2,1.2S378.7,260.7,378.1,260.7
		 M378.1,258.6c-0.5,0-0.9,0.4-0.9,0.9c0,0.5,0.4,0.9,0.9,0.9c0.5,0,0.9-0.4,0.9-0.9C378.9,259,378.5,258.6,378.1,258.6"/>
	<g>
		<path fill="#9C4F96" d="M380.3,148.7c-0.7,1.5-1.2,2.4-1,4.3c0.4,2.5,1.8,5.2,2.7,7.6c1.7,4.4,4.6,11.4,9.1,9.7
			c4-1.5,1.9-8.2,3.4-11.9c1.6-4,5.1-6,1.1-11.1c-3.9-5-9.8-4.7-14-4.1L380.3,148.7z"/>
		<path fill="#010101" d="M372.4,163.4c0.2,0.5,0.8,0.8,1.4,0.5c0.5-0.2,0.8-0.8,0.5-1.4c-0.2-0.5-0.8-0.8-1.4-0.5
			C372.4,162.2,372.2,162.9,372.4,163.4"/>
		<polygon fill="#FDF59C" points="364.9,160.2 366.4,172 372.3,169.5 		"/>
		<path fill="#FDF59C" d="M383.3,143.8l5.4,18.9c0.2,2.9,0,5.5-0.6,7.9c-1.5,4.1-5.2,8.7-14.2,11.4l-2.7-6.4l-5.1-11.9l-4.5-10.5
			L383.3,143.8z"/>
		<path fill="#1D4483" d="M372.4,163.4c0.2,0.5,0.8,0.8,1.4,0.5c0.5-0.2,0.8-0.8,0.5-1.4c-0.2-0.5-0.8-0.8-1.4-0.5
			C372.4,162.2,372.2,162.9,372.4,163.4"/>
		<path fill="#9C4F96" d="M380.9,153.6c-2.9-1.1-4.2,0.1-7,1.1c-3.4,1.2-9.7,1.4-12.4-1.6l-0.1-0.2c-2.7-6.2,3.3-14.2,9.6-13.4
			c2,0.2,3.2,0.1,5-0.7c1.5-0.6,2.7-1,4.4-0.8c1.8,0.2,4.1,2.7,4.4,5l0.7,0l3.9,9.1C386.4,153.3,384.1,154.8,380.9,153.6"/>
		<path fill="#FDF59C" d="M382.1,154.2c2.3-1.7,5.6-1.2,7.3,1.1c1.7,2.3,1.2,5.6-1.1,7.3L382.1,154.2z"/>
		<path fill="#FFD566" d="M383.6,156.3c1.2-0.9,2.8-0.6,3.7,0.6c0.9,1.2,0.6,2.8-0.6,3.7L383.6,156.3z"/>
	</g>
	<path fill="#B8D433" d="M425.4,271.6c0-55.2-12.7-91.3-12.8-91.7v0l-11,3.9c0,0,0.7,2,1.8,6c1.1,4,2.7,10,4.2,17.7
		c3.1,15.3,6.2,37.4,6.1,64.1H425.4z"/>
	<path fill="#FDF59C" d="M425.3,277.7l0,0.2c0,3.3-2.6,5.9-5.9,5.9c-3.2,0-5.9-2.7-5.9-5.9l0-0.2h0l0-6.1l11.8,0L425.3,277.7
		L425.3,277.7z"/>
	<g>
		<g>
			<path fill="#231F20" d="M334.5,222.5c0.1,0.8-0.5,1.5-1.3,1.6l-34.1,3.4c-0.8,0.1-1.5-0.5-1.6-1.3l-2.2-21.9
				c-0.1-0.8,0.5-1.5,1.3-1.6l34.1-3.4c0.8-0.1,1.5,0.5,1.6,1.3L334.5,222.5z"/>
			<path fill="#747474" d="M316.2,223.9c0,0.4-0.2,0.7-0.6,0.8c-0.4,0-0.7-0.2-0.8-0.6c0-0.4,0.2-0.7,0.6-0.8
				C315.8,223.2,316.2,223.5,316.2,223.9"/>
			
				<rect x="299" y="203.6" transform="matrix(0.995 -9.990979e-002 9.990979e-002 0.995 -19.646 32.5106)" fill="#7F7F7F" width="31.6" height="17.6"/>
		</g>
		<g>
			<path fill="#FFFFFF" d="M309.5,217l11.8-1.2c0.1,0,0.2,0,0.2,0.1c0.1,0.1,0.1,0.1,0.1,0.2l0.1,1.2l-12.4,1.2l-0.1-1.2
				c0-0.1,0-0.2,0.1-0.2C309.3,217,309.4,217,309.5,217z"/>
			<polygon fill="#FFFFFF" points="316.5,209.8 316,205.3 312.6,205.7 313.1,210.2 309.7,210.5 315.3,215.7 319.8,209.5 			"/>
		</g>
	</g>
	<path fill="#FDF59C" d="M31.6,277.7l0,0.2c0,3.3,2.6,5.9,5.9,5.9c3.2,0,5.9-2.7,5.9-5.9l0-0.2h0l0-6.1l-11.8,0L31.6,277.7
		L31.6,277.7"/>
	<polygon fill="#436BB3" points="102.2,387.1 91.2,376 76.6,376 76.6,390.4 102.2,390.4 	"/>
	<polygon fill="#436BB3" points="79.8,387.1 68.8,376 54.2,376 54.2,390.4 79.8,390.4 	"/>
	<rect x="76.6" y="282.4" fill="#9C4F96" width="14.4" height="93.6"/>
	<polygon fill="#385A99" points="83.5,390.4 79.8,390.4 79.8,387.1 76.6,383.9 76.6,376 83.5,376 	"/>
	<polygon fill="#385A99" points="79.8,390.4 76.6,390.4 76.6,383.9 79.8,387.1 	"/>
	<rect x="76.6" y="286.6" fill="#672A7A" width="6.9" height="89.4"/>
	<rect x="54.2" y="282.4" fill="#9C4F96" width="14.4" height="93.6"/>
	<rect x="54.2" y="376" fill="#385A99" width="6.9" height="14.4"/>
	<rect x="54.2" y="286.6" fill="#672A7A" width="6.9" height="89.4"/>
	<path fill="#1EA3DD" d="M89.3,235.9c6.2-3.9,7-22.6,7.1-29.1v-2.3v-24.8h-52v106.9h52v-19.5C96.3,240.8,89.3,235.9,89.3,235.9"/>
	<path fill="#436BB3" d="M96.3,204.5v2.3C96.4,205.3,96.3,204.5,96.3,204.5"/>
	<path fill="#3DB4DC" d="M96.3,266.8C96.3,266.8,96.3,266.7,96.3,266.8C96.3,266.7,96.3,266.8,96.3,266.8 M96.3,266.8L96.3,266.8
		L96.3,266.8 M96.3,266.9L96.3,266.9L96.3,266.9 M96.3,267L96.3,267L96.3,267 M96.3,267.1L96.3,267.1L96.3,267.1 M96.3,267.2
		L96.3,267.2L96.3,267.2"/>
	<path fill="#2172B9" d="M96.3,286.6H83.5h-6.9H61h-6.9h-9.8v-78.2l51.4,46.2c0.4,3.4,0.6,7.4,0.6,12.1c0,0,0,0,0,0.1v0v0v0v0.1v0
		v0.1v0v0v0v0.1V286.6"/>
	<path fill="#1EA3DD" d="M83.8,198.8c-0.1-0.5-0.2-1-0.3-1.5l12.1-2.3c0.1,0.5,0.2,0.9,0.3,1.3c1.9,8.8,5.7,14.3,10.5,18.3
		c4.8,3.9,10.9,6.2,17.1,7.4c12.6,2.4,25.7,0,28.3-0.6c0.4-0.1,0.5-0.1,0.5-0.1l0,0l2.8,12c0,0-0.3,0.1-0.7,0.2
		c-2.6,0.5-11.3,2.2-21.9,1.9c-10.6-0.4-23.5-2.7-33.9-11.1c-6.9-5.6-12.4-13.9-14.7-25.1L83.8,198.8"/>
	<path fill="#FDB813" d="M161.1,231.9l0.2,0c3.3-0.7,5.4-4,4.7-7.3c-0.7-3.3-4-5.4-7.3-4.7l-0.2,0.1l0,0l-6.2,1.3l2.6,12
		L161.1,231.9L161.1,231.9z"/>
	<path fill="#FDB813" d="M79.1,163l-0.3,0.8l-1.1,2.9h-8v8.6v4.5l4.7,4.7l4.8-4.7v-2.7v-4.8c0.1-2.4,0.7-7.4,4.2-8.5L79.1,163z"/>
	<polygon fill="#13284B" points="72,187.3 64.9,179.7 65.2,179.5 72,186.8 74.3,184.5 76.5,186.6 83.3,179.6 83.5,179.8 76.5,187 
		74.3,184.9 	"/>
	<path fill="#13284B" d="M75.7,286.6h-0.3c0-10.2,0.5-20.9,1-31.3c1.2-23.7,2.4-48.2-2.3-70.6l0.3-0.1c4.6,22.5,3.4,47,2.3,70.7
		C76.2,265.7,75.7,276.4,75.7,286.6"/>
	<path fill="#13284B" d="M77.8,193.2c-0.7,0-1.2-0.5-1.2-1.2c0-0.7,0.5-1.2,1.2-1.2c0.7,0,1.2,0.5,1.2,1.2
		C79,192.7,78.4,193.2,77.8,193.2 M77.8,191.1c-0.5,0-0.9,0.4-0.9,0.9c0,0.5,0.4,0.9,0.9,0.9c0.5,0,0.9-0.4,0.9-0.9
		C78.7,191.5,78.3,191.1,77.8,191.1"/>
	<path fill="#13284B" d="M79.9,208.6c-0.7,0-1.2-0.5-1.2-1.2c0-0.7,0.5-1.2,1.2-1.2c0.7,0,1.2,0.5,1.2,1.2
		C81,208,80.5,208.6,79.9,208.6 M79.9,206.5c-0.5,0-0.9,0.4-0.9,0.9c0,0.5,0.4,0.9,0.9,0.9c0.5,0,0.9-0.4,0.9-0.9
		C80.7,206.9,80.4,206.5,79.9,206.5"/>
	<path fill="#13284B" d="M79.9,225c-0.7,0-1.2-0.5-1.2-1.2c0-0.7,0.5-1.2,1.2-1.2c0.7,0,1.2,0.5,1.2,1.2C81,224.5,80.5,225,79.9,225
		 M79.9,223c-0.5,0-0.9,0.4-0.9,0.9c0,0.5,0.4,0.9,0.9,0.9c0.5,0,0.9-0.4,0.9-0.9C80.7,223.3,80.4,223,79.9,223"/>
	<path fill="#13284B" d="M79.9,242.3c-0.7,0-1.2-0.5-1.2-1.2c0-0.7,0.5-1.2,1.2-1.2c0.7,0,1.2,0.5,1.2,1.2
		C81,241.8,80.5,242.3,79.9,242.3 M79.9,240.3c-0.5,0-0.9,0.4-0.9,0.9c0,0.5,0.4,0.9,0.9,0.9c0.5,0,0.9-0.4,0.9-0.9
		C80.7,240.7,80.4,240.3,79.9,240.3"/>
	<path fill="#13284B" d="M78.8,260.7c-0.7,0-1.2-0.5-1.2-1.2s0.5-1.2,1.2-1.2c0.7,0,1.2,0.5,1.2,1.2S79.5,260.7,78.8,260.7
		 M78.8,258.6c-0.5,0-0.9,0.4-0.9,0.9c0,0.5,0.4,0.9,0.9,0.9c0.5,0,0.9-0.4,0.9-0.9C79.7,259,79.3,258.6,78.8,258.6"/>
	<path fill="#4F504F" d="M76.6,148.7c0.7,1.5,1.2,2.4,1,4.3c-0.4,2.5-1.8,5.2-2.7,7.6c-1.7,4.4-4.6,11.4-9.1,9.7
		c-4-1.5-1.9-8.2-3.4-11.9c-1.6-4-5.1-6-1.1-11.1c3.9-5,9.8-4.7,14-4.1L76.6,148.7z"/>
	<path fill="#010101" d="M84.5,163.4c-0.2,0.5-0.8,0.8-1.4,0.5c-0.5-0.2-0.8-0.8-0.5-1.4c0.2-0.5,0.8-0.8,1.4-0.5
		C84.5,162.2,84.7,162.9,84.5,163.4"/>
	<polygon fill="#FDB813" points="91.9,160.2 90.5,172 84.6,169.5 	"/>
	<path fill="#FDB813" d="M73.6,143.8l-5.4,18.9c-0.2,2.9,0,5.5,0.6,7.9c1.5,4.1,5.2,8.7,14.2,11.4l2.7-6.4l5.1-11.9l4.5-10.5
		L73.6,143.8z"/>
	<path fill="#1D4483" d="M84.5,163.4c-0.2,0.5-0.8,0.8-1.4,0.5c-0.5-0.2-0.8-0.8-0.5-1.4c0.2-0.5,0.8-0.8,1.4-0.5
		C84.5,162.2,84.7,162.9,84.5,163.4"/>
	<path fill="#4F504F" d="M75.9,153.6c2.9-1.1,4.2,0.1,7,1.1c3.4,1.2,9.7,1.4,12.4-1.6l0.1-0.2c2.7-6.2-3.3-14.2-9.6-13.4
		c-2,0.2-3.2,0.1-5-0.7c-1.5-0.6-2.7-1-4.4-0.8c-1.8,0.2-4.1,2.7-4.4,5l-0.7,0l-3.9,9.1C70.5,153.3,72.8,154.8,75.9,153.6"/>
	<path fill="#FDB813" d="M74.8,154.2c-2.3-1.7-5.6-1.2-7.3,1.1c-1.7,2.3-1.2,5.6,1.1,7.3L74.8,154.2z"/>
	<path fill="#FFD566" d="M73.3,156.3c-1.2-0.9-2.8-0.6-3.7,0.6c-0.9,1.2-0.6,2.8,0.6,3.7L73.3,156.3z"/>
	<path fill="#1EA3DD" d="M31.5,271.6c0-55.2,12.7-91.3,12.8-91.7v0l11,3.9c0,0-0.7,2-1.8,6c-1.1,4-2.7,10-4.2,17.7
		c-3.1,15.3-6.2,37.4-6.1,64.1H31.5z"/>
	<path fill="#FDB813" d="M31.6,277.7l0,0.2c0,3.3,2.6,5.9,5.9,5.9c3.2,0,5.9-2.7,5.9-5.9l0-0.2h0l0-6.1l-11.8,0L31.6,277.7
		L31.6,277.7z"/>
	<path fill="#231F20" d="M122.4,222.5c-0.1,0.8,0.5,1.5,1.3,1.6l34.1,3.4c0.8,0.1,1.5-0.5,1.6-1.3l2.2-21.9c0.1-0.8-0.5-1.5-1.3-1.6
		l-34.1-3.4c-0.8-0.1-1.5,0.5-1.6,1.3L122.4,222.5z"/>
	<path fill="#747474" d="M140.7,223.9c0,0.4,0.2,0.7,0.6,0.8c0.4,0,0.7-0.2,0.8-0.6c0-0.4-0.2-0.7-0.6-0.8
		C141.1,223.2,140.7,223.5,140.7,223.9"/>
	
		<rect x="133.3" y="196.6" transform="matrix(9.990979e-002 -0.995 0.995 9.990979e-002 -83.4189 332.587)" fill="#7F7F7F" width="17.6" height="31.6"/>
	<g>
		<path fill="#FFFFFF" d="M147.6,217.1c0,0.1,0.1,0.1,0.1,0.2l-0.1,1.2l-12.4-1.2l0.1-1.2c0-0.1,0-0.1,0.1-0.2
			c0.1-0.1,0.1-0.1,0.2-0.1l11.8,1.2C147.5,217,147.5,217,147.6,217.1z"/>
		<polygon fill="#FFFFFF" points="137.1,209.5 141.6,215.7 147.2,210.5 143.8,210.2 144.2,205.7 140.9,205.3 140.4,209.8 		"/>
	</g>
</g>
<g id="Layer_3">
</g>
<g id="Layer_4">
</g>
</svg>
