<?xml version="1.0" encoding="utf-8"?>
<!-- Generator: Adobe Illustrator 19.2.1, SVG Export Plug-In . SVG Version: 6.00 Build 0)  -->
<svg version="1.1" xmlns="http://www.w3.org/2000/svg" xmlns:xlink="http://www.w3.org/1999/xlink" x="0px" y="0px"
	 viewBox="0 0 163 54" enable-background="new 0 0 163 54" xml:space="preserve">
<g id="Layer_1">
</g>
<g id="Layer_2">
	<g>
		<g>
			<g>
				<path fill="none" stroke="#9C4F96" stroke-width="0.75" stroke-miterlimit="10" stroke-dasharray="2,2" d="M5.5,50.5
					C16.7,46,48.6,34,74.6,34c47.2,0,73.3,19.4,73.3,19.4"/>
				<g>
					<polygon fill="#9C4F96" points="8.5,52.3 6.3,50.2 6.4,47.2 1.3,52.2 					"/>
				</g>
			</g>
		</g>
		<g id="outlook_6_">
			<path fill="#515150" d="M108.8,7.8c0-0.7-0.8-0.9-1.3-0.8c-2.8,0-5.6,0-8.5,0c0-1.8,0-3.6,0-5.4V1.2c-4.2,0.7-10,1.8-14.2,2.5
				c0,6.3,0,12.7,0,19.1c4.2,0.7,10,1.7,14.2,2.4V25c0-1.7,0-3.5,0-5.2c3-0.1,6,0.1,9-0.1c0.8,0,0.8-1,0.8-1.6
				C108.8,14.7,108.9,11.2,108.8,7.8z M93.7,16.9c-1.6,1.4-4.4,0.6-5.1-1.4c-1-2.3-0.5-5.8,2.1-6.7c1.5-0.6,3.3,0.2,4,1.7
				C95.6,12.5,95.4,15.3,93.7,16.9z M108,18.9c-3,0-6,0-9,0c0-2.4,0-4.7,0-7.1c1,0.9,1.9,1.9,3,2.8c0.5,0.1,0.8-0.3,1.1-0.5
				c1.6-1.6,3.3-3.1,4.9-4.7C108,12.5,108,15.7,108,18.9z M107.6,8.7c-1.8,1.7-3.6,3.4-5.4,5.1c-1.1-1-2.1-2-3.2-3c0-1,0-2,0-3
				c3,0,6,0,9,0C108,8.1,107.9,8.5,107.6,8.7z"/>
			<path fill="#515150" d="M90.9,10.4c0.7-0.4,1.6,0,2,0.7c0.5,1.1,0.5,2.4,0.2,3.5c-0.2,0.8-1.1,1.5-2,1.2
				c-1.1-0.3-1.4-1.6-1.4-2.6C89.7,12.2,89.9,10.9,90.9,10.4z"/>
		</g>
		<g>
			<path fill="#515050" d="M151.2,10.4c1.9,0.2,3.7,1,5,2.6c1.7,2.1,2,4.9,1.1,7.2c1.1,0.5,2,1.3,2.8,2.3c3.1,3.8,2.5,9.3-1.4,12.4
				c-3.8,3.1-9.4,2.5-12.4-1.2c-0.4-0.5-0.7-0.9-1-1.5c-2.2,0.4-4.6-0.4-6.1-2.3c-0.6-0.8-1.1-1.7-1.3-2.6c-2.7,0.8-5.8-0.1-7.7-2.4
				c-2-2.5-2.1-5.8-0.6-8.4c-0.4-0.3-0.7-0.6-1-1c-2.4-2.9-1.9-7.2,1.1-9.6c2-1.6,4.6-1.9,6.8-1.1c0.5-0.9,1.2-1.8,2-2.5
				c3.4-2.8,8.4-2.2,11.1,1.2C151.3,5.5,151.8,8,151.2,10.4"/>
			<path fill="#FFFFFF" d="M135.1,9.1C135.1,9.2,135.1,9.2,135.1,9.1c-0.1,0.2,0,0.3,0,0.3c0.1,0.5,0.3,0.8,0.5,1.1
				c0.5,0.7,1.2,0.8,1.8,0.3l0,0c0.5-0.4,0.3-1,0.1-1.6l0-0.1c-0.2-0.4-0.3-0.8-0.1-0.9l0,0c0.2-0.1,0.4-0.1,0.7,0.2
				c0.2,0.3,0.4,0.7,0.5,1c0,0,0,0.1,0.1,0.1c0,0,0.4-0.1,0.5-0.2c0,0,0.1-0.1,0-0.1c0-0.4-0.2-0.8-0.5-1.1l-0.1-0.1
				c-0.5-0.6-1.2-0.7-1.7-0.3l0,0c-0.5,0.4-0.3,1-0.1,1.6l0,0.1c0.2,0.4,0.3,0.7,0.1,0.9l0,0c-0.2,0.2-0.5,0.1-0.7-0.2
				c-0.1-0.1-0.4-0.5-0.4-1c0-0.1,0-0.1,0-0.2c0,0,0-0.1-0.1-0.1L135.1,9.1z"/>
			<path fill="#FFFFFF" d="M142.9,18.7C142.8,18.7,142.8,18.7,142.9,18.7c-0.1,0.2,0,0.3,0,0.3c0.1,0.5,0.3,0.8,0.5,1.1
				c0.5,0.7,1.2,0.8,1.8,0.3l0,0c0.5-0.4,0.3-1,0.1-1.6l0-0.1c-0.2-0.4-0.3-0.8-0.1-0.9l0,0c0.2-0.1,0.4-0.1,0.7,0.2
				c0.2,0.3,0.4,0.7,0.5,1c0,0,0,0.1,0.1,0.1c0,0,0.4-0.1,0.5-0.2c0,0,0.1-0.1,0-0.1c0-0.4-0.2-0.8-0.5-1.1l-0.1-0.1
				c-0.5-0.6-1.2-0.7-1.7-0.3l0,0c-0.5,0.4-0.3,1-0.1,1.6l0,0.1c0.2,0.4,0.3,0.7,0.1,0.9l0,0c-0.2,0.2-0.5,0.1-0.7-0.2
				c-0.1-0.1-0.4-0.5-0.4-1c0-0.1,0-0.1,0-0.2c0,0,0-0.1-0.1-0.1L142.9,18.7z"/>
			<path fill="#FFFFFF" d="M150.2,24.3c0.1-0.2,0.2-0.4,0.3-0.6c0-0.2,0-0.4,0-0.7c-0.1-0.2-0.2-0.5-0.4-0.7
				c-0.2-0.2-0.4-0.4-0.6-0.5c-0.2-0.1-0.4-0.2-0.7-0.2c-0.2,0-0.4,0-0.7,0.1c-0.2,0.1-0.4,0.2-0.6,0.4c-0.2,0.2-0.4,0.4-0.5,0.6
				c-0.1,0.2-0.2,0.4-0.3,0.6c0,0.2,0,0.4,0,0.7c0.1,0.2,0.2,0.5,0.4,0.7c0.2,0.2,0.4,0.4,0.6,0.5c0.2,0.1,0.4,0.2,0.7,0.2
				c0.2,0,0.4,0,0.7-0.1c0.2-0.1,0.4-0.2,0.6-0.4C149.9,24.7,150.1,24.5,150.2,24.3 M149.2,24.3c-0.3,0.3-0.6,0.4-0.9,0.4
				c-0.3,0-0.5-0.1-0.7-0.3c-0.2-0.2-0.3-0.5-0.2-0.7c0.1-0.3,0.3-0.5,0.6-0.8c0.3-0.3,0.6-0.4,0.9-0.4c0.3,0,0.5,0.1,0.7,0.3
				c0.2,0.2,0.3,0.5,0.2,0.7C149.7,23.8,149.5,24,149.2,24.3"/>
			<path fill-rule="evenodd" clip-rule="evenodd" fill="#FFFFFF" d="M152.4,30C152.4,30,152.3,29.9,152.4,30
				c-0.1-0.2-0.2-0.2-0.3-0.3c-0.1-0.1-0.2-0.2-0.3-0.3c-0.2-0.3-0.3-0.5-0.3-0.8c0-0.3,0.2-0.6,0.6-0.8c0.3-0.2,0.6-0.4,0.9-0.4
				c0.3,0,0.5,0.1,0.8,0.4c0.2,0.2,0.3,0.4,0.4,0.6c0,0,0,0.1,0.1,0c0.2-0.1,0.3-0.1,0.5-0.2c0.1,0,0-0.1,0-0.1
				c0-0.1-0.1-0.3-0.2-0.4c-0.1-0.1-0.2-0.3-0.3-0.4c-0.2-0.2-0.4-0.4-0.6-0.5c-0.2-0.1-0.4-0.2-0.7-0.2c-0.2,0-0.5,0-0.7,0.1
				c-0.2,0.1-0.4,0.2-0.7,0.4c-0.5,0.4-0.7,0.8-0.8,1.2c-0.1,0.5,0.1,0.9,0.5,1.4c0.2,0.3,0.5,0.5,0.8,0.7c0,0,0.1,0,0.1,0L152.4,30
				z"/>
			<path fill-rule="evenodd" clip-rule="evenodd" fill="#FFFFFF" d="M156.2,31.5c0.1-0.2,0.2-0.4,0.2-0.6c0-0.2,0-0.4,0-0.6
				c-0.1-0.2-0.2-0.4-0.3-0.6c-0.2-0.2-0.4-0.4-0.6-0.5c-0.2-0.1-0.4-0.2-0.7-0.2c-0.2,0-0.5,0-0.7,0.1c-0.2,0.1-0.4,0.2-0.7,0.4
				c-0.2,0.2-0.4,0.4-0.5,0.6c-0.1,0.2-0.2,0.4-0.3,0.6c0,0.2,0,0.5,0.1,0.7c0.1,0.2,0.2,0.5,0.4,0.8c0.4,0.5,0.8,0.7,0.9,0.8
				c0,0,0.1,0,0.1-0.1l0.2-0.4c0-0.1,0-0.1,0-0.1c-0.2-0.1-0.4-0.2-0.7-0.6c-0.2-0.3-0.3-0.6-0.3-0.8c0-0.2,0.2-0.5,0.4-0.7l1.5,1.8
				c0,0,0,0,0.1,0C155.5,32.2,155.9,32,156.2,31.5 M154.3,30c0.2-0.1,0.4-0.2,0.6-0.2c0.3,0,0.5,0.1,0.7,0.3
				c0.2,0.2,0.2,0.5,0.2,0.7c-0.1,0.2-0.2,0.3-0.3,0.5L154.3,30z"/>
			<path fill-rule="evenodd" clip-rule="evenodd" fill="#FFFFFF" d="M144.3,16.8c0.1-0.2,0.2-0.4,0.2-0.6c0-0.2,0-0.4,0-0.6
				c-0.1-0.2-0.2-0.4-0.3-0.6c-0.2-0.2-0.4-0.4-0.6-0.5c-0.2-0.1-0.4-0.2-0.7-0.2c-0.2,0-0.5,0-0.7,0.1c-0.2,0.1-0.4,0.2-0.7,0.4
				c-0.2,0.2-0.4,0.4-0.5,0.6c-0.1,0.2-0.2,0.4-0.3,0.6c0,0.2,0,0.5,0.1,0.7c0.1,0.2,0.2,0.5,0.4,0.8c0.4,0.5,0.8,0.7,0.9,0.8
				c0,0,0.1,0,0.1-0.1l0.2-0.4c0-0.1,0-0.1,0-0.1c-0.2-0.1-0.4-0.2-0.7-0.6c-0.2-0.3-0.3-0.6-0.3-0.8c0-0.2,0.2-0.5,0.4-0.7l1.5,1.8
				c0,0,0,0,0.1,0C143.6,17.5,144,17.2,144.3,16.8 M142.4,15.3c0.2-0.1,0.4-0.2,0.6-0.2c0.3,0,0.5,0.1,0.7,0.3
				c0.2,0.2,0.2,0.5,0.2,0.7c-0.1,0.2-0.2,0.3-0.3,0.5L142.4,15.3z"/>
			<path fill="#FFFFFF" d="M139.9,11.9c-0.1-0.1-0.1-0.2-0.2-0.3c-0.1-0.2-0.3-0.3-0.4-0.4c-0.2-0.1-0.3-0.2-0.5-0.2
				c-0.2,0-0.3-0.1-0.5,0c-0.2,0-0.3,0.1-0.5,0.2c-0.2,0.1-0.3,0.3-0.4,0.4c-0.1,0.2-0.1,0.3-0.1,0.5c0,0.2,0.1,0.3,0.1,0.5
				c0.1,0.2,0.2,0.3,0.3,0.5c0.2,0.2,0.3,0.4,0.5,0.5c0.2,0.2,0.4,0.3,0.5,0.4c0.1,0,0.1,0.1,0.1,0.1c0,0,0.1,0,0.1,0l1.7-1.4
				c0.4-0.3,0.6-0.6,0.6-1c0-0.3-0.1-0.7-0.4-1.1c-0.1-0.1-0.3-0.3-0.4-0.5c0,0-0.4-0.3-0.7-0.4c0,0-0.1,0-0.1,0l-0.2,0.4
				c0,0.1,0,0.1,0,0.1s0,0,0,0c0.5,0.2,0.8,0.6,0.8,0.6c0.2,0.2,0.2,0.4,0.2,0.6c0,0.2-0.1,0.3-0.3,0.5l-0.1,0.1
				C140,12.1,139.9,11.9,139.9,11.9 M138,12.3c0-0.1,0-0.1,0-0.2c0-0.1,0.1-0.2,0.2-0.2c0.2-0.1,0.3-0.2,0.5-0.1c0,0,0.3,0,0.6,0.4
				c0.2,0.3,0.4,0.5,0.4,0.5l-0.8,0.7c0,0-0.2-0.2-0.5-0.4C138,12.5,138,12.3,138,12.3"/>
			<path fill-rule="evenodd" clip-rule="evenodd" fill="#FFFFFF" d="M152.8,26C152.9,26,152.9,25.9,152.8,26c0-0.1-0.1-0.3-0.2-0.4
				c-0.2-0.2-0.3-0.3-0.5-0.4c-0.1-0.1-0.3-0.1-0.5-0.1l0.2-0.2c0,0,0-0.1,0-0.1l-0.4-0.5c0,0-0.1,0-0.1,0l-2.7,2.2c0,0,0,0.1,0,0.1
				l0.4,0.5c0,0,0.1,0,0.1,0l1.4-1.1c0.2-0.1,0.4-0.3,0.5-0.3c0.1-0.1,0.3-0.1,0.4-0.1c0.1,0,0.2,0.1,0.3,0.1
				c0.1,0.1,0.2,0.2,0.2,0.2c0.1,0.1,0.1,0.2,0.1,0.2c0,0,0.1,0,0.1,0C152.5,26.1,152.8,26,152.8,26"/>
			<path fill-rule="evenodd" clip-rule="evenodd" fill="#FFFFFF" d="M150.4,20.4c0-0.1-0.1-0.1-0.1-0.2c0-0.1-0.1-0.2-0.2-0.3
				c-0.3-0.3-0.6-0.5-0.9-0.6c-0.3,0-0.7,0.1-1.1,0.3l-0.1,0.1l-0.3-0.4c0,0,0-0.1-0.1,0l-0.4,0.2c0,0-0.1,0.1,0,0.1l0.3,0.4
				l-2.6,1.5c-0.2,0.1-0.4,0.2-0.5,0.3c-0.1,0.1-0.3,0.1-0.4,0.1c-0.1,0-0.2,0-0.3-0.1c-0.1,0-0.1-0.1-0.2-0.2c0,0-0.1-0.1-0.1-0.2
				c0-0.1,0-0.1,0-0.1c0,0,0-0.1-0.1,0c-0.1,0-0.4,0.2-0.5,0.2c0,0-0.1,0.1-0.1,0.1c0,0.1,0,0.1,0.1,0.2c0.1,0.1,0.1,0.2,0.2,0.3
				c0.1,0.2,0.3,0.3,0.4,0.4c0.2,0.1,0.3,0.1,0.5,0.1c0.2,0,0.4,0,0.6-0.1c0.2-0.1,0.5-0.2,0.7-0.3l2.7-1.5l0.5,0.6c0,0,0,0.1,0.1,0
				l0.4-0.2c0,0,0.1-0.1,0-0.1l-0.5-0.6c0,0,0.2-0.1,0.5-0.2c0.1,0,0.2,0,0.3,0c0.1,0,0.2,0,0.2,0.1c0.1,0,0.1,0.1,0.2,0.2
				c0,0.1,0.1,0.1,0.1,0.2c0,0.1,0,0.1,0.1,0.1c0,0.1,0.1,0.1,0.1,0.1L150.4,20.4C150.5,20.5,150.4,20.5,150.4,20.4"/>
			<path fill-rule="evenodd" clip-rule="evenodd" fill="#FFFFFF" d="M139.8,15.5C139.8,15.5,139.7,15.5,139.8,15.5l-0.5-0.5
				c0,0,0-0.1,0-0.1l3.9-3.2c0,0,0.1,0,0.1,0l0.4,0.5c0,0,0,0.1,0,0.1L139.8,15.5z"/>
		</g>
		<path fill="#4F504F" d="M20.9,23.6c-0.7,0.3-1.5,0.5-2.3,0.6c0.8-0.5,1.5-1.3,1.8-2.3c-0.8,0.5-1.7,0.8-2.6,1
			c-0.7-0.8-1.8-1.3-3-1.3c-2.3,0-4.1,1.8-4.1,4.1c0,0.3,0,0.6,0.1,0.9c-3.4-0.2-6.4-1.8-8.4-4.3C2,23,1.8,23.7,1.8,24.5
			c0,1.4,0.7,2.7,1.8,3.4c-0.7,0-1.3-0.2-1.8-0.5c0,0,0,0,0,0.1c0,2,1.4,3.6,3.3,4c-0.3,0.1-0.7,0.1-1.1,0.1c-0.3,0-0.5,0-0.8-0.1
			c0.5,1.6,2,2.8,3.8,2.8c-1.4,1.1-3.2,1.7-5.1,1.7c-0.3,0-0.7,0-1-0.1c1.8,1.2,4,1.8,6.3,1.8c7.5,0,11.6-6.2,11.6-11.6
			c0-0.2,0-0.4,0-0.5C19.6,25.1,20.3,24.4,20.9,23.6z"/>
		<g>
			<path fill="#4F504F" d="M43.4,8.8H57c1.3,0,2.3,1,2.3,2.3v13.5c0,1.4-1.1,2.3-2.3,2.3H43.4c-1.3,0-2.3-1-2.3-2.3V11.1
				C41.1,9.8,42.1,8.8,43.4,8.8L43.4,8.8z M54.3,10.8c-0.5,0-0.8,0.4-0.8,0.8v2c0,0.5,0.4,0.8,0.8,0.8h2.1c0.5,0,0.8-0.4,0.8-0.8v-2
				c0-0.5-0.4-0.8-0.8-0.8H54.3L54.3,10.8z M57.2,16.5h-1.6c0.2,0.5,0.2,1,0.2,1.6c0,3-2.5,5.5-5.7,5.5c-3.1,0-5.7-2.5-5.7-5.5
				c0-0.5,0.1-1.1,0.2-1.6h-1.7v7.7c0,0.4,0.3,0.7,0.7,0.7h12.7c0.4,0,0.7-0.3,0.7-0.7L57.2,16.5L57.2,16.5z M50.2,14.3
				c-2,0-3.7,1.6-3.7,3.5c0,2,1.6,3.5,3.7,3.5c2,0,3.7-1.6,3.7-3.5S52.2,14.3,50.2,14.3z"/>
		</g>
	</g>
</g>
<g id="Layer_3">
</g>
<g id="Layer_4">
</g>
</svg>
