<?xml version="1.0" encoding="utf-8"?>
<!-- Generator: Adobe Illustrator 19.2.1, SVG Export Plug-In . SVG Version: 6.00 Build 0)  -->
<svg version="1.1" xmlns="http://www.w3.org/2000/svg" xmlns:xlink="http://www.w3.org/1999/xlink" x="0px" y="0px"
	 viewBox="0 0 262 165" enable-background="new 0 0 262 165" xml:space="preserve">
<g id="Layer_1">
</g>
<g id="Layer_2">
</g>
<g id="Layer_3">
</g>
<g id="Layer_4">
	<g>
		<g>
			<ellipse transform="matrix(0.9719 -0.2355 0.2355 0.9719 -20.3894 8.747)" fill="#E6E6E6" cx="26.4" cy="89.7" rx="7" ry="7"/>
			
				<ellipse transform="matrix(0.9719 -0.2355 0.2355 0.9719 -23.2201 5.2708)" fill="#E6E6E6" cx="10.5" cy="99.8" rx="4.9" ry="4.9"/>
			
				<ellipse transform="matrix(0.9719 -0.2355 0.2355 0.9719 -26.5388 4.1771)" fill="#E6E6E6" cx="4.2" cy="113.2" rx="3.4" ry="3.4"/>
		</g>
		<g>
			<g>
				<path fill="#E6E6E6" d="M212.5,99.4c-1.7-5.8-8-10.1-15.5-10.1c0,0-0.1,0-0.1,0v0c0-7.3-7.1-13.2-15.8-13.2c-6,0-11.3,2.8-14,7
					c-1.6-0.5-3.2-0.7-5-0.7c-8.2,0-14.9,5.6-14.9,12.4c0,0,0,0.1,0,0.1c-0.7-0.1-1.3-0.1-2-0.1c-9.3,0-16.9,6.3-16.9,14.1
					c0,7.8,7.6,14.1,16.9,14.1l61.9,0l0,0c8.1,0,14.6-5.5,14.6-12.2C221.7,105.5,217.8,101.2,212.5,99.4"/>
				<path fill="#E6E6E6" d="M212.5,141.4c-1.7,5.8-8,10.1-15.5,10.1c0,0-0.1,0-0.1,0v0c0,7.3-7.1,13.2-15.8,13.2c-6,0-11.3-2.8-14-7
					c-1.6,0.5-3.2,0.7-5,0.7c-8.2,0-14.9-5.6-14.9-12.4c0,0,0-0.1,0-0.1c-0.7,0.1-1.3,0.1-2,0.1c-9.3,0-16.9-6.3-16.9-14.1
					c0-7.8,7.6-14.1,16.9-14.1l61.9,0l0,0c8.1,0,14.6,5.5,14.6,12.2C221.7,135.2,217.8,139.6,212.5,141.4"/>
				<path fill="#E6E6E6" d="M177,99.4c1.7-5.8,8-10.1,15.5-10.1c0,0,0.1,0,0.1,0v0c0-7.3,7.1-13.2,15.8-13.2c6,0,11.3,2.8,14,7
					c1.6-0.5,3.2-0.7,5-0.7c8.2,0,14.9,5.6,14.9,12.4c0,0,0,0.1,0,0.1c0.7-0.1,1.3-0.1,2-0.1c9.3,0,16.9,6.3,16.9,14.1
					c0,7.8-7.6,14.1-16.9,14.1l-61.9,0l0,0c-8.1,0-14.6-5.5-14.6-12.2C167.8,105.5,171.6,101.2,177,99.4"/>
				<path fill="#E6E6E6" d="M177,141.4c1.7,5.8,8,10.1,15.5,10.1c0,0,0.1,0,0.1,0v0c0,7.3,7.1,13.2,15.8,13.2c6,0,11.3-2.8,14-7
					c1.6,0.5,3.2,0.7,5,0.7c8.2,0,14.9-5.6,14.9-12.4c0,0,0-0.1,0-0.1c0.7,0.1,1.3,0.1,2,0.1c9.3,0,16.9-6.3,16.9-14.1
					c0-7.8-7.6-14.1-16.9-14.1l-61.9,0l0,0c-8.1,0-14.6,5.5-14.6,12.2C167.8,135.2,171.6,139.6,177,141.4"/>
			</g>
			<g>
				<polygon fill="#FFFFFF" points="178.2,123.9 186.2,126.2 188.9,123.9 188.3,121.1 183.6,118.1 179.9,120.5 				"/>
				<polygon fill="#FFFFFF" points="202,123.9 198.9,123.1 197.9,117.2 201,115.1 208.3,116.1 209.3,121.8 206.9,123.8 				"/>
				<path fill="#FED800" d="M179.1,119.5l7.1-3.3l-3.7-8.2c0,0-3,1.1-4.3,1.1c-1.2,0-1.4,4.6-1.4,4.6l1,4.2L179.1,119.5z"/>
				<path fill="#6EC2E9" d="M187.3,146.2l-6.1-1.8l1.7-5.5c0,0,1.6-2.1,2.7-2c1.1,0,5.7-1.2,5.7-1.2l2,5.2c0,0-1.8,4-2.5,3.5
					c-0.7-0.4-2.7-2.4-2.7-2.4L187.3,146.2z"/>
				<polygon fill="#FFFFFF" points="194.6,142.7 202.3,144.5 207.4,138.3 205,134.4 199.6,134.4 194.9,138.7 				"/>
				<polygon fill="#FFFFFF" points="193.6,136.7 186.2,134.4 188,130.1 191.8,127.1 194.6,132.8 200.7,129.1 200,133.6 196.6,137.2 
									"/>
				<path fill="#FFFFFF" d="M178.7,138.5l4.3-2.3l4.4-4.1l-2.1-5c0,0-3.2-0.8-4-1c-0.8-0.2-2.8,6.2-2.8,6.2L178.7,138.5z"/>
				<polygon fill="#FFFFFF" points="208.2,132.3 208,132.4 204,134.4 201.5,132.3 198.9,129.1 200.1,124.5 207.4,124.5 208.7,128.2 
					209.3,130.5 				"/>
				<path fill="#FED800" d="M195.8,128.7l-6.4-2l1.1-6.2c0,0,3.9-1.8,4.5-1.6c0.6,0.2,4,3.3,4,3.3v3.9L195.8,128.7z"/>
				<path fill="#7F7F7F" d="M209.4,147.1h-32l0-0.4L173,98.2h41.4l0,0.5L209.4,147.1z M178.3,146.2h30.3l4.7-47H174L178.3,146.2z"/>
				<g>
					<defs>
						<polygon id="SVGID_11_" points="173.5,98.7 177.8,146.7 209,146.7 213.8,98.7 						"/>
					</defs>
					<clipPath id="SVGID_2_">
						<use xlink:href="#SVGID_11_"  overflow="visible"/>
					</clipPath>
					
						<rect x="193.5" y="103.4" transform="matrix(0.7071 -0.7071 0.7071 0.7071 -38.3199 176.6175)" clip-path="url(#SVGID_2_)" fill="#7F7F7F" width="1" height="62.3"/>
					
						<rect x="193.5" y="93.7" transform="matrix(0.7071 -0.7071 0.7071 0.7071 -31.4956 173.7906)" clip-path="url(#SVGID_2_)" fill="#7F7F7F" width="1" height="62.3"/>
					<polygon clip-path="url(#SVGID_2_)" fill="#7F7F7F" points="215.7,137.6 171.6,93.6 172.3,92.9 216.4,137 					"/>
					<polygon clip-path="url(#SVGID_2_)" fill="#7F7F7F" points="215.7,128 171.6,83.9 172.3,83.2 216.4,127.3 					"/>
					
						<rect x="193.5" y="132.3" transform="matrix(0.7071 -0.7072 0.7072 0.7071 -58.7908 185.1027)" clip-path="url(#SVGID_2_)" fill="#333333" width="1" height="62.3"/>
					
						<rect x="193.5" y="122.7" transform="matrix(0.7071 -0.7071 0.7071 0.7071 -51.9692 182.2663)" clip-path="url(#SVGID_2_)" fill="#7F7F7F" width="1" height="62.3"/>
					
						<rect x="193.5" y="113" transform="matrix(0.7071 -0.7071 0.7071 0.7071 -45.1455 179.4345)" clip-path="url(#SVGID_2_)" fill="#7F7F7F" width="1" height="62.3"/>
					
						<rect x="193.5" y="64.8" transform="matrix(0.7071 -0.7071 0.7071 0.7071 -11.024 165.3105)" clip-path="url(#SVGID_2_)" fill="#7F7F7F" width="1" height="62.3"/>
					
						<rect x="193.5" y="55.1" transform="matrix(0.7071 -0.7071 0.7071 0.7071 -4.2001 162.4829)" clip-path="url(#SVGID_2_)" fill="#7F7F7F" width="1" height="62.3"/>
					
						<rect x="162.9" y="130.2" transform="matrix(0.708 -0.7062 0.7062 0.708 -35.6505 175.1714)" clip-path="url(#SVGID_2_)" fill="#7F7F7F" width="62.3" height="1"/>
					
						<rect x="162.9" y="120.6" transform="matrix(0.7071 -0.7071 0.7071 0.7071 -28.7697 172.6499)" clip-path="url(#SVGID_2_)" fill="#7F7F7F" width="62.3" height="1"/>
					
						<rect x="162.9" y="110.9" transform="matrix(0.706 -0.7082 0.7082 0.706 -21.8514 170.1671)" clip-path="url(#SVGID_2_)" fill="#7F7F7F" width="62.3" height="1"/>
					
						<rect x="162.9" y="101.3" transform="matrix(0.7062 -0.708 0.708 0.7062 -15.035 167.2745)" clip-path="url(#SVGID_2_)" fill="#7F7F7F" width="62.3" height="1"/>
					
						<rect x="162.9" y="159.2" transform="matrix(0.7071 -0.7071 0.7071 0.7071 -56.0651 183.9561)" clip-path="url(#SVGID_2_)" fill="#7F7F7F" width="62.3" height="1"/>
					<polygon clip-path="url(#SVGID_2_)" fill="#7F7F7F" points="172.3,172.4 171.6,171.7 215.7,127.6 216.4,128.3 					"/>
					
						<rect x="162.9" y="139.9" transform="matrix(0.7069 -0.7073 0.7073 0.7069 -42.4065 178.3654)" clip-path="url(#SVGID_2_)" fill="#7F7F7F" width="62.3" height="1"/>
					
						<rect x="162.9" y="91.6" transform="matrix(0.7071 -0.7071 0.7071 0.7071 -8.2973 164.17)" clip-path="url(#SVGID_2_)" fill="#7F7F7F" width="62.3" height="1"/>
					
						<rect x="162.9" y="82" transform="matrix(0.7069 -0.7073 0.7073 0.7069 -1.4533 161.3957)" clip-path="url(#SVGID_2_)" fill="#7F7F7F" width="62.3" height="1"/>
				</g>
			</g>
		</g>
		<g>
			<g>
				<path fill="#E6E6E6" d="M110.7,24.8c-1.8-6.1-8.4-10.6-16.3-10.6c0,0-0.1,0-0.1,0v0c0-7.7-7.4-13.9-16.6-13.9
					c-6.3,0-11.9,3-14.7,7.3c-1.6-0.5-3.4-0.8-5.3-0.8c-8.6,0-15.6,5.8-15.6,13c0,0,0,0.1,0,0.1c-0.7-0.1-1.4-0.1-2.1-0.1
					c-9.8,0-17.7,6.6-17.7,14.8c0,8.2,7.9,14.8,17.7,14.8l65,0l0,0c8.5,0,15.4-5.7,15.4-12.8C120.4,31.2,116.4,26.6,110.7,24.8"/>
				<path fill="#E6E6E6" d="M110.7,68.9c-1.8,6.1-8.4,10.6-16.3,10.6c0,0-0.1,0-0.1,0v0c0,7.7-7.4,13.9-16.6,13.9
					c-6.3,0-11.9-3-14.7-7.3c-1.6,0.5-3.4,0.8-5.3,0.8c-8.6,0-15.6-5.8-15.6-13c0,0,0-0.1,0-0.1c-0.7,0.1-1.4,0.1-2.1,0.1
					c-9.8,0-17.7-6.6-17.7-14.8c0-8.2,7.9-14.8,17.7-14.8l65,0l0,0c8.5,0,15.4,5.7,15.4,12.8C120.4,62.4,116.4,67,110.7,68.9"/>
				<path fill="#E6E6E6" d="M73.5,24.8c1.8-6.1,8.4-10.6,16.3-10.6c0,0,0.1,0,0.1,0v0c0-7.7,7.4-13.9,16.6-13.9
					c6.3,0,11.9,3,14.7,7.3c1.6-0.5,3.4-0.8,5.3-0.8c8.6,0,15.6,5.8,15.6,13c0,0,0,0.1,0,0.1c0.7-0.1,1.4-0.1,2.1-0.1
					c9.8,0,17.7,6.6,17.7,14.8c0,8.2-7.9,14.8-17.7,14.8l-65,0l0,0c-8.5,0-15.4-5.7-15.4-12.8C63.8,31.2,67.8,26.6,73.5,24.8"/>
				<path fill="#E6E6E6" d="M73.5,68.9c1.8,6.1,8.4,10.6,16.3,10.6c0,0,0.1,0,0.1,0v0c0,7.7,7.4,13.9,16.6,13.9
					c6.3,0,11.9-3,14.7-7.3c1.6,0.5,3.4,0.8,5.3,0.8c8.6,0,15.6-5.8,15.6-13c0,0,0-0.1,0-0.1c0.7,0.1,1.4,0.1,2.1,0.1
					c9.8,0,17.7-6.6,17.7-14.8c0-8.2-7.9-14.8-17.7-14.8l-65,0l0,0c-8.5,0-15.4,5.7-15.4,12.8C63.8,62.4,67.8,67,73.5,68.9"/>
			</g>
			<g>
				<path fill="#008372" d="M64.2,21.6l-2.1,7.7h-1.4l-1.5-5.4c-0.1-0.2-0.1-0.5-0.1-0.8h0c0,0.3-0.1,0.5-0.1,0.7l-1.5,5.4H56
					l-2.2-7.7h1.4l1.4,5.6c0.1,0.2,0.1,0.5,0.1,0.7h0c0-0.2,0.1-0.4,0.2-0.7l1.6-5.6h1.3l1.5,5.7c0.1,0.2,0.1,0.4,0.1,0.7h0
					c0-0.2,0.1-0.4,0.1-0.7l1.4-5.7H64.2z"/>
				<path fill="#008372" d="M68.5,29.4c-1.1,0-2-0.4-2.7-1.1s-1-1.7-1-2.8c0-1.2,0.3-2.2,1-3c0.7-0.7,1.6-1.1,2.8-1.1
					c1.1,0,2,0.4,2.6,1.1c0.7,0.7,1,1.7,1,2.8c0,1.3-0.3,2.3-1,3S69.6,29.4,68.5,29.4z M68.5,22.6c-0.7,0-1.3,0.3-1.7,0.8
					s-0.7,1.2-0.7,2.1c0,0.9,0.2,1.5,0.6,2.1c0.4,0.5,1,0.8,1.7,0.8c0.7,0,1.3-0.2,1.7-0.7c0.4-0.5,0.6-1.2,0.6-2.1
					c0-0.9-0.2-1.6-0.6-2.1C69.8,22.8,69.3,22.6,68.5,22.6z"/>
				<path fill="#008372" d="M79.6,29.3h-1.5l-1.2-2.1c-0.1-0.2-0.2-0.4-0.3-0.5c-0.1-0.1-0.2-0.2-0.3-0.3s-0.2-0.1-0.4-0.2
					c-0.1,0-0.3-0.1-0.4-0.1h-0.5v3.1h-1.3v-7.7h2.5c0.4,0,0.7,0,1,0.1c0.3,0.1,0.6,0.2,0.8,0.4c0.2,0.2,0.4,0.4,0.5,0.6
					s0.2,0.6,0.2,0.9c0,0.3,0,0.5-0.1,0.8c-0.1,0.2-0.2,0.4-0.3,0.6c-0.1,0.2-0.3,0.3-0.5,0.5c-0.2,0.1-0.4,0.2-0.7,0.3v0
					c0.1,0.1,0.3,0.2,0.4,0.3c0.1,0.1,0.2,0.2,0.3,0.3c0.1,0.1,0.2,0.2,0.3,0.3c0.1,0.1,0.2,0.3,0.3,0.4L79.6,29.3z M74.9,22.6v2.5
					H76c0.2,0,0.4,0,0.5-0.1c0.2-0.1,0.3-0.1,0.4-0.3c0.1-0.1,0.2-0.3,0.3-0.4c0.1-0.2,0.1-0.3,0.1-0.6c0-0.4-0.1-0.7-0.3-0.9
					c-0.2-0.2-0.6-0.3-1-0.3H74.9z"/>
				<path fill="#008372" d="M86.3,29.3h-1.7l-2.7-3.5c-0.1-0.1-0.2-0.2-0.2-0.3h0v3.8h-1.3v-7.7h1.3v3.6h0c0-0.1,0.1-0.2,0.2-0.3
					l2.6-3.4h1.5l-3,3.7L86.3,29.3z"/>
				<path fill="#008372" d="M90.2,29.3v-7.7h2.2c2.8,0,4.3,1.3,4.3,3.8c0,1.2-0.4,2.1-1.2,2.9c-0.8,0.7-1.8,1.1-3.2,1.1H90.2z
					 M91.5,22.7v5.5h1c0.9,0,1.6-0.2,2.1-0.7c0.5-0.5,0.7-1.2,0.7-2.1c0-1.8-0.9-2.7-2.8-2.7H91.5z"/>
				<path fill="#008372" d="M104.3,29.3h-1.4l-0.7-2h-3l-0.7,2h-1.4l2.9-7.7h1.4L104.3,29.3z M101.8,26.3l-1.1-3.1
					c0-0.1-0.1-0.3-0.1-0.5h0c0,0.2-0.1,0.4-0.1,0.5l-1.1,3.1H101.8z"/>
				<path fill="#008372" d="M109.5,22.7h-2.2v6.6H106v-6.6h-2.2v-1.1h5.7V22.7z"/>
				<path fill="#008372" d="M116.1,29.3h-1.4l-0.7-2h-3l-0.7,2h-1.4l2.9-7.7h1.4L116.1,29.3z M113.7,26.3l-1.1-3.1
					c0-0.1-0.1-0.3-0.1-0.5h0c0,0.2-0.1,0.4-0.1,0.5l-1.1,3.1H113.7z"/>
			</g>
			<g>
				<path fill="#008372" d="M115,64.7h6.7l-0.6-1.5c0,0-0.1-0.2-0.3-0.2h-4.9c0,0-0.2,0-0.3,0.2L115,64.7z"/>
				<path fill="#008372" d="M121.6,66.1c0,0,0-0.4-0.4-0.4h-2.8h-7.5H108c-0.4,0-0.4,0.4-0.4,0.4l0,7.9c0,0.4,0.4,0.4,0.4,0.4h2.8
					h7.5h2.8c0,0,0.4,0,0.4-0.4L121.6,66.1z"/>
			</g>
			<g id="outlook_11_">
				<path fill="#008372" d="M70.6,50.8c0-0.5-0.6-0.6-1-0.6c-2.1,0-4.2,0-6.3,0c0-1.4,0-2.7,0-4v-0.2c-3.1,0.5-7.4,1.3-10.5,1.9
					c0,4.7,0,9.4,0,14.2c3.1,0.5,7.4,1.2,10.5,1.8v-0.2c0-1.3,0-2.6,0-3.8c2.2,0,4.4,0,6.7,0c0.6,0,0.6-0.7,0.6-1.2
					C70.6,56,70.7,53.4,70.6,50.8z M59.4,57.6c-1.2,1-3.2,0.4-3.8-1c-0.7-1.7-0.4-4.3,1.6-5c1.1-0.4,2.5,0.2,3,1.3
					C60.8,54.4,60.7,56.4,59.4,57.6z M70,59.1c-2.2,0-4.4,0-6.7,0c0-1.8,0-3.5,0-5.3c0.7,0.7,1.4,1.4,2.2,2c0.3,0.1,0.6-0.2,0.8-0.4
					c1.2-1.2,2.4-2.3,3.7-3.5C70,54.4,70,56.7,70,59.1z M69.7,51.5c-1.3,1.3-2.7,2.5-4,3.8c-0.8-0.7-1.6-1.5-2.4-2.2
					c0-0.7,0-1.5,0-2.2c2.2,0,4.5,0,6.7,0C70,51.1,69.9,51.3,69.7,51.5z"/>
				<path fill="#008372" d="M57.3,52.8c0.5-0.3,1.2,0,1.5,0.5c0.4,0.8,0.4,1.8,0.1,2.6c-0.2,0.6-0.8,1.1-1.5,0.9
					c-0.8-0.2-1-1.2-1.1-1.9C56.4,54.1,56.6,53.1,57.3,52.8z"/>
			</g>
			<path fill="#008372" d="M132.4,43.4l-1.7,1.6v7.9h1.7V43.4z M130.2,45.4l-1.7,1.6v5.9h1.7V45.4z M128,47.2l-1.7-1.8v7.5h1.7V47.2
				z M125.5,44.4l-1.3,1.2v7.3h1.7v-8L125.5,44.4z M123.7,46l-1.7,1.6v5.3h1.7V46z M121.5,48l-1.7,1.6v3.3h1.7V48z M133.4,41.1
				l1.1,1.1v-3.6H131l1.3,1.3l-0.1-0.1l-4.3,3.8l-1.8-1.9l0,0l-0.8-0.9l-5.5,4.9v2.5l5.6-5.2l1.4,1.5l0,0l1.3,1.4l0,0l0,0l0,0
				L133.4,41.1z M134.6,52.9v-9.2l-1.1-1.2l-0.6,0.5v9.9H134.6z"/>
			<g>
				<path fill="#00B193" stroke="#E6E6E6" stroke-width="0.4758" stroke-miterlimit="10" d="M91.9,53.5l5.1,5.1
					c0.4-0.4,0.8-1,1.2-1.5L91.9,53.5z"/>
				<path fill="#008372" stroke="#E6E6E6" stroke-width="0.4758" stroke-miterlimit="10" d="M91.9,53.5l1.6,7.1
					c1.4-0.3,2.5-0.9,3.5-1.9L91.9,53.5z"/>
				<path fill="#00B193" stroke="#E6E6E6" stroke-width="0.4758" stroke-miterlimit="10" d="M91.9,53.5L85,51.2
					c-1.2,3.8,0.8,7.9,4.7,9.2c1.3,0.4,2.5,0.5,3.9,0.2L91.9,53.5z"/>
				<path fill="#008372" stroke="#E6E6E6" stroke-width="0.4758" stroke-miterlimit="10" d="M91.9,53.5l-4.3-5.9
					c-1.3,0.9-2.2,2.1-2.6,3.6L91.9,53.5z"/>
				<path fill="#00B193" stroke="#E6E6E6" stroke-width="0.4758" stroke-miterlimit="10" d="M91.9,53.5l6.3-3.6
					c-2-3.5-6.5-4.7-9.9-2.7c-0.2,0.1-0.4,0.3-0.6,0.4L91.9,53.5z"/>
				<path fill="#008372" stroke="#E6E6E6" stroke-width="0.4758" stroke-miterlimit="10" d="M91.9,53.5l6.3,3.6
					c1.4-2.3,1.4-4.9,0-7.3L91.9,53.5z"/>
			</g>
		</g>
		<g>
			<g>
				<path fill="none" stroke="#00B193" stroke-width="0.75" stroke-miterlimit="10" stroke-dasharray="2,2" d="M139.4,62
					c16.5,0.6,29.1,7.2,39.9,26.6"/>
				<g>
					<polygon fill="#00B193" points="175.8,88.1 178.8,87.9 180.7,85.5 181.4,92.6 					"/>
				</g>
			</g>
		</g>
	</g>
</g>
</svg>
