<?xml version="1.0" encoding="utf-8"?>
<!-- Generator: Adobe Illustrator 19.2.1, SVG Export Plug-In . SVG Version: 6.00 Build 0)  -->
<svg version="1.1" xmlns="http://www.w3.org/2000/svg" xmlns:xlink="http://www.w3.org/1999/xlink" x="0px" y="0px"
	 viewBox="0 0 744 452" enable-background="new 0 0 744 452" xml:space="preserve">
<g id="Layer_1">
</g>
<g id="Layer_2">
</g>
<g id="Layer_3">
</g>
<g id="Layer_4">
	<g>
		<path fill="#B8D433" d="M214.9,219.6c0,12.8-10.3,23.1-23.1,23.1c-12.8,0-23.1-10.3-23.1-23.1c0-12.8,10.3-23.1,23.1-23.1
			C204.6,196.4,214.9,206.8,214.9,219.6"/>
		<polygon fill="#A98864" points="194.4,235.8 193.8,228.1 206,211.5 193.5,224 193,216.9 199.8,207.6 192.8,214.6 191.9,202 
			191.1,214.6 184,207.6 190.9,217 190.5,224.2 177.8,211.5 190.2,228.5 189.7,236.1 181.1,227.5 189.6,239 188.4,257.2 196,257.2 
			194.6,238.5 202.7,227.5 		"/>
		<path fill="#B8D433" d="M234.2,232c0,8-6.5,14.5-14.5,14.5c-8,0-14.5-6.5-14.5-14.5c0-8,6.5-14.5,14.5-14.5
			C227.7,217.5,234.2,224,234.2,232"/>
		<polygon fill="#A98864" points="221.3,242.2 221,237.4 228.6,227 220.8,234.8 220.4,230.3 224.7,224.5 220.3,228.9 219.7,220.9 
			219.2,228.9 214.8,224.5 219.1,230.4 218.9,234.9 210.9,227 218.7,237.6 218.4,242.4 213,237 218.3,244.2 217.6,255.6 
			222.4,255.6 221.5,243.9 226.5,237 		"/>
		<path fill="#B8D433" d="M214.9,219.6c0,12.8-10.3,23.1-23.1,23.1c-12.8,0-23.1-10.3-23.1-23.1c0-12.8,10.3-23.1,23.1-23.1
			C204.6,196.4,214.9,206.8,214.9,219.6"/>
		<polygon fill="#A98864" points="194.4,235.8 193.8,228.1 206,211.5 193.5,224 193,216.9 199.8,207.6 192.8,214.6 191.9,202 
			191.1,214.6 184,207.6 190.9,217 190.5,224.2 177.8,211.5 190.2,228.5 189.7,236.1 181.1,227.5 189.6,239 188.4,257.2 196,257.2 
			194.6,238.5 202.7,227.5 		"/>
	</g>
	<path opacity="0.1" d="M596.1,402.2c-0.5,0-0.9,0.1-1.3,0.1v-0.1l-212.7,0v0.1c-5.3,0.5-9.5,4.2-9.5,8.6c0,4.8,4.8,8.7,10.8,8.7
		c0.8,0,212,0,212.7,0c6,0,10.8-3.9,10.8-8.7C606.9,406.1,602,402.2,596.1,402.2"/>
	
		<line fill="none" stroke="#BBBDBF" stroke-width="15.0251" stroke-linecap="round" stroke-miterlimit="10" x1="422" y1="32.3" x2="253" y2="419.6"/>
	<path fill="#7F7F7F" d="M432.3,399h30.8c-2.7,0.2-4.8,2.5-4.8,5.3c0,2.9,2.4,5.3,5.3,5.3c2.9,0,5.3-2.4,5.3-5.3
		c0-2.8-2.1-5-4.8-5.3h1.2v0h5.1c0,0,3.2,0,3.2-3.2V393c0,0,0-3.2-3.2-3.2h-29.6v-29.5h29.6c3.2,0,3.2-3.2,3.2-3.2v-11.4
		c0-3.2-3.2-3.2-3.2-3.2h-35.3v-24.4h23.7c3.2,0,3.2-3.2,3.2-3.2V271c0-3.2-3.2-3.2-3.2-3.2h-49.4h-7.4c-3.2,0-3.2,3.2-3.2,3.2v44.1
		c0,3.2,3.2,3.2,3.2,3.2h7.4h7.5v24.4h-14.9c-3.2,0-3.2,3.2-3.2,3.2v11.4c0,3.2,3.2,3.2,3.2,3.2h17.3h14.2v19.4h-3.3v10.1h-28.3
		c0,0-3.2,0-3.2,3.2v2.8c0,0,0,3.2,3.2,3.2h4.1h2.9v0h19.6H432.3 M430.4,399.2c-0.3-0.1-0.5-0.1-0.8-0.2h1.7
		C431,399,430.7,399.1,430.4,399.2"/>
	<path fill="#7F7F7F" d="M400.9,404.3c0,2.9,2.4,5.3,5.3,5.3c2.9,0,5.3-2.4,5.3-5.3c0-2.9-2.4-5.3-5.3-5.3
		C403.2,399,400.9,401.3,400.9,404.3"/>
	<polygon fill="#672A7A" points="512.7,406.2 501,394.5 485.5,394.5 485.5,409.5 512.7,409.5 	"/>
	<polygon fill="#672A7A" points="409.5,328.2 409.5,342.7 485.5,342.7 485.5,394.5 500.8,394.5 500.9,328.2 	"/>
	<rect x="464.2" y="328.7" fill="#672A7A" width="15.3" height="65.8"/>
	<polygon fill="#672A7A" points="491.4,406.2 479.7,394.5 464.2,394.5 464.2,409.5 491.4,409.5 	"/>
	<path fill="#F89420" d="M486.1,327.4c0.1,0.1,0.1,0.1,0.1,0.2c2.2,2.2,5.7,2.3,7.9,0.2c2.2-2.1,2.2-5.7,0.1-7.9
		c-0.1-0.1-0.1-0.1-0.2-0.1l0,0l-4.1-4.2l-8,7.8L486.1,327.4L486.1,327.4z"/>
	<path fill="#9C4F96" d="M482.1,325.8l10.9-10.7c-16.4-16.8-18.6-35.2-20.5-50.1c-1.3-10.4-2.4-19.3-8.2-25.3l-10.9,10.7
		c2.2,2.3,3.1,9.2,3.9,16.5C459.4,283.2,462.1,305.4,482.1,325.8z"/>
	<path fill="#672A7A" d="M453.5,250.4l3.5-3.4c2.5,5.9,3.4,13,4.3,20.9c2,16.6,4.5,37.2,22.8,55.9l-2,2
		c-20-20.4-22.7-42.7-24.7-58.9C456.5,259.6,455.7,252.7,453.5,250.4z"/>
	<path fill="#9C4F96" d="M446.8,328.7l2.8,5.9l17.4,0.4l-4.2-81.3l1.4-14l-17.8-6.1H430l-15.9,3.9l-6.3,97.6l0,0l8.8-0.1l25.4,0
		L446.8,328.7z"/>
	<path fill="#F89420" d="M447.5,225.3l-3.9-1.4l-1.3,3.2l-12.4-1.9l1,13.5l12.1,9.7l2.1-16.2C445.2,230.2,444.4,226.2,447.5,225.3"
		/>
	<polygon fill="#672A7A" points="428.1,232.3 432.3,232.3 438.4,256.1 445.6,232.3 448.6,232.3 451.6,242.4 449.4,244.6 
		451.6,246.8 438.4,288.1 425.1,246.8 427.3,244.6 425.1,242.4 	"/>
	<polygon fill="#FFFFFF" points="434.7,233.6 438.3,243.5 443,233.6 446.8,230.5 446.8,238.5 438.4,272.6 429.9,238.5 429.9,230.5 	
		"/>
	<polygon fill="#672A7A" points="413.7,320.8 431.5,315 431.5,310.2 413.7,315.9 	"/>
	<polygon fill="#672A7A" points="466.2,317.6 458.2,315 458.2,310.2 465.8,312.6 	"/>
	<polygon fill="#9C4F96" points="427.3,244.6 438.4,256.1 451.6,242.4 459.3,244.7 452.4,298.3 422.6,297.6 417.7,245.9 	"/>
	<polygon fill="#9A8D78" points="445.9,200.5 456.4,212.3 448.8,216 	"/>
	<path fill="#010101" d="M442,206.7c0.3,0.5,0,1.2-0.5,1.5c-0.5,0.3-1.2,0-1.4-0.5c-0.3-0.5,0-1.2,0.5-1.5
		C441.1,206,441.7,206.2,442,206.7"/>
	<polygon fill="#F89420" points="445.9,200.5 456.4,212.3 448.8,216 	"/>
	<path fill="#F89420" d="M417,202.9l8.3,17.3l0.1,0c6.9,12.5,19.4,11.3,32.3,5l-0.6-1.2l-4.7-9.8l-5.9-12.3l-5.2-10.8L417,202.9"/>
	<path fill="#FFD566" d="M441.3,191.1l-0.2,0.1L441.3,191.1c-2.9-6.6-13.6-7.4-17.4-1.9c-1.2,1.7-2.1,2.6-4,3.5
		c-1.5,0.7-2.6,1.5-3.6,2.9c-0.8,1.2-0.7,3.4,0,5.2c-8.7,5.3,12.4,24.1,12.4,24.1c4.5-7.2-0.6-17.3-0.6-17.3
		c0.1-0.3,0.3-0.5,0.4-0.8c1.1-3,2.9-3.2,5.6-4.7C437.5,200.3,442,195.3,441.3,191.1"/>
	<path fill="#F89420" d="M428.2,207.6c-3,1.5-4.3,5.1-2.8,8.1c1.4,3,5.1,4.3,8.1,2.8L428.2,207.6"/>
	<polyline fill="#D17E29" points="432.2,215.9 429.5,210.4 429.5,210.4 432.2,215.9 432.2,215.9 	"/>
	<path fill="#D6751E" d="M430.8,216.2c-1.1,0-2.2-0.6-2.7-1.7c-0.7-1.5-0.1-3.3,1.4-4.1l2.6,5.5
		C431.7,216.1,431.3,216.2,430.8,216.2"/>
	<g>
		<rect x="431" y="272.6" fill="#FFFFFF" width="2.6" height="12.6"/>
		<polygon fill="#FFFFFF" points="445.4,274.7 441.8,274.7 441.8,285.2 439.1,285.2 439.1,274.7 435.4,274.7 435.4,272.6 
			445.4,272.6 		"/>
		<path fill="#FFFFFF" d="M449.6,285.7l-12.1,7.1l-12.4-7.1v-13.9l12.1-7.1l12.4,7.1V285.7z M437.3,262.3l-14.2,8.2V287l14.5,8.2
			l14.2-8.2v-16.6L437.3,262.3z"/>
	</g>
	<g>
		<g>
			<rect x="461.6" y="273.4" fill="#0A72BA" width="71.2" height="6.9"/>
			<rect x="486.5" y="239.3" fill="#0A72BA" width="46.3" height="36.7"/>
			<rect x="461.6" y="273.4" fill="#0556A5" width="28.9" height="6.9"/>
			<rect x="486.5" y="239.3" fill="#0556A5" width="4.1" height="34.1"/>
			<rect x="509.6" y="259.5" fill="#233E7B" width="5.9" height="5.9"/>
		</g>
		<g>
			<rect x="478.3" y="292.6" fill="#7F7F7F" width="10.9" height="120.5"/>
			<polygon fill="#4F504F" points="489.2,413.1 483.8,413.1 483.8,292.6 483.6,292.6 489.2,292.6 489.2,328.2 489.2,394.5 
				489.2,404.1 489.2,409.5 			"/>
			<rect x="580.2" y="292.6" fill="#7F7F7F" width="10.9" height="120.5"/>
			<rect x="525.7" y="292.6" fill="#7F7F7F" width="10.9" height="120.5"/>
			<rect x="457.8" y="280.2" fill="#7F7F7F" width="143.2" height="12.4"/>
			<polygon fill="#4F504F" points="590.9,413.1 585.5,413.1 585.5,292.6 580.2,292.6 591,292.6 590.9,292.6 			"/>
			<rect x="545.7" y="292.6" fill="#7F7F7F" width="10.9" height="120.5"/>
			<polygon fill="#4F504F" points="556.4,413.1 551,413.1 551,292.6 545.7,292.6 556.6,292.6 556.4,292.6 			"/>
			<polygon fill="#4F504F" points="536.5,413.1 531.1,413.1 531.1,292.6 525.7,292.6 536.6,292.6 536.5,292.6 			"/>
			<polygon fill="#7F7F7F" points="589.3,292.6 589.3,292.6 584.8,292.6 566.9,292.6 562.4,292.6 540.2,292.6 517.4,292.6 
				502.5,292.6 500.2,292.6 500.2,280.2 589.3,280.2 			"/>
		</g>
	</g>
	<path fill="none" stroke="#17244E" stroke-width="0.6266" stroke-miterlimit="10" d="M439.3,208.6c0,0-0.6-1,0.8-2.2
		s2.7-0.1,2.7-0.1"/>
	<g>
		<path fill="#F89420" d="M404.9,325.4c0.1,0.1,0.1,0.1,0.1,0.2c2.2,2.2,5.7,2.3,7.9,0.2c2.2-2.1,2.2-5.7,0.1-7.9
			c-0.1-0.1-0.1-0.1-0.2-0.1l0,0l-4.1-4.2l-8,7.8L404.9,325.4L404.9,325.4z"/>
		<g>
			<path fill="#9C4F96" d="M400.8,323.8l13.3-10.3c-5.5-5.7-10.8-19.1-10.9-27c-0.1-11.8,8.8-30.9,19.3-36.2l-2.5-13.5
				c-0.6,0.3-5.5,0.5-6,0.8c-14.8,8.2-24.9,31.9-24.8,48.9C389.3,298.3,392.6,315.2,400.8,323.8z"/>
		</g>
	</g>
</g>
</svg>
