<?xml version="1.0" encoding="utf-8"?>
<!-- Generator: Adobe Illustrator 19.2.1, SVG Export Plug-In . SVG Version: 6.00 Build 0)  -->
<svg version="1.1" xmlns="http://www.w3.org/2000/svg" xmlns:xlink="http://www.w3.org/1999/xlink" x="0px" y="0px"
	 viewBox="0 0 744 452" enable-background="new 0 0 744 452" xml:space="preserve">
<g id="Layer_1">
	<path opacity="0.1" d="M252.1,404c0.5,0,0.9,0.1,1.4,0.1V404l54.3,0l185.8,0.1c5.5,0.5,9.8,4.3,9.8,8.9c0,5-5,9-11.1,9
		c-0.8,0-239.3,0-240.1,0c-6.1,0-11.1-4-11.1-9C241,408,246,404,252.1,404"/>
	<g>
		<g>
			<path fill="#FDB813" d="M260.9,276c-0.1,0.1-0.1,0.1-0.2,0.2c-2.4,2.5-6.4,2.6-8.9,0.2c-2.5-2.4-2.5-6.4-0.1-8.9
				c0.1-0.1,0.1-0.1,0.2-0.2l0,0l4.6-4.7l9,8.7L260.9,276L260.9,276z"/>
			<ellipse fill="#F58B21" cx="317.5" cy="131" rx="23.8" ry="25.7"/>
			<path fill="#3176BB" d="M265.7,273.7l-12.2-11.9c18.4-18.8,20.9-39.5,22.9-56.1c1.4-11.6,2.6-21.7,9.2-28.4l12.2,11.9
				c-2.5,2.5-3.4,10.3-4.4,18.5C291.2,225.9,288.1,250.8,265.7,273.7z"/>
			<path fill="#1EA3DD" d="M297.8,189.2l-3.9-3.8c-2.8,6.6-3.8,14.6-4.9,23.4c-2.3,18.6-5.1,41.7-25.6,62.7l2.2,2.2
				c22.4-22.9,25.5-47.8,27.7-66C294.4,199.5,295.3,191.8,297.8,189.2z"/>
			<path fill="#3176BB" d="M343.3,399.5L339.2,284l9.9,0.1l0,0l-13.4-52.6l6.4-56.8l-17.9-4.3h-18.6l-19.9,6.9l1.6,15.7l8.4,40.1
				l-13.1,51.1l8.5,0.9l-4.4,118.4l-23.5,4.9v10.1h24.8l2.9-3.1h5.9v3.1h4.5h4.1h20.7l2.9-3.1h5.9v3.1h8.6v-10.1v-8.6l0.2-0.2
				L343.3,399.5z M305.2,407.4v-7.7l0.2-0.2l-0.2,0l9.5-107.6h2.8l7.2,111.5L305.2,407.4z"/>
			<path fill="#FDB813" d="M323.8,140.8c0-13.5-10.9-19.2-24.3-19.2l-6.1,24.7h4.3l2.7,13.3c1.3,0.2-1.4,0.4,0,0.4
				c2.5,0,4.9-0.4,7.2-1.1l-0.9,11.6l6.1,26.3l8.8-26.3V151C323,147.9,323.8,144.5,323.8,140.8z"/>
			<circle fill="#17244E" cx="299.2" cy="139.1" r="1"/>
			<g>
				<path fill="#1EA3DD" d="M343.3,399.5l0.2-115.5l-23.7-0.9l-4.6-17.7l-2.8,18.9l-25.2,0.8l-0.7,118.4l-23.5,4.9v10.1h24.8
					l2.9-3.1h5.9v3.1h4.5h4.1h20.7l2.9-3.1h5.9v3.1h8.6v-10.1v-8.6l0.2-0.2L343.3,399.5z M305.2,407.4v-7.7l0.2-0.2l-0.2,0
					l9.5-107.6h2.8l7.2,111.5L305.2,407.4z"/>
			</g>
			<path fill="#FDB813" d="M350,256.8c-0.1,0.1-0.1,0.1-0.2,0.2c-2.4,2.5-6.4,2.6-8.9,0.2c-2.5-2.4-2.5-6.4-0.1-8.9
				c0.1-0.1,0.1-0.1,0.2-0.2l0,0l4.6-4.7l9,8.7L350,256.8L350,256.8z"/>
			<polygon fill="#1EA3DD" points="326.2,168.9 321.6,168.9 314.7,195.6 306.6,168.9 303.3,168.9 299.9,180.2 302.4,182.7 
				299.9,185.2 314.7,231.5 329.6,185.2 327.1,182.7 329.6,180.2 			"/>
			<polygon fill="#FFFFFF" points="318.9,170.3 314.8,181.4 309.5,170.3 305.2,166.9 305.2,175.8 314.7,214 324.3,175.8 
				324.3,166.9 			"/>
			<g>
				<path fill="#3176BB" d="M354.1,255.5l-12.3-11.9c6.1-6.4,9.6-14.8,9.6-23.6c0.1-13.2-7.2-25.1-19-31l2.8-15.1
					c0.6,0.3,6.1,0.5,6.8,0.9c16.6,9.2,26.7,26.4,26.5,45.4C368.4,233.4,363.3,246,354.1,255.5z"/>
			</g>
			<polygon fill="#1EA3DD" points="341.1,266.9 321.2,260.5 321.2,255 341.1,261.5 			"/>
			<polygon fill="#1EA3DD" points="290.6,266.9 310.5,260.5 310.5,255 290.6,261.5 			"/>
			<circle fill="#008372" cx="314.7" cy="246.2" r="2"/>
			<path fill="#F58B21" d="M296.1,122.4c4.5-4.7,11.2-7.2,18.1-6.1c11.1,1.8,18.7,12.3,16.8,23.4c-0.6,3.6-4.7,10.7-6.8,13.3
				c-0.2,0-10.5-1.9-8.5-17.3C315.8,135.7,302.2,133.7,296.1,122.4"/>
		</g>
		<g>
			<path fill="#FDB813" d="M483.5,276c0.1,0.1,0.1,0.1,0.2,0.2c2.4,2.5,6.4,2.6,8.9,0.2c2.5-2.4,2.5-6.4,0.1-8.9
				c-0.1-0.1-0.1-0.1-0.2-0.2l0,0l-4.6-4.7l-9,8.7L483.5,276L483.5,276z"/>
			<ellipse fill="#F58B21" cx="426.9" cy="131" rx="23.8" ry="25.7"/>
			<path fill="#3176BB" d="M478.7,273.7l12.2-11.9C472.5,243,470,222.3,468,205.6c-1.4-11.6-2.6-21.7-9.2-28.4l-12.2,11.9
				c2.5,2.5,3.4,10.3,4.4,18.5C453.3,225.9,456.3,250.8,478.7,273.7z"/>
			<path fill="#1EA3DD" d="M446.6,189.2l3.9-3.8c2.8,6.6,3.8,14.6,4.9,23.4c2.3,18.6,5.1,41.7,25.6,62.7l-2.2,2.2
				c-22.4-22.9-25.5-47.8-27.7-66C450,199.5,449.1,191.8,446.6,189.2z"/>
			<path fill="#3176BB" d="M400.9,399.5l0.2,0.2v8.6v10.1h8.6v-3.1h5.9l2.9,3.1h20.7h4.1h4.5v-3.1h5.9l2.9,3.1h24.8v-10.1l-23.5-4.9
				L453.4,285l8.5-0.9L448.8,233l8.4-40.1l1.6-15.7l-19.9-6.9h-18.6l-17.9,4.3l6.4,56.8l-13.4,52.6l0,0l9.9-0.1l-4.1,115.5
				L400.9,399.5z M419.8,403.4l7.2-111.5h2.8l9.5,107.6l-0.2,0l0.2,0.2v7.7L419.8,403.4z"/>
			<path fill="#FDB813" d="M420.6,140.8c0-13.5,10.9-19.2,24.3-19.2l6.1,24.7h-4.3l-2.7,13.3c-1.3,0.2,1.4,0.4,0,0.4
				c-2.5,0-4.9-0.4-7.2-1.1l0.9,11.6l-6.1,26.3l-8.8-26.3V151C421.4,147.9,420.6,144.5,420.6,140.8z"/>
			<circle fill="#17244E" cx="445.2" cy="139.1" r="1"/>
			<g>
				<path fill="#1EA3DD" d="M400.9,399.5l0.2,0.2v8.6v10.1h8.6v-3.1h5.9l2.9,3.1h20.7h4.1h4.5v-3.1h5.9l2.9,3.1h24.8v-10.1
					l-23.5-4.9L457.1,285l-25.2-0.8l-2.8-18.9l-4.6,17.7l-23.7,0.9l0.2,115.5L400.9,399.5z M419.8,403.4l7.2-111.5h2.8l9.5,107.6
					l-0.2,0l0.2,0.2v7.7L419.8,403.4z"/>
			</g>
			<path fill="#FDB813" d="M394.4,256.8c0.1,0.1,0.1,0.1,0.2,0.2c2.4,2.5,6.4,2.6,8.9,0.2c2.5-2.4,2.5-6.4,0.1-8.9
				c-0.1-0.1-0.1-0.1-0.2-0.2l0,0l-4.6-4.7l-9,8.7L394.4,256.8L394.4,256.8z"/>
			<polygon fill="#1EA3DD" points="418.2,168.9 422.8,168.9 429.7,195.6 437.8,168.9 441.2,168.9 444.5,180.2 442.1,182.7 
				444.5,185.2 429.7,231.5 414.8,185.2 417.3,182.7 414.8,180.2 			"/>
			<polygon fill="#FFFFFF" points="425.6,170.3 429.6,181.4 434.9,170.3 439.2,166.9 439.2,175.8 429.7,214 420.2,175.8 
				420.2,166.9 			"/>
			<g>
				<path fill="#3176BB" d="M390.3,255.5l12.3-11.9c-6.1-6.4-9.6-14.8-9.6-23.6c-0.1-13.2,7.2-25.1,19-31l-2.8-15.1
					c-0.6,0.3-6.1,0.5-6.8,0.9c-16.6,9.2-26.7,26.4-26.5,45.4C376,233.4,381.1,246,390.3,255.5z"/>
			</g>
			<polygon fill="#1EA3DD" points="403.3,266.9 423.2,260.5 423.2,255 403.3,261.5 			"/>
			<polygon fill="#1EA3DD" points="453.8,266.9 433.9,260.5 433.9,255 453.8,261.5 			"/>
			<circle fill="#008372" cx="429.7" cy="246.2" r="2"/>
			<path fill="#F58B21" d="M448.3,122.4c-4.5-4.7-11.2-7.2-18.1-6.1c-11.1,1.8-18.7,12.3-16.8,23.4c0.6,3.6,4.7,10.7,6.8,13.3
				c0.2,0,10.5-1.9,8.5-17.3C428.7,135.7,442.2,133.7,448.3,122.4"/>
		</g>
	</g>
	<g>
		<path fill="#4F504F" d="M266.8,260.9c0.3,0.3,0.3,0.7,0,1l-11,11.6c-0.3,0.3-0.7,0.3-1,0l-24.4-23c-0.3-0.3-0.3-0.7,0-1l11-11.6
			c0.3-0.3,0.7-0.3,1,0L266.8,260.9z"/>
		
			<rect x="241.6" y="242.7" transform="matrix(0.6867 -0.727 0.727 0.6867 -108.0285 260.989)" fill="#D8BFD7" width="14.3" height="26.1"/>
		<path fill="#959595" d="M239,243.5c0.1,0.1,0.1,0.3,0,0.4l-2.4,2.6c-0.1,0.1-0.3,0.1-0.4,0c-0.1-0.1-0.1-0.3,0-0.4l2.4-2.6
			C238.7,243.4,238.8,243.4,239,243.5"/>
	</g>
	<g>
		<path fill="#4F504F" d="M477.5,260.9c-0.3,0.3-0.3,0.7,0,1l11,11.6c0.3,0.3,0.7,0.3,1,0l24.4-23c0.3-0.3,0.3-0.7,0-1l-11-11.6
			c-0.3-0.3-0.7-0.3-1,0L477.5,260.9z"/>
		
			<rect x="482.4" y="248.6" transform="matrix(0.727 -0.6867 0.6867 0.727 -40.3749 410.0825)" fill="#00B193" width="26.1" height="14.3"/>
		<path fill="#959595" d="M505.3,243.5c-0.1,0.1-0.1,0.3,0,0.4l2.4,2.6c0.1,0.1,0.3,0.1,0.4,0c0.1-0.1,0.1-0.3,0-0.4l-2.4-2.6
			C505.6,243.4,505.4,243.4,505.3,243.5"/>
	</g>
</g>
<g id="Layer_2">
</g>
<g id="Layer_3">
</g>
<g id="Layer_4">
</g>
</svg>
