<?xml version="1.0" encoding="utf-8"?>
<!-- Generator: Adobe Illustrator 19.2.1, SVG Export Plug-In . SVG Version: 6.00 Build 0)  -->
<svg version="1.1" xmlns="http://www.w3.org/2000/svg" xmlns:xlink="http://www.w3.org/1999/xlink" x="0px" y="0px"
	 viewBox="0 0 744 452" enable-background="new 0 0 744 452" xml:space="preserve">
<g id="Layer_1">
	<path fill="#FDB813" d="M473.6,276c-0.1,0.1-0.1,0.1-0.2,0.2c-2.4,2.5-6.4,2.6-8.9,0.2c-2.5-2.4-2.5-6.4-0.1-8.9
		c0.1-0.1,0.1-0.1,0.2-0.2l0,0l4.6-4.7l9,8.7L473.6,276L473.6,276z"/>
	
		<ellipse transform="matrix(0.3153 -0.949 0.949 0.3153 241.9529 599.6099)" fill="#F58B21" cx="536.5" cy="132.1" rx="25.7" ry="23.8"/>
	<path fill="#3176BB" d="M478.4,273.7l-12.2-11.9c18.4-18.8,20.9-39.5,22.9-56.1c1.4-11.6,2.6-21.7,9.2-28.4l12.2,11.9
		c-2.5,2.5-3.4,10.3-4.4,18.5C503.8,225.9,500.8,250.8,478.4,273.7z"/>
	<path fill="#1EA3DD" d="M510.5,189.2l-3.9-3.8c-2.8,6.6-3.8,14.6-4.9,23.4c-2.3,18.6-5.1,41.7-25.6,62.7l2.2,2.2
		c22.4-22.9,25.5-47.8,27.7-66C507.1,199.5,508,191.8,510.5,189.2z"/>
	<path fill="#3176BB" d="M556,399.5L551.9,284l9.9,0.1l0,0l-13.4-52.6l6.4-56.8l-17.9-4.3h-18.6l-19.9,6.9l1.6,15.7l8.4,40.1
		l-13.1,51.1l8.5,0.9l-4.4,118.4l-23.5,4.9v10.1h24.8l2.9-3.1h5.9v3.1h4.5h4.1h20.7l2.9-3.1h5.9v3.1h8.6v-10.1v-8.6l0.2-0.2
		L556,399.5z M517.9,407.4v-7.7l0.2-0.2l-0.2,0l9.5-107.6h2.8l7.2,111.5L517.9,407.4z"/>
	<path fill="#FDB813" d="M539.4,143.4c4.2-12.8-4.3-21.6-17-25.9L508.8,139l4,1.3l-1.6,13.4c1.2,0.6-1.5-0.1-0.1,0.3
		c2.4,0.8,4.8,1.2,7.2,1.2l-0.3,11.5l9.5,24.9l4.7-21.8l1.9-17.6C536.4,149.9,538.2,146.8,539.4,143.4z"/>
	<g>
		<path fill="#1EA3DD" d="M556,399.5l0.2-115.5l-23.7-0.9l-4.6-17.7l-2.8,18.9L500,285l-0.7,118.4l-23.5,4.9v10.1h24.8l2.9-3.1h5.9
			v3.1h4.5h4.1h20.7l2.9-3.1h5.9v3.1h8.6v-10.1v-8.6l0.2-0.2L556,399.5z M517.9,407.4v-7.7l0.2-0.2l-0.2,0l9.5-107.6h2.8l7.2,111.5
			L517.9,407.4z"/>
	</g>
	<path fill="#FDB813" d="M562.7,256.8c-0.1,0.1-0.1,0.1-0.2,0.2c-2.4,2.5-6.4,2.6-8.9,0.2c-2.5-2.4-2.5-6.4-0.1-8.9
		c0.1-0.1,0.1-0.1,0.2-0.2l0,0l4.6-4.7l9,8.7L562.7,256.8L562.7,256.8z"/>
	<polygon fill="#1EA3DD" points="538.9,168.9 534.3,168.9 527.4,195.6 519.3,168.9 515.9,168.9 512.6,180.2 515,182.7 512.6,185.2 
		527.4,231.5 542.3,185.2 539.8,182.7 542.3,180.2 	"/>
	<polygon fill="#FFFFFF" points="531.5,170.3 527.5,181.4 522.2,170.3 517.9,166.9 517.9,175.8 527.4,214 536.9,175.8 536.9,166.9 	
		"/>
	<g>
		<path fill="#3176BB" d="M566.8,255.5l-12.3-11.9c6.1-6.4,9.6-14.8,9.6-23.6c0.1-13.2-7.2-25.1-19-31l2.8-15.1
			c0.6,0.3,6.1,0.5,6.8,0.9c16.6,9.2,26.7,26.4,26.5,45.4C581.1,233.4,576,246,566.8,255.5z"/>
	</g>
	<polygon fill="#1EA3DD" points="553.8,266.9 533.9,260.5 533.9,255 553.8,261.5 	"/>
	<polygon fill="#1EA3DD" points="503.3,266.9 523.2,260.5 523.2,255 503.3,261.5 	"/>
	<circle fill="#008372" cx="527.4" cy="246.2" r="2"/>
	<path fill="#F58B21" d="M518.9,117.1c5.8-3.1,12.9-3.3,19.1-0.1c10,5.2,13.8,17.6,8.6,27.5c-1.7,3.2-7.8,8.7-10.6,10.5
		c-0.2-0.1-9.3-5.1-2.6-19.1C533.4,136,521.1,129.8,518.9,117.1"/>
	<g>
		<path fill="#4F504F" d="M479.4,260.9c0.3,0.3,0.3,0.7,0,1l-11,11.6c-0.3,0.3-0.7,0.3-1,0l-24.4-23c-0.3-0.3-0.3-0.7,0-1l11-11.6
			c0.3-0.3,0.7-0.3,1,0L479.4,260.9z"/>
		
			<rect x="454.3" y="242.7" transform="matrix(0.6867 -0.727 0.727 0.6867 -41.3873 415.6035)" fill="#D8BFD7" width="14.3" height="26.1"/>
		<path fill="#959595" d="M451.6,243.5c0.1,0.1,0.1,0.3,0,0.4l-2.4,2.6c-0.1,0.1-0.3,0.1-0.4,0c-0.1-0.1-0.1-0.3,0-0.4l2.4-2.6
			C451.3,243.4,451.5,243.4,451.6,243.5"/>
	</g>
	<path fill="none" stroke="#17244E" stroke-width="0.6636" stroke-miterlimit="10" d="M515.9,134.9c0,0,0.6-1.1,2.4-0.3
		c1.8,0.8,1.4,2.5,1.4,2.5"/>
	<path fill="#1EA3DD" d="M433.7,139.8c0,0.2-0.2,0.4-0.4,0.4c-0.2,0-0.4-0.2-0.4-0.4c0-0.2,0.2-0.4,0.4-0.4
		C433.5,139.4,433.7,139.6,433.7,139.8"/>
</g>
<g id="Layer_2">
</g>
<g id="Layer_3">
</g>
<g id="Layer_4">
</g>
</svg>
