<?xml version="1.0" encoding="utf-8"?>
<!-- Generator: Adobe Illustrator 19.2.1, SVG Export Plug-In . SVG Version: 6.00 Build 0)  -->
<svg version="1.1" xmlns="http://www.w3.org/2000/svg" xmlns:xlink="http://www.w3.org/1999/xlink" x="0px" y="0px"
	 viewBox="0 0 36 51" enable-background="new 0 0 36 51" xml:space="preserve">
<g id="Layer_1">
</g>
<g id="Layer_2">
</g>
<g id="Layer_3">
	<g>
		<path fill="#F58B21" d="M15.9,34c-0.2-0.4-0.3-1-0.5-1.7c-0.1-0.7-0.2-1.4-0.2-2.1c0-0.8,0.1-1.6,0.3-2.3c0.2-0.7,0.5-1.3,0.9-1.9
			c0.4-0.6,0.9-1.2,1.4-1.8c0.6-0.6,1.2-1.1,1.8-1.7c0.6-0.5,1.1-1,1.7-1.6c0.5-0.6,1-1.2,1.5-1.8c0.4-0.6,0.8-1.3,1-2.1
			c0.3-0.8,0.4-1.6,0.4-2.5c0-1-0.2-1.8-0.5-2.6s-0.8-1.4-1.4-2c-0.6-0.5-1.3-1-2.1-1.2c-0.8-0.3-1.7-0.4-2.7-0.4
			c-1.7,0-3.2,0.3-4.6,0.9c-1.4,0.6-2.7,1.4-4,2.4V8.7c1.3-1,2.6-1.7,4-2.1c1.4-0.5,2.9-0.7,4.6-0.7c1.3,0,2.5,0.2,3.6,0.6
			c1.1,0.4,2.1,0.9,2.9,1.6c0.8,0.7,1.5,1.6,1.9,2.6s0.7,2.2,0.7,3.5c0,1-0.1,1.9-0.4,2.8c-0.3,0.8-0.7,1.6-1.1,2.3
			c-0.5,0.7-1,1.4-1.6,2c-0.6,0.6-1.2,1.2-1.8,1.8c-0.9,0.9-1.7,1.6-2.3,2.2c-0.6,0.6-1.1,1.2-1.4,1.7c-0.3,0.5-0.6,1-0.7,1.4
			c-0.1,0.5-0.2,1-0.2,1.7c0,0.8,0.1,1.6,0.2,2.2c0.1,0.7,0.3,1.2,0.4,1.7H15.9z M16.9,45.1c-0.6,0-1.1-0.2-1.5-0.6
			c-0.4-0.4-0.6-0.9-0.6-1.5c0-0.6,0.2-1.1,0.6-1.5c0.4-0.4,0.9-0.6,1.5-0.6c0.6,0,1.1,0.2,1.6,0.6c0.4,0.4,0.6,0.9,0.6,1.5
			c0,0.6-0.2,1.1-0.6,1.5C18,44.9,17.5,45.1,16.9,45.1z"/>
	</g>
</g>
<g id="Layer_4">
</g>
</svg>
