<?xml version="1.0" encoding="utf-8"?>
<!-- Generator: Adobe Illustrator 19.2.1, SVG Export Plug-In . SVG Version: 6.00 Build 0)  -->
<svg version="1.1" xmlns="http://www.w3.org/2000/svg" xmlns:xlink="http://www.w3.org/1999/xlink" x="0px" y="0px"
	 viewBox="0 0 186 162" enable-background="new 0 0 186 162" xml:space="preserve">
<g id="Layer_1">
</g>
<g id="Layer_2">
	<g>
		<path fill="#E6E6E6" d="M42.1,33.2C44.6,25,53.4,19,63.9,19c0.1,0,0.1,0,0.2,0v0c0-10.3,10-18.6,22.3-18.6c8.5,0,15.9,4,19.7,9.8
			c2.2-0.7,4.6-1,7.1-1c11.6,0,21,7.8,21,17.5c0,0.1,0,0.1,0,0.2c0.9-0.1,1.9-0.2,2.8-0.2c13.1,0,23.8,8.9,23.8,19.8
			c0,10.9-10.7,19.8-23.8,19.8l-87.2,0l0,0c-11.4,0-20.6-7.7-20.6-17.2C29.2,41.9,34.5,35.7,42.1,33.2"/>
		<g>
			<path fill="#9C4F96" d="M64.9,35.9v3h-1.4v-8.4h2.5c1,0,1.7,0.2,2.2,0.7s0.8,1.1,0.8,1.9s-0.3,1.5-0.8,2s-1.3,0.8-2.3,0.8H64.9z
				 M64.9,31.7v3.1h0.9c0.6,0,1.1-0.1,1.4-0.4s0.5-0.7,0.5-1.2c0-1-0.6-1.5-1.7-1.5H64.9z"/>
			<path fill="#9C4F96" d="M77,35.5c0,2.4-1.1,3.5-3.4,3.5c-2.1,0-3.2-1.1-3.2-3.4v-5.1h1.4v4.9c0,1.6,0.6,2.5,1.9,2.5
				c1.2,0,1.9-0.8,1.9-2.4v-4.9H77V35.5z"/>
			<path fill="#9C4F96" d="M79,38.9v-8.4h2.7c0.8,0,1.5,0.2,1.9,0.5s0.7,0.8,0.7,1.4c0,0.5-0.1,0.9-0.4,1.2s-0.6,0.6-1.1,0.8v0
				c0.6,0.1,1,0.3,1.4,0.6s0.5,0.8,0.5,1.4c0,0.7-0.3,1.3-0.8,1.7s-1.3,0.7-2.1,0.7H79z M80.4,31.6V34h0.9c0.5,0,0.9-0.1,1.1-0.3
				s0.4-0.6,0.4-1c0-0.7-0.5-1.1-1.4-1.1H80.4z M80.4,35.2v2.7h1.2c0.5,0,0.9-0.1,1.2-0.4s0.4-0.6,0.4-1c0-0.9-0.6-1.3-1.8-1.3H80.4
				z"/>
			<path fill="#9C4F96" d="M90.9,38.9h-4.7v-8.4h1.4v7.2h3.3V38.9z"/>
			<path fill="#9C4F96" d="M93.5,38.9h-1.4v-8.4h1.4V38.9z"/>
			<path fill="#9C4F96" d="M101.5,38.6c-0.6,0.3-1.4,0.5-2.4,0.5c-1.2,0-2.2-0.4-2.9-1.2s-1.1-1.8-1.1-3c0-1.3,0.4-2.4,1.2-3.3
				s1.9-1.2,3.1-1.2c0.8,0,1.5,0.1,2,0.3v1.4c-0.6-0.3-1.2-0.5-1.9-0.5c-0.9,0-1.6,0.3-2.2,0.9s-0.8,1.4-0.8,2.3
				c0,0.9,0.3,1.7,0.8,2.2s1.2,0.8,2.1,0.8c0.8,0,1.5-0.2,2.1-0.6V38.6z"/>
			<path fill="#9C4F96" d="M113.3,38.9h-1.5l-0.8-2.1h-3.3l-0.7,2.1h-1.5l3.1-8.4h1.6L113.3,38.9z M110.6,35.7l-1.2-3.4
				c0-0.1-0.1-0.3-0.1-0.5h0c0,0.2-0.1,0.4-0.1,0.5l-1.2,3.4H110.6z"/>
			<path fill="#9C4F96" d="M115.8,35.9v3h-1.4v-8.4h2.5c1,0,1.7,0.2,2.2,0.7s0.8,1.1,0.8,1.9s-0.3,1.5-0.8,2s-1.3,0.8-2.3,0.8H115.8
				z M115.8,31.7v3.1h0.9c0.6,0,1.1-0.1,1.4-0.4s0.5-0.7,0.5-1.2c0-1-0.6-1.5-1.7-1.5H115.8z"/>
			<path fill="#9C4F96" d="M122.8,35.9v3h-1.4v-8.4h2.5c1,0,1.7,0.2,2.2,0.7s0.8,1.1,0.8,1.9s-0.3,1.5-0.8,2s-1.3,0.8-2.3,0.8H122.8
				z M122.8,31.7v3.1h0.9c0.6,0,1.1-0.1,1.4-0.4s0.5-0.7,0.5-1.2c0-1-0.6-1.5-1.7-1.5H122.8z"/>
			<path fill="#9C4F96" d="M77.9,53v-1.4c0.1,0.1,0.3,0.2,0.5,0.3s0.4,0.2,0.6,0.2s0.4,0.1,0.6,0.1s0.4,0.1,0.6,0.1
				c0.6,0,1-0.1,1.3-0.3s0.4-0.5,0.4-0.8c0-0.2,0-0.4-0.1-0.5s-0.2-0.3-0.4-0.4s-0.4-0.2-0.6-0.3s-0.5-0.2-0.7-0.3
				c-0.3-0.2-0.6-0.3-0.8-0.5s-0.5-0.3-0.6-0.5s-0.3-0.4-0.4-0.6s-0.2-0.5-0.2-0.8c0-0.4,0.1-0.7,0.3-1s0.4-0.5,0.7-0.7
				s0.6-0.3,1-0.4s0.8-0.1,1.1-0.1c0.9,0,1.5,0.1,1.9,0.3v1.4c-0.5-0.3-1.1-0.5-1.8-0.5c-0.2,0-0.4,0-0.6,0.1s-0.4,0.1-0.6,0.2
				s-0.3,0.2-0.4,0.3s-0.2,0.3-0.2,0.5c0,0.2,0,0.3,0.1,0.5s0.2,0.3,0.3,0.4s0.3,0.2,0.6,0.3s0.5,0.2,0.8,0.3
				c0.3,0.2,0.6,0.3,0.8,0.5s0.5,0.4,0.7,0.6s0.4,0.4,0.5,0.7s0.2,0.5,0.2,0.8c0,0.4-0.1,0.8-0.3,1.1s-0.4,0.5-0.7,0.7
				s-0.6,0.3-1,0.4s-0.8,0.1-1.2,0.1c-0.1,0-0.3,0-0.5,0s-0.4-0.1-0.6-0.1s-0.4-0.1-0.6-0.1S78,53.1,77.9,53z"/>
			<path fill="#9C4F96" d="M90.2,46.1h-2.4v7.2h-1.4v-7.2H84v-1.2h6.2V46.1z"/>
			<path fill="#9C4F96" d="M94.4,53.5c-1.2,0-2.2-0.4-2.9-1.2s-1.1-1.8-1.1-3.1c0-1.4,0.4-2.4,1.1-3.2s1.8-1.2,3-1.2
				c1.2,0,2.1,0.4,2.9,1.2s1.1,1.8,1.1,3.1c0,1.4-0.4,2.5-1.1,3.3S95.6,53.5,94.4,53.5z M94.5,46c-0.8,0-1.4,0.3-1.9,0.9
				s-0.7,1.3-0.7,2.3c0,0.9,0.2,1.7,0.7,2.3s1.1,0.9,1.8,0.9c0.8,0,1.4-0.3,1.9-0.8s0.7-1.3,0.7-2.3c0-1-0.2-1.8-0.7-2.3
				S95.3,46,94.5,46z"/>
			<path fill="#9C4F96" d="M106.5,53.3h-1.6l-1.3-2.3c-0.1-0.2-0.2-0.4-0.4-0.5s-0.2-0.3-0.4-0.4s-0.2-0.2-0.4-0.2s-0.3-0.1-0.5-0.1
				h-0.6v3.4H100v-8.4h2.8c0.4,0,0.8,0,1.1,0.1s0.6,0.2,0.9,0.4s0.4,0.4,0.6,0.7s0.2,0.6,0.2,1c0,0.3,0,0.6-0.1,0.8
				s-0.2,0.5-0.4,0.7s-0.4,0.4-0.6,0.5s-0.5,0.2-0.8,0.3v0c0.2,0.1,0.3,0.2,0.4,0.3s0.2,0.2,0.3,0.3s0.2,0.2,0.3,0.4
				s0.2,0.3,0.3,0.5L106.5,53.3z M101.4,46.1v2.7h1.2c0.2,0,0.4,0,0.6-0.1s0.3-0.2,0.5-0.3s0.2-0.3,0.3-0.5s0.1-0.4,0.1-0.6
				c0-0.4-0.1-0.7-0.4-0.9s-0.6-0.3-1.1-0.3H101.4z"/>
			<path fill="#9C4F96" d="M112.2,53.3h-4.7v-8.4h4.5v1.2h-3.1v2.4h2.9v1.2h-2.9v2.5h3.3V53.3z"/>
		</g>
		<g>
			<g>
				<path fill="none" stroke="#9C4F96" stroke-width="0.75" stroke-miterlimit="10" stroke-dasharray="2,2" d="M179.9,157.3
					c-3.9-13.1-18.7-53.7-59.5-88.1"/>
				<g>
					<polygon fill="#9C4F96" points="182,154.5 179.6,156.4 176.6,156 181.1,161.6 					"/>
				</g>
			</g>
		</g>
		<g>
			<rect x="142.1" y="85.5" fill="#FFFFFF" width="28.7" height="32.2"/>
			<rect x="127.7" y="115.7" fill="#FFFFFF" width="57.9" height="15.8"/>
			<g>
				<path fill="#515150" d="M134.7,128.2c-1.2,0-2.1-0.4-2.8-1.2c-0.7-0.8-1-1.8-1-3c0-1.3,0.4-2.4,1.1-3.1c0.7-0.8,1.7-1.2,2.9-1.2
					c1.1,0,2,0.4,2.7,1.1c0.7,0.8,1,1.7,1,3c0,1.4-0.4,2.4-1.1,3.2S135.8,128.2,134.7,128.2z M134.7,120.3c-1,0-1.7,0.3-2.3,1
					c-0.6,0.7-0.9,1.6-0.9,2.7c0,1.1,0.3,2,0.9,2.7s1.4,1,2.3,1c1,0,1.8-0.3,2.4-1s0.9-1.6,0.9-2.8c0-1.2-0.3-2.1-0.9-2.7
					C136.5,120.6,135.7,120.3,134.7,120.3z"/>
				<path fill="#515150" d="M142.7,120c-0.1-0.1-0.4-0.2-0.6-0.2c-0.7,0-1.1,0.5-1.1,1.5v1h1.5v0.5h-1.5v5.4h-0.5v-5.4h-1v-0.5h1v-1
					c0-0.6,0.2-1.1,0.5-1.4c0.3-0.3,0.7-0.5,1.2-0.5c0.2,0,0.5,0,0.6,0.1V120z"/>
				<path fill="#515150" d="M145.9,120c-0.1-0.1-0.4-0.2-0.6-0.2c-0.7,0-1.1,0.5-1.1,1.5v1h1.5v0.5h-1.5v5.4h-0.5v-5.4h-1v-0.5h1v-1
					c0-0.6,0.2-1.1,0.5-1.4c0.3-0.3,0.7-0.5,1.2-0.5c0.2,0,0.5,0,0.6,0.1V120z"/>
				<path fill="#515150" d="M146.8,120.7c-0.1,0-0.2,0-0.3-0.1c-0.1-0.1-0.1-0.2-0.1-0.3c0-0.1,0-0.2,0.1-0.3
					c0.1-0.1,0.2-0.1,0.3-0.1c0.1,0,0.2,0,0.3,0.1c0.1,0.1,0.1,0.2,0.1,0.3c0,0.1,0,0.2-0.1,0.3C147,120.7,146.9,120.7,146.8,120.7z
					 M146.5,128.1v-5.8h0.5v5.8H146.5z"/>
				<path fill="#515150" d="M152.7,127.8c-0.4,0.3-1,0.4-1.6,0.4c-0.8,0-1.4-0.3-1.9-0.8c-0.5-0.5-0.7-1.3-0.7-2.1
					c0-0.9,0.3-1.7,0.8-2.3s1.3-0.9,2.1-0.9c0.4,0,0.9,0.1,1.3,0.3v0.6c-0.4-0.3-0.9-0.4-1.4-0.4c-0.7,0-1.2,0.2-1.7,0.7
					c-0.4,0.5-0.6,1.1-0.6,1.9c0,0.8,0.2,1.4,0.6,1.8c0.4,0.5,0.9,0.7,1.5,0.7c0.6,0,1.1-0.2,1.5-0.5V127.8z"/>
				<path fill="#515150" d="M154.3,125.2c0,0.8,0.2,1.4,0.6,1.9s0.9,0.7,1.5,0.7c0.7,0,1.3-0.2,1.9-0.7v0.6c-0.6,0.4-1.3,0.6-2,0.6
					c-0.8,0-1.4-0.3-1.8-0.8c-0.5-0.5-0.7-1.3-0.7-2.3c0-0.9,0.2-1.6,0.7-2.2c0.5-0.6,1.1-0.9,1.9-0.9c0.7,0,1.3,0.3,1.7,0.8
					c0.4,0.5,0.6,1.2,0.6,2.1v0.2H154.3z M158,124.7c0-0.7-0.2-1.2-0.5-1.6s-0.7-0.6-1.2-0.6c-0.5,0-1,0.2-1.4,0.6
					c-0.4,0.4-0.6,0.9-0.7,1.6H158z"/>
				<path fill="#515150" d="M160.1,128.1v-8.2h2c1.4,0,2.4,0.3,3.1,1c0.7,0.7,1.1,1.7,1.1,3c0,1.2-0.4,2.3-1.1,3
					c-0.8,0.8-1.8,1.2-3.1,1.2H160.1z M160.7,120.4v7.2h1.3c1.2,0,2.1-0.3,2.8-0.9c0.7-0.6,1-1.5,1-2.7c0-2.3-1.2-3.5-3.7-3.5H160.7
					z"/>
				<path fill="#515150" d="M170.3,128.2c-0.9,0-1.5-0.3-2-0.8s-0.7-1.3-0.7-2.2c0-1,0.3-1.7,0.8-2.3c0.5-0.5,1.2-0.8,2.1-0.8
					c0.8,0,1.5,0.3,2,0.8c0.5,0.5,0.7,1.3,0.7,2.3c0,0.9-0.2,1.6-0.7,2.2C171.8,127.9,171.1,128.2,170.3,128.2z M170.3,122.6
					c-0.7,0-1.2,0.2-1.6,0.7s-0.6,1.1-0.6,1.9c0,0.8,0.2,1.4,0.6,1.8s0.9,0.7,1.6,0.7c0.7,0,1.2-0.2,1.6-0.7
					c0.4-0.5,0.6-1.1,0.6-1.9c0-0.8-0.2-1.5-0.6-1.9S171,122.6,170.3,122.6z"/>
				<path fill="#515150" d="M178.3,127.8c-0.4,0.3-1,0.4-1.6,0.4c-0.8,0-1.4-0.3-1.9-0.8c-0.5-0.5-0.7-1.3-0.7-2.1
					c0-0.9,0.3-1.7,0.8-2.3s1.3-0.9,2.1-0.9c0.4,0,0.9,0.1,1.3,0.3v0.6c-0.4-0.3-0.9-0.4-1.4-0.4c-0.7,0-1.2,0.2-1.7,0.7
					c-0.4,0.5-0.6,1.1-0.6,1.9c0,0.8,0.2,1.4,0.6,1.8c0.4,0.5,0.9,0.7,1.5,0.7c0.6,0,1.1-0.2,1.5-0.5V127.8z"/>
				<path fill="#515150" d="M179.4,127.8v-0.6c0.2,0.2,0.4,0.3,0.7,0.4c0.3,0.1,0.5,0.1,0.7,0.1c0.9,0,1.4-0.4,1.4-1.1
					c0-0.3-0.1-0.5-0.3-0.7c-0.2-0.2-0.5-0.4-1-0.6c-0.6-0.2-1-0.5-1.2-0.8s-0.3-0.6-0.3-1c0-0.5,0.2-0.9,0.5-1.2
					c0.4-0.3,0.8-0.4,1.3-0.4c0.5,0,0.9,0.1,1.3,0.3v0.6c-0.4-0.3-0.9-0.4-1.3-0.4c-0.4,0-0.7,0.1-0.9,0.3s-0.4,0.5-0.4,0.8
					c0,0.3,0.1,0.5,0.2,0.7c0.1,0.2,0.5,0.4,1,0.6c0.6,0.3,1,0.5,1.3,0.8c0.2,0.2,0.3,0.5,0.3,0.9c0,0.5-0.2,0.8-0.5,1.2
					c-0.3,0.3-0.8,0.5-1.4,0.5C180.2,128.2,179.7,128.1,179.4,127.8z"/>
			</g>
			<g>
				<path fill="#4F504F" d="M165.8,94.5c0.1,0.1,0.2,0.2,0.2,0.3h-4.3v-4.3c0.1,0.1,0.2,0.2,0.3,0.2L165.8,94.5z M167,93.3l-3.7-3.7
					c-0.8-0.8-2.4-1.5-3.6-1.5h-12.5c-1.1,0-2.1,0.9-2.1,2.1v22.5c0,1.1,0.9,2.1,2.1,2.1h19.2c1.1,0,2.1-0.9,2.1-2.1V96.8
					C168.4,95.7,167.8,94.1,167,93.3z M166.8,112.7c0,0.2-0.2,0.4-0.4,0.4h-19.2c-0.2,0-0.4-0.2-0.4-0.4V90.2c0-0.2,0.2-0.4,0.4-0.4
					h12.5c0.1,0,0.3,0,0.4,0v6.6h6.6c0,0.1,0,0.3,0,0.4V112.7z"/>
				<g>
					<path fill="#4F504F" d="M156.2,97.8c3.7,0,6.3,2.4,6.3,5.9c0,3.5-2.6,5.9-6.4,5.9h-5V97.8H156.2z M154.1,107.3h2.2
						c1.9,0,3.2-1.4,3.2-3.5c0-2.1-1.4-3.6-3.3-3.6h-2V107.3z"/>
				</g>
			</g>
		</g>
		<g>
			<g>
				<path fill="none" stroke="#9C4F96" stroke-width="0.75" stroke-miterlimit="10" stroke-dasharray="2,2" d="M9,157.3
					c3.9-13.1,18.7-53.7,59.5-88.1"/>
				<g>
					<polygon fill="#9C4F96" points="12.3,156 9.3,156.4 7,154.5 7.8,161.6 					"/>
				</g>
			</g>
		</g>
		<rect x="8.2" y="85.4" fill="#FFFFFF" width="33.2" height="46.6"/>
		<g>
			<path fill="#515150" d="M0.4,125.2l0.2-8.2l2,0.1c1.4,0,2.4,0.4,3.1,1.1c0.7,0.7,1,1.7,1,3c0,1.2-0.4,2.3-1.2,3
				c-0.8,0.8-1.8,1.1-3.2,1.1L0.4,125.2z M1.2,117.5L1,124.7l1.3,0c1.2,0,2.2-0.3,2.8-0.9c0.7-0.6,1-1.5,1.1-2.7
				c0.1-2.3-1.1-3.5-3.6-3.6L1.2,117.5z"/>
			<path fill="#515150" d="M10.5,125.6c-0.9,0-1.5-0.3-2-0.9c-0.5-0.6-0.7-1.3-0.7-2.2c0-1,0.3-1.7,0.8-2.3s1.2-0.8,2.1-0.8
				c0.8,0,1.5,0.3,2,0.9c0.5,0.6,0.7,1.3,0.7,2.3c0,0.9-0.3,1.6-0.8,2.2C12.1,125.4,11.4,125.6,10.5,125.6z M10.7,120
				c-0.7,0-1.2,0.2-1.7,0.6c-0.4,0.5-0.6,1.1-0.7,1.9c0,0.8,0.2,1.4,0.5,1.9c0.4,0.5,0.9,0.7,1.6,0.7c0.7,0,1.3-0.2,1.6-0.6
				c0.4-0.4,0.6-1.1,0.6-1.9c0-0.8-0.1-1.5-0.5-1.9C11.9,120.2,11.4,120,10.7,120z"/>
			<path fill="#515150" d="M18.5,125.4c-0.4,0.3-1,0.4-1.6,0.4c-0.8,0-1.4-0.3-1.9-0.9c-0.5-0.6-0.7-1.3-0.7-2.2
				c0-0.9,0.3-1.7,0.9-2.3c0.6-0.6,1.3-0.9,2.1-0.8c0.4,0,0.9,0.1,1.3,0.3l0,0.6c-0.4-0.3-0.9-0.4-1.4-0.4c-0.7,0-1.2,0.2-1.7,0.7
				c-0.4,0.5-0.7,1.1-0.7,1.9c0,0.8,0.2,1.4,0.5,1.8c0.4,0.5,0.9,0.7,1.5,0.7c0.6,0,1.1-0.1,1.5-0.4L18.5,125.4z"/>
			<path fill="#515150" d="M23.4,126c-1.2,0-2.1-0.4-2.7-1.2c-0.7-0.8-1-1.8-0.9-3c0-1.3,0.4-2.3,1.1-3.1c0.7-0.8,1.7-1.1,2.9-1.1
				c1.1,0,2,0.4,2.6,1.2c0.7,0.8,1,1.8,0.9,3c0,1.4-0.4,2.4-1.1,3.2C25.5,125.6,24.6,126,23.4,126z M23.7,118c-1,0-1.7,0.3-2.4,1
				c-0.6,0.7-1,1.6-1,2.7c0,1.1,0.2,2,0.8,2.7c0.6,0.7,1.3,1,2.3,1.1c1,0,1.8-0.3,2.4-0.9s0.9-1.6,1-2.7c0-1.2-0.2-2.1-0.8-2.7
				C25.4,118.4,24.7,118.1,23.7,118z"/>
			<path fill="#515150" d="M31.6,118c-0.1-0.1-0.4-0.2-0.6-0.2c-0.7,0-1.1,0.5-1.1,1.4l0,1l1.5,0l0,0.5l-1.5,0l-0.2,5.4l-0.5,0
				l0.2-5.4l-1,0l0-0.5l1,0l0-1c0-0.6,0.2-1.1,0.5-1.4c0.3-0.3,0.7-0.5,1.2-0.4c0.2,0,0.5,0,0.6,0.1L31.6,118z"/>
			<path fill="#515150" d="M34.8,118c-0.1-0.1-0.3-0.2-0.6-0.2c-0.7,0-1.1,0.5-1.1,1.4l0,1l1.5,0l0,0.5l-1.5,0l-0.2,5.4l-0.5,0
				l0.2-5.4l-1,0l0-0.5l1,0l0-1c0-0.6,0.2-1.1,0.5-1.4c0.3-0.3,0.7-0.5,1.2-0.4c0.2,0,0.5,0,0.6,0.1L34.8,118z"/>
			<path fill="#515150" d="M35.3,126.2l0.2-5.8l0.5,0l-0.2,5.8L35.3,126.2z M35.7,118.9c-0.1,0-0.2,0-0.3-0.1
				c-0.1-0.1-0.1-0.2-0.1-0.3c0-0.1,0.1-0.2,0.1-0.3c0.1-0.1,0.2-0.1,0.3-0.1c0.1,0,0.2,0,0.3,0.1c0.1,0.1,0.1,0.2,0.1,0.3
				c0,0.1-0.1,0.2-0.1,0.3C36,118.8,35.8,118.9,35.7,118.9z"/>
			<path fill="#515150" d="M41.5,126.1c-0.4,0.3-1,0.4-1.6,0.4c-0.8,0-1.4-0.3-1.9-0.9c-0.5-0.6-0.7-1.3-0.7-2.2
				c0-0.9,0.3-1.7,0.9-2.3c0.6-0.6,1.3-0.9,2.1-0.8c0.4,0,0.9,0.1,1.3,0.3l0,0.6c-0.4-0.3-0.9-0.4-1.4-0.4c-0.7,0-1.2,0.2-1.7,0.7
				c-0.4,0.5-0.7,1.1-0.7,1.9c0,0.8,0.2,1.4,0.5,1.8c0.4,0.5,0.9,0.7,1.5,0.7c0.6,0,1.1-0.1,1.5-0.4L41.5,126.1z"/>
			<path fill="#515150" d="M43.1,123.5c0,0.8,0.1,1.4,0.5,1.9c0.4,0.5,0.9,0.7,1.5,0.7c0.7,0,1.3-0.2,1.9-0.7l0,0.6
				c-0.6,0.4-1.3,0.6-2,0.6c-0.8,0-1.4-0.3-1.8-0.9c-0.4-0.6-0.7-1.3-0.6-2.3c0-0.9,0.3-1.6,0.8-2.1c0.5-0.6,1.1-0.8,1.9-0.8
				c0.7,0,1.3,0.3,1.7,0.8c0.4,0.5,0.5,1.2,0.5,2.1l0,0.2L43.1,123.5z M46.8,123.1c0-0.7-0.2-1.2-0.4-1.6c-0.3-0.4-0.7-0.6-1.2-0.6
				c-0.5,0-1,0.2-1.4,0.5c-0.4,0.4-0.6,0.9-0.7,1.6L46.8,123.1z"/>
		</g>
		<path fill="#4F504F" d="M34.4,91.4c-2.2-2.1-5.1-3.3-8.2-3.4c-3.6-0.1-7,1.3-9.5,3.9c-4.7,5-4.5,12.9,0.5,17.6
			c2.2,2.1,5.1,3.3,8.2,3.4c0,0,0,0,0,0c3.6,0.1,7-1.3,9.5-3.9C39.6,104,39.4,96.1,34.4,91.4z M19.5,106.5l0-0.3l0.5,0
			c0.5,0,0.9-0.1,1.1-0.5c0.1-0.2,0.2-0.6,0.2-1.3l0.2-7.9c0-0.8,0-1.2-0.2-1.4c-0.2-0.3-0.6-0.4-1-0.4l-0.5,0l0-0.3l5,0.1
			c1.8,0.1,3.2,0.3,4.2,0.7c0.9,0.4,1.7,1.2,2.2,2.1c0.6,1,0.8,2.1,0.8,3.4c0,1.7-0.6,3.1-1.7,4.2c-1.2,1.2-3,1.8-5.4,1.8
			L19.5,106.5z M23,105.7c0.8,0.2,1.4,0.3,1.9,0.3c1.4,0,2.6-0.4,3.5-1.4c1-1,1.4-2.3,1.5-4c0-1.7-0.4-3-1.3-4
			c-0.9-1-2.1-1.5-3.5-1.6c-0.5,0-1.2,0.1-1.9,0.2L23,105.7z"/>
		<g>
			<g>
				<path fill="none" stroke="#9C4F96" stroke-width="0.75" stroke-miterlimit="10" stroke-dasharray="2,2" d="M47,100.7
					c12-4,48.3-13.4,90.1-0.2"/>
				<g>
					<polygon fill="#9C4F96" points="49.9,102.7 47.9,100.5 48.1,97.5 42.8,102.3 					"/>
				</g>
				<g>
					<polygon fill="#9C4F96" points="142.1,102.3 134.1,102.9 136.7,100.5 135.9,97.1 					"/>
				</g>
			</g>
		</g>
		<g>
			<path fill="#FFFFFF" d="M108.2,101L96.6,80.7c-0.4-0.6-1-1-1.7-1s-1.3,0.4-1.7,1L81.7,101c-0.4,0.6-0.4,1.4,0,2
				c0.3,0.6,1,0.9,1.7,0.9h23.1c0.7,0,1.4-0.4,1.7-0.9C108.6,102.4,108.6,101.6,108.2,101z"/>
			<g>
				<path fill="#F68C1F" d="M106.7,100l-10.3-18C96.1,81.3,95.6,81,95,81c-0.6,0-1.1,0.3-1.5,0.9l-10.3,18c-0.3,0.6-0.3,1.2,0,1.7
					c0.3,0.5,0.9,0.8,1.5,0.8h20.5c0.7,0,1.2-0.3,1.5-0.8C107,101.2,107,100.5,106.7,100z M94.9,86.8c0.8,0,1.4,0.6,1.4,1.4v5.1
					c0,0.8-0.6,1.4-1.4,1.4s-1.4-0.6-1.4-1.4v-5.1C93.5,87.4,94.1,86.8,94.9,86.8z M95,96.3c0.8,0,1.4,0.6,1.4,1.4s-0.6,1.4-1.4,1.4
					s-1.4-0.6-1.4-1.4C93.5,97,94.2,96.3,95,96.3z"/>
			</g>
		</g>
	</g>
</g>
<g id="Layer_3">
</g>
<g id="Layer_4">
</g>
</svg>
