<?xml version="1.0" encoding="utf-8"?>
<!-- Generator: Adobe Illustrator 19.2.1, SVG Export Plug-In . SVG Version: 6.00 Build 0)  -->
<svg version="1.1" xmlns="http://www.w3.org/2000/svg" xmlns:xlink="http://www.w3.org/1999/xlink" x="0px" y="0px"
	 viewBox="0 0 385.2 87.9" enable-background="new 0 0 385.2 87.9" xml:space="preserve">
<g id="Layer_1">
	<g>
		<g>
			<g>
				<path fill="none" stroke="#04AF91" stroke-width="0.75" stroke-miterlimit="10" stroke-dasharray="2,2" d="M4.1,83.6
					c7.9-8.9,32.9-33.3,82.4-49.3"/>
				<g>
					<polygon fill="#04AF91" points="7.6,83.8 4.8,82.9 3.4,80.2 1.3,87 					"/>
				</g>
			</g>
		</g>
		<g>
			<g>
				<path fill="none" stroke="#04AF91" stroke-width="0.75" stroke-miterlimit="10" stroke-dasharray="2,2" d="M94.5,31.8
					c25.5-7.4,56.9-12.5,95.1-12.5"/>
				<g>
					<polygon fill="#04AF91" points="97.3,34 95.4,31.6 95.7,28.6 90.2,33.1 					"/>
				</g>
			</g>
		</g>
		<g>
			<g>
				<path fill="none" stroke="#04AF91" stroke-width="0.75" stroke-miterlimit="10" stroke-dasharray="2,2" d="M194,19.4
					c37.9,0.3,68.9,5,94.1,11.8"/>
				<g>
					<polygon fill="#04AF91" points="196.1,22.3 194.9,19.5 196.1,16.7 189.5,19.4 					"/>
				</g>
			</g>
		</g>
		<g>
			<g>
				<path fill="none" stroke="#04AF91" stroke-width="0.75" stroke-miterlimit="10" stroke-dasharray="2,2" d="M296.8,33.7
					c64.3,19.4,87.1,51.7,87.1,51.7"/>
				<g>
					<polygon fill="#04AF91" points="298,37 297.7,34 299.6,31.7 292.5,32.4 					"/>
				</g>
			</g>
		</g>
		<g>
			<path fill="#FFFFFF" d="M72.4,63.1L51.5,26.3c-0.7-1.2-1.8-1.9-3-1.9c-1.2,0-2.3,0.7-3,1.9L24.6,63.1c-0.7,1.2-0.7,2.5-0.1,3.5
				c0.6,1,1.8,1.7,3.1,1.7h41.8c1.3,0,2.5-0.6,3.1-1.7C73.1,65.6,73.1,64.2,72.4,63.1z"/>
			<g>
				<path fill="#F68C1F" d="M69.7,61.2L51.2,28.6c-0.6-1-1.6-1.7-2.7-1.7s-2.1,0.6-2.7,1.7L27.3,61.2c-0.6,1-0.6,2.2-0.1,3.1
					c0.5,0.9,1.6,1.5,2.7,1.5h37.1c1.2,0,2.2-0.6,2.7-1.5C70.3,63.4,70.3,62.2,69.7,61.2z M48.4,37.4c1.4,0,2.6,1.2,2.6,2.6v9.3
					c0,1.4-1.2,2.6-2.6,2.6c-1.4,0-2.6-1.2-2.6-2.6v-9.3C45.8,38.5,47,37.4,48.4,37.4z M48.5,54.7c1.4,0,2.6,1.2,2.6,2.6
					c0,1.4-1.2,2.6-2.6,2.6s-2.6-1.2-2.6-2.6S47.1,54.7,48.5,54.7z"/>
			</g>
		</g>
		<g>
			<path fill="#008372" d="M262.5,34l6.7,2.2l-0.1-1.7c0,0,0-0.2-0.2-0.2l-4.9-1.7c0,0-0.2-0.1-0.3,0.1L262.5,34z"/>
			<path fill="#008372" d="M268.8,37.6c0,0,0.1-0.4-0.3-0.5l-2.8-1l-7.5-2.5l-2.8-1c-0.4-0.1-0.5,0.3-0.5,0.3l-2.7,7.9
				c-0.1,0.4,0.3,0.5,0.3,0.5l2.8,0.9l7.5,2.5l2.8,0.9c0,0,0.4,0.1,0.5-0.3L268.8,37.6z"/>
		</g>
		<path fill="#008372" d="M351,39.7l8.5,0.1L360,39l-5.6-4.1l-5.6-4.1l-0.6,0.8L351,39.7z M353.8,47.5l5.1-6.9l-8.5,0l-2.6-8.1
			l-5.1,6.9l5.6,4.1L353.8,47.5z"/>
		<g>
			<path fill="#008372" d="M84.7,44.6l6.5-2.7L90,40.6c0,0-0.2-0.1-0.3,0l-4.8,2c0,0-0.2,0.1-0.2,0.3L84.7,44.6z"/>
			<path fill="#008372" d="M91.7,43.2c0,0-0.2-0.4-0.6-0.2l-2.8,1.1l-7.3,3l-2.8,1.1c-0.4,0.2-0.2,0.6-0.2,0.6l3.2,7.7
				c0.2,0.4,0.6,0.2,0.6,0.2l2.8-1.1l7.3-3l2.8-1.1c0,0,0.4-0.2,0.2-0.6L91.7,43.2z"/>
		</g>
		<path fill="#008372" d="M175.1,7.9l6-6l-0.2-1L174.1,2l-6.8,1.2l0.2,1L175.1,7.9z M182.7,11.3l-1.5-8.5l-6,6.1l-7.7-3.8l1.5,8.5
			l6.8-1.2L182.7,11.3z"/>
	</g>
</g>
<g id="Layer_2">
</g>
<g id="Layer_3">
</g>
<g id="Layer_4">
</g>
</svg>
