<?xml version="1.0" encoding="utf-8"?>
<!-- Generator: Adobe Illustrator 19.2.1, SVG Export Plug-In . SVG Version: 6.00 Build 0)  -->
<svg version="1.1" xmlns="http://www.w3.org/2000/svg" xmlns:xlink="http://www.w3.org/1999/xlink" x="0px" y="0px"
	 viewBox="0 0 209 311" enable-background="new 0 0 209 311" xml:space="preserve">
<g id="Layer_1">
</g>
<g id="Layer_2">
	<g>
		<path opacity="0.1" d="M14.7,293.5c0.5,0,0.9,0.1,1.3,0.1v-0.1h132.7v0.1c5.3,0.5,9.5,4.2,9.5,8.6c0,4.8-4.8,8.7-10.8,8.7
			c-0.8,0-132,0-132.7,0c-6,0-10.8-3.9-10.8-8.7C3.9,297.4,8.8,293.5,14.7,293.5"/>
		<g>
			<path fill="#FDF59C" d="M0.1,168.3l0,0.3c0,3.9,3.1,7.1,7,7.1c3.9,0,7-3.2,7-7.1l0-0.3h0l0-7.3l-14,0L0.1,168.3L0.1,168.3"/>
			<polygon fill="#436BB3" points="84,298.3 70.9,285.2 53.6,285.2 53.6,302.3 84,302.3 			"/>
			<polygon fill="#436BB3" points="57.4,298.3 44.3,285.2 27,285.2 27,302.3 57.4,302.3 			"/>
			<rect x="53.6" y="173.9" fill="#A98864" width="17.1" height="111.3"/>
			<polygon fill="#385A99" points="61.8,302.3 57.4,302.3 57.4,298.3 53.6,294.5 53.6,285.2 61.8,285.2 			"/>
			<polygon fill="#385A99" points="57.4,302.3 53.6,302.3 53.6,294.5 57.4,298.3 			"/>
			<rect x="53.6" y="178.9" fill="#8E7154" width="8.2" height="106.3"/>
			<rect x="27" y="173.9" fill="#A98864" width="17.1" height="111.3"/>
			<rect x="27" y="285.2" fill="#385A99" width="8.2" height="17.1"/>
			<rect x="27" y="178.9" fill="#8E7154" width="8.2" height="106.3"/>
			<path fill="#B8D433" d="M68.7,118.5c7.4-4.7,8.3-26.8,8.4-34.6v-2.7l0-29.4l-61.8,0l0,127.1h61.8l0-23.1
				C77.1,124.4,68.7,118.5,68.7,118.5"/>
			<path fill="#436BB3" d="M77.1,81.2v2.7C77.1,82.2,77.1,81.2,77.1,81.2"/>
			<path fill="#3DB4DC" d="M77.1,155.3C77.1,155.3,77.1,155.2,77.1,155.3C77.1,155.2,77.1,155.3,77.1,155.3 M77.1,155.4L77.1,155.4
				L77.1,155.4 M77.1,155.5L77.1,155.5L77.1,155.5 M77.1,155.6L77.1,155.6L77.1,155.6 M77.1,155.6L77.1,155.6L77.1,155.6
				 M77.1,155.8L77.1,155.8L77.1,155.8"/>
			<path fill="#A8BA2B" d="M77.1,178.9H61.8h-8.2H35.1H27H15.3l0-93l61,54.9c0.5,4.1,0.7,8.8,0.8,14.4c0,0,0,0,0,0.1v0v0v0v0.1v0
				v0.1v0v0.1v0v0.1L77.1,178.9"/>
			<g>
				<path fill="#B8D433" d="M62.2,74.5c-0.1-0.6-0.3-1.2-0.4-1.8l14.4-2.8c0.1,0.5,0.2,1.1,0.3,1.5c2.3,10.5,6.8,17,12.5,21.7
					c5.7,4.7,12.9,7.4,20.4,8.8c14.9,2.8,30.5,0,33.6-0.7c0.4-0.1,0.6-0.1,0.6-0.1l0,0l3.3,14.3c0,0-0.3,0.1-0.9,0.2
					c-3.1,0.6-13.4,2.6-26.1,2.2c-12.6-0.5-27.9-3.2-40.3-13.2C71.5,97.9,65,88,62.2,74.7L62.2,74.5"/>
				<path fill="#FCF4A1" d="M154,113.8l0.3,0c3.9-0.8,6.5-4.7,5.6-8.7c-0.8-4-4.7-6.5-8.7-5.6l-0.3,0.1l0,0l-7.4,1.6l3,14.3
					L154,113.8L154,113.8z"/>
			</g>
			<path fill="#FDF59C" d="M56.6,31.9l-0.4,1l-1.4,3.4h-9.5l0,10.2l0,5.3l5.5,5.6l5.8-5.6v-3.2l0-5.7c0.2-2.9,0.9-8.8,5-10.1
				L56.6,31.9z"/>
			<polygon fill="#13284B" points="48.1,60.8 39.7,51.8 40,51.5 48.1,60.2 50.9,57.5 53.4,60 61.5,51.7 61.8,51.9 53.4,60.5 
				50.9,58 			"/>
			<path fill="#13284B" d="M52.5,178.9h-0.4c0-12.1,0.6-24.9,1.2-37.2c1.4-28.1,2.8-57.3-2.7-84l0.3-0.1c5.5,26.8,4.1,55.9,2.7,84.1
				C53.2,154,52.5,166.8,52.5,178.9"/>
			<path fill="#13284B" d="M55,67.8c-0.8,0-1.4-0.6-1.4-1.4c0-0.8,0.6-1.4,1.4-1.4c0.8,0,1.4,0.6,1.4,1.4
				C56.4,67.2,55.8,67.8,55,67.8 M55,65.4c-0.6,0-1.1,0.5-1.1,1c0,0.6,0.5,1.1,1.1,1.1c0.6,0,1.1-0.5,1.1-1.1
				C56.1,65.8,55.6,65.4,55,65.4"/>
			<path fill="#13284B" d="M57.5,86.1c-0.8,0-1.4-0.6-1.4-1.4c0-0.8,0.6-1.4,1.4-1.4c0.8,0,1.4,0.6,1.4,1.4
				C58.9,85.4,58.3,86.1,57.5,86.1 M57.5,83.6c-0.6,0-1.1,0.5-1.1,1.1c0,0.6,0.5,1.1,1.1,1.1c0.6,0,1.1-0.5,1.1-1.1
				C58.5,84.1,58.1,83.6,57.5,83.6"/>
			<path fill="#13284B" d="M57.5,105.6c-0.8,0-1.4-0.6-1.4-1.4c0-0.8,0.6-1.4,1.4-1.4c0.8,0,1.4,0.6,1.4,1.4
				C58.9,105,58.3,105.6,57.5,105.6 M57.5,103.2c-0.6,0-1.1,0.5-1.1,1c0,0.6,0.5,1.1,1.1,1.1c0.6,0,1.1-0.5,1.1-1.1
				C58.5,103.7,58.1,103.2,57.5,103.2"/>
			<path fill="#13284B" d="M57.5,126.2c-0.8,0-1.4-0.6-1.4-1.4c0-0.8,0.6-1.4,1.4-1.4c0.8,0,1.4,0.6,1.4,1.4
				C58.9,125.6,58.3,126.2,57.5,126.2 M57.5,123.8c-0.6,0-1.1,0.5-1.1,1.1c0,0.6,0.5,1.1,1.1,1.1c0.6,0,1.1-0.5,1.1-1.1
				C58.5,124.2,58.1,123.8,57.5,123.8"/>
			<path fill="#13284B" d="M56.2,148.1c-0.8,0-1.4-0.6-1.4-1.4s0.6-1.4,1.4-1.4c0.8,0,1.4,0.6,1.4,1.4S57,148.1,56.2,148.1
				 M56.2,145.6c-0.6,0-1.1,0.5-1.1,1.1c0,0.6,0.5,1.1,1.1,1.1c0.6,0,1.1-0.5,1.1-1.1C57.3,146.1,56.8,145.6,56.2,145.6"/>
			<path fill="#9C4F96" d="M53.4,80.7c0,0,12.8-24.8-12.1-37.6C41.4,43.1,28.6,67.9,53.4,80.7"/>
			<path fill="#9C4F96" d="M35.3,18.9c1.7,0.8,3,1.3,4.1,3.2c1.5,2.6,2.2,6.1,3.1,9.1c1.7,5.4,4.3,14-1.2,15.8
				c-4.9,1.6-7.9-6.2-12-8.5c-4.4-2.5-9.2-1.8-9.3-9.4c-0.1-7.5,5.6-11.7,10-14.2L35.3,18.9z"/>
			<path fill="#010101" d="M53.5,26.6c0.2,0.7-0.2,1.3-0.9,1.5c-0.7,0.2-1.3-0.2-1.5-0.9c-0.2-0.6,0.2-1.3,0.9-1.5
				C52.7,25.5,53.3,25.9,53.5,26.6"/>
			<polygon fill="#FDF59C" points="58.1,18.1 65.5,30.1 58.2,32.1 			"/>
			<path fill="#FDF59C" d="M28.9,16.5l9,21.5c2,2.9,4.2,5.1,6.4,6.9c4.4,2.7,11.3,4.2,21.7,0L63.7,37l-4.1-14.9L56,9L28.9,16.5z"/>
			<path fill="#9C4F96" d="M38.4,23.9c1.8-3.2,3.9-3,7.3-4.2c4.1-1.4,10.1-6,10.3-10.8l-0.1-0.3C53.9,0.9,42.2-2,37,3.4
				c-1.6,1.7-2.9,2.5-5.2,3.1C29.9,7,28.5,7.6,27.2,9c-1.5,1.6-1.8,5.5-0.4,7.9l-0.7,0.5l3.2,11.3C33.1,27.7,36.3,27.4,38.4,23.9"/>
			<path fill="#FDF59C" d="M37.7,25.3c-3.4,0.2-6.1,3.1-5.9,6.5c0.2,3.4,3.1,6.1,6.5,5.9L37.7,25.3z"/>
			<path fill="#FFD566" d="M37.9,28.4c-1.7,0.1-3,1.5-3,3.3c0.1,1.7,1.5,3,3.3,3L37.9,28.4z"/>
			<path fill="#B8D433" d="M0,161C0,95.4,15.1,52.5,15.3,52v0l13.1,4.6c0,0-0.8,2.4-2.2,7.2c-1.4,4.8-3.2,11.9-5,21
				c-3.6,18.2-7.3,44.4-7.3,76.2H0z"/>
			<path fill="#FDF59C" d="M0.1,168.3l0,0.3c0,3.9,3.1,7.1,7,7.1c3.9,0,7-3.2,7-7.1l0-0.3h0l0-7.3l-14,0L0.1,168.3L0.1,168.3z"/>
			<path fill="#231F20" d="M108.1,102.7c-0.1,0.9,0.6,1.8,1.5,1.9l40.6,4.1c0.9,0.1,1.8-0.6,1.9-1.5l2.6-26.1
				c0.1-0.9-0.6-1.8-1.5-1.9l-40.6-4.1c-0.9-0.1-1.8,0.6-1.9,1.5L108.1,102.7z"/>
			<path fill="#747474" d="M129.8,104.3c0,0.5,0.3,0.9,0.8,0.9c0.5,0,0.9-0.3,0.9-0.8c0-0.5-0.3-0.9-0.8-0.9
				C130.2,103.5,129.8,103.9,129.8,104.3"/>
			
				<rect x="121" y="71.9" transform="matrix(9.990975e-002 -0.995 0.995 9.990975e-002 28.1457 212.4176)" fill="#7F7F7F" width="20.9" height="37.6"/>
			<g>
				<path fill="#FFFFFF" d="M137.8,96.1l-14.1-1.4c-0.1,0-0.2,0-0.3,0.1c-0.1,0.1-0.1,0.1-0.1,0.2l-0.1,1.5l14.8,1.5l0.1-1.5
					c0-0.1,0-0.2-0.1-0.3C137.9,96.2,137.9,96.1,137.8,96.1z"/>
				<polygon fill="#FFFFFF" points="129.5,87.6 130,82.2 134,82.6 133.5,88 137.5,88.4 130.9,94.5 125.5,87.2 				"/>
			</g>
		</g>
		<path fill="none" stroke="#17244E" stroke-width="0.6266" stroke-miterlimit="10" d="M54.6,24.7c0,0-0.4-1.1-2.2-0.7
			c-1.8,0.4-1.8,2-1.8,2"/>
		<g>
			<g>
				<path fill="#FDF59C" d="M49,168.3l0,0.3c0,3.9,3.1,7.1,7,7.1c3.9,0,7-3.2,7-7.1l0-0.3h0l0-7.3l-14,0L49,168.3L49,168.3"/>
				<polygon fill="#436BB3" points="132.9,298.3 119.8,285.2 102.5,285.2 102.5,302.3 132.9,302.3 				"/>
				<polygon fill="#436BB3" points="106.3,298.3 93.2,285.2 75.9,285.2 75.9,302.3 106.3,302.3 				"/>
				<rect x="102.5" y="173.9" fill="#9C4F96" width="17.1" height="111.3"/>
				<polygon fill="#385A99" points="110.7,302.3 106.3,302.3 106.3,298.3 102.5,294.5 102.5,285.2 110.7,285.2 				"/>
				<polygon fill="#385A99" points="106.3,302.3 102.5,302.3 102.5,294.5 106.3,298.3 				"/>
				<rect x="102.5" y="178.9" fill="#672A7A" width="8.2" height="106.3"/>
				<rect x="75.9" y="173.9" fill="#9C4F96" width="17.1" height="111.3"/>
				<rect x="75.9" y="285.2" fill="#385A99" width="8.2" height="17.1"/>
				<rect x="75.9" y="178.9" fill="#672A7A" width="8.2" height="106.3"/>
				<path fill="#1EA3DD" d="M117.6,118.5c7.4-4.7,8.3-26.8,8.4-34.6v-2.7l0-29.4l-61.8,0l0,127.1l61.8,0l0-23.1
					C126,124.4,117.6,118.5,117.6,118.5"/>
				<path fill="#436BB3" d="M126,81.2v2.7C126,82.2,126,81.2,126,81.2"/>
				<path fill="#3DB4DC" d="M126,155.3C126,155.3,126,155.2,126,155.3C126,155.2,126,155.3,126,155.3 M126,155.4L126,155.4
					L126,155.4 M126,155.5L126,155.5L126,155.5 M126,155.6L126,155.6L126,155.6 M126,155.6L126,155.6L126,155.6 M126,155.8
					L126,155.8L126,155.8"/>
				<path fill="#2172B9" d="M126,178.9h-15.3h-8.2H84h-8.2l-11.7,0l0-93l61,54.9c0.5,4.1,0.7,8.8,0.8,14.4c0,0,0,0,0,0.1v0v0v0v0.1
					v0v0.1v0v0.1v0v0.1L126,178.9"/>
				<path fill="#1EA3DD" d="M111.1,74.5c-0.1-0.6-0.3-1.2-0.4-1.8l14.4-2.8c0.1,0.5,0.2,1.1,0.3,1.5c2.3,10.5,6.8,17,12.5,21.7
					c5.7,4.7,12.9,7.4,20.4,8.8c14.9,2.8,30.5,0,33.6-0.7c0.4-0.1,0.6-0.1,0.6-0.1l0,0l3.3,14.3c0,0-0.3,0.1-0.9,0.2
					c-3.1,0.6-13.4,2.6-26.1,2.2c-12.6-0.5-27.9-3.2-40.3-13.2c-8.2-6.6-14.7-16.6-17.5-29.8L111.1,74.5"/>
				<path fill="#FDB813" d="M202.9,113.8l0.3,0c3.9-0.8,6.5-4.7,5.6-8.7c-0.8-4-4.7-6.5-8.7-5.6l-0.3,0.1l0,0l-7.4,1.6l3,14.3
					L202.9,113.8L202.9,113.8z"/>
				<path fill="#FDB813" d="M105.5,31.9l-0.4,1l-1.4,3.4h-9.5v10.2l0,5.3l5.5,5.6l5.8-5.6v-3.2l0-5.7c0.2-2.9,0.9-8.8,5-10.1
					L105.5,31.9z"/>
				<polygon fill="#13284B" points="97,60.8 88.7,51.8 88.9,51.5 97,60.2 99.8,57.5 102.4,60 110.5,51.7 110.7,51.9 102.4,60.5 
					99.8,58 				"/>
				<path fill="#13284B" d="M101.5,178.9h-0.4c0-12.1,0.6-24.9,1.2-37.2c1.4-28.1,2.8-57.3-2.7-84l0.3-0.1
					c5.5,26.8,4.1,55.9,2.7,84.1C102.1,154,101.5,166.8,101.5,178.9"/>
				<path fill="#13284B" d="M103.9,67.8c-0.8,0-1.4-0.6-1.4-1.4c0-0.8,0.6-1.4,1.4-1.4c0.8,0,1.4,0.6,1.4,1.4
					C105.4,67.2,104.7,67.8,103.9,67.8 M103.9,65.4c-0.6,0-1.1,0.5-1.1,1c0,0.6,0.5,1.1,1.1,1.1c0.6,0,1.1-0.5,1.1-1.1
					C105,65.8,104.5,65.4,103.9,65.4"/>
				<path fill="#13284B" d="M106.4,86.1c-0.8,0-1.4-0.6-1.4-1.4c0-0.8,0.6-1.4,1.4-1.4c0.8,0,1.4,0.6,1.4,1.4
					C107.8,85.4,107.2,86.1,106.4,86.1 M106.4,83.6c-0.6,0-1.1,0.5-1.1,1.1c0,0.6,0.5,1.1,1.1,1.1c0.6,0,1.1-0.5,1.1-1.1
					C107.5,84.1,107,83.6,106.4,83.6"/>
				<path fill="#13284B" d="M106.4,105.6c-0.8,0-1.4-0.6-1.4-1.4c0-0.8,0.6-1.4,1.4-1.4c0.8,0,1.4,0.6,1.4,1.4
					C107.8,105,107.2,105.6,106.4,105.6 M106.4,103.2c-0.6,0-1.1,0.5-1.1,1c0,0.6,0.5,1.1,1.1,1.1c0.6,0,1.1-0.5,1.1-1.1
					C107.5,103.7,107,103.2,106.4,103.2"/>
				<path fill="#13284B" d="M106.4,126.2c-0.8,0-1.4-0.6-1.4-1.4c0-0.8,0.6-1.4,1.4-1.4c0.8,0,1.4,0.6,1.4,1.4
					S107.2,126.2,106.4,126.2 M106.4,123.8c-0.6,0-1.1,0.5-1.1,1.1c0,0.6,0.5,1.1,1.1,1.1c0.6,0,1.1-0.5,1.1-1.1
					C107.5,124.2,107,123.8,106.4,123.8"/>
				<path fill="#13284B" d="M105.2,148.1c-0.8,0-1.4-0.6-1.4-1.4s0.6-1.4,1.4-1.4c0.8,0,1.4,0.6,1.4,1.4S106,148.1,105.2,148.1
					 M105.2,145.6c-0.6,0-1.1,0.5-1.1,1.1c0,0.6,0.5,1.1,1.1,1.1c0.6,0,1.1-0.5,1.1-1.1C106.2,146.1,105.8,145.6,105.2,145.6"/>
				<path fill="#4F504F" d="M90.4,18.2c1.7,0.9,2.9,1.4,4,3.3c1.5,2.7,2.1,6.1,3,9.1c1.6,5.4,4,14-1.5,15.7
					c-4.9,1.5-7.8-6.3-11.8-8.8C79.7,35,75,35.6,75,28c0-7.5,5.8-11.6,10.2-14L90.4,18.2z"/>
				<path fill="#010101" d="M108.5,26.2c0.2,0.7-0.2,1.3-0.9,1.5c-0.7,0.2-1.3-0.2-1.5-0.9c-0.2-0.7,0.2-1.3,0.9-1.5
					C107.7,25.1,108.3,25.5,108.5,26.2"/>
				<polygon fill="#FDB813" points="113.2,17.8 120.5,29.9 113.1,31.8 				"/>
				<path fill="#FDB813" d="M84,15.7l8.6,21.7c1.9,2.9,4.1,5.2,6.3,7c4.3,2.8,11.2,4.4,21.7,0.4l-2.1-8l-3.9-15l-3.4-13.1L84,15.7z"
					/>
				<path fill="#4F504F" d="M93.4,23.3c1.9-3.1,4-2.9,7.4-4c4.1-1.3,10.2-5.8,10.5-10.6l-0.1-0.3c-1.9-7.8-13.5-10.9-18.8-5.6
					c-1.7,1.7-2.9,2.4-5.3,3c-1.9,0.5-3.3,1.1-4.7,2.4c-1.6,1.5-1.9,5.5-0.5,7.9l-0.7,0.5l2.9,11.3C88,26.9,91.3,26.7,93.4,23.3"/>
				<path fill="#FDB813" d="M92.7,24.6c-3.4,0.1-6.2,3-6.1,6.4c0.1,3.4,3,6.1,6.4,6L92.7,24.6z"/>
				<path fill="#FFD566" d="M92.8,27.7c-1.7,0-3.1,1.5-3,3.2c0.1,1.7,1.5,3.1,3.2,3L92.8,27.7z"/>
				<path fill="#1EA3DD" d="M48.9,161C48.9,95.4,64,52.5,64.2,52v0l13.1,4.6c0,0-0.8,2.4-2.2,7.2c-1.4,4.8-3.2,11.9-5,21
					c-3.6,18.2-7.3,44.4-7.3,76.2H48.9z"/>
				<path fill="#FDB813" d="M49,168.3l0,0.3c0,3.9,3.1,7.1,7,7.1c3.9,0,7-3.2,7-7.1l0-0.3h0l0-7.3l-14,0L49,168.3L49,168.3z"/>
				<path fill="#231F20" d="M157,102.7c-0.1,0.9,0.6,1.8,1.5,1.9l40.6,4.1c0.9,0.1,1.8-0.6,1.9-1.5l2.6-26.1
					c0.1-0.9-0.6-1.8-1.5-1.9l-40.6-4.1c-0.9-0.1-1.8,0.6-1.9,1.5L157,102.7z"/>
				<path fill="#747474" d="M178.7,104.3c0,0.5,0.3,0.9,0.8,0.9c0.5,0,0.9-0.3,0.9-0.8c0-0.5-0.3-0.9-0.8-0.9
					C179.1,103.5,178.7,103.9,178.7,104.3"/>
				
					<rect x="170" y="71.9" transform="matrix(9.990999e-002 -0.995 0.995 9.990999e-002 72.1862 261.1019)" fill="#7F7F7F" width="20.9" height="37.6"/>
				<g>
					<path fill="#FFFFFF" d="M186.9,96.2c0.1,0.1,0.1,0.2,0.1,0.3l-0.1,1.5l-14.8-1.5l0.1-1.5c0-0.1,0.1-0.2,0.1-0.2
						c0.1-0.1,0.2-0.1,0.3-0.1l14.1,1.4C186.8,96.1,186.9,96.2,186.9,96.2z"/>
					<polygon fill="#FFFFFF" points="174.4,87.2 179.8,94.5 186.4,88.4 182.4,88 182.9,82.6 178.9,82.2 178.4,87.6 					"/>
				</g>
			</g>
			<path fill="none" stroke="#17244E" stroke-width="0.6266" stroke-miterlimit="10" d="M111.5,22.8c0,0-0.4-1.1-2.2-0.7
				c-1.8,0.4-1.8,2-1.8,2"/>
		</g>
	</g>
</g>
<g id="Layer_3">
</g>
<g id="Layer_4">
</g>
</svg>
