<?xml version="1.0" encoding="utf-8"?>
<!-- Generator: Adobe Illustrator 19.2.1, SVG Export Plug-In . SVG Version: 6.00 Build 0)  -->
<svg version="1.1" xmlns="http://www.w3.org/2000/svg" xmlns:xlink="http://www.w3.org/1999/xlink" x="0px" y="0px"
	 viewBox="0 0 202 106" enable-background="new 0 0 202 106" xml:space="preserve">
<g id="Layer_1">
</g>
<g id="Layer_2">
</g>
<g id="Layer_3">
</g>
<g id="Layer_4">
	<g>
		<g>
			
				<ellipse transform="matrix(0.9966 -8.264276e-002 8.264276e-002 0.9966 -3.6263 2.5833)" fill="#E6E6E6" cx="29.4" cy="45.1" rx="7" ry="7"/>
			
				<ellipse transform="matrix(0.9966 -8.264276e-002 8.264276e-002 0.9966 -4.3074 1.1764)" fill="#E6E6E6" cx="12.1" cy="52.6" rx="4.9" ry="4.9"/>
			
				<ellipse transform="matrix(0.9966 -8.264276e-002 8.264276e-002 0.9966 -5.3456 0.5386)" fill="#E6E6E6" cx="3.8" cy="64.8" rx="3.4" ry="3.4"/>
		</g>
		<g>
			<path fill="#E6E6E6" d="M143.5,28c-2.1-6.9-9.5-12-18.4-12c-0.1,0-0.1,0-0.2,0v0c0-8.7-8.4-15.7-18.9-15.7
				c-7.2,0-13.5,3.4-16.6,8.3c-1.9-0.6-3.9-0.9-6-0.9c-9.8,0-17.7,6.6-17.7,14.8c0,0,0,0.1,0,0.1c-0.8-0.1-1.6-0.1-2.4-0.1
				c-11.1,0-20.1,7.5-20.1,16.8c0,9.3,9,16.8,20.1,16.8l73.7,0l0,0c9.6,0,17.4-6.5,17.4-14.5C154.5,35.3,149.9,30.1,143.5,28"/>
			<path fill="#E6E6E6" d="M143.5,78c-2.1,6.9-9.5,12-18.4,12c-0.1,0-0.1,0-0.2,0v0c0,8.7-8.4,15.7-18.9,15.7
				c-7.2,0-13.5-3.4-16.6-8.3c-1.9,0.6-3.9,0.9-6,0.9c-9.8,0-17.7-6.6-17.7-14.8c0,0,0-0.1,0-0.1c-0.8,0.1-1.6,0.1-2.4,0.1
				c-11.1,0-20.1-7.5-20.1-16.8c0-9.3,9-16.8,20.1-16.8l73.7,0l0,0c9.6,0,17.4,6.5,17.4,14.5C154.5,70.7,149.9,75.9,143.5,78"/>
			<path fill="#E6E6E6" d="M101.3,28c2.1-6.9,9.5-12,18.4-12c0.1,0,0.1,0,0.2,0v0c0-8.7,8.4-15.7,18.9-15.7c7.2,0,13.5,3.4,16.6,8.3
				c1.9-0.6,3.9-0.9,6-0.9c9.8,0,17.7,6.6,17.7,14.8c0,0,0,0.1,0,0.1c0.8-0.1,1.6-0.1,2.4-0.1c11.1,0,20.1,7.5,20.1,16.8
				c0,9.3-9,16.8-20.1,16.8l-73.7,0l0,0c-9.6,0-17.4-6.5-17.4-14.5C90.3,35.3,94.9,30.1,101.3,28"/>
			<path fill="#E6E6E6" d="M101.3,78c2.1,6.9,9.5,12,18.4,12c0.1,0,0.1,0,0.2,0v0c0,8.7,8.4,15.7,18.9,15.7c7.2,0,13.5-3.4,16.6-8.3
				c1.9,0.6,3.9,0.9,6,0.9c9.8,0,17.7-6.6,17.7-14.8c0,0,0-0.1,0-0.1c0.8,0.1,1.6,0.1,2.4,0.1c11.1,0,20.1-7.5,20.1-16.8
				c0-9.3-9-16.8-20.1-16.8l-73.7,0l0,0c-9.6,0-17.4,6.5-17.4,14.5C90.3,70.7,94.9,75.9,101.3,78"/>
		</g>
		<g>
			<path fill="#F58B21" d="M82.4,32.7v2.8h-1.3v-7.7h2.3c0.9,0,1.6,0.2,2.1,0.6c0.5,0.4,0.7,1,0.7,1.7c0,0.7-0.3,1.4-0.8,1.8
				c-0.5,0.5-1.2,0.7-2.1,0.7H82.4z M82.4,28.8v2.8h0.8c0.5,0,1-0.1,1.3-0.4c0.3-0.3,0.4-0.6,0.4-1.1c0-0.9-0.5-1.4-1.6-1.4H82.4z"
				/>
			<path fill="#F58B21" d="M91.9,35.5h-4.3v-7.7h4.2v1.1h-2.9V31h2.6v1.1h-2.6v2.3h3V35.5z"/>
			<path fill="#F58B21" d="M99.2,35.5h-1.5l-1.2-2.1c-0.1-0.2-0.2-0.4-0.3-0.5c-0.1-0.1-0.2-0.2-0.3-0.3s-0.2-0.1-0.4-0.2
				c-0.1,0-0.3-0.1-0.4-0.1h-0.5v3.1h-1.3v-7.7h2.5c0.4,0,0.7,0,1,0.1c0.3,0.1,0.6,0.2,0.8,0.4s0.4,0.4,0.5,0.6
				c0.1,0.3,0.2,0.6,0.2,0.9c0,0.3,0,0.5-0.1,0.7c-0.1,0.2-0.2,0.4-0.3,0.6c-0.1,0.2-0.3,0.3-0.5,0.5c-0.2,0.1-0.4,0.2-0.7,0.3v0
				c0.1,0.1,0.3,0.2,0.4,0.3c0.1,0.1,0.2,0.2,0.3,0.3c0.1,0.1,0.2,0.2,0.3,0.3c0.1,0.1,0.2,0.3,0.3,0.4L99.2,35.5z M94.5,28.8v2.5
				h1.1c0.2,0,0.4,0,0.5-0.1c0.2-0.1,0.3-0.1,0.4-0.3c0.1-0.1,0.2-0.3,0.3-0.4c0.1-0.2,0.1-0.3,0.1-0.6c0-0.4-0.1-0.7-0.3-0.9
				c-0.2-0.2-0.6-0.3-1-0.3H94.5z"/>
			<path fill="#F58B21" d="M99.7,35.1v-1.3c0.1,0.1,0.3,0.2,0.4,0.3s0.3,0.2,0.5,0.2c0.2,0.1,0.4,0.1,0.5,0.1s0.4,0,0.5,0
				c0.5,0,0.9-0.1,1.2-0.3c0.3-0.2,0.4-0.4,0.4-0.8c0-0.2,0-0.3-0.1-0.5c-0.1-0.1-0.2-0.3-0.4-0.4c-0.2-0.1-0.3-0.2-0.6-0.3
				c-0.2-0.1-0.4-0.2-0.7-0.3c-0.3-0.1-0.5-0.3-0.7-0.4c-0.2-0.1-0.4-0.3-0.6-0.5c-0.2-0.2-0.3-0.4-0.4-0.6
				c-0.1-0.2-0.1-0.5-0.1-0.8c0-0.4,0.1-0.7,0.2-0.9s0.4-0.5,0.6-0.7c0.3-0.2,0.6-0.3,0.9-0.4c0.3-0.1,0.7-0.1,1-0.1
				c0.8,0,1.4,0.1,1.8,0.3v1.3c-0.4-0.3-1-0.5-1.7-0.5c-0.2,0-0.4,0-0.6,0.1c-0.2,0-0.4,0.1-0.5,0.2c-0.1,0.1-0.3,0.2-0.4,0.3
				s-0.1,0.3-0.1,0.5c0,0.2,0,0.3,0.1,0.4c0.1,0.1,0.2,0.2,0.3,0.3c0.1,0.1,0.3,0.2,0.5,0.3c0.2,0.1,0.4,0.2,0.7,0.3
				c0.3,0.1,0.5,0.3,0.8,0.4c0.2,0.2,0.4,0.3,0.6,0.5c0.2,0.2,0.3,0.4,0.4,0.6s0.2,0.5,0.2,0.8c0,0.4-0.1,0.7-0.2,1
				c-0.2,0.3-0.4,0.5-0.6,0.7c-0.3,0.2-0.6,0.3-0.9,0.4c-0.3,0.1-0.7,0.1-1.1,0.1c-0.1,0-0.3,0-0.5,0c-0.2,0-0.4,0-0.6-0.1
				c-0.2,0-0.4-0.1-0.6-0.1S99.8,35.2,99.7,35.1z"/>
			<path fill="#F58B21" d="M109.2,35.6c-1.1,0-2-0.4-2.7-1.1s-1-1.7-1-2.8c0-1.2,0.3-2.2,1-3c0.7-0.7,1.6-1.1,2.8-1.1
				c1.1,0,2,0.4,2.6,1.1c0.7,0.7,1,1.7,1,2.8c0,1.3-0.3,2.3-1,3S110.4,35.6,109.2,35.6z M109.3,28.7c-0.7,0-1.3,0.3-1.7,0.8
				s-0.7,1.2-0.7,2.1c0,0.9,0.2,1.5,0.6,2.1c0.4,0.5,1,0.8,1.7,0.8c0.7,0,1.3-0.2,1.7-0.7c0.4-0.5,0.6-1.2,0.6-2.1
				c0-0.9-0.2-1.6-0.6-2.1C110.6,29,110,28.7,109.3,28.7z"/>
			<path fill="#F58B21" d="M120.9,35.5h-1.4l-3.7-5.7c-0.1-0.1-0.2-0.3-0.2-0.4h0c0,0.2,0,0.5,0,1.1v5h-1.2v-7.7h1.5l3.6,5.5
				c0.2,0.2,0.2,0.4,0.3,0.5h0c0-0.2-0.1-0.5-0.1-1v-5h1.2V35.5z"/>
			<path fill="#F58B21" d="M129.1,35.5h-1.4l-0.7-2h-3l-0.7,2H122l2.9-7.7h1.4L129.1,35.5z M126.7,32.4l-1.1-3.1
				c0-0.1-0.1-0.3-0.1-0.5h0c0,0.2-0.1,0.4-0.1,0.5l-1.1,3.1H126.7z"/>
			<path fill="#F58B21" d="M134.5,35.5h-4.3v-7.7h1.3v6.6h3V35.5z"/>
			<path fill="#F58B21" d="M138.6,35.5v-7.7h2.2c2.8,0,4.3,1.3,4.3,3.8c0,1.2-0.4,2.1-1.2,2.9s-1.8,1.1-3.2,1.1H138.6z M139.9,28.8
				v5.5h1c0.9,0,1.6-0.2,2.1-0.7c0.5-0.5,0.7-1.2,0.7-2.1c0-1.8-0.9-2.7-2.8-2.7H139.9z"/>
			<path fill="#F58B21" d="M152.6,35.5h-1.4l-0.7-2h-3l-0.7,2h-1.4l2.9-7.7h1.4L152.6,35.5z M150.2,32.4l-1.1-3.1
				c0-0.1-0.1-0.3-0.1-0.5h0c0,0.2-0.1,0.4-0.1,0.5l-1.1,3.1H150.2z"/>
			<path fill="#F58B21" d="M157.9,28.8h-2.2v6.6h-1.3v-6.6h-2.2v-1.1h5.7V28.8z"/>
			<path fill="#F58B21" d="M164.5,35.5h-1.4l-0.7-2h-3l-0.7,2h-1.4l2.9-7.7h1.4L164.5,35.5z M162.1,32.4l-1.1-3.1
				c0-0.1-0.1-0.3-0.1-0.5h0c0,0.2-0.1,0.4-0.1,0.5l-1.1,3.1H162.1z"/>
		</g>
		<g>
			<path fill="#F68C1F" d="M122.9,47.2v11.7h14.4V47.2H122.9z M136.3,57.9h-12.6v-9.9h12.6V57.9z"/>
			<rect x="119.3" y="48.8" fill="#E2E2E2" stroke="#E6E6E6" stroke-miterlimit="10" width="16.1" height="13.9"/>
			<g>
				<path fill="#F68C1F" d="M120,50v11.7h14.4V50H120z M133.5,60.8h-12.6v-9.9h12.6V60.8z M129.9,53.2c0,0.7,0.6,1.3,1.3,1.3
					c0.7,0,1.3-0.6,1.3-1.3c0-0.7-0.6-1.3-1.3-1.3C130.5,51.8,129.9,52.4,129.9,53.2z M132.6,59.9h-10.8l2.7-7.2l3.6,4.5l1.8-1.3
					L132.6,59.9z"/>
			</g>
		</g>
		<g>
			<g id="gmail_11_">
				<path fill="#F58B21" d="M169.2,64.4h-13.6c-0.9,0-1.7,0.8-1.7,1.7v10.2c0,0.9,0.8,1.7,1.7,1.7h13.6c0.9,0,1.7-0.8,1.7-1.7V66.1
					C170.9,65.2,170.1,64.4,169.2,64.4z M169.2,76.4h-1.7v-7.5l-5.1,3.2l-5.1-3.2v7.5h-1.7V66.1h1l5.8,3.6l5.8-3.6h1V76.4z"/>
			</g>
		</g>
		<path fill="#F58B21" d="M73.1,57.6v8.9c0,0.4-0.2,0.8-0.6,1.3c-0.4,0.5-1,0.8-1.6,1c-0.8,0.3-1.5,0.3-2.1,0.1
			c-0.7-0.2-1.1-0.6-1.3-1.1c-0.2-0.5-0.1-1.1,0.4-1.6c0.4-0.6,1-1,1.8-1.2c0.7-0.2,1.4-0.3,2-0.1V54.8c0-0.1,0-0.2,0.1-0.3
			c0.1-0.1,0.2-0.2,0.2-0.2l11-2.8c0.1,0,0.2,0,0.2,0c0.1,0.1,0.1,0.1,0.1,0.2v12.9c0,0.5-0.2,1-0.6,1.4c-0.4,0.4-0.9,0.7-1.6,0.9
			c-0.8,0.2-1.5,0.3-2.2,0.1c-0.7-0.2-1.1-0.6-1.2-1.1c-0.2-0.5-0.1-1.1,0.4-1.6c0.4-0.6,1-1,1.8-1.2c0.7-0.2,1.4-0.3,2-0.1v-7.6
			L73.1,57.6z"/>
		<path fill="#F58B21" d="M104,75.3c0.4-0.6,0.9-1,1.4-1.3c0.5-0.3,1-0.5,1.5-0.5c0.5,0,1,0.1,1.5,0.3c0.5,0.2,0.9,0.5,1.3,0.8
			c0.4,0.4,0.7,0.8,0.9,1.3c0.2,0.5,0.3,1,0.3,1.6c0,0.5-0.1,1-0.4,1.5c-0.3,0.5-0.7,1-1.2,1.6c-0.5,0.5-1,1.1-1.6,1.6
			c-0.6,0.5-1.2,1.2-1.9,1.9c-0.7,0.8-1.3,1.5-1.9,2.2c-0.5-0.7-1.1-1.5-1.8-2.2c-0.7-0.8-1.3-1.4-1.9-1.9c-0.6-0.5-1.1-1.1-1.6-1.6
			c-0.5-0.5-0.9-1.1-1.2-1.6c-0.3-0.5-0.4-1-0.4-1.5c0-0.5,0.1-1.1,0.4-1.6c0.2-0.5,0.5-0.9,0.9-1.3c0.4-0.4,0.8-0.6,1.3-0.8
			c0.5-0.2,1-0.3,1.5-0.3c0.5,0,1,0.2,1.5,0.5C103.2,74.2,103.6,74.7,104,75.3z"/>
	</g>
</g>
</svg>
