<?xml version="1.0" encoding="utf-8"?>
<!-- Generator: Adobe Illustrator 19.2.1, SVG Export Plug-In . SVG Version: 6.00 Build 0)  -->
<svg version="1.1" xmlns="http://www.w3.org/2000/svg" xmlns:xlink="http://www.w3.org/1999/xlink" x="0px" y="0px"
	 viewBox="0 0 744 452" enable-background="new 0 0 744 452" xml:space="preserve">
<g id="Layer_1">
</g>
<g id="Layer_2">
</g>
<g id="Layer_3">
</g>
<g id="Layer_4">
	<g>
		<rect x="202.2" y="131.5" fill="#A98864" width="4" height="35"/>
		<rect x="209.1" y="101.7" fill="#A98864" width="4" height="58"/>
		<rect x="289.4" y="101.7" fill="#A98864" width="4" height="58"/>
		<rect x="296.2" y="131.5" fill="#A98864" width="4" height="35"/>
		<rect x="202.2" y="130.4" fill="#B8D433" width="98.1" height="8"/>
		<rect x="202.2" y="100.6" fill="#B8D433" width="98.1" height="8"/>
		<rect x="202.2" y="112.6" fill="#B8D433" width="98.1" height="8"/>
	</g>
	<g>
		<path fill="#B8D433" d="M173.7,69.2c0,12.8-10.3,23.1-23.1,23.1c-12.8,0-23.1-10.3-23.1-23.1c0-12.8,10.3-23.1,23.1-23.1
			C163.3,46.1,173.7,56.4,173.7,69.2"/>
		<polygon fill="#A98864" points="153.2,85.4 152.6,77.8 164.7,61.2 152.3,73.6 151.7,66.5 158.6,57.2 151.6,64.2 150.6,51.6 
			149.8,64.3 142.8,57.2 149.7,66.7 149.2,73.8 136.6,61.2 149,78.1 148.5,85.8 139.9,77.1 148.3,88.7 147.2,106.8 154.8,106.8 
			153.4,88.2 161.5,77.1 		"/>
		<path fill="#B8D433" d="M193,81.6c0,8-6.5,14.5-14.5,14.5c-8,0-14.5-6.5-14.5-14.5c0-8,6.5-14.5,14.5-14.5
			C186.5,67.1,193,73.6,193,81.6"/>
		<polygon fill="#A98864" points="180.1,91.8 179.7,87 187.4,76.6 179.5,84.4 179.2,80 183.5,74.1 179.1,78.5 178.5,70.6 178,78.5 
			173.5,74.1 177.9,80 177.6,84.5 169.7,76.6 177.4,87.2 177.2,92 171.7,86.6 177,93.9 176.3,105.3 181.1,105.3 180.2,93.6 
			185.3,86.6 		"/>
		<path fill="#B8D433" d="M173.7,69.2c0,12.8-10.3,23.1-23.1,23.1c-12.8,0-23.1-10.3-23.1-23.1c0-12.8,10.3-23.1,23.1-23.1
			C163.3,46.1,173.7,56.4,173.7,69.2"/>
		<polygon fill="#A98864" points="153.2,85.4 152.6,77.8 164.7,61.2 152.3,73.6 151.7,66.5 158.6,57.2 151.6,64.2 150.6,51.6 
			149.8,64.3 142.8,57.2 149.7,66.7 149.2,73.8 136.6,61.2 149,78.1 148.5,85.8 139.9,77.1 148.3,88.7 147.2,106.8 154.8,106.8 
			153.4,88.2 161.5,77.1 		"/>
	</g>
	<path opacity="0.1" d="M602.1,402.2c-0.5,0-0.9,0.1-1.3,0.1v-0.1l-212.7,0v0.1c-5.3,0.5-9.5,4.2-9.5,8.6c0,4.8,4.8,8.7,10.8,8.7
		c0.8,0,212,0,212.7,0c6,0,10.8-3.9,10.8-8.7C612.9,406.1,608.1,402.2,602.1,402.2"/>
	
		<line fill="none" stroke="#BBBDBF" stroke-width="15.0251" stroke-linecap="round" stroke-miterlimit="10" x1="423.1" y1="32.4" x2="254.1" y2="419.6"/>
	<path fill="#7F7F7F" d="M438.3,399h30.8c-2.7,0.2-4.8,2.5-4.8,5.3c0,2.9,2.4,5.3,5.3,5.3c2.9,0,5.3-2.4,5.3-5.3
		c0-2.8-2.1-5-4.8-5.3h1.2v0h5.1c0,0,3.2,0,3.2-3.2V393c0,0,0-3.2-3.2-3.2h-29.6v-29.5h29.6c3.2,0,3.2-3.2,3.2-3.2v-11.4
		c0-3.2-3.2-3.2-3.2-3.2h-35.3v-24.4h23.7c3.2,0,3.2-3.2,3.2-3.2V271c0-3.2-3.2-3.2-3.2-3.2h-49.4h-7.4c-3.2,0-3.2,3.2-3.2,3.2v44.1
		c0,3.2,3.2,3.2,3.2,3.2h7.4h7.5v24.4h-14.9c-3.2,0-3.2,3.2-3.2,3.2v11.4c0,3.2,3.2,3.2,3.2,3.2h17.3h14.2v19.4h-3.3v10.1h-28.3
		c0,0-3.2,0-3.2,3.2v2.8c0,0,0,3.2,3.2,3.2h4.1h2.9v0h19.6H438.3 M436.5,399.2c-0.3-0.1-0.5-0.1-0.8-0.2h1.7
		C437.1,399,436.8,399.1,436.5,399.2"/>
	<path fill="#7F7F7F" d="M406.9,404.3c0,2.9,2.4,5.3,5.3,5.3c2.9,0,5.3-2.4,5.3-5.3c0-2.9-2.4-5.3-5.3-5.3
		C409.3,399,406.9,401.3,406.9,404.3"/>
	<polygon fill="#672A7A" points="518.8,406.2 507.1,394.5 491.6,394.5 491.6,409.5 518.8,409.5 	"/>
	<polygon fill="#672A7A" points="415.6,328.2 415.6,342.7 491.6,342.7 491.6,394.5 506.9,394.5 507,328.2 	"/>
	<rect x="470.3" y="328.7" fill="#672A7A" width="15.3" height="65.8"/>
	<polygon fill="#672A7A" points="497.4,406.2 485.7,394.5 470.3,394.5 470.3,409.5 497.4,409.5 	"/>
	<path fill="#F89420" d="M483.4,277.1c0.1,0,0.1,0,0.2,0c3.1-0.1,5.6-2.6,5.5-5.7c-0.1-3.1-2.6-5.5-5.8-5.5c-0.1,0-0.1,0-0.2,0l0,0
		l-5.8,0.1l0.2,11.2L483.4,277.1L483.4,277.1z"/>
	<path fill="#9C4F96" d="M478.6,265.1c-1.3-10.4-2.4-19.3-8.2-25.3l-10.9,10.7c2.2,2.3,3.1,9.2,3.9,16.5
		C465.5,283.2,480.4,279.9,478.6,265.1z"/>
	<path fill="#9C4F96" d="M452.9,328.7l2.8,5.9l17.4,0.4l-4.2-81.3l1.4-14l-17.8-6.1h-16.6l-15.9,3.9l-6.3,97.6l0,0l8.8-0.1l25.4,0
		L452.9,328.7z"/>
	<path fill="#F89420" d="M453.5,225.3l-3.9-1.4l-1.3,3.2l-12.4-1.9l1,13.5l12.1,9.7l2.1-16.2C451.2,230.2,450.5,226.2,453.5,225.3"
		/>
	<polygon fill="#672A7A" points="434.2,232.3 438.3,232.3 444.4,256.1 451.7,232.3 454.7,232.3 457.7,242.4 455.5,244.6 
		457.7,246.8 444.4,288.1 431.2,246.8 433.4,244.6 431.2,242.4 	"/>
	<polygon fill="#FFFFFF" points="440.8,233.6 444.4,243.5 449.1,233.6 452.9,230.5 452.9,238.5 444.4,272.6 436,238.5 436,230.5 	
		"/>
	<polygon fill="#672A7A" points="419.8,320.8 437.6,315 437.6,310.2 419.8,315.9 	"/>
	<polygon fill="#672A7A" points="472.2,317.6 464.3,315 464.3,310.2 471.9,312.6 	"/>
	<polygon fill="#9C4F96" points="433.4,244.6 444.4,256.1 457.7,242.4 465.4,244.7 458.5,298.3 428.7,297.6 423.8,245.9 	"/>
	<polygon fill="#9A8D78" points="451.9,200.5 462.4,212.3 454.9,216 	"/>
	<path fill="#010101" d="M448,206.7c0.3,0.5,0,1.2-0.5,1.5c-0.5,0.3-1.2,0-1.4-0.5c-0.3-0.5,0-1.2,0.5-1.5
		C447.1,206,447.8,206.2,448,206.7"/>
	<polygon fill="#F89420" points="451.9,200.5 462.4,212.3 454.9,216 	"/>
	<path fill="#F89420" d="M423.1,202.9l8.3,17.3l0.1,0c6.9,12.5,19.4,11.3,32.3,5l-0.6-1.2l-4.7-9.8l-5.9-12.3l-5.2-10.8L423.1,202.9
		"/>
	<path fill="#1D4483" d="M448,206.7c0.3,0.5,0,1.2-0.5,1.5c-0.5,0.3-1.2,0-1.4-0.5c-0.3-0.5,0-1.2,0.5-1.5
		C447.1,206,447.8,206.2,448,206.7"/>
	<path fill="#FFD566" d="M447.4,191.1l-0.2,0.1L447.4,191.1c-2.9-6.6-13.6-7.4-17.4-1.9c-1.2,1.7-2.1,2.6-4,3.5
		c-1.5,0.7-2.6,1.5-3.6,2.9c-0.8,1.2-0.7,3.4,0,5.2c-8.7,5.3,12.4,24.1,12.4,24.1c4.5-7.2-0.6-17.3-0.6-17.3
		c0.1-0.3,0.3-0.5,0.4-0.8c1.1-3,2.9-3.2,5.6-4.7C443.6,200.3,448.1,195.3,447.4,191.1"/>
	<path fill="#F89420" d="M434.3,207.6c-3,1.5-4.3,5.1-2.8,8.1c1.4,3,5.1,4.3,8.1,2.8L434.3,207.6"/>
	<polyline fill="#D17E29" points="438.2,215.9 435.6,210.4 435.6,210.4 438.2,215.9 438.2,215.9 	"/>
	<path fill="#D6751E" d="M436.9,216.2c-1.1,0-2.2-0.6-2.7-1.7c-0.7-1.5-0.1-3.3,1.4-4.1l2.6,5.5
		C437.8,216.1,437.4,216.2,436.9,216.2"/>
	<g>
		<rect x="437.1" y="272.6" fill="#FFFFFF" width="2.6" height="12.6"/>
		<polygon fill="#FFFFFF" points="451.5,274.7 447.8,274.7 447.8,285.2 445.2,285.2 445.2,274.7 441.5,274.7 441.5,272.6 
			451.5,272.6 		"/>
		<path fill="#FFFFFF" d="M455.7,285.7l-12.1,7.1l-12.4-7.1v-13.9l12.1-7.1l12.4,7.1V285.7z M443.4,262.3l-14.2,8.2V287l14.5,8.2
			l14.2-8.2v-16.6L443.4,262.3z"/>
	</g>
	<g>
		<g>
			<rect x="467.7" y="273.4" fill="#0A72BA" width="71.2" height="6.9"/>
			<rect x="492.6" y="239.3" fill="#0A72BA" width="46.3" height="36.7"/>
			<rect x="467.7" y="273.4" fill="#0556A5" width="28.9" height="6.9"/>
			<rect x="492.6" y="239.3" fill="#0556A5" width="4.1" height="34.1"/>
			<rect x="515.7" y="259.5" fill="#233E7B" width="5.9" height="5.9"/>
		</g>
		<g>
			<rect x="484.4" y="292.6" fill="#7F7F7F" width="10.9" height="120.5"/>
			<polygon fill="#4F504F" points="495.3,413.1 489.8,413.1 489.8,292.6 489.7,292.6 495.3,292.6 495.3,328.2 495.3,394.5 
				495.3,404.1 495.3,409.5 			"/>
			<rect x="586.3" y="292.6" fill="#7F7F7F" width="10.9" height="120.5"/>
			<rect x="531.8" y="292.6" fill="#7F7F7F" width="10.9" height="120.5"/>
			<rect x="463.9" y="280.2" fill="#7F7F7F" width="143.2" height="12.4"/>
			<polygon fill="#4F504F" points="597,413.1 591.6,413.1 591.6,292.6 586.3,292.6 597.1,292.6 597,292.6 			"/>
			<rect x="551.8" y="292.6" fill="#7F7F7F" width="10.9" height="120.5"/>
			<polygon fill="#4F504F" points="562.5,413.1 557.1,413.1 557.1,292.6 551.8,292.6 562.6,292.6 562.5,292.6 			"/>
			<polygon fill="#4F504F" points="542.6,413.1 537.1,413.1 537.1,292.6 531.8,292.6 542.7,292.6 542.6,292.6 			"/>
			<polygon fill="#7F7F7F" points="595.4,292.6 595.4,292.6 590.9,292.6 572.9,292.6 568.5,292.6 546.3,292.6 523.5,292.6 
				508.6,292.6 506.3,292.6 506.3,280.2 595.4,280.2 			"/>
		</g>
	</g>
	<g>
		<path fill="#F89420" d="M411.5,325.4c0.1,0.1,0.1,0.1,0.1,0.2c2.2,2.2,5.7,2.3,7.9,0.2c2.2-2.1,2.2-5.7,0.1-7.9
			c-0.1-0.1-0.1-0.1-0.2-0.1l0,0l-4.1-4.2l-8,7.8L411.5,325.4L411.5,325.4z"/>
		<g>
			<path fill="#9C4F96" d="M407.4,323.8l13.3-10.3c-5.5-5.7-10.8-19.1-10.9-27c-0.1-11.8,8.8-30.9,19.3-36.2l-2.5-13.5
				c-0.6,0.3-5.5,0.5-6,0.8c-14.8,8.2-24.9,31.9-24.8,48.9C395.9,298.3,399.2,315.2,407.4,323.8z"/>
		</g>
	</g>
</g>
</svg>
