<?xml version="1.0" encoding="utf-8"?>
<!-- Generator: Adobe Illustrator 19.2.1, SVG Export Plug-In . SVG Version: 6.00 Build 0)  -->
<svg version="1.1" xmlns="http://www.w3.org/2000/svg" xmlns:xlink="http://www.w3.org/1999/xlink" x="0px" y="0px"
	 viewBox="0 0 744 452" enable-background="new 0 0 744 452" xml:space="preserve">
<g id="Layer_1">
</g>
<g id="Layer_2">
</g>
<g id="Layer_3">
	<path opacity="0.1" d="M94.2,408.4c0.5,0,0.9,0.1,1.3,0.1v-0.1h232.7v0.1c5.3,0.5,9.5,4.2,9.5,8.6c0,4.8-4.8,8.7-10.8,8.7
		c-0.8,0-232,0-232.7,0c-6,0-10.8-3.9-10.8-8.7C83.4,412.3,88.2,408.4,94.2,408.4"/>
	<g>
		<rect x="172.9" y="302.3" fill="#B8D433" width="66.3" height="7.9"/>
		<rect x="172.9" y="302.3" opacity="0.15" fill="#B8D433" width="28.1" height="7.9"/>
	</g>
	<polygon fill="#B8D433" points="311.4,310.2 311.4,323.5 174.4,323.5 174.4,417.1 162.8,417.1 162.8,323.5 115.8,323.5 
		115.8,417.1 104.2,417.1 104.2,323.5 104.2,322.4 104.2,310.2 	"/>
	<polygon opacity="0.1" points="168.6,310.2 168.6,322.2 168.6,323.5 168.6,417.1 162.8,417.1 162.8,323.5 110,323.5 110,417.1 
		104.2,417.1 104.2,323.5 104.2,322.2 104.2,310.2 	"/>
	<path fill="#AABC2B" d="M266,226l0,67.4c0,0,0,4.8-4.8,4.8h-85c0,0-4.8,0-4.8-4.8V226c0,0,0-4.8,4.8-4.8l85,0
		C261.2,221.2,266,221.2,266,226z"/>
	<path fill="#B8D433" d="M272.6,226v67.4c0,0,0,4.8-4.8,4.8H181c0,0-4.8,0-4.8-4.8V226c0,0,0-4.8,4.8-4.8l86.7,0
		C267.7,221.2,272.6,221.2,272.6,226z"/>
	<rect x="181" y="226" fill="#E2E2E2" width="86.7" height="57.8"/>
	<path opacity="0.15" d="M267.7,298.4l-86.8,0c0,0-4.8,0-4.8-4.5v-4.5l96.4-53.9l0,58.4C272.5,293.9,272.5,298.4,267.7,298.4z"/>
	<g>
		<path fill="#FDB813" d="M264.6,212.9l5.4-0.2l1.1,4.7l13.1,1.8l-5.9,42.5l-15-2.1l5-35.7C268.6,220.9,268.7,214.8,264.6,212.9"/>
		<polygon fill="#FDB813" points="288.8,208.9 292.5,223 284.7,222.8 		"/>
		<path fill="#FDB813" d="M257.6,198.4l-2.3,13l2.2,4.2c0,1.1-0.2-2.7,0-1.6l5.2,8.6c1.1,3.5,2.5,6.3,4.2,8.8
			c3.5,4,9.9,7.6,21.5,6.6l1.1-38.6L257.6,198.4z"/>
		<path fill="#1D4583" d="M281.7,215.9c0,0.7-0.6,1.3-1.3,1.2c-0.7,0-1.3-0.6-1.2-1.3c0-0.7,0.6-1.3,1.3-1.2
			C281.2,214.6,281.7,215.2,281.7,215.9"/>
		<path fill="#6E573E" d="M249.9,200.3c0.8-6.2,3-12.8,7.7-16.3c1.4,3.3,4.8,7.1,4.4,9.4c0,0.2,7,6.2,0.8,18.3c0,0,4.6-0.1-0.2,8.7
			C262.6,220.5,248,218.2,249.9,200.3"/>
		<path fill="#6E573E" d="M288.8,199.1l4.9-2.8c-4.9-8.9-14-5.8-14-5.8l4.6-6.2c-11.1-3.3-17.9,6.2-17.9,6.2l3.4-8.2
			c-15.6,1.3-18.3,15.5-18.3,15.5l-0.4,12.4l6.4,5.3l8.3-3.6l-0.2,2.3l3.5-0.5c9.1-2.6,11.2-8.1,11.2-8.1l-1.1,4.4
			c5.9-1.7,8.2-4.2,8.9-6.3l3.3,1.7C292.4,201.8,290.1,199.9,288.8,199.1"/>
		<path fill="#FDB813" d="M266.7,209.2c-3.6-0.1-6.5,2.7-6.6,6.3c-0.1,3.6,2.7,6.5,6.3,6.6L266.7,209.2z"/>
		<path fill="#F68C1F" d="M266.3,212.5c-1.7,0-3.1,1.4-3.1,3.1c0,1.7,1.4,3.1,3.1,3.1L266.3,212.5z"/>
	</g>
	<g opacity="0.15">
		<rect x="230.7" y="285.4" transform="matrix(0.8734 -0.487 0.487 0.8734 -111.6241 152.2308)" width="12.5" height="10.9"/>
	</g>
	<rect x="239.2" y="241.9" fill="#9C4F96" width="67.2" height="98.2"/>
	<polygon opacity="0.1" points="239.2,328.5 239.2,303.2 306.4,250 306.4,328.5 	"/>
	<polygon fill="#672A7A" points="238.9,413.5 251.4,401 268,401 268,417.3 238.9,417.3 	"/>
	<polygon fill="#17244E" points="230.5,401 230.5,331.3 214.1,331.3 214.1,401 230.5,401 	"/>
	<polygon fill="#17244E" points="268,401 268,328.4 251.6,328.4 251.6,401 268,401 	"/>
	<polygon fill="#17244E" points="214.1,344.9 285.2,344.9 285.2,328.5 214.1,328.5 214.1,344.9 	"/>
	<path fill="#FDB813" d="M229.3,301.4c-0.1,0-0.1,0.1-0.2,0.1c-2.6,1.5-6,0.7-7.5-1.9c-1.5-2.6-0.6-5.9,2-7.5c0.1,0,0.1-0.1,0.2-0.1
		l0,0l4.9-2.9l5.5,9.4L229.3,301.4L229.3,301.4z"/>
	<path fill="#FAB223" d="M162.2,271.9c-0.1,0-0.1-0.1-0.2-0.1c-2.2-1.9-2.5-5.2-0.7-7.4c1.9-2.2,5.2-2.5,7.4-0.6
		c0.1,0,0.1,0.1,0.1,0.2l0,0l4.2,3.5l-6.8,8L162.2,271.9L162.2,271.9z"/>
	<path fill="#9C4F96" d="M173.2,280c-2.9-1.6-6-3.7-7.2-4.8l3.8-4.1l3.4-3.6c0.3,0.2,7.1,4.7,17.2,7.7c5.7,1.7,16,2,22.9-0.7
		c9.4-3.6,21.9-11,32.1-21.1l8.9,5.6c-4.2,14.2-26.6,23.2-36.4,26.9c-7.7,2.9-15.9,4.5-27,1.2C180.9,284.2,175.5,281.2,173.2,280z"
		/>
	<polygon fill="#672A7A" points="201.4,413.5 213.9,401 230.5,401 230.5,417.3 201.4,417.3 	"/>
	<g>
		
			<rect x="230.7" y="285.4" transform="matrix(0.8734 -0.487 0.487 0.8734 -111.6241 152.2308)" fill="#9C4F96" width="12.5" height="10.9"/>
	</g>
	<rect x="246" y="263.5" fill="#B8D433" width="66.5" height="91.7"/>
	<rect x="300.9" y="345.9" fill="#B8D433" width="11.6" height="71.4"/>
	<rect x="246" y="345.9" fill="#B8D433" width="11.6" height="71.4"/>
	<rect x="274.6" y="345.9" fill="#B8D433" width="11.6" height="71.4"/>
	<rect x="219.7" y="345.9" fill="#B8D433" width="11.6" height="71.4"/>
	<rect x="219.7" y="344.5" fill="#B8D433" width="45.5" height="10.7"/>
	<rect x="246" y="263.5" opacity="0.15" width="5.8" height="153.8"/>
	<rect x="225.6" y="355.2" opacity="0.15" width="5.8" height="62.1"/>
	<polygon opacity="0.1" points="251.8,328.4 312.5,289 312.5,355.2 306.7,355.2 306.7,417.3 300.9,417.3 300.9,355.2 286.3,355.2 
		286.3,417.3 280.4,417.3 280.4,355.2 251.8,355.2 	"/>
	<g>
		<path fill="#17244E" d="M149.2,257.3c0,0-0.3,0.5,0.2,0.9l21.4,14.4c0,0,0.5,0.3,0.9-0.2l6.9-10.2c0,0,0.3-0.5-0.2-0.9l-21.4-14.4
			c0,0-0.5-0.3-0.9,0.2l-6.3,9.3L149.2,257.3z"/>
		
			<rect x="159" y="251.8" transform="matrix(0.5587 -0.8294 0.8294 0.5587 -143.1837 251.1814)" fill="#1EBBEE" width="10.9" height="16.6"/>
	</g>
</g>
<g id="Layer_4">
</g>
</svg>
