<?xml version="1.0" encoding="utf-8"?>
<!-- Generator: Adobe Illustrator 19.2.1, SVG Export Plug-In . SVG Version: 6.00 Build 0)  -->
<svg version="1.1" xmlns="http://www.w3.org/2000/svg" xmlns:xlink="http://www.w3.org/1999/xlink" x="0px" y="0px"
	 viewBox="0 0 165 273" enable-background="new 0 0 165 273" xml:space="preserve">
<g id="Layer_1">
</g>
<g id="Layer_2">
</g>
<g id="Layer_3">
</g>
<g id="Layer_4">
	<g>
		<path opacity="0.1" d="M22.9,259.8c0.3,0,0.7,0.1,1,0.1v-0.1l93.6,0v0.1c4,0.4,7.2,3.1,7.2,6.5c0,3.6-3.6,6.6-8.1,6.6
			c-0.6,0-93.1,0-93.6,0c-4.5,0-8.1-2.9-8.1-6.6C14.7,262.7,18.3,259.8,22.9,259.8"/>
		<polygon fill="#1EBBEE" points="45.7,250.7 52.2,236 66.2,232.1 70.8,245.6 46.8,253.8 		"/>
		<polygon fill="#FDB813" points="66.5,232.9 58.2,194.3 76.5,151.4 63,145.7 42.9,192.8 52.2,236 52.2,236 66.5,232.9 		"/>
		<polygon fill="#9C4F96" points="61.8,148.6 67.5,147.6 76.5,151.4 66,176 52.6,170.1 		"/>
		<polygon opacity="0.1" points="50.7,193.7 62.5,248.5 46.8,253.8 45.7,250.7 52.2,236 59.4,234.5 52.2,236 52.2,236 42.9,192.8 
			52.6,170.1 58.5,156.2 66.7,155.3 		"/>
		<polygon fill="#FDB813" points="66.5,232.9 58.2,194.3 76.5,151.4 63,145.7 42.9,192.8 52.2,236 52.2,236 66.5,232.9 		"/>
		<polygon fill="#9C4F96" points="61.8,148.6 67.5,147.6 76.5,151.4 66,176 52.6,170.1 		"/>
		<polygon opacity="0.1" points="50.7,193.7 62.5,248.5 46.8,253.8 45.7,250.7 52.2,236 59.4,234.5 52.2,236 52.2,236 42.9,192.8 
			52.6,170.1 58.5,156.2 66.7,155.3 		"/>
		<polygon fill="#1EBBEE" points="73.6,250.7 80.2,236 94.2,232.1 98.8,245.6 74.7,253.8 		"/>
		<polygon fill="#FDB813" points="94.5,232.9 86.1,194.3 104.4,151.4 91,145.7 70.8,192.8 80.2,236 80.2,236 94.5,232.9 		"/>
		<polygon fill="#9C4F96" points="89.7,148.6 95.4,147.6 104.4,151.4 93.9,176 80.5,170.1 		"/>
		<polygon opacity="0.1" points="78.7,193.7 90.4,248.5 74.7,253.8 73.6,250.7 80.2,236 87.3,234.5 80.2,236 80.2,236 70.8,192.8 
			80.5,170.1 86.4,156.2 94.7,155.3 		"/>
		<polygon fill="#FDB813" points="94.5,232.9 86.1,194.3 104.4,151.4 91,145.7 70.8,192.8 80.2,236 80.2,236 94.5,232.9 		"/>
		<polygon fill="#9C4F96" points="89.7,148.6 95.4,147.6 104.4,151.4 93.9,176 80.5,170.1 		"/>
		<polygon opacity="0.1" points="78.7,193.7 90.4,248.5 74.7,253.8 73.6,250.7 80.2,236 87.3,234.5 80.2,236 80.2,236 70.8,192.8 
			80.5,170.1 88.6,151.2 96.2,151.7 		"/>
		<path fill="#FDB813" d="M11,14.6c2.7-0.4,5.3,1.5,5.7,4.2c0,0.1,0,0.2,0,0.2l0.8,5.1l0,0l4.5,29.9l32.7-3.3l1,10L13.6,65L7.6,25.7
			l0,0l-0.8-5.1c0,0,0-0.1,0-0.2C6.4,17.6,8.3,15,11,14.6z"/>
		<path opacity="0.1" d="M11,14.6c-2.7,0.4-4.6,3-4.2,5.7c0,0.1,0,0.2,0,0.2l0.8,5.1l0,0L13.6,65l42.2-4.2l-0.5-4.5L17.9,60L11,14.6
			z"/>
		<path fill="#FDB813" d="M163.2,44.4c-2.1-1.9-5.2-1.7-7.1,0.4c0,0.1-0.1,0.1-0.1,0.1l-3.5,3.9l0,0l-20.2,22.5l-25.5-20.7l-6.3,7.8
			l32.9,26.7L160,55.5l0,0l3.5-3.9c0,0,0.1-0.1,0.1-0.2C165.5,49.4,165.3,46.2,163.2,44.4z"/>
		<path opacity="0.1" d="M163.2,44.4c2.1,1.9,2.2,5,0.4,7.1c0,0.1-0.1,0.2-0.1,0.2l-3.5,3.9l0,0l-26.6,29.6l-32.9-26.7l2.9-3.5
			l29.3,23.7L163.2,44.4z"/>
		<path fill="#FDB813" d="M55,81.9l-0.2-16.2c0-0.8,0-2.1,0-2.1l-0.1-12.8l52.1-0.1l0.1,10.2c-0.4,6.1-1.2,15.5-1.6,21.1L55,81.9z"
			/>
		<path fill="#FDB813" d="M73.3,37.1l4.6-0.4l0.4,3.8l7.5,2l-3.3,12.3l-9-2.4l1.9-7C76,43.1,76.3,39,73.3,37.1z"/>
		<path d="M73.8,26.1c-0.1,0.5,0.2,1.1,0.7,1.2c0.5,0.1,1.1-0.2,1.2-0.7c0.1-0.5-0.2-1.1-0.7-1.2C74.5,25.2,73.9,25.5,73.8,26.1"/>
		<polygon fill="#FDB813" points="69.3,21.2 61.9,33.4 69.3,35.4 		"/>
		<path fill="#FDB813" d="M95.4,18.5l-4.5,16.7l-0.1,0c-4.1,12.2-15.4,13.2-28,9.8l0.3-1.1l2.5-9.5l3.2-11.9l2.8-10.4L95.4,18.5z"/>
		<path fill="none" d="M55,81.9c0-0.7,0-1.4-0.1-2c0,0,0,0,0.1,0L55,81.9z"/>
		<path fill="#9C4F96" d="M63.6,70.2l-0.1-16.9c0-0.9-0.1-1.7-0.4-2.6l7,0c1.2,4.2,5,7.2,9.6,7.2c4.5,0,8.2-3.1,9.4-7.3l8.4,0
			c-0.3,0.9-0.4,1.8-0.4,2.7l0.1,16.9c0,4.8,3.6,8.8,8.3,9.5c0.5,24.4,0.8,42.9,0.8,42.9c4.4,14.1,0.9,35.8,0.9,35.8l-49.6-3.9
			c0,0-0.3-20.1,1.4-30.4c0,0-3.1-21.4-3.9-42.3l0-2C59.9,79.4,63.7,75.2,63.6,70.2z"/>
		<path opacity="0.1" d="M105.5,79.8l0.8,42.9c4.4,14.1,0.9,35.8,0.9,35.8l-49.6-3.9c0,0-0.3-20.1,1.4-30.4l-0.4-2.9L105.5,79.8z"/>
		<path fill="#6E573E" d="M86.7,5.3c1.5,1.3,2.6,1.9,4.6,2.4c1.6,0.3,2.8,0.8,4.1,1.9c1.2,1,1.6,3.6,1.1,5.6c5.1,2,10.6,3.8,11.3,10
			c0.7,6.6-3.8,7.8-8.6,10.1c-4.4,2.1-7,8.9-12.7,7.6c-1.7-0.4-2.8-1.2-3.4-2.2c1.5-1.4,3-3.2,4.3-5.3c-1.2-4.8-1.6-7.8-1.2-9.4
			c-0.3-0.3-2.6-1.9-2.8-2.3c-0.3-0.4-1.7-1.6-2-1.9c-1.5-1.5,0.5-0.6-2-1.3c-3.6-1-8.1-5.3-8.5-9.3l0.1,0l-0.1,0c0-0.1,0-0.2,0-0.2
			l0,0C72.1,4.2,81.9,1,86.7,5.3"/>
		<path fill="#6E573E" d="M82.9,40.6c0,0,25,0.3,24.7,25.2C107.6,65.9,82.6,65.6,82.9,40.6"/>
		<path fill="#EA0B8C" d="M71.4,13.2l29,21.5c-1.4,0.8-3.7,2.3-4.5,3L70.1,18.1C70.1,18.1,71.3,13.4,71.4,13.2z"/>
		<path fill="#FDB813" d="M85,29.9c2.9,0.8,4.7,3.8,3.9,6.7c-0.8,2.9-3.8,4.7-6.7,3.9L85,29.9z"/>
		<path fill="#F68C1F" d="M84.3,32.5c1.5,0.4,2.3,1.9,1.9,3.4c-0.4,1.5-1.9,2.3-3.4,1.9L84.3,32.5z"/>
		<g>
			<path fill="#4F504F" d="M29.2,24.9c0.2,0.3,0.1,0.7-0.2,0.9l-11.7,7.7c-0.3,0.2-0.7,0.1-0.9-0.2L0.2,8.8C0,8.5,0.1,8.1,0.4,7.9
				l11.7-7.7C12.4,0,12.8,0,12.9,0.3L29.2,24.9z"/>
			
				<rect x="8.5" y="5.5" transform="matrix(0.8341 -0.5517 0.5517 0.8341 -6.916 10.9938)" fill="#F89420" width="12.6" height="23"/>
			<path fill="#959595" d="M8.9,4.5C9,4.6,9,4.8,8.8,4.8L6.2,6.6C6.1,6.6,6,6.6,5.9,6.5c-0.1-0.1,0-0.3,0.1-0.4l2.6-1.7
				C8.7,4.3,8.8,4.4,8.9,4.5"/>
		</g>
		<path fill="none" stroke="#17244E" stroke-width="0.6266" stroke-miterlimit="10" d="M70.3,26.4c0,0,0.5-1.1,2.3-0.4
			c1.8,0.7,1.5,2.2,1.5,2.2"/>
	</g>
</g>
</svg>
