<?xml version="1.0" encoding="utf-8"?>
<!-- Generator: Adobe Illustrator 19.2.1, SVG Export Plug-In . SVG Version: 6.00 Build 0)  -->
<svg version="1.1" xmlns="http://www.w3.org/2000/svg" xmlns:xlink="http://www.w3.org/1999/xlink" x="0px" y="0px"
	 viewBox="0 0 205 172" enable-background="new 0 0 205 172" xml:space="preserve">
<g id="Layer_1">
</g>
<g id="Layer_2">
</g>
<g id="Layer_3">
	<g>
		<g>
			<g>
				<path fill="#E6E6E6" d="M129.9,36.3c-2.7-8.9-12.3-15.4-23.7-15.4c-0.1,0-0.1,0-0.2,0v0C106,9.7,95.1,0.6,81.7,0.6
					c-9.3,0-17.3,4.3-21.4,10.7c-2.4-0.7-5-1.1-7.7-1.1c-12.6,0-22.8,8.5-22.8,19c0,0.1,0,0.1,0,0.2c-1-0.1-2.1-0.2-3.1-0.2
					c-14.3,0-25.9,9.7-25.9,21.6c0,11.9,11.6,21.6,25.9,21.6l94.9,0l0,0C134,72.3,144,64,144,53.6C144,45.8,138.2,39,129.9,36.3"/>
				<path fill="#E6E6E6" d="M129.9,100.7c-2.7,8.9-12.3,15.4-23.7,15.4c-0.1,0-0.1,0-0.2,0v0c0,11.2-10.9,20.2-24.3,20.2
					c-9.3,0-17.3-4.3-21.4-10.7c-2.4,0.7-5,1.1-7.7,1.1c-12.6,0-22.8-8.5-22.8-19c0-0.1,0-0.1,0-0.2c-1,0.1-2.1,0.2-3.1,0.2
					c-14.3,0-25.9-9.7-25.9-21.6c0-11.9,11.6-21.6,25.9-21.6l94.9,0l0,0c12.4,0,22.4,8.4,22.4,18.7C144,91.3,138.2,98,129.9,100.7"
					/>
				<path fill="#E6E6E6" d="M75.5,36.3c2.7-8.9,12.3-15.4,23.7-15.4c0.1,0,0.1,0,0.2,0v0c0-11.2,10.9-20.2,24.3-20.2
					c9.3,0,17.3,4.3,21.4,10.7c2.4-0.7,5-1.1,7.7-1.1c12.6,0,22.8,8.5,22.8,19c0,0.1,0,0.1,0,0.2c1-0.1,2.1-0.2,3.1-0.2
					c14.3,0,25.9,9.7,25.9,21.6c0,11.9-11.6,21.6-25.9,21.6l-94.9,0l0,0c-12.4,0-22.4-8.4-22.4-18.7C61.4,45.8,67.3,39,75.5,36.3"/>
				<path fill="#E6E6E6" d="M75.5,100.7c2.7,8.9,12.3,15.4,23.7,15.4c0.1,0,0.1,0,0.2,0v0c0,11.2,10.9,20.2,24.3,20.2
					c9.3,0,17.3-4.3,21.4-10.7c2.4,0.7,5,1.1,7.7,1.1c12.6,0,22.8-8.5,22.8-19c0-0.1,0-0.1,0-0.2c1,0.1,2.1,0.2,3.1,0.2
					c14.3,0,25.9-9.7,25.9-21.6c0-11.9-11.6-21.6-25.9-21.6l-94.9,0l0,0c-12.4,0-22.4,8.4-22.4,18.7C61.4,91.3,67.3,98,75.5,100.7"
					/>
			</g>
			
				<rect x="49" y="40.4" fill="#00B193" stroke="#FFFFFF" stroke-width="2.0472" stroke-miterlimit="10" width="116.6" height="64.8"/>
			<line fill="none" stroke="#FDB813" stroke-width="4.0045" stroke-miterlimit="10" x1="65.3" y1="35.6" x2="44.2" y2="56.7"/>
			<g>
				<path fill="#FFFFFF" d="M76,60h-1.4v-8.4H76V60z"/>
				<path fill="#FFFFFF" d="M78.5,60.1c-0.2,0-0.4-0.1-0.6-0.2s-0.2-0.3-0.2-0.6c0-0.2,0.1-0.4,0.2-0.6c0.2-0.2,0.4-0.2,0.6-0.2
					c0.2,0,0.4,0.1,0.6,0.2c0.2,0.2,0.3,0.3,0.3,0.6c0,0.2-0.1,0.4-0.3,0.6C78.9,60.1,78.7,60.1,78.5,60.1z"/>
				<path fill="#FFFFFF" d="M86.3,52.8h-2.4V60h-1.4v-7.2h-2.4v-1.2h6.2V52.8z"/>
				<path fill="#FFFFFF" d="M86.9,60.1c-0.2,0-0.4-0.1-0.6-0.2s-0.2-0.3-0.2-0.6c0-0.2,0.1-0.4,0.2-0.6c0.2-0.2,0.4-0.2,0.6-0.2
					c0.2,0,0.4,0.1,0.6,0.2c0.2,0.2,0.3,0.3,0.3,0.6c0,0.2-0.1,0.4-0.3,0.6C87.4,60.1,87.2,60.1,86.9,60.1z"/>
				<path fill="#FFFFFF" d="M94.1,57V60h-1.4v-8.4h2.6c1,0,1.7,0.2,2.2,0.7c0.5,0.5,0.8,1.1,0.8,1.9s-0.3,1.5-0.8,2
					c-0.6,0.5-1.3,0.8-2.3,0.8H94.1z M94.1,52.7v3.1H95c0.6,0,1.1-0.1,1.4-0.4c0.3-0.3,0.5-0.7,0.5-1.2c0-1-0.6-1.5-1.7-1.5H94.1z"
					/>
				<path fill="#FFFFFF" d="M103.2,60.2c-1.2,0-2.2-0.4-2.9-1.2s-1.1-1.8-1.1-3.1c0-1.4,0.4-2.4,1.1-3.2s1.8-1.2,3-1.2
					c1.2,0,2.1,0.4,2.9,1.2c0.7,0.8,1.1,1.8,1.1,3.1c0,1.4-0.4,2.5-1.1,3.3C105.4,59.8,104.4,60.2,103.2,60.2z M103.3,52.7
					c-0.8,0-1.4,0.3-1.9,0.9c-0.5,0.6-0.7,1.3-0.7,2.3c0,0.9,0.2,1.7,0.7,2.3c0.5,0.6,1.1,0.9,1.8,0.9c0.8,0,1.4-0.3,1.9-0.8
					c0.5-0.5,0.7-1.3,0.7-2.3c0-1-0.2-1.8-0.7-2.3C104.7,53,104.1,52.7,103.3,52.7z"/>
				<path fill="#FFFFFF" d="M113.5,60h-4.7v-8.4h1.4v7.2h3.3V60z"/>
				<path fill="#FFFFFF" d="M116.1,60h-1.4v-8.4h1.4V60z"/>
				<path fill="#FFFFFF" d="M124,59.7c-0.6,0.3-1.4,0.5-2.4,0.5c-1.2,0-2.2-0.4-2.9-1.2s-1.1-1.8-1.1-3c0-1.3,0.4-2.4,1.2-3.3
					s1.9-1.2,3.1-1.2c0.8,0,1.5,0.1,2,0.3v1.4c-0.6-0.3-1.2-0.5-1.9-0.5c-0.9,0-1.6,0.3-2.2,0.9c-0.6,0.6-0.8,1.4-0.8,2.3
					c0,0.9,0.3,1.7,0.8,2.2c0.5,0.5,1.2,0.8,2.1,0.8c0.8,0,1.5-0.2,2.1-0.6V59.7z"/>
				<path fill="#FFFFFF" d="M127.1,60h-1.4v-8.4h1.4V60z"/>
				<path fill="#FFFFFF" d="M133.9,60h-4.7v-8.4h4.5v1.2h-3.1v2.4h2.9v1.2h-2.9v2.5h3.3V60z"/>
				<path fill="#FFFFFF" d="M135,59.7v-1.4c0.1,0.1,0.3,0.2,0.5,0.3s0.4,0.2,0.6,0.2s0.4,0.1,0.6,0.1c0.2,0,0.4,0.1,0.6,0.1
					c0.6,0,1-0.1,1.3-0.3c0.3-0.2,0.4-0.5,0.4-0.8c0-0.2,0-0.4-0.1-0.5s-0.2-0.3-0.4-0.4c-0.2-0.1-0.4-0.2-0.6-0.3s-0.5-0.2-0.7-0.3
					c-0.3-0.2-0.6-0.3-0.8-0.5s-0.5-0.3-0.6-0.5c-0.2-0.2-0.3-0.4-0.4-0.6s-0.2-0.5-0.2-0.8c0-0.4,0.1-0.7,0.3-1
					c0.2-0.3,0.4-0.5,0.7-0.7c0.3-0.2,0.6-0.3,1-0.4c0.4-0.1,0.8-0.1,1.1-0.1c0.9,0,1.5,0.1,1.9,0.3v1.4c-0.5-0.3-1.1-0.5-1.8-0.5
					c-0.2,0-0.4,0-0.6,0.1c-0.2,0-0.4,0.1-0.6,0.2s-0.3,0.2-0.4,0.3c-0.1,0.1-0.2,0.3-0.2,0.5c0,0.2,0,0.3,0.1,0.5
					c0.1,0.1,0.2,0.3,0.3,0.4s0.3,0.2,0.6,0.3c0.2,0.1,0.5,0.2,0.8,0.3c0.3,0.2,0.6,0.3,0.8,0.5c0.3,0.2,0.5,0.4,0.7,0.6
					s0.4,0.4,0.5,0.7c0.1,0.2,0.2,0.5,0.2,0.8c0,0.4-0.1,0.8-0.3,1.1c-0.2,0.3-0.4,0.5-0.7,0.7c-0.3,0.2-0.6,0.3-1,0.4
					c-0.4,0.1-0.8,0.1-1.2,0.1c-0.1,0-0.3,0-0.5,0c-0.2,0-0.4-0.1-0.6-0.1s-0.4-0.1-0.6-0.1S135.1,59.8,135,59.7z"/>
			</g>
			<path fill="#E2E2E2" d="M64.2,83l2.2-2.2l2.2,2.2l6.3-6.3l2.2,2.2l-8.5,8.6L64.2,83z"/>
			<path fill="#E2E2E2" d="M87.3,83l2.2-2.2l2.2,2.2l6.3-6.3l2.2,2.2l-8.5,8.6L87.3,83z"/>
			<path fill="#E2E2E2" d="M110.4,83l2.2-2.2l2.2,2.2l6.3-6.3l2.2,2.2l-8.5,8.6L110.4,83z"/>
			<path fill="#E2E2E2" d="M133.5,83l2.2-2.2l2.2,2.2l6.3-6.3l2.2,2.2l-8.5,8.6L133.5,83z"/>
			<line fill="none" stroke="#FDB813" stroke-width="4.0045" stroke-miterlimit="10" x1="172.9" y1="90.8" x2="151.9" y2="111.9"/>
		</g>
		<g>
			<circle fill="#E6E6E6" cx="29.1" cy="140.4" r="7.5"/>
			<circle fill="#E6E6E6" cx="16.4" cy="157.8" r="5.3"/>
			<circle fill="#E6E6E6" cx="4" cy="167.7" r="3.7"/>
		</g>
	</g>
</g>
<g id="Layer_4">
</g>
</svg>
