<?xml version="1.0" encoding="utf-8"?>
<!-- Generator: Adobe Illustrator 19.2.1, SVG Export Plug-In . SVG Version: 6.00 Build 0)  -->
<svg version="1.1" xmlns="http://www.w3.org/2000/svg" xmlns:xlink="http://www.w3.org/1999/xlink" x="0px" y="0px"
	 viewBox="0 0 405.5 283.8" enable-background="new 0 0 405.5 283.8" xml:space="preserve">
<g id="Layer_1">
	<g>
		<g>
			<path fill="#E6E6E6" d="M197.4,147.7c-4.1-13.5-18.7-23.5-36.2-23.5c-0.1,0-0.2,0-0.3,0v0c0-17-16.6-30.9-37-30.9
				c-14.1,0-26.4,6.6-32.6,16.3c-3.7-1.1-7.6-1.7-11.7-1.7c-19.2,0-34.8,13-34.8,29c0,0.1,0,0.2,0,0.3c-1.5-0.1-3.1-0.3-4.7-0.3
				c-21.8,0-39.5,14.7-39.5,32.9c0,18.2,17.7,32.9,39.5,32.9l144.7,0l0,0c18.9,0,34.2-12.8,34.2-28.5
				C219,162.1,210,151.9,197.4,147.7"/>
			<path fill="#E6E6E6" d="M189.9,238.9c-3.3,11.1-15.3,19.3-29.6,19.3c-0.1,0-0.2,0-0.2,0v0c0,14-13.6,25.3-30.3,25.3
				c-11.6,0-21.6-5.4-26.7-13.3c-3,0.9-6.2,1.4-9.6,1.4c-15.7,0-28.5-10.6-28.5-23.7c0-0.1,0-0.1,0-0.2c-1.3,0.1-2.6,0.2-3.9,0.2
				c-17.9,0-32.3-12.1-32.3-27c0-14.9,14.5-26.9,32.3-26.9l118.4,0l0,0c15.5,0,28,10.5,28,23.3C207.5,227,200.2,235.4,189.9,238.9"
				/>
			<path fill="#E6E6E6" d="M114.5,147.7c4.1-13.5,18.7-23.5,36.2-23.5c0.1,0,0.2,0,0.3,0v0c0-17,16.6-30.9,37-30.9
				c14.1,0,26.4,6.6,32.6,16.3c3.7-1.1,7.6-1.7,11.7-1.7c19.2,0,34.8,13,34.8,29c0,0.1,0,0.2,0,0.3c1.5-0.1,3.1-0.3,4.7-0.3
				c21.8,0,39.5,14.7,39.5,32.9c0,18.2-17.7,32.9-39.5,32.9l-144.7,0l0,0c-18.9,0-34.2-12.8-34.2-28.5
				C93,162.1,101.9,151.9,114.5,147.7"/>
			<path fill="#E6E6E6" d="M122,238.9c3.3,11.1,15.3,19.3,29.6,19.3c0.1,0,0.2,0,0.2,0v0c0,14,13.6,25.3,30.3,25.3
				c11.6,0,21.6-5.4,26.7-13.3c3,0.9,6.2,1.4,9.6,1.4c15.7,0,28.5-10.6,28.5-23.7c0-0.1,0-0.1,0-0.2c1.3,0.1,2.6,0.2,3.9,0.2
				c17.9,0,32.3-12.1,32.3-27c0-14.9-14.5-26.9-32.3-26.9l-118.4,0l0,0c-15.5,0-28,10.5-28,23.3C104.4,227,111.7,235.4,122,238.9"/>
			<path fill="#E6E6E6" d="M197.4,136.2c-4.1,13.5-18.7,23.5-36.2,23.5c-0.1,0-0.2,0-0.3,0v0c0,17-16.6,30.9-37,30.9
				c-14.1,0-26.4-6.6-32.6-16.3c-3.7,1.1-7.6,1.7-11.7,1.7c-19.2,0-34.8-13-34.8-29c0-0.1,0-0.2,0-0.3c-1.5,0.1-3.1,0.3-4.7,0.3
				c-21.8,0-39.5-14.7-39.5-32.9c0-18.2,17.7-32.9,39.5-32.9l144.7,0l0,0c18.9,0,34.2,12.8,34.2,28.5C219,121.7,210,132,197.4,136.2
				"/>
			<path fill="#E6E6E6" d="M189.9,45c-3.3-11.1-15.3-19.3-29.6-19.3c-0.1,0-0.2,0-0.2,0v0c0-14-13.6-25.3-30.3-25.3
				c-11.6,0-21.6,5.4-26.7,13.3c-3-0.9-6.2-1.4-9.6-1.4c-15.7,0-28.5,10.6-28.5,23.7c0,0.1,0,0.1,0,0.2c-1.3-0.1-2.6-0.2-3.9-0.2
				c-17.9,0-32.3,12.1-32.3,27C28.7,77.9,43.2,90,61.1,90l118.4,0l0,0c15.5,0,28-10.5,28-23.3C207.5,56.8,200.2,48.4,189.9,45"/>
			<path fill="#E6E6E6" d="M114.5,136.2c4.1,13.5,18.7,23.5,36.2,23.5c0.1,0,0.2,0,0.3,0v0c0,17,16.6,30.9,37,30.9
				c14.1,0,26.4-6.6,32.6-16.3c3.7,1.1,7.6,1.7,11.7,1.7c19.2,0,34.8-13,34.8-29c0-0.1,0-0.2,0-0.3c1.5,0.1,3.1,0.3,4.7,0.3
				c21.8,0,39.5-14.7,39.5-32.9c0-18.2-17.7-32.9-39.5-32.9l-144.7,0l0,0C108.3,81.2,93,94,93,109.7C93,121.7,101.9,132,114.5,136.2
				"/>
			<path fill="#E6E6E6" d="M122,45c3.3-11.1,15.3-19.3,29.6-19.3c0.1,0,0.2,0,0.2,0v0c0-14,13.6-25.3,30.3-25.3
				c11.6,0,21.6,5.4,26.7,13.3c3-0.9,6.2-1.4,9.6-1.4c15.7,0,28.5,10.6,28.5,23.7c0,0.1,0,0.1,0,0.2c1.3-0.1,2.6-0.2,3.9-0.2
				c17.9,0,32.3,12.1,32.3,27c0,14.9-14.5,26.9-32.3,26.9l-118.4,0l0,0c-15.5,0-28-10.5-28-23.3C104.4,56.8,111.7,48.4,122,45"/>
		</g>
		<g>
			
				<ellipse transform="matrix(0.5353 -0.8447 0.8447 0.5353 9.8761 395.9608)" fill="#E2E2E2" cx="364.8" cy="189" rx="7.5" ry="7.5"/>
			
				<ellipse transform="matrix(0.5353 -0.8447 0.8447 0.5353 21.1317 413.4778)" fill="#E2E2E2" cx="386.4" cy="187.5" rx="5.3" ry="5.3"/>
			
				<ellipse transform="matrix(0.5353 -0.8447 0.8447 0.5353 32.4151 423.7174)" fill="#E2E2E2" cx="401.3" cy="182.4" rx="3.7" ry="3.7"/>
		</g>
		
			<ellipse transform="matrix(0.5353 -0.8447 0.8447 0.5353 -4.3432 370.1145)" fill="#E2E2E2" cx="334.2" cy="189" rx="10.8" ry="10.8"/>
	</g>
</g>
<g id="Layer_2">
</g>
<g id="Layer_3">
</g>
<g id="Layer_4">
</g>
</svg>
