<?xml version="1.0" encoding="utf-8"?>
<!-- Generator: Adobe Illustrator 19.2.1, SVG Export Plug-In . SVG Version: 6.00 Build 0)  -->
<svg version="1.1" xmlns="http://www.w3.org/2000/svg" xmlns:xlink="http://www.w3.org/1999/xlink" x="0px" y="0px"
	 viewBox="0 0 266 409" enable-background="new 0 0 266 409" xml:space="preserve">
<g id="Layer_1">
</g>
<g id="Layer_2">
	<g>
		<path opacity="0.1" d="M11.2,391.2c0.5,0,0.9,0.1,1.3,0.1v-0.1l162.7,0v0.1c5.3,0.5,9.5,4.2,9.5,8.6c0,4.8-4.8,8.7-10.8,8.7
			c-0.8,0-162,0-162.7,0c-6,0-10.8-3.9-10.8-8.7C0.5,395.1,5.3,391.2,11.2,391.2"/>
		<polygon fill="#F58B21" points="69.8,0.4 22.2,0.4 22.2,399.9 131.4,399.9 131.4,0.4 107.6,0.4 		"/>
		<path fill="#D6751E" d="M32.8,0.4h-1.3H32.8z M22.2,399.9v-11.1V0.4h5.9h3.5v399.5H22.2"/>
		<g>
			<defs>
				<polygon id="SVGID_3_" points="69.8,0.4 22.2,0.4 22.2,399.9 131.4,399.9 131.4,0.4 107.6,0.4 				"/>
			</defs>
			<clipPath id="SVGID_2_">
				<use xlink:href="#SVGID_3_"  overflow="visible"/>
			</clipPath>
			<g clip-path="url(#SVGID_2_)">
				<path fill="#D6751E" d="M84.9,18.9h28.8c1,0,1.8-0.8,1.8-1.8c0-1-0.8-1.8-1.8-1.8H84.9c-1,0-1.8,0.8-1.8,1.8
					C83.2,18.1,84,18.9,84.9,18.9"/>
				<path fill="#D6751E" d="M41.1,39.5h28.8c1,0,1.8-0.8,1.8-1.8c0-1-0.8-1.8-1.8-1.8H41.1c-1,0-1.8,0.8-1.8,1.8
					C39.3,38.7,40.1,39.5,41.1,39.5"/>
				<path fill="#D6751E" d="M73.5,49.8h95l0-3.6h-95c-1,0-1.8,0.8-1.8,1.8C71.7,49,72.5,49.8,73.5,49.8"/>
				<path fill="#D6751E" d="M66.8,39.5c-1,0-1.8-0.8-1.8-1.8s0.8-1.8,1.8-1.8h94.9l0,3.6H66.8"/>
				<path fill="#D6751E" d="M57.7,29.3c-1,0-1.8-0.8-1.8-1.8c0-1,0.8-1.8,1.8-1.8h94.9l0,3.6H57.7"/>
				<path fill="#EC2127" d="M179.4,47l0,0.2L179.4,47z"/>
				<rect x="81.1" y="26.7" fill="#D6751E" width="3.6" height="11.5"/>
				<rect x="112" y="26.7" fill="#D6751E" width="3.6" height="11.5"/>
				<rect x="96.6" y="36.8" fill="#D6751E" width="3.6" height="11.5"/>
				<rect x="127.5" y="36.8" fill="#D6751E" width="3.6" height="11.5"/>
				<rect x="96.6" y="16.4" fill="#D6751E" width="3.6" height="11.5"/>
			</g>
			<g clip-path="url(#SVGID_2_)">
				<path fill="#D6751E" d="M84.9,320h28.8c1,0,1.8-0.8,1.8-1.8c0-1-0.8-1.8-1.8-1.8H84.9c-1,0-1.8,0.8-1.8,1.8
					C83.2,319.2,84,320,84.9,320"/>
				<path fill="#D6751E" d="M41.1,340.6h28.8c1,0,1.8-0.8,1.8-1.8s-0.8-1.8-1.8-1.8H41.1c-1,0-1.8,0.8-1.8,1.8
					S40.1,340.6,41.1,340.6"/>
				<path fill="#D6751E" d="M73.5,350.8h95l0-3.6h-95c-1,0-1.8,0.8-1.8,1.8C71.7,350.1,72.5,350.8,73.5,350.8"/>
				<path fill="#D6751E" d="M66.8,340.6c-1,0-1.8-0.8-1.8-1.8s0.8-1.8,1.8-1.8h94.9l0,3.6H66.8"/>
				<path fill="#D6751E" d="M57.7,330.4c-1,0-1.8-0.8-1.8-1.8s0.8-1.8,1.8-1.8h94.9l0,3.6H57.7"/>
				<path fill="#EC2127" d="M179.4,348.1l0,0.2L179.4,348.1z"/>
				<rect x="81.1" y="327.8" fill="#D6751E" width="3.6" height="11.5"/>
				<rect x="112" y="327.8" fill="#D6751E" width="3.6" height="11.5"/>
				<rect x="96.6" y="337.9" fill="#D6751E" width="3.6" height="11.5"/>
				<rect x="127.5" y="337.9" fill="#D6751E" width="3.6" height="11.5"/>
				<rect x="96.6" y="317.5" fill="#D6751E" width="3.6" height="11.5"/>
			</g>
			<g clip-path="url(#SVGID_2_)">
				<path fill="#D6751E" d="M46.9,174.5H18.1c-1,0-1.8-0.8-1.8-1.8c0-1,0.8-1.8,1.8-1.8h28.8c1,0,1.8,0.8,1.8,1.8
					C48.7,173.7,47.9,174.5,46.9,174.5"/>
				<path fill="#D6751E" d="M90.7,195.1H61.9c-1,0-1.8-0.8-1.8-1.8s0.8-1.8,1.8-1.8h28.8c1,0,1.8,0.8,1.8,1.8S91.7,195.1,90.7,195.1
					"/>
				<path fill="#D6751E" d="M58.4,205.4h-95l0-3.6h95c1,0,1.8,0.8,1.8,1.8C60.1,204.6,59.3,205.4,58.4,205.4"/>
				<path fill="#D6751E" d="M65,195.1h-94.9l0-3.6H65c1,0,1.8,0.8,1.8,1.8S66,195.1,65,195.1"/>
				<path fill="#D6751E" d="M74.2,184.9h-94.9l0-3.6h94.9c1,0,1.8,0.8,1.8,1.8C75.9,184.1,75.1,184.9,74.2,184.9"/>
				<rect x="47.2" y="182.3" fill="#D6751E" width="3.6" height="11.5"/>
				<rect x="16.3" y="182.3" fill="#D6751E" width="3.6" height="11.5"/>
				<rect x="31.7" y="192.4" fill="#D6751E" width="3.6" height="11.5"/>
				<rect x="0.8" y="192.4" fill="#D6751E" width="3.6" height="11.5"/>
				<rect x="31.7" y="172" fill="#D6751E" width="3.6" height="11.5"/>
			</g>
		</g>
		<polygon fill="#6E573E" points="106.3,245.1 117.4,245.1 115.2,234 104.1,234 		"/>
		<polygon fill="#EC2127" points="150.9,69.5 150.9,69.6 150.9,69.5 		"/>
		<polygon fill="#436BB3" points="150.9,69.4 150.9,69.5 150.9,69.5 		"/>
		<polygon fill="#6E573E" points="125.7,245.1 125.7,245.1 127.8,234 		"/>
		<g>
			<polygon fill="#6E573E" points="157.4,400 168.5,400 105.5,79.1 94.4,79.1 			"/>
			<polygon fill="#6E573E" points="106.5,112.3 104.3,101.2 71.1,101.2 73.3,112.3 			"/>
			<polygon fill="#6E573E" points="113,145.5 110.8,134.4 77.6,134.4 79.8,145.5 			"/>
			<polygon fill="#6E573E" points="119.5,178.7 117.4,167.6 84.2,167.6 86.3,178.7 			"/>
			<polygon fill="#6E573E" points="126,211.9 123.9,200.8 90.7,200.8 92.8,211.9 			"/>
			<polygon fill="#6E573E" points="132.6,245.1 130.4,234 97.2,234 99.4,245.1 			"/>
			<polygon fill="#6E573E" points="139.1,278.3 136.9,267.2 103.7,267.2 105.9,278.3 			"/>
			<polygon fill="#6E573E" points="145.6,311.5 143.4,300.4 110.2,300.4 112.4,311.5 			"/>
			<polygon fill="#6E573E" points="152.1,344.7 149.9,333.6 116.7,333.6 118.9,344.7 			"/>
			<polygon fill="#6E573E" points="158.6,377.9 156.5,366.8 123.2,366.8 125.4,377.9 			"/>
			<polygon fill="#6E573E" points="124.2,400 135.3,400 72.3,79.1 61.2,79.1 			"/>
		</g>
		<rect x="139.6" y="201.8" fill="#0A72BA" width="13.1" height="85.4"/>
		<polygon fill="#0556A5" points="129.4,297.3 139.5,287.3 152.8,287.3 152.8,300.4 129.4,300.4 		"/>
		<polygon fill="#0061A1" points="146.5,287.3 152.8,287.3 152.8,213.1 146.5,211.6 		"/>
		<rect x="146.5" y="287.3" fill="#144A8B" width="6.3" height="13.1"/>
		<g>
			<path fill="#0A72BA" d="M134.6,239.4l-8.9,8.2L103,223c-1.9-2.1-2.1-5.3-0.5-7.6l27.9-38.9l9.8,7l-25,34.9L134.6,239.4
				 M140.3,183.5L140.3,183.5L140.3,183.5"/>
			<polygon fill="#0556A5" points="116.6,257 122.2,243.9 134.5,239 139.4,251.1 117.7,259.9 			"/>
			<polygon fill="#0061A1" points="128.7,241.3 134.3,239.1 115.2,218.4 125.2,204.5 117.8,205.6 108.5,218.5 128.6,241 			"/>
			<polygon fill="#144A8B" points="133.6,253.5 139.4,251.1 134.5,239 134.3,239.1 128.7,241.3 			"/>
		</g>
		<polygon fill="#9C4F96" points="116.6,176.5 110.1,204.5 133.1,110.5 184.8,121.8 172.5,158.5 		"/>
		<path fill="#672A7A" d="M172.5,158.5l-8.2,24.6c-0.2,13.5-1.4,30.1-1.6,33.3l-0.1,0.4l-52.5-12.3l6.6-27.9L172.5,158.5z"/>
		<g>
			<path fill="#FCF4A1" d="M167.5,117.8c-1.7,3.3-5.6,5.2-9.4,4.3c-3.8-0.9-6.4-4.3-6.5-8L167.5,117.8z"/>
			<path fill="#FCF4A1" d="M154.4,101l4.3-0.5l0.5,3.6l7.1,1.7l-2.7,11.6l-8.4-2l1.5-6.6C157,106.6,157.2,102.7,154.4,101"/>
		</g>
		<g>
			
				<rect x="133.5" y="140.4" transform="matrix(0.3103 -0.9507 0.9507 0.3103 -38.0986 230.9883)" fill="#FFFFFF" width="13.2" height="2.8"/>
			<polygon fill="#FFFFFF" points="154.6,141.8 150.9,140.6 147.5,151.1 144.9,150.3 148.3,139.8 144.6,138.6 145.3,136.5 
				155.3,139.7 			"/>
			<path fill="#FFFFFF" d="M155.2,154.2l-14.4,3.1l-10-11.1l4.5-13.9l14.4-3.1l10,11.1L155.2,154.2z M150.5,126.9l-16.8,3.5
				l-5.4,16.5l11.8,12.8l16.8-3.5l5.4-16.5L150.5,126.9z"/>
		</g>
		<path fill="#FCF4A1" d="M95.4,57.1l-0.1-0.2c-1-2.6-4-3.8-6.5-2.7c-2.6,1-3.8,4-2.7,6.5l0.1,0.2l0,0l2,4.8l9.3-3.8L95.4,57.1
			L95.4,57.1z"/>
		<path fill="#9C4F96" d="M123.3,115.1c10.7,7.2,17.7,6.8,18.5,6.7l1.3-9.1c0,0-2.6-0.9-3.8-1.2c-2.4-0.6-6-1.9-10.4-4.8
			c-8.7-5.8-20.6-18.2-31.5-44.8L88,65.7C99.5,93.7,112.5,107.9,123.3,115.1"/>
		<g>
			<path fill="#FCF4A1" d="M158,82c0,0-5.1,4-8.5,10.2l5.4,2.1L158,82z"/>
			<path fill="#FCF4A1" d="M185.1,83.8l-6.7,17l-0.1,0c-5.7,12.4-17.7,12.1-30.6,7.1l0.5-1.2l3.8-9.7l4.8-12.1l4.2-10.7L185.1,83.8z
				"/>
			<path fill="#17244E" d="M161.5,89.3c-0.2,0.5,0.1,1.1,0.6,1.4c0.5,0.2,1.1-0.1,1.3-0.6c0.2-0.5-0.1-1.1-0.6-1.3
				C162.3,88.5,161.7,88.8,161.5,89.3"/>
			<path fill="#FCEE1E" d="M191.6,83.5c-1.1-2-3.3-3.1-5.6-3.4c0.1-1.3-0.1-2.5-0.7-3.2c-1-1.3-2.1-1.9-3.7-2.5
				c-1.9-0.7-2.9-1.5-4.1-3c-4-5-14.2-3.5-16.5,3l0.2,0.1l-0.2-0.1c-0.4,4,4.3,8.4,7.6,10c1.9,0.9,3.3,1.2,4.4,2.2l0,0
				c0,0-7.2,17.2-16.8,13.4c0,0,1-4.7-2.9-6.2l-5.6,14.3c0,0,15.3,11,22.7-8l3.3-7.2c-0.8,3.5-1.2,8.9,1.8,13c0,0,0,0,0,0l0,0
				c4.1-0.5,4.2-3.8,5.9-6.7c1.3-2.2,4.9-4,7-5.6C190.8,91.5,193.2,86.5,191.6,83.5z"/>
			<path fill="#FCF4A1" d="M174.7,89.1c3,1.2,4.5,4.6,3.3,7.5c-1.2,3-4.5,4.5-7.5,3.3L174.7,89.1z"/>
			<path opacity="0.15" d="M173.6,91.9c1.5,0.6,2.2,2.3,1.6,3.8c-0.6,1.5-2.3,2.2-3.8,1.6L173.6,91.9z"/>
		</g>
		<path fill="#9C4F96" d="M177,139.9l-7,9.8c0.9,2,2.1,4.2,3.5,6.6c4.7,7.6,12.6,16.6,25.2,21.8l0,0l0,0c4.7,1.9,9.9,3.3,15.8,3.9
			c0,0,0.1,0,0.1,0l1-10.1c-5-0.5-9.4-1.7-13.1-3.2c-9.5-3.9-15.7-10.5-19.7-16.6C179.1,146.4,177.4,141.3,177,139.9"/>
		<path fill="#FCF4A1" d="M219.9,182.5l0.2,0c2.8,0.3,5.3-1.8,5.5-4.5c0.3-2.8-1.7-5.3-4.5-5.5l-0.2,0l0,0l-5.2-0.5l-1,10.1
			L219.9,182.5L219.9,182.5z"/>
		<g>
			<g id="outlook_4_">
				<path fill="#515150" d="M227.7,101.5c0-0.7-0.8-0.9-1.4-0.9c-2.9,0-5.9,0-8.8,0c0-1.9,0-3.8,0-5.7v-0.3
					c-4.3,0.8-10.4,1.8-14.7,2.6c0,6.6,0,13.2,0,19.8c4.3,0.7,10.4,1.7,14.7,2.5v-0.3c0-1.8,0-3.6,0-5.4c3.1-0.1,6.2,0.1,9.4-0.1
					c0.9,0,0.9-1,0.9-1.6C227.7,108.6,227.8,105,227.7,101.5z M212,110.9c-1.7,1.4-4.5,0.6-5.3-1.4c-1-2.4-0.5-6,2.2-7
					c1.6-0.6,3.5,0.3,4.1,1.8C214,106.4,213.8,109.3,212,110.9z M226.9,113.1c-3.1,0-6.2,0-9.4,0c0-2.5,0-4.9,0-7.4
					c1,0.9,2,2,3.1,2.9c0.5,0.1,0.8-0.3,1.1-0.6c1.7-1.6,3.4-3.2,5.1-4.8C226.9,106.4,226.9,109.8,226.9,113.1z M226.5,102.4
					c-1.9,1.8-3.7,3.5-5.6,5.3c-1.1-1-2.2-2.1-3.3-3.1c0-1,0-2.1,0-3.1c3.1,0,6.3,0,9.4,0C226.9,101.8,226.8,102.2,226.5,102.4z"/>
				<path fill="#515150" d="M209.1,104.2c0.8-0.4,1.7,0,2,0.7c0.6,1.1,0.6,2.5,0.2,3.7c-0.3,0.9-1.2,1.5-2.1,1.2
					c-1.1-0.3-1.4-1.7-1.5-2.7C207.8,106,208.1,104.7,209.1,104.2z"/>
			</g>
			<g>
				<path fill="#515050" d="M252.5,104.4c1.4,0.1,2.8,0.8,3.8,2c1.3,1.6,1.5,3.7,0.8,5.5c0.8,0.4,1.5,1,2.1,1.7c2.3,2.8,1.9,7-1,9.4
					c-2.9,2.3-7.1,1.9-9.4-0.9c-0.3-0.3-0.5-0.7-0.7-1.1c-1.7,0.3-3.5-0.3-4.6-1.7c-0.5-0.6-0.8-1.3-1-2c-2.1,0.6-4.4-0.1-5.8-1.8
					c-1.5-1.9-1.6-4.4-0.5-6.3c-0.3-0.2-0.5-0.5-0.8-0.8c-1.8-2.2-1.4-5.5,0.8-7.3c1.5-1.2,3.4-1.5,5.1-0.8c0.4-0.7,0.9-1.3,1.5-1.9
					c2.6-2.1,6.3-1.7,8.4,0.9C252.6,100.8,252.9,102.7,252.5,104.4"/>
				<path fill="#FFFFFF" d="M240.4,103.5C240.3,103.5,240.3,103.6,240.4,103.5c0,0.1,0,0.2,0,0.3c0.1,0.3,0.2,0.6,0.4,0.9
					c0.4,0.5,0.9,0.6,1.3,0.2l0,0c0.4-0.3,0.3-0.8,0.1-1.2l0-0.1c-0.1-0.3-0.2-0.6-0.1-0.7l0,0c0.1-0.1,0.3-0.1,0.5,0.1
					c0.2,0.2,0.3,0.5,0.3,0.8c0,0,0,0.1,0.1,0.1c0,0,0.3-0.1,0.3-0.1c0,0,0,0,0-0.1c0-0.3-0.2-0.6-0.4-0.9l0,0
					c-0.4-0.4-0.9-0.5-1.3-0.2l0,0c-0.4,0.3-0.3,0.8-0.1,1.2l0,0.1c0.1,0.3,0.2,0.5,0.1,0.7l0,0c-0.2,0.1-0.4,0.1-0.5-0.1
					c-0.1-0.1-0.3-0.3-0.3-0.8c0-0.1,0-0.1,0-0.1c0,0,0-0.1-0.1,0L240.4,103.5z"/>
				<path fill="#FFFFFF" d="M246.2,110.7C246.2,110.7,246.2,110.7,246.2,110.7c0,0.1,0,0.2,0,0.3c0.1,0.3,0.2,0.6,0.4,0.9
					c0.4,0.5,0.9,0.6,1.3,0.2l0,0c0.4-0.3,0.3-0.8,0.1-1.2l0-0.1c-0.1-0.3-0.2-0.6-0.1-0.7l0,0c0.1-0.1,0.3-0.1,0.5,0.1
					c0.2,0.2,0.3,0.5,0.3,0.8c0,0,0,0.1,0.1,0.1c0,0,0.3-0.1,0.3-0.1c0,0,0,0,0-0.1c0-0.3-0.2-0.6-0.4-0.9l0,0
					c-0.4-0.4-0.9-0.5-1.3-0.2l0,0c-0.4,0.3-0.3,0.8-0.1,1.2l0,0.1c0.1,0.3,0.2,0.5,0.1,0.7l0,0c-0.2,0.1-0.4,0.1-0.5-0.1
					c-0.1-0.1-0.3-0.3-0.3-0.8c0-0.1,0-0.1,0-0.1c0,0,0-0.1-0.1,0L246.2,110.7z"/>
				<path fill="#FFFFFF" d="M251.8,115c0.1-0.2,0.2-0.3,0.2-0.5c0-0.2,0-0.3,0-0.5c0-0.2-0.1-0.3-0.3-0.5c-0.1-0.2-0.3-0.3-0.4-0.4
					c-0.2-0.1-0.3-0.1-0.5-0.1c-0.2,0-0.3,0-0.5,0.1c-0.2,0.1-0.3,0.2-0.5,0.3c-0.2,0.1-0.3,0.3-0.4,0.4c-0.1,0.2-0.2,0.3-0.2,0.5
					c0,0.2,0,0.3,0,0.5c0,0.2,0.1,0.3,0.3,0.5c0.1,0.2,0.3,0.3,0.4,0.4c0.2,0.1,0.3,0.1,0.5,0.1c0.2,0,0.3,0,0.5-0.1
					c0.2-0.1,0.3-0.2,0.5-0.3C251.5,115.3,251.7,115.1,251.8,115 M251,114.9c-0.2,0.2-0.5,0.3-0.7,0.3c-0.2,0-0.4-0.1-0.5-0.2
					c-0.1-0.2-0.2-0.4-0.1-0.6c0.1-0.2,0.2-0.4,0.5-0.6c0.2-0.2,0.5-0.3,0.7-0.3c0.2,0,0.4,0.1,0.5,0.2c0.1,0.2,0.2,0.4,0.1,0.6
					C251.4,114.5,251.2,114.7,251,114.9"/>
				<path fill-rule="evenodd" clip-rule="evenodd" fill="#FFFFFF" d="M253.4,119.3C253.4,119.2,253.4,119.2,253.4,119.3
					c-0.1-0.1-0.2-0.2-0.2-0.2c-0.1-0.1-0.1-0.1-0.2-0.2c-0.2-0.2-0.2-0.4-0.2-0.6c0-0.2,0.2-0.4,0.4-0.6c0.2-0.2,0.5-0.3,0.7-0.3
					c0.2,0,0.4,0.1,0.6,0.3c0.1,0.2,0.2,0.3,0.3,0.5c0,0,0,0,0.1,0c0.1,0,0.2-0.1,0.4-0.1c0,0,0-0.1,0-0.1c0-0.1-0.1-0.2-0.2-0.3
					c-0.1-0.1-0.1-0.2-0.2-0.3c-0.1-0.2-0.3-0.3-0.5-0.4c-0.2-0.1-0.3-0.1-0.5-0.1c-0.2,0-0.3,0-0.5,0.1c-0.2,0.1-0.3,0.2-0.5,0.3
					c-0.3,0.3-0.5,0.6-0.6,0.9c-0.1,0.3,0.1,0.7,0.4,1.1c0.2,0.2,0.4,0.4,0.6,0.5c0,0,0,0,0.1,0L253.4,119.3z"/>
				<path fill-rule="evenodd" clip-rule="evenodd" fill="#FFFFFF" d="M256.3,120.4c0.1-0.1,0.2-0.3,0.2-0.4c0-0.2,0-0.3,0-0.4
					c0-0.2-0.1-0.3-0.2-0.5c-0.1-0.2-0.3-0.3-0.5-0.4c-0.2-0.1-0.3-0.1-0.5-0.1c-0.2,0-0.3,0-0.5,0.1c-0.2,0.1-0.3,0.2-0.5,0.3
					c-0.2,0.1-0.3,0.3-0.4,0.4c-0.1,0.2-0.2,0.3-0.2,0.5c0,0.2,0,0.4,0.1,0.5c0.1,0.2,0.2,0.4,0.3,0.6c0.3,0.4,0.6,0.5,0.7,0.6
					c0,0,0,0,0.1,0l0.2-0.3c0,0,0-0.1,0-0.1c-0.1-0.1-0.3-0.2-0.6-0.5c-0.2-0.2-0.2-0.4-0.2-0.6c0-0.2,0.1-0.4,0.3-0.5l1.1,1.4
					c0,0,0,0,0.1,0C255.7,120.9,256,120.7,256.3,120.4 M254.9,119.2c0.1-0.1,0.3-0.1,0.4-0.2c0.2,0,0.4,0.1,0.5,0.2
					c0.1,0.2,0.2,0.4,0.1,0.6c0,0.1-0.1,0.2-0.3,0.4L254.9,119.2z"/>
				<path fill-rule="evenodd" clip-rule="evenodd" fill="#FFFFFF" d="M247.3,109.3c0.1-0.1,0.2-0.3,0.2-0.4c0-0.2,0-0.3,0-0.4
					c0-0.2-0.1-0.3-0.2-0.5c-0.1-0.2-0.3-0.3-0.5-0.4c-0.2-0.1-0.3-0.1-0.5-0.1c-0.2,0-0.3,0-0.5,0.1c-0.2,0.1-0.3,0.2-0.5,0.3
					c-0.2,0.1-0.3,0.3-0.4,0.4c-0.1,0.2-0.2,0.3-0.2,0.5c0,0.2,0,0.4,0.1,0.5c0.1,0.2,0.2,0.4,0.3,0.6c0.3,0.4,0.6,0.5,0.7,0.6
					c0,0,0,0,0.1,0l0.2-0.3c0,0,0-0.1,0-0.1c-0.1-0.1-0.3-0.2-0.6-0.5c-0.2-0.2-0.2-0.4-0.2-0.6c0-0.2,0.1-0.4,0.3-0.5l1.1,1.4
					c0,0,0,0,0.1,0C246.7,109.8,247,109.6,247.3,109.3 M245.9,108.1c0.1-0.1,0.3-0.1,0.4-0.2c0.2,0,0.4,0.1,0.5,0.2
					c0.1,0.2,0.2,0.4,0.1,0.6c0,0.1-0.1,0.2-0.3,0.4L245.9,108.1z"/>
				<path fill="#FFFFFF" d="M244,105.6c0-0.1-0.1-0.1-0.2-0.2c-0.1-0.1-0.2-0.2-0.3-0.3c-0.1-0.1-0.2-0.1-0.4-0.2
					c-0.1,0-0.3,0-0.4,0s-0.3,0.1-0.4,0.2c-0.1,0.1-0.2,0.2-0.3,0.3c-0.1,0.1-0.1,0.2-0.1,0.4c0,0.1,0,0.3,0.1,0.4
					c0.1,0.1,0.2,0.3,0.3,0.4c0.1,0.1,0.2,0.3,0.4,0.4c0.1,0.1,0.3,0.3,0.4,0.3c0,0,0.1,0.1,0.1,0.1c0,0,0.1,0,0.1,0l1.3-1
					c0.3-0.2,0.4-0.5,0.4-0.7c0-0.2-0.1-0.5-0.3-0.8c-0.1-0.1-0.2-0.3-0.3-0.3c0,0-0.3-0.3-0.5-0.3c0,0,0,0-0.1,0l-0.2,0.3
					c0,0,0,0.1,0,0.1s0,0,0,0c0.4,0.1,0.6,0.5,0.6,0.5c0.1,0.1,0.2,0.3,0.2,0.4c0,0.1-0.1,0.2-0.2,0.4l-0.1,0
					C244,105.8,244,105.6,244,105.6 M242.5,105.9c0-0.1,0-0.1,0-0.1c0-0.1,0.1-0.1,0.1-0.2c0.1-0.1,0.2-0.1,0.4-0.1
					c0,0,0.2,0,0.4,0.3c0.2,0.2,0.3,0.4,0.3,0.4l-0.6,0.5c0,0-0.2-0.1-0.4-0.3C242.5,106.1,242.5,105.9,242.5,105.9"/>
				<path fill-rule="evenodd" clip-rule="evenodd" fill="#FFFFFF" d="M253.7,116.2C253.8,116.2,253.8,116.2,253.7,116.2
					c0-0.1,0-0.2-0.1-0.3c-0.1-0.2-0.2-0.3-0.3-0.3c-0.1-0.1-0.2-0.1-0.4-0.1l0.2-0.1c0,0,0-0.1,0-0.1l-0.3-0.4c0,0-0.1,0-0.1,0
					l-2.1,1.7c0,0,0,0.1,0,0.1l0.3,0.4c0,0,0.1,0,0.1,0l1-0.8c0.1-0.1,0.3-0.2,0.4-0.2c0.1,0,0.2-0.1,0.3,0c0.1,0,0.2,0,0.2,0.1
					c0.1,0,0.1,0.1,0.2,0.2c0.1,0.1,0.1,0.2,0.1,0.2c0,0,0,0,0.1,0C253.4,116.3,253.7,116.3,253.7,116.2"/>
				<path fill-rule="evenodd" clip-rule="evenodd" fill="#FFFFFF" d="M251.9,112c0-0.1,0-0.1-0.1-0.2c0-0.1-0.1-0.1-0.1-0.2
					c-0.2-0.3-0.4-0.4-0.7-0.4c-0.3,0-0.5,0.1-0.9,0.2l-0.1,0.1l-0.3-0.3c0,0,0,0-0.1,0l-0.3,0.2c0,0,0,0,0,0.1l0.2,0.3l-2,1.1
					c-0.2,0.1-0.3,0.2-0.4,0.2c-0.1,0-0.2,0.1-0.3,0.1c-0.1,0-0.1,0-0.2,0c-0.1,0-0.1-0.1-0.2-0.1c0,0-0.1-0.1-0.1-0.1
					c0,0,0-0.1,0-0.1c0,0,0,0-0.1,0c0,0-0.3,0.1-0.4,0.1c0,0,0,0,0,0.1c0,0.1,0,0.1,0.1,0.2c0,0.1,0.1,0.2,0.1,0.2
					c0.1,0.1,0.2,0.2,0.3,0.3c0.1,0.1,0.2,0.1,0.4,0.1c0.2,0,0.3,0,0.5-0.1c0.2-0.1,0.4-0.1,0.6-0.3l2-1.1l0.4,0.5c0,0,0,0,0.1,0
					l0.3-0.2c0,0,0,0,0-0.1l-0.4-0.4c0,0,0.2-0.1,0.4-0.2c0.1,0,0.2,0,0.2,0c0.1,0,0.1,0,0.2,0.1c0,0,0.1,0.1,0.1,0.1
					c0,0,0.1,0.1,0.1,0.1c0,0.1,0,0.1,0,0.1c0,0.1,0,0.1,0.1,0L251.9,112C251.9,112.1,251.9,112.1,251.9,112"/>
				<path fill-rule="evenodd" clip-rule="evenodd" fill="#FFFFFF" d="M243.9,108.3C243.9,108.3,243.8,108.3,243.9,108.3l-0.4-0.4
					c0,0,0-0.1,0-0.1l3-2.4c0,0,0.1,0,0.1,0l0.3,0.4c0,0,0,0.1,0,0.1L243.9,108.3z"/>
			</g>
			
				<rect x="197.3" y="113.1" transform="matrix(-1 -4.485535e-011 4.485535e-011 -1 462.8182 286.003)" fill="#FDB813" width="68.2" height="59.9"/>
			
				<rect x="197.3" y="113.1" transform="matrix(-1 -4.488244e-011 4.488244e-011 -1 423.1001 286.003)" fill="#F58B21" width="28.5" height="59.9"/>
		</g>
		<g>
			<path fill="#FFFFFF" d="M210.3,143c-0.6,0.3-1.4,0.5-2.4,0.5c-1.2,0-2.2-0.4-2.9-1.2s-1.1-1.8-1.1-3c0-1.3,0.4-2.4,1.2-3.3
				s1.9-1.2,3.1-1.2c0.8,0,1.5,0.1,2,0.3v1.4c-0.6-0.3-1.2-0.5-1.9-0.5c-0.9,0-1.6,0.3-2.2,0.9s-0.8,1.4-0.8,2.3
				c0,0.9,0.3,1.7,0.8,2.2s1.2,0.8,2.1,0.8c0.8,0,1.5-0.2,2.1-0.6V143z"/>
			<path fill="#FFFFFF" d="M215.2,143.5c-1.2,0-2.2-0.4-2.9-1.2s-1.1-1.8-1.1-3.1c0-1.4,0.4-2.4,1.1-3.2s1.8-1.2,3-1.2
				c1.2,0,2.1,0.4,2.9,1.2s1.1,1.8,1.1,3.1c0,1.4-0.4,2.5-1.1,3.3S216.5,143.5,215.2,143.5z M215.3,136.1c-0.8,0-1.4,0.3-1.9,0.9
				s-0.7,1.3-0.7,2.3c0,0.9,0.2,1.7,0.7,2.3s1.1,0.9,1.8,0.9c0.8,0,1.4-0.3,1.9-0.8s0.7-1.3,0.7-2.3c0-1-0.2-1.8-0.7-2.3
				S216.1,136.1,215.3,136.1z"/>
			<path fill="#FFFFFF" d="M229.9,143.4h-1.4V138c0-0.4,0-1,0.1-1.6h0c-0.1,0.4-0.2,0.6-0.2,0.8l-2.5,6.3h-1l-2.5-6.2
				c-0.1-0.2-0.1-0.5-0.2-0.8h0c0,0.3,0,0.9,0,1.6v5.4h-1.3V135h2l2.2,5.6c0.2,0.4,0.3,0.8,0.3,1h0c0.1-0.4,0.3-0.8,0.4-1l2.3-5.6
				h1.9V143.4z"/>
			<path fill="#FFFFFF" d="M233.3,140.4v3h-1.4V135h2.5c1,0,1.7,0.2,2.2,0.7s0.8,1.1,0.8,1.9s-0.3,1.5-0.8,2s-1.3,0.8-2.3,0.8H233.3
				z M233.3,136.1v3.1h0.9c0.6,0,1.1-0.1,1.4-0.4s0.5-0.7,0.5-1.2c0-1-0.6-1.5-1.7-1.5H233.3z"/>
			<path fill="#FFFFFF" d="M245,143.4h-1.5l-0.8-2.1h-3.3l-0.7,2.1h-1.5l3.1-8.4h1.6L245,143.4z M242.4,140.1l-1.2-3.4
				c0-0.1-0.1-0.3-0.1-0.5h0c0,0.2-0.1,0.4-0.1,0.5l-1.2,3.4H242.4z"/>
			<path fill="#FFFFFF" d="M253.3,143.4h-1.5l-4-6.2c-0.1-0.2-0.2-0.3-0.3-0.5h0c0,0.2,0,0.6,0,1.2v5.5h-1.3V135h1.6l3.9,6
				c0.2,0.3,0.3,0.4,0.3,0.5h0c0-0.2-0.1-0.6-0.1-1.1V135h1.3V143.4z"/>
			<path fill="#FFFFFF" d="M261.2,135l-2.8,5.3v3.1h-1.4v-3l-2.7-5.4h1.6l1.7,3.6c0,0,0.1,0.2,0.2,0.5h0c0-0.1,0.1-0.3,0.2-0.5
				l1.7-3.6H261.2z"/>
			<path fill="#FFFFFF" d="M226,157.8h-1.5l-0.8-2.1h-3.3l-0.7,2.1h-1.5l3.1-8.4h1.6L226,157.8z M223.3,154.5l-1.2-3.4
				c0-0.1-0.1-0.3-0.1-0.5h0c0,0.2-0.1,0.4-0.1,0.5l-1.2,3.4H223.3z"/>
			<path fill="#FFFFFF" d="M228.5,154.8v3h-1.4v-8.4h2.5c1,0,1.7,0.2,2.2,0.7s0.8,1.1,0.8,1.9s-0.3,1.5-0.8,2s-1.3,0.8-2.3,0.8
				H228.5z M228.5,150.5v3.1h0.9c0.6,0,1.1-0.1,1.4-0.4s0.5-0.7,0.5-1.2c0-1-0.6-1.5-1.7-1.5H228.5z"/>
			<path fill="#FFFFFF" d="M235.5,154.8v3h-1.4v-8.4h2.5c1,0,1.7,0.2,2.2,0.7s0.8,1.1,0.8,1.9s-0.3,1.5-0.8,2s-1.3,0.8-2.3,0.8
				H235.5z M235.5,150.5v3.1h0.9c0.6,0,1.1-0.1,1.4-0.4s0.5-0.7,0.5-1.2c0-1-0.6-1.5-1.7-1.5H235.5z"/>
			<path fill="#FFFFFF" d="M240.8,157.5V156c0.1,0.1,0.3,0.2,0.5,0.3s0.4,0.2,0.6,0.2s0.4,0.1,0.6,0.1s0.4,0.1,0.6,0.1
				c0.6,0,1-0.1,1.3-0.3s0.4-0.5,0.4-0.8c0-0.2,0-0.4-0.1-0.5s-0.2-0.3-0.4-0.4s-0.4-0.2-0.6-0.3s-0.5-0.2-0.7-0.3
				c-0.3-0.2-0.6-0.3-0.8-0.5s-0.5-0.3-0.6-0.5s-0.3-0.4-0.4-0.6s-0.2-0.5-0.2-0.8c0-0.4,0.1-0.7,0.3-1s0.4-0.5,0.7-0.7
				s0.6-0.3,1-0.4s0.8-0.1,1.1-0.1c0.9,0,1.5,0.1,1.9,0.3v1.4c-0.5-0.3-1.1-0.5-1.8-0.5c-0.2,0-0.4,0-0.6,0.1s-0.4,0.1-0.6,0.2
				s-0.3,0.2-0.4,0.3s-0.2,0.3-0.2,0.5c0,0.2,0,0.3,0.1,0.5s0.2,0.3,0.3,0.4s0.3,0.2,0.6,0.3s0.5,0.2,0.8,0.3
				c0.3,0.2,0.6,0.3,0.8,0.5s0.5,0.4,0.7,0.6s0.4,0.4,0.5,0.7s0.2,0.5,0.2,0.8c0,0.4-0.1,0.8-0.3,1.1s-0.4,0.5-0.7,0.7
				s-0.6,0.3-1,0.4s-0.8,0.1-1.2,0.1c-0.1,0-0.3,0-0.5,0s-0.4-0.1-0.6-0.1s-0.4-0.1-0.6-0.1S240.9,157.5,240.8,157.5z"/>
		</g>
	</g>
</g>
<g id="Layer_3">
</g>
<g id="Layer_4">
</g>
</svg>
