<?xml version="1.0" encoding="utf-8"?>
<!-- Generator: Adobe Illustrator 19.2.1, SVG Export Plug-In . SVG Version: 6.00 Build 0)  -->
<svg version="1.1" xmlns="http://www.w3.org/2000/svg" xmlns:xlink="http://www.w3.org/1999/xlink" x="0px" y="0px"
	 viewBox="0 0 198 128.6" enable-background="new 0 0 198 128.6" xml:space="preserve">
<g id="Layer_1">
	<g>
		<g>
			<rect x="30.8" y="38.5" fill="#E2E2E2" width="33.4" height="31.3"/>
			<rect x="127.5" y="12.9" fill="#E2E2E2" width="12.6" height="57"/>
			<rect x="111.4" y="30" fill="#D0D2D3" width="21.4" height="39.9"/>
			<polygon fill="#BBBDBF" points="64.1,0.4 88,11.1 88,69.9 64.1,69.9 			"/>
			<rect x="92.7" y="22.8" fill="#E2E2E2" width="27" height="47.1"/>
			<polygon fill="#D2D2D2" points="67.8,69.9 71.1,69.9 71.1,3.5 67.8,2 			"/>
			<polygon fill="#D2D2D2" points="74.5,69.9 77.9,69.9 77.9,6.5 74.5,5 			"/>
			<polygon fill="#D2D2D2" points="81.3,69.9 84.6,69.9 84.6,9.5 81.3,8 			"/>
			<rect x="16.2" y="22.8" fill="#E2E2E2" width="38.5" height="47.1"/>
			<rect y="31.6" fill="#E2E2E2" width="17" height="38.3"/>
			<rect x="95.4" y="27.5" fill="#37B5ED" width="2.5" height="4.1"/>
			<rect x="99.9" y="27.5" fill="#37B5ED" width="2.5" height="4.1"/>
			<rect x="104.4" y="27.5" fill="#6DC2E9" width="2.5" height="4.1"/>
			<rect x="108.9" y="27.5" fill="#37B5ED" width="2.5" height="4.1"/>
			<rect x="113.4" y="27.5" fill="#6DC2E9" width="2.5" height="4.1"/>
			<rect x="95.4" y="34.2" fill="#6DC2E9" width="2.5" height="4.1"/>
			<rect x="99.9" y="34.2" fill="#6DC2E9" width="2.5" height="4.1"/>
			<rect x="104.4" y="34.2" fill="#37B5ED" width="2.5" height="4.1"/>
			<rect x="108.9" y="34.2" fill="#6DC2E9" width="2.5" height="4.1"/>
			<rect x="113.4" y="34.2" fill="#6DC2E9" width="2.5" height="4.1"/>
			<rect x="2.9" y="33.8" fill="#6DC2E9" width="1.8" height="36.1"/>
			<rect x="7.4" y="33.8" fill="#6DC2E9" width="1.8" height="36.1"/>
			<rect x="19.4" y="32" fill="#6DC2E9" width="2.9" height="6.5"/>
			<rect x="26.1" y="32" fill="#6DC2E9" width="2.9" height="6.5"/>
			<rect x="39.6" y="32" fill="#6DC2E9" width="2.9" height="6.5"/>
			<rect x="46.4" y="32" fill="#6DC2E9" width="2.9" height="6.5"/>
			<rect x="11.9" y="33.8" fill="#6DC2E9" width="1.8" height="36.1"/>
		</g>
		<g>
			<rect x="76.3" y="102.7" fill="#A98864" width="2.9" height="25.5"/>
			<rect x="81.3" y="81" fill="#A98864" width="2.9" height="42.3"/>
			<rect x="139.8" y="81" fill="#A98864" width="2.9" height="42.3"/>
			<rect x="144.9" y="102.7" fill="#A98864" width="2.9" height="25.5"/>
			<rect x="76.3" y="101.9" fill="#B8D433" width="71.5" height="5.9"/>
			<rect x="76.3" y="80.1" fill="#B8D433" width="71.5" height="5.9"/>
			<rect x="76.3" y="88.9" fill="#B8D433" width="71.5" height="5.9"/>
		</g>
		<g>
			<path fill="#B8D433" d="M183.6,60c0,9.5-7.7,17.2-17.2,17.2c-9.5,0-17.2-7.7-17.2-17.2c0-9.5,7.7-17.2,17.2-17.2
				C175.9,42.7,183.6,50.5,183.6,60"/>
			<polygon fill="#A98864" points="168.3,72.1 167.9,66.4 176.9,54 167.7,63.3 167.3,58 172.3,51 167.1,56.3 166.4,46.9 165.8,56.3 
				160.6,51 165.7,58.1 165.4,63.4 156,54 165.2,66.6 164.8,72.3 158.4,65.9 164.7,74.5 163.9,88.1 169.5,88.1 168.5,74.1 
				174.5,65.9 			"/>
			<path fill="#B8D433" d="M198,69.3c0,6-4.8,10.8-10.8,10.8c-6,0-10.8-4.8-10.8-10.8c0-6,4.9-10.8,10.8-10.8
				C193.1,58.4,198,63.3,198,69.3"/>
			<polygon fill="#A98864" points="188.4,76.9 188.1,73.3 193.8,65.5 188,71.3 187.7,68 190.9,63.6 187.6,66.9 187.2,61 186.8,67 
				183.5,63.6 186.8,68.1 186.6,71.4 180.6,65.5 186.4,73.4 186.2,77 182.2,73 186.1,78.4 185.6,86.9 189.2,86.9 188.5,78.1 
				192.3,73 			"/>
			<path fill="#B8D433" d="M183.6,60c0,9.5-7.7,17.2-17.2,17.2c-9.5,0-17.2-7.7-17.2-17.2c0-9.5,7.7-17.2,17.2-17.2
				C175.9,42.7,183.6,50.5,183.6,60"/>
			<polygon fill="#A98864" points="168.3,72.1 167.9,66.4 176.9,54 167.7,63.3 167.3,58 172.3,51 167.1,56.3 166.4,46.9 165.8,56.3 
				160.6,51 165.7,58.1 165.4,63.4 156,54 165.2,66.6 164.8,72.3 158.4,65.9 164.7,74.5 163.9,88.1 169.5,88.1 168.5,74.1 
				174.5,65.9 			"/>
		</g>
		<path fill="#1EA3DD" d="M138.7,97.4c0,0.2-0.2,0.4-0.4,0.4c-0.2,0-0.4-0.2-0.4-0.4c0-0.2,0.2-0.4,0.4-0.4
			C138.6,97,138.8,97.2,138.7,97.4"/>
	</g>
</g>
<g id="Layer_2">
</g>
<g id="Layer_3">
</g>
<g id="Layer_4">
</g>
</svg>
