<?xml version="1.0" encoding="utf-8"?>
<!-- Generator: Adobe Illustrator 19.2.1, SVG Export Plug-In . SVG Version: 6.00 Build 0)  -->
<svg version="1.1" xmlns="http://www.w3.org/2000/svg" xmlns:xlink="http://www.w3.org/1999/xlink" x="0px" y="0px"
	 viewBox="0 0 196 252" enable-background="new 0 0 196 252" xml:space="preserve">
<g id="Layer_1">
</g>
<g id="Layer_2">
</g>
<g id="Layer_3">
</g>
<g id="Layer_4">
	<g>
		<path opacity="0.1" d="M54,238.9c0.3,0,0.7,0.1,1,0.1v-0.1l133.6,0v0.1c4,0.4,7.2,3.1,7.2,6.5c0,3.6-3.6,6.6-8.1,6.6
			c-0.6,0-133.1,0-133.6,0c-4.5,0-8.1-2.9-8.1-6.6C45.8,241.9,49.5,238.9,54,238.9"/>
		<polygon fill="#FDB813" points="171.6,167 136.3,168 135.4,136.7 120.8,137.1 122.1,183 172,181.6 171.6,167 		"/>
		<polygon fill="#1EBBEE" points="183.3,192.1 172,181.5 171.6,167 185.9,166.6 186.6,192 		"/>
		
			<rect x="121.1" y="136.9" transform="matrix(0.9996 -2.835802e-002 2.835802e-002 0.9996 -4.1586 3.7022)" fill="#1EBBEE" width="14.6" height="23.1"/>
		<polygon fill="#1EBBEE" points="76.9,245.4 83.4,230.7 97.4,226.8 102,240.4 77.9,248.6 		"/>
		<polygon fill="#FDB813" points="97.7,227.6 89.3,189 107.6,146.1 94.2,140.4 74.1,187.5 83.4,230.7 83.4,230.7 97.7,227.6 		"/>
		<polygon fill="#1EBBEE" points="92.9,143.3 98.6,142.3 107.6,146.1 97.1,170.8 83.7,164.9 		"/>
		<polygon opacity="0.1" points="183.3,192.1 172,181.5 172,181.6 122.1,183 120.8,137.1 128.1,136.9 129.2,175.5 186.1,173.8 
			186.6,192 		"/>
		<polygon opacity="0.1" points="81.9,188.5 93.6,243.2 77.9,248.6 76.9,245.4 83.4,230.7 90.5,229.2 83.4,230.7 83.4,230.7 
			74.1,187.5 83.7,164.9 89.7,151 97.9,150 		"/>
		<path fill="#FDB813" d="M145.6,26.3l13.6,37.4l0,0c0.3,0.9,1.8,4.8,1.8,4.9c0.9,2.6-0.4,5.5-3,6.4c-2.6,0.9-5.5-0.4-6.4-3
			c0-0.1-1.8-5.1-1.8-5.1v0l-10.3-28.3L88.8,54.3l-3-9.6L145.6,26.3z"/>
		<path opacity="0.1" d="M158,75c-2.6,0.9-5.5-0.4-6.4-3c0-0.1-1.8-5.1-1.8-5.1l0,0l-10.3-28.3L88.8,54.3l-1.2-3.9l55.1-17.3L158,75
			z"/>
		<path fill="#FDB813" d="M1,62.8c1.5-2.3,4.6-3.1,6.9-1.6c0.1,0,0.2,0.1,0.2,0.1l4.4,2.8l0,0l25.6,16.1L57,53.3l8.2,5.8L40.8,93.8
			L7.1,72.6l0,0l-4.4-2.8c0,0-0.1-0.1-0.2-0.1C0.2,68.3-0.5,65.2,1,62.8z"/>
		<path opacity="0.1" d="M1,62.8c-1.5,2.3-0.8,5.4,1.6,6.9c0.1,0,0.2,0.1,0.2,0.1l4.4,2.8l0,0l33.7,21.2l24.4-34.7l-3.7-2.6
			L39.8,87.3L1,62.8z"/>
		<path fill="#FDB813" d="M66.2,83.1l-4.8-15.5c-0.2-0.8-0.6-2-0.6-2L57,53.3l49.9-15.1l3,9.8c1.4,5.9,3.3,15.2,4.5,20.7L66.2,83.1z
			"/>
		<path fill="#FDB813" d="M70.8,34.9l4.3-1.7l1.5,3.6l7.8-0.2l0.4,12.7l-9.3,0.3l-0.2-7.3C75.1,39.9,74.3,35.9,70.8,34.9z"/>
		<path d="M68.1,24.2c0,0.5,0.5,1,1,1c0.5,0,1-0.5,1-1c0-0.5-0.5-1-1-0.9C68.5,23.2,68.1,23.6,68.1,24.2"/>
		<polygon fill="#FDB813" points="62.4,20.8 58.8,34.6 66.5,34.4 		"/>
		<path fill="#FDB813" d="M86.7,10.7l0.5,17.2l0,0.1c-0.4,12.9-10.9,17.1-24,17.4l0-1.2l-0.3-9.8l-0.4-12.3l-0.3-10.8L86.7,10.7z"/>
		<path fill="#17244E" d="M68.1,24.2c0,0.5,0.5,1,1,1c0.5,0,1-0.5,1-1c0-0.5-0.5-1-1-0.9C68.5,23.2,68.1,23.6,68.1,24.2"/>
		<g>
			<path fill="none" d="M66.2,83.1c-0.2-0.6-0.4-1.3-0.6-1.9c0,0,0,0,0.1,0L66.2,83.1z"/>
			<path fill="#2172B9" d="M71.1,69.4l-5-16.1c-0.3-0.8-0.6-1.6-1.1-2.4l6.7-2c2.4,3.7,6.9,5.5,11.2,4.2c4.3-1.3,7-5.3,6.9-9.7
				l8.1-2.4c0,0.9,0.1,1.8,0.4,2.7l5,16.2c1.4,4.6,6,7.4,10.6,6.7c5.2,24.2,8.5,42.4,8.5,42.4c8.3,12.3,15.1,29.1,15.1,29.1
				l-49.8,15.1c0,0-4.3-20.3-5.7-30.7c0,0-9.1-19.6-15.9-39.4l-0.6-1.9C70.1,79.2,72.5,74.2,71.1,69.4z"/>
			<path opacity="0.1" d="M113.9,66.6l8.5,42.4c8.3,12.3,15.1,29.1,15.1,29.1l-49.8,15.1c0,0-4.3-20.3-5.7-30.7l-1.2-2.7L113.9,66.6
				z"/>
		</g>
		<path fill="#6E573E" d="M74.6,0.6c1.8,0.9,3,1.1,5.1,0.9c1.7-0.1,2.9-0.1,4.5,0.7c1.4,0.7,2.5,3,2.7,5.1
			c5.4,0.5,11.3,0.6,13.7,6.3c2.6,6.1-1.4,8.6-5.3,12.1c-3.6,3.3-4.2,10.5-10,10.9c-1.7,0.1-3-0.3-3.9-1.1c1-1.8,1.9-3.9,2.6-6.3
			c-2.5-4.3-3.7-7-3.9-8.7c-0.4-0.2-3-1.1-3.4-1.3c-0.4-0.3-2.1-1-2.4-1.2c-1.9-1,0.3-0.7-2.3-0.7c-3.7,0.1-9.2-2.7-10.9-6.5l0.1,0
			l-0.1,0c0-0.1-0.1-0.1-0.1-0.2l0,0C60.2,3.7,68.7-2.2,74.6,0.6"/>
		<path fill="#6E573E" d="M81,35.5c0,0,24-6.9,30.9,17.1C112,52.6,88,59.5,81,35.5"/>
		<path fill="#1EBBEE" d="M62.2,12.5l33.9,12.3C95,26,93.2,28.1,92.7,29L62.3,17.6C62.3,17.6,62.2,12.8,62.2,12.5z"/>
		<path fill="#FDB813" d="M80,24.6c3-0.1,5.6,2.3,5.6,5.3c0.1,3-2.3,5.6-5.3,5.6L80,24.6z"/>
		<path fill="#F68C1F" d="M80.1,27.3c1.5,0,2.8,1.2,2.8,2.7c0,1.5-1.1,2.8-2.7,2.8L80.1,27.3z"/>
	</g>
</g>
</svg>
