<?xml version="1.0" encoding="utf-8"?>
<!-- Generator: Adobe Illustrator 19.2.1, SVG Export Plug-In . SVG Version: 6.00 Build 0)  -->
<svg version="1.1" xmlns="http://www.w3.org/2000/svg" xmlns:xlink="http://www.w3.org/1999/xlink" x="0px" y="0px"
	 viewBox="0 0 214 176.3" enable-background="new 0 0 214 176.3" xml:space="preserve">
<g id="Layer_1">
	<g>
		<g>
			
				<ellipse transform="matrix(0.9829 -0.1842 0.1842 0.9829 -24.6604 33.9143)" fill="#E2E2E2" cx="170.2" cy="149.7" rx="7.5" ry="7.5"/>
			
				<ellipse transform="matrix(0.9829 -0.1842 0.1842 0.9829 -27.1097 37.0712)" fill="#E2E2E2" cx="186" cy="164.4" rx="5.3" ry="5.3"/>
			
				<ellipse transform="matrix(0.9829 -0.1842 0.1842 0.9829 -28.2406 39.7676)" fill="#E2E2E2" cx="199.9" cy="171.9" rx="3.7" ry="3.7"/>
		</g>
		<g>
			<path fill="#E2E2E2" d="M135.5,38.1c-2.8-9.3-12.8-16.2-24.9-16.2c-0.1,0-0.1,0-0.2,0v0C110.4,10.2,99,0.7,85,0.7
				c-9.7,0-18.1,4.5-22.4,11.2c-2.5-0.7-5.2-1.2-8-1.2c-13.2,0-23.9,8.9-23.9,19.9c0,0.1,0,0.1,0,0.2c-1.1-0.1-2.1-0.2-3.2-0.2
				c-15,0-27.2,10.1-27.2,22.6c0,12.5,12.2,22.6,27.2,22.6l99.4,0l0,0c13,0,23.5-8.8,23.5-19.6C150.3,48,144.1,41,135.5,38.1"/>
			<path fill="#E2E2E2" d="M135.5,105.7c-2.8,9.3-12.8,16.2-24.9,16.2c-0.1,0-0.1,0-0.2,0v0C110.4,133.6,99,143,85,143
				c-9.7,0-18.1-4.5-22.4-11.2c-2.5,0.7-5.2,1.2-8,1.2c-13.2,0-23.9-8.9-23.9-19.9c0-0.1,0-0.1,0-0.2c-1.1,0.1-2.1,0.2-3.2,0.2
				c-15,0-27.2-10.1-27.2-22.6c0-12.5,12.2-22.6,27.2-22.6l99.4,0l0,0c13,0,23.5,8.8,23.5,19.6C150.3,95.7,144.1,102.8,135.5,105.7"
				/>
			<path fill="#E2E2E2" d="M78.5,38.1c2.8-9.3,12.8-16.2,24.9-16.2c0.1,0,0.1,0,0.2,0v0c0-11.7,11.4-21.2,25.5-21.2
				c9.7,0,18.1,4.5,22.4,11.2c2.5-0.7,5.2-1.2,8-1.2c13.2,0,23.9,8.9,23.9,19.9c0,0.1,0,0.1,0,0.2c1.1-0.1,2.1-0.2,3.2-0.2
				c15,0,27.2,10.1,27.2,22.6c0,12.5-12.2,22.6-27.2,22.6l-99.4,0l0,0c-13,0-23.5-8.8-23.5-19.6C63.7,48,69.9,41,78.5,38.1"/>
			<path fill="#E2E2E2" d="M78.5,105.7c2.8,9.3,12.8,16.2,24.9,16.2c0.1,0,0.1,0,0.2,0v0c0,11.7,11.4,21.2,25.5,21.2
				c9.7,0,18.1-4.5,22.4-11.2c2.5,0.7,5.2,1.2,8,1.2c13.2,0,23.9-8.9,23.9-19.9c0-0.1,0-0.1,0-0.2c1.1,0.1,2.1,0.2,3.2,0.2
				c15,0,27.2-10.1,27.2-22.6c0-12.5-12.2-22.6-27.2-22.6l-99.4,0l0,0c-13,0-23.5,8.8-23.5,19.6C63.7,95.7,69.9,102.8,78.5,105.7"/>
		</g>
		<g>
			<path fill="#9C4F96" d="M50.3,68.6c0.1-3.6,3.2-5.2,3.3-5.3c-1.6-2.5-4.2-3-5.1-3c-2.2-0.3-4.4,1.1-5.5,1.1
				c-1.1,0-2.8-1.4-4.6-1.4c-2.4-0.1-4.7,1.2-6,3.3c-2.7,4.2-1.1,10.8,1.2,14.4c1.1,1.8,2.5,3.8,4.3,3.8c1.8,0,2.5-1.1,4.7-1
				c2.2,0.1,2.7,1.3,4.6,1.3c1.9,0,3.2-1.6,4.5-3.3c1.5-1.9,2.1-3.9,2.1-4C53.8,74.5,50.1,72.9,50.3,68.6z M47.2,57.9
				c1-1.2,1.8-2.8,1.7-4.5c-1.4,0-3.2,0.8-4.3,2c-1,1-1.8,2.7-1.7,4.3C44.4,59.9,46.1,59,47.2,57.9z"/>
		</g>
		<g>
			<path fill="#9C4F96" d="M59.4,33v2.8h-1.3v-7.7h2.3c0.9,0,1.6,0.2,2.1,0.6c0.5,0.4,0.7,1,0.7,1.7s-0.3,1.4-0.8,1.8
				C62,32.8,61.3,33,60.4,33H59.4z M59.4,29.2V32h0.8c0.5,0,1-0.1,1.3-0.4c0.3-0.3,0.4-0.6,0.4-1.1c0-0.9-0.5-1.4-1.6-1.4H59.4z"/>
			<path fill="#9C4F96" d="M68.9,35.8h-4.3v-7.7h4.2v1.1h-2.9v2.2h2.6v1.1h-2.6v2.3h3V35.8z"/>
			<path fill="#9C4F96" d="M76.2,35.8h-1.5l-1.2-2.1c-0.1-0.2-0.2-0.4-0.3-0.5c-0.1-0.1-0.2-0.2-0.3-0.3s-0.2-0.1-0.4-0.2
				s-0.3-0.1-0.4-0.1h-0.5v3.1h-1.3v-7.7h2.5c0.4,0,0.7,0,1,0.1c0.3,0.1,0.6,0.2,0.8,0.4c0.2,0.2,0.4,0.4,0.5,0.6
				c0.1,0.3,0.2,0.6,0.2,0.9c0,0.3,0,0.5-0.1,0.7c-0.1,0.2-0.2,0.4-0.3,0.6c-0.1,0.2-0.3,0.3-0.5,0.5c-0.2,0.1-0.4,0.2-0.7,0.3v0
				c0.1,0.1,0.3,0.2,0.4,0.3c0.1,0.1,0.2,0.2,0.3,0.3s0.2,0.2,0.3,0.3c0.1,0.1,0.2,0.3,0.3,0.4L76.2,35.8z M71.5,29.1v2.5h1.1
				c0.2,0,0.4,0,0.5-0.1c0.2-0.1,0.3-0.1,0.4-0.3s0.2-0.3,0.3-0.4c0.1-0.2,0.1-0.3,0.1-0.6c0-0.4-0.1-0.7-0.3-0.9
				c-0.2-0.2-0.6-0.3-1-0.3H71.5z"/>
			<path fill="#9C4F96" d="M76.7,35.5v-1.3c0.1,0.1,0.3,0.2,0.4,0.3s0.3,0.2,0.5,0.2c0.2,0.1,0.4,0.1,0.5,0.1s0.4,0,0.5,0
				c0.5,0,0.9-0.1,1.2-0.3c0.3-0.2,0.4-0.4,0.4-0.8c0-0.2,0-0.3-0.1-0.5c-0.1-0.1-0.2-0.3-0.4-0.4s-0.3-0.2-0.6-0.3
				c-0.2-0.1-0.4-0.2-0.7-0.3c-0.3-0.1-0.5-0.3-0.7-0.4c-0.2-0.1-0.4-0.3-0.6-0.5c-0.2-0.2-0.3-0.4-0.4-0.6s-0.1-0.5-0.1-0.8
				c0-0.4,0.1-0.7,0.2-0.9c0.2-0.3,0.4-0.5,0.6-0.7c0.3-0.2,0.6-0.3,0.9-0.4c0.3-0.1,0.7-0.1,1-0.1c0.8,0,1.4,0.1,1.8,0.3v1.3
				c-0.4-0.3-1-0.5-1.7-0.5c-0.2,0-0.4,0-0.6,0.1c-0.2,0-0.4,0.1-0.5,0.2s-0.3,0.2-0.4,0.3s-0.1,0.3-0.1,0.5c0,0.2,0,0.3,0.1,0.4
				s0.2,0.2,0.3,0.3s0.3,0.2,0.5,0.3c0.2,0.1,0.4,0.2,0.7,0.3c0.3,0.1,0.5,0.3,0.8,0.4c0.2,0.2,0.4,0.3,0.6,0.5s0.3,0.4,0.4,0.6
				c0.1,0.2,0.2,0.5,0.2,0.8c0,0.4-0.1,0.7-0.2,1c-0.2,0.3-0.4,0.5-0.6,0.7s-0.6,0.3-0.9,0.4c-0.3,0.1-0.7,0.1-1.1,0.1
				c-0.1,0-0.3,0-0.5,0c-0.2,0-0.4,0-0.6-0.1c-0.2,0-0.4-0.1-0.6-0.1S76.8,35.6,76.7,35.5z"/>
			<path fill="#9C4F96" d="M86.3,35.9c-1.1,0-2-0.4-2.7-1.1s-1-1.7-1-2.8c0-1.2,0.3-2.2,1-3c0.7-0.7,1.6-1.1,2.8-1.1
				c1.1,0,2,0.4,2.6,1.1c0.7,0.7,1,1.7,1,2.8c0,1.3-0.3,2.3-1,3S87.4,35.9,86.3,35.9z M86.3,29.1c-0.7,0-1.3,0.3-1.7,0.8
				s-0.7,1.2-0.7,2.1c0,0.9,0.2,1.5,0.6,2.1s1,0.8,1.7,0.8c0.7,0,1.3-0.2,1.7-0.7s0.6-1.2,0.6-2.1c0-0.9-0.2-1.6-0.6-2.1
				C87.6,29.3,87,29.1,86.3,29.1z"/>
			<path fill="#9C4F96" d="M97.9,35.8h-1.4l-3.7-5.7c-0.1-0.1-0.2-0.3-0.2-0.4h0c0,0.2,0,0.5,0,1.1v5h-1.2v-7.7h1.5l3.6,5.5
				c0.2,0.2,0.2,0.4,0.3,0.5h0c0-0.2-0.1-0.5-0.1-1v-5h1.2V35.8z"/>
			<path fill="#9C4F96" d="M106.2,35.8h-1.4l-0.7-2h-3l-0.7,2H99l2.9-7.7h1.4L106.2,35.8z M103.7,32.8l-1.1-3.1
				c0-0.1-0.1-0.3-0.1-0.5h0c0,0.2-0.1,0.4-0.1,0.5l-1.1,3.1H103.7z"/>
			<path fill="#9C4F96" d="M111.5,35.8h-4.3v-7.7h1.3v6.6h3V35.8z"/>
			<path fill="#9C4F96" d="M115.6,35.8v-7.7h2.2c2.8,0,4.3,1.3,4.3,3.8c0,1.2-0.4,2.1-1.2,2.9c-0.8,0.7-1.8,1.1-3.2,1.1H115.6z
				 M116.9,29.2v5.5h1c0.9,0,1.6-0.2,2.1-0.7c0.5-0.5,0.7-1.2,0.7-2.1c0-1.8-0.9-2.7-2.8-2.7H116.9z"/>
			<path fill="#9C4F96" d="M127.8,35.8h-4.3v-7.7h4.2v1.1h-2.9v2.2h2.6v1.1h-2.6v2.3h3V35.8z"/>
			<path fill="#9C4F96" d="M135.2,28.1l-2.8,7.7H131l-2.7-7.7h1.4l1.9,5.8c0.1,0.2,0.1,0.4,0.1,0.6h0c0-0.2,0.1-0.4,0.2-0.7l1.9-5.8
				H135.2z"/>
			<path fill="#9C4F96" d="M137.6,35.8h-1.3v-7.7h1.3V35.8z"/>
			<path fill="#9C4F96" d="M144.8,35.5c-0.6,0.3-1.3,0.5-2.2,0.5c-1.1,0-2-0.4-2.7-1.1s-1-1.6-1-2.8c0-1.2,0.4-2.2,1.1-3
				c0.8-0.8,1.7-1.1,2.9-1.1c0.7,0,1.4,0.1,1.9,0.3v1.3c-0.5-0.3-1.1-0.5-1.7-0.5c-0.8,0-1.5,0.3-2,0.8s-0.8,1.2-0.8,2.1
				c0,0.8,0.2,1.5,0.7,2c0.5,0.5,1.1,0.8,1.9,0.8c0.7,0,1.4-0.2,1.9-0.5V35.5z"/>
			<path fill="#9C4F96" d="M150.6,35.8h-4.3v-7.7h4.2v1.1h-2.9v2.2h2.6v1.1h-2.6v2.3h3V35.8z"/>
		</g>
		<g>
			<path fill="#9C4F96" d="M89.6,82.9v24.2h29.8V82.9H89.6z M117.6,105.3H91.5V84.8h26.1V105.3z"/>
			<rect x="82.2" y="86.4" fill="#E2E2E2" width="33.5" height="28.8"/>
			<g>
				<path fill="#9C4F96" d="M83.6,88.9v24.2h29.8V88.9H83.6z M111.6,111.3H85.5V90.8h26.1V111.3z M104.1,95.4c0,1.5,1.3,2.8,2.8,2.8
					c1.5,0,2.8-1.3,2.8-2.8c0-1.5-1.3-2.8-2.8-2.8C105.4,92.6,104.1,93.9,104.1,95.4z M109.7,109.4H87.3l5.6-14.9l7.5,9.3l3.7-2.8
					L109.7,109.4z"/>
			</g>
		</g>
		<g>
			<g id="gmail_6_">
				<path fill="#9C4F96" d="M171.3,60.8h-21.7c-1.5,0-2.7,1.2-2.7,2.7v16.3c0,1.5,1.2,2.7,2.7,2.7h21.7c1.5,0,2.7-1.2,2.7-2.7V63.5
					C174,62,172.8,60.8,171.3,60.8z M171.3,79.8h-2.7V67.8l-8.1,5.2l-8.1-5.2v11.9h-2.7V63.5h1.6l9.2,5.7l9.2-5.7h1.6V79.8z"/>
			</g>
		</g>
	</g>
</g>
<g id="Layer_2">
</g>
<g id="Layer_3">
</g>
<g id="Layer_4">
</g>
</svg>
