<?xml version="1.0" encoding="utf-8"?>
<!-- Generator: Adobe Illustrator 19.2.1, SVG Export Plug-In . SVG Version: 6.00 Build 0)  -->
<svg version="1.1" xmlns="http://www.w3.org/2000/svg" xmlns:xlink="http://www.w3.org/1999/xlink" x="0px" y="0px"
	 viewBox="0 0 214 177.6" enable-background="new 0 0 214 177.6" xml:space="preserve">
<g id="Layer_1">
	<g>
		<g>
			
				<ellipse transform="matrix(0.1842 -0.9829 0.9829 0.1842 -112.0709 165.6165)" fill="#E2E2E2" cx="43.7" cy="150.3" rx="7.5" ry="7.5"/>
			
				<ellipse transform="matrix(0.1842 -0.9829 0.9829 0.1842 -139.4419 162.162)" fill="#E2E2E2" cx="28" cy="165.1" rx="5.3" ry="5.3"/>
			
				<ellipse transform="matrix(0.1842 -0.9829 0.9829 0.1842 -158.1278 154.5188)" fill="#E2E2E2" cx="14" cy="172.5" rx="3.7" ry="3.7"/>
		</g>
		<g>
			<path fill="#E2E2E2" d="M78.5,38.7c2.8-9.3,12.8-16.2,24.9-16.2c0.1,0,0.1,0,0.2,0v0c0-11.7,11.4-21.2,25.5-21.2
				c9.7,0,18.1,4.5,22.4,11.2c2.5-0.7,5.2-1.2,8-1.2c13.2,0,23.9,8.9,23.9,19.9c0,0.1,0,0.1,0,0.2c1.1-0.1,2.1-0.2,3.2-0.2
				c15,0,27.2,10.1,27.2,22.6c0,12.5-12.2,22.6-27.2,22.6l-99.4,0l0,0c-13,0-23.5-8.8-23.5-19.6C63.7,48.7,69.9,41.6,78.5,38.7"/>
			<path fill="#E2E2E2" d="M78.5,106.3c2.8,9.3,12.8,16.2,24.9,16.2c0.1,0,0.1,0,0.2,0v0c0,11.7,11.4,21.2,25.5,21.2
				c9.7,0,18.1-4.5,22.4-11.2c2.5,0.7,5.2,1.2,8,1.2c13.2,0,23.9-8.9,23.9-19.9c0-0.1,0-0.1,0-0.2c1.1,0.1,2.1,0.2,3.2,0.2
				c15,0,27.2-10.1,27.2-22.6c0-12.5-12.2-22.6-27.2-22.6l-99.4,0l0,0c-13,0-23.5,8.8-23.5,19.6C63.7,96.4,69.9,103.4,78.5,106.3"/>
			<path fill="#E2E2E2" d="M135.5,38.7c-2.8-9.3-12.8-16.2-24.9-16.2c-0.1,0-0.1,0-0.2,0v0C110.4,10.9,99,1.4,85,1.4
				c-9.7,0-18.1,4.5-22.4,11.2c-2.5-0.7-5.2-1.2-8-1.2c-13.2,0-23.9,8.9-23.9,19.9c0,0.1,0,0.1,0,0.2c-1.1-0.1-2.1-0.2-3.2-0.2
				c-15,0-27.2,10.1-27.2,22.6c0,12.5,12.2,22.6,27.2,22.6l99.4,0l0,0c13,0,23.5-8.8,23.5-19.6C150.3,48.7,144.1,41.6,135.5,38.7"/>
			<path fill="#E2E2E2" d="M135.5,106.3c-2.8,9.3-12.8,16.2-24.9,16.2c-0.1,0-0.1,0-0.2,0v0c0,11.7-11.4,21.2-25.5,21.2
				c-9.7,0-18.1-4.5-22.4-11.2c-2.5,0.7-5.2,1.2-8,1.2c-13.2,0-23.9-8.9-23.9-19.9c0-0.1,0-0.1,0-0.2c-1.1,0.1-2.1,0.2-3.2,0.2
				c-15,0-27.2-10.1-27.2-22.6c0-12.5,12.2-22.6,27.2-22.6l99.4,0l0,0c13,0,23.5,8.8,23.5,19.6C150.3,96.4,144.1,103.4,135.5,106.3"
				/>
		</g>
		<g>
			<path fill="#008372" d="M84.2,28.7l-2.1,7.7h-1.4l-1.5-5.4c-0.1-0.2-0.1-0.5-0.1-0.8h0c0,0.3-0.1,0.5-0.1,0.7l-1.5,5.4H76
				l-2.2-7.7h1.4l1.4,5.6c0.1,0.2,0.1,0.5,0.1,0.7h0c0-0.2,0.1-0.4,0.2-0.7l1.6-5.6h1.3l1.5,5.7c0.1,0.2,0.1,0.4,0.1,0.7h0
				c0-0.2,0.1-0.4,0.1-0.7l1.4-5.7H84.2z"/>
			<path fill="#008372" d="M88.5,36.6c-1.1,0-2-0.4-2.7-1.1s-1-1.7-1-2.8c0-1.2,0.3-2.2,1-3c0.7-0.7,1.6-1.1,2.8-1.1
				c1.1,0,2,0.4,2.6,1.1c0.7,0.7,1,1.7,1,2.8c0,1.3-0.3,2.3-1,3S89.6,36.6,88.5,36.6z M88.5,29.7c-0.7,0-1.3,0.3-1.7,0.8
				s-0.7,1.2-0.7,2.1c0,0.9,0.2,1.5,0.6,2.1s1,0.8,1.7,0.8c0.7,0,1.3-0.2,1.7-0.7s0.6-1.2,0.6-2.1c0-0.9-0.2-1.6-0.6-2.1
				C89.8,30,89.3,29.7,88.5,29.7z"/>
			<path fill="#008372" d="M99.6,36.4h-1.5l-1.2-2.1c-0.1-0.2-0.2-0.4-0.3-0.5c-0.1-0.1-0.2-0.2-0.3-0.3s-0.2-0.1-0.4-0.2
				s-0.3-0.1-0.4-0.1h-0.5v3.1h-1.3v-7.7h2.5c0.4,0,0.7,0,1,0.1c0.3,0.1,0.6,0.2,0.8,0.4c0.2,0.2,0.4,0.4,0.5,0.6
				c0.1,0.3,0.2,0.6,0.2,0.9c0,0.3,0,0.5-0.1,0.7c-0.1,0.2-0.2,0.4-0.3,0.6c-0.1,0.2-0.3,0.3-0.5,0.5c-0.2,0.1-0.4,0.2-0.7,0.3v0
				c0.1,0.1,0.3,0.2,0.4,0.3c0.1,0.1,0.2,0.2,0.3,0.3s0.2,0.2,0.3,0.3c0.1,0.1,0.2,0.3,0.3,0.4L99.6,36.4z M94.9,29.8v2.5H96
				c0.2,0,0.4,0,0.5-0.1c0.2-0.1,0.3-0.1,0.4-0.3c0.1-0.1,0.2-0.3,0.3-0.4c0.1-0.2,0.1-0.3,0.1-0.6c0-0.4-0.1-0.7-0.3-0.9
				c-0.2-0.2-0.6-0.3-1-0.3H94.9z"/>
			<path fill="#008372" d="M106.3,36.4h-1.7l-2.7-3.5c-0.1-0.1-0.2-0.2-0.2-0.3h0v3.8h-1.3v-7.7h1.3v3.6h0c0-0.1,0.1-0.2,0.2-0.3
				l2.6-3.4h1.5l-3,3.7L106.3,36.4z"/>
			<path fill="#008372" d="M110.2,36.4v-7.7h2.2c2.8,0,4.3,1.3,4.3,3.8c0,1.2-0.4,2.1-1.2,2.9c-0.8,0.7-1.8,1.1-3.2,1.1H110.2z
				 M111.5,29.8v5.5h1c0.9,0,1.6-0.2,2.1-0.7c0.5-0.5,0.7-1.2,0.7-2.1c0-1.8-0.9-2.7-2.8-2.7H111.5z"/>
			<path fill="#008372" d="M122.4,36.4h-4.3v-7.7h4.2v1.1h-2.9V32h2.6v1.1h-2.6v2.3h3V36.4z"/>
			<path fill="#008372" d="M129.8,28.7l-2.8,7.7h-1.4l-2.7-7.7h1.4l1.9,5.8c0.1,0.2,0.1,0.4,0.1,0.6h0c0-0.2,0.1-0.4,0.2-0.7
				l1.9-5.8H129.8z"/>
			<path fill="#008372" d="M132.2,36.4h-1.3v-7.7h1.3V36.4z"/>
			<path fill="#008372" d="M139.4,36.1c-0.6,0.3-1.3,0.5-2.2,0.5c-1.1,0-2-0.4-2.7-1.1s-1-1.6-1-2.8c0-1.2,0.4-2.2,1.1-3
				c0.8-0.8,1.7-1.1,2.9-1.1c0.7,0,1.4,0.1,1.9,0.3v1.3c-0.5-0.3-1.1-0.5-1.7-0.5c-0.8,0-1.5,0.3-2,0.8s-0.8,1.2-0.8,2.1
				c0,0.8,0.2,1.5,0.7,2c0.5,0.5,1.1,0.8,1.9,0.8c0.7,0,1.4-0.2,1.9-0.5V36.1z"/>
			<path fill="#008372" d="M145.2,36.4h-4.3v-7.7h4.2v1.1h-2.9V32h2.6v1.1h-2.6v2.3h3V36.4z"/>
		</g>
		<g>
			<g>
				<g>
					<path fill="#008372" d="M35.7,63.8c-0.9,0-1.7,0.7-1.7,1.6v6.4c0,0.9,0.7,1.6,1.7,1.6s1.7-0.7,1.7-1.6v-6.4
						C37.3,64.5,36.6,63.8,35.7,63.8z"/>
					<path fill="#008372" d="M60.2,63.8c0.9,0,1.7,0.7,1.7,1.6v6.4c0,0.9-0.7,1.6-1.7,1.6s-1.7-0.7-1.7-1.6v-6.4
						C58.5,64.5,59.3,63.8,60.2,63.8z"/>
					<path fill="#008372" d="M38,63.8c0,0,0,10.3,0,11.6c0,1.3,1.5,1.9,1.9,1.9h2.4v4.8c0,0.9,0.7,1.6,1.7,1.6s1.7-0.7,1.7-1.6v-4.8
						h4.5v4.8c0,0.9,0.7,1.6,1.7,1.6s1.7-0.7,1.7-1.6v-4.8H56c0.4,0,1.9-0.6,1.9-1.9s0-11.6,0-11.6H38L38,63.8z"/>
					<path fill="#008372" d="M58,63.2c0-2.1-0.8-4-2.2-5.5c0,0,0,0,0,0l1.8-1.8c0.3-0.3,0.3-0.7,0-0.9c-0.3-0.3-0.7-0.3-0.9,0
						l-1.8,1.8c0,0,0,0,0,0c-1.8-1.5-4.2-2.4-6.8-2.4c-2.7,0-5.2,1-7,2.5c0-0.1-0.1-0.1-0.1-0.2L39,55c-0.3-0.3-0.7-0.3-0.9,0
						s-0.3,0.7,0,0.9l1.8,1.8c0.1,0.1,0.1,0.1,0.2,0.1c-1.3,1.5-2.1,3.3-2.1,5.3L58,63.2L58,63.2z M52.1,58c0.7,0,1.3,0.6,1.3,1.3
						c0,0.7-0.6,1.3-1.3,1.3c-0.7,0-1.3-0.6-1.3-1.3C50.8,58.6,51.4,58,52.1,58z M43.7,58c0.7,0,1.3,0.6,1.3,1.3
						c0,0.7-0.6,1.3-1.3,1.3c-0.7,0-1.3-0.6-1.3-1.3C42.4,58.6,43,58,43.7,58z"/>
				</g>
			</g>
		</g>
		<g>
			<path fill="#008372" d="M111.6,93h13.2l-1.2-3c0,0-0.2-0.3-0.5-0.3h-9.7c0,0-0.4,0-0.5,0.3L111.6,93z"/>
			<path fill="#008372" d="M124.8,95.7c0,0,0-0.8-0.8-0.8h-5.6h-14.9H98c-0.8,0-0.8,0.8-0.8,0.8l0,15.6c0,0.8,0.8,0.8,0.8,0.8h5.6
				h14.9h5.6c0,0,0.8,0,0.8-0.8L124.8,95.7z"/>
		</g>
		<g id="outlook_1_">
			<path fill="#008372" d="M178.3,64.9c0-0.7-0.8-0.9-1.3-0.9c-2.9,0-5.7,0-8.6,0c0-1.9,0-3.7,0-5.5v-0.3
				c-4.2,0.7-10.1,1.8-14.4,2.6c0,6.4,0,12.9,0,19.4c4.2,0.7,10.2,1.7,14.4,2.5v-0.2c0-1.7,0-3.5,0-5.3c3-0.1,6.1,0.1,9.1-0.1
				c0.9,0,0.9-1,0.9-1.6C178.3,71.9,178.4,68.4,178.3,64.9z M163,74.2c-1.7,1.4-4.4,0.6-5.2-1.4c-1-2.3-0.5-5.9,2.2-6.8
				c1.5-0.6,3.4,0.2,4,1.7C164.9,69.8,164.8,72.6,163,74.2z M177.5,76.3c-3,0-6.1,0-9.1,0c0-2.4,0-4.8,0-7.2c1,0.9,2,2,3,2.8
				c0.5,0.1,0.8-0.3,1.1-0.6c1.7-1.6,3.3-3.2,5-4.7C177.5,69.8,177.5,73,177.5,76.3z M177.1,65.9c-1.8,1.7-3.7,3.4-5.5,5.1
				c-1.1-1-2.2-2-3.2-3c0-1,0-2,0-3c3.1,0,6.1,0,9.2,0C177.5,65.3,177.4,65.6,177.1,65.9z"/>
			<path fill="#008372" d="M160.2,67.6c0.7-0.4,1.7,0,2,0.7c0.6,1.1,0.6,2.4,0.2,3.6c-0.2,0.8-1.2,1.5-2,1.2
				c-1.1-0.3-1.4-1.6-1.4-2.6C158.9,69.4,159.2,68.1,160.2,67.6z"/>
		</g>
	</g>
</g>
<g id="Layer_2">
</g>
<g id="Layer_3">
</g>
<g id="Layer_4">
</g>
</svg>
