<?xml version="1.0" encoding="utf-8"?>
<!-- Generator: Adobe Illustrator 19.2.1, SVG Export Plug-In . SVG Version: 6.00 Build 0)  -->
<svg version="1.1" xmlns="http://www.w3.org/2000/svg" xmlns:xlink="http://www.w3.org/1999/xlink" x="0px" y="0px"
	 viewBox="0 0 134 62.2" enable-background="new 0 0 134 62.2" xml:space="preserve">
<g id="Layer_1">
	<g>
		<g>
			<g>
				<rect x="72.5" y="0.1" fill="#F68C1F" width="1.8" height="41.8"/>
				<rect x="69.4" y="0.1" fill="#F68C1F" width="1.8" height="41.8"/>
			</g>
			<g>
				<path fill="#F68C1F" d="M63.2,35.6v-2.6c2.4,1.5,4.7,2.2,7.2,2.2c2.6,0,4.5-0.5,5.8-1.6c1.3-1.1,2-2.5,2-4.5c0-1.7-0.4-3-1.3-4
					c-0.9-1-2.8-2.4-5.8-4.1c-3.3-1.9-5.4-3.6-6.3-4.9c-0.9-1.3-1.3-2.8-1.3-4.5c0-2.3,0.9-4.3,2.7-5.9c1.8-1.6,4.2-2.4,7.2-2.4
					c2,0,3.9,0.3,5.9,1v2.4c-1.9-0.9-4-1.3-6.2-1.3c-2.2,0-4,0.6-5.3,1.7c-1.3,1.1-2,2.6-2,4.3c0,1.7,0.4,3,1.3,4
					c0.9,1,2.8,2.3,5.8,4.1c3.1,1.7,5.1,3.3,6.1,4.6c1,1.4,1.5,2.9,1.5,4.7c0,2.5-0.9,4.6-2.6,6.2c-1.8,1.6-4.2,2.4-7.4,2.4
					c-1.1,0-2.4-0.2-3.9-0.5C65.1,36.5,63.9,36.1,63.2,35.6z"/>
			</g>
		</g>
		<g>
			<g>
				
					<rect x="109.4" y="48.4" transform="matrix(0.5078 -0.8615 0.8615 0.5078 18.8802 131.0573)" fill="#F68C1F" width="29.5" height="1.3"/>
				
					<rect x="107.5" y="47.3" transform="matrix(0.5078 -0.8615 0.8615 0.5078 18.9098 128.8632)" fill="#F68C1F" width="29.5" height="1.3"/>
			</g>
			<g>
				<path fill="#F68C1F" d="M112.7,54.2l0.9-1.6c0.9,1.8,2.1,3.1,3.5,3.9c1.6,0.9,2.9,1.3,4.1,1.1c1.2-0.2,2.1-0.8,2.8-2
					c0.6-1,0.8-2,0.6-2.9c-0.2-0.9-0.9-2.5-2.1-4.6c-1.3-2.4-2-4.1-2.1-5.2c-0.1-1.1,0.2-2.2,0.8-3.2c0.8-1.4,2.1-2.3,3.8-2.6
					c1.7-0.3,3.4,0,5.3,1.1c1.2,0.7,2.3,1.6,3.2,2.7l-0.9,1.4c-0.9-1.2-2-2.2-3.3-3c-1.4-0.8-2.6-1.1-3.8-0.9
					c-1.2,0.2-2.1,0.9-2.7,1.9c-0.6,1-0.8,2-0.6,2.9c0.2,0.9,0.9,2.4,2.1,4.5c1.2,2.2,1.9,3.8,2.1,5c0.1,1.2-0.1,2.3-0.7,3.4
					c-0.9,1.5-2.2,2.5-3.8,2.8c-1.6,0.3-3.4-0.1-5.4-1.2c-0.7-0.4-1.4-1-2.2-1.7C113.5,55.4,113,54.8,112.7,54.2z"/>
			</g>
		</g>
		<g>
			<g>
				
					<rect x="10.2" y="25.3" transform="matrix(0.841 -0.5411 0.5411 0.841 -19.9224 12.2096)" fill="#F68C1F" width="1.3" height="29.5"/>
				
					<rect x="8.3" y="26.5" transform="matrix(0.841 -0.5411 0.5411 0.841 -20.8657 11.3936)" fill="#F68C1F" width="1.3" height="29.5"/>
			</g>
			<g>
				<path fill="#F68C1F" d="M10.3,52.6l-1-1.5c2,0,3.7-0.5,5.1-1.4c1.5-1,2.5-2,2.9-3.2c0.4-1.1,0.2-2.3-0.5-3.4
					c-0.6-1-1.4-1.6-2.3-1.9c-0.9-0.3-2.6-0.3-5-0.2c-2.7,0.1-4.6,0-5.6-0.5c-1-0.4-1.9-1.2-2.5-2.2c-0.9-1.4-1.1-2.9-0.7-4.5
					c0.5-1.6,1.6-3,3.4-4.2c1.2-0.7,2.4-1.3,3.9-1.7l0.9,1.4c-1.5,0.2-2.9,0.7-4.2,1.6c-1.3,0.9-2.2,1.9-2.5,3
					c-0.3,1.2-0.2,2.3,0.5,3.3c0.6,1,1.4,1.6,2.3,1.9c0.9,0.2,2.6,0.3,5,0.2c2.5-0.1,4.3,0,5.4,0.4c1.1,0.4,2,1.1,2.7,2.2
					c1,1.5,1.2,3,0.8,4.7c-0.4,1.6-1.6,3-3.5,4.2c-0.7,0.4-1.5,0.8-2.5,1.2C11.8,52.3,10.9,52.5,10.3,52.6z"/>
			</g>
		</g>
	</g>
</g>
<g id="Layer_2">
</g>
<g id="Layer_3">
</g>
<g id="Layer_4">
</g>
</svg>
