<?xml version="1.0" encoding="utf-8"?>
<!-- Generator: Adobe Illustrator 19.2.1, SVG Export Plug-In . SVG Version: 6.00 Build 0)  -->
<svg version="1.1" xmlns="http://www.w3.org/2000/svg" xmlns:xlink="http://www.w3.org/1999/xlink" x="0px" y="0px"
	 viewBox="0 0 248 224" enable-background="new 0 0 248 224" xml:space="preserve">
<g id="Layer_1">
</g>
<g id="Layer_2">
</g>
<g id="Layer_3">
	<g>
		<path fill="#E6E6E6" d="M51.8,45.5C55.1,34.3,67.2,26,81.7,26c0.1,0,0.2,0,0.2,0v0c0-14.1,13.7-25.6,30.7-25.6
			c11.7,0,21.9,5.4,27,13.5c3-0.9,6.3-1.4,9.7-1.4c15.9,0,28.8,10.8,28.8,24c0,0.1,0,0.1,0,0.2c1.3-0.1,2.6-0.2,3.9-0.2
			c18.1,0,32.7,12.2,32.7,27.3c0,15.1-14.7,27.3-32.7,27.3L62.3,91l0,0c-15.7,0-28.3-10.6-28.3-23.6C33.9,57.4,41.3,48.9,51.8,45.5"
			/>
		<g>
			<g>
				<path fill="none" stroke="#1EBBEE" stroke-miterlimit="10" stroke-dasharray="2,2" d="M120,98.8c-17.4,48.7-7,101.9,5.6,124.8"
					/>
				<g>
					<polygon fill="#1EBBEE" points="115.6,100.2 119.6,100 122.6,102.8 122.1,93.3 					"/>
				</g>
			</g>
		</g>
		<g>
			<g>
				<path fill="none" stroke="#1EBBEE" stroke-miterlimit="10" stroke-dasharray="2,2" d="M131.7,217.1
					c17.5-48.7,7.2-101.8-5.3-124.8"/>
				<g>
					<polygon fill="#1EBBEE" points="136,215.7 132,215.9 129.1,213.1 129.5,222.6 					"/>
				</g>
			</g>
		</g>
		<g>
			<path id="Dropbox_3_" fill="#7F7F7F" d="M82.8,60.8l-7.7-4.7l4.9-4l7.7,4.8L82.8,60.8z M79.9,69.7l7.4-4.3l-4.5-3.8L75.6,66
				L79.9,69.7z M73.9,66l-7.3-4.4l-4.5,3.8l7.4,4.3L73.9,66z M67,69.1v1.4l7.4,4.6v-8.6l-4.9,4L67,69.1z M82.5,69.1L80,70.4l-4.9-4
				V75l7.4-4.6V69.1z M74.5,56.1l-4.9-4l-7.7,4.8l4.9,4L74.5,56.1z"/>
		</g>
		<g>
			<path fill="#FFFFFF" d="M151,167.7l-20.9-36.8c-0.7-1.2-1.8-1.9-3-1.9s-2.3,0.7-3,1.9l-20.9,36.8c-0.7,1.2-0.7,2.5-0.1,3.5
				c0.6,1,1.8,1.7,3.1,1.7H148c1.3,0,2.5-0.6,3.1-1.7C151.7,170.2,151.7,168.8,151,167.7z"/>
			<g>
				<path fill="#F68C1F" d="M148.3,165.8l-18.6-32.6c-0.6-1-1.6-1.7-2.7-1.7c-1.1,0-2.1,0.6-2.7,1.7l-18.6,32.6
					c-0.6,1-0.6,2.2-0.1,3.1c0.5,0.9,1.6,1.5,2.7,1.5h37.1c1.2,0,2.2-0.6,2.7-1.5C148.9,168,148.9,166.8,148.3,165.8z M126.9,142
					c1.4,0,2.6,1.2,2.6,2.6v9.3c0,1.4-1.2,2.6-2.6,2.6c-1.4,0-2.6-1.2-2.6-2.6v-9.3C124.4,143.1,125.5,142,126.9,142z M127.1,159.3
					c1.4,0,2.6,1.2,2.6,2.6c0,1.4-1.2,2.6-2.6,2.6c-1.4,0-2.6-1.2-2.6-2.6C124.5,160.4,125.6,159.3,127.1,159.3z"/>
			</g>
		</g>
		<g>
			<g>
				<path fill="none" stroke="#1EBBEE" stroke-miterlimit="10" stroke-dasharray="2,2" d="M242.5,26.7c-26.9-5.3-55.9,1.4-76.3,16.4
					"/>
				<g>
					<polygon fill="#1EBBEE" points="240.6,22.5 241.3,26.4 239,29.7 248.3,28 					"/>
				</g>
			</g>
		</g>
		<g>
			<g>
				<path fill="none" stroke="#1EBBEE" stroke-miterlimit="10" stroke-dasharray="2,2" d="M5.5,26.7c26.9-5.3,55.9,1.4,76.3,16.4"/>
				<g>
					<polygon fill="#1EBBEE" points="9,29.7 6.7,26.4 7.4,22.5 -0.3,28 					"/>
				</g>
			</g>
		</g>
		<g>
			<g id="gmail_8_">
				<path fill="#7F7F7F" d="M186.9,58.3h-17.3c-1.2,0-2.2,1-2.2,2.2v13c0,1.2,1,2.2,2.2,2.2h17.3c1.2,0,2.2-1,2.2-2.2v-13
					C189.1,59.3,188.1,58.3,186.9,58.3z M186.9,73.5h-2.2V64l-6.5,4.1l-6.5-4.1v9.5h-2.2v-13h1.3l7.4,4.5l7.4-4.5h1.3V73.5z"/>
			</g>
		</g>
		<g>
			<path fill="#9C4F96" d="M99.7,43.6v3h-1.4v-8.4h2.5c1,0,1.7,0.2,2.2,0.7s0.8,1.1,0.8,1.9s-0.3,1.5-0.8,2s-1.3,0.8-2.3,0.8H99.7z
				 M99.7,39.4v3.1h0.9c0.6,0,1.1-0.1,1.4-0.4s0.5-0.7,0.5-1.2c0-1-0.6-1.5-1.7-1.5H99.7z"/>
			<path fill="#9C4F96" d="M110,46.7h-4.7v-8.4h4.5v1.2h-3.1v2.4h2.9V43h-2.9v2.5h3.3V46.7z"/>
			<path fill="#9C4F96" d="M118,46.7h-1.6l-1.3-2.3c-0.1-0.2-0.2-0.4-0.4-0.5s-0.2-0.3-0.4-0.4s-0.2-0.2-0.4-0.2s-0.3-0.1-0.5-0.1
				h-0.6v3.4h-1.4v-8.4h2.8c0.4,0,0.8,0,1.1,0.1s0.6,0.2,0.9,0.4s0.4,0.4,0.6,0.7s0.2,0.6,0.2,1c0,0.3,0,0.6-0.1,0.8
				s-0.2,0.5-0.4,0.7s-0.4,0.4-0.6,0.5s-0.5,0.2-0.8,0.3v0c0.2,0.1,0.3,0.2,0.4,0.3s0.2,0.2,0.3,0.3s0.2,0.2,0.3,0.4
				s0.2,0.3,0.3,0.5L118,46.7z M112.9,39.4v2.7h1.2c0.2,0,0.4,0,0.6-0.1s0.3-0.2,0.5-0.3s0.2-0.3,0.3-0.5s0.1-0.4,0.1-0.6
				c0-0.4-0.1-0.7-0.4-0.9s-0.6-0.3-1.1-0.3H112.9z"/>
			<path fill="#9C4F96" d="M118.6,46.3v-1.4c0.1,0.1,0.3,0.2,0.5,0.3s0.4,0.2,0.6,0.2s0.4,0.1,0.6,0.1s0.4,0.1,0.6,0.1
				c0.6,0,1-0.1,1.3-0.3s0.4-0.5,0.4-0.8c0-0.2,0-0.4-0.1-0.5s-0.2-0.3-0.4-0.4s-0.4-0.2-0.6-0.3s-0.5-0.2-0.7-0.3
				c-0.3-0.2-0.6-0.3-0.8-0.5s-0.5-0.3-0.6-0.5s-0.3-0.4-0.4-0.6s-0.2-0.5-0.2-0.8c0-0.4,0.1-0.7,0.3-1s0.4-0.5,0.7-0.7
				s0.6-0.3,1-0.4s0.8-0.1,1.1-0.1c0.9,0,1.5,0.1,1.9,0.3v1.4c-0.5-0.3-1.1-0.5-1.8-0.5c-0.2,0-0.4,0-0.6,0.1s-0.4,0.1-0.6,0.2
				s-0.3,0.2-0.4,0.3s-0.2,0.3-0.2,0.5c0,0.2,0,0.3,0.1,0.5s0.2,0.3,0.3,0.4s0.3,0.2,0.6,0.3s0.5,0.2,0.8,0.3
				c0.3,0.2,0.6,0.3,0.8,0.5s0.5,0.4,0.7,0.6s0.4,0.4,0.5,0.7s0.2,0.5,0.2,0.8c0,0.4-0.1,0.8-0.3,1.1s-0.4,0.5-0.7,0.7
				s-0.6,0.3-1,0.4s-0.8,0.1-1.2,0.1c-0.1,0-0.3,0-0.5,0s-0.4-0.1-0.6-0.1s-0.4-0.1-0.6-0.1S118.7,46.4,118.6,46.3z"/>
			<path fill="#9C4F96" d="M129,46.8c-1.2,0-2.2-0.4-2.9-1.2s-1.1-1.8-1.1-3.1c0-1.4,0.4-2.4,1.1-3.2s1.8-1.2,3-1.2
				c1.2,0,2.1,0.4,2.9,1.2s1.1,1.8,1.1,3.1c0,1.4-0.4,2.5-1.1,3.3S130.2,46.8,129,46.8z M129,39.4c-0.8,0-1.4,0.3-1.9,0.9
				s-0.7,1.3-0.7,2.3c0,0.9,0.2,1.7,0.7,2.3s1.1,0.9,1.8,0.9c0.8,0,1.4-0.3,1.9-0.8s0.7-1.3,0.7-2.3c0-1-0.2-1.8-0.7-2.3
				S129.8,39.4,129,39.4z"/>
			<path fill="#9C4F96" d="M141.7,46.7h-1.5l-4-6.2c-0.1-0.2-0.2-0.3-0.3-0.5h0c0,0.2,0,0.6,0,1.2v5.5h-1.3v-8.4h1.6l3.9,6
				c0.2,0.3,0.3,0.4,0.3,0.5h0c0-0.2-0.1-0.6-0.1-1.1v-5.4h1.3V46.7z"/>
			<path fill="#9C4F96" d="M150.7,46.7h-1.5l-0.8-2.1h-3.3l-0.7,2.1h-1.5l3.1-8.4h1.6L150.7,46.7z M148,43.4l-1.2-3.4
				c0-0.1-0.1-0.3-0.1-0.5h0c0,0.2-0.1,0.4-0.1,0.5l-1.2,3.4H148z"/>
			<path fill="#9C4F96" d="M156.5,46.7h-4.7v-8.4h1.4v7.2h3.3V46.7z"/>
			<path fill="#9C4F96" d="M120.6,61.1H119l-0.8-2.1H115l-0.7,2.1h-1.5l3.1-8.4h1.6L120.6,61.1z M117.9,57.8l-1.2-3.4
				c0-0.1-0.1-0.3-0.1-0.5h0c0,0.2-0.1,0.4-0.1,0.5l-1.2,3.4H117.9z"/>
			<path fill="#9C4F96" d="M123.1,58v3h-1.4v-8.4h2.5c1,0,1.7,0.2,2.2,0.7s0.8,1.1,0.8,1.9s-0.3,1.5-0.8,2s-1.3,0.8-2.3,0.8H123.1z
				 M123.1,53.8v3.1h0.9c0.6,0,1.1-0.1,1.4-0.4s0.5-0.7,0.5-1.2c0-1-0.6-1.5-1.7-1.5H123.1z"/>
			<path fill="#9C4F96" d="M130.1,58v3h-1.4v-8.4h2.5c1,0,1.7,0.2,2.2,0.7s0.8,1.1,0.8,1.9s-0.3,1.5-0.8,2s-1.3,0.8-2.3,0.8H130.1z
				 M130.1,53.8v3.1h0.9c0.6,0,1.1-0.1,1.4-0.4s0.5-0.7,0.5-1.2c0-1-0.6-1.5-1.7-1.5H130.1z"/>
			<path fill="#9C4F96" d="M135.4,60.7v-1.4c0.1,0.1,0.3,0.2,0.5,0.3s0.4,0.2,0.6,0.2s0.4,0.1,0.6,0.1s0.4,0.1,0.6,0.1
				c0.6,0,1-0.1,1.3-0.3s0.4-0.5,0.4-0.8c0-0.2,0-0.4-0.1-0.5s-0.2-0.3-0.4-0.4s-0.4-0.2-0.6-0.3s-0.5-0.2-0.7-0.3
				c-0.3-0.2-0.6-0.3-0.8-0.5s-0.5-0.3-0.6-0.5s-0.3-0.4-0.4-0.6s-0.2-0.5-0.2-0.8c0-0.4,0.1-0.7,0.3-1s0.4-0.5,0.7-0.7
				s0.6-0.3,1-0.4s0.8-0.1,1.1-0.1c0.9,0,1.5,0.1,1.9,0.3v1.4c-0.5-0.3-1.1-0.5-1.8-0.5c-0.2,0-0.4,0-0.6,0.1s-0.4,0.1-0.6,0.2
				s-0.3,0.2-0.4,0.3s-0.2,0.3-0.2,0.5c0,0.2,0,0.3,0.1,0.5s0.2,0.3,0.3,0.4s0.3,0.2,0.6,0.3s0.5,0.2,0.8,0.3
				c0.3,0.2,0.6,0.3,0.8,0.5s0.5,0.4,0.7,0.6s0.4,0.4,0.5,0.7s0.2,0.5,0.2,0.8c0,0.4-0.1,0.8-0.3,1.1s-0.4,0.5-0.7,0.7
				s-0.6,0.3-1,0.4s-0.8,0.1-1.2,0.1c-0.1,0-0.3,0-0.5,0s-0.4-0.1-0.6-0.1s-0.4-0.1-0.6-0.1S135.5,60.8,135.4,60.7z"/>
		</g>
	</g>
</g>
<g id="Layer_4">
</g>
</svg>
