<?xml version="1.0" encoding="utf-8"?>
<!-- Generator: Adobe Illustrator 19.2.1, SVG Export Plug-In . SVG Version: 6.00 Build 0)  -->
<svg version="1.1" xmlns="http://www.w3.org/2000/svg" xmlns:xlink="http://www.w3.org/1999/xlink" x="0px" y="0px"
	 viewBox="0 0 560 319" enable-background="new 0 0 560 319" xml:space="preserve">
<g id="MFA_with_mobile_problem">
</g>
<g id="desktop_management_problem">
	<g>
		<path fill="#E6E6E6" d="M536.4,164.4c15.9-9.2,26.4-24.5,26.4-41.8c0-28.1-27.3-50.8-61-50.8c-2.5,0-4.9,0.2-7.3,0.4
			c0-0.1,0-0.2,0-0.4c0-24.7-24.1-44.8-53.7-44.8c-6.4,0-12.4,1-18.1,2.7c-9.6-15-28.6-25.1-50.4-25.1c-21.2,0-39.6,9.6-49.5,23.8
			c-9.9-14.2-28.4-23.8-49.5-23.8c-21.8,0-40.8,10.2-50.4,25.1c-5.7-1.7-11.7-2.7-18.1-2.7C175,27,150.9,47,150.9,71.7
			c0,0.1,0,0.3,0,0.4c-2.4-0.2-4.8-0.4-7.3-0.4c-33.7,0-61,22.8-61,50.8c0,17.4,10.5,32.7,26.4,41.8c-15.9,9.2-26.4,24.5-26.4,41.8
			c0,28.1,27.3,50.8,61,50.8c2.5,0,4.9-0.2,7.3-0.4c0,0.1,0,0.2,0,0.4c0,24.7,24.1,44.8,53.7,44.8c6.4,0,12.4-1,18.1-2.7
			c9.6,15,28.6,25.1,50.4,25.1c21.2,0,39.6-9.6,49.5-23.8c9.9,14.2,28.4,23.8,49.5,23.8c21.8,0,40.8-10.2,50.4-25.1
			c5.7,1.7,11.7,2.7,18.1,2.7c29.7,0,53.7-20.1,53.7-44.8c0-0.1,0-0.3,0-0.4c2.4,0.2,4.8,0.4,7.3,0.4c33.7,0,61-22.8,61-50.8
			C562.8,188.9,552.4,173.6,536.4,164.4z"/>
		<g>
			
				<ellipse transform="matrix(0.7071 -0.7071 0.7071 0.7071 -95.0933 95.9523)" fill="#E6E6E6" cx="68.3" cy="162.8" rx="11.7" ry="11.7"/>
			
				<ellipse transform="matrix(0.7071 -0.7071 0.7071 0.7071 -101.225 70.9341)" fill="#E6E6E6" cx="35" cy="157.7" rx="8.2" ry="8.2"/>
			
				<ellipse transform="matrix(0.7071 -0.7071 0.7071 0.7071 -110.313 54.4196)" fill="#E6E6E6" cx="10.5" cy="160.4" rx="5.7" ry="5.7"/>
		</g>
		<g>
			<defs>
				<path id="SVGID_11_" d="M536.4,164.4c15.9-9.2,26.4-24.5,26.4-41.8c0-28.1-27.3-50.8-61-50.8c-2.5,0-4.9,0.2-7.3,0.4
					c0-0.1,0-0.2,0-0.4c0-24.7-24.1-44.8-53.7-44.8c-6.4,0-12.4,1-18.1,2.7c-9.6-15-28.6-25.1-50.4-25.1c-21.2,0-39.6,9.6-49.5,23.8
					c-9.9-14.2-28.4-23.8-49.5-23.8c-21.8,0-40.8,10.2-50.4,25.1c-5.7-1.7-11.7-2.7-18.1-2.7C175,27,150.9,47,150.9,71.7
					c0,0.1,0,0.3,0,0.4c-2.4-0.2-4.8-0.4-7.3-0.4c-33.7,0-61,22.8-61,50.8c0,17.4,10.5,32.7,26.4,41.8
					c-15.9,9.2-26.4,24.5-26.4,41.8c0,28.1,27.3,50.8,61,50.8c2.5,0,4.9-0.2,7.3-0.4c0,0.1,0,0.2,0,0.4c0,24.7,24.1,44.8,53.7,44.8
					c6.4,0,12.4-1,18.1-2.7c9.6,15,28.6,25.1,50.4,25.1c21.2,0,39.6-9.6,49.5-23.8c9.9,14.2,28.4,23.8,49.5,23.8
					c21.8,0,40.8-10.2,50.4-25.1c5.7,1.7,11.7,2.7,18.1,2.7c29.7,0,53.7-20.1,53.7-44.8c0-0.1,0-0.3,0-0.4c2.4,0.2,4.8,0.4,7.3,0.4
					c33.7,0,61-22.8,61-50.8C562.8,188.9,552.4,173.6,536.4,164.4z"/>
			</defs>
			<clipPath id="SVGID_2_">
				<use xlink:href="#SVGID_11_"  overflow="visible"/>
			</clipPath>
			<g clip-path="url(#SVGID_2_)">
				<g>
					<path fill="#1EBBEE" d="M453.7,233.2V117.4c0-25.3-20.7-46.1-46-46.1H62.4c-25.9,0-46,20.7-46,46.1v115.7H453.7z"/>
					<path fill="#0078D7" d="M49.2,116.3h-66.7v116.9h33.9h32.8H82v-83.5C82,131.3,67.6,116.3,49.2,116.3"/>
					<path fill="#1EBBEE" d="M15.2,233.2v-83.5c0-18.4-14.4-33.4-32.8-33.4s-32.8,15-32.8,33.4v83.5H15.2z"/>
					<path fill="#0078D7" d="M349.5,233.2v-36.8c0-9.8-8.1-17.8-17.8-17.8H78.5c-9.8,0-18.4,8.1-18.4,17.8v36.8H349.5z"/>
					<path fill="#1EBBEE" d="M313.3,233.3v-23c0-9.8-8.1-17.8-18.4-17.8H41.7c-9.8,0-17.8,8.1-17.8,17.8v23H313.3z"/>
					<path fill="#492474" d="M115.3,134.7c-1.2-5.8-7.5-10.4-13.2-10.4H64.7c-5.8,0-9.8,4.6-8.6,10.4l8.6,36.8
						c1.2,5.8,6.9,10.9,13.2,10.9h37.4c5.8,0,9.8-5.2,8.1-10.9L115.3,134.7z"/>
					<path fill="#492474" d="M294.1,134.7c1.2-5.8,7.5-10.4,13.2-10.4h37.4c5.8,0,9.8,4.6,8.6,10.4l-8.6,36.8
						c-1.2,5.8-6.9,10.9-13.2,10.9h-37.4c-5.8,0-9.8-5.2-8.1-10.9L294.1,134.7z"/>
					<g>
						<path fill="#DD5900" d="M252.8,108.4c0,11.8,9.7,21.5,21.6,21.5c0,0,1.4-21.5-11.5-21.5H252.8z"/>
						<g>
							<polygon fill="#FF8C00" points="223.3,185.2 223.3,192.5 274,176.5 274,163 							"/>
							<path fill="#FF8C00" d="M223.3,195.5c0,4.2,3.5,7.6,7.6,7.6v-14.3l-7.6-3.5V195.5z"/>
						</g>
						
							<rect x="260.1" y="138.5" opacity="0" fill="none" stroke="#FFFFFF" stroke-width="0.3476" stroke-linecap="round" stroke-linejoin="round" stroke-miterlimit="10" width="13.2" height="20.5"/>
						<rect x="247.5" y="133.3" fill="#FFB900" width="13.6" height="10.7"/>
						
							<rect x="247.9" y="133.3" opacity="0" fill="none" stroke="#FFFFFF" stroke-width="0.3476" stroke-linecap="round" stroke-linejoin="round" stroke-miterlimit="10" width="13.2" height="5.2"/>
						<polygon fill="#FFB900" points="233.3,195.2 233.3,202.5 284,186.5 284,173 						"/>
						<path display="none" fill="#FFB900" d="M348.7,155.6c-1.7,0-2.8-1.4-2.8-2.8c0-1.7,1-3.1,2.8-3.1c10.1,0,18.1-8,18.1-18.1
							c0-9.7-8-18.1-18.1-18.1c-1.7,0-2.8-1-2.8-2.8c0-1.7,1-3.1,2.8-3.1c13.2,0,24,10.8,24,24S361.9,155.6,348.7,155.6"/>
						<path fill="#FFB900" d="M348,192.8c-9-18.4-38.6-6.5-50.7-5.4c-11,1,14.9-31.1,14.9-31.1h38.6l4.9,21.9l0,14.5L348,192.8z"/>
						<path fill="#FFB900" d="M350.8,192.7h4.9l-3.8-7.3h-6.9c0,0-13.2,7.3-24.3,7.3h-10.4v2.8l23.3,4.5
							C333.4,200,338.3,192.7,350.8,192.7"/>
						<path fill="#FFB900" d="M310.2,192.7c-3.7,3.7-3.7,9.6,0,13.3l6.6-6.6L310.2,192.7z"/>
						<path fill="#FFB900" d="M233.3,205.5c0,4.2,3.5,7.6,7.6,7.6v-14.3l-7.6-3.5V205.5z"/>
						<path fill="#FFB900" d="M247.6,139.8l2.1-2.8c-2.1-0.3-4.2-1.4-5.6-2.8H234c-3.5,0-6.3-3.1-6.3-6.6v-9h1.4
							c1.4-1.4,3.1-2.4,4.9-2.4h7c0.3,0,0.3,0.3,0.7,0.3c0-4.9,4.2-8.7,9-8.7h8c5.2,0,9,4.2,9,9v3.8h0.3v21.2L247.6,139.8z"/>
						<path fill="#333333" d="M244.8,116.2c0,1,0.7,1.7,1.7,1.7c0.7,0,1.4-0.7,1.4-1.7c0-0.7-0.7-1.4-1.4-1.4
							C245.5,114.8,244.8,115.5,244.8,116.2"/>
						<path fill="#333333" d="M227.8,123.1v-4.5c0-1.4,1-2.4,2.1-2.4h4.9c0,0-0.3,3.8-2.4,6.9H227.8z"/>
						<path fill="#FFB900" d="M335.4,143.7l-54.3-0.5c-4.5-0.8-7.9-4.6-7.9-9.4h0l0-3.2h-13.2V143l-12.6-0.1v4.7
							c0,22.2,18.1,40.3,40.3,40.3c16,0,31.1-2.5,37.4-15.7c1.4-0.3,1.5-7.2,2.9-7.2c14.9,0,27.1,11.8,27.5,26.8v-28.1
							C355.6,152.4,346.6,143.7,335.4,143.7z"/>
						<path fill="#FF8C00" d="M259.1,114.2c0,11.8,9.7,21.5,21.6,21.5c0,0,1.4-21.5-11.5-21.5H259.1z"/>
					</g>
					<g>
						<path fill="#0078D7" d="M421.5,116.3h-67.3v116.9h33.9h33.4h32.8v-83.5C454.3,131.3,439.3,116.3,421.5,116.3"/>
						<path fill="#1EBBEE" d="M387.5,233.2v-83.5c0-18.4-15-33.4-33.4-33.4c-17.8,0-32.8,15-32.8,33.4v83.5H387.5z"/>
					</g>
				</g>
				<g>
					<polygon fill="#BADB0A" points="505.7,126.3 505.7,139.6 472.3,139.6 472.3,233.2 460.6,233.2 460.6,139.6 413.7,139.6 
						413.7,233.2 402.1,233.2 402.1,139.6 402.1,138.4 402.1,126.3 					"/>
					<polygon fill="#BADB0A" points="505.7,126.3 505.7,138.2 505.7,139.6 505.7,233.2 494.1,233.2 494.1,139.6 447.1,139.6 
						447.1,233.2 435.5,233.2 435.5,139.6 435.5,138.2 435.5,126.3 					"/>
					<polygon opacity="0.1" points="441.3,126.3 441.3,138.2 441.3,139.6 441.3,233.2 435.5,233.2 435.5,139.6 407.9,139.6 
						407.9,233.2 402.1,233.2 402.1,139.6 402.1,138.2 402.1,126.3 					"/>
					<rect x="460.6" y="139.6" opacity="0.1" width="11.7" height="93.6"/>
					<g>
						<g>
							<path fill="#BAD80A" d="M450.8,85.1c-3.7-3.7-15.6-5.9-15.6-5.9s2.4,11.8,6.2,15.5c2.6,2.6,6.9,2.6,9.5-0.1
								C453.5,91.9,453.5,87.7,450.8,85.1"/>
							<polygon fill="#009E49" points="448.9,85.5 448.4,91.1 445.7,88.6 445.2,83.2 444.7,87.7 441.9,85.3 441.5,82.7 441.1,84.5 
								436.3,80.2 442.1,86.5 439.6,87 442.9,87.3 444.7,89.3 440.7,89.8 445.5,90.2 448.3,93.2 443.3,93.7 449.1,94 453.9,99.3 
								458.6,100.3 449.4,91.9 							"/>
						</g>
						<g>
							<path fill="#BAD80A" d="M464.2,88c1.1-5.1-3.3-16.3-3.3-16.3s-8.7,8.3-9.8,13.4c-0.8,3.6,1.5,7.2,5.1,8
								C459.9,93.9,463.4,91.6,464.2,88"/>
							<polygon fill="#009E49" points="462.9,86.6 457.9,89.1 458.5,85.4 462.8,82.2 458.7,84.2 459.4,80.6 461.3,78.8 459.6,79.4 
								460.6,73.1 458.4,81.4 456.7,79.5 458.1,82.4 457.4,85.1 454.9,82 457.1,86.2 456,90.1 452.9,86.1 455.7,91.2 452.9,101.8 
								457,98.9 457.7,90.3 							"/>
						</g>
						<g>
							<path fill="#BAD80A" d="M471.3,96c3.8-3.6,6.5-15.3,6.5-15.3s-11.9,2-15.7,5.6c-2.7,2.5-2.8,6.8-0.3,9.5
								C464.3,98.4,468.6,98.5,471.3,96"/>
							<polygon fill="#009E49" points="471,94 465.4,93.4 468,90.7 473.3,90.4 468.9,89.8 471.4,87.1 474,86.8 472.3,86.2 
								476.7,81.7 470.2,87.2 469.8,84.7 469.4,87.9 467.3,89.7 466.9,85.7 466.4,90.5 463.3,93.1 463,88.1 462.4,93.9 454.5,100.3 
								458.6,100.3 464.5,94.3 							"/>
						</g>
					</g>
					<polygon fill="#492474" points="448.6,126 443,100.2 467.6,100.2 462.8,126 					"/>
				</g>
			</g>
			<g clip-path="url(#SVGID_2_)">
				<polygon fill="#FFFFFF" points="382.9,213 394,216.1 397.6,213 396.9,209.1 390.3,205.1 385.4,208.4 				"/>
				
					<polygon opacity="0" fill="none" stroke="#FFFFFF" stroke-width="0.1753" stroke-linecap="round" stroke-linejoin="round" stroke-miterlimit="10" points="
					382.9,213 394,216.1 397.6,213 396.9,209.1 390.3,205.1 385.4,208.4 				"/>
				<polygon fill="#FFFFFF" points="415.9,213 411.5,211.9 410.1,203.9 414.5,200.9 424.5,202.5 425.9,210.2 422.5,213 				"/>
				
					<polygon opacity="0" fill="none" stroke="#FFFFFF" stroke-width="0.1753" stroke-linecap="round" stroke-linejoin="round" stroke-miterlimit="10" points="
					415.9,213 411.5,211.9 410.1,203.9 414.5,200.9 424.5,202.5 425.9,210.2 422.5,213 				"/>
				<path fill="#FFD800" d="M384.3,207l9.6-4.6l-5.1-11.4c0,0-4.2,1.6-6,1.6c-1.6,0-1.8,6.3-1.8,6.3l1.2,6L384.3,207z"/>
				<path fill="#6DC2E9" d="M395.5,243.8l-8.4-2.5l2.5-7.5c0,0,2.3-3,3.7-2.8c1.4,0,7.9-1.8,7.9-1.8l2.8,7.2c0,0-2.5,5.6-3.5,4.9
					c-1.1-0.5-3.7-3.3-3.7-3.3L395.5,243.8z"/>
				<polygon fill="#FFFFFF" points="405.5,238.9 416.2,241.4 423.2,233 419.9,227.5 412.4,227.5 406.1,233.5 				"/>
				
					<polygon opacity="0" fill="none" stroke="#FFFFFF" stroke-width="0.1753" stroke-linecap="round" stroke-linejoin="round" stroke-miterlimit="10" points="
					405.5,238.9 416.2,241.4 423.2,233 419.9,227.5 412.4,227.5 406.1,233.5 				"/>
				<polygon fill="#FFFFFF" points="404.3,230.7 394,227.5 396.6,221.7 401.7,217.5 405.5,225.3 413.9,220.2 412.9,226.5 
					408.3,231.4 				"/>
				
					<polygon opacity="0" fill="none" stroke="#FFFFFF" stroke-width="0.1753" stroke-linecap="round" stroke-linejoin="round" stroke-miterlimit="10" points="
					404.3,230.7 394,227.5 396.6,221.7 401.7,217.5 405.5,225.3 413.9,220.2 412.9,226.5 408.3,231.4 				"/>
				<path fill="#FFFFFF" d="M383.6,233.3l6-3.2l6-5.8l-2.8-6.8c0,0-4.4-1.1-5.6-1.4c-1.1-0.2-3.9,8.6-3.9,8.6L383.6,233.3z"/>
				<polygon fill="#FFFFFF" points="424.3,224.7 424.1,224.9 418.5,227.5 415,224.7 411.5,220.2 413.1,213.9 423.2,213.9 425,218.9 
					425.9,222.3 				"/>
				
					<polygon opacity="0" fill="none" stroke="#FFFFFF" stroke-width="0.1753" stroke-linecap="round" stroke-linejoin="round" stroke-miterlimit="10" points="
					424.3,224.7 424.1,224.9 418.5,227.5 415,224.7 411.5,220.2 413.1,213.9 423.2,213.9 425,218.9 425.9,222.3 				"/>
				<path fill="#FFD800" d="M407.1,219.6l-8.8-2.8l1.6-8.4c0,0,5.3-2.6,6.1-2.3c0.7,0.4,5.4,4.7,5.4,4.7v5.3L407.1,219.6z"/>
				<g>
					<path fill="#002050" d="M418.9,199.6c0.3,1-0.3,1.9-1.3,2.2l-18.5,4.9c-1,0.3-2-0.3-2.2-1.3l-2.6-9.9c-0.3-1,0.3-1.9,1.3-2.2
						l18.5-4.9c1-0.3,2,0.3,2.2,1.3L418.9,199.6z"/>
					
						<rect x="397.5" y="194" transform="matrix(0.9665 -0.2568 0.2568 0.9665 -37.2779 109.4312)" fill="#FFFFFF" width="5.7" height="6.8"/>
					
						<rect x="397.5" y="194" transform="matrix(0.9665 -0.2568 0.2568 0.9665 -37.2778 109.4312)" opacity="0" fill="none" stroke="#FFFFFF" stroke-width="0.113" stroke-linecap="round" stroke-linejoin="round" stroke-miterlimit="10" width="5.7" height="6.8"/>
					<path fill="#FFFFFF" d="M414.4,190.4l-9.5,2.5c-0.1,0-0.2-0.1-0.3-0.2c0-0.1,0.1-0.2,0.2-0.3l9.5-2.5c0.2-0.1,0.4,0,0.4,0.1
						C414.7,190.2,414.7,190.3,414.4,190.4"/>
					<path fill="#FFFFFF" d="M414.9,192.1l-9.5,2.5c-0.1,0-0.2-0.1-0.3-0.2c0-0.1,0.1-0.2,0.2-0.3l9.5-2.5c0.2-0.1,0.4,0,0.4,0.1
						C415.2,191.9,415.1,192.1,414.9,192.1"/>
					<path fill="#FFFFFF" d="M415.7,195.3l-9.5,2.5c-0.1,0-0.2-0.1-0.3-0.2c-0.1-0.2,0-0.4,0.1-0.4l9.5-2.5c0.2-0.1,0.4,0,0.4,0.2
						C416,195.1,416,195.2,415.7,195.3"/>
					<path fill="#FFFFFF" d="M416.2,196.9l-9.5,2.5c-0.1,0-0.2-0.1-0.3-0.2c0-0.1,0.1-0.2,0.2-0.3l9.5-2.5c0.2-0.1,0.4,0,0.4,0.1
						C416.5,196.7,416.4,196.9,416.2,196.9"/>
					<path fill="#FFFFFF" d="M416.6,198.7l-17.7,4.7c-0.1,0-0.2-0.1-0.3-0.2c0-0.1,0.1-0.2,0.2-0.3l17.7-4.7c0.2-0.1,0.4,0,0.4,0.1
						C416.9,198.5,416.9,198.6,416.6,198.7"/>
					<path fill="#FFFFFF" d="M417.1,200.4l-17.7,4.7c-0.1,0-0.2-0.1-0.3-0.3c0-0.1,0.1-0.2,0.2-0.3l17.7-4.7c0.2-0.1,0.4,0,0.4,0.1
						C417.4,200.2,417.3,200.4,417.1,200.4"/>
					<path fill="#FF8C00" d="M401,196.2c0.1,0.5-0.2,1.1-0.7,1.2s-1.1-0.2-1.2-0.7c-0.1-0.5,0.2-1.1,0.7-1.2S400.9,195.6,401,196.2"
						/>
					<path fill="#FF8C00" d="M402.7,200.3l-0.5-1.9c-0.1-0.5-0.7-0.9-1.2-0.7l-1.1,0.3c-0.5,0.1-0.9,0.7-0.7,1.2l0.5,1.9
						L402.7,200.3z"/>
				</g>
				<path fill="#505150" d="M424.3,243.8l0.5-0.7v0.7H424.3z M380.8,179l-3.3,3.3l-0.4-3.3H380.8z M430.9,182l-2.3,2.3l-5.3-5.3h7.9
					L430.9,182z M416.4,238.4l5.6-5.8l3.5,3.5L425,241l-2.6,2.8h-0.7L416.4,238.4z M415.3,239.3l4.6,4.6H411L415.3,239.3z
					 M403.1,238.4l5.6-5.8l5.8,5.8l-5.4,5.4h-0.7L403.1,238.4z M402,239.3l4.6,4.6h-8.9L402,239.3z M389.8,238.4l5.8-5.8l5.6,5.8
					l-5.4,5.4h-0.5L389.8,238.4z M388.9,239.3l4.4,4.6h-8.9L388.9,239.3z M382.2,232.6l5.6,5.8l-4.7,4.9l-1.1-10.5L382.2,232.6z
					 M382.2,219.5l5.6,5.6l-5.6,5.8l-0.4-0.4l-0.9-10L382.2,219.5z M381.2,218.4l-0.4,0.5v-1.1L381.2,218.4z M381.2,205.1l-1.4,1.6
					l-0.4-3.3L381.2,205.1z M381.2,192l-2.6,2.5l-0.5-5.6L381.2,192z M387.8,185.3l-5.6,5.6l-4.4-4.2l-0.2-2.6l4.6-4.6L387.8,185.3z
					 M388.9,184.2l-5.4-5.3h10.7L388.9,184.2z M402,184.2l-5.3-5.3h10.7L402,184.2z M415.3,184.2l-5.3-5.3h10.7L415.3,184.2z
					 M422,190.9l-5.6-5.6l5.6-5.8l5.8,5.8L422,190.9z M429.7,185.3l1.1-1.2l-0.2,2.1L429.7,185.3z M430.4,187.9l-0.9,8.8l-0.9,0.9
					l-5.6-5.8l5.6-5.6L430.4,187.9z M428.1,210.4l-5.1-5.3l5.6-5.6l0.5,0.5L428.1,210.4z M423,218.4l4.7-4.7l-0.9,8.8L423,218.4z
					 M426.4,228.4l-0.7,6.1l-2.6-2.8L426.4,228.4z M416.4,225.1l5.6-5.6l4.7,4.7l-0.2,2.1l-4.6,4.6L416.4,225.1z M415.3,226l5.8,5.8
					l-5.8,5.8l-5.6-5.8L415.3,226z M403.1,225.1l5.6-5.6l5.8,5.6l-5.8,5.8L403.1,225.1z M402,226l5.8,5.8l-5.8,5.8l-5.6-5.8L402,226
					z M388.9,212.8l5.6,5.6l-5.6,5.8l-5.8-5.8L388.9,212.8z M387.8,211.8l-5.6,5.8l-1.8-1.6l-0.5-7.5l2.3-2.3L387.8,211.8z
					 M388.9,199.5l5.6,5.6l-5.6,5.8l-5.8-5.8L388.9,199.5z M387.8,198.4l-5.6,5.8l-3-3l-0.5-5.1l3.5-3.3L387.8,198.4z M394.5,192
					l-5.6,5.6l-5.8-5.8l5.8-5.6L394.5,192z M407.8,192l-5.8,5.6l-5.6-5.6l5.6-5.8L407.8,192z M415.3,197.6l-5.6-5.6l5.6-5.8l5.8,5.8
					L415.3,197.6z M416.4,198.4l5.6-5.6l5.8,5.6l-5.8,5.8L416.4,198.4z M415.3,210.9l-5.6-5.8l5.6-5.6l5.8,5.6L415.3,210.9z
					 M416.4,211.8l5.6-5.6l5.8,5.6l-5.8,5.8L416.4,211.8z M415.3,212.8l5.8,5.6l-5.8,5.8l-5.6-5.8L415.3,212.8z M403.1,211.8
					l5.6-5.6l5.8,5.6l-5.8,5.8L403.1,211.8z M402,212.8l5.8,5.6l-5.8,5.8l-5.6-5.8L402,212.8z M401.1,211.8l-5.6,5.8l-5.8-5.8
					l5.8-5.6L401.1,211.8z M403.1,198.4l5.6-5.6l5.8,5.6l-5.8,5.8L403.1,198.4z M395.5,204.2l-5.8-5.8l5.8-5.6l5.6,5.6L395.5,204.2z
					 M402,199.5l5.8,5.6l-5.8,5.8l-5.6-5.8L402,199.5z M414.5,185.3l-5.8,5.6l-5.6-5.6l5.6-5.8L414.5,185.3z M401.1,185.3l-5.6,5.6
					l-5.8-5.6l5.8-5.8L401.1,185.3z M394.5,231.7l-5.6,5.8l-5.8-5.8l5.8-5.8L394.5,231.7z M389.8,225.1l5.8-5.6l5.6,5.6l-5.6,5.8
					L389.8,225.1z M426.4,241.4l6.3-63.8h-57l4.9,53.3v0.2v0.2l1.2,13.8H426l0.4-3.3V241.4z"/>
				
					<path opacity="0" fill="none" stroke="#FFFFFF" stroke-width="0.1753" stroke-linecap="round" stroke-linejoin="round" stroke-miterlimit="10" d="
					M424.3,243.8l0.5-0.7v0.7H424.3z M380.8,179l-3.3,3.3l-0.4-3.3H380.8z M430.9,182l-2.3,2.3l-5.3-5.3h7.9L430.9,182z
					 M416.4,238.4l5.6-5.8l3.5,3.5L425,241l-2.6,2.8h-0.7L416.4,238.4z M415.3,239.3l4.6,4.6H411L415.3,239.3z M403.1,238.4l5.6-5.8
					l5.8,5.8l-5.4,5.4h-0.7L403.1,238.4z M402,239.3l4.6,4.6h-8.9L402,239.3z M389.8,238.4l5.8-5.8l5.6,5.8l-5.4,5.4h-0.5
					L389.8,238.4z M388.9,239.3l4.4,4.6h-8.9L388.9,239.3z M382.2,232.6l5.6,5.8l-4.7,4.9l-1.1-10.5L382.2,232.6z M382.2,219.5
					l5.6,5.6l-5.6,5.8l-0.4-0.4l-0.9-10L382.2,219.5z M381.2,218.4l-0.4,0.5v-1.1L381.2,218.4z M381.2,205.1l-1.4,1.6l-0.4-3.3
					L381.2,205.1z M381.2,192l-2.6,2.5l-0.5-5.6L381.2,192z M387.8,185.3l-5.6,5.6l-4.4-4.2l-0.2-2.6l4.6-4.6L387.8,185.3z
					 M388.9,184.2l-5.4-5.3h10.7L388.9,184.2z M402,184.2l-5.3-5.3h10.7L402,184.2z M415.3,184.2l-5.3-5.3h10.7L415.3,184.2z
					 M422,190.9l-5.6-5.6l5.6-5.8l5.8,5.8L422,190.9z M429.7,185.3l1.1-1.2l-0.2,2.1L429.7,185.3z M430.4,187.9l-0.9,8.8l-0.9,0.9
					l-5.6-5.8l5.6-5.6L430.4,187.9z M428.1,210.4l-5.1-5.3l5.6-5.6l0.5,0.5L428.1,210.4z M423,218.4l4.7-4.7l-0.9,8.8L423,218.4z
					 M426.4,228.4l-0.7,6.1l-2.6-2.8L426.4,228.4z M416.4,225.1l5.6-5.6l4.7,4.7l-0.2,2.1l-4.6,4.6L416.4,225.1z M415.3,225.9
					l5.8,5.8l-5.8,5.8l-5.6-5.8L415.3,225.9z M403.1,225.1l5.6-5.6l5.8,5.6l-5.8,5.8L403.1,225.1z M402,225.9l5.8,5.8l-5.8,5.8
					l-5.6-5.8L402,225.9z M388.9,212.8l5.6,5.6l-5.6,5.8l-5.8-5.8L388.9,212.8z M387.8,211.8l-5.6,5.8l-1.8-1.6l-0.5-7.5l2.3-2.3
					L387.8,211.8z M388.9,199.5l5.6,5.6l-5.6,5.8l-5.8-5.8L388.9,199.5z M387.8,198.4l-5.6,5.8l-3-3l-0.5-5.1l3.5-3.3L387.8,198.4z
					 M394.5,192l-5.6,5.6l-5.8-5.8l5.8-5.6L394.5,192z M407.8,192l-5.8,5.6l-5.6-5.6l5.6-5.8L407.8,192z M415.3,197.6l-5.6-5.6
					l5.6-5.8l5.8,5.8L415.3,197.6z M416.4,198.4l5.6-5.6l5.8,5.6l-5.8,5.8L416.4,198.4z M415.3,210.9l-5.6-5.8l5.6-5.6l5.8,5.6
					L415.3,210.9z M416.4,211.8l5.6-5.6l5.8,5.6l-5.8,5.8L416.4,211.8z M415.3,212.8l5.8,5.6l-5.8,5.8l-5.6-5.8L415.3,212.8z
					 M403.1,211.8l5.6-5.6l5.8,5.6l-5.8,5.8L403.1,211.8z M402,212.8l5.8,5.6l-5.8,5.8l-5.6-5.8L402,212.8z M401.1,211.8l-5.6,5.8
					l-5.8-5.8l5.8-5.6L401.1,211.8z M403.1,198.4l5.6-5.6l5.8,5.6l-5.8,5.8L403.1,198.4z M395.5,204.2l-5.8-5.8l5.8-5.6l5.6,5.6
					L395.5,204.2z M402,199.5l5.8,5.6l-5.8,5.8l-5.6-5.8L402,199.5z M414.5,185.3l-5.8,5.6l-5.6-5.6l5.6-5.8L414.5,185.3z
					 M401.1,185.3l-5.6,5.6l-5.8-5.6l5.8-5.8L401.1,185.3z M394.5,231.7l-5.6,5.8l-5.8-5.8l5.8-5.8L394.5,231.7z M389.8,225.1
					l5.8-5.6l5.6,5.6l-5.6,5.8L389.8,225.1z M426.4,241.4l6.3-63.8h-57l4.9,53.3v0.2v0.2l1.2,13.8H426l0.4-3.3V241.4z"/>
			</g>
		</g>
	</g>
</g>
</svg>
