<?xml version="1.0" encoding="utf-8"?>
<!-- Generator: Adobe Illustrator 19.2.1, SVG Export Plug-In . SVG Version: 6.00 Build 0)  -->
<svg version="1.1" xmlns="http://www.w3.org/2000/svg" xmlns:xlink="http://www.w3.org/1999/xlink" x="0px" y="0px"
	 viewBox="0 0 744 452" enable-background="new 0 0 744 452" xml:space="preserve">
<g id="MFA_with_mobile_problem">
	<g>
		<rect x="389.7" y="317.3" fill="#00B193" width="64.2" height="7.6"/>
		<rect x="426.7" y="317.3" opacity="0.15" width="27.2" height="7.6"/>
	</g>
	<path opacity="0.1" d="M605.5,415.1c-0.4,0-0.8,0.1-1.3,0.1v-0.1l-321.5,0v0.1c-5.2,0.5-9.2,4-9.2,8.4c0,4.7,4.7,8.4,10.4,8.4
		c0.7,0,320.7,0,321.5,0c5.8,0,10.5-3.8,10.5-8.4C616,418.9,611.3,415.1,605.5,415.1"/>
	<g>
		<polygon fill="#672A7A" points="319.7,324.9 319.7,337.8 519.4,337.8 519.4,428.5 530.6,428.5 530.6,337.8 576.1,337.8 
			576.1,428.5 587.4,428.5 587.4,337.8 587.4,336.7 587.4,324.9 		"/>
		<polygon opacity="0.1" points="525,324.9 525,336.5 525,337.8 525,428.5 530.6,428.5 530.6,337.8 581.8,337.8 581.8,428.5 
			587.4,428.5 587.4,337.8 587.4,336.5 587.4,324.9 		"/>
	</g>
	<g>
		<path fill="#00685B" d="M363.8,243.3l0,65.4c0,0,0,4.7,4.7,4.7l82.4,0c0,0,4.7,0,4.7-4.7v-65.4c0,0,0-4.7-4.7-4.7l-82.4,0
			C368.4,238.6,363.8,238.6,363.8,243.3z"/>
		<path fill="#00B193" d="M357.4,243.3v65.4c0,0,0,4.7,4.7,4.7l84.1,0c0,0,4.7,0,4.7-4.7l0-65.4c0,0,0-4.7-4.7-4.7l-84.1,0
			C362.1,238.6,357.4,238.6,357.4,243.3z"/>
		<rect x="362.1" y="243.3" fill="#00685B" width="84.1" height="56"/>
		<path opacity="0.15" d="M362.1,313.4l84.1,0c0,0,4.7,0,4.7-4.7V304l-93.4-56v60.7C357.4,308.7,357.4,313.4,362.1,313.4z"/>
	</g>
	<polygon fill="#00B193" points="563.2,310.2 563.2,254.1 466.6,254.1 466.6,310.2 512.3,313.4 510.4,323.1 498.5,323.1 
		498.5,324.9 531.4,324.9 531.4,323.1 519.4,323.1 517.5,313.4 	"/>
	<polygon opacity="0.15" points="563.2,310.2 563.2,254.1 466.6,254.1 466.6,310.2 512.3,313.4 510.4,323.1 498.5,323.1 
		498.5,324.9 531.4,324.9 531.4,323.1 519.4,323.1 517.5,313.4 	"/>
	<g>
		<path fill="#00685B" d="M472.3,243.3l0,65.4c0,0,0,4.7,4.7,4.7h82.4c0,0,4.7,0,4.7-4.7v-65.4c0,0,0-4.7-4.7-4.7l-82.4,0
			C477,238.6,472.3,238.6,472.3,243.3z"/>
		<path fill="#00B193" d="M466,243.3v65.4c0,0,0,4.7,4.7,4.7h84.1c0,0,4.7,0,4.7-4.7v-65.4c0,0,0-4.7-4.7-4.7l-84.1,0
			C470.6,238.6,466,238.6,466,243.3z"/>
		<rect x="470.6" y="243.3" fill="#00685B" width="84.1" height="56"/>
		<path opacity="0.15" d="M470.6,313.4h84.1c0,0,4.7,0,4.7-4.7V304L466,248v60.7C466,308.7,466,313.4,470.6,313.4z"/>
	</g>
	<g opacity="0.15">
		<rect x="386.6" y="300.1" transform="matrix(0.487 -0.8734 0.8734 0.487 -66.3478 499.3189)" width="10.6" height="12.1"/>
	</g>
	<rect x="324.6" y="258.7" fill="#17244E" width="65.1" height="95.2"/>
	<polygon opacity="0.1" points="389.7,342.7 389.7,318.1 324.6,266.6 324.6,342.7 	"/>
	<path fill="#FDB813" d="M367.6,242.1l-4.9-1.7l-1.6,4.1h-8.8v14.4h10.5v-8.2C363,247.8,363.8,243.2,367.6,242.1z"/>
	<path d="M366.9,233.1c0.1,0.6-0.4,1.1-1,1.2c-0.6,0.1-1.1-0.4-1.2-1c-0.1-0.6,0.4-1.1,1-1.2C366.4,232.1,366.9,232.5,366.9,233.1"
		/>
	<polygon fill="#FDB813" points="372.9,228.6 380.4,240.8 370.1,244.3 	"/>
	<path fill="#FDB813" d="M344.5,220.4l1.7,19.4l0.1,0.1c2.1,14.4,14.4,17.7,29.1,16.5l-0.1-1.3l-0.9-11l-1.2-13.8l-1-12.1
		L344.5,220.4z"/>
	<path fill="#17244E" d="M366.9,233.1c0.1,0.6-0.4,1.1-1,1.2c-0.6,0.1-1.1-0.4-1.2-1c-0.1-0.6,0.4-1.1,1-1.2
		C366.4,232.1,366.9,232.5,366.9,233.1"/>
	<path fill="#FAB223" d="M447.8,325.6c0.1,0,0.1,0,0.2,0c2.9-0.3,5-2.9,4.7-5.8c-0.3-2.9-3-4.9-5.9-4.6c-0.1,0-0.1,0-0.2,0l0,0
		l-5.5,0.6l1.2,10.4L447.8,325.6L447.8,325.6z"/>
	<polygon fill="#17244E" points="390,425.1 377.9,412.9 361.8,412.9 361.8,428.8 390,428.8 	"/>
	<polygon fill="#00B193" points="398.2,412.9 398.2,345.4 414.1,345.4 414.1,412.9 398.2,412.9 	"/>
	<polygon fill="#00B193" points="361.8,412.9 361.8,342.6 377.7,342.6 377.7,412.9 361.8,412.9 	"/>
	<polygon fill="#00B193" points="414.1,358.5 345.1,358.5 345.1,342.7 414.1,342.7 414.1,358.5 	"/>
	<path fill="#FDB813" d="M399.3,316.4c0.1,0,0.1,0.1,0.2,0.1c2.5,1.5,5.8,0.7,7.3-1.8c1.5-2.5,0.6-5.8-1.9-7.3
		c-0.1,0-0.1-0.1-0.2-0.1l0,0l-4.7-2.8l-5.4,9.1L399.3,316.4L399.3,316.4z"/>
	<path fill="#17244E" d="M434.2,326.2c3.3,0.3,7.1,0.2,8.7,0l-0.9-5.5l-0.8-4.9c-0.4,0-8.5,0-18.6-3.1c-5.6-1.8-14.4-7.3-18.6-13.3
		c-5.8-8.2-12.1-21.3-14.9-35.3l-10.5-0.3c-4.4,14.1,9.2,34.1,15.3,42.6c4.8,6.7,10.7,12.6,21.8,16
		C425.4,325.4,431.6,325.9,434.2,326.2z"/>
	<polygon fill="#17244E" points="426.4,425.1 414.3,412.9 398.2,412.9 398.2,428.8 426.4,428.8 	"/>
	<path fill="#17244E" d="M353.4,229l-0.4-0.3l3.4-1.9l2.4-1l0.2,2.1c6.6-2.7,7.7-6.9,7.7-6.9l-0.5,3.4c4.3-1.8,5.7-3.8,6.1-5.4
		l2.6,1c0.4-2.9-1.5-4.1-2.5-4.6l3.4-2.5c-4.4-6.2-10.9-3.2-10.9-3.2l2.9-5c-8.5-1.5-12.8,6.1-12.8,6.1l1.9-6.4
		c-11.6,2.3-12.4,13.1-12.4,13.1l-0.3,0c-6.7,5.5,3.5,28.3,3.5,28.3C354.6,240.4,353.4,229,353.4,229z"/>
	<path fill="#FDB813" d="M356.4,226.7c-3.4,0.3-5.9,3.3-5.6,6.7c0.3,3.4,3.3,5.9,6.7,5.6L356.4,226.7z"/>
	<path opacity="0.15" d="M356.7,229.8c-1.7,0.1-3,1.6-2.8,3.4c0.1,1.7,1.6,3,3.3,2.8L356.7,229.8z"/>
	<g>
		
			<rect x="386.6" y="300.1" transform="matrix(0.487 -0.8734 0.8734 0.487 -66.3478 499.3189)" fill="#17244E" width="10.6" height="12.1"/>
	</g>
	<g>
		<rect x="318.7" y="279.6" fill="#672A7A" width="64.5" height="88.9"/>
		<rect x="318.7" y="359.5" fill="#672A7A" width="11.3" height="69.2"/>
		<rect x="371.9" y="359.5" fill="#672A7A" width="11.3" height="69.2"/>
		<rect x="344.1" y="359.5" fill="#672A7A" width="11.3" height="69.2"/>
		<rect x="397.3" y="359.5" fill="#672A7A" width="11.3" height="69.2"/>
		<rect x="364.5" y="358.2" fill="#672A7A" width="44.1" height="10.3"/>
		<rect x="377.5" y="279.6" opacity="0.15" width="5.6" height="149.1"/>
		<rect x="397.3" y="368.5" opacity="0.15" width="5.6" height="60.2"/>
		<polygon opacity="0.1" points="377.5,342.6 318.7,304.4 318.7,368.5 324.3,368.5 324.3,428.8 330,428.8 330,368.5 344.1,368.5 
			344.1,428.8 349.8,428.8 349.8,368.5 377.5,368.5 		"/>
	</g>
</g>
<g id="desktop_management_problem">
</g>
</svg>
