<?xml version="1.0" encoding="utf-8"?>
<!-- Generator: Adobe Illustrator 19.2.1, SVG Export Plug-In . SVG Version: 6.00 Build 0)  -->
<svg version="1.1" xmlns="http://www.w3.org/2000/svg" xmlns:xlink="http://www.w3.org/1999/xlink" x="0px" y="0px"
	 viewBox="0 0 744 452" enable-background="new 0 0 744 452" xml:space="preserve">
<g id="MFA_with_mobile_problem">
</g>
<g id="desktop_management_problem">
	<g>
		<rect x="149.7" y="295.7" fill="#1EBBEE" width="66.3" height="7.9"/>
		<rect x="187.9" y="295.7" opacity="0.15" width="28.1" height="7.9"/>
	</g>
	<path opacity="0.1" d="M303.4,396.7c-0.5,0-0.9,0.1-1.3,0.1v-0.1l-262.7,0v0.1c-5.3,0.5-9.5,4.2-9.5,8.6c0,4.8,4.8,8.7,10.8,8.7
		c0.8,0,262,0,262.7,0c6,0,10.8-3.9,10.8-8.7C314.2,400.6,309.3,396.7,303.4,396.7"/>
	<polygon fill="#0078D7" points="77.5,303.6 77.5,316.9 214.5,316.9 214.5,410.5 226.1,410.5 226.1,316.9 273,316.9 273,410.5 
		284.7,410.5 284.7,316.9 284.7,315.8 284.7,303.6 	"/>
	<polygon opacity="0.1" points="220.3,303.6 220.3,315.6 220.3,316.9 220.3,410.5 226.1,410.5 226.1,316.9 278.9,316.9 278.9,410.5 
		284.7,410.5 284.7,316.9 284.7,315.6 284.7,303.6 	"/>
	<g>
		<path fill="#0078D7" d="M122.9,219.4v67.4c0,0,0,4.8,4.8,4.8l85,0c0,0,4.8,0,4.8-4.8l0-67.4c0,0,0-4.8-4.8-4.8h-85
			C127.7,214.6,122.9,214.6,122.9,219.4z"/>
		<path fill="#1EBBEE" d="M116.3,219.4l0,67.4c0,0,0,4.8,4.8,4.8l86.7,0c0,0,4.8,0,4.8-4.8l0-67.4c0,0,0-4.8-4.8-4.8h-86.7
			C121.2,214.6,116.3,214.6,116.3,219.4z"/>
		<rect x="121.2" y="219.4" fill="#DD5900" width="86.7" height="57.8"/>
		<path opacity="0.15" d="M121.2,291.8l86.8,0c0,0,4.8,0,4.8-4.5v-4.5l-96.4-53.9l0,58.4C116.4,287.3,116.4,291.8,121.2,291.8z"/>
	</g>
	<g>
		<path fill="#492474" d="M251,293.8c0,1.2-1,2-2.1,2h-3.2v-8.1h3.2c1.2,0,2.1,0.9,2.1,2.1V293.8z M248.9,285.6h-3.2v-3.5
			c0-0.4-0.3-0.7-0.7-0.7h-16.9c-0.4,0-0.7,0.3-0.7,0.7v19.7c0,0.4,0.3,0.7,0.7,0.7h0.9v1h15.3v-1h0.7c0.4,0,0.7-0.3,0.7-0.7v-3.9
			h3.2c2.4,0,4.2-1.8,4.2-4.1v-4C253.1,287.5,251.3,285.6,248.9,285.6"/>
		<path fill="#FFFFFF" d="M233.2,293.1c-0.3,0.2-0.7,0.3-1.1,0.3c-0.3,0-0.5-0.1-0.8-0.2c-0.2-0.1-0.4-0.3-0.5-0.6
			c-0.1-0.2-0.2-0.5-0.2-0.8c0-0.5,0.2-0.9,0.5-1.2c0.3-0.3,0.7-0.5,1.2-0.5c0.3,0,0.7,0.1,0.9,0.2v0.4c-0.3-0.1-0.5-0.3-0.9-0.3
			c-0.3,0-0.5,0.1-0.7,0.2c-0.2,0.1-0.3,0.3-0.5,0.5c-0.1,0.2-0.1,0.5-0.1,0.7c0,0.5,0.1,0.7,0.3,1c0.2,0.2,0.5,0.3,0.9,0.3
			c0.3,0,0.5-0.1,0.7-0.1V292h-0.7v-0.3h1.1V293.1z"/>
		<polygon fill="#FFFFFF" points="236.2,293.3 234.5,293.3 234.5,290.1 236.2,290.1 236.2,290.4 234.9,290.4 234.9,291.5 
			236.1,291.5 236.1,291.8 234.9,291.8 234.9,293 236.2,293 		"/>
		
			<polygon opacity="0" fill="none" stroke="#FFFFFF" stroke-width="6.786744e-002" stroke-linecap="round" stroke-linejoin="round" stroke-miterlimit="10" points="
			236.2,293.3 234.5,293.3 234.5,290.1 236.2,290.1 236.2,290.4 234.9,290.4 234.9,291.5 236.1,291.5 236.1,291.8 234.9,291.8 
			234.9,293 236.2,293 		"/>
		<polygon fill="#FFFFFF" points="239.1,293.3 237.4,293.3 237.4,290.1 239.1,290.1 239.1,290.4 237.8,290.4 237.8,291.5 
			238.9,291.5 238.9,291.8 237.8,291.8 237.8,293 239.1,293 		"/>
		
			<polygon opacity="0" fill="none" stroke="#FFFFFF" stroke-width="6.786744e-002" stroke-linecap="round" stroke-linejoin="round" stroke-miterlimit="10" points="
			239.1,293.3 237.4,293.3 237.4,290.1 239.1,290.1 239.1,290.4 237.8,290.4 237.8,291.5 238.9,291.5 238.9,291.8 237.8,291.8 
			237.8,293 239.1,293 		"/>
		<path fill="#FFFFFF" d="M242.5,293.3H242l-1.2-1.5c-0.1,0-0.1-0.1-0.1-0.1v1.6h-0.3v-3.3h0.3v1.6l0.1-0.1l1.2-1.4h0.5l-1.4,1.6
			L242.5,293.3z"/>
	</g>
	<path fill="#FFFFFF" d="M497.6,219.5c0.8-0.9,2-1.5,3.3-1.5c0.5,0,0.9,0.1,1.3,0.2c0.1-0.5,0.1-0.8,0.1-0.8l-7-1.2
		C495.7,217.7,496.5,218.7,497.6,219.5z"/>
</g>
</svg>
