<?xml version="1.0" encoding="utf-8"?>
<!-- Generator: Adobe Illustrator 19.2.1, SVG Export Plug-In . SVG Version: 6.00 Build 0)  -->
<svg version="1.1" xmlns="http://www.w3.org/2000/svg" xmlns:xlink="http://www.w3.org/1999/xlink" x="0px" y="0px"
	 viewBox="0 0 136 244" enable-background="new 0 0 136 244" xml:space="preserve">
<g id="MFA_with_mobile_problem">
</g>
<g id="desktop_management_problem">
	<g>
		<g opacity="0.15">
			<rect x="70.1" y="110.8" transform="matrix(0.487 -0.8734 0.8734 0.487 -63.5358 126.0491)" width="10.9" height="12.5"/>
		</g>
		<rect x="6.2" y="68.2" fill="#492474" width="67.2" height="98.2"/>
		<polygon opacity="0.1" points="73.3,154.8 73.3,129.5 6.2,76.3 6.2,154.8 		"/>
		<path fill="#FFB900" d="M50.5,51l-5-1.8l-1.7,4.2H29.8l0,14.8l15.8,0v-8.5C45.7,57,46.6,52.2,50.5,51z"/>
		<polygon fill="#492474" points="73.6,239.8 61.1,227.3 44.6,227.3 44.6,243.6 73.6,243.6 		"/>
		<polygon fill="#BADB0A" points="82.1,227.3 82.1,157.6 98.5,157.6 98.5,227.3 82.1,227.3 		"/>
		<polygon fill="#BADB0A" points="44.6,227.3 44.6,154.7 60.9,154.7 60.9,227.3 44.6,227.3 		"/>
		<polygon fill="#BADB0A" points="98.5,171.2 27.3,171.2 27.3,154.8 98.5,154.8 98.5,171.2 		"/>
		<path fill="#FFB900" d="M83.2,127.7c0.1,0,0.1,0.1,0.2,0.1c2.6,1.5,6,0.7,7.5-1.9c1.5-2.6,0.6-5.9-2-7.5c-0.1,0-0.1-0.1-0.2-0.1
			l0,0l-4.9-2.9l-5.5,9.4L83.2,127.7L83.2,127.7z"/>
		<polygon fill="#492474" points="111.2,239.8 98.6,227.3 82.1,227.3 82.1,243.6 111.2,243.6 		"/>
		<g>
			
				<rect x="70.1" y="110.8" transform="matrix(0.487 -0.8734 0.8734 0.487 -63.5358 126.0491)" fill="#492474" width="10.9" height="12.5"/>
		</g>
		<path fill="#FFB900" d="M53.3,27.7c0,0,5.3,6.7,7.6,15.8l-7.6,1L53.3,27.7z"/>
		<path fill="#FFB900" d="M19.9,21.5L23,37l0.1,2.1C26.4,56.4,41.9,65.8,60,63.4l-0.2-1.6L58,48.5l-2.2-16.8L53.9,17L19.9,21.5z"/>
		<path fill="#17244E" d="M48.5,36c0.1,0.8-0.4,1.4-1.2,1.5c-0.8,0.1-1.4-0.4-1.5-1.2c-0.1-0.7,0.4-1.4,1.2-1.5
			C47.7,34.7,48.4,35.2,48.5,36"/>
		<path fill="#FFB900" d="M131.1,131.2c0.1,0,0.1,0,0.2,0c2.9-0.3,5-2.9,4.7-5.8c-0.3-2.9-3-4.9-5.9-4.6c-0.1,0-0.1,0-0.2,0l0,0
			l-5.5,0.6l1.2,10.4L131.1,131.2L131.1,131.2z"/>
		<g>
			<path fill="#6D4929" d="M31.8,55.8c0,0-33.8,21.9-11.9,55.7C19.9,111.4,53.7,89.6,31.8,55.8z"/>
			<path fill="#6D4929" d="M58.4,13.9C57.1,3,41.7-3.4,33.5,2.9c-2.6,2-4.4,2.8-7.7,3.2C23.1,6.4,21.1,7,19,8.6
				c-2.1,1.6-3.1,5.9-2.4,9.3c-6.4,3.8-6.9,13.2-6.9,13.2c4.8,41.3,24,27.8,24,27.8c-1.8-2-4.9-10.3-4.9-10.3l-0.2,0
				c2.3-6,2.3-12.7,2-16.7c0.3-0.3,0.5-0.5,0.7-0.8c3.2-3.9,6-3.3,10.8-4.2c5.9-1.1,14.9-6.1,16.2-12.6l0.1,0
				C58.4,14.2,58.4,14,58.4,13.9C58.4,13.9,58.4,13.9,58.4,13.9L58.4,13.9z"/>
		</g>
		<path fill="#FFB900" d="M31.6,31.6c-4.2,0.6-7.2,4.4-6.6,8.6c0.5,4.2,4.4,7.2,8.6,6.6L31.6,31.6z"/>
		<path fill="#492474" d="M117.4,131.8c3.3,0.3,7.1,0.2,8.7,0l-0.9-5.5l-0.8-4.9c-0.4,0-8.5,0-18.6-3.1c-5.6-1.8-14.4-7.3-18.6-13.3
			c-5.8-8.2-12.1-21.3-14.9-35.3l-10.5-0.3C57.4,83.5,71,103.5,77.1,112c4.8,6.7,10.7,12.6,21.8,16
			C108.7,131.1,114.9,131.6,117.4,131.8z"/>
		<path opacity="0.15" d="M32.1,35.4c-2.1,0.3-3.6,2.2-3.3,4.3c0.3,2.1,2.2,3.6,4.3,3.3L32.1,35.4z"/>
		<rect x="0" y="89.8" fill="#0078D7" width="66.5" height="91.7"/>
		<rect x="0" y="172.2" fill="#0078D7" width="11.6" height="71.4"/>
		<rect x="54.9" y="172.2" fill="#0078D7" width="11.6" height="71.4"/>
		<rect x="26.3" y="172.2" fill="#0078D7" width="11.6" height="71.4"/>
		<rect x="81.2" y="172.2" fill="#0078D7" width="11.6" height="71.4"/>
		<rect x="47.3" y="170.8" fill="#0078D7" width="45.5" height="10.7"/>
		<rect x="60.7" y="89.8" opacity="0.15" width="5.8" height="153.8"/>
		<rect x="81.2" y="181.5" opacity="0.15" width="5.8" height="62.1"/>
		<polygon opacity="0.1" points="60.7,154.7 0,115.3 0,181.5 5.8,181.5 5.8,243.6 11.7,243.6 11.7,181.5 26.3,181.5 26.3,243.6 
			32.1,243.6 32.1,181.5 60.7,181.5 		"/>
	</g>
</g>
</svg>
