<?xml version="1.0" encoding="utf-8"?>
<!-- Generator: Adobe Illustrator 19.2.1, SVG Export Plug-In . SVG Version: 6.00 Build 0)  -->
<svg version="1.1" xmlns="http://www.w3.org/2000/svg" xmlns:xlink="http://www.w3.org/1999/xlink" x="0px" y="0px"
	 viewBox="0 0 560 319" enable-background="new 0 0 560 319" xml:space="preserve">
<g id="MFA_with_mobile_problem">
</g>
<g id="desktop_management_problem">
	<g>
		<path fill="#E6E6E6" d="M533.5,160c15.9-9.2,26.4-24.5,26.4-41.8c0-28.1-27.3-50.8-61-50.8c-2.5,0-4.9,0.2-7.3,0.4
			c0-0.1,0-0.2,0-0.4c0-24.7-24.1-44.8-53.7-44.8c-6.4,0-12.4,1-18.1,2.7c-9.6-15-28.6-25.1-50.4-25.1c-21.2,0-39.6,9.6-49.5,23.8
			c-9.9-14.2-28.4-23.8-49.5-23.8c-21.8,0-40.8,10.2-50.4,25.1c-5.7-1.7-11.7-2.7-18.1-2.7c-29.7,0-53.7,20.1-53.7,44.8
			c0,0.1,0,0.3,0,0.4c-2.4-0.2-4.8-0.4-7.3-0.4c-33.7,0-61,22.8-61,50.8c0,17.4,10.5,32.7,26.4,41.8c-15.9,9.2-26.4,24.5-26.4,41.8
			c0,28.1,27.3,50.8,61,50.8c2.5,0,4.9-0.2,7.3-0.4c0,0.1,0,0.2,0,0.4c0,24.7,24.1,44.8,53.7,44.8c6.4,0,12.4-1,18.1-2.7
			c9.6,15,28.6,25.1,50.4,25.1c21.2,0,39.6-9.6,49.5-23.8c9.9,14.2,28.4,23.8,49.5,23.8c21.8,0,40.8-10.2,50.4-25.1
			c5.7,1.7,11.7,2.7,18.1,2.7c29.7,0,53.7-20.1,53.7-44.8c0-0.1,0-0.3,0-0.4c2.4,0.2,4.8,0.4,7.3,0.4c33.7,0,61-22.8,61-50.8
			C559.9,184.5,549.4,169.2,533.5,160z"/>
		<g>
			
				<ellipse transform="matrix(0.7071 -0.7071 0.7071 0.7071 -92.8281 92.5659)" fill="#E6E6E6" cx="65.3" cy="158.3" rx="11.7" ry="11.7"/>
			
				<ellipse transform="matrix(0.7071 -0.7071 0.7071 0.7071 -98.9597 67.5477)" fill="#E6E6E6" cx="32.1" cy="153.2" rx="8.2" ry="8.2"/>
			
				<ellipse transform="matrix(0.7071 -0.7071 0.7071 0.7071 -108.0477 51.0332)" fill="#E6E6E6" cx="7.6" cy="155.9" rx="5.7" ry="5.7"/>
		</g>
		<g>
			<defs>
				<path id="SVGID_5_" d="M533.5,160c15.9-9.2,26.4-24.5,26.4-41.8c0-28.1-27.3-50.8-61-50.8c-2.5,0-4.9,0.2-7.3,0.4
					c0-0.1,0-0.2,0-0.4c0-24.7-24.1-44.8-53.7-44.8c-6.4,0-12.4,1-18.1,2.7c-9.6-15-28.6-25.1-50.4-25.1c-21.2,0-39.6,9.6-49.5,23.8
					c-9.9-14.2-28.4-23.8-49.5-23.8c-21.8,0-40.8,10.2-50.4,25.1c-5.7-1.7-11.7-2.7-18.1-2.7c-29.7,0-53.7,20.1-53.7,44.8
					c0,0.1,0,0.3,0,0.4c-2.4-0.2-4.8-0.4-7.3-0.4c-33.7,0-61,22.8-61,50.8c0,17.4,10.5,32.7,26.4,41.8
					c-15.9,9.2-26.4,24.5-26.4,41.8c0,28.1,27.3,50.8,61,50.8c2.5,0,4.9-0.2,7.3-0.4c0,0.1,0,0.2,0,0.4c0,24.7,24.1,44.8,53.7,44.8
					c6.4,0,12.4-1,18.1-2.7c9.6,15,28.6,25.1,50.4,25.1c21.2,0,39.6-9.6,49.5-23.8c9.9,14.2,28.4,23.8,49.5,23.8
					c21.8,0,40.8-10.2,50.4-25.1c5.7,1.7,11.7,2.7,18.1,2.7c29.7,0,53.7-20.1,53.7-44.8c0-0.1,0-0.3,0-0.4c2.4,0.2,4.8,0.4,7.3,0.4
					c33.7,0,61-22.8,61-50.8C559.9,184.5,549.4,169.2,533.5,160z"/>
			</defs>
			<clipPath id="SVGID_2_">
				<use xlink:href="#SVGID_5_"  overflow="visible"/>
			</clipPath>
			<g clip-path="url(#SVGID_2_)">
				<g>
					<path fill="#1EBBEE" d="M450.7,228.7V113c0-25.3-20.7-46.1-46-46.1H59.5c-25.9,0-46,20.7-46,46.1v115.7H450.7z"/>
					<path fill="#0078D7" d="M46.2,111.9h-66.7v116.9h33.9h32.8H79v-83.5C79,126.8,64.6,111.9,46.2,111.9"/>
					<path fill="#1EBBEE" d="M12.3,228.7v-83.5c0-18.4-14.4-33.4-32.8-33.4s-32.8,15-32.8,33.4v83.5H12.3z"/>
					<path fill="#0078D7" d="M346.6,228.7v-36.8c0-9.8-8.1-17.8-17.8-17.8H75.6c-9.8,0-18.4,8.1-18.4,17.8v36.8H346.6z"/>
					<path fill="#1EBBEE" d="M310.3,228.9v-23c0-9.8-8.1-17.8-18.4-17.8H38.7c-9.8,0-17.8,8.1-17.8,17.8v23H310.3z"/>
					<path fill="#492474" d="M112.4,130.3c-1.2-5.8-7.5-10.4-13.2-10.4H61.8c-5.8,0-9.8,4.6-8.6,10.4l8.6,36.8
						c1.2,5.8,6.9,10.9,13.2,10.9h37.4c5.8,0,9.8-5.2,8.1-10.9L112.4,130.3z"/>
					<path fill="#492474" d="M291.1,130.3c1.2-5.8,7.5-10.4,13.2-10.4h37.4c5.8,0,9.8,4.6,8.6,10.4l-8.6,36.8
						c-1.2,5.8-6.9,10.9-13.2,10.9h-37.4c-5.8,0-9.8-5.2-8.1-10.9L291.1,130.3z"/>
					<g>
						<path fill="#0078D7" d="M418.5,111.9h-67.3v116.9h33.9h33.4h32.8v-83.5C451.3,126.8,436.3,111.9,418.5,111.9"/>
						<path fill="#1EBBEE" d="M384.6,228.7v-83.5c0-18.4-15-33.4-33.4-33.4c-17.8,0-32.8,15-32.8,33.4v83.5H384.6z"/>
					</g>
				</g>
				<g>
					<polygon fill="#BADB0A" points="502.7,121.8 502.7,135.1 469.3,135.1 469.3,228.7 457.7,228.7 457.7,135.1 410.8,135.1 
						410.8,228.7 399.1,228.7 399.1,135.1 399.1,134 399.1,121.8 					"/>
					<polygon fill="#BADB0A" points="502.7,121.8 502.7,133.8 502.7,135.1 502.7,228.7 491.1,228.7 491.1,135.1 444.2,135.1 
						444.2,228.7 432.5,228.7 432.5,135.1 432.5,133.8 432.5,121.8 					"/>
					<polygon opacity="0.1" points="438.4,121.8 438.4,133.8 438.4,135.1 438.4,228.7 432.5,228.7 432.5,135.1 404.9,135.1 
						404.9,228.7 399.1,228.7 399.1,135.1 399.1,133.8 399.1,121.8 					"/>
					<rect x="457.6" y="135.1" opacity="0.1" width="11.7" height="93.6"/>
					<g>
						<g>
							<path fill="#BAD80A" d="M447.9,80.7c-3.7-3.7-15.6-5.9-15.6-5.9s2.4,11.8,6.2,15.5c2.6,2.6,6.9,2.6,9.5-0.1
								C450.6,87.5,450.5,83.3,447.9,80.7"/>
							<polygon fill="#009E49" points="445.9,81 445.5,86.6 442.7,84.1 442.2,78.8 441.7,83.3 439,80.8 438.5,78.3 438.1,80 
								433.4,75.8 439.2,82.1 436.6,82.5 439.9,82.9 441.8,84.9 437.8,85.4 442.5,85.7 445.3,88.8 440.3,89.3 446.1,89.6 451,94.9 
								455.7,95.9 446.4,87.5 							"/>
						</g>
						<g>
							<path fill="#BAD80A" d="M461.3,83.6c1.1-5.1-3.3-16.3-3.3-16.3s-8.7,8.3-9.8,13.4c-0.8,3.6,1.5,7.2,5.1,8
								C456.9,89.5,460.5,87.2,461.3,83.6"/>
							<polygon fill="#009E49" points="459.9,82.1 454.9,84.7 455.6,81 459.8,77.8 455.8,79.8 456.4,76.1 458.3,74.4 456.6,74.9 
								457.7,68.7 455.4,76.9 453.7,75 455.2,78 454.4,80.6 451.9,77.5 454.1,81.7 453.1,85.7 450,81.7 452.8,86.8 449.9,97.4 
								454.1,94.4 454.7,85.9 							"/>
						</g>
						<g>
							<path fill="#BAD80A" d="M468.3,91.6c3.8-3.6,6.5-15.3,6.5-15.3s-11.9,2-15.7,5.6c-2.7,2.5-2.8,6.8-0.3,9.5
								C461.4,94,465.6,94.1,468.3,91.6"/>
							<polygon fill="#009E49" points="468,89.6 462.5,88.9 465,86.3 470.4,86 465.9,85.3 468.5,82.7 471.1,82.3 469.3,81.8 
								473.7,77.2 467.2,82.8 466.9,80.3 466.4,83.5 464.3,85.3 464,81.3 463.5,86 460.3,88.7 460,83.7 459.5,89.4 451.5,95.9 
								455.7,95.9 461.6,89.8 							"/>
						</g>
					</g>
					<polygon fill="#492474" points="445.6,121.6 440,95.7 464.6,95.7 459.9,121.6 					"/>
				</g>
			</g>
		</g>
		<g>
			<path fill="#FF8C00" d="M322.9,236l5.9-16h-29.2c-5.9,0-11.1,5.2-11.1,11.5V244c2.8,1.4,4.9,3.5,6.3,6.3h1.7h2.1
				c4.2,0,7.6-3.5,7.6-7.6h-9.7v-11.8L322.9,236z"/>
			<path fill="#DD5900" d="M399,254.8c0,0-7-4.9-7-17.4v-4.9v-2.8l-5.2-21.9h-38.2c0,0-10.1,30.2,0,23.3
				c13.2-8.7,38.2-3.5,41.4,37.9c-4.2,1-7.3,4.5-7.3,9h9.4h2.4L399,254.8z"/>
			<path fill="#DD5900" d="M311.4,178.7c-11.8,0-21.6-9.4-21.6-21.5c0,0,21.6-1.4,21.6,11.5V178.7z"/>
			<path fill="#FFB900" d="M386.8,195.3h-40h-6.3h-21.2v1.7l-2.1-2.8c2.1-0.3,4.2-1.4,5.6-2.8H333c3.5,0,6.3-3.1,6.3-6.6v-9h-1.4
				c-1.4-1.4-3.1-2.4-4.9-2.4h-7c-0.3,0-0.3,0.3-0.7,0.3c0-4.9-4.2-8.7-9-8.7h-8c-5.2,0-9,4.2-9,9v3.8h-0.3v21.2
				c0,22.2,18.1,40.3,40.3,40.3c16,0,29.9-9.4,36.2-22.6c1.4-0.3,2.8-0.3,4.2-0.3c14.9,0,27.1,11.8,27.5,26.8v-28.1
				C407,204,398,195.3,386.8,195.3"/>
			<rect x="311.4" y="190.1" fill="#FFB900" width="13.2" height="20.5"/>
			
				<rect x="311.4" y="190.1" opacity="0" fill="none" stroke="#FFFFFF" stroke-width="0.3476" stroke-linecap="round" stroke-linejoin="round" stroke-miterlimit="10" width="13.2" height="20.5"/>
			<rect x="299.2" y="184.9" fill="#FFB900" width="13.2" height="5.2"/>
			
				<rect x="299.2" y="184.9" opacity="0" fill="none" stroke="#FFFFFF" stroke-width="0.3476" stroke-linecap="round" stroke-linejoin="round" stroke-miterlimit="10" width="13.2" height="5.2"/>
			<path fill="#333333" d="M322.2,173.5c0,1-0.7,1.7-1.7,1.7c-0.7,0-1.4-0.7-1.4-1.7c0-0.7,0.7-1.4,1.4-1.4
				C321.5,172.1,322.2,172.8,322.2,173.5"/>
			<path fill="#FF8C00" d="M324.6,191.5h-12.2c0,0,1,11.8,12.2,11.8V191.5z"/>
			<path fill="#FF8C00" d="M310,165.1c0,11.8-9.7,21.5-21.6,21.5c0,0-1.4-21.5,11.5-21.5H310z"/>
			<polygon fill="#FFB900" points="305.8,278 298.5,278 314.5,227.3 328.1,227.3 			"/>
			
				<polygon opacity="0" fill="none" stroke="#FFFFFF" stroke-width="0.3476" stroke-linecap="round" stroke-linejoin="round" stroke-miterlimit="10" points="
				305.8,278 298.5,278 314.5,227.3 328.1,227.3 			"/>
			<path fill="#FFB900" d="M400,207.2c-1.7,0-2.8-1.4-2.8-2.8c0-1.7,1-3.1,2.8-3.1c10.1,0,18.1-8,18.1-18.1c0-9.7-8-18.1-18.1-18.1
				c-1.7,0-2.8-1-2.8-2.8c0-1.7,1-3.1,2.8-3.1c13.2,0,24,10.8,24,24S413.3,207.2,400,207.2"/>
			<path fill="#FFB900" d="M405.6,278c0-49.3-27.5-56.3-42.1-46.9c-10.1,6.9,0-23.3,0-23.3h38.6l4.9,21.9V244l5.2,20.8L405.6,278z"
				/>
			<path fill="#FFB900" d="M407,237.4v-4.9l-7.3,3.8v6.9c0,0,7.3,13.2,7.3,24.3V278h2.8l4.5-23.3C414.3,254.8,407,249.9,407,237.4"
				/>
			<path fill="#FFB900" d="M407.3,268.7c-5.2,0-9.4,4.2-9.4,9.4h9.4V268.7z"/>
			<path fill="#FFB900" d="M297.5,270.4c-4.2,0-7.6,3.5-7.6,7.6h14.3l3.5-7.6H297.5z"/>
			<path fill="#333333" d="M339.2,180.4v-4.5c0-1.4-1-2.4-2.1-2.4h-4.9c0,0,0.3,3.8,2.4,6.9H339.2z"/>
			<path fill="#FF8C00" d="M390,269c-4.2,1-7.3,4.5-7.3,9h9.4h2.4l4.5-23.3c0,0-2.8-1.7-4.9-6.3c-2.8-1.4-6.3-2.8-9.7-3.1
				C387.2,251.3,389.3,259.3,390,269"/>
		</g>
		<g>
			<path fill="#002050" d="M352.8,193.7c0.3,1-0.3,1.9-1.3,2.2l-18.5,4.9c-1,0.3-2-0.3-2.2-1.3l-2.6-9.9c-0.3-1,0.3-1.9,1.3-2.2
				l18.5-4.9c1-0.3,2,0.3,2.2,1.3L352.8,193.7z"/>
			
				<rect x="331.4" y="188.1" transform="matrix(0.9665 -0.2568 0.2568 0.9665 -37.9748 92.257)" fill="#FFFFFF" width="5.7" height="6.8"/>
			
				<rect x="331.4" y="188.1" transform="matrix(0.9665 -0.2568 0.2568 0.9665 -37.9748 92.257)" opacity="0" fill="none" stroke="#FFFFFF" stroke-width="0.113" stroke-linecap="round" stroke-linejoin="round" stroke-miterlimit="10" width="5.7" height="6.8"/>
			<path fill="#FFFFFF" d="M348.3,184.5l-9.5,2.5c-0.1,0-0.2-0.1-0.3-0.2c0-0.1,0.1-0.2,0.2-0.3l9.5-2.5c0.2-0.1,0.4,0,0.4,0.1
				C348.6,184.3,348.6,184.4,348.3,184.5"/>
			<path fill="#FFFFFF" d="M348.8,186.2l-9.5,2.5c-0.1,0-0.2-0.1-0.3-0.2c0-0.1,0.1-0.2,0.2-0.3l9.5-2.5c0.2-0.1,0.4,0,0.4,0.1
				C349.1,186,349,186.2,348.8,186.2"/>
			<path fill="#FFFFFF" d="M349.6,189.4l-9.5,2.5c-0.1,0-0.2-0.1-0.3-0.2c-0.1-0.2,0-0.4,0.1-0.4l9.5-2.5c0.2-0.1,0.4,0,0.4,0.2
				C349.9,189.2,349.9,189.3,349.6,189.4"/>
			<path fill="#FFFFFF" d="M350.1,191l-9.5,2.5c-0.1,0-0.2-0.1-0.3-0.2c0-0.1,0.1-0.2,0.2-0.3l9.5-2.5c0.2-0.1,0.4,0,0.4,0.1
				C350.4,190.8,350.3,191,350.1,191"/>
			<path fill="#FFFFFF" d="M350.5,192.8l-17.7,4.7c-0.1,0-0.2-0.1-0.3-0.2c0-0.1,0.1-0.2,0.2-0.3l17.7-4.7c0.2-0.1,0.4,0,0.4,0.1
				C350.8,192.6,350.8,192.7,350.5,192.8"/>
			<path fill="#FFFFFF" d="M351,194.5l-17.7,4.7c-0.1,0-0.2-0.1-0.3-0.3c0-0.1,0.1-0.2,0.2-0.3l17.7-4.7c0.2-0.1,0.4,0,0.4,0.1
				C351.3,194.3,351.2,194.4,351,194.5"/>
			<path fill="#FF8C00" d="M334.9,190.3c0.1,0.5-0.2,1.1-0.7,1.2c-0.5,0.1-1.1-0.2-1.2-0.7c-0.1-0.5,0.2-1.1,0.7-1.2
				S334.8,189.7,334.9,190.3"/>
			<path fill="#FF8C00" d="M336.6,194.4l-0.5-1.9c-0.1-0.5-0.7-0.9-1.2-0.7l-1.1,0.3c-0.5,0.1-0.9,0.7-0.7,1.2l0.5,1.9L336.6,194.4z
				"/>
		</g>
		<path fill="#FFFFFF" d="M334.5,186.9c0.8-0.9,2-1.5,3.3-1.5c0.5,0,0.9,0.1,1.3,0.2c0.1-0.5,0.1-0.8,0.1-0.8l-7-1.2
			C332.6,185,333.4,186.1,334.5,186.9z"/>
	</g>
</g>
</svg>
