<?xml version="1.0" encoding="utf-8"?>
<!-- Generator: Adobe Illustrator 19.2.1, SVG Export Plug-In . SVG Version: 6.00 Build 0)  -->
<svg version="1.1" xmlns="http://www.w3.org/2000/svg" xmlns:xlink="http://www.w3.org/1999/xlink" x="0px" y="0px"
	 viewBox="0 0 220 134" enable-background="new 0 0 220 134" xml:space="preserve">
<g id="MFA_with_mobile_problem">
	<g>
		
			<rect x="11.7" y="11.9" fill="#00B193" stroke="#FFFFFF" stroke-width="3.3805" stroke-miterlimit="10" width="192.5" height="106.9"/>
		<line fill="none" stroke="#FDB813" stroke-width="6.6125" stroke-miterlimit="10" x1="38.5" y1="4" x2="3.7" y2="38.8"/>
		<g>
			<path fill="#FFFFFF" d="M56.2,44.3h-2.4V30.4h2.4V44.3z"/>
			<path fill="#FFFFFF" d="M60.3,44.5c-0.4,0-0.7-0.1-1-0.4s-0.4-0.6-0.4-0.9c0-0.4,0.1-0.7,0.4-0.9s0.6-0.4,1-0.4
				c0.4,0,0.7,0.1,1,0.4s0.4,0.6,0.4,0.9c0,0.4-0.1,0.7-0.4,0.9S60.7,44.5,60.3,44.5z"/>
			<path fill="#FFFFFF" d="M73.3,32.4h-4v11.9H67V32.4h-4v-2h10.3V32.4z"/>
			<path fill="#FFFFFF" d="M74.2,44.5c-0.4,0-0.7-0.1-1-0.4s-0.4-0.6-0.4-0.9c0-0.4,0.1-0.7,0.4-0.9s0.6-0.4,1-0.4
				c0.4,0,0.7,0.1,1,0.4s0.4,0.6,0.4,0.9c0,0.4-0.1,0.7-0.4,0.9S74.6,44.5,74.2,44.5z"/>
			<path fill="#FFFFFF" d="M86.1,39.3v5h-2.3V30.4H88c1.6,0,2.8,0.4,3.7,1.1c0.9,0.7,1.3,1.8,1.3,3.1s-0.5,2.5-1.4,3.3
				c-0.9,0.9-2.2,1.3-3.7,1.3H86.1z M86.1,32.3v5.1h1.5c1,0,1.7-0.2,2.3-0.7s0.8-1.1,0.8-1.9c0-1.6-0.9-2.5-2.8-2.5H86.1z"/>
			<path fill="#FFFFFF" d="M101.1,44.5c-2,0-3.6-0.6-4.8-1.9s-1.8-3-1.8-5.1c0-2.2,0.6-4,1.8-5.3c1.2-1.3,2.9-2,5-2
				c2,0,3.5,0.6,4.7,1.9c1.2,1.3,1.8,3,1.8,5.1c0,2.3-0.6,4.1-1.8,5.4C104.8,43.9,103.1,44.5,101.1,44.5z M101.2,32.2
				c-1.3,0-2.3,0.5-3.1,1.4c-0.8,0.9-1.2,2.2-1.2,3.7c0,1.5,0.4,2.8,1.2,3.7s1.8,1.4,3,1.4c1.3,0,2.4-0.4,3.1-1.3
				c0.8-0.9,1.2-2.2,1.2-3.8c0-1.7-0.4-2.9-1.1-3.8C103.6,32.7,102.5,32.2,101.2,32.2z"/>
			<path fill="#FFFFFF" d="M118.1,44.3h-7.7V30.4h2.3v11.9h5.4V44.3z"/>
			<path fill="#FFFFFF" d="M122.4,44.3h-2.4V30.4h2.4V44.3z"/>
			<path fill="#FFFFFF" d="M135.5,43.7c-1,0.5-2.3,0.8-3.9,0.8c-2,0-3.6-0.6-4.8-1.9c-1.2-1.3-1.8-2.9-1.8-5c0-2.2,0.7-4,2-5.4
				c1.4-1.4,3.1-2.1,5.2-2.1c1.3,0,2.5,0.2,3.3,0.6V33c-0.9-0.6-2-0.8-3.1-0.8c-1.5,0-2.7,0.5-3.7,1.4c-0.9,1-1.4,2.2-1.4,3.9
				c0,1.5,0.4,2.7,1.3,3.7c0.9,0.9,2,1.4,3.4,1.4c1.3,0,2.4-0.3,3.4-0.9V43.7z"/>
			<path fill="#FFFFFF" d="M140.5,44.3h-2.4V30.4h2.4V44.3z"/>
			<path fill="#FFFFFF" d="M151.8,44.3H144V30.4h7.5v2h-5.2v3.9h4.8v1.9h-4.8v4.1h5.5V44.3z"/>
			<path fill="#FFFFFF" d="M153.6,43.8v-2.4c0.2,0.2,0.5,0.4,0.8,0.5c0.3,0.2,0.6,0.3,0.9,0.4c0.3,0.1,0.7,0.2,1,0.2
				c0.3,0.1,0.6,0.1,0.9,0.1c1,0,1.7-0.2,2.2-0.5c0.5-0.3,0.7-0.8,0.7-1.4c0-0.3-0.1-0.6-0.2-0.9s-0.4-0.5-0.7-0.7
				c-0.3-0.2-0.6-0.4-1-0.6c-0.4-0.2-0.8-0.4-1.2-0.6c-0.5-0.3-0.9-0.5-1.3-0.8c-0.4-0.3-0.8-0.5-1.1-0.9c-0.3-0.3-0.5-0.7-0.7-1.1
				c-0.2-0.4-0.3-0.9-0.3-1.4c0-0.7,0.1-1.2,0.4-1.7c0.3-0.5,0.7-0.9,1.2-1.2c0.5-0.3,1-0.5,1.6-0.7s1.2-0.2,1.9-0.2
				c1.5,0,2.5,0.2,3.2,0.5V33c-0.8-0.6-1.8-0.9-3-0.9c-0.3,0-0.7,0-1,0.1c-0.3,0.1-0.6,0.2-0.9,0.3s-0.5,0.3-0.7,0.6
				c-0.2,0.2-0.3,0.5-0.3,0.8c0,0.3,0.1,0.6,0.2,0.8s0.3,0.4,0.6,0.6c0.2,0.2,0.6,0.4,0.9,0.5s0.8,0.4,1.2,0.6
				c0.5,0.3,0.9,0.5,1.4,0.8c0.4,0.3,0.8,0.6,1.1,0.9c0.3,0.3,0.6,0.7,0.8,1.1s0.3,0.9,0.3,1.4c0,0.7-0.1,1.3-0.4,1.8
				c-0.3,0.5-0.7,0.9-1.1,1.2c-0.5,0.3-1,0.5-1.7,0.7c-0.6,0.1-1.3,0.2-2,0.2c-0.2,0-0.5,0-0.9-0.1c-0.3,0-0.7-0.1-1-0.2
				c-0.4-0.1-0.7-0.2-1-0.2C154,44,153.8,43.9,153.6,43.8z"/>
		</g>
		<path fill="#E2E2E2" d="M36.6,82.3l3.7-3.7l3.6,3.6l10.5-10.5l3.7,3.7L43.9,89.6L36.6,82.3z"/>
		<path fill="#E2E2E2" d="M74.8,82.3l3.7-3.7l3.6,3.6l10.5-10.5l3.7,3.7L82,89.6L74.8,82.3z"/>
		<path fill="#E2E2E2" d="M113,82.3l3.7-3.7l3.6,3.6l10.5-10.5l3.7,3.7l-14.1,14.1L113,82.3z"/>
		<path fill="#E2E2E2" d="M151.2,82.3l3.7-3.7l3.6,3.6l10.5-10.5l3.7,3.7l-14.1,14.1L151.2,82.3z"/>
		<line fill="none" stroke="#FDB813" stroke-width="6.6125" stroke-miterlimit="10" x1="216.3" y1="95.2" x2="181.5" y2="130"/>
	</g>
</g>
<g id="desktop_management_problem">
</g>
</svg>
