<?xml version="1.0" encoding="utf-8"?>
<!-- Generator: Adobe Illustrator 19.2.1, SVG Export Plug-In . SVG Version: 6.00 Build 0)  -->
<svg version="1.1" xmlns="http://www.w3.org/2000/svg" xmlns:xlink="http://www.w3.org/1999/xlink" x="0px" y="0px"
	 viewBox="0 0 308 211" enable-background="new 0 0 308 211" xml:space="preserve">
<g id="MFA_with_mobile_problem">
	<g>
		<g>
			<path fill="#E6E6E6" d="M195.1,54.3c-4-13.4-18.5-23.3-35.9-23.3c-0.1,0-0.2,0-0.3,0v0c0-16.9-16.4-30.6-36.7-30.6
				c-14,0-26.2,6.5-32.4,16.1c-3.6-1.1-7.5-1.7-11.6-1.7c-19,0-34.5,12.9-34.5,28.7c0,0.1,0,0.2,0,0.3c-1.5-0.1-3.1-0.3-4.7-0.3
				c-21.6,0-39.2,14.6-39.2,32.6c0,18,17.5,32.6,39.2,32.6l143.4,0l0,0c18.7,0,33.9-12.7,33.9-28.3
				C216.4,68.7,207.6,58.5,195.1,54.3"/>
			<path fill="#E6E6E6" d="M195.1,151.8c-4,13.4-18.5,23.3-35.9,23.3c-0.1,0-0.2,0-0.3,0v0c0,16.9-16.4,30.6-36.7,30.6
				c-14,0-26.2-6.5-32.4-16.1c-3.6,1.1-7.5,1.7-11.6,1.7c-19,0-34.5-12.9-34.5-28.7c0-0.1,0-0.2,0-0.3c-1.5,0.1-3.1,0.3-4.7,0.3
				c-21.6,0-39.2-14.6-39.2-32.6c0-18,17.5-32.6,39.2-32.6l143.4,0l0,0c18.7,0,33.9,12.7,33.9,28.3
				C216.4,137.5,207.6,147.6,195.1,151.8"/>
			<path fill="#E6E6E6" d="M112.9,54.3c4-13.4,18.5-23.3,35.9-23.3c0.1,0,0.2,0,0.3,0v0c0-16.9,16.4-30.6,36.7-30.6
				c14,0,26.2,6.5,32.4,16.1c3.6-1.1,7.5-1.7,11.6-1.7c19,0,34.5,12.9,34.5,28.7c0,0.1,0,0.2,0,0.3c1.5-0.1,3.1-0.3,4.7-0.3
				c21.6,0,39.2,14.6,39.2,32.6c0,18-17.5,32.6-39.2,32.6l-143.4,0l0,0c-18.7,0-33.9-12.7-33.9-28.3
				C91.6,68.7,100.4,58.5,112.9,54.3"/>
			<path fill="#E6E6E6" d="M112.9,151.8c4,13.4,18.5,23.3,35.9,23.3c0.1,0,0.2,0,0.3,0v0c0,16.9,16.4,30.6,36.7,30.6
				c14,0,26.2-6.5,32.4-16.1c3.6,1.1,7.5,1.7,11.6,1.7c19,0,34.5-12.9,34.5-28.7c0-0.1,0-0.2,0-0.3c1.5,0.1,3.1,0.3,4.7,0.3
				c21.6,0,39.2-14.6,39.2-32.6c0-18-17.5-32.6-39.2-32.6l-143.4,0l0,0c-18.7,0-33.9,12.7-33.9,28.3
				C91.6,137.5,100.4,147.6,112.9,151.8"/>
		</g>
		<circle fill="#E6E6E6" cx="30.7" cy="179.6" r="7.5"/>
		<circle fill="#E6E6E6" cx="18" cy="197" r="5.3"/>
		<circle fill="#E6E6E6" cx="5.6" cy="206.9" r="3.7"/>
		<g>
			<path fill="#2F2F2F" d="M38.8,105v4.3H38V105l-3.4-7h0.9l2.6,5.4c0.1,0.2,0.2,0.5,0.4,0.8h0c0.1-0.2,0.2-0.5,0.4-0.8l2.7-5.4h0.8
				L38.8,105z"/>
			<path fill="#2F2F2F" d="M46.8,109.4c-1,0-1.8-0.5-2.4-1.4c-0.6-0.9-0.9-2.3-0.9-4.1c0-2,0.3-3.5,0.9-4.5c0.6-1,1.5-1.5,2.6-1.5
				c2.2,0,3.2,1.9,3.2,5.7c0,1.9-0.3,3.4-0.9,4.4C48.8,108.9,47.9,109.4,46.8,109.4z M47,98.5c-0.9,0-1.5,0.4-2,1.3
				c-0.5,0.9-0.7,2.2-0.7,4c0,1.6,0.2,2.8,0.7,3.7c0.5,0.9,1.1,1.3,2,1.3c0.8,0,1.5-0.4,1.9-1.3c0.5-0.9,0.7-2.1,0.7-3.8
				C49.5,100.2,48.7,98.5,47,98.5z"/>
			<path fill="#2F2F2F" d="M58,109.2v-1.5h0c-0.3,0.5-0.6,0.9-1.2,1.2s-1.1,0.4-1.7,0.4c-1,0-1.8-0.4-2.4-1.1s-0.9-1.7-0.9-3
				c0-1.3,0.3-2.3,1-3.1c0.7-0.8,1.6-1.2,2.6-1.2c1.2,0,2.1,0.5,2.6,1.5h0v-5.1h0.7v11.8H58z M58,104.4c0-0.7-0.2-1.4-0.7-1.9
				c-0.5-0.5-1.1-0.8-1.9-0.8c-0.8,0-1.5,0.3-2.1,1c-0.5,0.6-0.8,1.5-0.8,2.7c0,1.1,0.2,2,0.7,2.6s1.1,0.9,1.9,0.9
				c0.9,0,1.6-0.3,2.1-0.8c0.5-0.6,0.8-1.3,0.8-2.1V104.4z"/>
			<path fill="#2F2F2F" d="M66,109.2v-1.6h0c-0.3,0.5-0.6,1-1.1,1.3s-1,0.5-1.6,0.5c-0.8,0-1.4-0.2-1.8-0.6c-0.4-0.4-0.7-1-0.7-1.6
				c0-1.4,0.9-2.2,2.8-2.5l2.5-0.4c0-1.7-0.6-2.6-1.9-2.6c-0.9,0-1.7,0.4-2.6,1.1v-0.9c0.3-0.2,0.7-0.4,1.2-0.6
				c0.5-0.2,1-0.3,1.4-0.3c0.8,0,1.5,0.3,1.9,0.8c0.5,0.5,0.7,1.3,0.7,2.2v5.2H66z M63.8,105.2c-0.8,0.1-1.4,0.3-1.8,0.6
				c-0.3,0.3-0.5,0.7-0.5,1.3c0,0.5,0.2,0.9,0.5,1.2c0.3,0.3,0.8,0.5,1.3,0.5c0.8,0,1.4-0.3,1.9-0.9s0.8-1.3,0.8-2.2v-0.8
				L63.8,105.2z"/>
			<path fill="#2F2F2F" d="M72.3,109.2v1.7h-0.6v-1.6c-1,0-1.8-0.2-2.6-0.6v-0.8c0.8,0.5,1.6,0.8,2.6,0.8v-4.7c-1-0.6-1.7-1.1-2-1.5
				c-0.3-0.4-0.5-0.9-0.5-1.5c0-0.7,0.2-1.3,0.7-1.9c0.5-0.5,1.1-0.8,1.9-1v-1.4h0.6V98c0.8,0,1.5,0.1,2,0.3v0.8
				c-0.5-0.3-1.2-0.5-2-0.5v4.7c1,0.5,1.6,1,2,1.4c0.4,0.4,0.6,1,0.6,1.6c0,0.7-0.2,1.3-0.7,1.8C73.7,108.8,73.1,109.1,72.3,109.2z
				 M71.7,98.7c-0.6,0.1-1,0.3-1.3,0.7c-0.3,0.4-0.5,0.8-0.5,1.4c0,0.5,0.1,0.9,0.4,1.2s0.7,0.7,1.4,1.1V98.7z M72.3,104.3v4.3
				c0.6-0.1,1-0.3,1.3-0.7s0.5-0.8,0.5-1.3c0-0.5-0.1-0.9-0.4-1.2C73.5,105,73,104.7,72.3,104.3z"/>
			<path fill="#2F2F2F" d="M82.2,109.2v-1.6h0c-0.3,0.5-0.6,1-1.1,1.3s-1,0.5-1.6,0.5c-0.8,0-1.4-0.2-1.8-0.6
				c-0.4-0.4-0.7-1-0.7-1.6c0-1.4,0.9-2.2,2.8-2.5l2.5-0.4c0-1.7-0.6-2.6-1.9-2.6c-0.9,0-1.7,0.4-2.6,1.1v-0.9
				c0.3-0.2,0.7-0.4,1.2-0.6c0.5-0.2,1-0.3,1.4-0.3c0.8,0,1.5,0.3,1.9,0.8c0.5,0.5,0.7,1.3,0.7,2.2v5.2H82.2z M80,105.2
				c-0.8,0.1-1.4,0.3-1.8,0.6c-0.3,0.3-0.5,0.7-0.5,1.3c0,0.5,0.2,0.9,0.5,1.2c0.3,0.3,0.8,0.5,1.3,0.5c0.8,0,1.4-0.3,1.9-0.9
				s0.8-1.3,0.8-2.2v-0.8L80,105.2z"/>
			<path fill="#2F2F2F" d="M87.3,110.9c-0.3,0.7-0.6,1.3-1,1.6c-0.4,0.3-0.8,0.5-1.4,0.5c-0.2,0-0.4,0-0.6-0.1v-0.7
				c0.2,0.1,0.4,0.1,0.7,0.1c0.6,0,1.1-0.4,1.5-1.3l0.7-1.8l-3-7.9H85l2.4,6.5c0.1,0.1,0.1,0.2,0.1,0.3c0,0.1,0,0.2,0.1,0.3h0
				l0.2-0.5l2.6-6.6h0.8L87.3,110.9z"/>
			<path fill="#2F2F2F" d="M95.7,109.2v1.7h-0.6v-1.6c-1,0-1.8-0.2-2.6-0.6v-0.8c0.8,0.5,1.6,0.8,2.6,0.8v-4.7c-1-0.6-1.7-1.1-2-1.5
				c-0.3-0.4-0.5-0.9-0.5-1.5c0-0.7,0.2-1.3,0.7-1.9c0.5-0.5,1.1-0.8,1.9-1v-1.4h0.6V98c0.8,0,1.5,0.1,2,0.3v0.8
				c-0.5-0.3-1.2-0.5-2-0.5v4.7c1,0.5,1.6,1,2,1.4c0.4,0.4,0.6,1,0.6,1.6c0,0.7-0.2,1.3-0.7,1.8C97.1,108.8,96.5,109.1,95.7,109.2z
				 M95.1,98.7c-0.6,0.1-1,0.3-1.3,0.7c-0.3,0.4-0.5,0.8-0.5,1.4c0,0.5,0.1,0.9,0.4,1.2s0.7,0.7,1.4,1.1V98.7z M95.7,104.3v4.3
				c0.6-0.1,1-0.3,1.3-0.7s0.5-0.8,0.5-1.3c0-0.5-0.1-0.9-0.4-1.2C96.9,105,96.4,104.7,95.7,104.3z"/>
			<path fill="#2F2F2F" d="M101,101.5h-0.6l1-3.5h0.8L101,101.5z M102.9,101.5h-0.6l1-3.5h0.8L102.9,101.5z"/>
			<path fill="#2F2F2F" d="M110,109.2v-1.5h0c-0.3,0.5-0.6,0.9-1.2,1.2s-1.1,0.4-1.7,0.4c-1,0-1.8-0.4-2.4-1.1s-0.9-1.7-0.9-3
				c0-1.3,0.3-2.3,1-3.1c0.7-0.8,1.6-1.2,2.6-1.2c1.2,0,2.1,0.5,2.6,1.5h0v-5.1h0.7v11.8H110z M110,104.4c0-0.7-0.2-1.4-0.7-1.9
				c-0.5-0.5-1.1-0.8-1.9-0.8c-0.8,0-1.5,0.3-2.1,1c-0.5,0.6-0.8,1.5-0.8,2.7c0,1.1,0.2,2,0.7,2.6s1.1,0.9,1.9,0.9
				c0.9,0,1.6-0.3,2.1-0.8c0.5-0.6,0.8-1.3,0.8-2.1V104.4z"/>
			<path fill="#2F2F2F" d="M116,109.4c-1,0-1.8-0.5-2.4-1.4c-0.6-0.9-0.9-2.3-0.9-4.1c0-2,0.3-3.5,0.9-4.5c0.6-1,1.5-1.5,2.6-1.5
				c2.2,0,3.2,1.9,3.2,5.7c0,1.9-0.3,3.4-0.9,4.4C117.9,108.9,117.1,109.4,116,109.4z M116.2,98.5c-0.9,0-1.5,0.4-2,1.3
				c-0.5,0.9-0.7,2.2-0.7,4c0,1.6,0.2,2.8,0.7,3.7c0.5,0.9,1.1,1.3,2,1.3c0.8,0,1.5-0.4,1.9-1.3c0.5-0.9,0.7-2.1,0.7-3.8
				C118.7,100.2,117.9,98.5,116.2,98.5z"/>
			<path fill="#2F2F2F" d="M124.2,109.4c-1,0-1.8-0.5-2.4-1.4c-0.6-0.9-0.9-2.3-0.9-4.1c0-2,0.3-3.5,0.9-4.5c0.6-1,1.5-1.5,2.6-1.5
				c2.2,0,3.2,1.9,3.2,5.7c0,1.9-0.3,3.4-0.9,4.4C126.2,108.9,125.3,109.4,124.2,109.4z M124.4,98.5c-0.9,0-1.5,0.4-2,1.3
				c-0.5,0.9-0.7,2.2-0.7,4c0,1.6,0.2,2.8,0.7,3.7c0.5,0.9,1.1,1.3,2,1.3c0.8,0,1.5-0.4,1.9-1.3c0.5-0.9,0.7-2.1,0.7-3.8
				C127,100.2,126.1,98.5,124.4,98.5z"/>
			<path fill="#2F2F2F" d="M133.5,102c-0.2-0.2-0.5-0.3-0.8-0.3c-0.6,0-1.2,0.3-1.6,1c-0.4,0.7-0.6,1.6-0.6,2.8v3.8h-0.7v-8h0.7v1.8
				h0c0.2-0.6,0.5-1.1,0.9-1.4c0.4-0.3,0.9-0.5,1.4-0.5c0.3,0,0.6,0,0.8,0.1V102z"/>
			<path fill="#2F2F2F" d="M140.4,109.2v-1.5h0c-0.3,0.5-0.6,0.9-1.2,1.2s-1.1,0.4-1.7,0.4c-1,0-1.8-0.4-2.4-1.1s-0.9-1.7-0.9-3
				c0-1.3,0.3-2.3,1-3.1c0.7-0.8,1.6-1.2,2.6-1.2c1.2,0,2.1,0.5,2.6,1.5h0v-5.1h0.7v11.8H140.4z M140.4,104.4c0-0.7-0.2-1.4-0.7-1.9
				c-0.5-0.5-1.1-0.8-1.9-0.8c-0.8,0-1.5,0.3-2.1,1c-0.5,0.6-0.8,1.5-0.8,2.7c0,1.1,0.2,2,0.7,2.6s1.1,0.9,1.9,0.9
				c0.9,0,1.6-0.3,2.1-0.8c0.5-0.6,0.8-1.3,0.8-2.1V104.4z"/>
			<path fill="#2F2F2F" d="M146.4,109.4c-1,0-1.8-0.5-2.4-1.4c-0.6-0.9-0.9-2.3-0.9-4.1c0-2,0.3-3.5,0.9-4.5c0.6-1,1.5-1.5,2.6-1.5
				c2.2,0,3.2,1.9,3.2,5.7c0,1.9-0.3,3.4-0.9,4.4C148.4,108.9,147.5,109.4,146.4,109.4z M146.6,98.5c-0.9,0-1.5,0.4-2,1.3
				c-0.5,0.9-0.7,2.2-0.7,4c0,1.6,0.2,2.8,0.7,3.7c0.5,0.9,1.1,1.3,2,1.3c0.8,0,1.5-0.4,1.9-1.3c0.5-0.9,0.7-2.1,0.7-3.8
				C149.1,100.2,148.3,98.5,146.6,98.5z"/>
			<path fill="#2F2F2F" d="M157.3,109.2v-4.7c0-1.9-0.7-2.9-2.1-2.9c-0.8,0-1.4,0.3-1.9,0.8c-0.5,0.6-0.7,1.3-0.7,2.1v4.6h-0.7v-8
				h0.7v1.5h0c0.6-1.1,1.5-1.6,2.7-1.6c0.9,0,1.5,0.3,2,0.9c0.5,0.6,0.7,1.4,0.7,2.5v4.9H157.3z"/>
			<path fill="#2F2F2F" d="M163.2,109.4c-1,0-1.8-0.5-2.4-1.4c-0.6-0.9-0.9-2.3-0.9-4.1c0-2,0.3-3.5,0.9-4.5c0.6-1,1.5-1.5,2.6-1.5
				c2.2,0,3.2,1.9,3.2,5.7c0,1.9-0.3,3.4-0.9,4.4C165.2,108.9,164.3,109.4,163.2,109.4z M163.4,98.5c-0.9,0-1.5,0.4-2,1.3
				c-0.5,0.9-0.7,2.2-0.7,4c0,1.6,0.2,2.8,0.7,3.7c0.5,0.9,1.1,1.3,2,1.3c0.8,0,1.5-0.4,1.9-1.3c0.5-0.9,0.7-2.1,0.7-3.8
				C165.9,100.2,165.1,98.5,163.4,98.5z"/>
			<path fill="#2F2F2F" d="M171.9,109.1c-0.4,0.2-0.7,0.3-1.1,0.3c-1.2,0-1.8-0.7-1.8-2.1v-5.4h-1.4v-0.7h1.4v-2.1
				c0.1,0,0.2-0.1,0.4-0.1c0.1,0,0.2-0.1,0.4-0.1v2.3h2.1v0.7h-2.1v5.3c0,0.6,0.1,1,0.3,1.2c0.2,0.2,0.5,0.4,0.9,0.4
				c0.3,0,0.6-0.1,1-0.3V109.1z"/>
			<path fill="#2F2F2F" d="M176.6,109.1c-0.4,0.2-0.7,0.3-1.1,0.3c-1.2,0-1.8-0.7-1.8-2.1v-5.4h-1.4v-0.7h1.4v-2.1
				c0.1,0,0.2-0.1,0.4-0.1c0.1,0,0.2-0.1,0.4-0.1v2.3h2.1v0.7h-2.1v5.3c0,0.6,0.1,1,0.3,1.2c0.2,0.2,0.5,0.4,0.9,0.4
				c0.3,0,0.6-0.1,1-0.3V109.1z"/>
			<path fill="#2F2F2F" d="M183.6,109.2v-4.8c0-0.9-0.2-1.6-0.5-2.1c-0.3-0.4-0.9-0.7-1.6-0.7c-0.7,0-1.3,0.3-1.8,0.8
				c-0.5,0.5-0.8,1.3-0.8,2.3v4.4h-0.7V97.4h0.7v5.3h0c0.6-1.1,1.5-1.6,2.8-1.6c0.9,0,1.5,0.3,2,0.8c0.5,0.6,0.7,1.4,0.7,2.4v5
				H183.6z"/>
			<path fill="#2F2F2F" d="M186.9,105.3c0,1.1,0.3,2,0.8,2.6c0.5,0.6,1.2,0.9,2.1,0.9c0.9,0,1.8-0.3,2.6-1v0.8
				c-0.8,0.6-1.8,0.9-2.8,0.9c-1,0-1.9-0.4-2.5-1.1c-0.6-0.7-1-1.8-1-3.1c0-1.2,0.3-2.1,1-2.9c0.7-0.8,1.5-1.2,2.6-1.2
				c1,0,1.8,0.3,2.3,1c0.5,0.7,0.8,1.7,0.8,2.9v0.3H186.9z M192.1,104.6c0-0.9-0.3-1.6-0.7-2.1c-0.4-0.5-1-0.8-1.7-0.8
				c-0.8,0-1.4,0.3-1.9,0.8c-0.5,0.5-0.8,1.2-0.9,2.2H192.1z"/>
			<path fill="#2F2F2F" d="M198.6,102c-0.2-0.2-0.5-0.3-0.8-0.3c-0.6,0-1.2,0.3-1.6,1c-0.4,0.7-0.6,1.6-0.6,2.8v3.8h-0.7v-8h0.7v1.8
				h0c0.2-0.6,0.5-1.1,0.9-1.4c0.4-0.3,0.9-0.5,1.4-0.5c0.3,0,0.6,0,0.8,0.1V102z"/>
			<path fill="#2F2F2F" d="M200,105.3c0,1.1,0.3,2,0.8,2.6c0.5,0.6,1.2,0.9,2.1,0.9c0.9,0,1.8-0.3,2.6-1v0.8
				c-0.8,0.6-1.8,0.9-2.8,0.9c-1,0-1.9-0.4-2.5-1.1c-0.6-0.7-1-1.8-1-3.1c0-1.2,0.3-2.1,1-2.9c0.7-0.8,1.5-1.2,2.6-1.2
				c1,0,1.8,0.3,2.3,1c0.5,0.7,0.8,1.7,0.8,2.9v0.3H200z M205.1,104.6c0-0.9-0.3-1.6-0.7-2.1c-0.4-0.5-1-0.8-1.7-0.8
				c-0.8,0-1.4,0.3-1.9,0.8c-0.5,0.5-0.8,1.2-0.9,2.2H205.1z"/>
			<path fill="#2F2F2F" d="M208.2,99.2c-0.2,0-0.3-0.1-0.4-0.2c-0.1-0.1-0.2-0.3-0.2-0.4c0-0.2,0.1-0.3,0.2-0.4
				c0.1-0.1,0.3-0.2,0.4-0.2c0.2,0,0.3,0.1,0.4,0.2c0.1,0.1,0.2,0.2,0.2,0.4c0,0.2-0.1,0.3-0.2,0.4
				C208.5,99.1,208.4,99.2,208.2,99.2z M207.9,109.2v-8h0.7v8H207.9z"/>
			<path fill="#2F2F2F" d="M214.3,109.2v1.7h-0.6v-1.6c-1,0-1.8-0.2-2.6-0.6v-0.8c0.8,0.5,1.6,0.8,2.6,0.8v-4.7
				c-1-0.6-1.7-1.1-2-1.5c-0.3-0.4-0.5-0.9-0.5-1.5c0-0.7,0.2-1.3,0.7-1.9c0.5-0.5,1.1-0.8,1.9-1v-1.4h0.6V98c0.8,0,1.5,0.1,2,0.3
				v0.8c-0.5-0.3-1.2-0.5-2-0.5v4.7c1,0.5,1.6,1,2,1.4c0.4,0.4,0.6,1,0.6,1.6c0,0.7-0.2,1.3-0.7,1.8
				C215.7,108.8,215.1,109.1,214.3,109.2z M213.7,98.7c-0.6,0.1-1,0.3-1.3,0.7c-0.3,0.4-0.5,0.8-0.5,1.4c0,0.5,0.1,0.9,0.4,1.2
				s0.7,0.7,1.4,1.1V98.7z M214.3,104.3v4.3c0.6-0.1,1-0.3,1.3-0.7s0.5-0.8,0.5-1.3c0-0.5-0.1-0.9-0.4-1.2
				C215.5,105,215,104.7,214.3,104.3z"/>
			<path fill="#2F2F2F" d="M224.8,109.2v-4.7c0-1.9-0.7-2.9-2.1-2.9c-0.8,0-1.4,0.3-1.9,0.8c-0.5,0.6-0.7,1.3-0.7,2.1v4.6h-0.7v-8
				h0.7v1.5h0c0.6-1.1,1.5-1.6,2.7-1.6c0.9,0,1.5,0.3,2,0.9c0.5,0.6,0.7,1.4,0.7,2.5v4.9H224.8z"/>
			<path fill="#2F2F2F" d="M230.7,109.4c-1,0-1.8-0.5-2.4-1.4c-0.6-0.9-0.9-2.3-0.9-4.1c0-2,0.3-3.5,0.9-4.5c0.6-1,1.5-1.5,2.6-1.5
				c2.2,0,3.2,1.9,3.2,5.7c0,1.9-0.3,3.4-0.9,4.4C232.7,108.9,231.8,109.4,230.7,109.4z M230.9,98.5c-0.9,0-1.5,0.4-2,1.3
				c-0.5,0.9-0.7,2.2-0.7,4c0,1.6,0.2,2.8,0.7,3.7c0.5,0.9,1.1,1.3,2,1.3c0.8,0,1.5-0.4,1.9-1.3c0.5-0.9,0.7-2.1,0.7-3.8
				C233.4,100.2,232.6,98.5,230.9,98.5z"/>
			<path fill="#2F2F2F" d="M239.4,109.1c-0.4,0.2-0.7,0.3-1.1,0.3c-1.2,0-1.8-0.7-1.8-2.1v-5.4h-1.4v-0.7h1.4v-2.1
				c0.1,0,0.2-0.1,0.4-0.1c0.1,0,0.2-0.1,0.4-0.1v2.3h2.1v0.7h-2.1v5.3c0,0.6,0.1,1,0.3,1.2c0.2,0.2,0.5,0.4,0.9,0.4
				c0.3,0,0.6-0.1,1-0.3V109.1z"/>
			<path fill="#2F2F2F" d="M244.7,102c-0.2-0.2-0.5-0.3-0.8-0.3c-0.6,0-1.2,0.3-1.6,1c-0.4,0.7-0.6,1.6-0.6,2.8v3.8H241v-8h0.7v1.8
				h0c0.2-0.6,0.5-1.1,0.9-1.4c0.4-0.3,0.9-0.5,1.4-0.5c0.3,0,0.6,0,0.8,0.1V102z"/>
			<path fill="#2F2F2F" d="M249.2,110.9c-0.3,0.7-0.6,1.3-1,1.6c-0.4,0.3-0.8,0.5-1.4,0.5c-0.2,0-0.4,0-0.6-0.1v-0.7
				c0.2,0.1,0.4,0.1,0.7,0.1c0.6,0,1.1-0.4,1.5-1.3l0.7-1.8l-3-7.9h0.8l2.4,6.5c0.1,0.1,0.1,0.2,0.1,0.3c0,0.1,0,0.2,0.1,0.3h0
				l0.2-0.5l2.6-6.6h0.8L249.2,110.9z"/>
			<path fill="#2F2F2F" d="M254.6,101.5h-0.6l1-3.5h0.8L254.6,101.5z M256.6,101.5H256l1-3.5h0.8L256.6,101.5z"/>
			<path fill="#2F2F2F" d="M259.4,106.1c0-0.3,0-0.6,0.1-0.9s0.2-0.6,0.4-0.8c0.2-0.3,0.4-0.5,0.7-0.7s0.6-0.4,0.9-0.5
				c-0.3-0.1-0.5-0.3-0.7-0.5c-0.2-0.2-0.4-0.4-0.5-0.6c-0.2-0.2-0.3-0.5-0.3-0.7c-0.1-0.3-0.1-0.5-0.1-0.8c0-0.4,0.1-0.8,0.2-1.1
				c0.1-0.3,0.4-0.7,0.6-0.9c0.3-0.3,0.6-0.5,0.9-0.6c0.4-0.1,0.7-0.2,1.2-0.2c0.4,0,0.8,0.1,1.2,0.2c0.4,0.1,0.7,0.3,0.9,0.6
				c0.3,0.3,0.5,0.6,0.6,0.9c0.1,0.3,0.2,0.7,0.2,1.1c0,0.3,0,0.5-0.1,0.8s-0.2,0.5-0.3,0.7s-0.3,0.4-0.5,0.6
				c-0.2,0.2-0.4,0.3-0.7,0.4c0.3,0.1,0.6,0.3,0.9,0.5s0.5,0.4,0.6,0.7c0.2,0.3,0.3,0.5,0.4,0.8s0.1,0.6,0.1,0.9
				c0,0.5-0.1,1-0.2,1.4c-0.2,0.4-0.4,0.8-0.7,1c-0.3,0.3-0.6,0.5-1,0.6s-0.9,0.2-1.3,0.2c-0.5,0-0.9-0.1-1.3-0.2s-0.7-0.4-1-0.6
				s-0.5-0.6-0.7-1C259.5,107.1,259.4,106.6,259.4,106.1z M260.1,106.2c0,0.4,0.1,0.7,0.2,1.1c0.1,0.3,0.3,0.6,0.5,0.8
				s0.5,0.4,0.8,0.5c0.3,0.1,0.7,0.2,1,0.2c0.4,0,0.7-0.1,1-0.2c0.3-0.1,0.6-0.3,0.8-0.5s0.4-0.5,0.5-0.8c0.1-0.3,0.2-0.7,0.2-1.1
				c0-0.3-0.1-0.7-0.2-1s-0.3-0.6-0.5-0.8s-0.5-0.4-0.8-0.6c-0.3-0.1-0.7-0.2-1.1-0.2c-0.4,0-0.7,0.1-1,0.2
				c-0.3,0.1-0.6,0.3-0.8,0.5s-0.4,0.5-0.5,0.8C260.2,105.5,260.1,105.8,260.1,106.2z M260.5,100.7c0,0.3,0.1,0.6,0.2,0.9
				c0.1,0.3,0.3,0.5,0.5,0.7c0.2,0.2,0.4,0.4,0.7,0.5c0.3,0.1,0.5,0.2,0.8,0.2s0.6-0.1,0.8-0.2c0.3-0.1,0.5-0.3,0.7-0.5
				c0.2-0.2,0.4-0.4,0.5-0.7c0.1-0.3,0.2-0.6,0.2-0.9c0-0.3-0.1-0.6-0.2-0.9c-0.1-0.3-0.3-0.5-0.5-0.7c-0.2-0.2-0.4-0.4-0.7-0.5
				c-0.3-0.1-0.5-0.2-0.9-0.2c-0.3,0-0.6,0.1-0.9,0.2s-0.5,0.3-0.7,0.5c-0.2,0.2-0.3,0.4-0.4,0.7
				C260.6,100.1,260.5,100.4,260.5,100.7z"/>
			<path fill="#2F2F2F" d="M270.8,109.4c-1,0-1.8-0.5-2.4-1.4c-0.6-0.9-0.9-2.3-0.9-4.1c0-2,0.3-3.5,0.9-4.5c0.6-1,1.5-1.5,2.6-1.5
				c2.2,0,3.2,1.9,3.2,5.7c0,1.9-0.3,3.4-0.9,4.4C272.8,108.9,271.9,109.4,270.8,109.4z M271,98.5c-0.9,0-1.5,0.4-2,1.3
				c-0.5,0.9-0.7,2.2-0.7,4c0,1.6,0.2,2.8,0.7,3.7c0.5,0.9,1.1,1.3,2,1.3c0.8,0,1.5-0.4,1.9-1.3c0.5-0.9,0.7-2.1,0.7-3.8
				C273.5,100.2,272.7,98.5,271,98.5z"/>
		</g>
	</g>
</g>
<g id="desktop_management_problem">
</g>
</svg>
