<?xml version="1.0" encoding="utf-8"?>
<!-- Generator: Adobe Illustrator 19.2.1, SVG Export Plug-In . SVG Version: 6.00 Build 0)  -->
<svg version="1.1" xmlns="http://www.w3.org/2000/svg" xmlns:xlink="http://www.w3.org/1999/xlink" x="0px" y="0px"
	 viewBox="0 0 102 77" enable-background="new 0 0 102 77" xml:space="preserve">
<g id="MFA_with_mobile_problem">
</g>
<g id="desktop_management_problem">
	<g>
		<path fill="#0078D7" d="M7,4.4l0,67.4c0,0,0,4.8,4.8,4.8l85,0c0,0,4.8,0,4.8-4.8l0-67.4c0,0,0-4.8-4.8-4.8l-85,0
			C11.8-0.4,7-0.4,7,4.4z"/>
		<path fill="#1EBBEE" d="M0.4,4.4l0,67.4c0,0,0,4.8,4.8,4.8l86.7,0c0,0,4.8,0,4.8-4.8l0-67.4c0,0,0-4.8-4.8-4.8l-86.7,0
			C5.3-0.4,0.4-0.4,0.4,4.4z"/>
		<rect x="5.3" y="4.4" fill="#DD5900" width="86.7" height="57.8"/>
		<path fill="#FFFFFF" d="M35.6,29.1h3.3v-4.9c0-7.3,5.9-13.2,13.2-13.2s13.2,5.9,13.2,13.2v4.9h3.3l0,21.4l-32.9,0L35.6,29.1z
			 M60.3,24.2c0-4.5-3.7-8.2-8.2-8.2c-4.5,0-8.2,3.7-8.2,8.2v4.9l16.5,0L60.3,24.2z M48.8,48.3h6.7L53.7,39c1.1-0.6,1.9-1.7,1.9-3
			c0-1.9-1.5-3.4-3.4-3.4c-1.9,0-3.4,1.5-3.4,3.4c0,1.3,0.8,2.5,1.9,3L48.8,48.3z"/>
		<path opacity="0.15" d="M5.3,76.8l86.8,0c0,0,4.8,0,4.8-4.5v-4.5L0.5,13.9l0,58.4C0.5,72.3,0.5,76.8,5.3,76.8z"/>
	</g>
</g>
</svg>
