<?xml version="1.0" encoding="utf-8"?>
<!-- Generator: Adobe Illustrator 19.2.1, SVG Export Plug-In . SVG Version: 6.00 Build 0)  -->
<svg version="1.1" xmlns="http://www.w3.org/2000/svg" xmlns:xlink="http://www.w3.org/1999/xlink" x="0px" y="0px"
	 viewBox="0 0 102 77" enable-background="new 0 0 102 77" xml:space="preserve">
<g id="MFA_with_mobile_problem">
</g>
<g id="desktop_management_problem">
	<g>
		<path fill="#0078D7" d="M8.3,4.5l0,67.4c0,0,0,4.8,4.8,4.8l85,0c0,0,4.8,0,4.8-4.8l0-67.4c0,0,0-4.8-4.8-4.8l-85,0
			C13.1-0.3,8.3-0.3,8.3,4.5z"/>
		<path fill="#1EBBEE" d="M1.8,4.5l0,67.4c0,0,0,4.8,4.8,4.8l86.7,0c0,0,4.8,0,4.8-4.8l0-67.4c0,0,0-4.8-4.8-4.8l-86.7,0
			C6.6-0.3,1.8-0.3,1.8,4.5z"/>
		<rect x="6.6" y="4.5" fill="#BADB0A" width="86.7" height="57.8"/>
		<path opacity="0.15" d="M6.6,76.9l86.8,0c0,0,4.8,0,4.8-4.5v-4.5L1.8,13.9l0,58.4C1.8,72.4,1.8,76.9,6.6,76.9z"/>
		<g>
			<rect x="9.6" y="43.3" width="15" height="2.5"/>
			<rect x="30.7" y="43.3" width="15" height="2.5"/>
			<rect x="51.8" y="43.3" width="15" height="2.5"/>
			<rect x="72.9" y="43.3" width="15" height="2.5"/>
			<g>
				<path d="M21.3,22.9v1.1c-0.8-0.4-1.6-0.6-2.5-0.6c-0.8,0-1.6,0.2-2.3,0.6s-1.2,1-1.7,1.7s-0.8,1.6-1.1,2.7s-0.4,2.2-0.4,3.4h0
					c0.8-1.9,2.2-2.8,4.2-2.8c0.7,0,1.3,0.1,1.9,0.4s1,0.6,1.4,1.1s0.7,1,0.9,1.6s0.3,1.3,0.3,2c0,0.8-0.1,1.6-0.4,2.3
					s-0.6,1.3-1,1.8s-1,0.9-1.6,1.2s-1.3,0.4-2,0.4c-0.8,0-1.5-0.2-2.1-0.5s-1.1-0.8-1.5-1.5s-0.7-1.4-1-2.4s-0.3-2.1-0.3-3.3
					c0-1.5,0.1-2.8,0.4-4s0.7-2.2,1.3-3.1s1.2-1.5,2.1-2s1.7-0.7,2.8-0.7C19.8,22.5,20.6,22.6,21.3,22.9z M17.5,30.1
					c-0.6,0-1.1,0.1-1.5,0.3s-0.9,0.5-1.2,0.9s-0.6,0.8-0.8,1.3s-0.3,1-0.3,1.5c0,0.6,0.1,1.3,0.3,1.8s0.4,1.1,0.8,1.5
					s0.7,0.8,1.2,1s1,0.4,1.6,0.4c0.5,0,1-0.1,1.5-0.3s0.9-0.5,1.2-0.9s0.6-0.9,0.8-1.4s0.3-1.1,0.3-1.8c0-0.7-0.1-1.3-0.3-1.8
					s-0.4-1-0.7-1.4s-0.7-0.7-1.2-0.9S18,30.1,17.5,30.1z"/>
			</g>
			<g>
				<path d="M40.1,22.4v17.2H39V24.1c-0.5,0.5-1.2,1-1.8,1.3s-1.4,0.7-2.3,1v-1c0.5-0.2,0.9-0.3,1.4-0.6s0.8-0.4,1.2-0.7
					s0.8-0.5,1.1-0.8s0.7-0.6,1.1-1H40.1z"/>
			</g>
			<g>
				<path d="M55.2,39.4v-1.2c0.9,0.4,1.7,0.6,2.5,0.6c1.8,0,3.1-0.7,4.1-2.1s1.4-3.5,1.4-6.3h0c-0.8,1.8-2.1,2.7-4.1,2.7
					c-0.7,0-1.3-0.1-1.9-0.4s-1.1-0.6-1.5-1.1s-0.7-1-0.9-1.6s-0.3-1.3-0.3-2.1c0-0.8,0.1-1.6,0.4-2.3s0.6-1.3,1.1-1.7
					s1-0.9,1.6-1.1s1.3-0.4,2-0.4c0.7,0,1.4,0.2,2,0.5s1.1,0.8,1.5,1.4s0.7,1.4,1,2.4s0.3,2.1,0.3,3.3c0,1.6-0.1,2.9-0.4,4.2
					s-0.7,2.2-1.3,3.1s-1.2,1.5-2.1,1.9s-1.8,0.7-2.8,0.7C56.8,39.9,56,39.7,55.2,39.4z M59.3,23.5c-0.5,0-1.1,0.1-1.5,0.3
					s-0.9,0.5-1.2,0.9s-0.6,0.8-0.8,1.4s-0.3,1.1-0.3,1.7c0,0.7,0.1,1.3,0.3,1.8s0.4,1,0.8,1.4s0.7,0.7,1.2,0.9s1,0.3,1.5,0.3
					c0.5,0,1-0.1,1.5-0.3s0.9-0.5,1.2-0.8s0.6-0.8,0.8-1.2s0.3-1,0.3-1.5c0-0.7-0.1-1.4-0.3-2s-0.4-1.1-0.8-1.6s-0.7-0.8-1.2-1
					S59.8,23.5,59.3,23.5z"/>
			</g>
		</g>
	</g>
</g>
</svg>
