<?xml version="1.0" encoding="utf-8"?>
<!-- Generator: Adobe Illustrator 19.2.1, SVG Export Plug-In . SVG Version: 6.00 Build 0)  -->
<svg version="1.1" xmlns="http://www.w3.org/2000/svg" xmlns:xlink="http://www.w3.org/1999/xlink" x="0px" y="0px"
	 viewBox="0 0 744 452" enable-background="new 0 0 744 452" xml:space="preserve">
<g id="MFA_with_mobile_problem">
	<g>
		<path fill="#969696" d="M228.3,409.7c0,4.3-3.7,7.7-8,7.7h-35c-4.3,0-8-3.3-8-7.7V285.8c0-4.3,3.7-8,8-8h35c4.3,0,8,3.7,8,8V409.7
			z"/>
		<rect x="180.9" y="304.1" fill="#505050" width="43.7" height="38.3"/>
		
			<rect x="180.9" y="304.1" opacity="0" fill="none" stroke="#FFFFFF" stroke-width="0.3333" stroke-linecap="round" stroke-linejoin="round" stroke-miterlimit="10" width="43.7" height="38.3"/>
		<rect x="185.9" y="275.1" fill="#969696" width="33.7" height="5.7"/>
		
			<rect x="185.9" y="275.1" opacity="0" fill="none" stroke="#FFFFFF" stroke-width="0.3333" stroke-linecap="round" stroke-linejoin="round" stroke-miterlimit="10" width="33.7" height="5.7"/>
		<path fill="#6DC2E9" d="M224,232.5v-7.3c0-1.7-1.3-3-3-3h-36.4c-1.7,0-3,1.3-3,3v7.3c0,1.7,1.3,3,3,3v10c-1.7,0-3,1.3-3,3v0.3
			c0,1.3,1.3,3,3,3v9.7c-1.7,0-3,1.3-3,3v7.7c0,1.7,1.3,3,3,3H221c1.7,0,3-1.3,3-3v-7.7c0-1.7-1.3-3-3-3v-9.7c1.7,0,3-1.7,3-3v-0.3
			c0-1.7-1.3-3-3-3v-10C222.6,235.5,224,234.1,224,232.5"/>
		<line fill="none" stroke="#505150" stroke-width="1.9999" stroke-miterlimit="1" x1="177.3" y1="288.8" x2="228.3" y2="288.8"/>
		<polygon fill="#6DC2E9" points="214,319.4 213,319.4 211,311.1 215.6,311.1 		"/>
		
			<polygon opacity="0" fill="none" stroke="#FFFFFF" stroke-width="0.3333" stroke-linecap="round" stroke-linejoin="round" stroke-miterlimit="1" points="
			214,319.4 213,319.4 211,311.1 215.6,311.1 		"/>
		<rect x="211" y="319.4" fill="#969696" width="4.7" height="2"/>
		
			<rect x="211" y="319.4" opacity="0" fill="none" stroke="#FFFFFF" stroke-width="0.3333" stroke-linecap="round" stroke-linejoin="round" stroke-miterlimit="1" width="4.7" height="2"/>
		<polygon fill="#969696" points="213,323.7 212.3,320.7 214.3,320.7 213.6,323.7 		"/>
		
			<polygon opacity="0" fill="none" stroke="#FFFFFF" stroke-width="0.3333" stroke-linecap="round" stroke-linejoin="round" stroke-miterlimit="1" points="
			213,323.7 212.3,320.7 214.3,320.7 213.6,323.7 		"/>
		<polygon fill="#E81123" points="191.9,319.4 190.9,319.4 188.9,311.1 193.6,311.1 		"/>
		
			<polygon opacity="0" fill="none" stroke="#FFFFFF" stroke-width="0.3333" stroke-linecap="round" stroke-linejoin="round" stroke-miterlimit="1" points="
			191.9,319.4 190.9,319.4 188.9,311.1 193.6,311.1 		"/>
		<rect x="188.9" y="319.4" fill="#969696" width="4.7" height="2"/>
		
			<rect x="188.9" y="319.4" opacity="0" fill="none" stroke="#FFFFFF" stroke-width="0.3333" stroke-linecap="round" stroke-linejoin="round" stroke-miterlimit="1" width="4.7" height="2"/>
		<polygon fill="#969696" points="191.3,323.7 190.3,320.7 192.3,320.7 191.6,323.7 		"/>
		
			<polygon opacity="0" fill="none" stroke="#FFFFFF" stroke-width="0.3333" stroke-linecap="round" stroke-linejoin="round" stroke-miterlimit="1" points="
			191.3,323.7 190.3,320.7 192.3,320.7 191.6,323.7 		"/>
		<path fill="#969696" d="M222.6,335.1h-39.7c-0.7,0-1.3,0.7-1.3,1.3v2v2v1.3h1.3h39.7h1.3v-1.3v-2v-2
			C224,335.7,223.6,335.1,222.6,335.1"/>
		<rect x="177.3" y="400.7" fill="#969696" width="51" height="16.7"/>
		
			<rect x="177.3" y="400.7" opacity="0" fill="none" stroke="#FFFFFF" stroke-width="0.3333" stroke-linecap="round" stroke-linejoin="round" stroke-miterlimit="1" width="51" height="16.7"/>
	</g>
	<g>
		<rect x="356.6" y="317.3" fill="#00B193" width="77.4" height="7.6"/>
		<rect x="406.7" y="317.3" opacity="0.15" width="27.2" height="7.6"/>
	</g>
	<path opacity="0.1" d="M575.5,415.1c-0.4,0-0.8,0.1-1.3,0.1v-0.1l-321.5,0v0.1c-5.2,0.5-9.2,4-9.2,8.4c0,4.7,4.7,8.4,10.4,8.4
		c0.7,0,320.7,0,321.5,0c5.8,0,10.5-3.8,10.5-8.4C586,418.9,581.3,415.1,575.5,415.1"/>
	<g>
		<polygon fill="#672A7A" points="289.7,324.9 289.7,337.8 489.4,337.8 489.4,428.5 500.6,428.5 500.6,337.8 546.1,337.8 
			546.1,428.5 557.4,428.5 557.4,337.8 557.4,336.7 557.4,324.9 		"/>
		<polygon opacity="0.1" points="495,324.9 495,336.5 495,337.8 495,428.5 500.6,428.5 500.6,337.8 551.8,337.8 551.8,428.5 
			557.4,428.5 557.4,337.8 557.4,336.5 557.4,324.9 		"/>
	</g>
	<g>
		<path fill="#00685B" d="M343.8,243.3l0,65.4c0,0,0,4.7,4.7,4.7l82.4,0c0,0,4.7,0,4.7-4.7v-65.4c0,0,0-4.7-4.7-4.7l-82.4,0
			C348.4,238.6,343.8,238.6,343.8,243.3z"/>
		<path fill="#00B193" d="M337.4,243.3v65.4c0,0,0,4.7,4.7,4.7l84.1,0c0,0,4.7,0,4.7-4.7l0-65.4c0,0,0-4.7-4.7-4.7l-84.1,0
			C342.1,238.6,337.4,238.6,337.4,243.3z"/>
		<rect x="342.1" y="243.3" fill="#00685B" width="84.1" height="56"/>
		<path opacity="0.15" d="M342.1,313.4l84.1,0c0,0,4.7,0,4.7-4.7V304l-93.4-56v60.7C337.4,308.7,337.4,313.4,342.1,313.4z"/>
	</g>
	<polygon fill="#00B193" points="543.2,310.2 543.2,254.1 446.6,254.1 446.6,310.2 492.3,313.4 490.4,323.1 478.5,323.1 
		478.5,324.9 511.4,324.9 511.4,323.1 499.4,323.1 497.5,313.4 	"/>
	<polygon opacity="0.15" points="543.2,310.2 543.2,254.1 446.6,254.1 446.6,310.2 492.3,313.4 490.4,323.1 478.5,323.1 
		478.5,324.9 511.4,324.9 511.4,323.1 499.4,323.1 497.5,313.4 	"/>
	<g>
		<path fill="#00685B" d="M452.3,243.3l0,65.4c0,0,0,4.7,4.7,4.7h82.4c0,0,4.7,0,4.7-4.7v-65.4c0,0,0-4.7-4.7-4.7l-82.4,0
			C457,238.6,452.3,238.6,452.3,243.3z"/>
		<path fill="#00B193" d="M446,243.3v65.4c0,0,0,4.7,4.7,4.7h84.1c0,0,4.7,0,4.7-4.7v-65.4c0,0,0-4.7-4.7-4.7l-84.1,0
			C450.6,238.6,446,238.6,446,243.3z"/>
		<rect x="450.6" y="243.3" fill="#00685B" width="84.1" height="56"/>
		<path opacity="0.15" d="M450.6,313.4h84.1c0,0,4.7,0,4.7-4.7V304L446,248v60.7C446,308.7,446,313.4,450.6,313.4z"/>
	</g>
	<g opacity="0.15">
		<rect x="356.6" y="300.1" transform="matrix(0.487 -0.8734 0.8734 0.487 -81.7381 473.1166)" width="10.6" height="12.1"/>
	</g>
	<rect x="294.6" y="258.7" fill="#17244E" width="65.1" height="95.2"/>
	<polygon opacity="0.1" points="359.7,342.7 359.7,318.1 294.6,266.6 294.6,342.7 	"/>
	<path fill="#FDB813" d="M337.6,242.1l-4.9-1.7l-1.6,4.1h-8.8v14.4h10.5v-8.2C333,247.8,333.8,243.2,337.6,242.1z"/>
	<path d="M336.9,233.1c0.1,0.6-0.4,1.1-1,1.2c-0.6,0.1-1.1-0.4-1.2-1c-0.1-0.6,0.4-1.1,1-1.2C336.4,232.1,336.9,232.5,336.9,233.1"
		/>
	<polygon fill="#FDB813" points="342.9,228.6 350.4,240.8 340.1,244.3 	"/>
	<path fill="#FDB813" d="M314.5,220.4l1.7,19.4l0.1,0.1c2.1,14.4,14.4,17.7,29.1,16.5l-0.1-1.3l-0.9-11l-1.2-13.8l-1-12.1
		L314.5,220.4z"/>
	<polygon fill="#17244E" points="360,425.1 347.9,412.9 331.8,412.9 331.8,428.8 360,428.8 	"/>
	<polygon fill="#00B193" points="368.2,412.9 368.2,345.4 384.1,345.4 384.1,412.9 368.2,412.9 	"/>
	<polygon fill="#00B193" points="331.8,412.9 331.8,342.6 347.7,342.6 347.7,412.9 331.8,412.9 	"/>
	<polygon fill="#00B193" points="384.1,358.5 315.1,358.5 315.1,342.7 384.1,342.7 384.1,358.5 	"/>
	<path fill="#FDB813" d="M369.3,316.4c0.1,0,0.1,0.1,0.2,0.1c2.5,1.5,5.8,0.7,7.3-1.8c1.5-2.5,0.6-5.8-1.9-7.3
		c-0.1,0-0.1-0.1-0.2-0.1l0,0l-4.7-2.8l-5.4,9.1L369.3,316.4L369.3,316.4z"/>
	<polygon fill="#17244E" points="396.4,425.1 384.3,412.9 368.2,412.9 368.2,428.8 396.4,428.8 	"/>
	<path fill="#17244E" d="M323.4,229l-0.4-0.3l3.4-1.9l2.4-1l0.2,2.1c6.6-2.7,7.7-6.9,7.7-6.9l-0.5,3.4c4.3-1.8,5.7-3.8,6.1-5.4
		l2.6,1c0.4-2.9-1.5-4.1-2.5-4.6l3.4-2.5c-4.4-6.2-10.9-3.2-10.9-3.2l2.9-5c-8.5-1.5-12.8,6.1-12.8,6.1l1.9-6.4
		c-11.6,2.3-12.4,13.1-12.4,13.1l-0.3,0c-6.7,5.5,3.5,28.3,3.5,28.3C324.6,240.4,323.4,229,323.4,229z"/>
	<path fill="#FDB813" d="M326.4,226.7c-3.4,0.3-5.9,3.3-5.6,6.7c0.3,3.4,3.3,5.9,6.7,5.6L326.4,226.7z"/>
	<path opacity="0.15" d="M326.7,229.8c-1.7,0.1-3,1.6-2.8,3.4c0.1,1.7,1.6,3,3.3,2.8L326.7,229.8z"/>
	<g>
		
			<rect x="356.6" y="300.1" transform="matrix(0.487 -0.8734 0.8734 0.487 -81.7381 473.1166)" fill="#17244E" width="10.6" height="12.1"/>
	</g>
	<g>
		<g>
			<path fill="#00B193" d="M400,273.5c-0.1,0.7,0.4,1.1,0.9,1.2l12,1.2c0.7,0.1,1.2-0.3,1.3-0.9l2.4-23.5c0.1-0.7-0.4-1.2-1.1-1.3
				l-12-1.2c-0.5-0.1-1.1,0.4-1.2,1.1L400,273.5z"/>
			
				<rect x="399.1" y="256.1" transform="matrix(0.1003 -0.995 0.995 0.1003 106.2801 642.3884)" fill="#17244E" width="18.5" height="12.7"/>
			
				<rect x="399.1" y="256.1" transform="matrix(0.1003 -0.995 0.995 0.1003 106.2802 642.3884)" opacity="0" fill="none" stroke="#FFFFFF" stroke-width="0.1324" stroke-linecap="round" stroke-linejoin="round" stroke-miterlimit="10" width="18.5" height="12.7"/>
			<path d="M405.5,250.9c0,0.1,0.1,0.1,0.3,0.2l7.4,0.7c0.1,0,0.3,0,0.3-0.1c0-0.1-0.1-0.3-0.2-0.3l-7.4-0.7
				C405.7,250.6,405.5,250.7,405.5,250.9"/>
			<path d="M412.1,274c0,0.3,0.2,0.4,0.4,0.4l0.7,0.1c0.3,0,0.4-0.1,0.4-0.4c0-0.1-0.1-0.4-0.4-0.4l-0.7-0.1
				C412.4,273.6,412.1,273.8,412.1,274"/>
			<path d="M400.9,272.8c0,0.3,0.1,0.4,0.4,0.4l0.7,0.1c0.1,0,0.4-0.1,0.4-0.4c0-0.1-0.2-0.4-0.4-0.4l-0.7-0.1
				C401.1,272.5,400.9,272.7,400.9,272.8"/>
			<path d="M405.7,273.3c-0.1,0.5,0.3,1,0.7,1l1.5,0.1c0.5,0.1,0.8-0.3,0.9-0.8c0-0.4-0.2-0.8-0.7-0.9l-1.5-0.1
				C406.1,272.6,405.7,272.9,405.7,273.3"/>
			<path display="none" d="M406.8,259.9c0-0.1,0.1-0.1,0.1-0.2c0.1,0,0.1-0.1,0.2-0.1c0.1,0,0.1,0,0.2,0l0.7,0.3c0.1,0,0.1,0,0.2,0
				c0.1,0,0.2,0,0.2-0.1c0.1,0,0.1-0.1,0.2-0.2l1.1-2.5c0-0.1,0-0.1,0-0.2c0-0.1,0-0.2-0.1-0.3c0-0.1-0.1-0.1-0.2-0.2l-0.7-0.3
				c-0.1,0-0.1-0.1-0.2-0.2c0-0.1-0.1-0.1-0.1-0.2c0-0.1,0-0.1,0-0.2l0.7-1.5c0-0.1,0.1-0.1,0.1-0.2s0.1-0.1,0.2-0.1
				c0.1,0,0.1,0,0.2,0l0.3,0.2c0.2,0.1,0.4,0.2,0.5,0.4c0.2,0.1,0.3,0.3,0.4,0.5c0.1,0.2,0.2,0.4,0.2,0.6s0.1,0.5,0.1,0.7
				c0,0.2,0,0.4,0,0.6c0,0.2-0.1,0.4-0.1,0.6c0,0.1,0,0.2-0.1,0.4c0,0.1-0.1,0.3-0.1,0.5c-0.1,0.2-0.2,0.4-0.3,0.6
				c-0.1,0.2-0.2,0.5-0.3,0.7c-0.1,0.2-0.2,0.4-0.3,0.5c-0.1,0.2-0.2,0.3-0.3,0.5c-0.1,0.2-0.3,0.5-0.5,0.6
				c-0.2,0.2-0.4,0.4-0.6,0.5c-0.2,0.1-0.4,0.2-0.6,0.3c-0.2,0.1-0.4,0.1-0.7,0.1c-0.1,0-0.3,0-0.4,0c-0.1,0-0.3-0.1-0.4-0.1
				l-0.3-0.2c-0.1,0-0.1-0.1-0.2-0.2c0-0.1-0.1-0.1-0.1-0.2c0-0.1,0-0.1,0-0.2L406.8,259.9z"/>
			<g display="none">
				<path display="inline" fill="#FFFFFF" d="M405.1,258.9l7.3,0.7l-0.7,7.3l-7.3-0.7L405.1,258.9 M404.2,257.8l-1,9.3l9.3,0.9
					l0.9-9.3L404.2,257.8L404.2,257.8z"/>
			</g>
		</g>
		<path fill="#17234E" d="M413.8,284.8c1.8-2.4,3.8-5.5,4.5-7l-3.4-3.5l-5.5-2.2c-0.2,0.3-12.8,15.9-20.4,16.3
			c-8.8,0.4-24.1-11-29.6-23l-7.4,17.9c10.3,10.8,19.2,15.4,27.1,17c6.1,1.3,15.3,2.6,23-3.7C408.8,291.2,412.3,286.7,413.8,284.8z"
			/>
		<path fill="#FDB813" d="M420.7,273.8c0-0.1,0.1-0.1,0.1-0.2c1.5-2.6,0.7-6-1.9-7.5c-2.6-1.5-5.9-0.6-7.5,2c0,0.1-0.1,0.1-0.1,0.2
			l0,0l-2.9,4.9l9.4,5.5L420.7,273.8L420.7,273.8z"/>
	</g>
	<g>
		<rect x="288.7" y="279.6" fill="#672A7A" width="64.5" height="88.9"/>
		<rect x="288.7" y="359.5" fill="#672A7A" width="11.3" height="69.2"/>
		<rect x="341.9" y="359.5" fill="#672A7A" width="11.3" height="69.2"/>
		<rect x="314.1" y="359.5" fill="#672A7A" width="11.3" height="69.2"/>
		<rect x="367.3" y="359.5" fill="#672A7A" width="11.3" height="69.2"/>
		<rect x="334.5" y="358.2" fill="#672A7A" width="44.1" height="10.3"/>
		<rect x="347.5" y="279.6" opacity="0.15" width="5.6" height="149.1"/>
		<rect x="367.3" y="368.5" opacity="0.15" width="5.6" height="60.2"/>
		<polygon opacity="0.1" points="347.5,342.6 288.7,304.4 288.7,368.5 294.3,368.5 294.3,428.8 300,428.8 300,368.5 314.1,368.5 
			314.1,428.8 319.8,428.8 319.8,368.5 347.5,368.5 		"/>
	</g>
	<path fill="none" stroke="#17244E" stroke-width="0.6266" stroke-miterlimit="10" d="M339,233.2c0,0-0.4-1.1-2.2-0.7
		c-1.8,0.4-1.8,2-1.8,2"/>
</g>
<g id="desktop_management_problem">
</g>
</svg>
