<?xml version="1.0" encoding="utf-8"?>
<!-- Generator: Adobe Illustrator 19.2.1, SVG Export Plug-In . SVG Version: 6.00 Build 0)  -->
<svg version="1.1" xmlns="http://www.w3.org/2000/svg" xmlns:xlink="http://www.w3.org/1999/xlink" x="0px" y="0px"
	 viewBox="0 0 308 211" enable-background="new 0 0 308 211" xml:space="preserve">
<g id="MFA_with_mobile_problem">
	<g>
		<g>
			<path fill="#E6E6E6" d="M195.1,54.3c-4-13.4-18.5-23.3-35.9-23.3c-0.1,0-0.2,0-0.3,0v0c0-16.9-16.4-30.6-36.7-30.6
				c-14,0-26.2,6.5-32.4,16.1c-3.6-1.1-7.5-1.7-11.6-1.7c-19,0-34.5,12.9-34.5,28.7c0,0.1,0,0.2,0,0.3c-1.5-0.1-3.1-0.3-4.7-0.3
				c-21.6,0-39.2,14.6-39.2,32.6c0,18,17.5,32.6,39.2,32.6l143.4,0l0,0c18.7,0,33.9-12.7,33.9-28.3
				C216.4,68.7,207.6,58.5,195.1,54.3"/>
			<path fill="#E6E6E6" d="M195.1,151.8c-4,13.4-18.5,23.3-35.9,23.3c-0.1,0-0.2,0-0.3,0v0c0,16.9-16.4,30.6-36.7,30.6
				c-14,0-26.2-6.5-32.4-16.1c-3.6,1.1-7.5,1.7-11.6,1.7c-19,0-34.5-12.9-34.5-28.7c0-0.1,0-0.2,0-0.3c-1.5,0.1-3.1,0.3-4.7,0.3
				c-21.6,0-39.2-14.6-39.2-32.6c0-18,17.5-32.6,39.2-32.6l143.4,0l0,0c18.7,0,33.9,12.7,33.9,28.3
				C216.4,137.5,207.6,147.6,195.1,151.8"/>
			<path fill="#E6E6E6" d="M112.9,54.3c4-13.4,18.5-23.3,35.9-23.3c0.1,0,0.2,0,0.3,0v0c0-16.9,16.4-30.6,36.7-30.6
				c14,0,26.2,6.5,32.4,16.1c3.6-1.1,7.5-1.7,11.6-1.7c19,0,34.5,12.9,34.5,28.7c0,0.1,0,0.2,0,0.3c1.5-0.1,3.1-0.3,4.7-0.3
				c21.6,0,39.2,14.6,39.2,32.6c0,18-17.5,32.6-39.2,32.6l-143.4,0l0,0c-18.7,0-33.9-12.7-33.9-28.3
				C91.6,68.7,100.4,58.5,112.9,54.3"/>
			<path fill="#E6E6E6" d="M112.9,151.8c4,13.4,18.5,23.3,35.9,23.3c0.1,0,0.2,0,0.3,0v0c0,16.9,16.4,30.6,36.7,30.6
				c14,0,26.2-6.5,32.4-16.1c3.6,1.1,7.5,1.7,11.6,1.7c19,0,34.5-12.9,34.5-28.7c0-0.1,0-0.2,0-0.3c1.5,0.1,3.1,0.3,4.7,0.3
				c21.6,0,39.2-14.6,39.2-32.6c0-18-17.5-32.6-39.2-32.6l-143.4,0l0,0c-18.7,0-33.9,12.7-33.9,28.3
				C91.6,137.5,100.4,147.6,112.9,151.8"/>
		</g>
		<circle fill="#E6E6E6" cx="30.7" cy="179.6" r="7.5"/>
		<circle fill="#E6E6E6" cx="18" cy="197" r="5.3"/>
		<circle fill="#E6E6E6" cx="5.6" cy="206.9" r="3.7"/>
		<g>
			<path fill="#2F2F2F" d="M135.1,105v4.3h-0.8V105l-3.4-7h0.9l2.6,5.4c0.1,0.2,0.2,0.5,0.4,0.8h0c0.1-0.2,0.2-0.5,0.4-0.8l2.7-5.4
				h0.8L135.1,105z"/>
			<path fill="#2F2F2F" d="M143.1,109.4c-1,0-1.8-0.5-2.4-1.4c-0.6-0.9-0.9-2.3-0.9-4.1c0-2,0.3-3.5,0.9-4.5c0.6-1,1.5-1.5,2.6-1.5
				c2.2,0,3.2,1.9,3.2,5.7c0,1.9-0.3,3.4-0.9,4.4C145.1,108.9,144.2,109.4,143.1,109.4z M143.3,98.5c-0.9,0-1.5,0.4-2,1.3
				c-0.5,0.9-0.7,2.2-0.7,4c0,1.6,0.2,2.8,0.7,3.7c0.5,0.9,1.1,1.3,2,1.3c0.8,0,1.5-0.4,1.9-1.3c0.5-0.9,0.7-2.1,0.7-3.8
				C145.9,100.2,145,98.5,143.3,98.5z"/>
			<path fill="#2F2F2F" d="M154.3,109.2v-1.5h0c-0.3,0.5-0.6,0.9-1.2,1.2s-1.1,0.4-1.7,0.4c-1,0-1.8-0.4-2.4-1.1s-0.9-1.7-0.9-3
				c0-1.3,0.3-2.3,1-3.1c0.7-0.8,1.6-1.2,2.6-1.2c1.2,0,2.1,0.5,2.6,1.5h0v-5.1h0.7v11.8H154.3z M154.3,104.4c0-0.7-0.2-1.4-0.7-1.9
				c-0.5-0.5-1.1-0.8-1.9-0.8c-0.8,0-1.5,0.3-2.1,1c-0.5,0.6-0.8,1.5-0.8,2.7c0,1.1,0.2,2,0.7,2.6s1.1,0.9,1.9,0.9
				c0.9,0,1.6-0.3,2.1-0.8c0.5-0.6,0.8-1.3,0.8-2.1V104.4z"/>
			<path fill="#2F2F2F" d="M162.4,109.2v-1.6h0c-0.3,0.5-0.6,1-1.1,1.3s-1,0.5-1.6,0.5c-0.8,0-1.4-0.2-1.8-0.6
				c-0.4-0.4-0.7-1-0.7-1.6c0-1.4,0.9-2.2,2.8-2.5l2.5-0.4c0-1.7-0.6-2.6-1.9-2.6c-0.9,0-1.7,0.4-2.6,1.1v-0.9
				c0.3-0.2,0.7-0.4,1.2-0.6c0.5-0.2,1-0.3,1.4-0.3c0.8,0,1.5,0.3,1.9,0.8c0.5,0.5,0.7,1.3,0.7,2.2v5.2H162.4z M160.2,105.2
				c-0.8,0.1-1.4,0.3-1.8,0.6c-0.3,0.3-0.5,0.7-0.5,1.3c0,0.5,0.2,0.9,0.5,1.2c0.3,0.3,0.8,0.5,1.3,0.5c0.8,0,1.4-0.3,1.9-0.9
				s0.8-1.3,0.8-2.2v-0.8L160.2,105.2z"/>
			<path fill="#2F2F2F" d="M165,106.1c0-0.3,0-0.6,0.1-0.9s0.2-0.6,0.4-0.8c0.2-0.3,0.4-0.5,0.7-0.7s0.6-0.4,0.9-0.5
				c-0.3-0.1-0.5-0.3-0.7-0.5c-0.2-0.2-0.4-0.4-0.5-0.6c-0.2-0.2-0.3-0.5-0.3-0.7c-0.1-0.3-0.1-0.5-0.1-0.8c0-0.4,0.1-0.8,0.2-1.1
				c0.1-0.3,0.4-0.7,0.6-0.9c0.3-0.3,0.6-0.5,0.9-0.6c0.4-0.1,0.7-0.2,1.2-0.2c0.4,0,0.8,0.1,1.2,0.2c0.4,0.1,0.7,0.3,0.9,0.6
				c0.3,0.3,0.5,0.6,0.6,0.9c0.1,0.3,0.2,0.7,0.2,1.1c0,0.3,0,0.5-0.1,0.8s-0.2,0.5-0.3,0.7s-0.3,0.4-0.5,0.6
				c-0.2,0.2-0.4,0.3-0.7,0.4c0.3,0.1,0.6,0.3,0.9,0.5s0.5,0.4,0.6,0.7c0.2,0.3,0.3,0.5,0.4,0.8s0.1,0.6,0.1,0.9
				c0,0.5-0.1,1-0.2,1.4c-0.2,0.4-0.4,0.8-0.7,1c-0.3,0.3-0.6,0.5-1,0.6s-0.9,0.2-1.3,0.2c-0.5,0-0.9-0.1-1.3-0.2s-0.7-0.4-1-0.6
				s-0.5-0.6-0.7-1C165.1,107.1,165,106.6,165,106.1z M165.8,106.2c0,0.4,0.1,0.7,0.2,1.1c0.1,0.3,0.3,0.6,0.5,0.8s0.5,0.4,0.8,0.5
				c0.3,0.1,0.7,0.2,1,0.2c0.4,0,0.7-0.1,1-0.2c0.3-0.1,0.6-0.3,0.8-0.5s0.4-0.5,0.5-0.8c0.1-0.3,0.2-0.7,0.2-1.1
				c0-0.3-0.1-0.7-0.2-1s-0.3-0.6-0.5-0.8s-0.5-0.4-0.8-0.6c-0.3-0.1-0.7-0.2-1.1-0.2c-0.4,0-0.7,0.1-1,0.2
				c-0.3,0.1-0.6,0.3-0.8,0.5s-0.4,0.5-0.5,0.8C165.9,105.5,165.8,105.8,165.8,106.2z M166.2,100.7c0,0.3,0.1,0.6,0.2,0.9
				c0.1,0.3,0.3,0.5,0.5,0.7c0.2,0.2,0.4,0.4,0.7,0.5c0.3,0.1,0.5,0.2,0.8,0.2s0.6-0.1,0.8-0.2c0.3-0.1,0.5-0.3,0.7-0.5
				c0.2-0.2,0.4-0.4,0.5-0.7c0.1-0.3,0.2-0.6,0.2-0.9c0-0.3-0.1-0.6-0.2-0.9c-0.1-0.3-0.3-0.5-0.5-0.7c-0.2-0.2-0.4-0.4-0.7-0.5
				c-0.3-0.1-0.5-0.2-0.9-0.2c-0.3,0-0.6,0.1-0.9,0.2s-0.5,0.3-0.7,0.5c-0.2,0.2-0.3,0.4-0.4,0.7
				C166.2,100.1,166.2,100.4,166.2,100.7z"/>
			<path fill="#2F2F2F" d="M176.5,109.4c-1,0-1.8-0.5-2.4-1.4c-0.6-0.9-0.9-2.3-0.9-4.1c0-2,0.3-3.5,0.9-4.5c0.6-1,1.5-1.5,2.6-1.5
				c2.2,0,3.2,1.9,3.2,5.7c0,1.9-0.3,3.4-0.9,4.4C178.4,108.9,177.6,109.4,176.5,109.4z M176.7,98.5c-0.9,0-1.5,0.4-2,1.3
				c-0.5,0.9-0.7,2.2-0.7,4c0,1.6,0.2,2.8,0.7,3.7c0.5,0.9,1.1,1.3,2,1.3c0.8,0,1.5-0.4,1.9-1.3c0.5-0.9,0.7-2.1,0.7-3.8
				C179.2,100.2,178.4,98.5,176.7,98.5z"/>
		</g>
	</g>
</g>
<g id="desktop_management_problem">
</g>
</svg>
