<?xml version="1.0" encoding="utf-8"?>
<!-- Generator: Adobe Illustrator 19.2.1, SVG Export Plug-In . SVG Version: 6.00 Build 0)  -->
<svg version="1.1" xmlns="http://www.w3.org/2000/svg" xmlns:xlink="http://www.w3.org/1999/xlink" x="0px" y="0px"
	 viewBox="0 0 60 209" enable-background="new 0 0 60 209" xml:space="preserve">
<g id="desktop_management">
</g>
<g id="corporate_mobile">
</g>
<g id="kiosk">
</g>
<g id="conditional_access">
	<g>
		<g>
			<path fill="#BADB0A" d="M30.3,91.4c-5,4.5-8.4,10.6-8.4,17.3s3.4,12.8,8.4,17.8v0c4.5-5,7.8-11.1,7.8-17.8
				C38.1,102,34.7,95.9,30.3,91.4L30.3,91.4z"/>
			<path fill="#BADB0A" d="M30.3,64.7L30.3,64.7c4.5-5,7.8-11.1,7.8-17.8S34.7,34,30.3,29.5v0c-5,4.5-8.4,10.6-8.4,17.3
				C21.9,53.5,25.3,59.6,30.3,64.7z"/>
			<path fill="#BADB0A" d="M51.5,64.7L51.5,64.7c5-5,7.8-11.1,7.8-17.8S56.5,34,51.5,29.5v0c-5,4.5-7.8,10.6-7.8,17.3
				C43.7,53.5,46.5,59.6,51.5,64.7z"/>
			<path fill="#BADB0A" d="M19.1,35.1L19.1,35.1c5-4.5,7.8-10.6,7.8-17.3S24.1,5,19.1,0v0c-5,5-7.8,11.1-7.8,17.8
				S14.1,30.7,19.1,35.1z"/>
			<path fill="#BADB0A" d="M40.9,35.1L40.9,35.1c5-4.5,7.8-10.6,7.8-17.3c0-6.7-2.8-12.8-7.8-17.8v0c-5,5-7.8,11.1-7.8,17.8
				S35.9,30.7,40.9,35.1z"/>
			<path fill="#BADB0A" d="M8.5,91.4L8.5,91.4c-5,4.5-7.8,10.6-7.8,17.3s2.8,12.8,7.8,17.8v0c5-5,7.8-11.1,7.8-17.8
				C16.3,102,13.5,95.9,8.5,91.4z"/>
			<path fill="#BADB0A" d="M51.5,91.4L51.5,91.4c-5,4.5-7.8,10.6-7.8,17.3s2.8,12.8,7.8,17.8v0c5-5,7.8-11.1,7.8-17.8
				C59.3,102,56.5,95.9,51.5,91.4z"/>
			<path fill="#BADB0A" d="M19.1,61.9L19.1,61.9c-5,5-7.8,11.1-7.8,17.8s2.8,12.8,7.8,17.3v0c5-4.5,7.8-10.6,7.8-17.3
				C26.9,73,24.1,66.9,19.1,61.9z"/>
			<path fill="#BADB0A" d="M40.9,61.9L40.9,61.9c-5,5-7.8,11.1-7.8,17.8s2.8,12.8,7.8,17.3v0c5-4.5,7.8-10.6,7.8-17.3
				C48.7,73,45.9,66.9,40.9,61.9z"/>
			<path fill="#BADB0A" d="M8.5,64.7c5-5,7.8-11.1,7.8-17.8S13.5,34,8.5,29.5v0c-5,4.5-7.8,10.6-7.8,17.3
				C0.7,53.5,3.5,59.6,8.5,64.7L8.5,64.7z"/>
		</g>
		<g opacity="0.1">
			<path d="M30.3,126.5c4.5-5,7.8-11.1,7.8-17.8c0-6.7-3.4-12.8-7.8-17.3V126.5z"/>
			<path d="M8.5,126.5c5-5,7.8-11.1,7.8-17.8s-2.8-12.8-7.8-17.3V126.5z"/>
			<path d="M51.5,126.5c5-5,7.8-11.1,7.8-17.8c0-6.7-2.8-12.8-7.8-17.3V126.5z"/>
			<path d="M19.1,97c5-4.5,7.8-10.6,7.8-17.3c0-6.7-2.8-12.8-7.8-17.8V97z"/>
			<path d="M40.9,97c5-4.5,7.8-10.6,7.8-17.3s-2.8-12.8-7.8-17.8V97z"/>
			<path d="M30.3,64.7c4.5-5,7.8-11.1,7.8-17.8c0-6.7-3.4-12.8-7.8-17.3V64.7z"/>
			<path d="M8.5,64.7c5-5,7.8-11.1,7.8-17.8c0-6.7-2.8-12.8-7.8-17.3V64.7z"/>
			<path d="M51.5,64.7c5-5,7.8-11.1,7.8-17.8c0-6.7-2.8-12.8-7.8-17.3V64.7z"/>
			<path d="M19.1,35.1c5-4.5,7.8-10.6,7.8-17.3c0-6.7-2.8-12.8-7.8-17.8V35.1z"/>
			<path d="M40.9,35.1c5-4.5,7.8-10.6,7.8-17.3c0-6.7-2.8-12.8-7.8-17.8V35.1z"/>
		</g>
		<path fill="#002050" d="M0.1,188.9V209h59.7v-20.1c-5.6-3.3-9.5-9.5-9.5-16.2c0-7.2,3.9-13.4,9.5-16.7v-23.4H0.1V156
			c6.1,3.3,10.1,9.5,10.1,16.7C10.2,179.5,6.3,186.1,0.1,188.9"/>
	</g>
</g>
</svg>
