<?xml version="1.0" encoding="utf-8"?>
<!-- Generator: Adobe Illustrator 19.2.1, SVG Export Plug-In . SVG Version: 6.00 Build 0)  -->
<svg version="1.1" xmlns="http://www.w3.org/2000/svg" xmlns:xlink="http://www.w3.org/1999/xlink" x="0px" y="0px"
	 viewBox="0 0 744 452" enable-background="new 0 0 744 452" xml:space="preserve">
<g id="desktop_management">
	<g>
		<g>
			<rect x="349.7" y="303.5" fill="#1EBBEE" width="66.3" height="7.9"/>
			<rect x="387.9" y="303.5" opacity="0.15" width="28.1" height="7.9"/>
		</g>
		<path opacity="0.1" d="M503.4,404.5c-0.5,0-0.9,0.1-1.3,0.1v-0.1l-262.7,0v0.1c-5.3,0.5-9.5,4.2-9.5,8.6c0,4.8,4.8,8.7,10.8,8.7
			c0.8,0,262,0,262.7,0c6,0,10.8-3.9,10.8-8.7C514.1,408.4,509.3,404.5,503.4,404.5"/>
		<polygon fill="#0060AC" points="277.5,311.4 277.5,324.7 414.5,324.7 414.5,418.3 426.1,418.3 426.1,324.7 473,324.7 473,418.3 
			484.7,418.3 484.7,324.7 484.7,323.6 484.7,311.4 		"/>
		<polygon opacity="0.1" points="420.3,311.4 420.3,323.3 420.3,324.7 420.3,418.3 426.1,418.3 426.1,324.7 478.9,324.7 
			478.9,418.3 484.7,418.3 484.7,324.7 484.7,323.3 484.7,311.4 		"/>
		<g>
			<path fill="#0060AC" d="M322.9,227.2v67.4c0,0,0,4.8,4.8,4.8l85,0c0,0,4.8,0,4.8-4.8v-67.4c0,0,0-4.8-4.8-4.8h-85
				C327.7,222.4,322.9,222.4,322.9,227.2z"/>
			<path fill="#1EBBEE" d="M316.3,227.2v67.4c0,0,0,4.8,4.8,4.8l86.7,0c0,0,4.8,0,4.8-4.8v-67.4c0,0,0-4.8-4.8-4.8h-86.7
				C321.2,222.4,316.3,222.4,316.3,227.2z"/>
			<rect x="321.2" y="227.2" fill="#DD5900" width="86.7" height="57.8"/>
			<path fill="#FFFFFF" d="M375.1,239.3c1.2,0,2.1,0.9,2.1,2.1c0,1.2-0.9,2.1-2.1,2.1l-0.5-0.1l-1.9,2.5c1.3,1,2.5,2.3,3.4,3.9
				c-2.3,0.7-5,1.2-8,1.2c-3,0-5.7-0.4-8-1.2c0.9-1.6,2-2.9,3.2-3.8l-2-2.5c-0.1,0-0.2,0-0.4,0c-1.2,0-2.1-0.9-2.1-2.1
				c0-1.2,0.9-2.1,2.1-2.1c1.2,0,2.1,0.9,2.1,2.1c0,0.4-0.1,0.8-0.3,1.1l2,2.6c1-0.5,2.2-0.8,3.3-0.8c1.1,0,2.2,0.2,3.2,0.7l2.1-2.6
				c-0.2-0.3-0.2-0.6-0.2-1C373,240.3,373.9,239.3,375.1,239.3z M381.8,256.8c0.7,0,1.3,0.6,1.3,1.3c0,0.7-0.6,1.3-1.3,1.3H378
				c-0.1,0.9-0.2,1.8-0.4,2.6l4.4,2.1c0.6,0.3,0.9,1,0.6,1.7s-1,0.9-1.7,0.6l-4.1-1.9c-1.5,4.1-4.5,7-8.1,7.4v-19.1
				c3-0.1,5.7-0.6,7.9-1.4l0.2,0.4l4.3-1.6c0.6-0.2,1.4,0.1,1.6,0.7c0.2,0.6-0.1,1.4-0.7,1.6l-4.4,1.7c0.2,0.9,0.3,1.8,0.4,2.8
				H381.8z M354.3,256.8h3.8c0.1-1,0.2-1.9,0.4-2.8l-4.4-1.7c-0.6-0.2-1-1-0.7-1.6c0.2-0.6,1-1,1.6-0.7l4.3,1.6l0.2-0.4
				c2.2,0.8,4.9,1.3,7.9,1.4v19.1c-3.5-0.4-6.5-3.3-8.1-7.4l-4.1,1.9c-0.6,0.3-1.4,0-1.7-0.6c-0.3-0.6,0-1.4,0.6-1.7l4.4-2.1
				c-0.2-0.8-0.3-1.7-0.4-2.6h-3.8c-0.7,0-1.3-0.6-1.3-1.3C353,257.4,353.6,256.8,354.3,256.8z"/>
			<path opacity="0.15" d="M321.2,299.6l86.8,0c0,0,4.8,0,4.8-4.5v-4.5l-96.4-53.9v58.4C316.4,295.1,316.4,299.6,321.2,299.6z"/>
		</g>
		<g opacity="0.15">
			<rect x="346.4" y="285.7" transform="matrix(0.487 -0.8734 0.8734 0.487 -74.5119 457.1462)" width="10.9" height="12.5"/>
		</g>
		<rect x="282.5" y="243.1" fill="#492474" width="67.2" height="98.2"/>
		<polygon opacity="0.1" points="349.7,329.7 349.7,304.4 282.5,251.2 282.5,329.7 		"/>
		<path fill="#FDB813" d="M326.9,225.9l-5-1.8l-1.7,4.2h-14.1v14.8h15.8v-8.5C322.1,231.9,323,227.1,326.9,225.9z"/>
		<polygon fill="#492474" points="350,414.7 337.5,402.2 320.9,402.2 320.9,418.5 350,418.5 		"/>
		<polygon fill="#04AF91" points="358.4,402.2 358.4,332.5 374.8,332.5 374.8,402.2 358.4,402.2 		"/>
		<polygon fill="#04AF91" points="320.9,402.2 320.9,329.6 337.3,329.6 337.3,402.2 320.9,402.2 		"/>
		<polygon fill="#04AF91" points="374.8,346.1 303.7,346.1 303.7,329.7 374.8,329.7 374.8,346.1 		"/>
		<path fill="#FDB813" d="M359.6,302.6c0.1,0,0.1,0.1,0.2,0.1c2.6,1.5,6,0.7,7.5-1.9c1.5-2.6,0.6-5.9-2-7.5c-0.1,0-0.1-0.1-0.2-0.1
			l0,0l-4.9-2.9l-5.5,9.4L359.6,302.6L359.6,302.6z"/>
		<polygon fill="#492474" points="387.5,414.7 375,402.2 358.4,402.2 358.4,418.5 387.5,418.5 		"/>
		<g>
			
				<rect x="346.4" y="285.7" transform="matrix(0.487 -0.8734 0.8734 0.487 -74.5119 457.1462)" fill="#492474" width="10.9" height="12.5"/>
		</g>
		<path fill="#FDB813" d="M329.7,202.6c0,0,5.3,6.7,7.6,15.8l-7.6,1L329.7,202.6z"/>
		<path fill="#FDB813" d="M296.3,196.3l3.1,15.5l0.1,2.1c3.3,17.4,18.8,26.8,36.9,24.4l-0.2-1.6l-1.7-13.4l-2.2-16.8l-1.9-14.7
			L296.3,196.3z"/>
		<path fill="#17244E" d="M324.9,210.9c0.1,0.8-0.4,1.4-1.2,1.5c-0.8,0.1-1.4-0.4-1.5-1.2c-0.1-0.7,0.4-1.4,1.2-1.5
			C324.1,209.6,324.8,210.1,324.9,210.9"/>
		<path fill="#FDB813" d="M407.4,306.1c0.1,0,0.1,0,0.2,0c2.9-0.3,5-2.9,4.7-5.8c-0.3-2.9-3-4.9-5.9-4.6c-0.1,0-0.1,0-0.2,0l0,0
			l-5.5,0.6l1.2,10.4L407.4,306.1L407.4,306.1z"/>
		<g>
			<path fill="#FFF1CC" d="M308.2,230.7c0,0-33.8,21.9-11.9,55.7C296.2,286.3,330,264.4,308.2,230.7z"/>
			<path fill="#FFF1CC" d="M334.7,188.8c-1.3-11-16.6-17.3-24.9-11c-2.6,2-4.4,2.8-7.7,3.2c-2.7,0.3-4.7,0.9-6.8,2.5
				c-2.1,1.6-3.1,5.9-2.4,9.3c-6.4,3.8-6.9,13.2-6.9,13.2c4.8,41.3,24,27.8,24,27.8c-1.8-2-4.9-10.3-4.9-10.3l-0.2,0
				c2.3-6,2.3-12.7,2-16.7c0.3-0.3,0.5-0.5,0.7-0.8c3.2-3.9,6-3.3,10.8-4.2c5.9-1.1,14.9-6.1,16.2-12.6l0.1,0
				C334.8,189,334.7,188.9,334.7,188.8C334.7,188.8,334.7,188.8,334.7,188.8L334.7,188.8z"/>
		</g>
		<path fill="#FDB813" d="M308,206.5c-4.2,0.6-7.2,4.4-6.6,8.6c0.5,4.2,4.4,7.2,8.6,6.6L308,206.5z"/>
		<path fill="#492474" d="M393.8,306.7c3.3,0.3,7.1,0.2,8.7,0l-0.9-5.5l-0.8-4.9c-0.4,0-8.5,0-18.6-3.1c-5.6-1.8-14.4-7.3-18.6-13.3
			c-5.8-8.2-12.1-21.3-14.9-35.3l-10.5-0.3c-4.4,14.1,9.2,34.1,15.3,42.6c4.8,6.7,10.7,12.6,21.8,16
			C385,306,391.2,306.5,393.8,306.7z"/>
		<path opacity="0.15" d="M308.5,210.3c-2.1,0.3-3.6,2.2-3.3,4.3c0.3,2.1,2.2,3.6,4.3,3.3L308.5,210.3z"/>
		<rect x="276.4" y="264.6" fill="#0060AC" width="66.5" height="91.7"/>
		<rect x="276.4" y="347.1" fill="#0060AC" width="11.6" height="71.4"/>
		<rect x="331.3" y="347.1" fill="#0060AC" width="11.6" height="71.4"/>
		<rect x="302.6" y="347.1" fill="#0060AC" width="11.6" height="71.4"/>
		<rect x="357.5" y="347.1" fill="#0060AC" width="11.6" height="71.4"/>
		<rect x="323.7" y="345.7" fill="#0060AC" width="45.5" height="10.7"/>
		<rect x="337.1" y="264.6" opacity="0.15" width="5.8" height="153.8"/>
		<rect x="357.5" y="356.4" opacity="0.15" width="5.8" height="62.1"/>
		<polygon opacity="0.1" points="337.1,329.6 276.4,290.2 276.4,356.4 282.2,356.4 282.2,418.5 288,418.5 288,356.4 302.6,356.4 
			302.6,418.5 308.4,418.5 308.4,356.4 337.1,356.4 		"/>
		<g>
			<defs>
				<rect id="SVGID_3_" x="427.6" y="289" width="25.9" height="22.4"/>
			</defs>
			<clipPath id="SVGID_2_">
				<use xlink:href="#SVGID_3_"  overflow="visible"/>
			</clipPath>
			<path clip-path="url(#SVGID_2_)" fill="#FFB900" d="M451,301.4c0,1.2-1,2-2.1,2h-3.2v-8.1h3.2c1.2,0,2.1,1,2.1,2.1V301.4z
				 M448.9,293.2h-3.2v-3.5c0-0.4-0.3-0.7-0.7-0.7h-16.9c-0.4,0-0.7,0.3-0.7,0.7v19.8c0,0.4,0.3,0.7,0.7,0.7h0.9v1h15.3v-1h0.7
				c0.5,0,0.7-0.3,0.7-0.7v-3.9h3.2c2.4,0,4.2-1.8,4.2-4.1v-4C453.1,295.1,451.3,293.2,448.9,293.2"/>
			<path clip-path="url(#SVGID_2_)" fill="#505050" d="M433.9,298c-1.4,0-1.7,1.3-3.4,1.3c-0.5,0-0.7-0.6-0.7-1.1
				c0-0.6,0.4-1.1,0.9-1.2h-0.1c-0.7,0-1.4,0.6-1.4,1.5c0,0.7,0.5,1.4,1.3,1.5h5.6C436,300,436,298,433.9,298"/>
			<path clip-path="url(#SVGID_2_)" fill="#505050" d="M439.3,298c1.4,0,1.7,1.3,3.5,1.3c0.5,0,0.6-0.6,0.6-1.1
				c0-0.6-0.3-1.1-0.9-1.2h0.1c0.7,0,1.4,0.6,1.4,1.5c0,0.7-0.5,1.4-1.2,1.5h-5.6C437.1,300.1,437.2,298,439.3,298"/>
		</g>
	</g>
	<g>
		<path fill="#515251" d="M530.7,60.1c0,14-11.4,25.4-25.4,25.4c-14,0-25.4-11.4-25.4-25.4c0-14,11.4-25.4,25.4-25.4
			C519.3,34.7,530.7,46.1,530.7,60.1"/>
		<path fill="#FFFFFF" d="M526.9,60.1c0,12-9.7,21.7-21.7,21.7c-12,0-21.7-9.7-21.7-21.7c0-12,9.7-21.7,21.7-21.7
			C517.2,38.4,526.9,48.1,526.9,60.1"/>
		<path fill="#1B1C1C" d="M506.4,60.1c0,0.7-0.5,1.2-1.2,1.2c-0.7,0-1.2-0.5-1.2-1.2c0-0.7,0.5-1.2,1.2-1.2
			C505.9,58.9,506.4,59.5,506.4,60.1"/>
		<rect x="504.9" y="39.5" fill="#1A1A1A" width="0.6" height="41.1"/>
		<rect x="484.7" y="59.8" fill="#1A1A1A" width="41.1" height="0.6"/>
		
			<rect x="504.9" y="39.5" transform="matrix(0.4955 -0.8686 0.8686 0.4955 202.6929 469.1907)" fill="#1A1A1A" width="0.6" height="41.1"/>
		<polygon fill="#1A1A1A" points="495.3,78.1 494.8,77.8 515.2,42.1 515.7,42.4 515.5,42.7 		"/>
		<polygon fill="#1A1A1A" points="515.2,78.1 515.1,77.8 494.7,42.4 495.2,42.1 515.8,77.8 		"/>
		<polygon fill="#1A1A1A" points="487.6,70.7 487.3,70.1 522.9,49.6 523.2,50.1 		"/>
		<path fill="#FFFFFF" d="M521.8,60.1c0,9.1-7.4,16.5-16.5,16.5c-9.1,0-16.5-7.4-16.5-16.5c0-9.1,7.4-16.5,16.5-16.5
			C514.4,43.6,521.8,51,521.8,60.1"/>
		<path fill="#1B1C1C" d="M506.4,60.1c0,0.7-0.5,1.2-1.2,1.2c-0.7,0-1.2-0.5-1.2-1.2c0-0.7,0.5-1.2,1.2-1.2
			C505.9,58.9,506.4,59.5,506.4,60.1"/>
		<path fill="#1A1A1A" d="M505.2,60.4c-0.1,0-0.2,0-0.2-0.1l-12.5-12.5c-0.1-0.1-0.1-0.3,0-0.4c0.1-0.1,0.3-0.1,0.4,0l12.5,12.5
			c0.1,0.1,0.1,0.3,0,0.4C505.4,60.4,505.3,60.4,505.2,60.4"/>
		<path fill="#1A1A1A" d="M505.2,60.4c-0.2,0-0.3-0.1-0.3-0.3c0-0.2,0.1-0.3,0.3-0.3h9.2c0.2,0,0.3,0.1,0.3,0.3
			c0,0.2-0.1,0.3-0.3,0.3H505.2z"/>
		<path fill="#E42129" d="M492.8,72.9c-0.1,0-0.2,0-0.2-0.1c-0.1-0.1-0.1-0.3,0-0.4l15.1-15.1c0.1-0.1,0.3-0.1,0.4,0
			c0.1,0.1,0.1,0.3,0,0.4L493,72.8C492.9,72.8,492.9,72.9,492.8,72.9"/>
	</g>
</g>
<g id="corporate_mobile">
</g>
<g id="kiosk">
</g>
<g id="conditional_access">
</g>
</svg>
