<?xml version="1.0" encoding="utf-8"?>
<!-- Generator: Adobe Illustrator 19.2.1, SVG Export Plug-In . SVG Version: 6.00 Build 0)  -->
<svg version="1.1" xmlns="http://www.w3.org/2000/svg" xmlns:xlink="http://www.w3.org/1999/xlink" x="0px" y="0px"
	 viewBox="0 0 744 452" enable-background="new 0 0 744 452" xml:space="preserve">
<g id="desktop_management">
</g>
<g id="corporate_mobile">
</g>
<g id="kiosk">
	<rect x="337.5" y="240.8" fill="#513A26" width="299.6" height="179.6"/>
	
		<rect x="337.5" y="305.6" opacity="0" fill="none" stroke="#FFFFFF" stroke-width="0.3727" stroke-linecap="round" stroke-linejoin="round" stroke-miterlimit="10" width="299.6" height="114.8"/>
	<rect x="343.4" y="312.7" width="284.4" height="54.8"/>
	
		<rect x="343.4" y="312.7" opacity="0" fill="none" stroke="#FFFFFF" stroke-width="0.3727" stroke-linecap="round" stroke-linejoin="round" stroke-miterlimit="10" width="284.4" height="54.8"/>
	<rect x="365.4" y="315.7" fill="#0078D7" width="15.7" height="51.8"/>
	
		<rect x="365.4" y="315.7" opacity="0" fill="none" stroke="#FFFFFF" stroke-width="0.3727" stroke-linecap="round" stroke-linejoin="round" stroke-miterlimit="10" width="15.7" height="51.8"/>
	<rect x="346.8" y="315.7" fill="#0078D7" width="15.7" height="51.8"/>
	
		<rect x="346.8" y="315.7" opacity="0" fill="none" stroke="#FFFFFF" stroke-width="0.3727" stroke-linecap="round" stroke-linejoin="round" stroke-miterlimit="10" width="15.7" height="51.8"/>
	<rect x="383.7" y="315.7" fill="#492474" width="15.7" height="51.8"/>
	
		<rect x="383.7" y="315.7" opacity="0" fill="none" stroke="#FFFFFF" stroke-width="0.3727" stroke-linecap="round" stroke-linejoin="round" stroke-miterlimit="10" width="15.7" height="51.8"/>
	<rect x="438.8" y="315.7" fill="#0078D7" width="16" height="51.8"/>
	
		<rect x="438.8" y="315.7" opacity="0" fill="none" stroke="#FFFFFF" stroke-width="0.3727" stroke-linecap="round" stroke-linejoin="round" stroke-miterlimit="10" width="16" height="51.8"/>
	<rect x="475.7" y="315.7" fill="#0078D7" width="15.7" height="51.8"/>
	
		<rect x="475.7" y="315.7" opacity="0" fill="none" stroke="#FFFFFF" stroke-width="0.3727" stroke-linecap="round" stroke-linejoin="round" stroke-miterlimit="10" width="15.7" height="51.8"/>
	<rect x="457.5" y="315.7" fill="#492474" width="15.7" height="51.8"/>
	
		<rect x="457.5" y="315.7" opacity="0" fill="none" stroke="#FFFFFF" stroke-width="0.3727" stroke-linecap="round" stroke-linejoin="round" stroke-miterlimit="10" width="15.7" height="51.8"/>
	<rect x="512.6" y="315.7" fill="#492474" width="15.7" height="51.8"/>
	
		<rect x="512.6" y="315.7" opacity="0" fill="none" stroke="#FFFFFF" stroke-width="0.3727" stroke-linecap="round" stroke-linejoin="round" stroke-miterlimit="10" width="15.7" height="51.8"/>
	<rect x="531.6" y="315.7" fill="#492474" width="15.3" height="51.8"/>
	
		<rect x="531.6" y="315.7" opacity="0" fill="none" stroke="#FFFFFF" stroke-width="0.3727" stroke-linecap="round" stroke-linejoin="round" stroke-miterlimit="10" width="15.3" height="51.8"/>
	<rect x="402.3" y="315.7" fill="#00BCF2" width="15.7" height="51.8"/>
	
		<rect x="402.3" y="315.7" opacity="0" fill="none" stroke="#FFFFFF" stroke-width="0.3727" stroke-linecap="round" stroke-linejoin="round" stroke-miterlimit="10" width="15.7" height="51.8"/>
	<rect x="420.6" y="315.7" fill="#00BCF2" width="15.7" height="51.8"/>
	
		<rect x="420.6" y="315.7" opacity="0" fill="none" stroke="#FFFFFF" stroke-width="0.3727" stroke-linecap="round" stroke-linejoin="round" stroke-miterlimit="10" width="15.7" height="51.8"/>
	<rect x="494.4" y="315.7" fill="#00BCF2" width="15.7" height="51.8"/>
	
		<rect x="494.4" y="315.7" opacity="0" fill="none" stroke="#FFFFFF" stroke-width="0.3727" stroke-linecap="round" stroke-linejoin="round" stroke-miterlimit="10" width="15.7" height="51.8"/>
	<rect x="571.9" y="315.7" fill="#0078D7" width="15.3" height="51.8"/>
	
		<rect x="571.9" y="315.7" opacity="0" fill="none" stroke="#FFFFFF" stroke-width="0.3727" stroke-linecap="round" stroke-linejoin="round" stroke-miterlimit="10" width="15.3" height="51.8"/>
	<rect x="608.8" y="315.7" fill="#492474" width="15.3" height="51.8"/>
	
		<rect x="608.8" y="315.7" opacity="0" fill="none" stroke="#FFFFFF" stroke-width="0.3727" stroke-linecap="round" stroke-linejoin="round" stroke-miterlimit="10" width="15.3" height="51.8"/>
	<rect x="590.5" y="316" fill="#00BCF2" width="15.3" height="51.4"/>
	
		<rect x="590.5" y="316" opacity="0" fill="none" stroke="#FFFFFF" stroke-width="0.3727" stroke-linecap="round" stroke-linejoin="round" stroke-miterlimit="10" width="15.3" height="51.4"/>
	<rect x="343.4" y="250.4" width="284.4" height="54.8"/>
	<rect x="438.8" y="253.3" fill="#0078D7" width="16" height="51.8"/>
	
		<rect x="438.8" y="253.3" opacity="0" fill="none" stroke="#FFFFFF" stroke-width="0.3727" stroke-linecap="round" stroke-linejoin="round" stroke-miterlimit="10" width="16" height="51.8"/>
	<rect x="475.7" y="253.3" fill="#0078D7" width="15.7" height="51.8"/>
	
		<rect x="475.7" y="253.3" opacity="0" fill="none" stroke="#FFFFFF" stroke-width="0.3727" stroke-linecap="round" stroke-linejoin="round" stroke-miterlimit="10" width="15.7" height="51.8"/>
	<rect x="457.5" y="253.3" fill="#492474" width="15.7" height="51.8"/>
	
		<rect x="457.5" y="253.3" opacity="0" fill="none" stroke="#FFFFFF" stroke-width="0.3727" stroke-linecap="round" stroke-linejoin="round" stroke-miterlimit="10" width="15.7" height="51.8"/>
	<rect x="512.6" y="253.3" fill="#492474" width="15.7" height="51.8"/>
	
		<rect x="512.6" y="253.3" opacity="0" fill="none" stroke="#FFFFFF" stroke-width="0.3727" stroke-linecap="round" stroke-linejoin="round" stroke-miterlimit="10" width="15.7" height="51.8"/>
	<rect x="531.6" y="253.3" fill="#492474" width="15.3" height="51.8"/>
	
		<rect x="531.6" y="253.3" opacity="0" fill="none" stroke="#FFFFFF" stroke-width="0.3727" stroke-linecap="round" stroke-linejoin="round" stroke-miterlimit="10" width="15.3" height="51.8"/>
	<rect x="420.6" y="253.3" fill="#00BCF2" width="15.7" height="51.8"/>
	
		<rect x="420.6" y="253.3" opacity="0" fill="none" stroke="#FFFFFF" stroke-width="0.3727" stroke-linecap="round" stroke-linejoin="round" stroke-miterlimit="10" width="15.7" height="51.8"/>
	<rect x="494.4" y="253.3" fill="#00BCF2" width="15.7" height="51.8"/>
	
		<rect x="494.4" y="253.3" opacity="0" fill="none" stroke="#FFFFFF" stroke-width="0.3727" stroke-linecap="round" stroke-linejoin="round" stroke-miterlimit="10" width="15.7" height="51.8"/>
	<rect x="571.9" y="253.3" fill="#0078D7" width="15.3" height="51.8"/>
	
		<rect x="571.9" y="253.3" opacity="0" fill="none" stroke="#FFFFFF" stroke-width="0.3727" stroke-linecap="round" stroke-linejoin="round" stroke-miterlimit="10" width="15.3" height="51.8"/>
	<rect x="608.8" y="253.3" fill="#492474" width="15.3" height="51.8"/>
	
		<rect x="608.8" y="253.3" opacity="0" fill="none" stroke="#FFFFFF" stroke-width="0.3727" stroke-linecap="round" stroke-linejoin="round" stroke-miterlimit="10" width="15.3" height="51.8"/>
	<rect x="590.5" y="253.7" fill="#00BCF2" width="15.3" height="51.4"/>
	
		<rect x="590.5" y="253.7" opacity="0" fill="none" stroke="#FFFFFF" stroke-width="0.3727" stroke-linecap="round" stroke-linejoin="round" stroke-miterlimit="10" width="15.3" height="51.4"/>
	<g>
		<rect x="283.5" y="313.8" fill="#513A26" width="5.8" height="77.6"/>
		
			<rect x="283.5" y="313.8" opacity="0" fill="none" stroke="#FFFFFF" stroke-width="0.2916" stroke-linecap="round" stroke-linejoin="round" stroke-miterlimit="10" width="5.8" height="77.6"/>
		<polygon fill="#937A47" points="275.4,419.9 266,377.1 306.9,377.1 299,419.9 		"/>
		
			<polygon opacity="0" fill="none" stroke="#FFFFFF" stroke-width="0.2916" stroke-linecap="round" stroke-linejoin="round" stroke-miterlimit="10" points="
			306.9,377.1 266,377.1 275.4,419.9 299,419.9 		"/>
		<path fill="#008A00" d="M314.8,307.7c0,15.7-12.5,28.3-28.3,28.3c-15.8,0-28.3-12.5-28.3-28.3s12.5-28.3,28.3-28.3
			C302.2,279.4,314.8,291.9,314.8,307.7"/>
	</g>
	<g>
		<defs>
			<rect id="SVGID_55_" x="345.8" y="250.4" width="72.8" height="55.3"/>
		</defs>
		<clipPath id="SVGID_2_">
			<use xlink:href="#SVGID_55_"  overflow="visible"/>
		</clipPath>
		<path clip-path="url(#SVGID_2_)" fill="#737373" d="M399.7,273.6c0,2.3-2,4.3-4.3,4.3h-28.6c-2.3,0-4.3-2-4.3-4.3v-19.1
			c0-2.6,2-4.6,4.3-4.6h28.6c2.3,0,4.3,2,4.3,4.6V273.6z"/>
		<rect x="366.7" y="241.8" clip-path="url(#SVGID_2_)" fill="#FFFFFF" width="28.9" height="26.3"/>
		
			<rect x="366.7" y="241.8" opacity="0" clip-path="url(#SVGID_2_)" fill="none" stroke="#FFFFFF" stroke-width="0.2889" stroke-linecap="round" stroke-linejoin="round" stroke-miterlimit="10" width="28.9" height="26.3"/>
		<path clip-path="url(#SVGID_2_)" fill="#333333" d="M417,295.3V280c0-7.5-5.8-13.3-13-13.3h-45.9c-7.2,0-13,5.8-13,13.3v15.3H417z
			"/>
		<path clip-path="url(#SVGID_2_)" fill="#7FBA00" d="M402,273.9c0,1.2-0.9,2-2,2c-1.2,0-2-0.9-2-2c0-1.2,0.9-2,2-2
			C401.1,271.9,402,272.7,402,273.9"/>
		<polygon clip-path="url(#SVGID_2_)" fill="#D2D2D2" points="411,301.9 350.3,301.9 357.5,285.5 404.6,285.5 		"/>
		
			<polygon opacity="0" clip-path="url(#SVGID_2_)" fill="none" stroke="#FFFFFF" stroke-width="0.2889" stroke-linecap="round" stroke-linejoin="round" stroke-miterlimit="10" points="
			411,301.9 350.3,301.9 357.5,285.5 404.6,285.5 		"/>
		<path clip-path="url(#SVGID_2_)" fill="#737373" d="M382.9,297.3h-6.6c-3.5,0-6.1,2.6-6.1,6.1H389
			C389,299.9,386.1,297.3,382.9,297.3"/>
		<rect x="356" y="301.9" clip-path="url(#SVGID_2_)" fill="#737373" width="49.1" height="3.2"/>
		
			<rect x="356" y="301.9" opacity="0" clip-path="url(#SVGID_2_)" fill="none" stroke="#FFFFFF" stroke-width="0.2889" stroke-linecap="round" stroke-linejoin="round" stroke-miterlimit="10" width="49.1" height="3.2"/>
	</g>
	<g>
		<defs>
			<rect id="SVGID_57_" x="403.4" y="223.7" width="49.7" height="17.7"/>
		</defs>
		<clipPath id="SVGID_4_">
			<use xlink:href="#SVGID_57_"  overflow="visible"/>
		</clipPath>
		<path clip-path="url(#SVGID_4_)" fill="#969696" d="M446.2,234.1c0.2,0,0.4,0.2,0.4,0.5c0,0.2-0.2,0.4-0.4,0.4h-1.8
			c-0.3,0-0.5-0.2-0.5-0.4c0-0.3,0.2-0.5,0.5-0.5H446.2z M449.3,233.4h-41.1v2.7h41.1V233.4z"/>
		<path clip-path="url(#SVGID_4_)" fill="#492474" d="M450.8,226v7.4h-46.2V226c0-1.3,1.1-2.3,2.3-2.3h41.5
			C449.7,223.6,450.8,224.7,450.8,226"/>
		<path clip-path="url(#SVGID_4_)" fill="#492474" d="M418.5,230.8v6.2v0.3h30.4c1.9,0,3.5,1.6,3.5,3.5v0.2h-43.7h-5.5H403v-4v-4.5
			v-1.7c0-2,1.6-3.6,3.5-3.6h8.6C416.9,227.2,418.5,228.8,418.5,230.8"/>
	</g>
	<g>
		<defs>
			<rect id="SVGID_59_" x="350" y="216.3" width="38" height="25.1"/>
		</defs>
		<clipPath id="SVGID_6_">
			<use xlink:href="#SVGID_59_"  overflow="visible"/>
		</clipPath>
		<path clip-path="url(#SVGID_6_)" fill="#D2D2D2" d="M368,228.6c-2.4,0-4.3-1.9-4.3-4.3s1.9-4.3,4.3-4.3c2.4,0,4.3,1.9,4.3,4.3
			S370.3,228.6,368,228.6 M376.9,222c-0.8,0-1.4-0.5-1.8-1c-1.2-2.7-4-4.5-7.1-4.5c-4.4,0-7.9,3.5-7.9,7.9s3.5,8,7.9,8
			c4.4,0,7.9-3.6,7.9-8c0-0.8-0.1-1.7-0.3-2.5c0.3,0.3,0.8,0.5,1.4,0.5h8.6V222H376.9z"/>
		<path clip-path="url(#SVGID_6_)" fill="none" stroke="#8E9698" stroke-width="1.0177" stroke-miterlimit="1" d="M368,228.4
			c-2.1,0-4-1.8-4-4.1c0-2.1,1.8-4,4-4s4,1.8,4,4C371.9,226.6,370.1,228.4,368,228.4z"/>
		<path clip-path="url(#SVGID_6_)" fill="#492474" d="M385.5,222.1c-0.9,0-1.6,0.8-1.6,1.7v6.3c-3.5-4.9-9.2-8-15.6-8
			c-10.4,0-18.8,8.4-18.8,18.9h34.4h3.3v-17.2C387.2,222.9,386.5,222.1,385.5,222.1"/>
	</g>
	<g>
		<polygon fill="#FFFFFF" points="358.5,393 369.5,396.2 373.2,393 372.5,389.2 365.9,385.2 361,388.5 		"/>
		
			<polygon opacity="0" fill="none" stroke="#FFFFFF" stroke-width="0.1753" stroke-linecap="round" stroke-linejoin="round" stroke-miterlimit="10" points="
			358.5,393 369.5,396.2 373.2,393 372.5,389.2 365.9,385.2 361,388.5 		"/>
		<polygon fill="#FFFFFF" points="391.5,393 387.1,392 385.7,383.9 390.1,380.9 400,382.5 401.4,390.2 398.1,393 		"/>
		
			<polygon opacity="0" fill="none" stroke="#FFFFFF" stroke-width="0.1753" stroke-linecap="round" stroke-linejoin="round" stroke-miterlimit="10" points="
			391.5,393 387.1,392 385.7,383.9 390.1,380.9 400,382.5 401.4,390.2 398.1,393 		"/>
		<path fill="#FFD800" d="M359.9,387.1l9.6-4.6l-5.1-11.4c0,0-4.2,1.6-6,1.6c-1.6,0-1.8,6.3-1.8,6.3l1.2,6L359.9,387.1z"/>
		<path fill="#6DC2E9" d="M371.1,423.9l-8.4-2.5l2.5-7.5c0,0,2.3-3,3.7-2.8c1.4,0,7.9-1.8,7.9-1.8l2.8,7.2c0,0-2.5,5.6-3.5,4.9
			c-1.1-0.5-3.7-3.3-3.7-3.3L371.1,423.9z"/>
		<polygon fill="#FFFFFF" points="381.1,419 391.8,421.4 398.8,413 395.5,407.6 387.9,407.6 381.6,413.5 		"/>
		
			<polygon opacity="0" fill="none" stroke="#FFFFFF" stroke-width="0.1753" stroke-linecap="round" stroke-linejoin="round" stroke-miterlimit="10" points="
			381.1,419 391.8,421.4 398.8,413 395.5,407.6 387.9,407.6 381.6,413.5 		"/>
		<polygon fill="#FFFFFF" points="379.9,410.7 369.5,407.6 372.2,401.8 377.3,397.6 381.1,405.3 389.5,400.2 388.5,406.5 
			383.9,411.4 		"/>
		
			<polygon opacity="0" fill="none" stroke="#FFFFFF" stroke-width="0.1753" stroke-linecap="round" stroke-linejoin="round" stroke-miterlimit="10" points="
			379.9,410.7 369.5,407.6 372.2,401.8 377.3,397.6 381.1,405.3 389.5,400.2 388.5,406.5 383.9,411.4 		"/>
		<path fill="#FFFFFF" d="M359.2,413.4l6-3.2l6-5.8l-2.8-6.8c0,0-4.4-1.1-5.6-1.4c-1.1-0.2-3.9,8.6-3.9,8.6L359.2,413.4z"/>
		<polygon fill="#FFFFFF" points="399.9,404.8 399.7,405 394.1,407.6 390.6,404.8 387.1,400.2 388.6,393.9 398.8,393.9 400.6,399 
			401.4,402.3 		"/>
		
			<polygon opacity="0" fill="none" stroke="#FFFFFF" stroke-width="0.1753" stroke-linecap="round" stroke-linejoin="round" stroke-miterlimit="10" points="
			399.9,404.8 399.7,405 394.1,407.6 390.6,404.8 387.1,400.2 388.6,393.9 398.8,393.9 400.6,399 401.4,402.3 		"/>
		<path fill="#FFD800" d="M382.7,399.7l-8.8-2.8l1.6-8.4c0,0,5.3-2.6,6.1-2.3c0.7,0.4,5.4,4.7,5.4,4.7v5.3L382.7,399.7z"/>
		<path fill="#505150" d="M399.9,423.9l0.5-0.7v0.7H399.9z M356.4,359l-3.3,3.3l-0.4-3.3H356.4z M406.5,362l-2.3,2.3L399,359h7.9
			L406.5,362z M392,418.5l5.6-5.8l3.5,3.5l-0.5,4.9l-2.6,2.8h-0.7L392,418.5z M390.9,419.3l4.6,4.6h-8.9L390.9,419.3z M378.7,418.5
			l5.6-5.8l5.8,5.8l-5.4,5.4h-0.7L378.7,418.5z M377.6,419.3l4.6,4.6h-8.9L377.6,419.3z M365.3,418.5l5.8-5.8l5.6,5.8l-5.4,5.4h-0.5
			L365.3,418.5z M364.5,419.3l4.4,4.6h-8.9L364.5,419.3z M357.8,412.7l5.6,5.8l-4.7,4.9l-1.1-10.5L357.8,412.7z M357.8,399.5
			l5.6,5.6l-5.6,5.8l-0.4-0.4l-0.9-10L357.8,399.5z M356.8,398.5l-0.4,0.5v-1.1L356.8,398.5z M356.8,385.2l-1.4,1.6l-0.4-3.3
			L356.8,385.2z M356.8,372l-2.6,2.5l-0.5-5.6L356.8,372z M363.4,365.3l-5.6,5.6l-4.4-4.2l-0.2-2.6l4.6-4.6L363.4,365.3z
			 M364.5,364.3L359,359h10.7L364.5,364.3z M377.6,364.3l-5.3-5.3H383L377.6,364.3z M390.9,364.3l-5.3-5.3h10.7L390.9,364.3z
			 M397.6,371l-5.6-5.6l5.6-5.8l5.8,5.8L397.6,371z M405.3,365.3l1.1-1.2l-0.2,2.1L405.3,365.3z M406,368l-0.9,8.8l-0.9,0.9
			l-5.6-5.8l5.6-5.6L406,368z M403.7,390.4l-5.1-5.3l5.6-5.6l0.5,0.5L403.7,390.4z M398.6,398.5l4.7-4.7l-0.9,8.8L398.6,398.5z
			 M402,408.5l-0.7,6.1l-2.6-2.8L402,408.5z M392,405.1l5.6-5.6l4.7,4.7l-0.2,2.1l-4.6,4.6L392,405.1z M390.9,406l5.8,5.8l-5.8,5.8
			l-5.6-5.8L390.9,406z M378.7,405.1l5.6-5.6l5.8,5.6l-5.8,5.8L378.7,405.1z M377.6,406l5.8,5.8l-5.8,5.8l-5.6-5.8L377.6,406z
			 M364.5,392.9l5.6,5.6l-5.6,5.8l-5.8-5.8L364.5,392.9z M363.4,391.8l-5.6,5.8l-1.8-1.6l-0.5-7.5l2.3-2.3L363.4,391.8z
			 M364.5,379.5l5.6,5.6l-5.6,5.8l-5.8-5.8L364.5,379.5z M363.4,378.5l-5.6,5.8l-3-3l-0.5-5.1l3.5-3.3L363.4,378.5z M370.1,372
			l-5.6,5.6l-5.8-5.8l5.8-5.6L370.1,372z M383.4,372l-5.8,5.6L372,372l5.6-5.8L383.4,372z M390.9,377.6l-5.6-5.6l5.6-5.8l5.8,5.8
			L390.9,377.6z M392,378.5l5.6-5.6l5.8,5.6l-5.8,5.8L392,378.5z M390.9,390.9l-5.6-5.8l5.6-5.6l5.8,5.6L390.9,390.9z M392,391.8
			l5.6-5.6l5.8,5.6l-5.8,5.8L392,391.8z M390.9,392.9l5.8,5.6l-5.8,5.8l-5.6-5.8L390.9,392.9z M378.7,391.8l5.6-5.6l5.8,5.6
			l-5.8,5.8L378.7,391.8z M377.6,392.9l5.8,5.6l-5.8,5.8l-5.6-5.8L377.6,392.9z M376.7,391.8l-5.6,5.8l-5.8-5.8l5.8-5.6L376.7,391.8
			z M378.7,378.5l5.6-5.6l5.8,5.6l-5.8,5.8L378.7,378.5z M371.1,384.3l-5.8-5.8l5.8-5.6l5.6,5.6L371.1,384.3z M377.6,379.5l5.8,5.6
			l-5.8,5.8l-5.6-5.8L377.6,379.5z M390.1,365.3l-5.8,5.6l-5.6-5.6l5.6-5.8L390.1,365.3z M376.7,365.3l-5.6,5.6l-5.8-5.6l5.8-5.8
			L376.7,365.3z M370.1,411.8l-5.6,5.8l-5.8-5.8l5.8-5.8L370.1,411.8z M365.3,405.1l5.8-5.6l5.6,5.6l-5.6,5.8L365.3,405.1z
			 M402,421.4l6.3-63.8h-57l4.9,53.3v0.2v0.2l1.2,13.8h44.2l0.4-3.3V421.4z"/>
		
			<path opacity="0" fill="none" stroke="#FFFFFF" stroke-width="0.1753" stroke-linecap="round" stroke-linejoin="round" stroke-miterlimit="10" d="
			M399.9,423.9l0.5-0.7v0.7H399.9z M356.4,359l-3.3,3.3l-0.4-3.3H356.4z M406.5,362l-2.3,2.3L399,359h7.9L406.5,362z M392,418.5
			l5.6-5.8l3.5,3.5l-0.5,4.9l-2.6,2.8h-0.7L392,418.5z M390.9,419.3l4.6,4.6h-8.9L390.9,419.3z M378.7,418.5l5.6-5.8l5.8,5.8
			l-5.4,5.4h-0.7L378.7,418.5z M377.6,419.3l4.6,4.6h-8.9L377.6,419.3z M365.3,418.5l5.8-5.8l5.6,5.8l-5.4,5.4h-0.5L365.3,418.5z
			 M364.5,419.3l4.4,4.6h-8.9L364.5,419.3z M357.8,412.7l5.6,5.8l-4.7,4.9l-1.1-10.5L357.8,412.7z M357.8,399.5l5.6,5.6l-5.6,5.8
			l-0.4-0.4l-0.9-10L357.8,399.5z M356.8,398.5l-0.4,0.5v-1.1L356.8,398.5z M356.8,385.2l-1.4,1.6l-0.4-3.3L356.8,385.2z M356.8,372
			l-2.6,2.5l-0.5-5.6L356.8,372z M363.4,365.3l-5.6,5.6l-4.4-4.2l-0.2-2.6l4.6-4.6L363.4,365.3z M364.5,364.3L359,359h10.7
			L364.5,364.3z M377.6,364.3l-5.3-5.3H383L377.6,364.3z M390.9,364.3l-5.3-5.3h10.7L390.9,364.3z M397.6,371l-5.6-5.6l5.6-5.8
			l5.8,5.8L397.6,371z M405.3,365.3l1.1-1.2l-0.2,2.1L405.3,365.3z M406,368l-0.9,8.8l-0.9,0.9l-5.6-5.8l5.6-5.6L406,368z
			 M403.7,390.4l-5.1-5.3l5.6-5.6l0.5,0.5L403.7,390.4z M398.6,398.5l4.7-4.7l-0.9,8.8L398.6,398.5z M402,408.5l-0.7,6.1l-2.6-2.8
			L402,408.5z M392,405.1l5.6-5.6l4.7,4.7l-0.2,2.1l-4.6,4.6L392,405.1z M390.9,406l5.8,5.8l-5.8,5.8l-5.6-5.8L390.9,406z
			 M378.7,405.1l5.6-5.6l5.8,5.6l-5.8,5.8L378.7,405.1z M377.6,406l5.8,5.8l-5.8,5.8l-5.6-5.8L377.6,406z M364.5,392.9l5.6,5.6
			l-5.6,5.8l-5.8-5.8L364.5,392.9z M363.4,391.8l-5.6,5.8l-1.8-1.6l-0.5-7.5l2.3-2.3L363.4,391.8z M364.5,379.5l5.6,5.6l-5.6,5.8
			l-5.8-5.8L364.5,379.5z M363.4,378.5l-5.6,5.8l-3-3l-0.5-5.1l3.5-3.3L363.4,378.5z M370.1,372l-5.6,5.6l-5.8-5.8l5.8-5.6
			L370.1,372z M383.4,372l-5.8,5.6L372,372l5.6-5.8L383.4,372z M390.9,377.6l-5.6-5.6l5.6-5.8l5.8,5.8L390.9,377.6z M392,378.5
			l5.6-5.6l5.8,5.6l-5.8,5.8L392,378.5z M390.9,390.9l-5.6-5.8l5.6-5.6l5.8,5.6L390.9,390.9z M392,391.8l5.6-5.6l5.8,5.6l-5.8,5.8
			L392,391.8z M390.9,392.9l5.8,5.6l-5.8,5.8l-5.6-5.8L390.9,392.9z M378.7,391.8l5.6-5.6l5.8,5.6l-5.8,5.8L378.7,391.8z
			 M377.6,392.9l5.8,5.6l-5.8,5.8l-5.6-5.8L377.6,392.9z M376.7,391.8l-5.6,5.8l-5.8-5.8l5.8-5.6L376.7,391.8z M378.7,378.5l5.6-5.6
			l5.8,5.6l-5.8,5.8L378.7,378.5z M371.1,384.3l-5.8-5.8l5.8-5.6l5.6,5.6L371.1,384.3z M377.6,379.5l5.8,5.6l-5.8,5.8l-5.6-5.8
			L377.6,379.5z M390.1,365.3l-5.8,5.6l-5.6-5.6l5.6-5.8L390.1,365.3z M376.7,365.3l-5.6,5.6l-5.8-5.6l5.8-5.8L376.7,365.3z
			 M370.1,411.8l-5.6,5.8l-5.8-5.8l5.8-5.8L370.1,411.8z M365.3,405.1l5.8-5.6l5.6,5.6l-5.6,5.8L365.3,405.1z M402,421.4l6.3-63.8
			h-57l4.9,53.3v0.2v0.2l1.2,13.8h44.2l0.4-3.3V421.4z"/>
	</g>
</g>
<g id="conditional_access">
</g>
</svg>
