<?xml version="1.0" encoding="utf-8"?>
<!-- Generator: Adobe Illustrator 19.2.1, SVG Export Plug-In . SVG Version: 6.00 Build 0)  -->
<svg version="1.1" xmlns="http://www.w3.org/2000/svg" xmlns:xlink="http://www.w3.org/1999/xlink" x="0px" y="0px"
	 viewBox="0 0 96.5 77.1" enable-background="new 0 0 96.5 77.1" xml:space="preserve">
<g id="Layer_1">
</g>
<g id="Layer_2">
	<g>
		<path fill="#1EBBEE" d="M0,4.8l0,67.4c0,0,0,4.8,4.8,4.8l86.7,0c0,0,4.8,0,4.8-4.8l0-67.4c0,0,0-4.8-4.8-4.8l-86.7,0
			C4.8-0.1,0-0.1,0,4.8z"/>
		<rect x="4.8" y="4.8" fill="#F58B21" width="86.7" height="57.8"/>
		<path fill="#FFFFFF" d="M36.2,29.3h3.3v-4.9c0-7.3,5.9-13.2,13.2-13.2c7.3,0,13.2,5.9,13.2,13.2v4.9h3.3l0,21.4H36.2L36.2,29.3z
			 M60.9,24.3c0-4.5-3.7-8.2-8.2-8.2s-8.2,3.7-8.2,8.2v4.9l16.5,0L60.9,24.3z M49.4,48.5h6.7l-1.9-9.3c1.1-0.6,1.9-1.7,1.9-3
			c0-1.9-1.5-3.4-3.4-3.4c-1.9,0-3.4,1.5-3.4,3.4c0,1.3,0.8,2.5,1.9,3L49.4,48.5z"/>
		<path opacity="0.15" d="M4.9,77.1l86.8,0c0,0,4.8,0,4.8-4.5v-4.5L0.1,14.2l0,58.4C0.1,72.6,0.1,77.1,4.9,77.1z"/>
	</g>
</g>
<g id="Layer_3">
</g>
<g id="Layer_4">
</g>
</svg>
