<?xml version="1.0" encoding="utf-8"?>
<!-- Generator: Adobe Illustrator 19.2.1, SVG Export Plug-In . SVG Version: 6.00 Build 0)  -->
<svg version="1.1" xmlns="http://www.w3.org/2000/svg" xmlns:xlink="http://www.w3.org/1999/xlink" x="0px" y="0px"
	 viewBox="0 0 96.5 77.7" enable-background="new 0 0 96.5 77.7" xml:space="preserve">
<g id="Layer_1">
</g>
<g id="Layer_2">
	<g>
		<rect x="4.8" y="5.3" fill="#F58B21" width="86.7" height="57.8"/>
		<path fill="#FDB813" d="M36.4,48.7c2.6,3.7,6.7,5.7,10.9,5.7c2.7,0,5.5-0.8,7.9-2.5c4.6-3.2,6.6-8.7,5.6-13.8l3.8-2.6l-1.5-2.2
			l3.3-0.1l1.5-4l3.6,0.4l1.1-3.7l3.6,0.4l2.9-5.6l2.6,1.1l2-1.4l0-8.8l-1.3-1.8L54.5,29.3c-0.5-0.3-1-0.5-1.5-0.8
			c-4.2-1.8-9.2-1.4-13.2,1.4C33.7,34.2,32.2,42.6,36.4,48.7 M46,42c1.3,1.8,0.9,4.2-0.7,5.3c-1.6,1.1-4,0.6-5.2-1.2
			c-1.3-1.8-0.9-4.2,0.7-5.3C42.4,39.7,44.7,40.2,46,42"/>
		<path opacity="0.15" d="M4.8,77.7l86.8,0c0,0,4.8,0,4.8-4.5v-4.5L0,14.8l0,58.4C0,73.2,0,77.7,4.8,77.7z"/>
	</g>
	<g>
		<defs>
			<path id="SVGID_23_" d="M29.9-84.1c7.8-4.5,12.9-12,12.9-20.5c0-13.7-13.4-24.9-29.9-24.9c-1.2,0-2.4,0.1-3.6,0.2
				c0-0.1,0-0.1,0-0.2c0-12.1-11.8-21.9-26.3-21.9c-3.1,0-6.1,0.5-8.8,1.3c-4.7-7.3-14-12.3-24.7-12.3c-10.4,0-19.4,4.7-24.2,11.6
				c-4.8-7-13.9-11.6-24.2-11.6c-10.7,0-19.9,5-24.7,12.3c-2.8-0.8-5.7-1.3-8.8-1.3c-14.5,0-26.3,9.8-26.3,21.9c0,0.1,0,0.1,0,0.2
				c-1.2-0.1-2.4-0.2-3.6-0.2c-16.5,0-29.9,11.1-29.9,24.9c0,8.5,5.1,16,12.9,20.5c-7.8,4.5-12.9,12-12.9,20.5
				c0,13.7,13.4,24.9,29.9,24.9c1.2,0,2.4-0.1,3.6-0.2c0,0.1,0,0.1,0,0.2c0,12.1,11.8,21.9,26.3,21.9c3.1,0,6.1-0.5,8.8-1.3
				c4.7,7.3,14,12.3,24.7,12.3c10.4,0,19.4-4.7,24.2-11.6c4.8,7,13.9,11.6,24.2,11.6c10.7,0,19.9-5,24.7-12.3
				c2.8,0.8,5.7,1.3,8.8,1.3c14.5,0,26.3-9.8,26.3-21.9c0-0.1,0-0.1,0-0.2c1.2,0.1,2.4,0.2,3.6,0.2c16.5,0,29.9-11.1,29.9-24.9
				C42.8-72.1,37.7-79.6,29.9-84.1z"/>
		</defs>
		<clipPath id="SVGID_2_">
			<use xlink:href="#SVGID_23_"  overflow="visible"/>
		</clipPath>
	</g>
</g>
<g id="Layer_3">
</g>
<g id="Layer_4">
</g>
</svg>
