<?xml version="1.0" encoding="utf-8"?>
<!-- Generator: Adobe Illustrator 19.2.1, SVG Export Plug-In . SVG Version: 6.00 Build 0)  -->
<svg version="1.1" xmlns="http://www.w3.org/2000/svg" xmlns:xlink="http://www.w3.org/1999/xlink" x="0px" y="0px"
	 viewBox="0 0 134 238" enable-background="new 0 0 134 238" xml:space="preserve">
<g id="Layer_1">
</g>
<g id="Layer_2">
	<g>
		<path fill="#1EBBEE" d="M112.2,74.1c-0.1,0.7,0.4,1.1,0.9,1.2l12,1.2c0.7,0.1,1.2-0.3,1.3-0.9l2.4-23.5c0.1-0.7-0.4-1.2-1.1-1.3
			l-12-1.2c-0.5-0.1-1.1,0.4-1.2,1.1L112.2,74.1z"/>
		
			<rect x="111.3" y="56.1" transform="matrix(0.1003 -0.995 0.995 0.1003 46.288 176.172)" fill="#17244E" width="18.5" height="12.7"/>
		
			<rect x="111.3" y="56.7" transform="matrix(0.1003 -0.995 0.995 0.1003 45.7516 176.657)" opacity="0" fill="none" stroke="#FFFFFF" stroke-width="0.1324" stroke-linecap="round" stroke-linejoin="round" stroke-miterlimit="10" width="18.5" height="12.7"/>
		<path d="M117.7,51.5c0,0.1,0.1,0.1,0.3,0.2l7.4,0.7c0.1,0,0.3,0,0.3-0.1c0-0.1-0.1-0.3-0.2-0.3l-7.4-0.7
			C117.9,51.2,117.7,51.3,117.7,51.5"/>
		<path d="M113.1,73.4c0,0.3,0.1,0.4,0.4,0.4l0.7,0.1c0.1,0,0.4-0.1,0.4-0.4c0-0.1-0.2-0.4-0.4-0.4l-0.7-0.1
			C113.3,73.1,113.1,73.3,113.1,73.4"/>
		<path d="M117.9,73.9c-0.1,0.5,0.3,1,0.7,1l1.5,0.1c0.5,0.1,0.8-0.3,0.9-0.8c0-0.4-0.2-0.8-0.7-0.9l-1.5-0.1
			C118.3,73.2,117.9,73.5,117.9,73.9"/>
		<g>
			
				<rect x="117" y="62.4" transform="matrix(0.1127 -0.9936 0.9936 0.1127 43.1913 174.0351)" fill="#FFFFFF" width="4" height="0.8"/>
			<polygon fill="#FFFFFF" points="120.3,61.7 121.4,61.8 121.1,65.1 121.9,65.2 122.3,61.9 123.4,62 123.5,61.4 120.4,61 			"/>
			<path fill="#FFFFFF" d="M117.1,60.4l4.2-1.8l3.6,2.7l-0.5,4.4l-4.2,1.8l-3.6-2.7L117.1,60.4z M116.4,59.9l-0.6,5.2l4.2,3.1
				l4.9-2.1l0.6-5.2l-4.2-3.1L116.4,59.9z"/>
		</g>
		<rect x="6.3" y="62.5" fill="#17234E" width="67.2" height="98.2"/>
		<polygon opacity="0.1" points="73.5,149.1 73.5,123.8 6.3,70.6 6.3,149.1 		"/>
		<path fill="#FCF4A1" d="M50.7,45.3l-5-1.8L44,47.7H35l0,14.8h10.8V54C45.9,51.2,46.7,46.5,50.7,45.3z"/>
		<polygon fill="#17244E" points="73.8,234.1 61.3,221.5 44.7,221.5 44.7,237.9 73.8,237.9 		"/>
		<polygon fill="#F58B21" points="82.2,221.5 82.2,151.9 98.6,151.9 98.6,221.5 82.2,221.5 		"/>
		<polygon fill="#F58B21" points="44.7,221.5 44.7,149 61.1,149 61.1,221.5 44.7,221.5 		"/>
		<polygon fill="#F58B21" points="98.6,165.5 27.5,165.5 27.5,149.1 98.6,149.1 98.6,165.5 		"/>
		<path fill="#FCF4A1" d="M83.4,121.9c0.1,0,0.1,0.1,0.2,0.1c2.6,1.5,6,0.7,7.5-1.9c1.5-2.6,0.6-5.9-2-7.5c-0.1,0-0.1-0.1-0.2-0.1
			l0,0l-4.9-2.9l-5.5,9.4L83.4,121.9L83.4,121.9z"/>
		<path fill="#17234E" d="M126,85.4c1.8-2.4,3.8-5.5,4.5-7l-3.4-3.5l-5.5-2.2c-0.2,0.3-12.8,15.9-20.4,16.3
			c-8.8,0.4-24.1-11-29.6-23l-7.4,17.9c10.3,10.8,19.2,15.4,27.1,17c6.1,1.3,15.3,2.6,23-3.7C121,91.8,124.5,87.3,126,85.4z"/>
		<polygon fill="#17244E" points="111.3,234.1 98.8,221.5 82.2,221.5 82.2,237.9 111.3,237.9 		"/>
		<g>
			
				<rect x="70.2" y="105.1" transform="matrix(0.487 -0.8734 0.8734 0.487 -58.4632 123.2471)" fill="#17234E" width="10.9" height="12.5"/>
		</g>
		<path fill="#FFD566" d="M55.5,22c0,0,5.3,6.7,7.6,15.8l-7.6,1L55.5,22z"/>
		<path fill="#FCF4A1" d="M20.1,15.7l3.1,23.9l0.1,0.1c3.4,17.7,18.9,21.2,37,18.8L60,56.9l-1.8-13.6l-2.2-17l-2-15L20.1,15.7z"/>
		<path fill="#17244E" d="M48.6,30.2c0.1,0.8-0.4,1.4-1.2,1.5c-0.8,0.1-1.4-0.4-1.5-1.2c-0.1-0.7,0.4-1.4,1.2-1.5
			C47.9,29,48.5,29.5,48.6,30.2"/>
		<path fill="#17244E" d="M12,13.2c2-2.2,5.2-2.9,8.2-2.5c0.3-1.6,1-3.1,1.9-3.9c1.7-1.3,3.3-1.8,5.5-2.1c2.6-0.3,4.2-1,6.2-2.6
			C40.5-3,53.1,2.2,54,11.2l-0.2,0.1l0.3,0c-0.8,5.3-8.2,9.4-12.9,10.3c-2.7,0.5-4.6,0.4-6.3,1.4l0,0c0,0,3.7,24.3,17.3,22.5
			c0,0,0.3-6.4,5.7-7.1l2.6,20.1c0,0-23,9.2-26.5-17.5l-1.9-10.3c-0.1,4.7-1.3,11.8-6.4,16c0,0,0-0.1,0-0.1l0,0
			c-5-1.9-4.2-6.2-5.4-10.4c-0.9-3.2-5-6.7-7.1-9.4C10.4,23.7,8.9,16.5,12,13.2z"/>
		<path fill="#FCF4A1" d="M31.8,25.8c-4.2,0.6-7.2,4.4-6.6,8.6c0.5,4.2,4.4,7.2,8.6,6.6L31.8,25.8z"/>
		<path opacity="0.15" d="M32.3,29.6c-2.1,0.3-3.6,2.2-3.3,4.3c0.3,2.1,2.2,3.6,4.3,3.3L32.3,29.6z"/>
		<path fill="#FCF4A1" d="M132.9,74.4c0-0.1,0.1-0.1,0.1-0.2c1.5-2.6,0.7-6-1.9-7.5c-2.6-1.5-5.9-0.6-7.5,2c0,0.1-0.1,0.1-0.1,0.2
			l0,0l-2.9,4.9l9.4,5.5L132.9,74.4L132.9,74.4z"/>
		<rect x="0.2" y="84" fill="#04AF91" width="66.5" height="91.7"/>
		<rect x="0.2" y="166.5" fill="#04AF91" width="11.6" height="71.4"/>
		<rect x="55.1" y="166.5" fill="#04AF91" width="11.6" height="71.4"/>
		<rect x="26.4" y="166.5" fill="#04AF91" width="11.6" height="71.4"/>
		<rect x="81.3" y="166.5" fill="#04AF91" width="11.6" height="71.4"/>
		<rect x="47.5" y="165.1" fill="#04AF91" width="45.5" height="10.7"/>
		<rect x="60.9" y="84" opacity="0.15" width="5.8" height="153.8"/>
		<rect x="81.3" y="175.7" opacity="0.15" width="5.8" height="62.1"/>
		<polygon opacity="0.1" points="60.9,149 0.2,109.6 0.2,175.7 6,175.7 6,237.9 11.8,237.9 11.8,175.7 26.4,175.7 26.4,237.9 
			32.2,237.9 32.2,175.7 60.9,175.7 		"/>
	</g>
	<rect x="-39.2" y="-88" fill="none" width="39.3" height="66"/>
	<text transform="matrix(1 0 0 1 -31.814 -23.8467)" fill="#F58B21" font-family="'SegoeUI-Light'" font-size="86.7536px">!</text>
</g>
<g id="Layer_3">
</g>
<g id="Layer_4">
</g>
</svg>
