<?xml version="1.0" encoding="utf-8"?>
<!-- Generator: Adobe Illustrator 19.2.1, SVG Export Plug-In . SVG Version: 6.00 Build 0)  -->
<svg version="1.1" xmlns="http://www.w3.org/2000/svg" xmlns:xlink="http://www.w3.org/1999/xlink" x="0px" y="0px"
	 viewBox="0 0 116.3 72.6" enable-background="new 0 0 116.3 72.6" xml:space="preserve">
<g id="Layer_1">
</g>
<g id="Layer_2">
</g>
<g id="Layer_3">
	<g>
		<g>
			<path fill="#515150" d="M12.4,37.3c1-1,2.3-1.6,3.7-1.6c1.9,0,3.6,1.1,4.6,2.7c0.8-0.4,1.7-0.5,2.6-0.5c3.5,0,6.4,2.9,6.4,6.4
				c0,3.5-2.8,6.4-6.4,6.4c-0.4,0-0.8,0-1.3-0.1c-0.8,1.4-2.3,2.4-4.1,2.4c-0.7,0-1.4-0.2-2-0.5c-0.8,1.9-2.7,3.2-4.9,3.2
				c-2.3,0-4.2-1.4-5-3.5c-0.3,0.1-0.7,0.1-1,0.1c-2.7,0-4.9-2.2-4.9-5c0-1.8,1-3.4,2.5-4.3c-0.3-0.7-0.5-1.5-0.5-2.3
				c0-3.2,2.6-5.7,5.7-5.7C9.7,35.1,11.3,36,12.4,37.3"/>
			<path fill="#FFFFFF" d="M4.4,45.8C4.4,45.8,4.4,45.8,4.4,45.8c0.1,0.1,0.1,0.1,0.2,0.2c0.3,0.2,0.6,0.2,0.9,0.2
				c0.6,0,1-0.3,1-0.8v0c0-0.5-0.4-0.7-0.8-0.8l-0.1,0C5.2,44.4,5,44.3,5,44.1v0c0-0.2,0.2-0.3,0.4-0.3c0.3,0,0.6,0.1,0.8,0.2
				c0,0,0.1,0,0.1,0c0,0,0.1-0.3,0.1-0.3c0,0,0-0.1,0-0.1c-0.2-0.1-0.5-0.2-0.9-0.2l-0.1,0c-0.6,0-0.9,0.3-0.9,0.8v0
				c0,0.5,0.4,0.7,0.8,0.8l0.1,0c0.3,0.1,0.5,0.2,0.5,0.4v0c0,0.2-0.2,0.3-0.4,0.3c-0.1,0-0.4,0-0.8-0.2c0,0-0.1,0-0.1-0.1
				c0,0-0.1,0-0.1,0L4.4,45.8z"/>
			<path fill="#FFFFFF" d="M13.2,45.8C13.2,45.8,13.2,45.8,13.2,45.8c0.1,0.1,0.1,0.1,0.2,0.2c0.3,0.2,0.6,0.2,0.9,0.2
				c0.6,0,1-0.3,1-0.8v0c0-0.5-0.4-0.7-0.8-0.8l-0.1,0c-0.3-0.1-0.6-0.2-0.6-0.4v0c0-0.2,0.2-0.3,0.4-0.3c0.3,0,0.6,0.1,0.8,0.2
				c0,0,0.1,0,0.1,0c0,0,0.1-0.3,0.1-0.3c0,0,0-0.1,0-0.1c-0.2-0.1-0.5-0.2-0.9-0.2l-0.1,0c-0.6,0-0.9,0.3-0.9,0.8v0
				c0,0.5,0.4,0.7,0.8,0.8l0.1,0c0.3,0.1,0.5,0.2,0.5,0.4v0c0,0.2-0.2,0.3-0.4,0.3c-0.1,0-0.4,0-0.8-0.2c0,0-0.1,0-0.1-0.1
				c0,0-0.1,0-0.1,0L13.2,45.8z"/>
			<path fill="#FFFFFF" d="M19.8,44.2c0-0.2-0.1-0.3-0.2-0.4c-0.1-0.1-0.2-0.2-0.4-0.3c-0.2-0.1-0.3-0.1-0.5-0.1
				c-0.2,0-0.4,0-0.5,0.1c-0.2,0.1-0.3,0.2-0.4,0.3c-0.1,0.1-0.2,0.3-0.2,0.4c0,0.2-0.1,0.3-0.1,0.5c0,0.2,0,0.4,0.1,0.5
				c0,0.2,0.1,0.3,0.2,0.4c0.1,0.1,0.2,0.2,0.4,0.3c0.2,0.1,0.3,0.1,0.5,0.1c0.2,0,0.4,0,0.5-0.1c0.2-0.1,0.3-0.2,0.4-0.3
				c0.1-0.1,0.2-0.3,0.2-0.4c0-0.2,0.1-0.3,0.1-0.5C19.9,44.6,19.8,44.4,19.8,44.2 M19.3,44.8c0,0.3-0.1,0.5-0.2,0.7
				c-0.1,0.2-0.3,0.2-0.5,0.2c-0.2,0-0.4-0.1-0.5-0.2C18,45.3,18,45.1,18,44.8c0-0.3,0.1-0.5,0.2-0.7c0.1-0.2,0.3-0.2,0.5-0.2
				c0.2,0,0.4,0.1,0.5,0.2C19.2,44.2,19.3,44.5,19.3,44.8"/>
			<path fill-rule="evenodd" clip-rule="evenodd" fill="#FFFFFF" d="M23.9,45.6C23.9,45.6,23.9,45.6,23.9,45.6c-0.1,0-0.2,0-0.3,0
				c-0.1,0-0.2,0-0.3,0c-0.2,0-0.4-0.1-0.6-0.2c-0.1-0.1-0.2-0.4-0.2-0.7c0-0.3,0.1-0.5,0.2-0.7c0.1-0.2,0.3-0.2,0.6-0.2
				c0.2,0,0.4,0,0.5,0.1c0,0,0,0,0.1,0c0-0.1,0.1-0.2,0.1-0.3c0,0,0-0.1,0-0.1c-0.1,0-0.2-0.1-0.3-0.1c-0.1,0-0.2,0-0.4,0
				c-0.2,0-0.4,0-0.6,0.1c-0.2,0.1-0.3,0.2-0.4,0.3c-0.1,0.1-0.2,0.3-0.2,0.4C22,44.4,22,44.6,22,44.8c0,0.4,0.1,0.8,0.3,1
				c0.2,0.2,0.6,0.4,1,0.4c0.3,0,0.5-0.1,0.7-0.1c0,0,0,0,0-0.1L23.9,45.6z"/>
			<path fill-rule="evenodd" clip-rule="evenodd" fill="#FFFFFF" d="M26.5,44.1c0-0.2-0.1-0.3-0.2-0.4c-0.1-0.1-0.2-0.2-0.3-0.2
				c-0.1-0.1-0.3-0.1-0.5-0.1c-0.2,0-0.4,0-0.6,0.1c-0.2,0.1-0.3,0.2-0.4,0.3c-0.1,0.1-0.2,0.3-0.2,0.4c0,0.2-0.1,0.4-0.1,0.5
				c0,0.2,0,0.4,0.1,0.5c0.1,0.2,0.1,0.3,0.2,0.4c0.1,0.1,0.3,0.2,0.4,0.3c0.2,0.1,0.4,0.1,0.6,0.1c0.5,0,0.8-0.1,0.9-0.2
				c0,0,0,0,0-0.1l-0.1-0.3c0,0-0.1,0-0.1,0c-0.1,0-0.3,0.1-0.7,0.1c-0.3,0-0.5-0.1-0.6-0.2c-0.1-0.1-0.2-0.3-0.2-0.6l1.7,0
				c0,0,0,0,0,0C26.6,44.8,26.6,44.5,26.5,44.1 M24.8,44.5c0-0.2,0.1-0.3,0.1-0.4c0.1-0.2,0.3-0.2,0.5-0.2c0.2,0,0.4,0.1,0.5,0.2
				c0.1,0.1,0.1,0.2,0.1,0.4L24.8,44.5z"/>
			<path fill-rule="evenodd" clip-rule="evenodd" fill="#FFFFFF" d="M12.8,44.1c0-0.2-0.1-0.3-0.2-0.4c-0.1-0.1-0.2-0.2-0.3-0.2
				c-0.1-0.1-0.3-0.1-0.5-0.1c-0.2,0-0.4,0-0.6,0.1c-0.2,0.1-0.3,0.2-0.4,0.3c-0.1,0.1-0.2,0.3-0.2,0.4c0,0.2-0.1,0.4-0.1,0.5
				c0,0.2,0,0.4,0.1,0.5c0.1,0.2,0.1,0.3,0.2,0.4c0.1,0.1,0.3,0.2,0.4,0.3c0.2,0.1,0.4,0.1,0.6,0.1c0.5,0,0.8-0.1,0.9-0.2
				c0,0,0,0,0-0.1l-0.1-0.3c0,0-0.1,0-0.1,0c-0.1,0-0.3,0.1-0.7,0.1c-0.3,0-0.5-0.1-0.6-0.2c-0.1-0.1-0.2-0.3-0.2-0.6l1.7,0
				c0,0,0,0,0,0C12.9,44.8,12.9,44.5,12.8,44.1 M11.1,44.5c0-0.2,0.1-0.3,0.1-0.4c0.1-0.2,0.3-0.2,0.5-0.2c0.2,0,0.4,0.1,0.5,0.2
				c0.1,0.1,0.1,0.2,0.1,0.4L11.1,44.5z"/>
			<path fill="#FFFFFF" d="M8.1,44.4c-0.1,0-0.2,0-0.3,0c-0.1,0-0.3,0-0.4,0.1c-0.1,0-0.3,0.1-0.4,0.2c-0.1,0.1-0.2,0.2-0.2,0.3
				c-0.1,0.1-0.1,0.2-0.1,0.4c0,0.2,0,0.3,0.1,0.4c0.1,0.1,0.1,0.2,0.2,0.3c0.1,0.1,0.2,0.1,0.3,0.2c0.1,0,0.3,0,0.5,0
				c0.2,0,0.3,0,0.5,0c0.2,0,0.4-0.1,0.4-0.1c0.1,0,0.1,0,0.1,0c0,0,0-0.1,0-0.1l0-1.6c0-0.3-0.1-0.6-0.3-0.8
				c-0.2-0.2-0.4-0.2-0.8-0.2c-0.1,0-0.3,0-0.5,0c0,0-0.4,0.1-0.5,0.2c0,0,0,0,0,0.1L7,44c0,0,0.1,0,0.1,0s0,0,0,0
				c0.3-0.2,0.7-0.2,0.7-0.2c0.2,0,0.3,0,0.4,0.1c0.1,0.1,0.1,0.2,0.1,0.4v0.1C8.2,44.4,8.1,44.4,8.1,44.4 M7.4,45.6
				c-0.1-0.1-0.1-0.1-0.1-0.1c0-0.1-0.1-0.1-0.1-0.2c0-0.1,0-0.3,0.2-0.3c0,0,0.1-0.1,0.5-0.1c0.2,0,0.5,0,0.5,0l0,0.8
				c0,0-0.2,0-0.5,0.1C7.6,45.7,7.4,45.6,7.4,45.6"/>
			<path fill-rule="evenodd" clip-rule="evenodd" fill="#FFFFFF" d="M21.9,43.5C21.9,43.5,21.9,43.5,21.9,43.5
				c-0.1-0.1-0.2-0.1-0.3-0.1c-0.2,0-0.3,0-0.4,0.1c-0.1,0-0.2,0.1-0.3,0.2l0-0.2c0,0,0-0.1,0-0.1h-0.4c0,0,0,0,0,0.1l0,2.6
				c0,0,0,0.1,0.1,0.1h0.4c0,0,0.1,0,0.1-0.1l0-1.3c0-0.2,0-0.3,0.1-0.4c0-0.1,0.1-0.2,0.1-0.3c0.1-0.1,0.1-0.1,0.2-0.1
				c0.1,0,0.2,0,0.2,0c0.1,0,0.2,0,0.2,0c0,0,0.1,0,0.1,0C21.8,43.8,21.9,43.6,21.9,43.5"/>
			<path fill-rule="evenodd" clip-rule="evenodd" fill="#FFFFFF" d="M17.7,42.3c-0.1,0-0.1,0-0.2,0c-0.1,0-0.1,0-0.2,0
				c-0.3,0-0.6,0.1-0.7,0.3c-0.2,0.2-0.3,0.4-0.3,0.8l0,0.1h-0.4c0,0,0,0-0.1,0l-0.1,0.4c0,0,0,0.1,0.1,0.1h0.4L15.7,46
				c0,0.2-0.1,0.3-0.1,0.4c0,0.1-0.1,0.2-0.1,0.2c0,0.1-0.1,0.1-0.2,0.1c-0.1,0-0.1,0-0.2,0c0,0-0.1,0-0.1,0c0,0-0.1,0-0.1,0
				c0,0,0,0-0.1,0c0,0-0.1,0.3-0.1,0.3c0,0,0,0.1,0,0.1c0.1,0,0.1,0,0.2,0c0.1,0,0.2,0,0.3,0c0.2,0,0.3,0,0.4-0.1
				c0.1,0,0.2-0.1,0.3-0.2c0.1-0.1,0.2-0.2,0.2-0.4c0.1-0.2,0.1-0.3,0.2-0.6l0.4-2.2h0.6c0,0,0,0,0.1,0l0.1-0.4c0,0,0-0.1-0.1-0.1
				h-0.5c0,0,0-0.2,0.1-0.4c0-0.1,0.1-0.1,0.1-0.2c0,0,0.1-0.1,0.1-0.1c0.1,0,0.1,0,0.2,0c0.1,0,0.1,0,0.1,0c0.1,0,0.1,0,0.1,0
				c0.1,0,0.1,0,0.1,0L17.7,42.3C17.7,42.4,17.7,42.3,17.7,42.3"/>
			<path fill-rule="evenodd" clip-rule="evenodd" fill="#FFFFFF" d="M10,46C10,46.1,10,46.1,10,46l-0.5,0.1c0,0,0,0,0-0.1v-3.6
				c0,0,0-0.1,0-0.1H10c0,0,0,0,0,0.1V46z"/>
		</g>
		<path fill="#4F504F" d="M116.2,52.2c-0.7,0.3-1.4,0.5-2.2,0.6c0.8-0.5,1.4-1.2,1.7-2.1c-0.7,0.4-1.6,0.8-2.4,0.9
			c-0.7-0.7-1.7-1.2-2.8-1.2c-2.1,0-3.9,1.7-3.9,3.9c0,0.3,0,0.6,0.1,0.9c-3.2-0.2-6-1.7-7.9-4c-0.3,0.6-0.5,1.2-0.5,1.9
			c0,1.3,0.7,2.5,1.7,3.2c-0.6,0-1.2-0.2-1.7-0.5c0,0,0,0,0,0c0,1.9,1.3,3.4,3.1,3.8c-0.3,0.1-0.7,0.1-1,0.1c-0.2,0-0.5,0-0.7-0.1
			c0.5,1.5,1.9,2.6,3.6,2.7c-1.3,1-3,1.6-4.8,1.6c-0.3,0-0.6,0-0.9-0.1c1.7,1.1,3.7,1.7,5.9,1.7c7.1,0,11-5.9,11-11
			c0-0.2,0-0.3,0-0.5C115,53.6,115.6,53,116.2,52.2z"/>
		<g id="fb_16_">
			<g>
				<g>
					<path fill="#4F504F" d="M71.4,3.9l-2.6,0c-0.3,0-0.7,0.4-0.7,1v1.7l3.3,0l0,3.2l-3.2,0l0,7.9l-3.3,0l0-7.9l-2.6,0l0-3.2l2.6,0
						l0-1.6c0-2.4,1.7-4.2,3.9-4.2l2.6,0L71.4,3.9z"/>
				</g>
			</g>
		</g>
		<g>
			<g>
				<polyline fill="none" stroke="#C69AC3" stroke-width="0.654" stroke-miterlimit="10" points="83.6,15.9 83.6,15 84.4,15 				"/>
				
					<line fill="none" stroke="#C69AC3" stroke-width="0.654" stroke-miterlimit="10" stroke-dasharray="1.7462,1.7462" x1="86.2" y1="15" x2="113.3" y2="14.8"/>
				<polyline fill="none" stroke="#C69AC3" stroke-width="0.654" stroke-miterlimit="10" points="114.1,14.8 115,14.8 115,15.7 				
					"/>
				
					<line fill="none" stroke="#C69AC3" stroke-width="0.654" stroke-miterlimit="10" stroke-dasharray="1.5839,1.5839" x1="115" y1="17.3" x2="115" y2="32.3"/>
				<polyline fill="none" stroke="#C69AC3" stroke-width="0.654" stroke-miterlimit="10" points="115,33.1 115,34 114.1,34 				"/>
				
					<line fill="none" stroke="#C69AC3" stroke-width="0.654" stroke-miterlimit="10" stroke-dasharray="1.7462,1.7462" x1="112.4" y1="34" x2="85.3" y2="34"/>
				<polyline fill="none" stroke="#C69AC3" stroke-width="0.654" stroke-miterlimit="10" points="84.4,34 83.6,34 83.6,33.1 				"/>
				
					<line fill="none" stroke="#C69AC3" stroke-width="0.654" stroke-miterlimit="10" stroke-dasharray="1.9148,1.9148" x1="83.6" y1="31.2" x2="83.6" y2="16.8"/>
			</g>
		</g>
		<g>
			<g>
				<polyline fill="none" stroke="#C69AC3" stroke-width="0.654" stroke-miterlimit="10" points="16.3,4.1 16.3,3.2 17.2,3.2 				
					"/>
				
					<line fill="none" stroke="#C69AC3" stroke-width="0.654" stroke-miterlimit="10" stroke-dasharray="1.7462,1.7462" x1="18.9" y1="3.2" x2="46" y2="3.1"/>
				<polyline fill="none" stroke="#C69AC3" stroke-width="0.654" stroke-miterlimit="10" points="46.9,3.1 47.8,3.1 47.8,3.9 				
					"/>
				
					<line fill="none" stroke="#C69AC3" stroke-width="0.654" stroke-miterlimit="10" stroke-dasharray="1.5839,1.5839" x1="47.8" y1="5.5" x2="47.8" y2="20.6"/>
				<polyline fill="none" stroke="#C69AC3" stroke-width="0.654" stroke-miterlimit="10" points="47.8,21.4 47.8,22.2 46.9,22.2 
									"/>
				
					<line fill="none" stroke="#C69AC3" stroke-width="0.654" stroke-miterlimit="10" stroke-dasharray="1.7462,1.7462" x1="45.1" y1="22.2" x2="18.1" y2="22.2"/>
				<polyline fill="none" stroke="#C69AC3" stroke-width="0.654" stroke-miterlimit="10" points="17.2,22.2 16.3,22.2 16.3,21.4 
									"/>
				
					<line fill="none" stroke="#C69AC3" stroke-width="0.654" stroke-miterlimit="10" stroke-dasharray="1.9148,1.9148" x1="16.3" y1="19.4" x2="16.3" y2="5.1"/>
			</g>
		</g>
		<g>
			<g>
				<polyline fill="none" stroke="#C69AC3" stroke-width="0.75" stroke-miterlimit="10" points="38.7,54 38.7,53 39.7,53 				"/>
				
					<line fill="none" stroke="#C69AC3" stroke-width="0.75" stroke-miterlimit="10" stroke-dasharray="2.0702,2.0702" x1="41.8" y1="53" x2="78" y2="52.8"/>
				<polyline fill="none" stroke="#C69AC3" stroke-width="0.75" stroke-miterlimit="10" points="79.1,52.8 80.1,52.8 80.1,53.8 				
					"/>
				
					<line fill="none" stroke="#C69AC3" stroke-width="0.75" stroke-miterlimit="10" stroke-dasharray="1.9074,1.9074" x1="80.1" y1="55.7" x2="80.1" y2="70"/>
				<polyline fill="none" stroke="#C69AC3" stroke-width="0.75" stroke-miterlimit="10" points="80.1,70.9 80.1,71.9 79.1,71.9 				
					"/>
				
					<line fill="none" stroke="#C69AC3" stroke-width="0.75" stroke-miterlimit="10" stroke-dasharray="2.0702,2.0702" x1="77" y1="71.9" x2="40.8" y2="71.9"/>
				<polyline fill="none" stroke="#C69AC3" stroke-width="0.75" stroke-miterlimit="10" points="39.7,71.9 38.7,71.9 38.7,70.9 				
					"/>
				
					<line fill="none" stroke="#C69AC3" stroke-width="0.75" stroke-miterlimit="10" stroke-dasharray="1.8863,1.8863" x1="38.7" y1="69.1" x2="38.7" y2="54.9"/>
			</g>
		</g>
	</g>
</g>
<g id="Layer_4">
</g>
</svg>
