<?xml version="1.0" encoding="utf-8"?>
<!-- Generator: Adobe Illustrator 19.2.1, SVG Export Plug-In . SVG Version: 6.00 Build 0)  -->
<svg version="1.1" xmlns="http://www.w3.org/2000/svg" xmlns:xlink="http://www.w3.org/1999/xlink" x="0px" y="0px"
	 viewBox="0 0 744 452" enable-background="new 0 0 744 452" xml:space="preserve">
<g id="Layer_1">
</g>
<g id="Layer_2">
</g>
<g id="Layer_3">
</g>
<g id="Layer_4">
	<path opacity="0.1" d="M325.7,396.5c0.4,0,0.8,0.1,1.1,0.1v-0.1l88.8,0v0.1c4.6,0.5,8.2,3.6,8.2,7.4c0,4.2-4.2,7.5-9.3,7.5
		c-0.7,0-88.1,0-88.8,0c-5.1,0-9.3-3.4-9.3-7.5C316.4,399.9,320.6,396.5,325.7,396.5"/>
	<g>
		<rect x="59" y="203.6" fill="#E47F25" width="57.2" height="145.9"/>
		<rect x="63.5" y="210.2" fill="none" stroke="#513A27" stroke-width="0.768" stroke-miterlimit="10" width="48.2" height="43"/>
		<rect x="78.7" y="223.7" fill="#FDF59C" width="17.8" height="7.4"/>
		<rect x="78.7" y="227.4" fill="#513A27" width="17.8" height="3.7"/>
		<rect x="63.5" y="253.2" fill="none" stroke="#513A27" stroke-width="0.768" stroke-miterlimit="10" width="48.2" height="43"/>
		<rect x="78.7" y="266.7" fill="#FDF59C" width="17.8" height="7.4"/>
		<rect x="78.7" y="270.4" fill="#513A27" width="17.8" height="3.7"/>
		<rect x="63.5" y="296.2" fill="none" stroke="#513A27" stroke-width="0.768" stroke-miterlimit="10" width="48.2" height="43"/>
		<rect x="78.7" y="309.7" fill="#FDF59C" width="17.8" height="7.4"/>
		<rect x="78.7" y="313.4" fill="#513A27" width="17.8" height="3.7"/>
	</g>
	<g>
		<path fill="#515251" d="M641.2,86.9c0,14-11.4,25.4-25.4,25.4c-14,0-25.4-11.4-25.4-25.4c0-14,11.4-25.4,25.4-25.4
			C629.9,61.5,641.2,72.9,641.2,86.9"/>
		<path fill="#FFFFFF" d="M637.5,86.9c0,12-9.7,21.7-21.7,21.7c-12,0-21.7-9.7-21.7-21.7c0-12,9.7-21.7,21.7-21.7
			C627.8,65.2,637.5,75,637.5,86.9"/>
		<path fill="#1B1C1C" d="M617,86.9c0,0.7-0.5,1.2-1.2,1.2s-1.2-0.5-1.2-1.2c0-0.7,0.5-1.2,1.2-1.2S617,86.3,617,86.9"/>
		<rect x="615.5" y="66.4" fill="#1A1A1A" width="0.6" height="41.1"/>
		<rect x="595.2" y="86.6" fill="#1A1A1A" width="41.1" height="0.6"/>
		
			<rect x="615.5" y="66.4" transform="matrix(0.4955 -0.8686 0.8686 0.4955 235.2006 578.7719)" fill="#1A1A1A" width="0.6" height="41.1"/>
		<polygon fill="#1A1A1A" points="605.9,104.9 605.4,104.6 625.7,68.9 626.3,69.2 626.1,69.5 		"/>
		<polygon fill="#1A1A1A" points="625.8,104.9 625.7,104.6 605.3,69.3 605.8,68.9 626.3,104.6 		"/>
		<polygon fill="#1A1A1A" points="598.1,97.5 597.8,96.9 633.5,76.4 633.8,76.9 		"/>
		<path fill="#FFFFFF" d="M632.3,86.9c0,9.1-7.4,16.5-16.5,16.5c-9.1,0-16.5-7.4-16.5-16.5c0-9.1,7.4-16.5,16.5-16.5
			C624.9,70.4,632.3,77.8,632.3,86.9"/>
		<path fill="#1B1C1C" d="M617,86.9c0,0.7-0.5,1.2-1.2,1.2s-1.2-0.5-1.2-1.2c0-0.7,0.5-1.2,1.2-1.2S617,86.3,617,86.9"/>
		<path fill="#1A1A1A" d="M615.8,87.2c-0.1,0-0.2,0-0.2-0.1l-12.5-12.5c-0.1-0.1-0.1-0.3,0-0.4c0.1-0.1,0.3-0.1,0.4,0L616,86.7
			c0.1,0.1,0.1,0.3,0,0.4C616,87.2,615.9,87.2,615.8,87.2"/>
		<path fill="#1A1A1A" d="M615.8,87.2c-0.2,0-0.3-0.1-0.3-0.3c0-0.2,0.1-0.3,0.3-0.3h9.2c0.2,0,0.3,0.1,0.3,0.3
			c0,0.2-0.1,0.3-0.3,0.3H615.8z"/>
		<path fill="#E42129" d="M603.4,99.7c-0.1,0-0.2,0-0.2-0.1c-0.1-0.1-0.1-0.3,0-0.4L618.3,84c0.1-0.1,0.3-0.1,0.4,0
			c0.1,0.1,0.1,0.3,0,0.4l-15.1,15.1C603.5,99.7,603.4,99.7,603.4,99.7"/>
	</g>
	<g>
		
			<ellipse transform="matrix(0.9697 -0.2443 0.2443 0.9697 -32.0354 29.3496)" fill="#E6E6E6" cx="102.3" cy="143.8" rx="7.5" ry="7.5"/>
		
			<ellipse transform="matrix(0.9697 -0.2443 0.2443 0.9697 -34.8937 33.8331)" fill="#E6E6E6" cx="118.9" cy="157.6" rx="5.3" ry="5.3"/>
		
			<ellipse transform="matrix(0.9697 -0.2443 0.2443 0.9697 -36.0614 37.5448)" fill="#E6E6E6" cx="133.3" cy="164.1" rx="3.7" ry="3.7"/>
	</g>
	<g>
		<path fill="#E6E6E6" d="M138.7,42.1c-2.4-7.9-10.9-13.7-21.1-13.7c-0.1,0-0.1,0-0.2,0v0c0-9.9-9.7-18-21.6-18
			c-8.2,0-15.4,3.8-19,9.5c-2.1-0.6-4.4-1-6.8-1c-11.2,0-20.3,7.6-20.3,16.9c0,0.1,0,0.1,0,0.1c-0.9-0.1-1.8-0.1-2.7-0.1
			c-12.7,0-23,8.6-23,19.2c0,10.6,10.3,19.2,23,19.2l84.3,0l0,0c11,0,19.9-7.4,19.9-16.6C151.2,50.5,146,44.6,138.7,42.1"/>
		<path fill="#E6E6E6" d="M138.7,99.4c-2.4,7.9-10.9,13.7-21.1,13.7c-0.1,0-0.1,0-0.2,0v0c0,9.9-9.7,18-21.6,18
			c-8.2,0-15.4-3.8-19-9.5c-2.1,0.6-4.4,1-6.8,1c-11.2,0-20.3-7.6-20.3-16.9c0-0.1,0-0.1,0-0.1c-0.9,0.1-1.8,0.1-2.7,0.1
			c-12.7,0-23-8.6-23-19.2c0-10.6,10.3-19.2,23-19.2l84.3,0l0,0c11,0,19.9,7.4,19.9,16.6C151.2,91,146,96.9,138.7,99.4"/>
		<path fill="#E6E6E6" d="M90.4,42.1c2.4-7.9,10.9-13.7,21.1-13.7c0.1,0,0.1,0,0.2,0v0c0-9.9,9.7-18,21.6-18c8.2,0,15.4,3.8,19,9.5
			c2.1-0.6,4.4-1,6.8-1c11.2,0,20.3,7.6,20.3,16.9c0,0.1,0,0.1,0,0.1c0.9-0.1,1.8-0.1,2.7-0.1c12.7,0,23,8.6,23,19.2
			c0,10.6-10.3,19.2-23,19.2l-84.3,0l0,0c-11,0-19.9-7.4-19.9-16.6C77.9,50.5,83.1,44.6,90.4,42.1"/>
		<path fill="#E6E6E6" d="M90.4,99.4c2.4,7.9,10.9,13.7,21.1,13.7c0.1,0,0.1,0,0.2,0v0c0,9.9,9.7,18,21.6,18c8.2,0,15.4-3.8,19-9.5
			c2.1,0.6,4.4,1,6.8,1c11.2,0,20.3-7.6,20.3-16.9c0-0.1,0-0.1,0-0.1c0.9,0.1,1.8,0.1,2.7,0.1c12.7,0,23-8.6,23-19.2
			c0-10.6-10.3-19.2-23-19.2l-84.3,0l0,0c-11,0-19.9,7.4-19.9,16.6C77.9,91,83.1,96.9,90.4,99.4"/>
	</g>
	<path opacity="0.1" d="M142.4,396.5c0.4,0,0.8,0.1,1.1,0.1v-0.1l88.8,0v0.1c4.6,0.5,8.2,3.6,8.2,7.4c0,4.2-4.2,7.5-9.3,7.5
		c-0.7,0-88.1,0-88.8,0c-5.1,0-9.3-3.4-9.3-7.5C133,399.9,137.2,396.5,142.4,396.5"/>
	<g>
		<path fill="#DC5B26" d="M179.3,167.3l-4.5-0.2l-1,4l-11,1.5l4.9,35.6l12.6-1.7l-4.1-29.9C176,174,175.9,168.9,179.3,167.3"/>
		<polygon fill="#DC5B26" points="186.9,163.9 190,175.8 183.5,175.6 		"/>
		<path fill="#DC5B26" d="M160.8,155.1l-1.9,10.9l1.9,3.5c0,0.9-0.1-2.3,0-1.4l4.4,7.2c0.9,2.9,2.1,5.3,3.5,7.3
			c2.9,3.3,8.3,6.4,18,5.5l0.9-32.3L160.8,155.1z"/>
		<path fill="#1D4483" d="M154.3,156.7c0.6-5.2,2.5-10.7,6.5-13.7c1.1,2.7,4,6,3.7,7.9c0,0.1,5.9,5.2,0.6,15.4c0,0,3.9-0.1-0.2,7.3
			C165,173.6,152.7,171.7,154.3,156.7"/>
		<path fill="#1D4483" d="M186.9,155.7l4.1-2.4c-4.1-7.4-11.7-4.8-11.7-4.8l3.9-5.2c-9.3-2.7-15,5.2-15,5.2l2.9-6.9
			c-13.1,1.1-15.3,13-15.3,13l-0.3,10.4l5.4,4.5l7-3l-0.2,1.9l2.9-0.4c7.6-2.2,9.3-6.8,9.3-6.8l-1,3.7c5-1.4,6.8-3.5,7.5-5.2
			l2.8,1.5C189.9,158,188,156.4,186.9,155.7"/>
		<path fill="#DC5B26" d="M168.4,164.2c-3-0.1-5.5,2.3-5.6,5.3c-0.1,3,2.3,5.5,5.3,5.6L168.4,164.2z"/>
		<path fill="#F58B21" d="M168.3,166.9c-1.5,0-2.7,1.1-2.8,2.6c0,1.5,1.1,2.7,2.6,2.8L168.3,166.9z"/>
		<polygon fill="#1F3D75" points="202.5,404.9 179.3,404.9 179.3,401.4 176.1,398.2 176.1,397.3 198.3,397.3 202.5,401.4 		"/>
		<polygon fill="#1F3D75" points="179.3,404.9 152.9,404.9 152.9,397.3 175.2,397.3 176.1,398.2 179.3,401.4 		"/>
		<rect x="176" y="293.5" fill="#9C4F96" width="14.9" height="96.6"/>
		<polygon fill="#672A7A" points="183.1,390.1 176.1,390.1 176.1,294.5 183.1,294.4 		"/>
		<rect x="152.9" y="293.5" fill="#9C4F96" width="14.9" height="96.6"/>
		<rect x="152.9" y="293.5" fill="#672A7A" width="7.1" height="96.6"/>
		<path fill="#9C4F96" d="M172.9,294.6l28.5-0.5c0,0-5.5-23.5-10-40.8c2.8-21.9,11.9-53.4,11.9-53.4l-23.5-7.3l-8.1,32.4l-8-32.4
			l-21.4,7.4l5.6,12.1c0,0,6.5,32.6,5.1,41c-1.5,8.3-9.5,41.9-9.5,41.9h7.7l19.5-0.3l0.9-5.8L172.9,294.6"/>
		<polygon fill="#1D4483" points="202.5,401.4 191.1,390.1 176.1,390.1 176.1,404.9 202.5,404.9 		"/>
		<polygon fill="#1D4483" points="179.3,401.4 168,390.1 152.9,390.1 152.9,404.9 179.3,404.9 		"/>
		<polygon fill="#672A7A" points="181.7,191.2 177.7,191.2 171.7,214.4 164.7,191.2 161.8,191.2 158.9,201 161,203.2 158.9,205.3 
			171.7,245.4 184.6,205.3 182.5,203.2 184.6,201 		"/>
		<polygon fill="#FFFFFF" points="175.3,192.5 171.8,205 167.2,193.1 163.5,190.2 163.5,197.3 171.7,230.3 180,197.3 180,189.5 		
			"/>
		<polygon fill="#672A7A" points="193.3,276.2 176.1,270.5 176.1,265.8 193.3,271.5 		"/>
		<polygon fill="#672A7A" points="151.9,276.2 169.2,270.5 169.2,265.8 151.9,271.5 		"/>
		<path fill="#672A7A" d="M173.5,258.2c0,0.9-0.8,1.7-1.7,1.7c-0.9,0-1.7-0.8-1.7-1.7c0-0.9,0.8-1.7,1.7-1.7
			C172.7,256.5,173.5,257.3,173.5,258.2"/>
		<path fill="#FFFFFF" d="M173.5,209.9c0,0.9-0.8,1.7-1.7,1.7c-0.9,0-1.7-0.8-1.7-1.7c0-0.9,0.8-1.7,1.7-1.7
			C172.7,208.2,173.5,209,173.5,209.9"/>
		<path fill="#9C4F96" d="M130.5,284.7c0-51.1,11.8-84.4,11.9-84.8h1.3v0l10.2,3.6c0,0-0.7,1.8-1.7,5.6c-1.1,3.7-2.5,9.3-3.9,16.4
			c-2.8,14.2-5.7,34.6-5.7,59.3h-10.8H130.5z"/>
		<g>
			<rect x="106.7" y="287.5" fill="#585A5C" width="49.6" height="37.9"/>
			<polygon fill="#4F5052" points="142.2,325.4 106.7,325.4 106.7,287.5 120.1,287.5 			"/>
		</g>
		<path fill="#DC5B26" d="M130.4,291.1l0,0.2c0,3.4,2.7,6.1,6.1,6.1c3.3,0,6.1-2.7,6.1-6.1l0-0.2h0l0-6.3l-12.1,0L130.4,291.1
			L130.4,291.1z"/>
		<path fill="#9C4F96" d="M189.3,206.1c0.3-0.4,0.5-0.8,0.8-1.2l9.4,6c-0.2,0.4-0.4,0.7-0.6,1c-4.2,7-5.1,13-4.4,18.5
			c0.7,5.6,3.3,10.8,6.7,15.5c6.8,9.3,17,15.9,19,17.1c0.3,0.2,0.4,0.2,0.4,0.2l0,0l-5.6,9.7c0,0-0.2-0.1-0.6-0.3
			c-2.1-1.3-8.8-5.5-15.6-12.4c-6.8-6.8-13.8-16.3-15.5-28.3c-1.1-8,0.5-16.8,5.8-25.7L189.3,206.1"/>
		<path fill="#F04F24" d="M220,275.7l0.2,0.1c2.7,1.5,6.1,0.6,7.6-2c1.5-2.7,0.6-6.1-2-7.6l-0.2-0.1l0,0l-5-2.9l-5.6,9.6L220,275.7
			L220,275.7z"/>
		<path fill="none" stroke="#17244E" stroke-width="0.5389" stroke-miterlimit="10" d="M179.2,171.3c0,0-0.3-1,1.2-1.6
			c1.5-0.6,2.2,0.5,2.2,0.5"/>
	</g>
	<g>
		<rect x="546.8" y="211.5" fill="#A0A0A0" width="31.5" height="41.2"/>
		<rect x="551.4" y="214.1" fill="#4F504F" width="24.7" height="36.1"/>
		<path opacity="0.1" d="M557.5,394.5c0.4,0,0.7,0.1,1.1,0.1v-0.1h84.2v0.1c4.4,0.4,7.8,3.4,7.8,7.1c0,3.9-4,7.1-8.8,7.1
			c-0.6,0-83.6,0-84.3,0c-4.9,0-8.8-3.2-8.8-7.1C548.6,397.7,552.6,394.5,557.5,394.5"/>
		<rect x="594.2" y="290" fill="#008372" width="14.1" height="98.4"/>
		<rect x="616.1" y="290" fill="#008372" width="14.1" height="98.4"/>
		<polygon fill="#00B193" points="583.2,399.2 594,388.4 608.3,388.4 608.3,402.5 583.2,402.5 		"/>
		<polygon fill="#00B193" points="605.2,399.2 615.9,388.4 630.2,388.4 630.2,402.5 605.2,402.5 		"/>
		<path fill="#04AF91" d="M595.7,245.5c-5.9-3.7-6.6-21.4-6.7-27.7v-2.2v-23.5h49.4v101.7H589v-18.5
			C589,250.2,595.7,245.5,595.7,245.5"/>
		<path fill="#6E573E" d="M537.4,265.7l-0.2,0c-3.2,0.1-6-2.4-6.1-5.6c-0.1-3.2,2.4-6,5.6-6.1l0.2,0l0,0l6-0.3l0.5,11.7L537.4,265.7
			L537.4,265.7z"/>
		<path fill="#D5C7AA" d="M537.2,265.7c-3.2,0.1-6-2.4-6.1-5.6c0-1,0.2-2,0.7-2.9c2.2-1.8,5.5-1.8,7.6,0.2c2.4,2.2,2.5,5.8,0.4,8.2
			l-2.4,0.1l0,0L537.2,265.7z"/>
		<path fill="#A98864" d="M537.2,265.7c-3.2,0.1-6-2.4-6.1-5.6c0-1,0.2-2,0.7-2.9c2.2-1.8,5.5-1.8,7.6,0.2c2.4,2.2,2.5,5.8,0.4,8.2
			l-2.4,0.1l0,0L537.2,265.7z"/>
		<path fill="#3DB4DC" d="M619,274.9L619,274.9L619,274.9z M619,275L619,275L619,275 M619,275.1L619,275.1L619,275.1 M619,275.1
			L619,275.1L619,275.1 M619,275.2L619,275.2L619,275.2 M619,275.3L619,275.3L619,275.3"/>
		<path fill="#008372" d="M589,294.8h12.3h6.5h14.8h6.5h9.3v-74.4l-48.8,43.9c-0.4,3.2-0.6,7.1-0.6,11.5v0v0v0v0v0v0v0.1v0v0v0v0.1
			V294.8"/>
		<path fill="#6E573E" d="M619,192.1c-1,3.8-4.4,6.6-8.5,6.6c-4.1,0-7.5-2.8-8.5-6.6H619z"/>
		<path fill="#010101" d="M597.9,169.1c0,0.6,0.6,1,1.1,1c0.6,0,1-0.6,1-1.1c0-0.6-0.6-1-1.1-1C598.3,168,597.8,168.5,597.9,169.1"
			/>
		<polygon fill="#A98864" points="591.7,163.7 589.3,175.5 595.7,175 		"/>
		<path fill="#6E573E" d="M607,175.2l1.2,4l8.3,0.8l-1.2,13.6l-5.8,5.1l-4.2-6l0.7-7.8c0.1-2.6-0.3-7-3.8-8.5L607,175.2z"/>
		<path fill="#6E573E" d="M616.9,153.6l1.5,18.5l0,0.1c0,0.9,0,1.8-0.1,2.7l-4.6-1.1c-0.7,2.9-1.8,5.3-3.1,7.4
			c-2.7,3.4-7.8,6.7-17.4,6.4l-0.6-7l-1.1-13.2l-1-11.6L616.9,153.6"/>
		<path fill="#1D4583" d="M590.8,155.7l0-0.2C590.8,155.6,590.8,155.7,590.8,155.7L590.8,155.7z"/>
		<polygon fill="#1D4583" points="630.8,155.5 630.8,155.5 630.8,155.5 		"/>
		<polygon fill="#1D4583" points="590.9,155.8 590.9,155.7 591,155.8 		"/>
		<path fill="#1B1C1C" d="M604.4,145.6c1.8,0.9,3,1.1,5.1,0.9c1.7-0.1,2.9-0.1,4.5,0.7c1.4,0.7,2.5,3,2.7,5.1
			c5.4,0.5,11.3,0.6,13.7,6.3c2.6,6.1-1.4,8.6-5.3,12.1c-3.6,3.3-4.2,10.5-10,10.9c-1.7,0.1-3-0.3-3.9-1.1c1-1.8,1.9-3.9,2.6-6.3
			c-2.5-4.3-3.1-9.4-3.2-11c-0.4-0.2-0.7-0.4-1-0.7c-0.4-0.3-0.7-0.5-1.1-0.7c-1.9-1-3.4-0.5-6-0.4c-3.7,0.1-9.8-1.8-11.5-5.6l0.1,0
			l-0.1,0c0-0.1-0.1-0.1-0.1-0.2l0,0C590.1,148.7,598.6,142.9,604.4,145.6"/>
		<path fill="#6E573E" d="M609.9,162.9c2.9-0.2,5.5,1.9,5.8,4.9c0.2,2.9-1.9,5.5-4.9,5.8L609.9,162.9"/>
		<g>
			<g>
				<path fill="#BAD80A" d="M581.7,208.7c-3.7-3.7-15.6-5.9-15.6-5.9s2.4,11.8,6.2,15.5c2.6,2.6,6.9,2.6,9.5-0.1
					C584.4,215.5,584.4,211.3,581.7,208.7"/>
				<polygon fill="#009E49" points="579.8,209.1 579.3,214.6 576.5,212.2 576.1,206.8 575.6,211.3 572.8,208.9 572.4,206.3 
					571.9,208.1 567.2,203.8 573,210.1 570.5,210.6 573.7,210.9 575.6,212.9 571.6,213.4 576.4,213.7 579.2,216.8 574.1,217.3 
					579.9,217.6 584.8,222.9 589.5,223.9 580.2,215.5 				"/>
			</g>
			<g>
				<path fill="#BAD80A" d="M595.1,211.6c1.1-5.1-3.3-16.3-3.3-16.3s-8.7,8.3-9.8,13.4c-0.8,3.6,1.5,7.2,5.1,8
					C590.7,217.5,594.3,215.2,595.1,211.6"/>
				<polygon fill="#009E49" points="593.8,210.1 588.8,212.7 589.4,209 593.7,205.8 589.6,207.8 590.3,204.1 592.2,202.4 590.5,203 
					591.5,196.7 589.3,205 587.6,203 589,206 588.3,208.7 585.7,205.5 588,209.7 586.9,213.7 583.8,209.7 586.6,214.8 583.7,225.4 
					587.9,222.5 588.6,213.9 				"/>
			</g>
			<g>
				<path fill="#BAD80A" d="M602.2,219.6c3.8-3.6,6.5-15.3,6.5-15.3s-11.9,2-15.7,5.6c-2.7,2.5-2.8,6.8-0.3,9.5
					C595.2,222,599.5,222.1,602.2,219.6"/>
				<polygon fill="#009E49" points="601.8,217.6 596.3,216.9 598.9,214.3 604.2,214 599.8,213.3 602.3,210.7 604.9,210.3 
					603.2,209.8 607.6,205.3 601.1,210.8 600.7,208.3 600.3,211.5 598.2,213.3 597.8,209.3 597.3,214 594.2,216.7 593.8,211.7 
					593.3,217.5 585.4,223.9 589.5,223.9 595.4,217.8 				"/>
			</g>
		</g>
		<polygon fill="#D9D181" points="610.6,170.1 610.2,165.6 610.2,165.6 		"/>
		<path fill="#A98864" d="M610.6,170.9c1.5-0.1,2.6-1.4,2.4-2.9c-0.1-1.3-1.1-2.3-2.4-2.4c-0.2,0-0.3,0-0.5,0l0.4,4.5L610.6,170.9"
			/>
		<rect x="537" y="219" fill="#FDB813" width="68.2" height="59.9"/>
		<rect x="576.7" y="219" fill="#F58B21" width="28.5" height="59.9"/>
		<path fill="#04AF91" d="M582.4,262.3c39-31.1,52-53.7,52.3-54l0,0l-3.6-12.4c0,0-1,1.6-3.2,4.7c-2.2,3.1-5.6,7.5-10.1,13
			c-9.1,10.8-23,25.5-41.9,40.5L582.4,262.3z"/>
		<path fill="#6E573E" d="M578,265.7l-0.2,0.1c-2.3,1.8-5.7,1.5-7.5-0.8c-1.8-2.3-1.4-5.6,0.9-7.5l0.2-0.1l0,0l4.3-3.5l6.6,8.3
			L578,265.7L578,265.7z"/>
		<path fill="#1B1C1C" d="M614.3,180.5c0,0,24.6,4.5,20.1,29C634.4,209.5,609.8,205,614.3,180.5"/>
		<path fill="none" stroke="#FFFFFF" stroke-width="0.5114" stroke-miterlimit="10" d="M597.6,168.4c0,0,0.1-1,1.6-1
			c1.5,0,1.8,1.3,1.8,1.3"/>
	</g>
</g>
</svg>
