<?xml version="1.0" encoding="utf-8"?>
<!-- Generator: Adobe Illustrator 19.2.1, SVG Export Plug-In . SVG Version: 6.00 Build 0)  -->
<svg version="1.1" xmlns="http://www.w3.org/2000/svg" xmlns:xlink="http://www.w3.org/1999/xlink" x="0px" y="0px"
	 viewBox="0 0 211 170" enable-background="new 0 0 211 170" xml:space="preserve">
<g id="Layer_1">
</g>
<g id="Layer_2">
</g>
<g id="Layer_3">
	<g>
		<g>
			<path fill="#4F504F" d="M50.8,6.7h-1V2.6c0-0.3,0-0.7,0.1-1.2h0c-0.1,0.3-0.1,0.5-0.2,0.6l-1.9,4.7H47L45.1,2
				C45.1,1.9,45,1.6,45,1.4h0c0,0.3,0,0.7,0,1.2v4.1h-1V0.4h1.5l1.7,4.2c0.1,0.3,0.2,0.6,0.2,0.7h0c0.1-0.3,0.2-0.6,0.3-0.7l1.7-4.2
				h1.4V6.7z"/>
			<path fill="#4F504F" d="M57.5,6.7h-1.1l-0.6-1.6h-2.5l-0.5,1.6h-1.1L54,0.4h1.2L57.5,6.7z M55.5,4.2l-0.9-2.5
				c0-0.1-0.1-0.2-0.1-0.4h0c0,0.2-0.1,0.3-0.1,0.4l-0.9,2.5H55.5z"/>
			<path fill="#4F504F" d="M63.2,6.7H62L61,5c-0.1-0.2-0.2-0.3-0.3-0.4c-0.1-0.1-0.2-0.2-0.3-0.3c-0.1-0.1-0.2-0.1-0.3-0.2
				s-0.2,0-0.4,0h-0.4v2.6h-1V0.4h2.1c0.3,0,0.6,0,0.8,0.1s0.5,0.2,0.7,0.3c0.2,0.1,0.3,0.3,0.4,0.5c0.1,0.2,0.2,0.5,0.2,0.7
				c0,0.2,0,0.4-0.1,0.6c-0.1,0.2-0.2,0.4-0.3,0.5c-0.1,0.1-0.3,0.3-0.4,0.4c-0.2,0.1-0.4,0.2-0.6,0.2v0c0.1,0.1,0.2,0.1,0.3,0.2
				c0.1,0.1,0.2,0.2,0.2,0.2s0.2,0.2,0.2,0.3c0.1,0.1,0.2,0.2,0.2,0.4L63.2,6.7z M59.4,1.2v2h0.9c0.2,0,0.3,0,0.4-0.1
				c0.1,0,0.3-0.1,0.4-0.2s0.2-0.2,0.2-0.3s0.1-0.3,0.1-0.5c0-0.3-0.1-0.5-0.3-0.7s-0.5-0.3-0.8-0.3H59.4z"/>
			<path fill="#4F504F" d="M68.7,6.7h-1.4l-2.2-2.9c-0.1-0.1-0.1-0.2-0.1-0.2h0v3.1h-1V0.4h1v3h0c0-0.1,0.1-0.1,0.1-0.2l2.1-2.7h1.3
				l-2.5,3L68.7,6.7z"/>
			<path fill="#4F504F" d="M73,6.7h-3.5V0.4h3.4v0.9h-2.4V3h2.2v0.9h-2.2v1.9H73V6.7z"/>
			<path fill="#4F504F" d="M78.2,1.3h-1.8v5.4h-1V1.3h-1.8V0.4h4.7V1.3z"/>
			<path fill="#4F504F" d="M80.2,6.7h-1.1V0.4h1.1V6.7z"/>
			<path fill="#4F504F" d="M87.1,6.7H86L83,2c-0.1-0.1-0.1-0.2-0.2-0.4h0c0,0.1,0,0.4,0,0.9v4.1h-1V0.4H83l2.9,4.5
				c0.1,0.2,0.2,0.3,0.2,0.4h0c0-0.2,0-0.4,0-0.8V0.4h1V6.7z"/>
			<path fill="#4F504F" d="M93.6,6.2c-0.7,0.4-1.4,0.5-2.2,0.5c-0.9,0-1.7-0.3-2.3-0.9s-0.9-1.3-0.9-2.3c0-1,0.3-1.8,0.9-2.4
				c0.6-0.6,1.4-0.9,2.4-0.9c0.7,0,1.3,0.1,1.8,0.3v1.1c-0.5-0.3-1.1-0.5-1.7-0.5c-0.7,0-1.2,0.2-1.6,0.7c-0.4,0.4-0.6,1-0.6,1.7
				c0,0.7,0.2,1.3,0.6,1.7c0.4,0.4,0.9,0.6,1.5,0.6c0.4,0,0.8-0.1,1.1-0.3V4.1h-1.3V3.2h2.4V6.2z"/>
		</g>
		<g>
			<path fill="#4F504F" d="M103,6.4V5.3c0.1,0.1,0.2,0.2,0.3,0.2c0.1,0.1,0.3,0.1,0.4,0.2c0.1,0,0.3,0.1,0.4,0.1s0.3,0,0.4,0
				c0.4,0,0.8-0.1,1-0.2c0.2-0.1,0.3-0.4,0.3-0.6c0-0.1,0-0.3-0.1-0.4c-0.1-0.1-0.2-0.2-0.3-0.3s-0.3-0.2-0.5-0.3
				c-0.2-0.1-0.4-0.2-0.6-0.3c-0.2-0.1-0.4-0.2-0.6-0.3s-0.3-0.2-0.5-0.4c-0.1-0.1-0.2-0.3-0.3-0.5C103.1,2.4,103,2.2,103,2
				c0-0.3,0.1-0.6,0.2-0.8c0.1-0.2,0.3-0.4,0.5-0.5c0.2-0.1,0.5-0.2,0.7-0.3c0.3-0.1,0.6-0.1,0.9-0.1c0.7,0,1.1,0.1,1.4,0.2v1
				c-0.4-0.3-0.8-0.4-1.4-0.4c-0.2,0-0.3,0-0.5,0c-0.2,0-0.3,0.1-0.4,0.1c-0.1,0.1-0.2,0.2-0.3,0.3s-0.1,0.2-0.1,0.4
				c0,0.1,0,0.3,0.1,0.4s0.1,0.2,0.3,0.3c0.1,0.1,0.3,0.2,0.4,0.2c0.2,0.1,0.4,0.2,0.6,0.3c0.2,0.1,0.4,0.2,0.6,0.4
				c0.2,0.1,0.4,0.3,0.5,0.4c0.1,0.2,0.3,0.3,0.4,0.5c0.1,0.2,0.1,0.4,0.1,0.6c0,0.3-0.1,0.6-0.2,0.8s-0.3,0.4-0.5,0.5
				c-0.2,0.1-0.5,0.2-0.8,0.3s-0.6,0.1-0.9,0.1c-0.1,0-0.2,0-0.4,0c-0.2,0-0.3,0-0.5-0.1c-0.2,0-0.3-0.1-0.5-0.1S103.1,6.5,103,6.4z
				"/>
			<path fill="#4F504F" d="M113.4,6.7h-1.1l-0.6-1.6h-2.5l-0.5,1.6h-1.1l2.4-6.3h1.2L113.4,6.7z M111.4,4.2l-0.9-2.5
				c0-0.1-0.1-0.2-0.1-0.4h0c0,0.2-0.1,0.3-0.1,0.4l-0.9,2.5H111.4z"/>
			<path fill="#4F504F" d="M117.8,6.7h-3.5V0.4h1v5.4h2.4V6.7z"/>
			<path fill="#4F504F" d="M122.2,6.7h-3.5V0.4h3.4v0.9h-2.4V3h2.2v0.9h-2.2v1.9h2.5V6.7z"/>
			<path fill="#4F504F" d="M123,6.4V5.3c0.1,0.1,0.2,0.2,0.3,0.2c0.1,0.1,0.3,0.1,0.4,0.2c0.1,0,0.3,0.1,0.4,0.1s0.3,0,0.4,0
				c0.4,0,0.8-0.1,1-0.2c0.2-0.1,0.3-0.4,0.3-0.6c0-0.1,0-0.3-0.1-0.4c-0.1-0.1-0.2-0.2-0.3-0.3s-0.3-0.2-0.5-0.3
				c-0.2-0.1-0.4-0.2-0.6-0.3c-0.2-0.1-0.4-0.2-0.6-0.3s-0.3-0.2-0.5-0.4c-0.1-0.1-0.2-0.3-0.3-0.5C123.1,2.4,123,2.2,123,2
				c0-0.3,0.1-0.6,0.2-0.8c0.1-0.2,0.3-0.4,0.5-0.5c0.2-0.1,0.5-0.2,0.7-0.3c0.3-0.1,0.6-0.1,0.9-0.1c0.7,0,1.1,0.1,1.4,0.2v1
				c-0.4-0.3-0.8-0.4-1.4-0.4c-0.2,0-0.3,0-0.5,0c-0.2,0-0.3,0.1-0.4,0.1c-0.1,0.1-0.2,0.2-0.3,0.3s-0.1,0.2-0.1,0.4
				c0,0.1,0,0.3,0.1,0.4s0.1,0.2,0.3,0.3c0.1,0.1,0.3,0.2,0.4,0.2c0.2,0.1,0.4,0.2,0.6,0.3c0.2,0.1,0.4,0.2,0.6,0.4
				c0.2,0.1,0.4,0.3,0.5,0.4c0.1,0.2,0.3,0.3,0.4,0.5c0.1,0.2,0.1,0.4,0.1,0.6c0,0.3-0.1,0.6-0.2,0.8s-0.3,0.4-0.5,0.5
				c-0.2,0.1-0.5,0.2-0.8,0.3s-0.6,0.1-0.9,0.1c-0.1,0-0.2,0-0.4,0c-0.2,0-0.3,0-0.5-0.1c-0.2,0-0.3-0.1-0.5-0.1S123.1,6.5,123,6.4z
				"/>
		</g>
		<g>
			<path fill="#4F504F" d="M145.1,1.3h-2.4v1.9h2.2V4h-2.2v2.6h-1V0.4h3.4V1.3z"/>
			<path fill="#4F504F" d="M147.3,6.7h-1.1V0.4h1.1V6.7z"/>
			<path fill="#4F504F" d="M154.2,6.7H153L150,2c-0.1-0.1-0.1-0.2-0.2-0.4h0c0,0.1,0,0.4,0,0.9v4.1h-1V0.4h1.2l2.9,4.5
				c0.1,0.2,0.2,0.3,0.2,0.4h0c0-0.2,0-0.4,0-0.8V0.4h1V6.7z"/>
			<path fill="#4F504F" d="M160.9,6.7h-1.1l-0.6-1.6h-2.5l-0.5,1.6H155l2.4-6.3h1.2L160.9,6.7z M158.9,4.2L158,1.7
				c0-0.1-0.1-0.2-0.1-0.4h0c0,0.2-0.1,0.3-0.1,0.4L157,4.2H158.9z"/>
			<path fill="#4F504F" d="M167.1,6.7H166l-3-4.6c-0.1-0.1-0.1-0.2-0.2-0.4h0c0,0.1,0,0.4,0,0.9v4.1h-1V0.4h1.2l2.9,4.5
				c0.1,0.2,0.2,0.3,0.2,0.4h0c0-0.2,0-0.4,0-0.8V0.4h1V6.7z"/>
			<path fill="#4F504F" d="M173.1,6.4c-0.5,0.2-1.1,0.4-1.8,0.4c-0.9,0-1.6-0.3-2.2-0.9s-0.8-1.3-0.8-2.3c0-1,0.3-1.8,0.9-2.4
				s1.4-0.9,2.3-0.9c0.6,0,1.1,0.1,1.5,0.3v1c-0.4-0.3-0.9-0.4-1.4-0.4c-0.7,0-1.2,0.2-1.7,0.7c-0.4,0.4-0.6,1-0.6,1.7
				c0,0.7,0.2,1.2,0.6,1.7c0.4,0.4,0.9,0.6,1.6,0.6c0.6,0,1.1-0.1,1.5-0.4V6.4z"/>
			<path fill="#4F504F" d="M177.8,6.7h-3.5V0.4h3.4v0.9h-2.4V3h2.2v0.9h-2.2v1.9h2.5V6.7z"/>
		</g>
		<g>
			<path fill="#4F504F" d="M201.2,6.7h-1V3.9h-3v2.7h-1V0.4h1V3h3V0.4h1V6.7z"/>
			<path fill="#4F504F" d="M207.6,6.7h-1.2l-1-1.7c-0.1-0.2-0.2-0.3-0.3-0.4c-0.1-0.1-0.2-0.2-0.3-0.3c-0.1-0.1-0.2-0.1-0.3-0.2
				s-0.2,0-0.4,0h-0.4v2.6h-1V0.4h2.1c0.3,0,0.6,0,0.8,0.1s0.5,0.2,0.7,0.3c0.2,0.1,0.3,0.3,0.4,0.5c0.1,0.2,0.2,0.5,0.2,0.7
				c0,0.2,0,0.4-0.1,0.6c-0.1,0.2-0.2,0.4-0.3,0.5c-0.1,0.1-0.3,0.3-0.4,0.4c-0.2,0.1-0.4,0.2-0.6,0.2v0c0.1,0.1,0.2,0.1,0.3,0.2
				c0.1,0.1,0.2,0.2,0.2,0.2s0.2,0.2,0.2,0.3c0.1,0.1,0.2,0.2,0.2,0.4L207.6,6.7z M203.8,1.2v2h0.9c0.2,0,0.3,0,0.4-0.1
				c0.1,0,0.3-0.1,0.4-0.2s0.2-0.2,0.2-0.3s0.1-0.3,0.1-0.5c0-0.3-0.1-0.5-0.3-0.7s-0.5-0.3-0.8-0.3H203.8z"/>
		</g>
		<g>
			<path fill="#515150" d="M19,52.7c1-1,2.3-1.6,3.7-1.6c1.9,0,3.6,1.1,4.6,2.7c0.8-0.4,1.7-0.5,2.6-0.5c3.5,0,6.4,2.9,6.4,6.4
				c0,3.5-2.8,6.4-6.4,6.4c-0.4,0-0.8,0-1.3-0.1c-0.8,1.4-2.3,2.4-4.1,2.4c-0.7,0-1.4-0.2-2-0.5c-0.8,1.9-2.7,3.2-4.9,3.2
				c-2.3,0-4.2-1.4-5-3.5c-0.3,0.1-0.7,0.1-1,0.1c-2.7,0-4.9-2.2-4.9-5c0-1.8,1-3.4,2.5-4.3c-0.3-0.7-0.5-1.5-0.5-2.3
				c0-3.2,2.6-5.7,5.7-5.7C16.3,50.5,18,51.4,19,52.7"/>
			<path fill="#FFFFFF" d="M11,61.2C11,61.2,11,61.3,11,61.2c0.1,0.1,0.1,0.1,0.2,0.2c0.3,0.2,0.6,0.2,0.9,0.2c0.6,0,1-0.3,1-0.8v0
				c0-0.5-0.4-0.7-0.8-0.8l-0.1,0c-0.3-0.1-0.6-0.2-0.6-0.4v0c0-0.2,0.2-0.3,0.4-0.3c0.3,0,0.6,0.1,0.8,0.2c0,0,0.1,0,0.1,0
				c0,0,0.1-0.3,0.1-0.3c0,0,0-0.1,0-0.1c-0.2-0.1-0.5-0.2-0.9-0.2l-0.1,0c-0.6,0-0.9,0.3-0.9,0.8v0c0,0.5,0.4,0.7,0.8,0.8l0.1,0
				c0.3,0.1,0.5,0.2,0.5,0.4v0c0,0.2-0.2,0.3-0.4,0.3c-0.1,0-0.4,0-0.8-0.2c0,0-0.1,0-0.1-0.1c0,0-0.1,0-0.1,0L11,61.2z"/>
			<path fill="#FFFFFF" d="M19.9,61.2C19.8,61.2,19.9,61.3,19.9,61.2c0.1,0.1,0.1,0.1,0.2,0.2c0.3,0.2,0.6,0.2,0.9,0.2
				c0.6,0,1-0.3,1-0.8v0c0-0.5-0.4-0.7-0.8-0.8l-0.1,0c-0.3-0.1-0.6-0.2-0.6-0.4v0c0-0.2,0.2-0.3,0.4-0.3c0.3,0,0.6,0.1,0.8,0.2
				c0,0,0.1,0,0.1,0c0,0,0.1-0.3,0.1-0.3c0,0,0-0.1,0-0.1c-0.2-0.1-0.5-0.2-0.9-0.2l-0.1,0c-0.6,0-0.9,0.3-0.9,0.8v0
				c0,0.5,0.4,0.7,0.8,0.8l0.1,0c0.3,0.1,0.5,0.2,0.5,0.4v0c0,0.2-0.2,0.3-0.4,0.3c-0.1,0-0.4,0-0.8-0.2c0,0-0.1,0-0.1-0.1
				c0,0-0.1,0-0.1,0L19.9,61.2z"/>
			<path fill="#FFFFFF" d="M26.4,59.6c0-0.2-0.1-0.3-0.2-0.4c-0.1-0.1-0.2-0.2-0.4-0.3c-0.2-0.1-0.3-0.1-0.5-0.1
				c-0.2,0-0.4,0-0.5,0.1c-0.2,0.1-0.3,0.2-0.4,0.3c-0.1,0.1-0.2,0.3-0.2,0.4c0,0.2-0.1,0.3-0.1,0.5c0,0.2,0,0.4,0.1,0.5
				c0,0.2,0.1,0.3,0.2,0.4c0.1,0.1,0.2,0.2,0.4,0.3c0.2,0.1,0.3,0.1,0.5,0.1c0.2,0,0.4,0,0.5-0.1c0.2-0.1,0.3-0.2,0.4-0.3
				c0.1-0.1,0.2-0.3,0.2-0.4c0-0.2,0.1-0.3,0.1-0.5C26.5,60,26.5,59.8,26.4,59.6 M25.9,60.2c0,0.3-0.1,0.5-0.2,0.7
				c-0.1,0.2-0.3,0.2-0.5,0.2c-0.2,0-0.4-0.1-0.5-0.2c-0.1-0.2-0.2-0.4-0.2-0.7c0-0.3,0.1-0.5,0.2-0.7c0.1-0.2,0.3-0.2,0.5-0.2
				c0.2,0,0.4,0.1,0.5,0.2C25.9,59.7,25.9,59.9,25.9,60.2"/>
			<path fill-rule="evenodd" clip-rule="evenodd" fill="#FFFFFF" d="M30.6,61C30.5,61,30.5,61,30.6,61c-0.1,0-0.2,0-0.3,0
				c-0.1,0-0.2,0-0.3,0c-0.2,0-0.4-0.1-0.6-0.2c-0.1-0.1-0.2-0.4-0.2-0.7c0-0.3,0.1-0.5,0.2-0.7c0.1-0.2,0.3-0.2,0.6-0.2
				c0.2,0,0.4,0,0.5,0.1c0,0,0,0,0.1,0c0-0.1,0.1-0.2,0.1-0.3c0,0,0-0.1,0-0.1c-0.1,0-0.2-0.1-0.3-0.1c-0.1,0-0.2,0-0.4,0
				c-0.2,0-0.4,0-0.6,0.1c-0.2,0.1-0.3,0.2-0.4,0.3c-0.1,0.1-0.2,0.3-0.2,0.4c-0.1,0.2-0.1,0.3-0.1,0.5c0,0.4,0.1,0.8,0.3,1
				c0.2,0.2,0.6,0.4,1,0.4c0.3,0,0.5-0.1,0.7-0.1c0,0,0,0,0-0.1L30.6,61z"/>
			<path fill-rule="evenodd" clip-rule="evenodd" fill="#FFFFFF" d="M33.1,59.5c0-0.2-0.1-0.3-0.2-0.4c-0.1-0.1-0.2-0.2-0.3-0.2
				c-0.1-0.1-0.3-0.1-0.5-0.1c-0.2,0-0.4,0-0.6,0.1c-0.2,0.1-0.3,0.2-0.4,0.3c-0.1,0.1-0.2,0.3-0.2,0.4c0,0.2-0.1,0.4-0.1,0.5
				c0,0.2,0,0.4,0.1,0.5c0.1,0.2,0.1,0.3,0.2,0.4c0.1,0.1,0.3,0.2,0.4,0.3c0.2,0.1,0.4,0.1,0.6,0.1c0.5,0,0.8-0.1,0.9-0.2
				c0,0,0,0,0-0.1L33,61c0,0-0.1,0-0.1,0c-0.1,0-0.3,0.1-0.7,0.1c-0.3,0-0.5-0.1-0.6-0.2c-0.1-0.1-0.2-0.3-0.2-0.6l1.7,0
				c0,0,0,0,0,0C33.2,60.3,33.3,59.9,33.1,59.5 M31.4,59.9c0-0.2,0.1-0.3,0.1-0.4c0.1-0.2,0.3-0.2,0.5-0.2c0.2,0,0.4,0.1,0.5,0.2
				c0.1,0.1,0.1,0.2,0.1,0.4L31.4,59.9z"/>
			<path fill-rule="evenodd" clip-rule="evenodd" fill="#FFFFFF" d="M19.5,59.5c0-0.2-0.1-0.3-0.2-0.4c-0.1-0.1-0.2-0.2-0.3-0.2
				c-0.1-0.1-0.3-0.1-0.5-0.1c-0.2,0-0.4,0-0.6,0.1c-0.2,0.1-0.3,0.2-0.4,0.3c-0.1,0.1-0.2,0.3-0.2,0.4c0,0.2-0.1,0.4-0.1,0.5
				c0,0.2,0,0.4,0.1,0.5c0.1,0.2,0.1,0.3,0.2,0.4c0.1,0.1,0.3,0.2,0.4,0.3c0.2,0.1,0.4,0.1,0.6,0.1c0.5,0,0.8-0.1,0.9-0.2
				c0,0,0,0,0-0.1L19.3,61c0,0-0.1,0-0.1,0c-0.1,0-0.3,0.1-0.7,0.1c-0.3,0-0.5-0.1-0.6-0.2c-0.1-0.1-0.2-0.3-0.2-0.6l1.7,0
				c0,0,0,0,0,0C19.5,60.3,19.6,59.9,19.5,59.5 M17.8,59.9c0-0.2,0.1-0.3,0.1-0.4c0.1-0.2,0.3-0.2,0.5-0.2c0.2,0,0.4,0.1,0.5,0.2
				c0.1,0.1,0.1,0.2,0.1,0.4L17.8,59.9z"/>
			<path fill="#FFFFFF" d="M14.7,59.8c-0.1,0-0.2,0-0.3,0c-0.1,0-0.3,0-0.4,0.1c-0.1,0-0.3,0.1-0.4,0.2c-0.1,0.1-0.2,0.2-0.2,0.3
				c-0.1,0.1-0.1,0.2-0.1,0.4c0,0.2,0,0.3,0.1,0.4c0.1,0.1,0.1,0.2,0.2,0.3c0.1,0.1,0.2,0.1,0.3,0.2c0.1,0,0.3,0,0.5,0
				c0.2,0,0.3,0,0.5,0c0.2,0,0.4-0.1,0.4-0.1c0.1,0,0.1,0,0.1,0c0,0,0-0.1,0-0.1l0-1.6c0-0.3-0.1-0.6-0.3-0.8
				c-0.2-0.2-0.4-0.2-0.8-0.2c-0.1,0-0.3,0-0.5,0c0,0-0.4,0.1-0.5,0.2c0,0,0,0,0,0.1l0.1,0.3c0,0,0.1,0,0.1,0s0,0,0,0
				c0.3-0.2,0.7-0.2,0.7-0.2c0.2,0,0.3,0,0.4,0.1c0.1,0.1,0.1,0.2,0.1,0.4v0.1C14.9,59.8,14.7,59.8,14.7,59.8 M14.1,61
				C14,61,14,61,14,60.9c0-0.1-0.1-0.1-0.1-0.2c0-0.1,0-0.3,0.2-0.3c0,0,0.1-0.1,0.5-0.1c0.2,0,0.5,0,0.5,0l0,0.8c0,0-0.2,0-0.5,0.1
				C14.2,61.1,14.1,61,14.1,61"/>
			<path fill-rule="evenodd" clip-rule="evenodd" fill="#FFFFFF" d="M28.5,58.9C28.5,58.9,28.5,58.9,28.5,58.9
				c-0.1-0.1-0.2-0.1-0.3-0.1c-0.2,0-0.3,0-0.4,0.1c-0.1,0-0.2,0.1-0.3,0.2l0-0.2c0,0,0-0.1,0-0.1H27c0,0,0,0,0,0.1l0,2.6
				c0,0,0,0.1,0.1,0.1l0.4,0c0,0,0.1,0,0.1-0.1v-1.3c0-0.2,0-0.3,0.1-0.4c0-0.1,0.1-0.2,0.1-0.3c0.1-0.1,0.1-0.1,0.2-0.1
				c0.1,0,0.2,0,0.2,0c0.1,0,0.2,0,0.2,0c0,0,0.1,0,0.1,0C28.4,59.2,28.5,59,28.5,58.9"/>
			<path fill-rule="evenodd" clip-rule="evenodd" fill="#FFFFFF" d="M24.3,57.8c-0.1,0-0.1,0-0.2,0c-0.1,0-0.1,0-0.2,0
				c-0.3,0-0.6,0.1-0.7,0.3c-0.2,0.2-0.3,0.4-0.3,0.8l0,0.1h-0.4c0,0,0,0-0.1,0l-0.1,0.4c0,0,0,0.1,0.1,0.1h0.4l-0.4,2.1
				c0,0.2-0.1,0.3-0.1,0.4c0,0.1-0.1,0.2-0.1,0.2c0,0.1-0.1,0.1-0.2,0.1c-0.1,0-0.1,0-0.2,0c0,0-0.1,0-0.1,0c0,0-0.1,0-0.1,0
				c0,0,0,0-0.1,0c0,0-0.1,0.3-0.1,0.3c0,0,0,0.1,0,0.1c0.1,0,0.1,0,0.2,0c0.1,0,0.2,0,0.3,0c0.2,0,0.3,0,0.4-0.1
				c0.1,0,0.2-0.1,0.3-0.2c0.1-0.1,0.2-0.2,0.2-0.4c0.1-0.2,0.1-0.3,0.2-0.6l0.4-2.2h0.6c0,0,0,0,0.1,0l0.1-0.4c0,0,0-0.1-0.1-0.1
				h-0.5c0,0,0-0.2,0.1-0.4c0-0.1,0.1-0.1,0.1-0.2c0,0,0.1-0.1,0.1-0.1c0.1,0,0.1,0,0.2,0c0.1,0,0.1,0,0.1,0c0.1,0,0.1,0,0.1,0
				c0.1,0,0.1,0,0.1,0L24.3,57.8C24.4,57.8,24.3,57.8,24.3,57.8"/>
			<path fill-rule="evenodd" clip-rule="evenodd" fill="#FFFFFF" d="M16.7,61.5C16.7,61.5,16.7,61.5,16.7,61.5l-0.5,0.1
				c0,0,0,0,0-0.1v-3.6c0,0,0-0.1,0-0.1h0.5c0,0,0,0,0,0.1L16.7,61.5z"/>
		</g>
		<path fill="#4F504F" d="M29.7,127.6c-0.7,0.3-1.4,0.5-2.2,0.6c0.8-0.5,1.4-1.2,1.7-2.1c-0.7,0.4-1.6,0.8-2.4,0.9
			c-0.7-0.7-1.7-1.2-2.8-1.2c-2.1,0-3.9,1.7-3.9,3.9c0,0.3,0,0.6,0.1,0.9c-3.2-0.2-6-1.7-7.9-4c-0.3,0.6-0.5,1.2-0.5,1.9
			c0,1.3,0.7,2.5,1.7,3.2c-0.6,0-1.2-0.2-1.7-0.5c0,0,0,0,0,0c0,1.9,1.3,3.4,3.1,3.8c-0.3,0.1-0.7,0.1-1,0.1c-0.2,0-0.5,0-0.7-0.1
			c0.5,1.5,1.9,2.6,3.6,2.7c-1.3,1-3,1.6-4.8,1.6c-0.3,0-0.6,0-0.9-0.1c1.7,1.1,3.7,1.7,5.9,1.7c7.1,0,11-5.9,11-11
			c0-0.2,0-0.3,0-0.5C28.6,129,29.2,128.4,29.7,127.6z"/>
		<g id="fb_19_">
			<g>
				<g>
					<path fill="#4F504F" d="M22.1,156h-2.6c-0.3,0-0.7,0.4-0.7,1l0,1.7h3.3l0,3.2h-3.2l0,7.9h-3.3l0-7.9H13l0-3.2h2.6l0-1.6
						c0-2.4,1.7-4.2,3.9-4.2h2.6L22.1,156z"/>
				</g>
			</g>
		</g>
		<g>
			<g>
				<path fill="#4F504F" d="M37,87.4c0.1,0,0.2-0.1,0.2-0.2c0-0.1-0.1-0.2-0.2-0.2h-0.2v0.6h0.1v-0.3L37,87.4L37,87.4l0.1,0.3h0.1
					L37,87.4L37,87.4z M36.9,87.4h-0.1v-0.2H37c0.1,0,0.1,0,0.1,0.1C37.1,87.4,37,87.4,36.9,87.4z"/>
				<path fill="#4F504F" d="M36.9,86.8c-0.3,0-0.6,0.3-0.6,0.6c0,0.3,0.3,0.6,0.6,0.6c0.3,0,0.6-0.3,0.6-0.6
					C37.5,87.1,37.3,86.8,36.9,86.8z M36.9,87.9c-0.3,0-0.5-0.2-0.5-0.5c0-0.3,0.2-0.5,0.5-0.5c0.3,0,0.5,0.2,0.5,0.5
					C37.4,87.7,37.2,87.9,36.9,87.9z"/>
			</g>
			<g>
				<g>
					<polygon fill="#4F504F" points="0.4,81.5 1.8,81.5 1.8,86.6 4.4,86.6 4.4,87.9 0.4,87.9 					"/>
					<g>
						<path fill="#4F504F" d="M5,83.6h1.3v4.3H5V83.6z M5.7,81.4c0.4,0,0.8,0.3,0.8,0.8c0,0.4-0.3,0.8-0.8,0.8
							c-0.4,0-0.8-0.3-0.8-0.8C4.9,81.8,5.2,81.4,5.7,81.4"/>
					</g>
					<polygon fill="#4F504F" points="11.9,81.5 13.2,81.5 13.2,85.3 14.8,83.6 16.4,83.6 14.6,85.5 16.4,87.9 14.7,87.9 13.3,85.7 
						13.2,85.7 13.2,87.9 11.9,87.9 					"/>
					<path fill="#4F504F" d="M7.1,83.6h1.3v0.6h0c0.2-0.3,0.6-0.7,1.3-0.7c1.4,0,1.6,0.9,1.6,2v2.4H9.9v-2.1c0-0.5,0-1.1-0.7-1.1
						c-0.7,0-0.8,0.5-0.8,1.1v2.1H7.1V83.6z"/>
					<path fill="#4F504F" d="M19.2,85.2c0-0.4-0.3-0.8-0.8-0.8c-0.6,0-0.9,0.4-0.9,0.8H19.2z M20.3,87.1c-0.4,0.5-1.1,0.9-1.8,0.9
						c-1.3,0-2.4-0.9-2.4-2.3c0-1.4,1.1-2.3,2.4-2.3c1.2,0,2,0.9,2,2.3v0.4h-3.1c0.1,0.5,0.5,0.8,1,0.8c0.4,0,0.7-0.2,1-0.5
						L20.3,87.1z"/>
					<path fill="#4F504F" d="M23.3,84.6c-0.7,0-1.1,0.4-1.1,1.1c0,0.7,0.4,1.1,1.1,1.1c0.7,0,1.1-0.4,1.1-1.1
						C24.4,85,24,84.6,23.3,84.6 M25.6,87.9h-1.2v-0.6h0C24.2,87.6,23.7,88,23,88c-1.3,0-2.1-0.9-2.1-2.2c0-1.2,0.7-2.3,2-2.3
						c0.6,0,1.1,0.2,1.4,0.6h0v-2.5h1.3V87.9z"/>
				</g>
				<path fill="#4F504F" d="M35.3,80.2h-7.7c-0.4,0-0.7,0.3-0.7,0.6v7.7c0,0.4,0.3,0.6,0.7,0.6h7.7c0.4,0,0.7-0.3,0.7-0.6v-7.7
					C36,80.5,35.7,80.2,35.3,80.2z M29.6,87.9h-1.3v-4.3h1.3V87.9z M29,83c-0.4,0-0.8-0.3-0.8-0.8c0-0.4,0.3-0.8,0.8-0.8
					c0.4,0,0.8,0.3,0.8,0.8C29.7,82.6,29.4,83,29,83z M34.6,87.9h-1.3v-2.1c0-0.5,0-1.1-0.7-1.1c-0.7,0-0.8,0.5-0.8,1.1v2.1h-1.3
					v-4.3h1.3v0.6h0c0.2-0.3,0.6-0.7,1.3-0.7c1.4,0,1.6,0.9,1.6,2V87.9z"/>
			</g>
		</g>
		<g>
			<path fill="#4F504F" d="M13.6,98.2h11.9c1.1,0,2.1,0.8,2.1,2.1v11.9c0,1.2-0.9,2.1-2.1,2.1H13.6c-1.1,0-2.1-0.8-2.1-2.1v-11.9
				C11.5,99.1,12.4,98.2,13.6,98.2L13.6,98.2z M23.2,100c-0.4,0-0.7,0.3-0.7,0.7v1.7c0,0.4,0.3,0.7,0.7,0.7H25
				c0.4,0,0.7-0.3,0.7-0.7v-1.7c0-0.4-0.3-0.7-0.7-0.7H23.2L23.2,100z M25.8,105h-1.4c0.1,0.4,0.2,0.9,0.2,1.4c0,2.7-2.2,4.8-5,4.8
				c-2.8,0-5-2.2-5-4.8c0-0.5,0.1-0.9,0.2-1.4h-1.5v6.8c0,0.4,0.3,0.6,0.6,0.6h11.2c0.4,0,0.6-0.3,0.6-0.6L25.8,105L25.8,105z
				 M19.6,103.1c-1.8,0-3.2,1.4-3.2,3.1s1.4,3.1,3.2,3.1c1.8,0,3.2-1.4,3.2-3.1S21.4,103.1,19.6,103.1z"/>
		</g>
		<g id="outlook_17_">
			<path fill="#515150" d="M30.6,26.6c0-0.5-0.6-0.7-1-0.6c-2.2,0-4.3,0-6.4,0c0-1.4,0-2.8,0-4.1v-0.2c-3.2,0.6-7.6,1.3-10.8,1.9
				c0,4.8,0,9.7,0,14.5c3.2,0.5,7.6,1.3,10.8,1.8v-0.2c0-1.3,0-2.6,0-3.9c2.3,0,4.6,0,6.8,0c0.6,0,0.6-0.7,0.6-1.2
				C30.6,31.8,30.7,29.2,30.6,26.6z M19.1,33.5c-1.2,1.1-3.3,0.5-3.9-1.1c-0.7-1.7-0.4-4.4,1.6-5.1c1.2-0.4,2.5,0.2,3,1.3
				C20.5,30.2,20.4,32.3,19.1,33.5z M30,35.1c-2.3,0-4.6,0-6.8,0c0-1.8,0-3.6,0-5.4c0.8,0.7,1.5,1.5,2.3,2.1
				c0.4,0.1,0.6-0.2,0.8-0.4c1.2-1.2,2.5-2.4,3.8-3.5C30,30.2,30,32.6,30,35.1z M29.7,27.3c-1.4,1.3-2.7,2.6-4.1,3.9
				c-0.8-0.7-1.6-1.5-2.4-2.3c0-0.7,0-1.5,0-2.3c2.3,0,4.6,0,6.9,0C30,26.8,29.9,27.1,29.7,27.3z"/>
			<path fill="#515150" d="M17,28.6c0.6-0.3,1.2,0,1.5,0.5c0.4,0.8,0.4,1.8,0.1,2.7c-0.2,0.6-0.9,1.1-1.5,0.9
				c-0.8-0.2-1.1-1.2-1.1-2C16,29.9,16.2,29,17,28.6z"/>
		</g>
		<g>
			<path fill="#04AF91" d="M60.3,31.9l2.8-2.8l2.7,2.7l7.9-7.9l2.8,2.8L65.8,37.4L60.3,31.9z"/>
			<path fill="#04AF91" d="M149.7,31.9l2.8-2.8l2.7,2.7l7.9-7.9l2.8,2.8l-10.7,10.7L149.7,31.9z"/>
			<path fill="#04AF91" d="M105,31.9l2.8-2.8l2.7,2.7l7.9-7.9l2.8,2.8l-10.7,10.7L105,31.9z"/>
			<path fill="#04AF91" d="M194.4,31.9l2.8-2.8l2.7,2.7l7.9-7.9l2.8,2.8l-10.7,10.7L194.4,31.9z"/>
		</g>
		<path fill="#04AF91" d="M60.3,58.1l2.8-2.8l2.7,2.7l7.9-7.9l2.8,2.8L65.8,63.6L60.3,58.1z"/>
		<path fill="#04AF91" d="M105,58.1l2.8-2.8l2.7,2.7l7.9-7.9l2.8,2.8l-10.7,10.7L105,58.1z"/>
		<path fill="#04AF91" d="M60.3,84.3l2.8-2.8l2.7,2.7l7.9-7.9l2.8,2.8L65.8,89.8L60.3,84.3z"/>
		<path fill="#04AF91" d="M194.4,84.3l2.8-2.8l2.7,2.7l7.9-7.9l2.8,2.8l-10.7,10.7L194.4,84.3z"/>
		<path fill="#04AF91" d="M60.3,110.5l2.8-2.8l2.7,2.7l7.9-7.9l2.8,2.8L65.8,116L60.3,110.5z"/>
		<path fill="#04AF91" d="M60.3,136.7l2.8-2.8l2.7,2.7l7.9-7.9l2.8,2.8l-10.7,10.7L60.3,136.7z"/>
		<path fill="#04AF91" d="M194.4,136.7l2.8-2.8l2.7,2.7l7.9-7.9l2.8,2.8l-10.7,10.7L194.4,136.7z"/>
		<path fill="#04AF91" d="M60.3,162.9l2.8-2.8l2.7,2.7l7.9-7.9l2.8,2.8l-10.7,10.7L60.3,162.9z"/>
		<path fill="#04AF91" d="M105,162.9l2.8-2.8l2.7,2.7l7.9-7.9l2.8,2.8l-10.7,10.7L105,162.9z"/>
		<path fill="#F68C1F" d="M161.6,63.8l-3.7-3.7l-3.7,3.7l-2.8-2.8l3.7-3.7l-3.7-3.7l2.8-2.8l3.7,3.7l3.7-3.7l2.8,2.8l-3.7,3.7
			l3.7,3.7L161.6,63.8z"/>
		<path fill="#F68C1F" d="M206.5,63.8l-3.7-3.7l-3.7,3.7l-2.8-2.8l3.7-3.7l-3.7-3.7l2.8-2.8l3.7,3.7l3.7-3.7l2.8,2.8l-3.7,3.7
			l3.7,3.7L206.5,63.8z"/>
		<path fill="#F68C1F" d="M206.5,115.7l-3.7-3.7l-3.7,3.7l-2.8-2.8l3.7-3.7l-3.7-3.7l2.8-2.8l3.7,3.7l3.7-3.7l2.8,2.8l-3.7,3.7
			l3.7,3.7L206.5,115.7z"/>
		<g>
			<path fill="#F68C1F" d="M116.6,91.1l-3.7-3.7l-3.7,3.7l-2.8-2.8l3.7-3.7l-3.7-3.7l2.8-2.8l3.7,3.7l3.7-3.7l2.8,2.8l-3.7,3.7
				l3.7,3.7L116.6,91.1z"/>
			<path fill="#F68C1F" d="M161.6,91.1l-3.7-3.7l-3.7,3.7l-2.8-2.8l3.7-3.7l-3.7-3.7l2.8-2.8l3.7,3.7l3.7-3.7l2.8,2.8l-3.7,3.7
				l3.7,3.7L161.6,91.1z"/>
		</g>
		<g>
			<path fill="#F68C1F" d="M116.6,141.8l-3.7-3.7l-3.7,3.7l-2.8-2.8l3.7-3.7l-3.7-3.7l2.8-2.8l3.7,3.7l3.7-3.7l2.8,2.8l-3.7,3.7
				l3.7,3.7L116.6,141.8z"/>
			<path fill="#F68C1F" d="M161.6,141.8l-3.7-3.7l-3.7,3.7l-2.8-2.8l3.7-3.7l-3.7-3.7l2.8-2.8l3.7,3.7l3.7-3.7l2.8,2.8l-3.7,3.7
				l3.7,3.7L161.6,141.8z"/>
		</g>
		<path fill="#F68C1F" d="M116.6,115.7l-3.7-3.7l-3.7,3.7l-2.8-2.8l3.7-3.7l-3.7-3.7l2.8-2.8l3.7,3.7l3.7-3.7l2.8,2.8l-3.7,3.7
			l3.7,3.7L116.6,115.7z"/>
		<path fill="#F68C1F" d="M161.6,115.7l-3.7-3.7l-3.7,3.7l-2.8-2.8l3.7-3.7l-3.7-3.7l2.8-2.8l3.7,3.7l3.7-3.7l2.8,2.8l-3.7,3.7
			l3.7,3.7L161.6,115.7z"/>
		<path fill="#F68C1F" d="M206.5,168.1l-3.7-3.7l-3.7,3.7l-2.8-2.8l3.7-3.7l-3.7-3.7l2.8-2.8l3.7,3.7l3.7-3.7l2.8,2.8l-3.7,3.7
			l3.7,3.7L206.5,168.1z"/>
		<path fill="#F68C1F" d="M161.6,168.1l-3.7-3.7l-3.7,3.7l-2.8-2.8l3.7-3.7l-3.7-3.7l2.8-2.8l3.7,3.7l3.7-3.7l2.8,2.8l-3.7,3.7
			l3.7,3.7L161.6,168.1z"/>
	</g>
</g>
<g id="Layer_4">
</g>
</svg>
