<?xml version="1.0" encoding="utf-8"?>
<!-- Generator: Adobe Illustrator 19.2.1, SVG Export Plug-In . SVG Version: 6.00 Build 0)  -->
<svg version="1.1" xmlns="http://www.w3.org/2000/svg" xmlns:xlink="http://www.w3.org/1999/xlink" x="0px" y="0px"
	 viewBox="0 0 214.8 76" enable-background="new 0 0 214.8 76" xml:space="preserve">
<g id="Layer_1">
</g>
<g id="Layer_2">
</g>
<g id="Layer_3">
</g>
<g id="Layer_4">
	<g>
		<path fill="#E6E6E6" d="M135.9,37.8c-2.8-9.3-12.9-16.2-24.9-16.2c-0.1,0-0.1,0-0.2,0v0c0-11.7-11.4-21.2-25.5-21.2
			c-9.7,0-18.2,4.5-22.5,11.2c-2.5-0.7-5.2-1.2-8.1-1.2c-13.2,0-24,8.9-24,20c0,0.1,0,0.1,0,0.2c-1.1-0.1-2.2-0.2-3.2-0.2
			c-15,0-27.2,10.1-27.2,22.7c0,12.5,12.2,22.7,27.2,22.7l99.6,0l0,0c13,0,23.6-8.8,23.6-19.6C150.8,47.8,144.6,40.7,135.9,37.8"/>
		<path fill="#E6E6E6" d="M78.9,37.8c2.8-9.3,12.9-16.2,24.9-16.2c0.1,0,0.1,0,0.2,0v0c0-11.7,11.4-21.2,25.5-21.2
			c9.7,0,18.2,4.5,22.5,11.2c2.5-0.7,5.2-1.2,8.1-1.2c13.2,0,24,8.9,24,20c0,0.1,0,0.1,0,0.2c1.1-0.1,2.2-0.2,3.2-0.2
			c15,0,27.2,10.1,27.2,22.7c0,12.5-12.2,22.7-27.2,22.7l-99.6,0l0,0C74.6,75.6,64,66.9,64,56C64,47.8,70.2,40.7,78.9,37.8"/>
	</g>
</g>
</svg>
