<?xml version="1.0" encoding="utf-8"?>
<!-- Generator: Adobe Illustrator 19.2.1, SVG Export Plug-In . SVG Version: 6.00 Build 0)  -->
<svg version="1.1" xmlns="http://www.w3.org/2000/svg" xmlns:xlink="http://www.w3.org/1999/xlink" x="0px" y="0px"
	 viewBox="0 0 96.3 78" enable-background="new 0 0 96.3 78" xml:space="preserve">
<g id="Layer_1">
</g>
<g id="Layer_2">
</g>
<g id="Layer_3">
	<g>
		<path fill="#1EBBEE" d="M96.4,5.2l0,67.4c0,0,0,4.8-4.8,4.8l-86.7,0c0,0-4.8,0-4.8-4.8l0-67.4c0,0,0-4.8,4.8-4.8l86.7,0
			C91.6,0.4,96.4,0.4,96.4,5.2z"/>
		<rect x="4.9" y="5.2" fill="#9C4F96" width="86.7" height="57.8"/>
		<path opacity="0.15" d="M91.5,77.6l-86.8,0c0,0-4.8,0-4.8-4.5l0-4.5l96.4-53.9l0,58.4C96.4,73.1,96.4,77.6,91.5,77.6z"/>
		<path fill="#FDB813" d="M22.9,40.9c2,2.9,5.2,4.4,8.5,4.5c2.1,0,4.3-0.6,6.2-1.9c3.6-2.5,5.2-6.8,4.4-10.8l3-2.1l-1.2-1.7l2.6-0.1
			l1.2-3.1l2.8,0.4l0.8-2.9l2.8,0.3l2.3-4.4l2.1,0.9l1.6-1.1l0-6.9l-1-1.4L37.1,25.7c-0.4-0.2-0.8-0.4-1.2-0.6
			c-3.3-1.4-7.2-1.1-10.4,1.1C20.8,29.6,19.5,36.2,22.9,40.9 M30.4,35.7c1,1.4,0.7,3.3-0.5,4.2c-1.3,0.9-3.1,0.5-4.1-0.9
			c-1-1.4-0.7-3.3,0.5-4.2C27.5,33.9,29.4,34.3,30.4,35.7"/>
	</g>
</g>
<g id="Layer_4">
</g>
</svg>
