<?xml version="1.0" encoding="utf-8"?>
<!-- Generator: Adobe Illustrator 19.2.1, SVG Export Plug-In . SVG Version: 6.00 Build 0)  -->
<svg version="1.1" xmlns="http://www.w3.org/2000/svg" xmlns:xlink="http://www.w3.org/1999/xlink" x="0px" y="0px"
	 viewBox="0 0 96.5 77.2" enable-background="new 0 0 96.5 77.2" xml:space="preserve">
<g id="Layer_1">
</g>
<g id="Layer_2">
</g>
<g id="Layer_3">
	<g>
		<path fill="#1EBBEE" d="M96.5,4.8l0,67.4c0,0,0,4.8-4.8,4.8L5,77.1c0,0-4.8,0-4.8-4.8l0-67.4c0,0,0-4.8,4.8-4.8l86.7,0
			C91.7,0,96.5,0,96.5,4.8z"/>
		<rect x="5" y="4.8" fill="#9C4F96" width="86.7" height="57.8"/>
		<path opacity="0.15" d="M91.6,77.2l-86.8,0c0,0-4.8,0-4.8-4.5l0-4.5l96.4-53.9l0,58.4C96.4,72.7,96.4,77.2,91.6,77.2z"/>
		<g>
			<path fill="#FFFFFF" d="M48.1,37.3c-0.1-0.4-0.3-0.8-0.4-1.4c-0.1-0.6-0.2-1.1-0.2-1.7c0-0.7,0.1-1.3,0.3-1.8
				c0.2-0.5,0.4-1.1,0.7-1.5c0.3-0.5,0.7-0.9,1.1-1.4s0.9-0.9,1.5-1.4c0.5-0.4,0.9-0.8,1.3-1.3c0.4-0.4,0.8-0.9,1.2-1.4
				s0.6-1.1,0.8-1.7c0.2-0.6,0.3-1.3,0.3-2c0-0.8-0.1-1.5-0.4-2.1s-0.6-1.1-1.1-1.6c-0.5-0.4-1-0.8-1.7-1c-0.7-0.2-1.4-0.3-2.2-0.3
				c-1.3,0-2.6,0.2-3.7,0.7c-1.1,0.5-2.2,1.1-3.2,1.9V17c1-0.8,2.1-1.3,3.2-1.7s2.3-0.6,3.7-0.6c1,0,2,0.1,2.9,0.4
				c0.9,0.3,1.7,0.7,2.3,1.3c0.7,0.6,1.2,1.3,1.6,2.1s0.6,1.8,0.6,2.8c0,0.8-0.1,1.5-0.3,2.2c-0.2,0.7-0.5,1.3-0.9,1.8
				c-0.4,0.6-0.8,1.1-1.2,1.6c-0.5,0.5-0.9,1-1.4,1.4c-0.8,0.7-1.4,1.3-1.8,1.8c-0.5,0.5-0.8,0.9-1.1,1.3c-0.3,0.4-0.5,0.8-0.6,1.2
				s-0.2,0.8-0.2,1.3c0,0.7,0.1,1.2,0.2,1.8c0.1,0.5,0.2,1,0.3,1.3H48.1z M48.9,46.1c-0.5,0-0.9-0.2-1.2-0.5
				c-0.3-0.3-0.5-0.7-0.5-1.2c0-0.5,0.2-0.9,0.5-1.2c0.3-0.3,0.7-0.5,1.2-0.5c0.5,0,0.9,0.2,1.2,0.5s0.5,0.7,0.5,1.2
				c0,0.5-0.2,0.9-0.5,1.2C49.8,46,49.4,46.1,48.9,46.1z"/>
		</g>
	</g>
</g>
<g id="Layer_4">
</g>
</svg>
