<?xml version="1.0" encoding="utf-8"?>
<!-- Generator: Adobe Illustrator 19.2.1, SVG Export Plug-In . SVG Version: 6.00 Build 0)  -->
<svg version="1.1" xmlns="http://www.w3.org/2000/svg" xmlns:xlink="http://www.w3.org/1999/xlink" x="0px" y="0px"
	 viewBox="0 0 153 69" enable-background="new 0 0 153 69" xml:space="preserve">
<g id="Layer_1">
	<path fill="#FFFFFF" d="M0.4,34.5C0.4,45.9,6,56,14.7,62.1c5.7,4,12.6,6.4,20.1,6.4c14.2,0,26.3-8.4,31.6-20.5h11.7v-6.7l7.1,4.5
		l8.9-6.2l6.9,6.2l7.6-6.1l7,6.1l14.3-7.4l3.8,6.1h6.3l12.7-18.3v-5.7H66.3c-0.6-1.3-1.3-2.5-2-3.8C58.2,7,47.3,0.5,34.8,0.5
		C15.8,0.5,0.4,15.7,0.4,34.5 M29.9,34.5c0,5.5-4.1,10-9.2,10c-5.1,0-9.2-4.5-9.2-10c0-5.5,4.1-10,9.2-10
		C25.8,24.5,29.9,29,29.9,34.5"/>
</g>
<g id="Layer_2">
</g>
<g id="Layer_3">
</g>
<g id="Layer_4">
</g>
</svg>
