<?xml version="1.0" encoding="utf-8"?>
<!-- Generator: Adobe Illustrator 19.2.1, SVG Export Plug-In . SVG Version: 6.00 Build 0)  -->
<svg version="1.1" xmlns="http://www.w3.org/2000/svg" xmlns:xlink="http://www.w3.org/1999/xlink" x="0px" y="0px"
	 viewBox="0 0 130 135" enable-background="new 0 0 130 135" xml:space="preserve">
<g id="Layer_1">
</g>
<g id="Layer_2">
</g>
<g id="Layer_3">
</g>
<g id="Layer_4">
	<g>
		<g>
			<path fill="#FDB813" d="M79.5,95.1c-2.2,1.3-3.5,3.6-3.7,6c-0.1,1.6,0.2,3.2,1.1,4.7c1.7,2.8,4.7,4.1,7.7,3.8l1.4,2.3l1.3-0.8
				l0,1.9l2.2,1l-0.4,2.1l2.1,0.8l-0.4,2.1l3.1,1.9l-0.7,1.5l0.7,1.2l5.1,0.3l1.1-0.7l-10.1-16.8c0.2-0.3,0.3-0.5,0.5-0.8
				c1.2-2.3,1.2-5.2-0.3-7.6C87.9,94.1,83.2,92.9,79.5,95.1 M83,100.9c-1.1,0.6-2.4,0.4-3-0.6c-0.6-1-0.2-2.3,0.9-3
				c1.1-0.6,2.4-0.4,3,0.6C84.4,98.9,84,100.2,83,100.9"/>
			<path fill="#FDB813" d="M92.7,76.8c-0.6,2.5,0.1,5,1.6,6.9c1,1.2,2.4,2.1,4.1,2.5c3.1,0.8,6.3-0.4,8.1-2.8l2.6,0.6l0.4-1.5
				l1.3,1.4l2.3-0.9l1.2,1.7l2-0.9l1.2,1.7l3.5-0.8l0.5,1.6l1.4,0.3l3.8-3.3l0.3-1.2l-19-4.8c-0.1-0.3-0.1-0.6-0.2-0.9
				c-0.8-2.5-2.8-4.5-5.6-5.2C98,70.1,93.8,72.6,92.7,76.8 M99.2,78.4c-0.3,1.2-1.5,2-2.6,1.7c-1.1-0.3-1.8-1.5-1.5-2.7
				c0.3-1.2,1.5-2,2.6-1.7C98.9,76,99.5,77.2,99.2,78.4"/>
			<path fill="#FDB813" d="M90.7,53.1c1.3,2.2,3.6,3.5,6,3.7c1.6,0.1,3.2-0.2,4.7-1.1c2.8-1.7,4.1-4.7,3.8-7.7l2.3-1.4l-0.8-1.3
				l1.9,0l1-2.2l2.1,0.4l0.8-2.1l2.1,0.4l1.9-3.1l1.5,0.7l1.2-0.7l0.3-5.1l-0.7-1.1l-16.8,10.1c-0.3-0.2-0.5-0.3-0.8-0.5
				c-2.3-1.2-5.2-1.2-7.6,0.3C89.7,44.7,88.5,49.4,90.7,53.1 M96.4,49.6c0.6,1.1,0.4,2.4-0.6,3c-1,0.6-2.3,0.2-3-0.9
				c-0.6-1.1-0.4-2.4,0.6-3C94.5,48.2,95.8,48.5,96.4,49.6"/>
			<path fill="#FDB813" d="M71.6,37.7c2.5,0.6,5-0.1,6.9-1.6c1.2-1,2.1-2.4,2.5-4.1c0.8-3.1-0.4-6.3-2.8-8.1l0.6-2.6l-1.5-0.4
				l1.4-1.3l-0.9-2.3l1.7-1.2l-0.9-2l1.7-1.2l-0.8-3.5l1.6-0.5l0.3-1.4l-3.3-3.8l-1.2-0.3l-4.8,19c-0.3,0.1-0.6,0.1-0.9,0.2
				c-2.5,0.8-4.5,2.8-5.2,5.6C65,32.4,67.5,36.6,71.6,37.7 M73.2,31.2c1.2,0.3,2,1.5,1.7,2.6c-0.3,1.1-1.5,1.8-2.7,1.5
				c-1.2-0.3-2-1.5-1.7-2.6C70.8,31.5,72,30.9,73.2,31.2"/>
			<path fill="#FDB813" d="M47.3,42c2.2-1.3,3.5-3.6,3.7-6c0.1-1.6-0.2-3.2-1.1-4.7c-1.7-2.8-4.7-4.1-7.7-3.8l-1.4-2.3l-1.3,0.8
				l0-1.9l-2.2-1l0.4-2.1l-2.1-0.8l0.4-2.1L33,16.4l0.7-1.5L33,13.7l-5.1-0.3L26.8,14l10.1,16.8c-0.2,0.3-0.3,0.5-0.5,0.8
				c-1.2,2.3-1.2,5.2,0.3,7.6C38.9,43,43.6,44.2,47.3,42 M43.8,36.3c1.1-0.6,2.4-0.4,3,0.6c0.6,1,0.2,2.3-0.9,3
				c-1.1,0.6-2.4,0.4-3-0.6C42.4,38.2,42.8,36.9,43.8,36.3"/>
			<path fill="#FDB813" d="M34.7,62.7c0.6-2.5-0.1-5-1.6-6.9c-1-1.2-2.4-2.1-4.1-2.5c-3.1-0.8-6.3,0.4-8.1,2.8l-2.6-0.6L18,56.9
				l-1.3-1.4l-2.3,0.9l-1.2-1.7l-2,0.9L10,53.9l-3.5,0.8L6,53.2l-1.4-0.3l-3.8,3.3l-0.3,1.2l19,4.8c0.1,0.3,0.1,0.6,0.2,0.9
				c0.8,2.5,2.8,4.5,5.6,5.2C29.5,69.3,33.7,66.8,34.7,62.7 M28.2,61.1c0.3-1.2,1.5-2,2.6-1.7c1.1,0.3,1.8,1.5,1.5,2.7
				c-0.3,1.2-1.5,2-2.6,1.7C28.6,63.5,27.9,62.3,28.2,61.1"/>
		</g>
		<path fill="#FDB813" d="M72.3,114.4c-1.5,0.1-2.8,1-3.5,2.3c-0.5,0.8-0.7,1.8-0.6,2.8c0.2,1.9,1.4,3.4,3.1,4l0.1,1.6l0.9-0.1
			l-0.5,1l0.9,1.1l-0.8,1l0.9,0.9l-0.7,1l1.2,1.8l-0.8,0.6l0.1,0.8l2.6,1.5l0.8-0.1L75,123c0.2-0.1,0.3-0.2,0.5-0.3
			c1.2-0.9,2-2.5,1.8-4.1C77.1,116,74.8,114.1,72.3,114.4 M72.7,118.3c-0.7,0.1-1.4-0.4-1.5-1.1c-0.1-0.7,0.5-1.3,1.2-1.3
			c0.7-0.1,1.4,0.4,1.5,1.1C74,117.7,73.4,118.3,72.7,118.3"/>
		<path fill="#FDB813" d="M101.8,96.2c-1,1.2-1.3,2.7-0.9,4.1c0.2,0.9,0.7,1.8,1.5,2.4c1.5,1.2,3.5,1.4,5,0.6l1.2,1l0.6-0.7l0.3,1.1
			l1.5,0.1l0.2,1.2l1.3,0l0.2,1.2l2.1,0.5l-0.1,1l0.6,0.5l2.9-0.8l0.5-0.6l-8.9-7.5c0.1-0.2,0.1-0.4,0.1-0.6
			c0.2-1.5-0.3-3.2-1.6-4.2C106.4,94,103.5,94.2,101.8,96.2 M104.9,98.7c-0.5,0.6-1.3,0.7-1.8,0.2c-0.5-0.4-0.6-1.3-0.1-1.8
			c0.5-0.6,1.3-0.7,1.8-0.2C105.3,97.3,105.4,98.2,104.9,98.7"/>
		<path fill="#FDB813" d="M109.2,61.1c0.1,1.5,1,2.8,2.3,3.5c0.8,0.5,1.8,0.7,2.8,0.6c1.9-0.2,3.4-1.4,4-3.1l1.6-0.1l-0.1-0.9l1,0.5
			l1.1-0.9l1,0.8l0.9-0.9l1,0.7l1.8-1.2l0.6,0.8l0.8-0.1l1.5-2.6l-0.1-0.8l-11.6,1c-0.1-0.2-0.2-0.3-0.3-0.5c-0.9-1.2-2.5-2-4.1-1.8
			C110.8,56.3,108.9,58.6,109.2,61.1 M113.1,60.7c0.1,0.7-0.4,1.4-1.1,1.5c-0.7,0.1-1.3-0.5-1.3-1.2c-0.1-0.7,0.4-1.4,1.1-1.5
			C112.5,59.4,113.1,60,113.1,60.7"/>
		<path fill="#FDB813" d="M88.9,32.2c1.2,1,2.7,1.3,4.1,0.9c0.9-0.2,1.8-0.7,2.4-1.5c1.2-1.5,1.4-3.5,0.6-5l1-1.2l-0.7-0.6l1.1-0.3
			l0.1-1.5l1.2-0.2l0-1.3l1.2-0.2l0.5-2.1l1,0.1l0.5-0.6l-0.8-2.9l-0.6-0.5l-7.5,8.9c-0.2-0.1-0.4-0.1-0.6-0.1
			c-1.5-0.2-3.2,0.3-4.2,1.6C86.7,27.7,87,30.6,88.9,32.2 M91.5,29.1c0.6,0.5,0.7,1.3,0.2,1.8c-0.4,0.5-1.3,0.6-1.8,0.1
			c-0.6-0.5-0.7-1.3-0.2-1.8C90.1,28.7,90.9,28.7,91.5,29.1"/>
		<path fill="#FDB813" d="M53.4,20.6c1.5-0.1,2.8-1,3.5-2.3c0.5-0.8,0.7-1.8,0.6-2.8c-0.2-1.9-1.4-3.4-3.1-4L54.3,10l-0.9,0.1l0.5-1
			L53,8l0.8-1L52.9,6l0.7-1l-1.2-1.8l0.8-0.6l-0.1-0.8l-2.6-1.5l-0.8,0.1l1,11.6c-0.2,0.1-0.3,0.2-0.5,0.3c-1.2,0.9-2,2.5-1.8,4.1
			C48.7,19,50.9,20.9,53.4,20.6 M53.1,16.7c0.7-0.1,1.4,0.4,1.5,1.1c0.1,0.7-0.5,1.3-1.2,1.3c-0.7,0.1-1.4-0.4-1.5-1.1
			C51.8,17.3,52.3,16.7,53.1,16.7"/>
		<path fill="#FDB813" d="M24.8,42.2c1-1.2,1.3-2.7,0.9-4.1c-0.2-0.9-0.7-1.8-1.5-2.4c-1.5-1.2-3.5-1.4-5-0.6l-1.2-1l-0.6,0.7
			L17,33.7l-1.5-0.1l-0.2-1.2l-1.3,0l-0.2-1.2l-2.1-0.5l0.1-1l-0.6-0.5l-2.9,0.8l-0.5,0.6l8.9,7.5c-0.1,0.2-0.1,0.4-0.1,0.6
			c-0.2,1.5,0.3,3.2,1.6,4.2C20.2,44.4,23.1,44.2,24.8,42.2 M21.7,39.7c0.5-0.6,1.3-0.7,1.8-0.2c0.5,0.4,0.6,1.3,0.1,1.8
			c-0.5,0.6-1.3,0.7-1.8,0.2C21.3,41.1,21.2,40.2,21.7,39.7"/>
	</g>
</g>
</svg>
