<?xml version="1.0" encoding="utf-8"?>
<!-- Generator: Adobe Illustrator 19.2.1, SVG Export Plug-In . SVG Version: 6.00 Build 0)  -->
<svg version="1.1" xmlns="http://www.w3.org/2000/svg" xmlns:xlink="http://www.w3.org/1999/xlink" x="0px" y="0px"
	 viewBox="0 0 230 221" enable-background="new 0 0 230 221" xml:space="preserve">
<g id="Layer_1">
</g>
<g id="Layer_2">
</g>
<g id="Layer_3">
	<g>
		<g>
			<path fill="#9C4F96" d="M31.7,26L30,32.3h-1.2l-1.2-4.4c0-0.2-0.1-0.4-0.1-0.6h0c0,0.2,0,0.4-0.1,0.6l-1.2,4.4h-1.2L23.2,26h1.1
				l1.1,4.6c0,0.2,0.1,0.4,0.1,0.6h0c0-0.1,0.1-0.4,0.1-0.6L27,26h1.1l1.2,4.6c0,0.2,0.1,0.3,0.1,0.6h0c0-0.1,0-0.3,0.1-0.6l1.1-4.6
				H31.7z"/>
			<path fill="#9C4F96" d="M33.6,32.3h-1.1V26h1.1V32.3z"/>
			<path fill="#9C4F96" d="M38.7,32.3h-3.5V26h1v5.4h2.4V32.3z"/>
			<path fill="#9C4F96" d="M43.1,32.3h-3.5V26h1v5.4h2.4V32.3z"/>
		</g>
		<g>
			<path fill="#9C4F96" d="M61.3,0.6l-2.1,4v2.3h-1V4.6l-2-4h1.2l1.2,2.7c0,0,0.1,0.2,0.1,0.4h0c0-0.1,0.1-0.2,0.1-0.4l1.3-2.7H61.3
				z"/>
			<path fill="#9C4F96" d="M67,0.6l-2.3,6.3h-1.2l-2.2-6.3h1.1l1.6,4.8c0,0.2,0.1,0.3,0.1,0.5h0c0-0.2,0.1-0.3,0.1-0.5l1.6-4.8H67z"
				/>
			<path fill="#9C4F96" d="M71.4,6.9h-3.5V0.6h3.4v0.9h-2.4v1.8h2.2v0.9h-2.2V6h2.5V6.9z"/>
			<path fill="#9C4F96" d="M76.6,1.5h-1.8v5.4h-1V1.5H72V0.6h4.7V1.5z"/>
			<path fill="#9C4F96" d="M81.8,1.5h-1.8v5.4h-1V1.5h-1.8V0.6h4.7V1.5z"/>
			<path fill="#9C4F96" d="M86.2,6.9h-3.5V0.6h3.4v0.9h-2.4v1.8h2.2v0.9h-2.2V6h2.5V6.9z"/>
		</g>
		<g>
			<path fill="#9C4F96" d="M165.9,6.9h-1.2l-1-1.7c-0.1-0.2-0.2-0.3-0.3-0.4c-0.1-0.1-0.2-0.2-0.3-0.3c-0.1-0.1-0.2-0.1-0.3-0.2
				s-0.2,0-0.4,0h-0.4v2.6h-1V0.6h2.1c0.3,0,0.6,0,0.8,0.1s0.5,0.2,0.7,0.3c0.2,0.1,0.3,0.3,0.4,0.5c0.1,0.2,0.2,0.5,0.2,0.7
				c0,0.2,0,0.4-0.1,0.6c-0.1,0.2-0.2,0.4-0.3,0.5c-0.1,0.1-0.3,0.3-0.4,0.4C164.2,3.9,164,4,163.8,4v0c0.1,0.1,0.2,0.1,0.3,0.2
				c0.1,0.1,0.2,0.2,0.2,0.2s0.2,0.2,0.2,0.3c0.1,0.1,0.2,0.2,0.2,0.4L165.9,6.9z M162.1,1.4v2h0.9c0.2,0,0.3,0,0.4-0.1
				c0.1,0,0.3-0.1,0.4-0.2s0.2-0.2,0.2-0.3s0.1-0.3,0.1-0.5c0-0.3-0.1-0.5-0.3-0.7s-0.5-0.3-0.8-0.3H162.1z"/>
			<path fill="#9C4F96" d="M171.8,6.9h-1.1l-0.6-1.6h-2.5l-0.5,1.6H166l2.4-6.3h1.2L171.8,6.9z M169.8,4.4L169,1.9
				c0-0.1-0.1-0.2-0.1-0.4h0c0,0.2-0.1,0.3-0.1,0.4l-0.9,2.5H169.8z"/>
			<path fill="#9C4F96" d="M175.1,4.6c0,0.7-0.2,1.3-0.6,1.7c-0.4,0.4-0.9,0.6-1.5,0.6c-0.3,0-0.5,0-0.7-0.1v-1
				c0.2,0.1,0.4,0.2,0.6,0.2c0.7,0,1-0.5,1-1.6V0.6h1V4.6z"/>
			<path fill="#9C4F96" d="M181.6,6.9h-1.1l-0.6-1.6h-2.5l-0.5,1.6h-1.1l2.4-6.3h1.2L181.6,6.9z M179.6,4.4l-0.9-2.5
				c0-0.1-0.1-0.2-0.1-0.4h0c0,0.2-0.1,0.3-0.1,0.4l-0.9,2.5H179.6z"/>
			<path fill="#9C4F96" d="M187.8,6.9h-1.1l-3-4.6c-0.1-0.1-0.1-0.2-0.2-0.4h0c0,0.1,0,0.4,0,0.9v4.1h-1V0.6h1.2l2.9,4.5
				c0.1,0.2,0.2,0.3,0.2,0.4h0c0-0.2,0-0.4,0-0.8V0.6h1V6.9z"/>
		</g>
		<g id="outlook_15_">
			<path fill="#515150" d="M121.7,203.4c0-0.7-0.7-0.9-1.3-0.8c-2.8,0-5.5,0-8.3,0c0-1.8,0-3.5,0-5.3V197c-4.1,0.7-9.7,1.7-13.8,2.5
				c0,6.2,0,12.4,0,18.6c4.1,0.7,9.8,1.6,13.8,2.4v-0.2c0-1.7,0-3.4,0-5c2.9-0.1,5.8,0.1,8.8-0.1c0.8,0,0.8-1,0.8-1.5
				C121.7,210.1,121.8,206.8,121.7,203.4z M107,212.3c-1.6,1.4-4.3,0.6-5-1.4c-1-2.2-0.5-5.6,2.1-6.5c1.5-0.6,3.2,0.2,3.9,1.7
				C108.8,208,108.7,210.8,107,212.3z M120.9,214.3c-2.9,0-5.8,0-8.8,0c0-2.3,0-4.6,0-7c1,0.9,1.9,1.9,2.9,2.7
				c0.5,0.1,0.7-0.3,1-0.5c1.6-1.5,3.2-3,4.8-4.5C120.9,208,120.9,211.2,120.9,214.3z M120.6,204.3c-1.8,1.6-3.5,3.3-5.3,4.9
				c-1.1-1-2.1-1.9-3.1-2.9c0-1,0-1.9,0-2.9c2.9,0,5.9,0,8.8,0C120.9,203.7,120.8,204.1,120.6,204.3z"/>
			<path fill="#515150" d="M104.3,206c0.7-0.3,1.6,0,1.9,0.7c0.5,1.1,0.5,2.3,0.2,3.5c-0.2,0.8-1.1,1.4-1.9,1.1
				c-1-0.3-1.4-1.6-1.4-2.5C103.1,207.7,103.3,206.4,104.3,206z"/>
		</g>
		<g>
			<path fill="#515150" d="M53.5,170.3c1.2-1.3,2.9-2.1,4.8-2.1c2.5,0,4.7,1.4,5.9,3.5c1-0.5,2.1-0.7,3.3-0.7c4.5,0,8.2,3.7,8.2,8.3
				c0,4.6-3.7,8.3-8.2,8.3c-0.6,0-1.1-0.1-1.6-0.2c-1,1.8-3,3.1-5.2,3.1c-0.9,0-1.8-0.2-2.6-0.6c-1,2.4-3.5,4.2-6.3,4.2
				c-2.9,0-5.5-1.9-6.4-4.5c-0.4,0.1-0.9,0.1-1.3,0.1c-3.5,0-6.3-2.9-6.3-6.4c0-2.4,1.3-4.4,3.2-5.6c-0.4-0.9-0.6-1.9-0.6-2.9
				c0-4.1,3.3-7.4,7.4-7.4C50,167.4,52.1,168.5,53.5,170.3"/>
			<path fill="#FFFFFF" d="M43.2,181.2C43.1,181.2,43.2,181.2,43.2,181.2c0.1,0.1,0.2,0.2,0.2,0.2c0.4,0.2,0.8,0.3,1.1,0.3
				c0.8,0,1.3-0.4,1.3-1.1v0c0-0.6-0.5-0.8-1.1-1l-0.1,0c-0.4-0.1-0.7-0.2-0.7-0.5v0c0-0.2,0.2-0.4,0.5-0.4c0.3,0,0.7,0.1,1,0.3
				c0,0,0.1,0,0.1,0c0,0,0.1-0.4,0.2-0.4c0,0,0-0.1,0-0.1c-0.3-0.2-0.7-0.3-1.1-0.3l-0.1,0c-0.7,0-1.2,0.4-1.2,1v0
				c0,0.7,0.5,0.9,1.1,1l0.1,0c0.4,0.1,0.7,0.2,0.7,0.5v0c0,0.2-0.2,0.4-0.5,0.4c-0.1,0-0.6,0-1-0.3c-0.1,0-0.1-0.1-0.1-0.1
				c0,0-0.1,0-0.1,0L43.2,181.2z"/>
			<path fill="#FFFFFF" d="M54.6,181.2C54.5,181.2,54.6,181.2,54.6,181.2c0.1,0.1,0.2,0.2,0.2,0.2c0.4,0.2,0.8,0.3,1.1,0.3
				c0.8,0,1.3-0.4,1.3-1.1v0c0-0.6-0.5-0.8-1.1-1l-0.1,0c-0.4-0.1-0.7-0.2-0.7-0.5v0c0-0.2,0.2-0.4,0.5-0.4c0.3,0,0.7,0.1,1,0.3
				c0,0,0.1,0,0.1,0c0,0,0.1-0.4,0.2-0.4c0,0,0-0.1,0-0.1c-0.3-0.2-0.7-0.3-1.1-0.3l-0.1,0c-0.7,0-1.2,0.4-1.2,1v0
				c0,0.7,0.6,0.9,1.1,1l0.1,0c0.4,0.1,0.7,0.2,0.7,0.5v0c0,0.2-0.2,0.4-0.5,0.4c-0.1,0-0.6,0-1-0.3c-0.1,0-0.1-0.1-0.1-0.1
				c0,0-0.1,0-0.1,0L54.6,181.2z"/>
			<path fill="#FFFFFF" d="M63,179.1c-0.1-0.2-0.2-0.4-0.3-0.6c-0.1-0.2-0.3-0.3-0.5-0.4c-0.2-0.1-0.4-0.1-0.7-0.1
				c-0.3,0-0.5,0-0.7,0.1s-0.4,0.2-0.5,0.4c-0.1,0.2-0.2,0.3-0.3,0.6c-0.1,0.2-0.1,0.5-0.1,0.7c0,0.2,0,0.5,0.1,0.7
				c0.1,0.2,0.2,0.4,0.3,0.6c0.1,0.2,0.3,0.3,0.5,0.4c0.2,0.1,0.4,0.1,0.7,0.1c0.3,0,0.5,0,0.7-0.1c0.2-0.1,0.4-0.2,0.5-0.4
				c0.1-0.2,0.2-0.3,0.3-0.6c0.1-0.2,0.1-0.5,0.1-0.7C63.1,179.6,63.1,179.4,63,179.1 M62.4,179.8c0,0.4-0.1,0.7-0.2,0.9
				c-0.1,0.2-0.3,0.3-0.6,0.3c-0.3,0-0.5-0.1-0.6-0.3c-0.1-0.2-0.2-0.5-0.2-0.9c0-0.4,0.1-0.7,0.2-0.9c0.1-0.2,0.3-0.3,0.6-0.3
				c0.3,0,0.5,0.1,0.6,0.3C62.3,179.2,62.4,179.5,62.4,179.8"/>
			<path fill-rule="evenodd" clip-rule="evenodd" fill="#FFFFFF" d="M68.4,180.9C68.3,180.9,68.3,180.9,68.4,180.9
				c-0.2,0-0.3,0-0.4,0c-0.1,0-0.2,0-0.4,0c-0.3,0-0.6-0.1-0.7-0.3c-0.2-0.2-0.3-0.5-0.3-0.9c0-0.4,0.1-0.6,0.2-0.9
				c0.2-0.2,0.4-0.3,0.7-0.3c0.3,0,0.5,0,0.7,0.1c0,0,0.1,0,0.1,0c0.1-0.2,0.1-0.3,0.2-0.4c0,0,0-0.1,0-0.1c-0.1,0-0.3-0.1-0.4-0.1
				c-0.1,0-0.3,0-0.5,0c-0.3,0-0.5,0-0.7,0.1c-0.2,0.1-0.4,0.2-0.5,0.4c-0.1,0.2-0.2,0.3-0.3,0.6c-0.1,0.2-0.1,0.5-0.1,0.7
				c0,0.5,0.1,1,0.4,1.3c0.3,0.3,0.7,0.5,1.3,0.5c0.3,0,0.7-0.1,0.9-0.2c0,0,0,0,0-0.1L68.4,180.9z"/>
			<path fill-rule="evenodd" clip-rule="evenodd" fill="#FFFFFF" d="M71.7,179c-0.1-0.2-0.2-0.4-0.3-0.5c-0.1-0.2-0.3-0.3-0.4-0.3
				c-0.2-0.1-0.4-0.1-0.6-0.1c-0.3,0-0.5,0-0.7,0.1c-0.2,0.1-0.4,0.2-0.5,0.4c-0.1,0.2-0.2,0.4-0.3,0.6c-0.1,0.2-0.1,0.5-0.1,0.7
				c0,0.3,0,0.5,0.1,0.7c0.1,0.2,0.2,0.4,0.3,0.6c0.1,0.2,0.3,0.3,0.6,0.4c0.2,0.1,0.5,0.1,0.8,0.1c0.6,0,1-0.1,1.1-0.2
				c0,0,0,0,0-0.1l-0.1-0.4c0-0.1-0.1,0-0.1,0c-0.2,0.1-0.4,0.2-0.9,0.2c-0.3,0-0.6-0.1-0.8-0.3c-0.2-0.2-0.2-0.4-0.3-0.7l2.2,0
				c0,0,0.1,0,0.1-0.1C71.8,179.9,71.8,179.5,71.7,179 M69.5,179.5c0-0.2,0.1-0.4,0.2-0.5c0.1-0.2,0.3-0.3,0.6-0.3s0.5,0.1,0.6,0.3
				c0.1,0.1,0.1,0.3,0.1,0.5L69.5,179.5z"/>
			<path fill-rule="evenodd" clip-rule="evenodd" fill="#FFFFFF" d="M54,179c-0.1-0.2-0.2-0.4-0.3-0.5c-0.1-0.2-0.3-0.3-0.4-0.3
				c-0.2-0.1-0.4-0.1-0.6-0.1c-0.3,0-0.5,0-0.7,0.1c-0.2,0.1-0.4,0.2-0.5,0.4c-0.1,0.2-0.2,0.4-0.3,0.6c-0.1,0.2-0.1,0.5-0.1,0.7
				c0,0.3,0,0.5,0.1,0.7c0.1,0.2,0.2,0.4,0.3,0.6c0.1,0.2,0.3,0.3,0.6,0.4c0.2,0.1,0.5,0.1,0.8,0.1c0.6,0,1-0.1,1.1-0.2
				c0,0,0,0,0-0.1l-0.1-0.4c0-0.1-0.1,0-0.1,0c-0.2,0.1-0.4,0.2-0.9,0.2c-0.3,0-0.6-0.1-0.8-0.3c-0.2-0.2-0.2-0.4-0.3-0.7l2.2,0
				c0,0,0.1,0,0.1-0.1C54.1,179.9,54.2,179.5,54,179 M51.9,179.5c0-0.2,0.1-0.4,0.2-0.5c0.1-0.2,0.3-0.3,0.6-0.3
				c0.3,0,0.5,0.1,0.6,0.3c0.1,0.1,0.1,0.3,0.1,0.5L51.9,179.5z"/>
			<path fill="#FFFFFF" d="M48,179.4c-0.1,0-0.2,0-0.3,0c-0.2,0-0.4,0-0.5,0.1c-0.2,0-0.3,0.1-0.5,0.2c-0.1,0.1-0.2,0.2-0.3,0.4
				s-0.1,0.3-0.1,0.5c0,0.2,0,0.4,0.1,0.5c0.1,0.1,0.2,0.3,0.3,0.3c0.1,0.1,0.3,0.2,0.4,0.2c0.2,0,0.4,0.1,0.6,0.1
				c0.2,0,0.5,0,0.7-0.1c0.2,0,0.5-0.1,0.6-0.1c0.1,0,0.2,0,0.2,0c0.1,0,0.1-0.1,0.1-0.1l0-2c0-0.4-0.1-0.8-0.3-1
				c-0.2-0.2-0.6-0.3-1-0.3c-0.2,0-0.4,0-0.6,0.1c0,0-0.5,0.1-0.7,0.2c0,0,0,0,0,0.1l0.2,0.4c0,0.1,0.1,0,0.1,0s0,0,0,0
				c0.4-0.2,1-0.2,1-0.2c0.2,0,0.4,0,0.5,0.1c0.1,0.1,0.2,0.2,0.2,0.5v0.1C48.1,179.4,48,179.4,48,179.4 M47.1,180.9
				c-0.1-0.1-0.1-0.1-0.1-0.1c0-0.1-0.1-0.2-0.1-0.3c0-0.2,0.1-0.3,0.2-0.4c0,0,0.2-0.2,0.6-0.2c0.3,0,0.6,0.1,0.6,0.1v1
				c0,0-0.3,0.1-0.6,0.1C47.3,181.1,47.1,180.9,47.1,180.9"/>
			<path fill-rule="evenodd" clip-rule="evenodd" fill="#FFFFFF" d="M65.7,178.2C65.8,178.2,65.7,178.2,65.7,178.2
				c-0.1-0.1-0.3-0.1-0.4-0.1c-0.3,0-0.4,0-0.6,0.1c-0.1,0.1-0.3,0.2-0.4,0.3l0-0.3c0,0,0-0.1-0.1-0.1h-0.6c0,0-0.1,0-0.1,0.1v3.3
				c0,0,0,0.1,0.1,0.1h0.6c0,0,0.1,0,0.1-0.1v-1.6c0-0.2,0-0.4,0.1-0.6c0-0.1,0.1-0.2,0.2-0.3s0.2-0.1,0.3-0.2c0.1,0,0.2,0,0.3,0
				c0.1,0,0.2,0,0.2,0c0,0,0.1,0,0.1-0.1C65.6,178.6,65.7,178.3,65.7,178.2"/>
			<path fill-rule="evenodd" clip-rule="evenodd" fill="#FFFFFF" d="M60.3,176.7c-0.1,0-0.1,0-0.2-0.1c-0.1,0-0.2,0-0.3,0
				c-0.4,0-0.7,0.1-0.9,0.3c-0.2,0.2-0.4,0.6-0.4,1l0,0.1h-0.5c0,0-0.1,0-0.1,0.1l-0.1,0.5c0,0,0,0.1,0.1,0.1h0.5l-0.5,2.8
				c0,0.2-0.1,0.4-0.1,0.5c0,0.1-0.1,0.2-0.2,0.3c-0.1,0.1-0.1,0.1-0.2,0.2c-0.1,0-0.2,0-0.3,0c-0.1,0-0.1,0-0.2,0
				c-0.1,0-0.1,0-0.1,0c0,0-0.1,0-0.1,0c0,0-0.1,0.4-0.2,0.4c0,0,0,0.1,0,0.1c0.1,0,0.1,0,0.2,0.1c0.1,0,0.2,0,0.3,0
				c0.2,0,0.4,0,0.5-0.1c0.2-0.1,0.3-0.2,0.4-0.3c0.1-0.1,0.2-0.3,0.3-0.5c0.1-0.2,0.1-0.4,0.2-0.7l0.5-2.8h0.7c0,0,0.1,0,0.1-0.1
				l0.1-0.5c0,0,0-0.1-0.1-0.1h-0.7c0,0,0-0.3,0.1-0.5c0-0.1,0.1-0.2,0.2-0.2c0.1-0.1,0.1-0.1,0.2-0.1c0.1,0,0.1,0,0.2,0
				c0.1,0,0.1,0,0.2,0c0.1,0,0.1,0,0.1,0c0.1,0,0.1,0,0.1,0L60.3,176.7C60.4,176.7,60.3,176.7,60.3,176.7"/>
			<path fill-rule="evenodd" clip-rule="evenodd" fill="#FFFFFF" d="M50.5,181.5C50.5,181.5,50.4,181.6,50.5,181.5l-0.6,0.1
				c0,0-0.1,0-0.1-0.1v-4.7c0,0,0-0.1,0.1-0.1h0.6c0,0,0.1,0,0.1,0.1V181.5z"/>
		</g>
		<path fill="#4F504F" d="M229.6,144.1c-0.9,0.4-1.8,0.7-2.9,0.8c1-0.6,1.8-1.6,2.2-2.7c-1,0.6-2,1-3.2,1.2c-0.9-1-2.2-1.6-3.6-1.6
			c-2.7,0-5,2.2-5,5c0,0.4,0,0.8,0.1,1.1c-4.1-0.2-7.8-2.2-10.2-5.2c-0.4,0.7-0.7,1.6-0.7,2.5c0,1.7,0.9,3.2,2.2,4.1
			c-0.8,0-1.6-0.2-2.3-0.6c0,0,0,0,0,0.1c0,2.4,1.7,4.4,4,4.9c-0.4,0.1-0.9,0.2-1.3,0.2c-0.3,0-0.6,0-0.9-0.1c0.6,2,2.5,3.4,4.6,3.4
			c-1.7,1.3-3.8,2.1-6.2,2.1c-0.4,0-0.8,0-1.2-0.1c2.2,1.4,4.8,2.2,7.6,2.2c9.1,0,14.1-7.6,14.1-14.1c0-0.2,0-0.4,0-0.6
			C228.1,145.9,229,145.1,229.6,144.1z"/>
		<g id="fb_17_">
			<g>
				<g>
					<path fill="#4F504F" d="M12.1,130.1l-3.4,0c-0.4,0-0.9,0.5-0.9,1.3l0,2.2l4.2,0l0,4.2l-4.2,0l0,10.1l-4.2,0l0-10.2H0.4l0-4.2
						l3.4,0l0-2.1c0-3,2.3-5.5,5-5.5l3.4,0L12.1,130.1z"/>
				</g>
			</g>
		</g>
		<g>
			<g>
				<path fill="#4F504F" d="M197.5,200.7c0.1,0,0.2-0.1,0.2-0.2c0-0.2-0.1-0.2-0.3-0.2h-0.3v0.8h0.1v-0.4h0.1l0,0l0.2,0.3h0.1
					L197.5,200.7L197.5,200.7z M197.4,200.6h-0.1v-0.3h0.2c0.1,0,0.2,0,0.2,0.1C197.6,200.6,197.5,200.6,197.4,200.6z"/>
				<path fill="#4F504F" d="M197.4,199.9c-0.4,0-0.8,0.3-0.8,0.8c0,0.4,0.3,0.8,0.8,0.8c0.4,0,0.8-0.3,0.8-0.8
					C198.2,200.2,197.8,199.9,197.4,199.9z M197.4,201.3c-0.4,0-0.7-0.3-0.7-0.7c0-0.4,0.3-0.7,0.7-0.7c0.4,0,0.6,0.3,0.6,0.7
					C198.1,201,197.8,201.3,197.4,201.3z"/>
			</g>
			<g>
				<g>
					<polygon fill="#4F504F" points="150.6,193.1 152.4,193.1 152.4,199.6 155.7,199.6 155.7,201.2 150.6,201.2 					"/>
					<g>
						<path fill="#4F504F" d="M156.5,195.7h1.7v5.5h-1.7V195.7z M157.3,192.9c0.5,0,1,0.4,1,1c0,0.5-0.4,1-1,1c-0.5,0-1-0.4-1-1
							C156.3,193.4,156.8,192.9,157.3,192.9"/>
					</g>
					<polygon fill="#4F504F" points="165.3,193.1 167,193.1 167,197.9 169,195.7 171.1,195.7 168.8,198.2 171,201.2 168.9,201.2 
						167.1,198.5 167,198.5 167,201.2 165.3,201.2 					"/>
					<path fill="#4F504F" d="M159.1,195.7h1.6v0.8h0c0.2-0.4,0.8-0.9,1.6-0.9c1.7,0,2.1,1.1,2.1,2.6v3h-1.7v-2.7
						c0-0.6,0-1.5-0.9-1.5c-0.9,0-1,0.7-1,1.4v2.7h-1.7V195.7z"/>
					<path fill="#4F504F" d="M174.7,197.8c0-0.6-0.4-1.1-1.1-1.1c-0.8,0-1.2,0.5-1.2,1.1H174.7z M176.1,200.2
						c-0.5,0.7-1.4,1.1-2.3,1.1c-1.7,0-3.1-1.1-3.1-2.9c0-1.8,1.4-2.9,3.1-2.9c1.6,0,2.6,1.1,2.6,2.9v0.5h-4
						c0.1,0.7,0.6,1.1,1.3,1.1c0.6,0,0.9-0.3,1.2-0.7L176.1,200.2z"/>
					<path fill="#4F504F" d="M180,197c-0.9,0-1.4,0.6-1.4,1.4c0,0.8,0.5,1.4,1.4,1.4c0.9,0,1.4-0.6,1.4-1.4
						C181.3,197.6,180.8,197,180,197 M182.9,201.2h-1.6v-0.7h0c-0.3,0.4-0.9,0.9-1.7,0.9c-1.6,0-2.7-1.2-2.7-2.9c0-1.5,1-3,2.5-3
						c0.7,0,1.4,0.2,1.8,0.7h0v-3.2h1.7V201.2z"/>
				</g>
				<path fill="#4F504F" d="M195.3,191.4h-9.8c-0.5,0-0.9,0.4-0.9,0.8v9.9c0,0.5,0.4,0.8,0.9,0.8h9.8c0.5,0,0.9-0.4,0.9-0.8v-9.9
					C196.2,191.7,195.8,191.4,195.3,191.4z M188,201.2h-1.7v-5.5h1.7V201.2z M187.2,194.9c-0.6,0-1-0.4-1-1c0-0.5,0.4-1,1-1
					c0.5,0,1,0.4,1,1C188.2,194.5,187.7,194.9,187.2,194.9z M194.5,201.2h-1.7v-2.7c0-0.6,0-1.5-0.9-1.5c-0.9,0-1,0.7-1,1.4v2.7
					h-1.7v-5.5h1.6v0.8h0c0.2-0.4,0.8-0.9,1.6-0.9c1.7,0,2.1,1.1,2.1,2.6V201.2z"/>
			</g>
		</g>
		<g>
			<path fill="#4F504F" d="M150.1,145.2h15.3c1.5,0,2.6,1.1,2.6,2.6v15.3c0,1.6-1.2,2.6-2.6,2.6h-15.3c-1.5,0-2.6-1.1-2.6-2.6v-15.3
				C147.4,146.3,148.6,145.2,150.1,145.2L150.1,145.2z M162.4,147.5c-0.5,0-0.9,0.4-0.9,0.9v2.2c0,0.5,0.4,0.9,0.9,0.9h2.3
				c0.5,0,0.9-0.4,0.9-0.9v-2.2c0-0.5-0.4-0.9-0.9-0.9H162.4L162.4,147.5z M165.7,153.9h-1.8c0.2,0.6,0.3,1.2,0.3,1.8
				c0,3.4-2.9,6.2-6.4,6.2c-3.5,0-6.4-2.8-6.4-6.2c0-0.6,0.1-1.2,0.3-1.8h-1.9v8.7c0,0.5,0.4,0.8,0.8,0.8h14.4
				c0.5,0,0.8-0.4,0.8-0.8L165.7,153.9L165.7,153.9z M157.8,151.4c-2.3,0-4.1,1.8-4.1,4c0,2.2,1.9,4,4.1,4c2.3,0,4.1-1.8,4.1-4
				C161.9,153.2,160,151.4,157.8,151.4z"/>
		</g>
		<path fill="#4F504F" d="M43,57.7V60H23.3v-2.3l6.6-4.2v-1.6c-0.4,0-0.8-0.4-1.1-1.2c-0.3-0.8-0.5-1.5-0.5-2.1v-3.3
			c0-1.4,0.5-2.5,1.4-3.5c1-1,2.1-1.4,3.5-1.4c1.4,0,2.5,0.5,3.5,1.4c1,1,1.4,2.1,1.4,3.5v3.3c0,0.6-0.2,1.2-0.5,2.1
			c-0.3,0.8-0.7,1.2-1.1,1.2v1.6L43,57.7z"/>
		<path fill="#4F504F" d="M176,31.5v2.3h-19.7v-2.3l6.6-4.2v-1.6c-0.4,0-0.8-0.4-1.1-1.2c-0.3-0.8-0.5-1.5-0.5-2.1v-3.3
			c0-1.4,0.5-2.5,1.4-3.5c1-1,2.1-1.4,3.5-1.4c1.4,0,2.5,0.5,3.5,1.4c1,1,1.4,2.1,1.4,3.5v3.3c0,0.6-0.2,1.2-0.5,2.1
			c-0.3,0.8-0.7,1.2-1.1,1.2v1.6L176,31.5z"/>
		<path fill="#4F504F" d="M224.5,57.7V60h-19.7v-2.3l6.6-4.2v-1.6c-0.4,0-0.8-0.4-1.1-1.2c-0.3-0.8-0.5-1.5-0.5-2.1v-3.3
			c0-1.4,0.5-2.5,1.4-3.5c1-1,2.1-1.4,3.5-1.4c1.4,0,2.5,0.5,3.5,1.4c1,1,1.4,2.1,1.4,3.5v3.3c0,0.6-0.2,1.2-0.5,2.1
			c-0.3,0.8-0.7,1.2-1.1,1.2v1.6L224.5,57.7z"/>
		<g>
			<g>
				<line fill="none" stroke="#C69AC3" stroke-width="0.75" stroke-miterlimit="10" x1="33.1" y1="63.4" x2="32.8" y2="64.3"/>
				
					<line fill="none" stroke="#C69AC3" stroke-width="0.75" stroke-miterlimit="10" stroke-dasharray="2.0197,2.0197" x1="32.1" y1="66.2" x2="13.6" y2="118.6"/>
				<line fill="none" stroke="#C69AC3" stroke-width="0.75" stroke-miterlimit="10" x1="13.2" y1="119.5" x2="12.9" y2="120.5"/>
			</g>
		</g>
		<g>
			<g>
				<line fill="none" stroke="#C69AC3" stroke-width="0.75" stroke-miterlimit="10" x1="75.7" y1="37" x2="75.1" y2="37.9"/>
				
					<line fill="none" stroke="#C69AC3" stroke-width="0.75" stroke-miterlimit="10" stroke-dasharray="1.9877,1.9877" x1="74.1" y1="39.6" x2="18.2" y2="130"/>
				<line fill="none" stroke="#C69AC3" stroke-width="0.75" stroke-miterlimit="10" x1="17.7" y1="130.9" x2="17.1" y2="131.7"/>
			</g>
		</g>
		<g>
			<g>
				<line fill="none" stroke="#C69AC3" stroke-width="0.75" stroke-miterlimit="10" x1="75.7" y1="37.9" x2="75.5" y2="38.9"/>
				
					<line fill="none" stroke="#C69AC3" stroke-width="0.75" stroke-miterlimit="10" stroke-dasharray="2.0105,2.0105" x1="75.3" y1="40.9" x2="58.7" y2="159.3"/>
				<line fill="none" stroke="#C69AC3" stroke-width="0.75" stroke-miterlimit="10" x1="58.6" y1="160.3" x2="58.4" y2="161.3"/>
			</g>
		</g>
		<g>
			<g>
				<line fill="none" stroke="#C69AC3" stroke-width="0.75" stroke-miterlimit="10" x1="75.7" y1="37.9" x2="75.9" y2="38.8"/>
				
					<line fill="none" stroke="#C69AC3" stroke-width="0.75" stroke-miterlimit="10" stroke-dasharray="1.9819,1.9819" x1="76.3" y1="40.8" x2="108.1" y2="191.1"/>
				<line fill="none" stroke="#C69AC3" stroke-width="0.75" stroke-miterlimit="10" x1="108.3" y1="192" x2="108.5" y2="193"/>
			</g>
		</g>
		<g>
			<g>
				<line fill="none" stroke="#C69AC3" stroke-width="0.75" stroke-miterlimit="10" x1="75.7" y1="37.9" x2="76.3" y2="38.7"/>
				
					<line fill="none" stroke="#C69AC3" stroke-width="0.75" stroke-miterlimit="10" stroke-dasharray="2.0033,2.0033" x1="77.4" y1="40.3" x2="149.7" y2="140.1"/>
				<line fill="none" stroke="#C69AC3" stroke-width="0.75" stroke-miterlimit="10" x1="150.3" y1="140.9" x2="150.8" y2="141.7"/>
			</g>
		</g>
		<g>
			<g>
				<line fill="none" stroke="#C69AC3" stroke-width="0.75" stroke-miterlimit="10" x1="166.2" y1="37.2" x2="166.6" y2="38.1"/>
				
					<line fill="none" stroke="#C69AC3" stroke-width="0.75" stroke-miterlimit="10" stroke-dasharray="1.9758,1.9758" x1="167.5" y1="39.9" x2="217.6" y2="137.4"/>
				<line fill="none" stroke="#C69AC3" stroke-width="0.75" stroke-miterlimit="10" x1="218" y1="138.3" x2="218.5" y2="139.2"/>
			</g>
		</g>
		<g>
			<g>
				<line fill="none" stroke="#C69AC3" stroke-width="0.75" stroke-miterlimit="10" x1="214.6" y1="63.2" x2="214.7" y2="64.2"/>
				
					<line fill="none" stroke="#C69AC3" stroke-width="0.75" stroke-miterlimit="10" stroke-dasharray="1.9886,1.9886" x1="215" y1="66.2" x2="222.9" y2="136.3"/>
				<line fill="none" stroke="#C69AC3" stroke-width="0.75" stroke-miterlimit="10" x1="223" y1="137.3" x2="223.1" y2="138.3"/>
			</g>
		</g>
		<g>
			<g>
				<line fill="none" stroke="#C69AC3" stroke-width="0.75" stroke-miterlimit="10" x1="214.6" y1="63.2" x2="214.1" y2="64.1"/>
				
					<line fill="none" stroke="#C69AC3" stroke-width="0.75" stroke-miterlimit="10" stroke-dasharray="2.0283,2.0283" x1="213" y1="65.8" x2="166.8" y2="140.9"/>
				<line fill="none" stroke="#C69AC3" stroke-width="0.75" stroke-miterlimit="10" x1="166.2" y1="141.8" x2="165.7" y2="142.6"/>
			</g>
		</g>
		<g>
			<g>
				<line fill="none" stroke="#C69AC3" stroke-width="0.75" stroke-miterlimit="10" x1="166.2" y1="37.2" x2="165.5" y2="38"/>
				
					<line fill="none" stroke="#C69AC3" stroke-width="0.75" stroke-miterlimit="10" stroke-dasharray="2.0218,2.0218" x1="164.3" y1="39.6" x2="66" y2="161.6"/>
				<line fill="none" stroke="#C69AC3" stroke-width="0.75" stroke-miterlimit="10" x1="65.4" y1="162.4" x2="64.7" y2="163.1"/>
			</g>
		</g>
		<g>
			<g>
				<line fill="none" stroke="#C69AC3" stroke-width="0.75" stroke-miterlimit="10" x1="166.2" y1="37.2" x2="165.9" y2="38.2"/>
				
					<line fill="none" stroke="#C69AC3" stroke-width="0.75" stroke-miterlimit="10" stroke-dasharray="1.9832,1.9832" x1="165.3" y1="40.1" x2="120" y2="195.2"/>
				<line fill="none" stroke="#C69AC3" stroke-width="0.75" stroke-miterlimit="10" x1="119.7" y1="196.2" x2="119.5" y2="197.1"/>
			</g>
		</g>
		<g>
			<g>
				<line fill="none" stroke="#C69AC3" stroke-width="0.75" stroke-miterlimit="10" x1="166.2" y1="37.2" x2="166.3" y2="38.2"/>
				
					<line fill="none" stroke="#C69AC3" stroke-width="0.75" stroke-miterlimit="10" stroke-dasharray="2.027,2.027" x1="166.7" y1="40.2" x2="190.1" y2="183.2"/>
				<line fill="none" stroke="#C69AC3" stroke-width="0.75" stroke-miterlimit="10" x1="190.2" y1="184.2" x2="190.4" y2="185.2"/>
			</g>
		</g>
		<g>
			<g>
				<line fill="none" stroke="#C69AC3" stroke-width="0.75" stroke-miterlimit="10" x1="33.1" y1="63.4" x2="33.9" y2="64"/>
				
					<line fill="none" stroke="#C69AC3" stroke-width="0.75" stroke-miterlimit="10" stroke-dasharray="2.0198,2.0198" x1="35.5" y1="65.3" x2="140.5" y2="152.3"/>
				<line fill="none" stroke="#C69AC3" stroke-width="0.75" stroke-miterlimit="10" x1="141.2" y1="152.9" x2="142" y2="153.5"/>
			</g>
		</g>
		<g>
			<g>
				<line fill="none" stroke="#C69AC3" stroke-width="0.75" stroke-miterlimit="10" x1="33.1" y1="63.4" x2="33.6" y2="64.3"/>
				
					<line fill="none" stroke="#C69AC3" stroke-width="0.75" stroke-miterlimit="10" stroke-dasharray="1.992,1.992" x1="34.5" y1="66" x2="100.6" y2="192.2"/>
				<line fill="none" stroke="#C69AC3" stroke-width="0.75" stroke-miterlimit="10" x1="101.1" y1="193.1" x2="101.5" y2="194"/>
			</g>
		</g>
		<g>
			<g>
				<line fill="none" stroke="#C69AC3" stroke-width="0.75" stroke-miterlimit="10" x1="33.1" y1="63.4" x2="33.3" y2="64.4"/>
				
					<line fill="none" stroke="#C69AC3" stroke-width="0.75" stroke-miterlimit="10" stroke-dasharray="2.0275,2.0275" x1="33.6" y1="66.4" x2="48" y2="157.5"/>
				<line fill="none" stroke="#C69AC3" stroke-width="0.75" stroke-miterlimit="10" x1="48.2" y1="158.5" x2="48.3" y2="159.5"/>
			</g>
		</g>
		<g>
			<g>
				<line fill="none" stroke="#C69AC3" stroke-width="0.75" stroke-miterlimit="10" x1="33.1" y1="63.4" x2="34" y2="63.8"/>
				
					<line fill="none" stroke="#C69AC3" stroke-width="0.75" stroke-miterlimit="10" stroke-dasharray="2.015,2.015" x1="35.8" y1="64.7" x2="200.8" y2="147"/>
				<line fill="none" stroke="#C69AC3" stroke-width="0.75" stroke-miterlimit="10" x1="201.7" y1="147.4" x2="202.6" y2="147.9"/>
			</g>
		</g>
		<path fill="#4F504F" d="M85.5,31.5v2.3H65.8v-2.3l6.6-4.2v-1.6c-0.4,0-0.8-0.4-1.1-1.2c-0.3-0.8-0.5-1.5-0.5-2.1v-3.3
			c0-1.4,0.5-2.5,1.4-3.5c1-1,2.1-1.4,3.5-1.4c1.4,0,2.5,0.5,3.5,1.4c1,1,1.4,2.1,1.4,3.5v3.3c0,0.6-0.2,1.2-0.5,2.1
			c-0.3,0.8-0.7,1.2-1.1,1.2v1.6L85.5,31.5z"/>
		<g>
			<path fill="#9C4F96" d="M206.4,32.3h-1.1l-0.6-1.6h-2.5l-0.5,1.6h-1.1l2.4-6.3h1.2L206.4,32.3z M204.5,29.8l-0.9-2.5
				c0-0.1-0.1-0.2-0.1-0.4h0c0,0.2-0.1,0.3-0.1,0.4l-0.9,2.5H204.5z"/>
			<path fill="#9C4F96" d="M212.7,32.3h-1.1l-3-4.6c-0.1-0.1-0.1-0.2-0.2-0.4h0c0,0.1,0,0.4,0,0.9v4.1h-1V26h1.2l2.9,4.5
				c0.1,0.2,0.2,0.3,0.2,0.4h0c0-0.2,0-0.5,0-0.8V26h1V32.3z"/>
			<path fill="#9C4F96" d="M219.6,32.3h-1.1l-3-4.6c-0.1-0.1-0.1-0.2-0.2-0.4h0c0,0.1,0,0.4,0,0.9v4.1h-1V26h1.2l2.9,4.5
				c0.1,0.2,0.2,0.3,0.2,0.4h0c0-0.2,0-0.5,0-0.8V26h1V32.3z"/>
			<path fill="#9C4F96" d="M226.3,32.3h-1.1l-0.6-1.6h-2.5l-0.5,1.6h-1.1l2.4-6.3h1.2L226.3,32.3z M224.3,29.8l-0.9-2.5
				c0-0.1-0.1-0.2-0.1-0.4h0c0,0.2-0.1,0.3-0.1,0.4l-0.9,2.5H224.3z"/>
		</g>
	</g>
</g>
<g id="Layer_4">
</g>
</svg>
