<?xml version="1.0" encoding="utf-8"?>
<!-- Generator: Adobe Illustrator 19.2.1, SVG Export Plug-In . SVG Version: 6.00 Build 0)  -->
<svg version="1.1" xmlns="http://www.w3.org/2000/svg" xmlns:xlink="http://www.w3.org/1999/xlink" x="0px" y="0px"
	 viewBox="0 0 183.2 157" enable-background="new 0 0 183.2 157" xml:space="preserve">
<g id="Layer_1">
</g>
<g id="Layer_2">
	<g>
		<defs>
			<path id="SVGID_23_" d="M185.4,78.5c7.8-4.5,12.9-12,12.9-20.5c0-13.7-13.4-24.9-29.9-24.9c-1.2,0-2.4,0.1-3.6,0.2
				c0-0.1,0-0.1,0-0.2c0-12.1-11.8-21.9-26.3-21.9c-3.1,0-6.1,0.5-8.8,1.3c-4.7-7.3-14-12.3-24.7-12.3c-10.4,0-19.4,4.7-24.2,11.6
				C76,4.9,66.9,0.3,56.6,0.3c-10.7,0-19.9,5-24.7,12.3c-2.8-0.8-5.7-1.3-8.8-1.3c-14.5,0-26.3,9.8-26.3,21.9c0,0.1,0,0.1,0,0.2
				c-1.2-0.1-2.4-0.2-3.6-0.2c-16.5,0-29.9,11.1-29.9,24.9c0,8.5,5.1,16,12.9,20.5c-7.8,4.5-12.9,12-12.9,20.5
				c0,13.7,13.4,24.9,29.9,24.9c1.2,0,2.4-0.1,3.6-0.2c0,0.1,0,0.1,0,0.2c0,12.1,11.8,21.9,26.3,21.9c3.1,0,6.1-0.5,8.8-1.3
				c4.7,7.3,14,12.3,24.7,12.3c10.4,0,19.4-4.7,24.2-11.6c4.8,7,13.9,11.6,24.2,11.6c10.7,0,19.9-5,24.7-12.3
				c2.8,0.8,5.7,1.3,8.8,1.3c14.5,0,26.3-9.8,26.3-21.9c0-0.1,0-0.1,0-0.2c1.2,0.1,2.4,0.2,3.6,0.2c16.5,0,29.9-11.1,29.9-24.9
				C198.3,90.5,193.2,83,185.4,78.5z"/>
		</defs>
		<clipPath id="SVGID_2_">
			<use xlink:href="#SVGID_23_"  overflow="visible"/>
		</clipPath>
		<g clip-path="url(#SVGID_2_)">
			<polygon fill="#17244E" points="54.9,177.2 62.8,57.5 84.5,53.6 102.9,57.5 110.7,177.2 			"/>
			<path fill="#04AF91" d="M107.7,28.8c-3.9,11-8.9,21.6-15.4,31.9c3.2,1.2,8.3,2.8,11.5,3.9c7.3-12.1,12.1-24.5,16-37.6
				c2.1-7.6,1.4-5.7,3.2-13.9l-9.9-1.1C110.4,21.4,110.9,20.4,107.7,28.8"/>
			<polygon fill="#F58B21" points="81.6,192.5 71.2,192.5 67.9,111.3 83.8,125.9 			"/>
			
				<polygon opacity="0" fill="none" stroke="#FFFFFF" stroke-width="0.2036" stroke-linecap="round" stroke-linejoin="round" stroke-miterlimit="10" points="
				81.6,192.5 71.2,192.5 67.9,111.3 83.8,125.9 			"/>
			<polygon fill="#F58B21" points="97.2,192.5 86.8,192.5 84.4,125.9 99.3,111.3 			"/>
			
				<polygon opacity="0" fill="none" stroke="#FFFFFF" stroke-width="0.2036" stroke-linecap="round" stroke-linejoin="round" stroke-miterlimit="10" points="
				97.2,192.5 86.8,192.5 84.4,125.9 99.3,111.3 			"/>
			<polygon fill="#04AF91" points="92.3,55.3 84.4,61.8 76.3,54.9 62.8,57.5 67.9,111.3 99.3,111.3 105,56.9 			"/>
			
				<polygon opacity="0" fill="none" stroke="#FFFFFF" stroke-width="0.2036" stroke-linecap="round" stroke-linejoin="round" stroke-miterlimit="10" points="
				92.3,55.3 84.4,61.8 76.3,54.9 62.8,57.5 67.9,111.3 99.3,111.3 105,56.9 			"/>
			<path d="M99.3,111.3H67.9l12.2,14.3c0.6,1.4,2.2,2.4,3.9,2.4c1.6,0,3.1-1,3.9-2.4L99.3,111.3z"/>
			<rect x="79.5" y="77.3" fill="#FFFFFF" width="2" height="9.8"/>
			
				<rect x="79.5" y="77.3" opacity="0" fill="none" stroke="#FFFFFF" stroke-width="0.2036" stroke-linecap="round" stroke-linejoin="round" stroke-miterlimit="10" width="2" height="9.8"/>
			<polygon fill="#FFFFFF" points="90.7,78.9 87.9,78.9 87.9,87 85.8,87 85.8,78.9 83,78.9 83,77.3 90.7,77.3 			"/>
			
				<polygon opacity="0" fill="none" stroke="#FFFFFF" stroke-width="0.2036" stroke-linecap="round" stroke-linejoin="round" stroke-miterlimit="10" points="
				90.7,78.9 87.9,78.9 87.9,87 85.8,87 85.8,78.9 83,78.9 83,77.3 90.7,77.3 			"/>
			<path fill="#FFFFFF" d="M94,87.4l-9.4,5.5L75,87.4V76.6l9.4-5.5l9.6,5.5V87.4z M84.4,69.3l-11,6.3v12.8l11.2,6.3l11-6.3V75.6
				L84.4,69.3z"/>
			
				<path opacity="0" fill="none" stroke="#FFFFFF" stroke-width="0.2036" stroke-linecap="round" stroke-linejoin="round" stroke-miterlimit="10" d="
				M94,87.4l-9.4,5.5L75,87.4V76.6l9.4-5.5l9.6,5.5V87.4z M84.4,69.3l-11,6.3v12.8l11.2,6.3l11-6.3V75.6L84.4,69.3z"/>
			<rect x="66.7" y="109.2" fill="#FAD016" width="34.2" height="4.9"/>
			
				<rect x="66.7" y="109.2" opacity="0" fill="none" stroke="#FFFFFF" stroke-width="0.2036" stroke-linecap="round" stroke-linejoin="round" stroke-miterlimit="10" width="34.2" height="4.9"/>
			<polygon fill="#FCB713" points="84.6,107.2 80.5,109.4 80.5,114.1 84.6,116.4 88.5,114.1 88.5,109.4 			"/>
			
				<polygon opacity="0" fill="none" stroke="#FFFFFF" stroke-width="0.2036" stroke-linecap="round" stroke-linejoin="round" stroke-miterlimit="10" points="
				84.6,107.2 80.5,109.4 80.5,114.1 84.6,116.4 88.5,114.1 88.5,109.4 			"/>
			<g>
				<path d="M94.2,33.7l0-4.2c0-5-4.1-9-9.1-9l-1.7,0c-4.9,0-8.9,4.1-8.9,9.1l0,4.2L94.2,33.7z"/>
				<path fill="#CA942B" d="M72.3,40.5c0,0.7,0.6,1.3,1.3,1.2l21.6-0.1c0.7,0,1.1-0.6,1.1-1.3l0-2.6c0-0.7-0.4-1.1-1.1-1.1
					l-21.6,0.1c-0.7,0-1.3,0.4-1.2,1.1L72.3,40.5z"/>
				<polygon fill="#FCB713" points="84.4,59.3 88.5,55.2 88.5,45.5 80.2,45.6 80.2,55.2 				"/>
				<path fill="#FCB713" d="M94.2,32.6l0.1,15.3l-0.1,0c-2.6,2.1-6,3.4-9.6,3.4c-3.6,0-7.2-1.2-9.9-3.3l-0.1-15.3L94.2,32.6z"/>
				<path fill="#CA942B" d="M84.3,44c0.8,0,1.4-0.6,1.4-1.3l-2.6,0C83.1,43.5,83.6,44,84.3,44"/>
				<path fill="#CA942B" d="M87.3,48.1c0,0.4-0.3,0.8-0.7,0.8l-4.3,0c-0.4,0-0.7-0.4-0.7-0.8c0-0.4,0.3-0.8,0.7-0.8l4.3,0
					C87,47.2,87.3,47.6,87.3,48.1"/>
				<path d="M87.5,50.3c-0.7,0.1-1.5,0.3-2.2,0.4l0-1.8l-1.8,0l0,1.8c-0.7-0.1-1.5-0.3-2.4-0.4l0-1.1c0-1.8,1.5-1.8,3.2-1.8
					c1.8,0,3.3,0,3.3,1.8C87.7,49.2,87.5,50.1,87.5,50.3 M84.3,44c-2.9,0-5.3,2.5-5.3,5.5l0,2.9l0,0.4c1.8,0.5,3.5,0.8,5.4,0.8
					c1.8,0,3.6-0.3,5.3-0.9l0-0.4l0-2.9C89.8,46.5,87.4,44,84.3,44"/>
			</g>
			<path fill="#FCB713" d="M58.5,109.7l3.2,3.2c1.4,1.4,3.7,1.4,5.2,0c1.4-1.4,1.4-3.7,0-5.2l-3.2-3.2L58.5,109.7z"/>
			<path fill="#04AF91" d="M76.1,59.5c-3.3-0.8-9.9-2-13.2-2c-1,0-16.6,18.2-19.1,28.1c-1,3.8,9.3,20.6,14.2,24.8l6.5-6.4
				c-3-3.3-8-11.5-9.8-15.4C53.3,86.1,68.5,69.3,76.1,59.5"/>
			<path fill="#FCB713" d="M114.2,12.3l0.5-4.3c0.2-2,2-3.7,4.1-3.4c2,0.2,3.4,2.2,3.2,4.2l-0.5,4.3L114.2,12.3z"/>
		</g>
	</g>
</g>
<g id="Layer_3">
</g>
<g id="Layer_4">
</g>
</svg>
