<?xml version="1.0" encoding="utf-8"?>
<!-- Generator: Adobe Illustrator 19.2.1, SVG Export Plug-In . SVG Version: 6.00 Build 0)  -->
<svg version="1.1" xmlns="http://www.w3.org/2000/svg" xmlns:xlink="http://www.w3.org/1999/xlink" x="0px" y="0px"
	 viewBox="0 0 257 159" enable-background="new 0 0 257 159" xml:space="preserve">
<g id="Layer_1">
</g>
<g id="Layer_2">
</g>
<g id="Layer_3">
</g>
<g id="Layer_4">
	<g>
		<g>
			<path fill="#515150" d="M157,51.5c-0.1-0.8,0-1.6,0.6-2.3c0.7-0.9,1.8-1.3,2.9-1.2c0.1-0.5,0.3-1,0.6-1.4c1.2-1.6,3.6-2,5.2-0.7
				c1.7,1.2,2,3.6,0.8,5.2c-0.2,0.2-0.3,0.4-0.5,0.5c0.4,0.9,0.3,1.9-0.3,2.7c-0.3,0.3-0.6,0.6-0.9,0.8c0.6,1,0.6,2.4-0.2,3.4
				c-0.8,1.1-2.2,1.5-3.4,1.1c-0.1,0.2-0.2,0.3-0.3,0.5c-1,1.3-2.8,1.5-4,0.6c-0.9-0.6-1.3-1.7-1.1-2.7c-0.4-0.1-0.8-0.3-1.2-0.6
				c-1.5-1.1-1.8-3.2-0.7-4.7C155,51.9,156,51.5,157,51.5"/>
			<path fill="#FFFFFF" d="M158.2,58.2C158.2,58.2,158.2,58.2,158.2,58.2c0.1,0,0.1,0,0.1,0c0.2-0.1,0.3-0.2,0.4-0.3
				c0.2-0.3,0.2-0.6,0-0.8l0,0c-0.2-0.2-0.5,0-0.7,0.1l0,0c-0.2,0.1-0.3,0.2-0.4,0.1l0,0c-0.1-0.1-0.1-0.2,0-0.3
				c0.1-0.1,0.2-0.2,0.4-0.3c0,0,0,0,0,0c0,0-0.1-0.2-0.1-0.2c0,0,0,0,0,0c-0.1,0.1-0.3,0.2-0.4,0.3l0,0c-0.2,0.3-0.2,0.6,0.1,0.7
				l0,0c0.2,0.2,0.5,0,0.7-0.1l0,0c0.1-0.1,0.3-0.2,0.4-0.1l0,0c0.1,0.1,0.1,0.2,0,0.3c0,0-0.2,0.2-0.4,0.3c0,0,0,0-0.1,0
				c0,0,0,0,0,0L158.2,58.2z"/>
			<path fill="#FFFFFF" d="M161.3,54C161.3,54.1,161.3,54.1,161.3,54c0.1,0,0.1,0,0.1,0c0.2-0.1,0.3-0.2,0.4-0.3
				c0.2-0.3,0.2-0.6,0-0.8l0,0c-0.2-0.2-0.5,0-0.7,0.1l0,0c-0.2,0.1-0.3,0.2-0.4,0.1l0,0c-0.1-0.1-0.1-0.2,0-0.3
				c0.1-0.1,0.2-0.2,0.4-0.3c0,0,0,0,0,0c0,0-0.1-0.2-0.1-0.2c0,0,0,0,0,0c-0.1,0.1-0.3,0.2-0.4,0.3l0,0c-0.2,0.3-0.2,0.6,0.1,0.7
				l0,0c0.2,0.2,0.5,0,0.7-0.1l0,0c0.1-0.1,0.3-0.2,0.4-0.1l0,0c0.1,0.1,0.1,0.2,0,0.3c0,0-0.2,0.2-0.4,0.3c0,0,0,0-0.1,0
				c0,0,0,0,0,0L161.3,54z"/>
			<path fill="#FFFFFF" d="M162.8,50.4c-0.1,0-0.2-0.1-0.3,0c-0.1,0-0.2,0-0.3,0.1c-0.1,0-0.2,0.1-0.2,0.2c-0.1,0.1-0.1,0.2-0.1,0.3
				c0,0.1,0,0.2,0,0.3c0,0.1,0.1,0.2,0.1,0.3c0.1,0.1,0.1,0.2,0.2,0.2c0.1,0.1,0.2,0.1,0.3,0.2c0.1,0,0.2,0.1,0.3,0
				c0.1,0,0.2,0,0.3-0.1c0.1,0,0.2-0.1,0.2-0.2c0.1-0.1,0.1-0.2,0.1-0.3c0-0.1,0-0.2,0-0.3c0-0.1-0.1-0.2-0.1-0.3
				c-0.1-0.1-0.1-0.2-0.2-0.2C163,50.5,162.9,50.5,162.8,50.4 M162.9,50.9c0.1,0.1,0.2,0.2,0.3,0.3c0,0.1,0,0.2-0.1,0.3
				c-0.1,0.1-0.2,0.2-0.3,0.1c-0.1,0-0.2-0.1-0.4-0.2c-0.1-0.1-0.2-0.2-0.3-0.3c0-0.1,0-0.2,0.1-0.3c0.1-0.1,0.2-0.2,0.3-0.1
				C162.6,50.7,162.8,50.8,162.9,50.9"/>
			<path fill-rule="evenodd" clip-rule="evenodd" fill="#FFFFFF" d="M164.9,49C164.9,49,164.9,49,164.9,49c0,0.1-0.1,0.1-0.1,0.2
				c0,0-0.1,0.1-0.1,0.1c-0.1,0.1-0.2,0.2-0.3,0.2c-0.1,0-0.3,0-0.4-0.1c-0.1-0.1-0.2-0.2-0.2-0.3c0-0.1,0-0.2,0.1-0.3
				c0.1-0.1,0.1-0.2,0.2-0.2c0,0,0,0,0,0c0-0.1-0.1-0.1-0.1-0.2c0,0,0,0,0,0c0,0-0.1,0.1-0.2,0.1c0,0-0.1,0.1-0.1,0.2
				c-0.1,0.1-0.1,0.2-0.1,0.3c0,0.1,0,0.2,0,0.3c0,0.1,0.1,0.2,0.1,0.3c0.1,0.1,0.1,0.2,0.2,0.2c0.2,0.1,0.4,0.2,0.6,0.2
				c0.2,0,0.4-0.1,0.5-0.3c0.1-0.1,0.2-0.3,0.2-0.4c0,0,0,0,0,0L164.9,49z"/>
			<path fill-rule="evenodd" clip-rule="evenodd" fill="#FFFFFF" d="M165.1,47.3c-0.1,0-0.2,0-0.3,0c-0.1,0-0.2,0-0.2,0.1
				c-0.1,0-0.2,0.1-0.2,0.2c-0.1,0.1-0.1,0.2-0.1,0.3c0,0.1,0,0.2,0,0.3c0,0.1,0.1,0.2,0.1,0.3c0.1,0.1,0.1,0.2,0.2,0.2
				c0.1,0.1,0.2,0.1,0.3,0.2c0.1,0,0.2,0,0.3,0c0.1,0,0.2,0,0.3-0.1c0.1-0.1,0.2-0.1,0.3-0.3c0.2-0.2,0.2-0.4,0.2-0.5c0,0,0,0,0,0
				l-0.2-0.1c0,0,0,0,0,0c0,0.1,0,0.2-0.2,0.4c-0.1,0.1-0.2,0.2-0.3,0.2c-0.1,0-0.2,0-0.3-0.1l0.6-0.8c0,0,0,0,0,0
				C165.5,47.5,165.4,47.3,165.1,47.3 M164.7,48.2c-0.1-0.1-0.1-0.1-0.1-0.2c0-0.1,0-0.2,0.1-0.3s0.2-0.1,0.3-0.1
				c0.1,0,0.2,0,0.2,0.1L164.7,48.2z"/>
			<path fill-rule="evenodd" clip-rule="evenodd" fill="#FFFFFF" d="M160.3,53.6c-0.1,0-0.2,0-0.3,0c-0.1,0-0.2,0-0.2,0.1
				c-0.1,0-0.2,0.1-0.2,0.2c-0.1,0.1-0.1,0.2-0.1,0.3c0,0.1,0,0.2,0,0.3c0,0.1,0.1,0.2,0.1,0.3c0.1,0.1,0.1,0.2,0.2,0.2
				c0.1,0.1,0.2,0.1,0.3,0.2c0.1,0,0.2,0,0.3,0c0.1,0,0.2,0,0.3-0.1c0.1-0.1,0.2-0.1,0.3-0.3c0.2-0.2,0.2-0.4,0.2-0.5c0,0,0,0,0,0
				l-0.2-0.1c0,0,0,0,0,0c0,0.1,0,0.2-0.2,0.4c-0.1,0.1-0.2,0.2-0.3,0.2c-0.1,0-0.2,0-0.3-0.1l0.6-0.8c0,0,0,0,0,0
				C160.7,53.9,160.6,53.7,160.3,53.6 M159.9,54.6c-0.1-0.1-0.1-0.1-0.1-0.2c0-0.1,0-0.2,0.1-0.3s0.2-0.1,0.3-0.1
				c0.1,0,0.2,0,0.2,0.1L159.9,54.6z"/>
			<path fill="#FFFFFF" d="M158.8,55.9c0,0-0.1,0.1-0.1,0.1c-0.1,0.1-0.1,0.1-0.1,0.2c0,0.1,0,0.2,0,0.2c0,0.1,0,0.1,0,0.2
				c0,0.1,0.1,0.1,0.2,0.2c0.1,0.1,0.1,0.1,0.2,0.1c0.1,0,0.1,0,0.2,0c0.1,0,0.1-0.1,0.2-0.1c0.1-0.1,0.1-0.1,0.2-0.2
				c0.1-0.1,0.1-0.2,0.2-0.3c0-0.1,0.1-0.2,0.1-0.2c0,0,0-0.1,0-0.1c0,0,0,0,0,0l-0.7-0.5c-0.2-0.1-0.3-0.2-0.4-0.1
				c-0.1,0-0.3,0.1-0.4,0.3c0,0.1-0.1,0.2-0.1,0.2c0,0-0.1,0.2-0.1,0.3c0,0,0,0,0,0l0.2,0.1c0,0,0,0,0,0s0,0,0,0
				c0-0.2,0.2-0.4,0.2-0.4c0.1-0.1,0.1-0.1,0.2-0.2c0.1,0,0.1,0,0.2,0.1l0,0C158.9,55.9,158.8,55.9,158.8,55.9 M159.1,56.7
				C159.1,56.7,159.1,56.7,159.1,56.7c-0.1,0-0.2,0-0.2,0c-0.1-0.1-0.1-0.1-0.1-0.2c0,0,0-0.1,0.1-0.3c0.1-0.1,0.2-0.2,0.2-0.2
				l0.4,0.3c0,0-0.1,0.1-0.1,0.2C159.3,56.7,159.1,56.7,159.1,56.7"/>
			<path fill-rule="evenodd" clip-rule="evenodd" fill="#FFFFFF" d="M163.2,49.2C163.2,49.2,163.2,49.2,163.2,49.2
				c-0.1,0-0.1,0.1-0.2,0.1c-0.1,0.1-0.1,0.2-0.1,0.2c0,0.1,0,0.1,0,0.2l-0.1-0.1c0,0,0,0,0,0l-0.2,0.2c0,0,0,0,0,0l1.2,0.9
				c0,0,0,0,0,0l0.2-0.2c0,0,0,0,0,0l-0.6-0.4c-0.1-0.1-0.2-0.1-0.2-0.2c0-0.1-0.1-0.1-0.1-0.2c0-0.1,0-0.1,0-0.1c0,0,0-0.1,0.1-0.1
				c0,0,0.1-0.1,0.1-0.1c0,0,0,0,0,0C163.3,49.3,163.3,49.2,163.2,49.2"/>
			<path fill-rule="evenodd" clip-rule="evenodd" fill="#FFFFFF" d="M161.2,50.8C161.2,50.8,161.2,50.8,161.2,50.8
				c-0.1,0.1-0.1,0.1-0.2,0.2c-0.1,0.1-0.2,0.3-0.1,0.4c0,0.1,0.1,0.3,0.2,0.4l0,0.1l-0.1,0.2c0,0,0,0,0,0l0.1,0.2c0,0,0,0,0,0
				l0.1-0.2l0.9,0.9c0.1,0.1,0.1,0.1,0.2,0.2c0,0.1,0.1,0.1,0.1,0.1c0,0,0,0.1,0,0.1c0,0,0,0.1-0.1,0.1c0,0,0,0-0.1,0.1c0,0,0,0,0,0
				c0,0,0,0,0,0c0,0,0.1,0.2,0.1,0.2c0,0,0,0,0,0c0,0,0,0,0.1-0.1c0,0,0.1-0.1,0.1-0.1c0.1-0.1,0.1-0.1,0.1-0.2c0-0.1,0-0.1,0-0.2
				c0-0.1,0-0.2-0.1-0.2c-0.1-0.1-0.1-0.2-0.2-0.3l-0.9-0.9l0.2-0.3c0,0,0,0,0,0l-0.1-0.2c0,0,0,0,0,0l-0.2,0.3c0,0-0.1-0.1-0.1-0.2
				c0,0,0-0.1,0-0.1c0,0,0-0.1,0-0.1c0,0,0-0.1,0.1-0.1c0,0,0,0,0.1-0.1c0,0,0,0,0,0c0,0,0,0,0,0L161.2,50.8
				C161.2,50.7,161.2,50.8,161.2,50.8"/>
			<path fill-rule="evenodd" clip-rule="evenodd" fill="#FFFFFF" d="M160.3,55.6C160.3,55.6,160.3,55.6,160.3,55.6l-0.2,0.3
				c0,0,0,0,0,0l-1.7-1.3c0,0,0,0,0,0l0.2-0.2c0,0,0,0,0,0L160.3,55.6z"/>
		</g>
		<path fill="#A0A0A0" d="M138.5,85.3c-0.4,0.4-0.9,0.7-1.5,1c0.5-0.5,0.7-1.2,0.7-2c-0.4,0.5-0.9,0.9-1.5,1.3
			c-0.7-0.4-1.5-0.5-2.3-0.2c-1.5,0.5-2.4,2.2-1.8,3.7c0.1,0.2,0.2,0.4,0.3,0.6c-2.4,0.7-4.8,0.3-6.8-0.9c-0.1,0.5-0.1,1,0.1,1.5
			c0.3,1,1.1,1.7,2,1.9c-0.5,0.1-0.9,0.2-1.4,0.1c0,0,0,0,0,0c0.5,1.4,1.8,2.2,3.2,2c-0.2,0.1-0.4,0.3-0.7,0.3
			c-0.2,0.1-0.4,0.1-0.5,0.1c0.7,1,2,1.4,3.3,1c-0.7,1.1-1.8,1.9-3.1,2.4c-0.2,0.1-0.5,0.1-0.7,0.2c1.5,0.4,3.1,0.3,4.7-0.2
			c5.1-1.8,6.5-7,5.2-10.7c0-0.1-0.1-0.2-0.1-0.4C138,86.7,138.3,86,138.5,85.3z"/>
		<g>
			<g>
				<path fill="#7F7F7F" d="M198,2c0-0.1,0-0.1,0-0.1c-0.1,0-0.1,0-0.2,0L197.7,2l0.3,0.2l0,0l-0.1-0.1L198,2L198,2l0.2,0.1l0,0
					L198,2L198,2z M197.9,2L197.9,2l-0.1,0L197.9,2c-0.1-0.1,0-0.2,0-0.1C198,1.9,197.9,2,197.9,2z"/>
				<path fill="#7F7F7F" d="M197.6,1.8c-0.1,0.2-0.1,0.4,0.1,0.5c0.2,0.1,0.4,0.1,0.5-0.1c0.1-0.2,0.1-0.4-0.1-0.5
					C198,1.6,197.7,1.7,197.6,1.8z M198.2,2.2c-0.1,0.1-0.3,0.2-0.4,0.1c-0.1-0.1-0.2-0.3-0.1-0.4c0.1-0.1,0.3-0.2,0.4-0.1
					C198.2,1.9,198.3,2.1,198.2,2.2z"/>
			</g>
			<g>
				<g>
					<polygon fill="#7F7F7F" points="182,17.4 182.5,16.7 184.9,18.5 185.8,17.3 186.4,17.8 185,19.6 					"/>
					<g>
						<path fill="#7F7F7F" d="M184.6,15.9l0.5-0.6l2.1,1.5l-0.5,0.6L184.6,15.9z M183.8,14.8c0.2-0.2,0.4-0.2,0.6-0.1
							c0.2,0.2,0.2,0.4,0.1,0.6c-0.2,0.2-0.4,0.2-0.6,0.1C183.7,15.3,183.6,15,183.8,14.8"/>
					</g>
					<polygon fill="#7F7F7F" points="186.1,11.9 186.6,11.2 188.4,12.6 188.1,11.2 188.7,10.5 189,12 190.7,12 190.1,12.8 
						188.6,12.7 188.6,12.8 189.6,13.5 189.1,14.2 					"/>
					<path fill="#7F7F7F" d="M185.3,14.9l0.5-0.6l0.3,0.2l0,0c-0.1-0.2-0.1-0.5,0.1-0.9c0.5-0.6,1-0.4,1.6,0l1.1,0.8l-0.5,0.6
						l-1-0.8c-0.2-0.2-0.5-0.4-0.8-0.1c-0.2,0.3,0,0.6,0.2,0.8l1,0.8l-0.5,0.6L185.3,14.9z"/>
					<path fill="#7F7F7F" d="M190.5,9.7c-0.2-0.2-0.5-0.1-0.7,0.1c-0.2,0.3-0.1,0.6,0.1,0.7L190.5,9.7z M191.8,9.9
						c0.1,0.4,0,0.8-0.2,1.2c-0.5,0.6-1.3,0.8-1.9,0.3c-0.7-0.5-0.7-1.3-0.2-2c0.4-0.6,1.2-0.6,1.8-0.2l0.2,0.2l-1.1,1.5
						c0.3,0.1,0.6,0.1,0.8-0.2c0.2-0.2,0.2-0.4,0.1-0.6L191.8,9.9z"/>
					<path fill="#7F7F7F" d="M191.7,7.5c-0.2,0.3-0.2,0.7,0.1,0.9c0.3,0.2,0.7,0.2,0.9-0.1c0.2-0.3,0.2-0.7-0.1-0.9
						C192.3,7.2,191.9,7.2,191.7,7.5 M194,7.6l-0.4,0.6L193.3,8l0,0c0.1,0.2,0.1,0.6-0.2,0.9c-0.5,0.6-1.2,0.7-1.8,0.2
						c-0.6-0.4-0.8-1.2-0.4-1.8c0.2-0.3,0.5-0.5,0.8-0.5l0,0L190.5,6l0.5-0.6L194,7.6z"/>
				</g>
				<path fill="#7F7F7F" d="M193.9,0.2l-2.8,3.7c-0.1,0.2-0.1,0.4,0.1,0.6l3.7,2.8c0.2,0.1,0.4,0.1,0.5-0.1l2.8-3.7
					c0.1-0.2,0.1-0.4-0.1-0.6l-3.7-2.8C194.2,0,194,0,193.9,0.2z M195.5,5.7L195,6.3L193,4.8l0.5-0.6L195.5,5.7z M192.9,4.3
					c-0.2,0.2-0.4,0.2-0.6,0.1c-0.2-0.2-0.2-0.4-0.1-0.6c0.2-0.2,0.4-0.2,0.6-0.1C193,3.8,193.1,4,192.9,4.3z M197.3,3.3l-0.5,0.6
					l-1-0.8c-0.2-0.2-0.5-0.4-0.8-0.1c-0.3,0.3,0,0.6,0.2,0.8l1,0.8l-0.5,0.6l-2.1-1.5l0.5-0.6l0.3,0.2l0,0
					c-0.1-0.2-0.1-0.5,0.1-0.9c0.5-0.6,1-0.4,1.6,0L197.3,3.3z"/>
			</g>
		</g>
		<g>
			<path fill="#7F7F7F" d="M174.7,23.2l6.6,5.1c0.6,0.5,0.8,1.3,0.3,2l-5.1,6.6c-0.5,0.7-1.4,0.7-2,0.3l-6.6-5.1
				c-0.6-0.5-0.8-1.3-0.3-2l5.1-6.6C173.2,22.8,174.1,22.7,174.7,23.2L174.7,23.2z M179.3,28.3c-0.2-0.2-0.5-0.1-0.7,0.1l-0.7,1
				c-0.2,0.2-0.1,0.5,0.1,0.7l1,0.8c0.2,0.2,0.5,0.1,0.7-0.1l0.7-1c0.2-0.2,0.1-0.5-0.1-0.7L179.3,28.3L179.3,28.3z M178.6,32.2
				l-0.8-0.6c-0.1,0.3-0.3,0.6-0.5,0.9c-1.1,1.5-3.3,1.7-4.8,0.6c-1.5-1.2-1.8-3.3-0.7-4.8c0.2-0.3,0.4-0.5,0.7-0.7l-0.8-0.6
				l-2.9,3.8c-0.2,0.2-0.1,0.5,0.1,0.6l6.2,4.8c0.2,0.2,0.5,0.1,0.6-0.1L178.6,32.2L178.6,32.2z M176,28.5c-1-0.8-2.4-0.6-3.1,0.4
				c-0.7,1-0.5,2.4,0.5,3.1c1,0.8,2.4,0.6,3.1-0.4C177.2,30.7,177,29.3,176,28.5z"/>
		</g>
		<g id="outlook_23_">
			<path fill="#515150" d="M153.6,74.1c0.2-0.3-0.1-0.5-0.3-0.7c-1.2-0.7-2.3-1.4-3.5-2.1c0.4-0.7,0.9-1.5,1.3-2.2l0.1-0.1
				c-1.9-0.7-4.5-1.7-6.4-2.4c-1.6,2.6-3.1,5.2-4.7,7.8c1.5,1.3,3.7,3.1,5.2,4.5l0.1-0.1c0.4-0.7,0.8-1.4,1.3-2.1
				c1.2,0.7,2.4,1.5,3.7,2.2c0.3,0.2,0.6-0.2,0.7-0.4C152,76.9,152.9,75.5,153.6,74.1z M145.2,74.1c-1,0.2-1.9-0.8-1.7-1.8
				c0.2-1.2,1.2-2.5,2.5-2.2c0.8,0.1,1.3,0.9,1.2,1.7C147.1,72.8,146.3,73.9,145.2,74.1z M150.6,78.5c-1.2-0.7-2.5-1.5-3.7-2.2
				c0.6-1,1.2-1.9,1.7-2.9c0.2,0.6,0.3,1.3,0.6,1.9c0.2,0.1,0.4,0.1,0.6,0c1-0.2,2.1-0.5,3.2-0.7C152.2,75.9,151.4,77.2,150.6,78.5z
				 M152.9,74.2c-1.1,0.3-2.3,0.5-3.4,0.8c-0.2-0.7-0.4-1.3-0.6-2c0.2-0.4,0.5-0.8,0.7-1.2c1.2,0.7,2.5,1.5,3.7,2.2
				C153.2,74.1,153.1,74.2,152.9,74.2z"/>
			<path fill="#515150" d="M145.7,70.8c0.4,0,0.7,0.4,0.6,0.8c0,0.6-0.4,1.1-0.8,1.5c-0.3,0.3-0.8,0.3-1.1,0c-0.4-0.4-0.2-1,0.1-1.4
				C144.8,71.2,145.2,70.8,145.7,70.8z"/>
		</g>
		<g>
			<g>
				<path fill="#4F504F" d="M150.3,31.5c0-0.1,0-0.1,0-0.1c-0.1,0-0.1,0-0.2,0l-0.1,0.1l0.3,0.2l0,0l-0.1-0.1L150.3,31.5L150.3,31.5
					l0.2,0.1l0,0L150.3,31.5L150.3,31.5z M150.2,31.5L150.2,31.5l-0.1,0L150.2,31.5c-0.1-0.1,0-0.2,0-0.1
					C150.2,31.4,150.2,31.5,150.2,31.5z"/>
				<path fill="#4F504F" d="M149.9,31.3c-0.1,0.2-0.1,0.4,0.1,0.5c0.2,0.1,0.4,0.1,0.5-0.1c0.1-0.2,0.1-0.4-0.1-0.5
					C150.3,31.1,150,31.2,149.9,31.3z M150.5,31.7c-0.1,0.1-0.3,0.2-0.4,0.1c-0.1-0.1-0.2-0.3-0.1-0.4c0.1-0.1,0.3-0.2,0.4-0.1
					C150.5,31.4,150.6,31.6,150.5,31.7z"/>
			</g>
			<g>
				<g>
					<polygon fill="#4F504F" points="134.2,46.9 134.7,46.2 137.2,48 138.1,46.8 138.7,47.2 137.3,49.1 					"/>
					<g>
						<path fill="#4F504F" d="M136.9,45.4l0.5-0.6l2.1,1.5l-0.5,0.6L136.9,45.4z M136.1,44.3c0.2-0.2,0.4-0.2,0.6-0.1
							c0.2,0.2,0.2,0.4,0.1,0.6c-0.2,0.2-0.4,0.2-0.6,0.1C136,44.8,135.9,44.5,136.1,44.3"/>
					</g>
					<polygon fill="#4F504F" points="138.4,41.4 138.9,40.7 140.7,42.1 140.4,40.7 141,40 141.3,41.5 143,41.5 142.4,42.3 
						140.9,42.2 140.9,42.2 141.9,43 141.4,43.6 					"/>
					<path fill="#4F504F" d="M137.6,44.4l0.5-0.6l0.3,0.2l0,0c-0.1-0.2-0.1-0.5,0.1-0.9c0.5-0.6,1-0.4,1.6,0l1.1,0.8l-0.5,0.6
						l-1-0.8c-0.2-0.2-0.5-0.4-0.8-0.1c-0.2,0.3,0,0.6,0.2,0.8l1,0.8l-0.5,0.6L137.6,44.4z"/>
					<path fill="#4F504F" d="M142.8,39.2c-0.2-0.2-0.5-0.1-0.7,0.1c-0.2,0.3-0.1,0.6,0.1,0.7L142.8,39.2z M144.1,39.3
						c0.1,0.4,0,0.8-0.2,1.2c-0.5,0.6-1.3,0.8-1.9,0.3c-0.7-0.5-0.7-1.3-0.2-2c0.4-0.6,1.2-0.6,1.8-0.2l0.2,0.2l-1.1,1.5
						c0.3,0.1,0.6,0.1,0.8-0.2c0.2-0.2,0.2-0.4,0.1-0.6L144.1,39.3z"/>
					<path fill="#4F504F" d="M144,37c-0.2,0.3-0.2,0.7,0.1,0.9c0.3,0.2,0.7,0.2,0.9-0.1c0.2-0.3,0.2-0.7-0.1-0.9
						C144.6,36.7,144.2,36.7,144,37 M146.3,37.1l-0.4,0.6l-0.3-0.2l0,0c0.1,0.2,0.1,0.6-0.2,0.9c-0.5,0.6-1.2,0.7-1.8,0.2
						c-0.6-0.4-0.8-1.2-0.4-1.8c0.2-0.3,0.5-0.5,0.8-0.5l0,0l-1.2-0.9l0.5-0.6L146.3,37.1z"/>
				</g>
				<path fill="#4F504F" d="M146.2,29.7l-2.8,3.7c-0.1,0.2-0.1,0.4,0.1,0.6l3.7,2.8c0.2,0.1,0.4,0.1,0.5-0.1l2.8-3.7
					c0.1-0.2,0.1-0.4-0.1-0.6l-3.7-2.8C146.5,29.5,146.3,29.5,146.2,29.7z M147.8,35.2l-0.5,0.6l-2.1-1.5l0.5-0.6L147.8,35.2z
					 M145.2,33.7c-0.2,0.2-0.4,0.2-0.6,0.1c-0.2-0.2-0.2-0.4-0.1-0.6c0.2-0.2,0.4-0.2,0.6-0.1C145.3,33.2,145.4,33.5,145.2,33.7z
					 M149.6,32.8l-0.5,0.6l-1-0.8c-0.2-0.2-0.5-0.4-0.8-0.1c-0.3,0.3,0,0.6,0.2,0.8l1,0.8l-0.5,0.6l-2.1-1.5l0.5-0.6l0.3,0.2l0,0
					c-0.1-0.2-0.1-0.5,0.1-0.9c0.5-0.6,1-0.4,1.6,0L149.6,32.8z"/>
			</g>
		</g>
		<g>
			<path fill="#4F504F" d="M127,52.7l6.6,5.1c0.6,0.5,0.8,1.3,0.3,2l-5.1,6.6c-0.5,0.7-1.4,0.7-2,0.3l-6.6-5.1
				c-0.6-0.5-0.8-1.3-0.3-2L125,53C125.5,52.3,126.4,52.2,127,52.7L127,52.7z M131.6,57.8c-0.2-0.2-0.5-0.1-0.7,0.1l-0.7,1
				c-0.2,0.2-0.1,0.5,0.1,0.7l1,0.8c0.2,0.2,0.5,0.1,0.7-0.1l0.7-1c0.2-0.2,0.1-0.5-0.1-0.7L131.6,57.8L131.6,57.8z M130.9,61.7
				l-0.8-0.6c-0.1,0.3-0.3,0.6-0.5,0.9c-1.1,1.5-3.3,1.7-4.8,0.6c-1.5-1.2-1.8-3.3-0.7-4.8c0.2-0.3,0.4-0.5,0.7-0.7l-0.8-0.6
				l-2.9,3.8c-0.2,0.2-0.1,0.5,0.1,0.6l6.2,4.8c0.2,0.2,0.5,0.1,0.6-0.1L130.9,61.7L130.9,61.7z M128.3,58c-1-0.8-2.4-0.6-3.1,0.4
				s-0.5,2.4,0.5,3.1c1,0.8,2.4,0.6,3.1-0.4C129.5,60.1,129.3,58.7,128.3,58z"/>
		</g>
		<g>
			<path fill="#515150" d="M165.7,81c-0.1-0.8,0-1.6,0.6-2.3c0.7-0.9,1.8-1.3,2.9-1.2c0.1-0.5,0.3-1,0.6-1.4c1.2-1.6,3.6-2,5.2-0.7
				c1.7,1.2,2,3.6,0.8,5.2c-0.2,0.2-0.3,0.4-0.5,0.5c0.4,0.9,0.3,1.9-0.3,2.7c-0.3,0.3-0.6,0.6-0.9,0.8c0.6,1,0.6,2.4-0.2,3.4
				c-0.8,1.1-2.2,1.5-3.4,1.1c-0.1,0.2-0.2,0.3-0.3,0.5c-1,1.3-2.8,1.5-4,0.6c-0.9-0.6-1.3-1.7-1.1-2.7c-0.4-0.1-0.8-0.3-1.2-0.6
				c-1.5-1.1-1.8-3.2-0.7-4.7C163.7,81.4,164.7,81,165.7,81"/>
			<path fill="#FFFFFF" d="M166.9,87.7C166.9,87.7,166.9,87.7,166.9,87.7c0.1,0,0.1,0,0.1,0c0.2-0.1,0.3-0.2,0.4-0.3
				c0.2-0.3,0.2-0.6,0-0.8l0,0c-0.2-0.2-0.5,0-0.7,0.1l0,0c-0.2,0.1-0.3,0.2-0.4,0.1l0,0c-0.1-0.1-0.1-0.2,0-0.3
				c0.1-0.1,0.2-0.2,0.4-0.3c0,0,0,0,0,0c0,0-0.1-0.2-0.1-0.2c0,0,0,0,0,0c-0.1,0.1-0.3,0.2-0.4,0.3l0,0c-0.2,0.3-0.2,0.6,0.1,0.7
				l0,0c0.2,0.2,0.5,0,0.7-0.1l0,0c0.1-0.1,0.3-0.2,0.4-0.1l0,0c0.1,0.1,0.1,0.2,0,0.3c0,0-0.2,0.2-0.4,0.3c0,0,0,0-0.1,0
				c0,0,0,0,0,0L166.9,87.7z"/>
			<path fill="#FFFFFF" d="M170,83.5C170,83.5,170,83.5,170,83.5c0.1,0,0.1,0,0.1,0c0.2-0.1,0.3-0.2,0.4-0.3c0.2-0.3,0.2-0.6,0-0.8
				l0,0c-0.2-0.2-0.5,0-0.7,0.1l0,0c-0.2,0.1-0.3,0.2-0.4,0.1l0,0c-0.1-0.1-0.1-0.2,0-0.3c0.1-0.1,0.2-0.2,0.4-0.3c0,0,0,0,0,0
				c0,0-0.1-0.2-0.1-0.2c0,0,0,0,0,0c-0.1,0.1-0.3,0.2-0.4,0.3l0,0c-0.2,0.3-0.2,0.6,0.1,0.7l0,0c0.2,0.2,0.5,0,0.7-0.1l0,0
				c0.1-0.1,0.3-0.2,0.4-0.1l0,0c0.1,0.1,0.1,0.2,0,0.3c0,0-0.2,0.2-0.4,0.3c0,0,0,0-0.1,0c0,0,0,0,0,0L170,83.5z"/>
			<path fill="#FFFFFF" d="M171.5,79.9c-0.1,0-0.2-0.1-0.3,0c-0.1,0-0.2,0-0.3,0.1c-0.1,0-0.2,0.1-0.2,0.2c-0.1,0.1-0.1,0.2-0.1,0.3
				s0,0.2,0,0.3c0,0.1,0.1,0.2,0.1,0.3c0.1,0.1,0.1,0.2,0.2,0.2c0.1,0.1,0.2,0.1,0.3,0.2c0.1,0,0.2,0.1,0.3,0c0.1,0,0.2,0,0.3-0.1
				c0.1,0,0.2-0.1,0.2-0.2c0.1-0.1,0.1-0.2,0.1-0.3c0-0.1,0-0.2,0-0.3c0-0.1-0.1-0.2-0.1-0.3c-0.1-0.1-0.1-0.2-0.2-0.2
				C171.7,80,171.6,80,171.5,79.9 M171.6,80.3c0.1,0.1,0.2,0.2,0.3,0.3c0,0.1,0,0.2-0.1,0.3c-0.1,0.1-0.2,0.2-0.3,0.1
				c-0.1,0-0.2-0.1-0.4-0.2c-0.1-0.1-0.2-0.2-0.3-0.3c0-0.1,0-0.2,0.1-0.3c0.1-0.1,0.2-0.2,0.3-0.1
				C171.3,80.2,171.5,80.2,171.6,80.3"/>
			<path fill-rule="evenodd" clip-rule="evenodd" fill="#FFFFFF" d="M173.6,78.5C173.6,78.5,173.6,78.5,173.6,78.5
				c0,0.1-0.1,0.1-0.1,0.2c0,0-0.1,0.1-0.1,0.1c-0.1,0.1-0.2,0.2-0.3,0.2c-0.1,0-0.3,0-0.4-0.1c-0.1-0.1-0.2-0.2-0.2-0.3
				c0-0.1,0-0.2,0.1-0.3c0.1-0.1,0.1-0.2,0.2-0.2c0,0,0,0,0,0c0-0.1-0.1-0.1-0.1-0.2c0,0,0,0,0,0c0,0-0.1,0.1-0.2,0.1
				c0,0-0.1,0.1-0.1,0.2c-0.1,0.1-0.1,0.2-0.1,0.3c0,0.1,0,0.2,0,0.3c0,0.1,0.1,0.2,0.1,0.3c0.1,0.1,0.1,0.2,0.2,0.2
				c0.2,0.1,0.4,0.2,0.6,0.2c0.2,0,0.4-0.1,0.5-0.3c0.1-0.1,0.2-0.3,0.2-0.4c0,0,0,0,0,0L173.6,78.5z"/>
			<path fill-rule="evenodd" clip-rule="evenodd" fill="#FFFFFF" d="M173.8,76.7c-0.1,0-0.2,0-0.3,0c-0.1,0-0.2,0-0.2,0.1
				c-0.1,0-0.2,0.1-0.2,0.2c-0.1,0.1-0.1,0.2-0.1,0.3c0,0.1,0,0.2,0,0.3c0,0.1,0.1,0.2,0.1,0.3c0.1,0.1,0.1,0.2,0.2,0.2
				c0.1,0.1,0.2,0.1,0.3,0.2c0.1,0,0.2,0,0.3,0c0.1,0,0.2,0,0.3-0.1c0.1-0.1,0.2-0.1,0.3-0.3c0.2-0.2,0.2-0.4,0.2-0.5c0,0,0,0,0,0
				l-0.2-0.1c0,0,0,0,0,0c0,0.1,0,0.2-0.2,0.4c-0.1,0.1-0.2,0.2-0.3,0.2c-0.1,0-0.2,0-0.3-0.1l0.6-0.8c0,0,0,0,0,0
				C174.2,77,174.1,76.8,173.8,76.7 M173.4,77.7c-0.1-0.1-0.1-0.1-0.1-0.2c0-0.1,0-0.2,0.1-0.3c0.1-0.1,0.2-0.1,0.3-0.1
				c0.1,0,0.2,0,0.2,0.1L173.4,77.7z"/>
			<path fill-rule="evenodd" clip-rule="evenodd" fill="#FFFFFF" d="M169.1,83.1c-0.1,0-0.2,0-0.3,0c-0.1,0-0.2,0-0.2,0.1
				c-0.1,0-0.2,0.1-0.2,0.2c-0.1,0.1-0.1,0.2-0.1,0.3c0,0.1,0,0.2,0,0.3c0,0.1,0.1,0.2,0.1,0.3c0.1,0.1,0.1,0.2,0.2,0.2
				c0.1,0.1,0.2,0.1,0.3,0.2c0.1,0,0.2,0,0.3,0c0.1,0,0.2,0,0.3-0.1c0.1-0.1,0.2-0.1,0.3-0.3c0.2-0.2,0.2-0.4,0.2-0.5c0,0,0,0,0,0
				l-0.2-0.1c0,0,0,0,0,0c0,0.1,0,0.2-0.2,0.4c-0.1,0.1-0.2,0.2-0.3,0.2c-0.1,0-0.2,0-0.3-0.1l0.6-0.8c0,0,0,0,0,0
				C169.4,83.4,169.3,83.2,169.1,83.1 M168.6,84.1c-0.1-0.1-0.1-0.1-0.1-0.2c0-0.1,0-0.2,0.1-0.3s0.2-0.1,0.3-0.1
				c0.1,0,0.2,0,0.2,0.1L168.6,84.1z"/>
			<path fill="#FFFFFF" d="M167.5,85.4c0,0-0.1,0.1-0.1,0.1c-0.1,0.1-0.1,0.1-0.1,0.2c0,0.1,0,0.2,0,0.2c0,0.1,0,0.1,0,0.2
				s0.1,0.1,0.2,0.2c0.1,0.1,0.1,0.1,0.2,0.1c0.1,0,0.1,0,0.2,0c0.1,0,0.1-0.1,0.2-0.1c0.1-0.1,0.1-0.1,0.2-0.2
				c0.1-0.1,0.1-0.2,0.2-0.3c0-0.1,0.1-0.2,0.1-0.2c0,0,0-0.1,0-0.1c0,0,0,0,0,0l-0.7-0.5c-0.2-0.1-0.3-0.2-0.4-0.1
				c-0.1,0-0.3,0.1-0.4,0.3c0,0.1-0.1,0.2-0.1,0.2c0,0-0.1,0.2-0.1,0.3c0,0,0,0,0,0l0.2,0.1c0,0,0,0,0,0s0,0,0,0
				c0-0.2,0.2-0.4,0.2-0.4c0.1-0.1,0.1-0.1,0.2-0.2c0.1,0,0.1,0,0.2,0.1l0,0C167.6,85.4,167.5,85.4,167.5,85.4 M167.9,86.2
				C167.8,86.2,167.8,86.2,167.9,86.2c-0.1,0-0.2,0-0.2,0c-0.1-0.1-0.1-0.1-0.1-0.2c0,0,0-0.1,0.1-0.3c0.1-0.1,0.2-0.2,0.2-0.2
				l0.4,0.3c0,0-0.1,0.1-0.1,0.2C168,86.1,167.9,86.2,167.9,86.2"/>
			<path fill-rule="evenodd" clip-rule="evenodd" fill="#FFFFFF" d="M171.9,78.7C171.9,78.7,171.9,78.7,171.9,78.7
				c-0.1,0-0.1,0.1-0.2,0.1c-0.1,0.1-0.1,0.2-0.1,0.2c0,0.1,0,0.1,0,0.2l-0.1-0.1c0,0,0,0,0,0l-0.2,0.2c0,0,0,0,0,0l1.2,0.9
				c0,0,0,0,0,0l0.2-0.2c0,0,0,0,0,0l-0.6-0.4c-0.1-0.1-0.2-0.1-0.2-0.2c0-0.1-0.1-0.1-0.1-0.2c0-0.1,0-0.1,0-0.1c0,0,0-0.1,0.1-0.1
				c0,0,0.1-0.1,0.1-0.1c0,0,0,0,0,0C172,78.8,172,78.7,171.9,78.7"/>
			<path fill-rule="evenodd" clip-rule="evenodd" fill="#FFFFFF" d="M169.9,80.2C169.9,80.3,169.9,80.3,169.9,80.2
				c-0.1,0.1-0.1,0.1-0.2,0.2c-0.1,0.1-0.2,0.3-0.1,0.4c0,0.1,0.1,0.3,0.2,0.4l0,0.1l-0.1,0.2c0,0,0,0,0,0l0.1,0.2c0,0,0,0,0,0
				l0.1-0.2l0.9,0.9c0.1,0.1,0.1,0.1,0.2,0.2c0,0.1,0.1,0.1,0.1,0.1c0,0,0,0.1,0,0.1c0,0,0,0.1-0.1,0.1c0,0,0,0-0.1,0.1c0,0,0,0,0,0
				c0,0,0,0,0,0c0,0,0.1,0.2,0.1,0.2c0,0,0,0,0,0c0,0,0,0,0.1-0.1c0,0,0.1-0.1,0.1-0.1c0.1-0.1,0.1-0.1,0.1-0.2c0-0.1,0-0.1,0-0.2
				c0-0.1,0-0.2-0.1-0.2c-0.1-0.1-0.1-0.2-0.2-0.3l-0.9-0.9l0.2-0.3c0,0,0,0,0,0l-0.1-0.2c0,0,0,0,0,0l-0.2,0.3c0,0-0.1-0.1-0.1-0.2
				c0,0,0-0.1,0-0.1c0,0,0-0.1,0-0.1c0,0,0-0.1,0.1-0.1c0,0,0,0,0.1-0.1c0,0,0,0,0,0c0,0,0,0,0,0L169.9,80.2
				C169.9,80.2,169.9,80.2,169.9,80.2"/>
			<path fill-rule="evenodd" clip-rule="evenodd" fill="#FFFFFF" d="M169,85.1C169,85.1,169,85.1,169,85.1l-0.2,0.3c0,0,0,0,0,0
				l-1.7-1.3c0,0,0,0,0,0l0.2-0.2c0,0,0,0,0,0L169,85.1z"/>
		</g>
		<path fill="#A0A0A0" d="M147.2,114.8c-0.4,0.4-0.9,0.7-1.5,1c0.5-0.5,0.7-1.2,0.7-2c-0.4,0.5-0.9,0.9-1.5,1.3
			c-0.7-0.4-1.5-0.5-2.3-0.2c-1.5,0.5-2.4,2.2-1.8,3.7c0.1,0.2,0.2,0.4,0.3,0.6c-2.4,0.7-4.8,0.3-6.8-0.9c-0.1,0.5-0.1,1,0.1,1.5
			c0.3,1,1.1,1.7,2,1.9c-0.5,0.1-0.9,0.2-1.4,0.1c0,0,0,0,0,0c0.5,1.4,1.8,2.2,3.2,2c-0.2,0.1-0.4,0.3-0.7,0.3
			c-0.2,0.1-0.4,0.1-0.5,0.1c0.7,1,2,1.4,3.3,1c-0.7,1.1-1.8,1.9-3.1,2.4c-0.2,0.1-0.5,0.1-0.7,0.2c1.5,0.4,3.1,0.3,4.7-0.2
			c5.1-1.8,6.5-7,5.2-10.7c0-0.1-0.1-0.2-0.1-0.4C146.7,116.1,147,115.5,147.2,114.8z"/>
		<g>
			<g>
				<path fill="#4F504F" d="M206.7,31.5c0-0.1,0-0.1,0-0.1c-0.1,0-0.1,0-0.2,0l-0.1,0.1l0.3,0.2l0,0l-0.1-0.1L206.7,31.5L206.7,31.5
					l0.2,0.1l0,0L206.7,31.5L206.7,31.5z M206.6,31.5L206.6,31.5l-0.1,0L206.6,31.5c-0.1-0.1,0-0.2,0-0.1
					C206.7,31.4,206.6,31.5,206.6,31.5z"/>
				<path fill="#4F504F" d="M206.3,31.3c-0.1,0.2-0.1,0.4,0.1,0.5c0.2,0.1,0.4,0.1,0.5-0.1c0.1-0.2,0.1-0.4-0.1-0.5
					C206.7,31.1,206.5,31.2,206.3,31.3z M206.9,31.7c-0.1,0.1-0.3,0.2-0.4,0.1c-0.1-0.1-0.2-0.3-0.1-0.4c0.1-0.1,0.3-0.2,0.4-0.1
					C206.9,31.4,207,31.6,206.9,31.7z"/>
			</g>
			<g>
				<g>
					<polygon fill="#4F504F" points="190.7,46.9 191.2,46.2 193.6,48 194.5,46.8 195.1,47.2 193.7,49.1 					"/>
					<g>
						<path fill="#4F504F" d="M193.3,45.4l0.5-0.6l2.1,1.5l-0.5,0.6L193.3,45.4z M192.5,44.3c0.2-0.2,0.4-0.2,0.6-0.1
							c0.2,0.2,0.2,0.4,0.1,0.6c-0.2,0.2-0.4,0.2-0.6,0.1C192.4,44.8,192.3,44.5,192.5,44.3"/>
					</g>
					<polygon fill="#4F504F" points="194.8,41.4 195.3,40.7 197.1,42.1 196.8,40.7 197.4,40 197.7,41.5 199.4,41.5 198.8,42.3 
						197.3,42.2 197.3,42.2 198.3,43 197.8,43.6 					"/>
					<path fill="#4F504F" d="M194,44.4l0.5-0.6l0.3,0.2l0,0c-0.1-0.2-0.1-0.5,0.1-0.9c0.5-0.6,1-0.4,1.6,0l1.1,0.8l-0.5,0.6l-1-0.8
						c-0.2-0.2-0.5-0.4-0.8-0.1c-0.2,0.3,0,0.6,0.2,0.8l1,0.8l-0.5,0.6L194,44.4z"/>
					<path fill="#4F504F" d="M199.2,39.2c-0.2-0.2-0.5-0.1-0.7,0.1c-0.2,0.3-0.1,0.6,0.1,0.7L199.2,39.2z M200.5,39.3
						c0.1,0.4,0,0.8-0.2,1.2c-0.5,0.6-1.3,0.8-1.9,0.3c-0.7-0.5-0.7-1.3-0.2-2c0.4-0.6,1.2-0.6,1.8-0.2l0.2,0.2l-1.1,1.5
						c0.3,0.1,0.6,0.1,0.8-0.2c0.2-0.2,0.2-0.4,0.1-0.6L200.5,39.3z"/>
					<path fill="#4F504F" d="M200.4,37c-0.2,0.3-0.2,0.7,0.1,0.9c0.3,0.2,0.7,0.2,0.9-0.1c0.2-0.3,0.2-0.7-0.1-0.9
						C201,36.7,200.6,36.7,200.4,37 M202.8,37.1l-0.4,0.6l-0.3-0.2l0,0c0.1,0.2,0.1,0.6-0.2,0.9c-0.5,0.6-1.2,0.7-1.8,0.2
						c-0.6-0.4-0.8-1.2-0.4-1.8c0.2-0.3,0.5-0.5,0.8-0.5l0,0l-1.2-0.9l0.5-0.6L202.8,37.1z"/>
				</g>
				<path fill="#4F504F" d="M202.6,29.7l-2.8,3.7c-0.1,0.2-0.1,0.4,0.1,0.6l3.7,2.8c0.2,0.1,0.4,0.1,0.5-0.1l2.8-3.7
					c0.1-0.2,0.1-0.4-0.1-0.6l-3.7-2.8C202.9,29.5,202.7,29.5,202.6,29.7z M204.2,35.2l-0.5,0.6l-2.1-1.5l0.5-0.6L204.2,35.2z
					 M201.6,33.7c-0.2,0.2-0.4,0.2-0.6,0.1c-0.2-0.2-0.2-0.4-0.1-0.6c0.2-0.2,0.4-0.2,0.6-0.1C201.7,33.2,201.8,33.5,201.6,33.7z
					 M206,32.8l-0.5,0.6l-1-0.8c-0.2-0.2-0.5-0.4-0.8-0.1c-0.3,0.3,0,0.6,0.2,0.8l1,0.8l-0.5,0.6l-2.1-1.5l0.5-0.6l0.3,0.2l0,0
					c-0.1-0.2-0.1-0.5,0.1-0.9c0.5-0.6,1-0.4,1.6,0L206,32.8z"/>
			</g>
		</g>
		<g>
			<path fill="#4F504F" d="M183.4,52.7l6.6,5.1c0.6,0.5,0.8,1.3,0.3,2l-5.1,6.6c-0.5,0.7-1.4,0.7-2,0.3l-6.6-5.1
				c-0.6-0.5-0.8-1.3-0.3-2l5.1-6.6C181.9,52.3,182.8,52.2,183.4,52.7L183.4,52.7z M188,57.8c-0.2-0.2-0.5-0.1-0.7,0.1l-0.7,1
				c-0.2,0.2-0.1,0.5,0.1,0.7l1,0.8c0.2,0.2,0.5,0.1,0.7-0.1l0.7-1c0.2-0.2,0.1-0.5-0.1-0.7L188,57.8L188,57.8z M187.3,61.7
				l-0.8-0.6c-0.1,0.3-0.3,0.6-0.5,0.9c-1.1,1.5-3.3,1.7-4.8,0.6c-1.5-1.2-1.8-3.3-0.7-4.8c0.2-0.3,0.4-0.5,0.7-0.7l-0.8-0.6
				l-2.9,3.8c-0.2,0.2-0.1,0.5,0.1,0.6l6.2,4.8c0.2,0.2,0.5,0.1,0.6-0.1L187.3,61.7L187.3,61.7z M184.7,58c-1-0.8-2.4-0.6-3.1,0.4
				c-0.7,1-0.5,2.4,0.5,3.1c1,0.8,2.4,0.6,3.1-0.4C185.9,60.1,185.7,58.7,184.7,58z"/>
		</g>
		<g id="outlook_22_">
			<path fill="#A0A0A0" d="M162.4,103.6c0.2-0.3-0.1-0.5-0.3-0.7c-1.2-0.7-2.3-1.4-3.5-2.1c0.4-0.7,0.9-1.5,1.3-2.2l0.1-0.1
				c-1.9-0.7-4.5-1.7-6.4-2.4c-1.6,2.6-3.1,5.2-4.7,7.8c1.5,1.3,3.7,3.1,5.2,4.5l0.1-0.1c0.4-0.7,0.8-1.4,1.3-2.1
				c1.2,0.7,2.4,1.5,3.7,2.2c0.3,0.2,0.6-0.2,0.7-0.4C160.7,106.4,161.6,105,162.4,103.6z M153.9,103.6c-1,0.2-1.9-0.8-1.7-1.8
				c0.2-1.2,1.2-2.5,2.5-2.2c0.8,0.1,1.3,0.9,1.2,1.7C155.8,102.3,155,103.4,153.9,103.6z M159.3,108c-1.2-0.7-2.5-1.5-3.7-2.2
				c0.6-1,1.2-1.9,1.7-2.9c0.2,0.6,0.3,1.3,0.6,1.9c0.2,0.1,0.4,0.1,0.6,0c1-0.2,2.1-0.5,3.2-0.7C160.9,105.3,160.1,106.7,159.3,108
				z M161.6,103.7c-1.1,0.3-2.3,0.5-3.4,0.8c-0.2-0.7-0.4-1.3-0.6-2c0.2-0.4,0.5-0.8,0.7-1.2c1.2,0.7,2.5,1.5,3.7,2.2
				C162,103.5,161.8,103.7,161.6,103.7z"/>
			<path fill="#A0A0A0" d="M154.4,100.3c0.4,0,0.7,0.4,0.6,0.8c0,0.6-0.4,1.1-0.8,1.5c-0.3,0.3-0.8,0.3-1.1,0
				c-0.4-0.4-0.2-1,0.1-1.4C153.5,100.7,153.9,100.3,154.4,100.3z"/>
		</g>
		<g>
			<path fill="#515150" d="M101.9,51.5c-0.1-0.8,0-1.6,0.6-2.3c0.7-0.9,1.8-1.3,2.9-1.2c0.1-0.5,0.3-1,0.6-1.4
				c1.2-1.6,3.6-2,5.2-0.7c1.7,1.2,2,3.6,0.8,5.2c-0.2,0.2-0.3,0.4-0.5,0.5c0.4,0.9,0.3,1.9-0.3,2.7c-0.3,0.3-0.6,0.6-0.9,0.8
				c0.6,1,0.6,2.4-0.2,3.4c-0.8,1.1-2.2,1.5-3.4,1.1c-0.1,0.2-0.2,0.3-0.3,0.5c-1,1.3-2.8,1.5-4,0.6c-0.9-0.6-1.3-1.7-1.1-2.7
				c-0.4-0.1-0.8-0.3-1.2-0.6c-1.5-1.1-1.8-3.2-0.7-4.7C99.9,51.9,100.9,51.5,101.9,51.5"/>
			<path fill="#FFFFFF" d="M103,58.2C103.1,58.2,103.1,58.2,103,58.2c0.1,0,0.1,0,0.1,0c0.2-0.1,0.3-0.2,0.4-0.3
				c0.2-0.3,0.2-0.6,0-0.8l0,0c-0.2-0.2-0.5,0-0.7,0.1l0,0c-0.2,0.1-0.3,0.2-0.4,0.1l0,0c-0.1-0.1-0.1-0.2,0-0.3
				c0.1-0.1,0.2-0.2,0.4-0.3c0,0,0,0,0,0c0,0-0.1-0.2-0.1-0.2c0,0,0,0,0,0c-0.1,0.1-0.3,0.2-0.4,0.3l0,0c-0.2,0.3-0.2,0.6,0.1,0.7
				l0,0c0.2,0.2,0.5,0,0.7-0.1l0,0c0.1-0.1,0.3-0.2,0.4-0.1l0,0c0.1,0.1,0.1,0.2,0,0.3c0,0-0.2,0.2-0.4,0.3c0,0,0,0-0.1,0
				c0,0,0,0,0,0L103,58.2z"/>
			<path fill="#FFFFFF" d="M106.1,54C106.2,54.1,106.2,54.1,106.1,54c0.1,0,0.1,0,0.1,0c0.2-0.1,0.3-0.2,0.4-0.3
				c0.2-0.3,0.2-0.6,0-0.8l0,0c-0.2-0.2-0.5,0-0.7,0.1l0,0c-0.2,0.1-0.3,0.2-0.4,0.1l0,0c-0.1-0.1-0.1-0.2,0-0.3
				c0.1-0.1,0.2-0.2,0.4-0.3c0,0,0,0,0,0c0,0-0.1-0.2-0.1-0.2c0,0,0,0,0,0c-0.1,0.1-0.3,0.2-0.4,0.3l0,0c-0.2,0.3-0.2,0.6,0.1,0.7
				l0,0c0.2,0.2,0.5,0,0.7-0.1l0,0c0.1-0.1,0.3-0.2,0.4-0.1l0,0c0.1,0.1,0.1,0.2,0,0.3c0,0-0.2,0.2-0.4,0.3c0,0,0,0-0.1,0
				c0,0,0,0,0,0L106.1,54z"/>
			<path fill="#FFFFFF" d="M107.7,50.4c-0.1,0-0.2-0.1-0.3,0c-0.1,0-0.2,0-0.3,0.1c-0.1,0-0.2,0.1-0.2,0.2c-0.1,0.1-0.1,0.2-0.1,0.3
				s0,0.2,0,0.3c0,0.1,0.1,0.2,0.1,0.3c0.1,0.1,0.1,0.2,0.2,0.2c0.1,0.1,0.2,0.1,0.3,0.2c0.1,0,0.2,0.1,0.3,0c0.1,0,0.2,0,0.3-0.1
				s0.2-0.1,0.2-0.2c0.1-0.1,0.1-0.2,0.1-0.3c0-0.1,0-0.2,0-0.3c0-0.1-0.1-0.2-0.1-0.3c-0.1-0.1-0.1-0.2-0.2-0.2
				C107.9,50.5,107.8,50.5,107.7,50.4 M107.8,50.9c0.1,0.1,0.2,0.2,0.3,0.3c0,0.1,0,0.2-0.1,0.3c-0.1,0.1-0.2,0.2-0.3,0.1
				c-0.1,0-0.2-0.1-0.4-0.2c-0.1-0.1-0.2-0.2-0.3-0.3c0-0.1,0-0.2,0.1-0.3c0.1-0.1,0.2-0.2,0.3-0.1
				C107.5,50.7,107.7,50.8,107.8,50.9"/>
			<path fill-rule="evenodd" clip-rule="evenodd" fill="#FFFFFF" d="M109.8,49C109.8,49,109.8,49,109.8,49c0,0.1-0.1,0.1-0.1,0.2
				c0,0-0.1,0.1-0.1,0.1c-0.1,0.1-0.2,0.2-0.3,0.2c-0.1,0-0.3,0-0.4-0.1c-0.1-0.1-0.2-0.2-0.2-0.3c0-0.1,0-0.2,0.1-0.3
				c0.1-0.1,0.1-0.2,0.2-0.2c0,0,0,0,0,0c0-0.1-0.1-0.1-0.1-0.2c0,0,0,0,0,0c0,0-0.1,0.1-0.2,0.1c0,0-0.1,0.1-0.1,0.2
				c-0.1,0.1-0.1,0.2-0.1,0.3c0,0.1,0,0.2,0,0.3c0,0.1,0.1,0.2,0.1,0.3c0.1,0.1,0.1,0.2,0.2,0.2c0.2,0.1,0.4,0.2,0.6,0.2
				c0.2,0,0.4-0.1,0.5-0.3c0.1-0.1,0.2-0.3,0.2-0.4c0,0,0,0,0,0L109.8,49z"/>
			<path fill-rule="evenodd" clip-rule="evenodd" fill="#FFFFFF" d="M110,47.3c-0.1,0-0.2,0-0.3,0c-0.1,0-0.2,0-0.2,0.1
				c-0.1,0-0.2,0.1-0.2,0.2c-0.1,0.1-0.1,0.2-0.1,0.3c0,0.1,0,0.2,0,0.3c0,0.1,0.1,0.2,0.1,0.3c0.1,0.1,0.1,0.2,0.2,0.2
				c0.1,0.1,0.2,0.1,0.3,0.2c0.1,0,0.2,0,0.3,0c0.1,0,0.2,0,0.3-0.1c0.1-0.1,0.2-0.1,0.3-0.3c0.2-0.2,0.2-0.4,0.2-0.5c0,0,0,0,0,0
				l-0.2-0.1c0,0,0,0,0,0c0,0.1,0,0.2-0.2,0.4c-0.1,0.1-0.2,0.2-0.3,0.2c-0.1,0-0.2,0-0.3-0.1l0.6-0.8c0,0,0,0,0,0
				C110.4,47.5,110.2,47.3,110,47.3 M109.6,48.2c-0.1-0.1-0.1-0.1-0.1-0.2c0-0.1,0-0.2,0.1-0.3c0.1-0.1,0.2-0.1,0.3-0.1
				c0.1,0,0.2,0,0.2,0.1L109.6,48.2z"/>
			<path fill-rule="evenodd" clip-rule="evenodd" fill="#FFFFFF" d="M105.2,53.6c-0.1,0-0.2,0-0.3,0c-0.1,0-0.2,0-0.2,0.1
				c-0.1,0-0.2,0.1-0.2,0.2c-0.1,0.1-0.1,0.2-0.1,0.3c0,0.1,0,0.2,0,0.3c0,0.1,0.1,0.2,0.1,0.3c0.1,0.1,0.1,0.2,0.2,0.2
				c0.1,0.1,0.2,0.1,0.3,0.2c0.1,0,0.2,0,0.3,0c0.1,0,0.2,0,0.3-0.1c0.1-0.1,0.2-0.1,0.3-0.3c0.2-0.2,0.2-0.4,0.2-0.5c0,0,0,0,0,0
				l-0.2-0.1c0,0,0,0,0,0c0,0.1,0,0.2-0.2,0.4c-0.1,0.1-0.2,0.2-0.3,0.2c-0.1,0-0.2,0-0.3-0.1l0.6-0.8c0,0,0,0,0,0
				C105.6,53.9,105.5,53.7,105.2,53.6 M104.8,54.6c-0.1-0.1-0.1-0.1-0.1-0.2c0-0.1,0-0.2,0.1-0.3c0.1-0.1,0.2-0.1,0.3-0.1
				c0.1,0,0.2,0,0.2,0.1L104.8,54.6z"/>
			<path fill="#FFFFFF" d="M103.7,55.9c0,0-0.1,0.1-0.1,0.1c-0.1,0.1-0.1,0.1-0.1,0.2c0,0.1,0,0.2,0,0.2c0,0.1,0,0.1,0,0.2
				c0,0.1,0.1,0.1,0.2,0.2c0.1,0.1,0.1,0.1,0.2,0.1c0.1,0,0.1,0,0.2,0c0.1,0,0.1-0.1,0.2-0.1c0.1-0.1,0.1-0.1,0.2-0.2
				c0.1-0.1,0.1-0.2,0.2-0.3c0-0.1,0.1-0.2,0.1-0.2c0,0,0-0.1,0-0.1c0,0,0,0,0,0l-0.7-0.5c-0.2-0.1-0.3-0.2-0.4-0.1
				c-0.1,0-0.3,0.1-0.4,0.3c0,0.1-0.1,0.2-0.1,0.2c0,0-0.1,0.2-0.1,0.3c0,0,0,0,0,0l0.2,0.1c0,0,0,0,0,0s0,0,0,0
				c0-0.2,0.2-0.4,0.2-0.4c0.1-0.1,0.1-0.1,0.2-0.2c0.1,0,0.1,0,0.2,0.1l0,0C103.8,55.9,103.7,55.9,103.7,55.9 M104,56.7
				C104,56.7,104,56.7,104,56.7c-0.1,0-0.2,0-0.2,0c-0.1-0.1-0.1-0.1-0.1-0.2c0,0,0-0.1,0.1-0.3c0.1-0.1,0.2-0.2,0.2-0.2l0.4,0.3
				c0,0-0.1,0.1-0.1,0.2C104.1,56.7,104,56.7,104,56.7"/>
			<path fill-rule="evenodd" clip-rule="evenodd" fill="#FFFFFF" d="M108.1,49.2C108.1,49.2,108.1,49.2,108.1,49.2
				c-0.1,0-0.1,0.1-0.2,0.1c-0.1,0.1-0.1,0.2-0.1,0.2c0,0.1,0,0.1,0,0.2l-0.1-0.1c0,0,0,0,0,0l-0.2,0.2c0,0,0,0,0,0l1.2,0.9
				c0,0,0,0,0,0l0.2-0.2c0,0,0,0,0,0l-0.6-0.4c-0.1-0.1-0.2-0.1-0.2-0.2c0-0.1-0.1-0.1-0.1-0.2c0-0.1,0-0.1,0-0.1c0,0,0-0.1,0.1-0.1
				c0,0,0.1-0.1,0.1-0.1c0,0,0,0,0,0C108.2,49.3,108.1,49.2,108.1,49.2"/>
			<path fill-rule="evenodd" clip-rule="evenodd" fill="#FFFFFF" d="M106.1,50.8C106.1,50.8,106.1,50.8,106.1,50.8
				c-0.1,0.1-0.1,0.1-0.2,0.2c-0.1,0.1-0.2,0.3-0.1,0.4c0,0.1,0.1,0.3,0.2,0.4l0,0.1L106,52c0,0,0,0,0,0l0.1,0.2c0,0,0,0,0,0
				l0.1-0.2l0.9,0.9c0.1,0.1,0.1,0.1,0.2,0.2c0,0.1,0.1,0.1,0.1,0.1c0,0,0,0.1,0,0.1c0,0,0,0.1-0.1,0.1c0,0,0,0-0.1,0.1c0,0,0,0,0,0
				c0,0,0,0,0,0c0,0,0.1,0.2,0.1,0.2c0,0,0,0,0,0c0,0,0,0,0.1-0.1c0,0,0.1-0.1,0.1-0.1c0.1-0.1,0.1-0.1,0.1-0.2c0-0.1,0-0.1,0-0.2
				c0-0.1,0-0.2-0.1-0.2c-0.1-0.1-0.1-0.2-0.2-0.3l-0.9-0.9l0.2-0.3c0,0,0,0,0,0l-0.1-0.2c0,0,0,0,0,0l-0.2,0.3c0,0-0.1-0.1-0.1-0.2
				c0,0,0-0.1,0-0.1c0,0,0-0.1,0-0.1c0,0,0-0.1,0.1-0.1c0,0,0,0,0.1-0.1c0,0,0,0,0,0c0,0,0,0,0,0L106.1,50.8
				C106.1,50.7,106.1,50.8,106.1,50.8"/>
			<path fill-rule="evenodd" clip-rule="evenodd" fill="#FFFFFF" d="M105.2,55.6C105.2,55.6,105.2,55.6,105.2,55.6l-0.2,0.3
				c0,0,0,0,0,0l-1.7-1.3c0,0,0,0,0,0l0.2-0.2c0,0,0,0,0,0L105.2,55.6z"/>
		</g>
		<g id="fb_24_">
			<g>
				<g>
					<path fill="#A0A0A0" d="M121.5,73.4l-1.5-1.1c-0.2-0.1-0.6-0.1-0.8,0.3l-0.7,1l1.9,1.4l-1.4,1.9l-1.9-1.4l-3.4,4.6l-1.9-1.4
						l3.4-4.6l-1.5-1.1L115,71l1.5,1.1l0.7-0.9c1-1.4,2.9-1.7,4.1-0.8l1.5,1.1L121.5,73.4z"/>
				</g>
			</g>
		</g>
		<g>
			<g>
				<path fill="#7F7F7F" d="M142.8,2c0-0.1,0-0.1,0-0.1c-0.1,0-0.1,0-0.2,0L142.6,2l0.3,0.2l0,0l-0.1-0.1L142.8,2L142.8,2l0.2,0.1
					l0,0L142.8,2L142.8,2z M142.8,2L142.8,2l-0.1,0L142.8,2c-0.1-0.1,0-0.2,0-0.1C142.8,1.9,142.8,2,142.8,2z"/>
				<path fill="#7F7F7F" d="M142.5,1.8c-0.1,0.2-0.1,0.4,0.1,0.5c0.2,0.1,0.4,0.1,0.5-0.1c0.1-0.2,0.1-0.4-0.1-0.5
					C142.9,1.6,142.6,1.7,142.5,1.8z M143,2.2c-0.1,0.1-0.3,0.2-0.4,0.1c-0.1-0.1-0.2-0.3-0.1-0.4c0.1-0.1,0.3-0.2,0.4-0.1
					C143.1,1.9,143.1,2.1,143,2.2z"/>
			</g>
			<g>
				<g>
					<polygon fill="#7F7F7F" points="126.8,17.4 127.3,16.7 129.8,18.5 130.7,17.3 131.3,17.8 129.9,19.6 					"/>
					<g>
						<path fill="#7F7F7F" d="M129.5,15.9l0.5-0.6l2.1,1.5l-0.5,0.6L129.5,15.9z M128.7,14.8c0.2-0.2,0.4-0.2,0.6-0.1
							c0.2,0.2,0.2,0.4,0.1,0.6c-0.2,0.2-0.4,0.2-0.6,0.1C128.6,15.3,128.5,15,128.7,14.8"/>
					</g>
					<polygon fill="#7F7F7F" points="131,11.9 131.5,11.2 133.3,12.6 133,11.2 133.6,10.5 133.9,12 135.6,12 135,12.8 133.5,12.7 
						133.5,12.8 134.5,13.5 134,14.2 					"/>
					<path fill="#7F7F7F" d="M130.2,14.9l0.5-0.6l0.3,0.2l0,0c-0.1-0.2-0.1-0.5,0.1-0.9c0.5-0.6,1-0.4,1.6,0l1.1,0.8l-0.5,0.6
						l-1-0.8c-0.2-0.2-0.5-0.4-0.8-0.1c-0.2,0.3,0,0.6,0.2,0.8l1,0.8l-0.5,0.6L130.2,14.9z"/>
					<path fill="#7F7F7F" d="M135.4,9.7c-0.2-0.2-0.5-0.1-0.7,0.1c-0.2,0.3-0.1,0.6,0.1,0.7L135.4,9.7z M136.7,9.9
						c0.1,0.4,0,0.8-0.2,1.2c-0.5,0.6-1.3,0.8-1.9,0.3c-0.7-0.5-0.7-1.3-0.2-2c0.4-0.6,1.2-0.6,1.8-0.2l0.2,0.2l-1.1,1.5
						c0.3,0.1,0.6,0.1,0.8-0.2c0.2-0.2,0.2-0.4,0.1-0.6L136.7,9.9z"/>
					<path fill="#7F7F7F" d="M136.6,7.5c-0.2,0.3-0.2,0.7,0.1,0.9c0.3,0.2,0.7,0.2,0.9-0.1c0.2-0.3,0.2-0.7-0.1-0.9
						C137.2,7.2,136.8,7.2,136.6,7.5 M138.9,7.6l-0.4,0.6L138.2,8l0,0c0.1,0.2,0.1,0.6-0.2,0.9c-0.5,0.6-1.2,0.7-1.8,0.2
						c-0.6-0.4-0.8-1.2-0.4-1.8c0.2-0.3,0.5-0.5,0.8-0.5l0,0L135.4,6l0.5-0.6L138.9,7.6z"/>
				</g>
				<path fill="#7F7F7F" d="M138.8,0.2L136,3.9c-0.1,0.2-0.1,0.4,0.1,0.6l3.7,2.8c0.2,0.1,0.4,0.1,0.5-0.1l2.8-3.7
					c0.1-0.2,0.1-0.4-0.1-0.6l-3.7-2.8C139.1,0,138.9,0,138.8,0.2z M140.4,5.7l-0.5,0.6l-2.1-1.5l0.5-0.6L140.4,5.7z M137.8,4.3
					c-0.2,0.2-0.4,0.2-0.6,0.1c-0.2-0.2-0.2-0.4-0.1-0.6c0.2-0.2,0.4-0.2,0.6-0.1C137.9,3.8,138,4,137.8,4.3z M142.2,3.3l-0.5,0.6
					l-1-0.8c-0.2-0.2-0.5-0.4-0.8-0.1c-0.3,0.3,0,0.6,0.2,0.8l1,0.8l-0.5,0.6l-2.1-1.5l0.5-0.6l0.3,0.2l0,0
					c-0.1-0.2-0.1-0.5,0.1-0.9c0.5-0.6,1-0.4,1.6,0L142.2,3.3z"/>
			</g>
		</g>
		<g>
			<path fill="#7F7F7F" d="M119.6,23.2l6.6,5.1c0.6,0.5,0.8,1.3,0.3,2l-5.1,6.6c-0.5,0.7-1.4,0.7-2,0.3l-6.6-5.1
				c-0.6-0.5-0.8-1.3-0.3-2l5.1-6.6C118.1,22.8,119,22.7,119.6,23.2L119.6,23.2z M124.2,28.3c-0.2-0.2-0.5-0.1-0.7,0.1l-0.7,1
				c-0.2,0.2-0.1,0.5,0.1,0.7l1,0.8c0.2,0.2,0.5,0.1,0.7-0.1l0.7-1c0.2-0.2,0.1-0.5-0.1-0.7L124.2,28.3L124.2,28.3z M123.5,32.2
				l-0.8-0.6c-0.1,0.3-0.3,0.6-0.5,0.9c-1.1,1.5-3.3,1.7-4.8,0.6c-1.5-1.2-1.8-3.3-0.7-4.8c0.2-0.3,0.4-0.5,0.7-0.7l-0.8-0.6
				l-2.9,3.8c-0.2,0.2-0.1,0.5,0.1,0.6l6.2,4.8c0.2,0.2,0.5,0.1,0.6-0.1L123.5,32.2L123.5,32.2z M120.9,28.5c-1-0.8-2.4-0.6-3.1,0.4
				c-0.7,1-0.5,2.4,0.5,3.1c1,0.8,2.4,0.6,3.1-0.4C122.1,30.7,121.9,29.3,120.9,28.5z"/>
		</g>
		<g>
			<path fill="#515150" d="M43.7,51.5c-0.1-0.8,0-1.6,0.6-2.3c0.7-0.9,1.8-1.3,2.9-1.2c0.1-0.5,0.3-1,0.6-1.4c1.2-1.6,3.6-2,5.2-0.7
				c1.7,1.2,2,3.6,0.8,5.2c-0.2,0.2-0.3,0.4-0.5,0.5c0.4,0.9,0.3,1.9-0.3,2.7c-0.3,0.3-0.6,0.6-0.9,0.8c0.6,1,0.6,2.4-0.2,3.4
				c-0.8,1.1-2.2,1.5-3.4,1.1c-0.1,0.2-0.2,0.3-0.3,0.5c-1,1.3-2.8,1.5-4,0.6c-0.9-0.6-1.3-1.7-1.1-2.7c-0.4-0.1-0.8-0.3-1.2-0.6
				c-1.5-1.1-1.8-3.2-0.7-4.7C41.7,51.9,42.7,51.5,43.7,51.5"/>
			<path fill="#FFFFFF" d="M44.8,58.2C44.9,58.2,44.9,58.2,44.8,58.2c0.1,0,0.1,0,0.1,0c0.2-0.1,0.3-0.2,0.4-0.3
				c0.2-0.3,0.2-0.6,0-0.8l0,0c-0.2-0.2-0.5,0-0.7,0.1l0,0c-0.2,0.1-0.3,0.2-0.4,0.1l0,0c-0.1-0.1-0.1-0.2,0-0.3
				c0.1-0.1,0.2-0.2,0.4-0.3c0,0,0,0,0,0c0,0-0.1-0.2-0.1-0.2c0,0,0,0,0,0c-0.1,0.1-0.3,0.2-0.4,0.3l0,0c-0.2,0.3-0.2,0.6,0.1,0.7
				l0,0c0.2,0.2,0.5,0,0.7-0.1l0,0c0.1-0.1,0.3-0.2,0.4-0.1l0,0c0.1,0.1,0.1,0.2,0,0.3c0,0-0.2,0.2-0.4,0.3c0,0,0,0-0.1,0
				c0,0,0,0,0,0L44.8,58.2z"/>
			<path fill="#FFFFFF" d="M47.9,54C48,54.1,48,54.1,47.9,54c0.1,0,0.1,0,0.1,0c0.2-0.1,0.3-0.2,0.4-0.3c0.2-0.3,0.2-0.6,0-0.8l0,0
				c-0.2-0.2-0.5,0-0.7,0.1l0,0c-0.2,0.1-0.3,0.2-0.4,0.1l0,0c-0.1-0.1-0.1-0.2,0-0.3c0.1-0.1,0.2-0.2,0.4-0.3c0,0,0,0,0,0
				c0,0-0.1-0.2-0.1-0.2c0,0,0,0,0,0c-0.1,0.1-0.3,0.2-0.4,0.3l0,0C47,53,47,53.3,47.2,53.4l0,0c0.2,0.2,0.5,0,0.7-0.1l0,0
				c0.1-0.1,0.3-0.2,0.4-0.1l0,0c0.1,0.1,0.1,0.2,0,0.3c0,0-0.2,0.2-0.4,0.3c0,0,0,0-0.1,0c0,0,0,0,0,0L47.9,54z"/>
			<path fill="#FFFFFF" d="M49.5,50.4c-0.1,0-0.2-0.1-0.3,0c-0.1,0-0.2,0-0.3,0.1c-0.1,0-0.2,0.1-0.2,0.2c-0.1,0.1-0.1,0.2-0.1,0.3
				s0,0.2,0,0.3c0,0.1,0.1,0.2,0.1,0.3c0.1,0.1,0.1,0.2,0.2,0.2c0.1,0.1,0.2,0.1,0.3,0.2c0.1,0,0.2,0.1,0.3,0c0.1,0,0.2,0,0.3-0.1
				s0.2-0.1,0.2-0.2c0.1-0.1,0.1-0.2,0.1-0.3c0-0.1,0-0.2,0-0.3c0-0.1-0.1-0.2-0.1-0.3c-0.1-0.1-0.1-0.2-0.2-0.2
				C49.7,50.5,49.6,50.5,49.5,50.4 M49.6,50.9c0.1,0.1,0.2,0.2,0.3,0.3c0,0.1,0,0.2-0.1,0.3c-0.1,0.1-0.2,0.2-0.3,0.1
				c-0.1,0-0.2-0.1-0.4-0.2c-0.1-0.1-0.2-0.2-0.3-0.3c0-0.1,0-0.2,0.1-0.3c0.1-0.1,0.2-0.2,0.3-0.1C49.3,50.7,49.5,50.8,49.6,50.9"
				/>
			<path fill-rule="evenodd" clip-rule="evenodd" fill="#FFFFFF" d="M51.6,49C51.6,49,51.6,49,51.6,49c0,0.1-0.1,0.1-0.1,0.2
				c0,0-0.1,0.1-0.1,0.1c-0.1,0.1-0.2,0.2-0.3,0.2c-0.1,0-0.3,0-0.4-0.1c-0.1-0.1-0.2-0.2-0.2-0.3c0-0.1,0-0.2,0.1-0.3
				c0.1-0.1,0.1-0.2,0.2-0.2c0,0,0,0,0,0c0-0.1-0.1-0.1-0.1-0.2c0,0,0,0,0,0c0,0-0.1,0.1-0.2,0.1c0,0-0.1,0.1-0.1,0.2
				c-0.1,0.1-0.1,0.2-0.1,0.3c0,0.1,0,0.2,0,0.3c0,0.1,0.1,0.2,0.1,0.3c0.1,0.1,0.1,0.2,0.2,0.2c0.2,0.1,0.4,0.2,0.6,0.2
				c0.2,0,0.4-0.1,0.5-0.3c0.1-0.1,0.2-0.3,0.2-0.4c0,0,0,0,0,0L51.6,49z"/>
			<path fill-rule="evenodd" clip-rule="evenodd" fill="#FFFFFF" d="M51.8,47.3c-0.1,0-0.2,0-0.3,0c-0.1,0-0.2,0-0.2,0.1
				c-0.1,0-0.2,0.1-0.2,0.2C51,47.6,51,47.7,51,47.8c0,0.1,0,0.2,0,0.3c0,0.1,0.1,0.2,0.1,0.3c0.1,0.1,0.1,0.2,0.2,0.2
				c0.1,0.1,0.2,0.1,0.3,0.2c0.1,0,0.2,0,0.3,0c0.1,0,0.2,0,0.3-0.1c0.1-0.1,0.2-0.1,0.3-0.3c0.2-0.2,0.2-0.4,0.2-0.5c0,0,0,0,0,0
				l-0.2-0.1c0,0,0,0,0,0c0,0.1,0,0.2-0.2,0.4c-0.1,0.1-0.2,0.2-0.3,0.2c-0.1,0-0.2,0-0.3-0.1l0.6-0.8c0,0,0,0,0,0
				C52.2,47.5,52,47.3,51.8,47.3 M51.4,48.2c-0.1-0.1-0.1-0.1-0.1-0.2c0-0.1,0-0.2,0.1-0.3c0.1-0.1,0.2-0.1,0.3-0.1
				c0.1,0,0.2,0,0.2,0.1L51.4,48.2z"/>
			<path fill-rule="evenodd" clip-rule="evenodd" fill="#FFFFFF" d="M47,53.6c-0.1,0-0.2,0-0.3,0c-0.1,0-0.2,0-0.2,0.1
				c-0.1,0-0.2,0.1-0.2,0.2c-0.1,0.1-0.1,0.2-0.1,0.3c0,0.1,0,0.2,0,0.3c0,0.1,0.1,0.2,0.1,0.3c0.1,0.1,0.1,0.2,0.2,0.2
				c0.1,0.1,0.2,0.1,0.3,0.2c0.1,0,0.2,0,0.3,0c0.1,0,0.2,0,0.3-0.1c0.1-0.1,0.2-0.1,0.3-0.3c0.2-0.2,0.2-0.4,0.2-0.5c0,0,0,0,0,0
				l-0.2-0.1c0,0,0,0,0,0c0,0.1,0,0.2-0.2,0.4c-0.1,0.1-0.2,0.2-0.3,0.2c-0.1,0-0.2,0-0.3-0.1l0.6-0.8c0,0,0,0,0,0
				C47.4,53.9,47.3,53.7,47,53.6 M46.6,54.6c-0.1-0.1-0.1-0.1-0.1-0.2c0-0.1,0-0.2,0.1-0.3c0.1-0.1,0.2-0.1,0.3-0.1
				c0.1,0,0.2,0,0.2,0.1L46.6,54.6z"/>
			<path fill="#FFFFFF" d="M45.5,55.9c0,0-0.1,0.1-0.1,0.1c-0.1,0.1-0.1,0.1-0.1,0.2c0,0.1,0,0.2,0,0.2c0,0.1,0,0.1,0,0.2
				s0.1,0.1,0.2,0.2c0.1,0.1,0.1,0.1,0.2,0.1c0.1,0,0.1,0,0.2,0c0.1,0,0.1-0.1,0.2-0.1c0.1-0.1,0.1-0.1,0.2-0.2
				c0.1-0.1,0.1-0.2,0.2-0.3c0-0.1,0.1-0.2,0.1-0.2c0,0,0-0.1,0-0.1c0,0,0,0,0,0l-0.7-0.5c-0.2-0.1-0.3-0.2-0.4-0.1
				c-0.1,0-0.3,0.1-0.4,0.3c0,0.1-0.1,0.2-0.1,0.2c0,0-0.1,0.2-0.1,0.3c0,0,0,0,0,0l0.2,0.1c0,0,0,0,0,0s0,0,0,0
				c0-0.2,0.2-0.4,0.2-0.4c0.1-0.1,0.1-0.1,0.2-0.2c0.1,0,0.1,0,0.2,0.1l0,0C45.6,55.9,45.5,55.9,45.5,55.9 M45.8,56.7
				C45.8,56.7,45.8,56.7,45.8,56.7c-0.1,0-0.2,0-0.2,0c-0.1-0.1-0.1-0.1-0.1-0.2c0,0,0-0.1,0.1-0.3c0.1-0.1,0.2-0.2,0.2-0.2l0.4,0.3
				c0,0-0.1,0.1-0.1,0.2C45.9,56.7,45.8,56.7,45.8,56.7"/>
			<path fill-rule="evenodd" clip-rule="evenodd" fill="#FFFFFF" d="M49.9,49.2C49.9,49.2,49.9,49.2,49.9,49.2
				c-0.1,0-0.1,0.1-0.2,0.1c-0.1,0.1-0.1,0.2-0.1,0.2c0,0.1,0,0.1,0,0.2l-0.1-0.1c0,0,0,0,0,0l-0.2,0.2c0,0,0,0,0,0l1.2,0.9
				c0,0,0,0,0,0l0.2-0.2c0,0,0,0,0,0l-0.6-0.4C50.1,50.1,50,50,50,49.9c0-0.1-0.1-0.1-0.1-0.2c0-0.1,0-0.1,0-0.1c0,0,0-0.1,0.1-0.1
				c0,0,0.1-0.1,0.1-0.1c0,0,0,0,0,0C50,49.3,49.9,49.2,49.9,49.2"/>
			<path fill-rule="evenodd" clip-rule="evenodd" fill="#FFFFFF" d="M47.9,50.8C47.9,50.8,47.9,50.8,47.9,50.8
				c-0.1,0.1-0.1,0.1-0.2,0.2c-0.1,0.1-0.2,0.3-0.1,0.4c0,0.1,0.1,0.3,0.2,0.4l0,0.1L47.8,52c0,0,0,0,0,0l0.1,0.2c0,0,0,0,0,0
				l0.1-0.2l0.9,0.9c0.1,0.1,0.1,0.1,0.2,0.2c0,0.1,0.1,0.1,0.1,0.1c0,0,0,0.1,0,0.1c0,0,0,0.1-0.1,0.1c0,0,0,0-0.1,0.1c0,0,0,0,0,0
				c0,0,0,0,0,0c0,0,0.1,0.2,0.1,0.2c0,0,0,0,0,0c0,0,0,0,0.1-0.1c0,0,0.1-0.1,0.1-0.1c0.1-0.1,0.1-0.1,0.1-0.2c0-0.1,0-0.1,0-0.2
				c0-0.1,0-0.2-0.1-0.2c-0.1-0.1-0.1-0.2-0.2-0.3l-0.9-0.9l0.2-0.3c0,0,0,0,0,0l-0.1-0.2c0,0,0,0,0,0l-0.2,0.3c0,0-0.1-0.1-0.1-0.2
				c0,0,0-0.1,0-0.1c0,0,0-0.1,0-0.1c0,0,0-0.1,0.1-0.1c0,0,0,0,0.1-0.1c0,0,0,0,0,0c0,0,0,0,0,0L47.9,50.8
				C47.9,50.7,47.9,50.8,47.9,50.8"/>
			<path fill-rule="evenodd" clip-rule="evenodd" fill="#FFFFFF" d="M47,55.6C47,55.6,47,55.6,47,55.6l-0.2,0.3c0,0,0,0,0,0
				l-1.7-1.3c0,0,0,0,0,0l0.2-0.2c0,0,0,0,0,0L47,55.6z"/>
		</g>
		<path fill="#4F504F" d="M25.2,85.3c-0.4,0.4-0.9,0.7-1.5,1c0.5-0.5,0.7-1.2,0.7-2c-0.4,0.5-0.9,0.9-1.5,1.3
			c-0.7-0.4-1.5-0.5-2.3-0.2c-1.5,0.5-2.4,2.2-1.8,3.7c0.1,0.2,0.2,0.4,0.3,0.6c-2.4,0.7-4.8,0.3-6.8-0.9c-0.1,0.5-0.1,1,0.1,1.5
			c0.3,1,1.1,1.7,2,1.9c-0.5,0.1-0.9,0.2-1.4,0.1c0,0,0,0,0,0c0.5,1.4,1.8,2.2,3.2,2c-0.2,0.1-0.4,0.3-0.7,0.3
			c-0.2,0.1-0.4,0.1-0.5,0.1c0.7,1,2,1.4,3.3,1c-0.7,1.1-1.8,1.9-3.1,2.4c-0.2,0.1-0.5,0.1-0.7,0.2c1.5,0.4,3.1,0.3,4.7-0.2
			c5.1-1.8,6.5-7,5.2-10.7c0-0.1-0.1-0.2-0.1-0.4C24.7,86.7,25,86,25.2,85.3z"/>
		<g id="fb_23_">
			<g>
				<g>
					<path fill="#A0A0A0" d="M9.9,110.3l-1.5-1.1c-0.2-0.1-0.6-0.1-0.8,0.3l-0.7,1l1.9,1.4l-1.4,1.9l-1.9-1.4L2,116.9l-1.9-1.4
						l3.4-4.6L2,109.7l1.4-1.9l1.5,1.1l0.7-0.9c1-1.4,2.9-1.7,4.1-0.8l1.5,1.1L9.9,110.3z"/>
				</g>
			</g>
		</g>
		<g>
			<g>
				<path fill="#7F7F7F" d="M84.6,2c0-0.1,0-0.1,0-0.1c-0.1,0-0.1,0-0.2,0L84.4,2l0.3,0.2l0,0l-0.1-0.1L84.6,2L84.6,2l0.2,0.1l0,0
					L84.6,2L84.6,2z M84.6,2L84.6,2l-0.1,0L84.6,2c-0.1-0.1,0-0.2,0-0.1C84.6,1.9,84.6,2,84.6,2z"/>
				<path fill="#7F7F7F" d="M84.3,1.8c-0.1,0.2-0.1,0.4,0.1,0.5c0.2,0.1,0.4,0.1,0.5-0.1C85,2.1,85,1.9,84.8,1.8
					C84.7,1.6,84.4,1.7,84.3,1.8z M84.8,2.2c-0.1,0.1-0.3,0.2-0.4,0.1c-0.1-0.1-0.2-0.3-0.1-0.4c0.1-0.1,0.3-0.2,0.4-0.1
					C84.9,1.9,84.9,2.1,84.8,2.2z"/>
			</g>
			<g>
				<g>
					<polygon fill="#7F7F7F" points="68.6,17.4 69.1,16.7 71.6,18.5 72.5,17.3 73.1,17.8 71.7,19.6 					"/>
					<g>
						<path fill="#7F7F7F" d="M71.3,15.9l0.5-0.6l2.1,1.5l-0.5,0.6L71.3,15.9z M70.5,14.8c0.2-0.2,0.4-0.2,0.6-0.1
							c0.2,0.2,0.2,0.4,0.1,0.6c-0.2,0.2-0.4,0.2-0.6,0.1C70.4,15.3,70.3,15,70.5,14.8"/>
					</g>
					<polygon fill="#7F7F7F" points="72.8,11.9 73.3,11.2 75.1,12.6 74.8,11.2 75.4,10.5 75.7,12 77.4,12 76.8,12.8 75.3,12.7 
						75.3,12.8 76.3,13.5 75.8,14.2 					"/>
					<path fill="#7F7F7F" d="M72,14.9l0.5-0.6l0.3,0.2l0,0c-0.1-0.2-0.1-0.5,0.1-0.9c0.5-0.6,1-0.4,1.6,0l1.1,0.8l-0.5,0.6l-1-0.8
						c-0.2-0.2-0.5-0.4-0.8-0.1c-0.2,0.3,0,0.6,0.2,0.8l1,0.8l-0.5,0.6L72,14.9z"/>
					<path fill="#7F7F7F" d="M77.2,9.7c-0.2-0.2-0.5-0.1-0.7,0.1c-0.2,0.3-0.1,0.6,0.1,0.7L77.2,9.7z M78.5,9.9
						c0.1,0.4,0,0.8-0.2,1.2c-0.5,0.6-1.3,0.8-1.9,0.3c-0.7-0.5-0.7-1.3-0.2-2c0.4-0.6,1.2-0.6,1.8-0.2l0.2,0.2L77,10.9
						c0.3,0.1,0.6,0.1,0.8-0.2c0.2-0.2,0.2-0.4,0.1-0.6L78.5,9.9z"/>
					<path fill="#7F7F7F" d="M78.4,7.5c-0.2,0.3-0.2,0.7,0.1,0.9c0.3,0.2,0.7,0.2,0.9-0.1c0.2-0.3,0.2-0.7-0.1-0.9
						C79,7.2,78.6,7.2,78.4,7.5 M80.7,7.6l-0.4,0.6L80,8l0,0c0.1,0.2,0.1,0.6-0.2,0.9c-0.5,0.6-1.2,0.7-1.8,0.2
						c-0.6-0.4-0.8-1.2-0.4-1.8c0.2-0.3,0.5-0.5,0.8-0.5l0,0L77.2,6l0.5-0.6L80.7,7.6z"/>
				</g>
				<path fill="#7F7F7F" d="M80.6,0.2l-2.8,3.7c-0.1,0.2-0.1,0.4,0.1,0.6l3.7,2.8c0.2,0.1,0.4,0.1,0.5-0.1l2.8-3.7
					C85,3.3,85,3,84.8,2.9l-3.7-2.8C80.9,0,80.7,0,80.6,0.2z M82.2,5.7l-0.5,0.6l-2.1-1.5l0.5-0.6L82.2,5.7z M79.6,4.3
					c-0.2,0.2-0.4,0.2-0.6,0.1c-0.2-0.2-0.2-0.4-0.1-0.6c0.2-0.2,0.4-0.2,0.6-0.1C79.7,3.8,79.8,4,79.6,4.3z M84,3.3l-0.5,0.6
					l-1-0.8C82.3,3,82,2.8,81.7,3.1c-0.3,0.3,0,0.6,0.2,0.8l1,0.8l-0.5,0.6l-2.1-1.5l0.5-0.6l0.3,0.2l0,0c-0.1-0.2-0.1-0.5,0.1-0.9
					c0.5-0.6,1-0.4,1.6,0L84,3.3z"/>
			</g>
		</g>
		<g>
			<path fill="#7F7F7F" d="M61.4,23.2l6.6,5.1c0.6,0.5,0.8,1.3,0.3,2L63.2,37c-0.5,0.7-1.4,0.7-2,0.3l-6.6-5.1
				c-0.6-0.5-0.8-1.3-0.3-2l5.1-6.6C59.9,22.8,60.8,22.7,61.4,23.2L61.4,23.2z M66,28.3c-0.2-0.2-0.5-0.1-0.7,0.1l-0.7,1
				c-0.2,0.2-0.1,0.5,0.1,0.7l1,0.8c0.2,0.2,0.5,0.1,0.7-0.1l0.7-1c0.2-0.2,0.1-0.5-0.1-0.7L66,28.3L66,28.3z M65.3,32.2l-0.8-0.6
				c-0.1,0.3-0.3,0.6-0.5,0.9c-1.1,1.5-3.3,1.7-4.8,0.6c-1.5-1.2-1.8-3.3-0.7-4.8c0.2-0.3,0.4-0.5,0.7-0.7l-0.8-0.6l-2.9,3.8
				c-0.2,0.2-0.1,0.5,0.1,0.6l6.2,4.8c0.2,0.2,0.5,0.1,0.6-0.1L65.3,32.2L65.3,32.2z M62.7,28.5c-1-0.8-2.4-0.6-3.1,0.4
				S59,31.2,60,32c1,0.8,2.4,0.6,3.1-0.4S63.7,29.3,62.7,28.5z"/>
		</g>
		<g id="outlook_21_">
			<path fill="#515150" d="M40.3,74.1c0.2-0.3-0.1-0.5-0.3-0.7c-1.2-0.7-2.3-1.4-3.5-2.1c0.4-0.7,0.9-1.5,1.3-2.2l0.1-0.1
				c-1.9-0.7-4.5-1.7-6.4-2.4c-1.6,2.6-3.1,5.2-4.7,7.8c1.5,1.3,3.7,3.1,5.2,4.5l0.1-0.1c0.4-0.7,0.8-1.4,1.3-2.1
				c1.2,0.7,2.4,1.5,3.7,2.2c0.3,0.2,0.6-0.2,0.7-0.4C38.7,76.9,39.5,75.5,40.3,74.1z M31.9,74.1c-1,0.2-1.9-0.8-1.7-1.8
				c0.2-1.2,1.2-2.5,2.5-2.2c0.8,0.1,1.3,0.9,1.2,1.7C33.8,72.8,33,73.9,31.9,74.1z M37.3,78.5c-1.2-0.7-2.5-1.5-3.7-2.2
				c0.6-1,1.2-1.9,1.7-2.9c0.2,0.6,0.3,1.3,0.6,1.9c0.2,0.1,0.4,0.1,0.6,0c1-0.2,2.1-0.5,3.2-0.7C38.9,75.9,38.1,77.2,37.3,78.5z
				 M39.6,74.2c-1.1,0.3-2.3,0.5-3.4,0.8c-0.2-0.7-0.4-1.3-0.6-2c0.2-0.4,0.5-0.8,0.7-1.2c1.2,0.7,2.5,1.5,3.7,2.2
				C39.9,74.1,39.8,74.2,39.6,74.2z"/>
			<path fill="#515150" d="M32.4,70.8c0.4,0,0.7,0.4,0.6,0.8c0,0.6-0.4,1.1-0.8,1.5c-0.3,0.3-0.8,0.3-1.1,0c-0.4-0.4-0.2-1,0.1-1.4
				C31.4,71.2,31.9,70.8,32.4,70.8z"/>
		</g>
		<g>
			<path fill="#515150" d="M215.6,51.5c-0.1-0.8,0-1.6,0.6-2.3c0.7-0.9,1.8-1.3,2.9-1.2c0.1-0.5,0.3-1,0.6-1.4
				c1.2-1.6,3.6-2,5.2-0.7c1.7,1.2,2,3.6,0.8,5.2c-0.2,0.2-0.3,0.4-0.5,0.5c0.4,0.9,0.3,1.9-0.3,2.7c-0.3,0.3-0.6,0.6-0.9,0.8
				c0.6,1,0.6,2.4-0.2,3.4c-0.8,1.1-2.2,1.5-3.4,1.1c-0.1,0.2-0.2,0.3-0.3,0.5c-1,1.3-2.8,1.5-4,0.6c-0.9-0.6-1.3-1.7-1.1-2.7
				c-0.4-0.1-0.8-0.3-1.2-0.6c-1.5-1.1-1.8-3.2-0.7-4.7C213.6,51.9,214.6,51.5,215.6,51.5"/>
			<path fill="#FFFFFF" d="M216.8,58.2C216.8,58.2,216.8,58.2,216.8,58.2c0.1,0,0.1,0,0.1,0c0.2-0.1,0.3-0.2,0.4-0.3
				c0.2-0.3,0.2-0.6,0-0.8l0,0c-0.2-0.2-0.5,0-0.7,0.1l0,0c-0.2,0.1-0.3,0.2-0.4,0.1l0,0c-0.1-0.1-0.1-0.2,0-0.3
				c0.1-0.1,0.2-0.2,0.4-0.3c0,0,0,0,0,0c0,0-0.1-0.2-0.1-0.2c0,0,0,0,0,0c-0.1,0.1-0.3,0.2-0.4,0.3l0,0c-0.2,0.3-0.2,0.6,0.1,0.7
				l0,0c0.2,0.2,0.5,0,0.7-0.1l0,0c0.1-0.1,0.3-0.2,0.4-0.1l0,0c0.1,0.1,0.1,0.2,0,0.3c0,0-0.2,0.2-0.4,0.3c0,0,0,0-0.1,0
				c0,0,0,0,0,0L216.8,58.2z"/>
			<path fill="#FFFFFF" d="M219.9,54C219.9,54.1,219.9,54.1,219.9,54c0.1,0,0.1,0,0.1,0c0.2-0.1,0.3-0.2,0.4-0.3
				c0.2-0.3,0.2-0.6,0-0.8l0,0c-0.2-0.2-0.5,0-0.7,0.1l0,0c-0.2,0.1-0.3,0.2-0.4,0.1l0,0c-0.1-0.1-0.1-0.2,0-0.3
				c0.1-0.1,0.2-0.2,0.4-0.3c0,0,0,0,0,0c0,0-0.1-0.2-0.1-0.2c0,0,0,0,0,0c-0.1,0.1-0.3,0.2-0.4,0.3l0,0c-0.2,0.3-0.2,0.6,0.1,0.7
				l0,0c0.2,0.2,0.5,0,0.7-0.1l0,0c0.1-0.1,0.3-0.2,0.4-0.1l0,0c0.1,0.1,0.1,0.2,0,0.3c0,0-0.2,0.2-0.4,0.3c0,0,0,0-0.1,0
				c0,0,0,0,0,0L219.9,54z"/>
			<path fill="#FFFFFF" d="M221.4,50.4c-0.1,0-0.2-0.1-0.3,0c-0.1,0-0.2,0-0.3,0.1c-0.1,0-0.2,0.1-0.2,0.2c-0.1,0.1-0.1,0.2-0.1,0.3
				c0,0.1,0,0.2,0,0.3c0,0.1,0.1,0.2,0.1,0.3c0.1,0.1,0.1,0.2,0.2,0.2c0.1,0.1,0.2,0.1,0.3,0.2c0.1,0,0.2,0.1,0.3,0
				c0.1,0,0.2,0,0.3-0.1c0.1,0,0.2-0.1,0.2-0.2c0.1-0.1,0.1-0.2,0.1-0.3c0-0.1,0-0.2,0-0.3c0-0.1-0.1-0.2-0.1-0.3
				c-0.1-0.1-0.1-0.2-0.2-0.2C221.6,50.5,221.5,50.5,221.4,50.4 M221.5,50.9c0.1,0.1,0.2,0.2,0.3,0.3c0,0.1,0,0.2-0.1,0.3
				c-0.1,0.1-0.2,0.2-0.3,0.1c-0.1,0-0.2-0.1-0.4-0.2c-0.1-0.1-0.2-0.2-0.3-0.3c0-0.1,0-0.2,0.1-0.3c0.1-0.1,0.2-0.2,0.3-0.1
				C221.3,50.7,221.4,50.8,221.5,50.9"/>
			<path fill-rule="evenodd" clip-rule="evenodd" fill="#FFFFFF" d="M223.6,49C223.5,49,223.5,49,223.6,49c0,0.1-0.1,0.1-0.1,0.2
				c0,0-0.1,0.1-0.1,0.1c-0.1,0.1-0.2,0.2-0.3,0.2c-0.1,0-0.3,0-0.4-0.1c-0.1-0.1-0.2-0.2-0.2-0.3c0-0.1,0-0.2,0.1-0.3
				c0.1-0.1,0.1-0.2,0.2-0.2c0,0,0,0,0,0c0-0.1-0.1-0.1-0.1-0.2c0,0,0,0,0,0c0,0-0.1,0.1-0.2,0.1c0,0-0.1,0.1-0.1,0.2
				c-0.1,0.1-0.1,0.2-0.1,0.3c0,0.1,0,0.2,0,0.3c0,0.1,0.1,0.2,0.1,0.3c0.1,0.1,0.1,0.2,0.2,0.2c0.2,0.1,0.4,0.2,0.6,0.2
				c0.2,0,0.4-0.1,0.5-0.3c0.1-0.1,0.2-0.3,0.2-0.4c0,0,0,0,0,0L223.6,49z"/>
			<path fill-rule="evenodd" clip-rule="evenodd" fill="#FFFFFF" d="M223.8,47.3c-0.1,0-0.2,0-0.3,0c-0.1,0-0.2,0-0.2,0.1
				c-0.1,0-0.2,0.1-0.2,0.2c-0.1,0.1-0.1,0.2-0.1,0.3c0,0.1,0,0.2,0,0.3c0,0.1,0.1,0.2,0.1,0.3c0.1,0.1,0.1,0.2,0.2,0.2
				c0.1,0.1,0.2,0.1,0.3,0.2c0.1,0,0.2,0,0.3,0c0.1,0,0.2,0,0.3-0.1c0.1-0.1,0.2-0.1,0.3-0.3c0.2-0.2,0.2-0.4,0.2-0.5c0,0,0,0,0,0
				l-0.2-0.1c0,0,0,0,0,0c0,0.1,0,0.2-0.2,0.4c-0.1,0.1-0.2,0.2-0.3,0.2c-0.1,0-0.2,0-0.3-0.1l0.6-0.8c0,0,0,0,0,0
				C224.1,47.5,224,47.3,223.8,47.3 M223.3,48.2c-0.1-0.1-0.1-0.1-0.1-0.2c0-0.1,0-0.2,0.1-0.3s0.2-0.1,0.3-0.1c0.1,0,0.2,0,0.2,0.1
				L223.3,48.2z"/>
			<path fill-rule="evenodd" clip-rule="evenodd" fill="#FFFFFF" d="M219,53.6c-0.1,0-0.2,0-0.3,0c-0.1,0-0.2,0-0.2,0.1
				c-0.1,0-0.2,0.1-0.2,0.2c-0.1,0.1-0.1,0.2-0.1,0.3c0,0.1,0,0.2,0,0.3c0,0.1,0.1,0.2,0.1,0.3c0.1,0.1,0.1,0.2,0.2,0.2
				c0.1,0.1,0.2,0.1,0.3,0.2c0.1,0,0.2,0,0.3,0c0.1,0,0.2,0,0.3-0.1c0.1-0.1,0.2-0.1,0.3-0.3c0.2-0.2,0.2-0.4,0.2-0.5c0,0,0,0,0,0
				l-0.2-0.1c0,0,0,0,0,0c0,0.1,0,0.2-0.2,0.4c-0.1,0.1-0.2,0.2-0.3,0.2c-0.1,0-0.2,0-0.3-0.1l0.6-0.8c0,0,0,0,0,0
				C219.3,53.9,219.2,53.7,219,53.6 M218.5,54.6c-0.1-0.1-0.1-0.1-0.1-0.2c0-0.1,0-0.2,0.1-0.3s0.2-0.1,0.3-0.1c0.1,0,0.2,0,0.2,0.1
				L218.5,54.6z"/>
			<path fill="#FFFFFF" d="M217.4,55.9c0,0-0.1,0.1-0.1,0.1c-0.1,0.1-0.1,0.1-0.1,0.2c0,0.1,0,0.2,0,0.2c0,0.1,0,0.1,0,0.2
				s0.1,0.1,0.2,0.2c0.1,0.1,0.1,0.1,0.2,0.1c0.1,0,0.1,0,0.2,0c0.1,0,0.1-0.1,0.2-0.1c0.1-0.1,0.1-0.1,0.2-0.2
				c0.1-0.1,0.1-0.2,0.2-0.3c0-0.1,0.1-0.2,0.1-0.2c0,0,0-0.1,0-0.1c0,0,0,0,0,0l-0.7-0.5c-0.2-0.1-0.3-0.2-0.4-0.1
				c-0.1,0-0.3,0.1-0.4,0.3c0,0.1-0.1,0.2-0.1,0.2c0,0-0.1,0.2-0.1,0.3c0,0,0,0,0,0l0.2,0.1c0,0,0,0,0,0s0,0,0,0
				c0-0.2,0.2-0.4,0.2-0.4c0.1-0.1,0.1-0.1,0.2-0.2c0.1,0,0.1,0,0.2,0.1l0,0C217.5,55.9,217.4,55.9,217.4,55.9 M217.8,56.7
				C217.7,56.7,217.7,56.7,217.8,56.7c-0.1,0-0.2,0-0.2,0c-0.1-0.1-0.1-0.1-0.1-0.2c0,0,0-0.1,0.1-0.3c0.1-0.1,0.2-0.2,0.2-0.2
				l0.4,0.3c0,0-0.1,0.1-0.1,0.2C217.9,56.7,217.8,56.7,217.8,56.7"/>
			<path fill-rule="evenodd" clip-rule="evenodd" fill="#FFFFFF" d="M221.9,49.2C221.8,49.2,221.8,49.2,221.9,49.2
				c-0.1,0-0.1,0.1-0.2,0.1c-0.1,0.1-0.1,0.2-0.1,0.2c0,0.1,0,0.1,0,0.2l-0.1-0.1c0,0,0,0,0,0l-0.2,0.2c0,0,0,0,0,0l1.2,0.9
				c0,0,0,0,0,0l0.2-0.2c0,0,0,0,0,0l-0.6-0.4c-0.1-0.1-0.2-0.1-0.2-0.2c0-0.1-0.1-0.1-0.1-0.2c0-0.1,0-0.1,0-0.1c0,0,0-0.1,0.1-0.1
				c0,0,0.1-0.1,0.1-0.1c0,0,0,0,0,0C222,49.3,221.9,49.2,221.9,49.2"/>
			<path fill-rule="evenodd" clip-rule="evenodd" fill="#FFFFFF" d="M219.8,50.8C219.8,50.8,219.8,50.8,219.8,50.8
				c-0.1,0.1-0.1,0.1-0.2,0.2c-0.1,0.1-0.2,0.3-0.1,0.4c0,0.1,0.1,0.3,0.2,0.4l0,0.1l-0.1,0.2c0,0,0,0,0,0l0.1,0.2c0,0,0,0,0,0
				L220,52l0.9,0.9c0.1,0.1,0.1,0.1,0.2,0.2c0,0.1,0.1,0.1,0.1,0.1c0,0,0,0.1,0,0.1c0,0,0,0.1-0.1,0.1c0,0,0,0-0.1,0.1c0,0,0,0,0,0
				c0,0,0,0,0,0c0,0,0.1,0.2,0.1,0.2c0,0,0,0,0,0c0,0,0,0,0.1-0.1c0,0,0.1-0.1,0.1-0.1c0.1-0.1,0.1-0.1,0.1-0.2c0-0.1,0-0.1,0-0.2
				c0-0.1,0-0.2-0.1-0.2c-0.1-0.1-0.1-0.2-0.2-0.3l-0.9-0.9l0.2-0.3c0,0,0,0,0,0l-0.1-0.2c0,0,0,0,0,0l-0.2,0.3c0,0-0.1-0.1-0.1-0.2
				c0,0,0-0.1,0-0.1c0,0,0-0.1,0-0.1c0,0,0-0.1,0.1-0.1c0,0,0,0,0.1-0.1c0,0,0,0,0,0c0,0,0,0,0,0L219.8,50.8
				C219.9,50.7,219.8,50.8,219.8,50.8"/>
			<path fill-rule="evenodd" clip-rule="evenodd" fill="#FFFFFF" d="M218.9,55.6C218.9,55.6,218.9,55.6,218.9,55.6l-0.2,0.3
				c0,0,0,0,0,0l-1.7-1.3c0,0,0,0,0,0l0.2-0.2c0,0,0,0,0,0L218.9,55.6z"/>
		</g>
		<path fill="#4F504F" d="M197.1,85.3c-0.4,0.4-0.9,0.7-1.5,1c0.5-0.5,0.7-1.2,0.7-2c-0.4,0.5-0.9,0.9-1.5,1.3
			c-0.7-0.4-1.5-0.5-2.3-0.2c-1.5,0.5-2.4,2.2-1.8,3.7c0.1,0.2,0.2,0.4,0.3,0.6c-2.4,0.7-4.8,0.3-6.8-0.9c-0.1,0.5-0.1,1,0.1,1.5
			c0.3,1,1.1,1.7,2,1.9c-0.5,0.1-0.9,0.2-1.4,0.1c0,0,0,0,0,0c0.5,1.4,1.8,2.2,3.2,2c-0.2,0.1-0.4,0.3-0.7,0.3
			c-0.2,0.1-0.4,0.1-0.5,0.1c0.7,1,2,1.4,3.3,1c-0.7,1.1-1.8,1.9-3.1,2.4c-0.2,0.1-0.5,0.1-0.7,0.2c1.5,0.4,3.1,0.3,4.7-0.2
			c5.1-1.8,6.5-7,5.2-10.7c0-0.1-0.1-0.2-0.1-0.4C196.6,86.7,196.9,86,197.1,85.3z"/>
		<g id="fb_22_">
			<g>
				<g>
					<path fill="#4F504F" d="M181.8,110.3l-1.5-1.1c-0.2-0.1-0.6-0.1-0.8,0.3l-0.7,1l1.9,1.4l-1.4,1.9l-1.9-1.4l-3.4,4.6l-1.9-1.4
						l3.4-4.6l-1.5-1.1l1.4-1.9l1.5,1.1l0.7-0.9c1-1.4,2.9-1.7,4.1-0.8l1.5,1.1L181.8,110.3z"/>
				</g>
			</g>
		</g>
		<g>
			<g>
				<path fill="#7F7F7F" d="M256.6,2c0-0.1,0-0.1,0-0.1c-0.1,0-0.1,0-0.2,0L256.3,2l0.3,0.2l0,0l-0.1-0.1L256.6,2L256.6,2l0.2,0.1
					l0,0L256.6,2L256.6,2z M256.5,2L256.5,2l-0.1,0L256.5,2c-0.1-0.1,0-0.2,0-0.1C256.6,1.9,256.5,2,256.5,2z"/>
				<path fill="#7F7F7F" d="M256.2,1.8c-0.1,0.2-0.1,0.4,0.1,0.5c0.2,0.1,0.4,0.1,0.5-0.1c0.1-0.2,0.1-0.4-0.1-0.5
					C256.6,1.6,256.4,1.7,256.2,1.8z M256.8,2.2c-0.1,0.1-0.3,0.2-0.4,0.1c-0.1-0.1-0.2-0.3-0.1-0.4c0.1-0.1,0.3-0.2,0.4-0.1
					C256.9,1.9,256.9,2.1,256.8,2.2z"/>
			</g>
			<g>
				<g>
					<polygon fill="#7F7F7F" points="240.6,17.4 241.1,16.7 243.5,18.5 244.4,17.3 245,17.8 243.6,19.6 					"/>
					<g>
						<path fill="#7F7F7F" d="M243.2,15.9l0.5-0.6l2.1,1.5l-0.5,0.6L243.2,15.9z M242.4,14.8c0.2-0.2,0.4-0.2,0.6-0.1
							c0.2,0.2,0.2,0.4,0.1,0.6c-0.2,0.2-0.4,0.2-0.6,0.1C242.3,15.3,242.3,15,242.4,14.8"/>
					</g>
					<polygon fill="#7F7F7F" points="244.7,11.9 245.2,11.2 247,12.6 246.7,11.2 247.3,10.5 247.6,12 249.3,12 248.7,12.8 
						247.2,12.7 247.2,12.8 248.2,13.5 247.7,14.2 					"/>
					<path fill="#7F7F7F" d="M243.9,14.9l0.5-0.6l0.3,0.2l0,0c-0.1-0.2-0.1-0.5,0.1-0.9c0.5-0.6,1-0.4,1.6,0l1.1,0.8l-0.5,0.6
						l-1-0.8c-0.2-0.2-0.5-0.4-0.8-0.1c-0.2,0.3,0,0.6,0.2,0.8l1,0.8l-0.5,0.6L243.9,14.9z"/>
					<path fill="#7F7F7F" d="M249.1,9.7c-0.2-0.2-0.5-0.1-0.7,0.1c-0.2,0.3-0.1,0.6,0.1,0.7L249.1,9.7z M250.4,9.9
						c0.1,0.4,0,0.8-0.2,1.2c-0.5,0.6-1.3,0.8-1.9,0.3c-0.7-0.5-0.7-1.3-0.2-2c0.4-0.6,1.2-0.6,1.8-0.2l0.2,0.2l-1.1,1.5
						c0.3,0.1,0.6,0.1,0.8-0.2c0.2-0.2,0.2-0.4,0.1-0.6L250.4,9.9z"/>
					<path fill="#7F7F7F" d="M250.3,7.5c-0.2,0.3-0.2,0.7,0.1,0.9c0.3,0.2,0.7,0.2,0.9-0.1c0.2-0.3,0.2-0.7-0.1-0.9
						C250.9,7.2,250.5,7.2,250.3,7.5 M252.7,7.6l-0.4,0.6L252,8l0,0c0.1,0.2,0.1,0.6-0.2,0.9c-0.5,0.6-1.2,0.7-1.8,0.2
						c-0.6-0.4-0.8-1.2-0.4-1.8c0.2-0.3,0.5-0.5,0.8-0.5l0,0L249.2,6l0.5-0.6L252.7,7.6z"/>
				</g>
				<path fill="#7F7F7F" d="M252.5,0.2l-2.8,3.7c-0.1,0.2-0.1,0.4,0.1,0.6l3.7,2.8c0.2,0.1,0.4,0.1,0.5-0.1l2.8-3.7
					c0.1-0.2,0.1-0.4-0.1-0.6L253,0.1C252.9,0,252.6,0,252.5,0.2z M254.1,5.7l-0.5,0.6l-2.1-1.5l0.5-0.6L254.1,5.7z M251.5,4.3
					c-0.2,0.2-0.4,0.2-0.6,0.1c-0.2-0.2-0.2-0.4-0.1-0.6c0.2-0.2,0.4-0.2,0.6-0.1C251.7,3.8,251.7,4,251.5,4.3z M255.9,3.3l-0.5,0.6
					l-1-0.8c-0.2-0.2-0.5-0.4-0.8-0.1c-0.3,0.3,0,0.6,0.2,0.8l1,0.8l-0.5,0.6l-2.1-1.5l0.5-0.6l0.3,0.2l0,0
					c-0.1-0.2-0.1-0.5,0.1-0.9c0.5-0.6,1-0.4,1.6,0L255.9,3.3z"/>
			</g>
		</g>
		<g>
			<path fill="#7F7F7F" d="M233.4,23.2l6.6,5.1c0.6,0.5,0.8,1.3,0.3,2l-5.1,6.6c-0.5,0.7-1.4,0.7-2,0.3l-6.6-5.1
				c-0.6-0.5-0.8-1.3-0.3-2l5.1-6.6C231.9,22.8,232.7,22.7,233.4,23.2L233.4,23.2z M238,28.3c-0.2-0.2-0.5-0.1-0.7,0.1l-0.7,1
				c-0.2,0.2-0.1,0.5,0.1,0.7l1,0.8c0.2,0.2,0.5,0.1,0.7-0.1l0.7-1c0.2-0.2,0.1-0.5-0.1-0.7L238,28.3L238,28.3z M237.2,32.2
				l-0.8-0.6c-0.1,0.3-0.3,0.6-0.5,0.9c-1.1,1.5-3.3,1.7-4.8,0.6c-1.5-1.2-1.8-3.3-0.7-4.8c0.2-0.3,0.4-0.5,0.7-0.7l-0.8-0.6
				l-2.9,3.8c-0.2,0.2-0.1,0.5,0.1,0.6l6.2,4.8c0.2,0.2,0.5,0.1,0.6-0.1L237.2,32.2L237.2,32.2z M234.6,28.5c-1-0.8-2.4-0.6-3.1,0.4
				c-0.7,1-0.5,2.4,0.5,3.1c1,0.8,2.4,0.6,3.1-0.4S235.6,29.3,234.6,28.5z"/>
		</g>
		<g id="outlook_20_">
			<path fill="#515150" d="M212.3,74.1c0.2-0.3-0.1-0.5-0.3-0.7c-1.2-0.7-2.3-1.4-3.5-2.1c0.4-0.7,0.9-1.5,1.3-2.2l0.1-0.1
				c-1.9-0.7-4.5-1.7-6.4-2.4c-1.6,2.6-3.1,5.2-4.7,7.8c1.5,1.3,3.7,3.1,5.2,4.5l0.1-0.1c0.4-0.7,0.8-1.4,1.3-2.1
				c1.2,0.7,2.4,1.5,3.7,2.2c0.3,0.2,0.6-0.2,0.7-0.4C210.6,76.9,211.5,75.5,212.3,74.1z M203.9,74.1c-1,0.2-1.9-0.8-1.7-1.8
				c0.2-1.2,1.2-2.5,2.5-2.2c0.8,0.1,1.3,0.9,1.2,1.7C205.7,72.8,205,73.9,203.9,74.1z M209.2,78.5c-1.2-0.7-2.5-1.5-3.7-2.2
				c0.6-1,1.2-1.9,1.7-2.9c0.2,0.6,0.3,1.3,0.6,1.9c0.2,0.1,0.4,0.1,0.6,0c1-0.2,2.1-0.5,3.2-0.7C210.8,75.9,210,77.2,209.2,78.5z
				 M211.6,74.2c-1.1,0.3-2.3,0.5-3.4,0.8c-0.2-0.7-0.4-1.3-0.6-2c0.2-0.4,0.5-0.8,0.7-1.2c1.2,0.7,2.5,1.5,3.7,2.2
				C211.9,74.1,211.7,74.2,211.6,74.2z"/>
			<path fill="#515150" d="M204.3,70.8c0.4,0,0.7,0.4,0.6,0.8c0,0.6-0.4,1.1-0.8,1.5c-0.3,0.3-0.8,0.3-1.1,0c-0.4-0.4-0.2-1,0.1-1.4
				C203.4,71.2,203.8,70.8,204.3,70.8z"/>
		</g>
		<g>
			<g>
				<path fill="#7F7F7F" d="M169.1,123.4c0-0.1,0-0.1,0-0.1c-0.1,0-0.1,0-0.2,0l-0.1,0.1l0.3,0.2l0,0l-0.1-0.1L169.1,123.4
					L169.1,123.4l0.2,0.1l0,0L169.1,123.4L169.1,123.4z M169,123.4L169,123.4l-0.1,0L169,123.4c-0.1-0.1,0-0.2,0-0.1
					C169,123.3,169,123.4,169,123.4z"/>
				<path fill="#7F7F7F" d="M168.7,123.2c-0.1,0.2-0.1,0.4,0.1,0.5c0.2,0.1,0.4,0.1,0.5-0.1c0.1-0.2,0.1-0.4-0.1-0.5
					C169.1,123,168.8,123,168.7,123.2z M169.3,123.6c-0.1,0.1-0.3,0.2-0.4,0.1c-0.1-0.1-0.2-0.3-0.1-0.4c0.1-0.1,0.3-0.2,0.4-0.1
					C169.3,123.3,169.4,123.5,169.3,123.6z"/>
			</g>
			<g>
				<g>
					<polygon fill="#7F7F7F" points="153.1,138.7 153.6,138.1 156,139.9 156.9,138.7 157.5,139.1 156.1,141 					"/>
					<g>
						<path fill="#7F7F7F" d="M155.7,137.3l0.5-0.6l2.1,1.5l-0.5,0.6L155.7,137.3z M154.9,136.2c0.2-0.2,0.4-0.2,0.6-0.1
							c0.2,0.2,0.2,0.4,0.1,0.6c-0.2,0.2-0.4,0.2-0.6,0.1C154.8,136.7,154.7,136.4,154.9,136.2"/>
					</g>
					<polygon fill="#7F7F7F" points="157.2,133.2 157.7,132.6 159.5,134 159.2,132.6 159.8,131.8 160.1,133.4 161.8,133.4 
						161.2,134.2 159.7,134.1 159.7,134.1 160.7,134.9 160.2,135.5 					"/>
					<path fill="#7F7F7F" d="M156.4,136.3l0.5-0.6l0.3,0.2l0,0c-0.1-0.2-0.1-0.5,0.1-0.9c0.5-0.6,1-0.4,1.6,0l1.1,0.8l-0.5,0.6
						l-1-0.8c-0.2-0.2-0.5-0.4-0.8-0.1c-0.2,0.3,0,0.6,0.2,0.8l1,0.8l-0.5,0.6L156.4,136.3z"/>
					<path fill="#7F7F7F" d="M161.6,131.1c-0.2-0.2-0.5-0.1-0.7,0.1c-0.2,0.3-0.1,0.6,0.1,0.7L161.6,131.1z M162.9,131.2
						c0.1,0.4,0,0.8-0.2,1.2c-0.5,0.6-1.3,0.8-1.9,0.3c-0.7-0.5-0.7-1.3-0.2-2c0.4-0.6,1.2-0.6,1.8-0.2l0.2,0.2l-1.1,1.5
						c0.3,0.1,0.6,0.1,0.8-0.2c0.2-0.2,0.2-0.4,0.1-0.6L162.9,131.2z"/>
					<path fill="#7F7F7F" d="M162.8,128.9c-0.2,0.3-0.2,0.7,0.1,0.9c0.3,0.2,0.7,0.2,0.9-0.1c0.2-0.3,0.2-0.7-0.1-0.9
						C163.4,128.6,163,128.6,162.8,128.9 M165.1,129l-0.4,0.6l-0.3-0.2l0,0c0.1,0.2,0.1,0.6-0.2,0.9c-0.5,0.6-1.2,0.7-1.8,0.2
						c-0.6-0.4-0.8-1.2-0.4-1.8c0.2-0.3,0.5-0.5,0.8-0.5l0,0l-1.2-0.9l0.5-0.6L165.1,129z"/>
				</g>
				<path fill="#7F7F7F" d="M165,121.6l-2.8,3.7c-0.1,0.2-0.1,0.4,0.1,0.6l3.7,2.8c0.2,0.1,0.4,0.1,0.5-0.1l2.8-3.7
					c0.1-0.2,0.1-0.4-0.1-0.6l-3.7-2.8C165.3,121.4,165.1,121.4,165,121.6z M166.6,127.1l-0.5,0.6l-2.1-1.5l0.5-0.6L166.6,127.1z
					 M164,125.6c-0.2,0.2-0.4,0.2-0.6,0.1c-0.2-0.2-0.2-0.4-0.1-0.6c0.2-0.2,0.4-0.2,0.6-0.1C164.1,125.1,164.2,125.4,164,125.6z
					 M168.4,124.7l-0.5,0.6l-1-0.8c-0.2-0.2-0.5-0.4-0.8-0.1c-0.3,0.3,0,0.6,0.2,0.8l1,0.8l-0.5,0.6l-2.1-1.5l0.5-0.6l0.3,0.2l0,0
					c-0.1-0.2-0.1-0.5,0.1-0.9c0.5-0.6,1-0.4,1.6,0L168.4,124.7z"/>
			</g>
		</g>
		<g>
			<path fill="#7F7F7F" d="M145.8,144.6l6.6,5.1c0.6,0.5,0.8,1.3,0.3,2l-5.1,6.6c-0.5,0.7-1.4,0.7-2,0.3l-6.6-5.1
				c-0.6-0.5-0.8-1.3-0.3-2l5.1-6.6C144.3,144.2,145.2,144.1,145.8,144.6L145.8,144.6z M150.4,149.7c-0.2-0.2-0.5-0.1-0.7,0.1
				l-0.7,1c-0.2,0.2-0.1,0.5,0.1,0.7l1,0.8c0.2,0.2,0.5,0.1,0.7-0.1l0.7-1c0.2-0.2,0.1-0.5-0.1-0.7L150.4,149.7L150.4,149.7z
				 M149.7,153.6l-0.8-0.6c-0.1,0.3-0.3,0.6-0.5,0.9c-1.1,1.5-3.3,1.7-4.8,0.6c-1.5-1.2-1.8-3.3-0.7-4.8c0.2-0.3,0.4-0.5,0.7-0.7
				l-0.8-0.6l-2.9,3.8c-0.2,0.2-0.1,0.5,0.1,0.6l6.2,4.8c0.2,0.2,0.5,0.1,0.6-0.1L149.7,153.6L149.7,153.6z M147.1,149.9
				c-1-0.8-2.4-0.6-3.1,0.4c-0.7,1-0.5,2.4,0.5,3.1c1,0.8,2.4,0.6,3.1-0.4C148.3,152,148.1,150.6,147.1,149.9z"/>
		</g>
		<path fill="#A0A0A0" d="M35.7,114.8c-0.4,0.4-0.9,0.7-1.5,1c0.5-0.5,0.7-1.2,0.7-2c-0.4,0.5-0.9,0.9-1.5,1.3
			c-0.7-0.4-1.5-0.5-2.3-0.2c-1.5,0.5-2.4,2.2-1.8,3.7c0.1,0.2,0.2,0.4,0.3,0.6c-2.4,0.7-4.8,0.3-6.8-0.9c-0.1,0.5-0.1,1,0.1,1.5
			c0.3,1,1.1,1.7,2,1.9c-0.5,0.1-0.9,0.2-1.4,0.1c0,0,0,0,0,0c0.5,1.4,1.8,2.2,3.2,2c-0.2,0.1-0.4,0.3-0.7,0.3
			c-0.2,0.1-0.4,0.1-0.5,0.1c0.7,1,2,1.4,3.3,1c-0.7,1.1-1.8,1.9-3.1,2.4c-0.2,0.1-0.5,0.1-0.7,0.2c1.5,0.4,3.1,0.3,4.7-0.2
			c5.1-1.8,6.5-7,5.2-10.7c0-0.1-0.1-0.2-0.1-0.4C35.2,116.1,35.5,115.5,35.7,114.8z"/>
		<g id="fb_21_">
			<g>
				<g>
					<path fill="#A0A0A0" d="M20.4,139.7l-1.5-1.1c-0.2-0.1-0.6-0.1-0.8,0.3l-0.7,1l1.9,1.4l-1.4,1.9l-1.9-1.4l-3.4,4.6l-1.9-1.4
						l3.4-4.6l-1.5-1.1l1.4-1.9l1.5,1.1l0.7-0.9c1-1.4,2.9-1.7,4.1-0.8l1.5,1.1L20.4,139.7z"/>
				</g>
			</g>
		</g>
		<g>
			<g>
				<path fill="#4F504F" d="M95.1,31.5c0-0.1,0-0.1,0-0.1c-0.1,0-0.1,0-0.2,0l-0.1,0.1l0.3,0.2l0,0l-0.1-0.1L95.1,31.5L95.1,31.5
					l0.2,0.1l0,0L95.1,31.5L95.1,31.5z M95.1,31.5L95.1,31.5l-0.1,0L95.1,31.5c-0.1-0.1,0-0.2,0-0.1C95.1,31.4,95.1,31.5,95.1,31.5z
					"/>
				<path fill="#4F504F" d="M94.8,31.3c-0.1,0.2-0.1,0.4,0.1,0.5c0.2,0.1,0.4,0.1,0.5-0.1c0.1-0.2,0.1-0.4-0.1-0.5
					C95.2,31.1,94.9,31.2,94.8,31.3z M95.3,31.7c-0.1,0.1-0.3,0.2-0.4,0.1c-0.1-0.1-0.2-0.3-0.1-0.4c0.1-0.1,0.3-0.2,0.4-0.1
					C95.4,31.4,95.4,31.6,95.3,31.7z"/>
			</g>
			<g>
				<g>
					<polygon fill="#4F504F" points="79.1,46.9 79.6,46.2 82.1,48 83,46.8 83.6,47.2 82.2,49.1 					"/>
					<g>
						<path fill="#4F504F" d="M81.8,45.4l0.5-0.6l2.1,1.5l-0.5,0.6L81.8,45.4z M81,44.3c0.2-0.2,0.4-0.2,0.6-0.1
							c0.2,0.2,0.2,0.4,0.1,0.6c-0.2,0.2-0.4,0.2-0.6,0.1C80.9,44.8,80.8,44.5,81,44.3"/>
					</g>
					<polygon fill="#4F504F" points="83.3,41.4 83.8,40.7 85.6,42.1 85.3,40.7 85.9,40 86.2,41.5 87.9,41.5 87.3,42.3 85.8,42.2 
						85.8,42.2 86.8,43 86.3,43.6 					"/>
					<path fill="#4F504F" d="M82.5,44.4l0.5-0.6l0.3,0.2l0,0c-0.1-0.2-0.1-0.5,0.1-0.9c0.5-0.6,1-0.4,1.6,0l1.1,0.8l-0.5,0.6l-1-0.8
						c-0.2-0.2-0.5-0.4-0.8-0.1c-0.2,0.3,0,0.6,0.2,0.8l1,0.8L84.6,46L82.5,44.4z"/>
					<path fill="#4F504F" d="M87.7,39.2c-0.2-0.2-0.5-0.1-0.7,0.1c-0.2,0.3-0.1,0.6,0.1,0.7L87.7,39.2z M89,39.3
						c0.1,0.4,0,0.8-0.2,1.2c-0.5,0.6-1.3,0.8-1.9,0.3c-0.7-0.5-0.7-1.3-0.2-2c0.4-0.6,1.2-0.6,1.8-0.2l0.2,0.2l-1.1,1.5
						c0.3,0.1,0.6,0.1,0.8-0.2c0.2-0.2,0.2-0.4,0.1-0.6L89,39.3z"/>
					<path fill="#4F504F" d="M88.9,37c-0.2,0.3-0.2,0.7,0.1,0.9c0.3,0.2,0.7,0.2,0.9-0.1c0.2-0.3,0.2-0.7-0.1-0.9
						C89.4,36.7,89.1,36.7,88.9,37 M91.2,37.1l-0.4,0.6l-0.3-0.2l0,0c0.1,0.2,0.1,0.6-0.2,0.9c-0.5,0.6-1.2,0.7-1.8,0.2
						c-0.6-0.4-0.8-1.2-0.4-1.8c0.2-0.3,0.5-0.5,0.8-0.5l0,0l-1.2-0.9l0.5-0.6L91.2,37.1z"/>
				</g>
				<path fill="#4F504F" d="M91,29.7l-2.8,3.7c-0.1,0.2-0.1,0.4,0.1,0.6l3.7,2.8c0.2,0.1,0.4,0.1,0.5-0.1l2.8-3.7
					c0.1-0.2,0.1-0.4-0.1-0.6l-3.7-2.8C91.4,29.5,91.2,29.5,91,29.7z M92.7,35.2l-0.5,0.6l-2.1-1.5l0.5-0.6L92.7,35.2z M90.1,33.7
					c-0.2,0.2-0.4,0.2-0.6,0.1c-0.2-0.2-0.2-0.4-0.1-0.6c0.2-0.2,0.4-0.2,0.6-0.1C90.2,33.2,90.3,33.5,90.1,33.7z M94.5,32.8
					L94,33.4l-1-0.8c-0.2-0.2-0.5-0.4-0.8-0.1c-0.3,0.3,0,0.6,0.2,0.8l1,0.8L93,34.8l-2.1-1.5l0.5-0.6l0.3,0.2l0,0
					c-0.1-0.2-0.1-0.5,0.1-0.9c0.5-0.6,1-0.4,1.6,0L94.5,32.8z"/>
			</g>
		</g>
		<g>
			<path fill="#4F504F" d="M71.9,52.7l6.6,5.1c0.6,0.5,0.8,1.3,0.3,2l-5.1,6.6c-0.5,0.7-1.4,0.7-2,0.3l-6.6-5.1
				c-0.6-0.5-0.8-1.3-0.3-2l5.1-6.6C70.4,52.3,71.3,52.2,71.9,52.7L71.9,52.7z M76.5,57.8c-0.2-0.2-0.5-0.1-0.7,0.1l-0.7,1
				c-0.2,0.2-0.1,0.5,0.1,0.7l1,0.8c0.2,0.2,0.5,0.1,0.7-0.1l0.7-1c0.2-0.2,0.1-0.5-0.1-0.7L76.5,57.8L76.5,57.8z M75.8,61.7
				L75,61.1c-0.1,0.3-0.3,0.6-0.5,0.9c-1.1,1.5-3.3,1.7-4.8,0.6c-1.5-1.2-1.8-3.3-0.7-4.8c0.2-0.3,0.4-0.5,0.7-0.7l-0.8-0.6L66,60.1
				c-0.2,0.2-0.1,0.5,0.1,0.6l6.2,4.8c0.2,0.2,0.5,0.1,0.6-0.1L75.8,61.7L75.8,61.7z M73.2,58c-1-0.8-2.4-0.6-3.1,0.4
				c-0.7,1-0.5,2.4,0.5,3.1c1,0.8,2.4,0.6,3.1-0.4C74.4,60.1,74.2,58.7,73.2,58z"/>
		</g>
		<g id="outlook_19_">
			<path fill="#A0A0A0" d="M50.8,103.6c0.2-0.3-0.1-0.5-0.3-0.7c-1.2-0.7-2.3-1.4-3.5-2.1c0.4-0.7,0.9-1.5,1.3-2.2l0.1-0.1
				c-1.9-0.7-4.5-1.7-6.4-2.4c-1.6,2.6-3.1,5.2-4.7,7.8c1.5,1.3,3.7,3.1,5.2,4.5l0.1-0.1c0.4-0.7,0.8-1.4,1.3-2.1
				c1.2,0.7,2.4,1.5,3.7,2.2c0.3,0.2,0.6-0.2,0.7-0.4C49.1,106.4,50,105,50.8,103.6z M42.4,103.6c-1,0.2-1.9-0.8-1.7-1.8
				c0.2-1.2,1.2-2.5,2.5-2.2c0.8,0.1,1.3,0.9,1.2,1.7C44.3,102.3,43.5,103.4,42.4,103.6z M47.8,108c-1.2-0.7-2.5-1.5-3.7-2.2
				c0.6-1,1.2-1.9,1.7-2.9c0.2,0.6,0.3,1.3,0.6,1.9c0.2,0.1,0.4,0.1,0.6,0c1-0.2,2.1-0.5,3.2-0.7C49.4,105.3,48.6,106.7,47.8,108z
				 M50.1,103.7c-1.1,0.3-2.3,0.5-3.4,0.8c-0.2-0.7-0.4-1.3-0.6-2c0.2-0.4,0.5-0.8,0.7-1.2c1.2,0.7,2.5,1.5,3.7,2.2
				C50.4,103.5,50.3,103.7,50.1,103.7z"/>
			<path fill="#A0A0A0" d="M42.9,100.3c0.4,0,0.7,0.4,0.6,0.8c0,0.6-0.4,1.1-0.8,1.5c-0.3,0.3-0.8,0.3-1.1,0c-0.4-0.4-0.2-1,0.1-1.4
				C41.9,100.7,42.4,100.3,42.9,100.3z"/>
		</g>
	</g>
</g>
</svg>
