<?xml version="1.0" encoding="utf-8"?>
<!-- Generator: Adobe Illustrator 19.2.1, SVG Export Plug-In . SVG Version: 6.00 Build 0)  -->
<svg version="1.1" xmlns="http://www.w3.org/2000/svg" xmlns:xlink="http://www.w3.org/1999/xlink" x="0px" y="0px"
	 viewBox="0 0 744 452" enable-background="new 0 0 744 452" xml:space="preserve">
<g id="Layer_1">
	<g>
		<g>
			<rect x="268.4" y="317.3" fill="#1EBBEE" width="64.2" height="7.6"/>
			<rect x="305.4" y="317.3" opacity="0.15" width="27.2" height="7.6"/>
		</g>
		<path opacity="0.1" d="M484.2,415.1c-0.4,0-0.8,0.1-1.3,0.1v-0.1l-321.5,0v0.1c-5.2,0.5-9.2,4-9.2,8.4c0,4.7,4.7,8.4,10.4,8.4
			c0.7,0,320.7,0,321.5,0c5.8,0,10.5-3.8,10.5-8.4C494.7,418.9,490,415.1,484.2,415.1"/>
		<g>
			<polygon fill="#672A7A" points="198.4,324.9 198.4,337.8 398,337.8 398,428.5 409.3,428.5 409.3,337.8 454.8,337.8 454.8,428.5 
				466.1,428.5 466.1,337.8 466.1,336.7 466.1,324.9 			"/>
			<polygon opacity="0.1" points="403.7,324.9 403.7,336.5 403.7,337.8 403.7,428.5 409.3,428.5 409.3,337.8 460.4,337.8 
				460.4,428.5 466.1,428.5 466.1,337.8 466.1,336.5 466.1,324.9 			"/>
		</g>
		<path fill="#1B75BA" d="M242.4,243.3l0,65.4c0,0,0,4.7,4.7,4.7l82.4,0c0,0,4.7,0,4.7-4.7v-65.4c0,0,0-4.7-4.7-4.7l-82.4,0
			C247.1,238.6,242.4,238.6,242.4,243.3z"/>
		<path fill="#1EBBEE" d="M236.1,243.3l0,65.4c0,0,0,4.7,4.7,4.7l84.1,0c0,0,4.7,0,4.7-4.7l0-65.4c0,0,0-4.7-4.7-4.7l-84.1,0
			C240.8,238.6,236.1,238.6,236.1,243.3z"/>
		<rect x="240.8" y="243.3" fill="#1B75BA" width="84.1" height="56"/>
		<polygon fill="#1EBBEE" points="441.9,310.2 441.9,254.1 345.3,254.1 345.3,310.2 391,313.4 389.1,323.1 377.2,323.1 377.2,324.9 
			410,324.9 410,323.1 398.1,323.1 396.2,313.4 		"/>
		<polygon opacity="0.15" points="441.9,310.2 441.9,254.1 345.3,254.1 345.3,310.2 391,313.4 389.1,323.1 377.2,323.1 377.2,324.9 
			410,324.9 410,323.1 398.1,323.1 396.2,313.4 		"/>
		<path fill="#1B75BA" d="M351,243.3l0,65.4c0,0,0,4.7,4.7,4.7H438c0,0,4.7,0,4.7-4.7v-65.4c0,0,0-4.7-4.7-4.7l-82.4,0
			C355.7,238.6,351,238.6,351,243.3z"/>
		<path fill="#1EBBEE" d="M344.6,243.3v65.4c0,0,0,4.7,4.7,4.7h84.1c0,0,4.7,0,4.7-4.7v-65.4c0,0,0-4.7-4.7-4.7l-84.1,0
			C349.3,238.6,344.6,238.6,344.6,243.3z"/>
		<rect x="349.3" y="243.3" fill="#1B75BA" width="84.1" height="56"/>
		<g>
			<path fill="#E6E6E6" d="M488.6,66.6c-4-13.4-18.5-23.3-35.9-23.3c-0.1,0-0.2,0-0.3,0v0c0-16.9-16.4-30.6-36.7-30.6
				c-14,0-26.2,6.5-32.4,16.1c-3.6-1.1-7.5-1.7-11.6-1.7c-19,0-34.5,12.9-34.5,28.7c0,0.1,0,0.2,0,0.3c-1.5-0.1-3.1-0.3-4.7-0.3
				c-21.6,0-39.2,14.6-39.2,32.6c0,18,17.5,32.6,39.2,32.6l143.4,0l0,0c18.7,0,33.9-12.7,33.9-28.3C510,80.9,501.1,70.8,488.6,66.6"
				/>
			<path fill="#E6E6E6" d="M488.6,164c-4,13.4-18.5,23.3-35.9,23.3c-0.1,0-0.2,0-0.3,0v0c0,16.9-16.4,30.6-36.7,30.6
				c-14,0-26.2-6.5-32.4-16.1c-3.6,1.1-7.5,1.7-11.6,1.7c-19,0-34.5-12.9-34.5-28.7c0-0.1,0-0.2,0-0.3c-1.5,0.1-3.1,0.3-4.7,0.3
				c-21.6,0-39.2-14.6-39.2-32.6c0-18,17.5-32.6,39.2-32.6l143.4,0l0,0c18.7,0,33.9,12.7,33.9,28.3C510,149.7,501.1,159.9,488.6,164
				"/>
			<path fill="#E6E6E6" d="M406.5,66.6c4-13.4,18.5-23.3,35.9-23.3c0.1,0,0.2,0,0.3,0v0c0-16.9,16.4-30.6,36.7-30.6
				c14,0,26.2,6.5,32.4,16.1c3.6-1.1,7.5-1.7,11.6-1.7c19,0,34.5,12.9,34.5,28.7c0,0.1,0,0.2,0,0.3c1.5-0.1,3.1-0.3,4.7-0.3
				c21.6,0,39.2,14.6,39.2,32.6c0,18-17.5,32.6-39.2,32.6l-143.4,0l0,0c-18.7,0-33.9-12.7-33.9-28.3C385.1,80.9,394,70.8,406.5,66.6
				"/>
			<path fill="#E6E6E6" d="M406.5,164c4,13.4,18.5,23.3,35.9,23.3c0.1,0,0.2,0,0.3,0v0c0,16.9,16.4,30.6,36.7,30.6
				c14,0,26.2-6.5,32.4-16.1c3.6,1.1,7.5,1.7,11.6,1.7c19,0,34.5-12.9,34.5-28.7c0-0.1,0-0.2,0-0.3c1.5,0.1,3.1,0.3,4.7,0.3
				c21.6,0,39.2-14.6,39.2-32.6c0-18-17.5-32.6-39.2-32.6l-143.4,0l0,0c-18.7,0-33.9,12.7-33.9,28.3
				C385.1,149.7,394,159.9,406.5,164"/>
		</g>
		<circle fill="#E6E6E6" cx="324.3" cy="191.9" r="7.5"/>
		<circle fill="#E6E6E6" cx="311.5" cy="209.3" r="5.3"/>
		<circle fill="#E6E6E6" cx="299.2" cy="219.2" r="3.7"/>
		<g>
			<rect x="87.2" y="79.7" fill="#672A7A" width="139.1" height="3.9"/>
			<rect x="87.2" y="112.8" fill="#672A7A" width="139.1" height="3.9"/>
			<rect x="87.2" y="145.9" fill="#672A7A" width="139.1" height="3.9"/>
			<rect x="155.1" y="13.6" fill="#672A7A" width="3.9" height="178.7"/>
			<path fill="none" stroke="#672A7A" stroke-width="4.7524" stroke-miterlimit="10" d="M226.3,190.6l-138.3,0l0-105
				c0-39.4,31-71.4,69.1-71.4c38.2,0,69.1,32,69.1,71.4L226.3,190.6z"/>
			<rect x="88.3" y="185" fill="#672A7A" width="139.1" height="7.3"/>
		</g>
		<path fill="none" d="M254.8,256.5c0,0-5.5,0.5-12.4-0.2c0,1.4,0,2.6,0,2.6h26.8v8.4c0,0,4.7,19.8,14.2,32.1c9.2,0,42,0,42,0v-55.9
			h-71.7L254.8,256.5z"/>
	</g>
</g>
<g id="Layer_2">
</g>
<g id="Layer_3">
</g>
<g id="Layer_4">
</g>
</svg>
