<?xml version="1.0" encoding="utf-8"?>
<!-- Generator: Adobe Illustrator 19.2.1, SVG Export Plug-In . SVG Version: 6.00 Build 0)  -->
<svg version="1.1" xmlns="http://www.w3.org/2000/svg" xmlns:xlink="http://www.w3.org/1999/xlink" x="0px" y="0px"
	 viewBox="0 0 157.9 91.8" enable-background="new 0 0 157.9 91.8" xml:space="preserve">
<g id="Layer_1">
</g>
<g id="Layer_2">
	<g>
		<g>
			<path fill="#F58B21" d="M75,50.3c-0.3-0.7-0.5-1.6-0.7-2.8S74,45.3,74,44.1c0-1.3,0.2-2.5,0.5-3.6c0.4-1.1,0.8-2.1,1.5-3.1
				c0.6-1,1.4-1.9,2.3-2.8c0.9-0.9,1.9-1.8,2.9-2.8c0.9-0.8,1.8-1.7,2.7-2.6c0.9-0.9,1.7-1.8,2.3-2.9s1.2-2.1,1.6-3.3
				c0.4-1.2,0.6-2.5,0.6-4c0-1.6-0.3-2.9-0.8-4.2c-0.5-1.2-1.3-2.3-2.2-3.1s-2.1-1.5-3.4-2c-1.3-0.5-2.8-0.7-4.3-0.7
				c-2.7,0-5.1,0.5-7.3,1.4s-4.4,2.2-6.3,3.8V9.9c2-1.5,4.1-2.7,6.3-3.4c2.2-0.7,4.7-1.1,7.4-1.1c2.1,0,4,0.3,5.8,0.9
				c1.8,0.6,3.3,1.5,4.7,2.6c1.3,1.1,2.3,2.5,3.1,4.2c0.7,1.7,1.1,3.5,1.1,5.7c0,1.6-0.2,3.1-0.7,4.4c-0.5,1.3-1,2.6-1.8,3.7
				C89.4,28,88.5,29,87.6,30s-1.9,1.9-2.8,2.9c-1.5,1.4-2.7,2.6-3.7,3.6c-0.9,1-1.7,1.9-2.2,2.6c-0.5,0.8-0.9,1.6-1.1,2.3
				s-0.3,1.6-0.3,2.6c0,1.3,0.1,2.5,0.3,3.5c0.2,1.1,0.5,2,0.7,2.7H75z M76.5,67.9c-1,0-1.8-0.3-2.4-1c-0.6-0.7-1-1.5-1-2.4
				c0-1,0.3-1.8,1-2.4c0.6-0.6,1.4-1,2.4-1c1,0,1.8,0.3,2.5,1c0.7,0.6,1,1.4,1,2.4c0,1-0.3,1.8-1,2.4C78.3,67.6,77.5,67.9,76.5,67.9
				z"/>
		</g>
		<g id="outlook_14_">
			<path fill="#515050" d="M150.2,8c0-0.9-0.9-1.1-1.6-1c-3.4,0-6.8,0-10.2,0c0-2.2,0-4.4,0-6.6V0c-5,0.9-12,2.1-17.1,3.1
				c0,7.6,0,15.3,0,23c5,0.9,12.1,2,17.1,2.9v-0.3c0-2.1,0-4.2,0-6.2c3.6-0.1,7.2,0.1,10.8-0.1c1,0,1-1.2,1-1.9
				C150.2,16.3,150.4,12.1,150.2,8z M132,18.9c-2,1.7-5.3,0.7-6.1-1.7c-1.2-2.7-0.6-7,2.6-8.1c1.8-0.7,4,0.3,4.8,2.1
				C134.3,13.7,134.2,17.1,132,18.9z M149.3,21.4c-3.6,0-7.2,0-10.8,0c0-2.9,0-5.7,0-8.6c1.2,1.1,2.3,2.3,3.6,3.3
				c0.6,0.1,0.9-0.4,1.3-0.7c2-1.9,4-3.7,5.9-5.6C149.3,13.7,149.3,17.6,149.3,21.4z M148.8,9.1c-2.2,2-4.3,4.1-6.5,6.1
				c-1.3-1.2-2.6-2.4-3.8-3.6c0-1.2,0-2.4,0-3.6c3.6,0,7.3,0,10.9,0C149.3,8.4,149.2,8.8,148.8,9.1z"/>
			<path fill="#515050" d="M128.7,11.1c0.9-0.4,2,0,2.4,0.9c0.7,1.3,0.7,2.9,0.2,4.3c-0.3,1-1.4,1.8-2.4,1.4
				c-1.3-0.4-1.7-1.9-1.7-3.1C127.2,13.3,127.5,11.7,128.7,11.1z"/>
		</g>
		<path fill="#515050" d="M53.1,59.2c-1.1,0.5-2.2,0.8-3.4,0.9c1.2-0.7,2.2-1.9,2.6-3.3c-1.1,0.7-2.4,1.2-3.8,1.4
			c-1.1-1.2-2.6-1.9-4.3-1.9c-3.3,0-5.9,2.7-5.9,5.9c0,0.5,0.1,0.9,0.2,1.4c-4.9-0.2-9.3-2.6-12.2-6.2c-0.5,0.9-0.8,1.9-0.8,3
			c0,2.1,1,3.9,2.6,4.9c-1,0-1.9-0.3-2.7-0.7c0,0,0,0,0,0.1c0,2.9,2,5.3,4.8,5.8c-0.5,0.1-1,0.2-1.6,0.2c-0.4,0-0.8,0-1.1-0.1
			c0.8,2.4,2.9,4.1,5.5,4.1c-2,1.6-4.6,2.5-7.4,2.5c-0.5,0-1,0-1.4-0.1c2.6,1.7,5.7,2.7,9.1,2.7c10.9,0,16.9-9,16.9-16.9
			c0-0.3,0-0.5,0-0.8C51.3,61.4,52.3,60.4,53.1,59.2z"/>
		<g>
			<path fill="#515050" d="M4.8,38.8L4.8,38.8l0,2.6H4.4v-5.9h0.4v0.8h0c0.1-0.3,0.4-0.5,0.6-0.7c0.3-0.2,0.6-0.2,0.9-0.2
				c0.5,0,0.9,0.2,1.2,0.5c0.3,0.4,0.4,0.8,0.4,1.4c0,0.7-0.2,1.2-0.5,1.6c-0.3,0.4-0.8,0.6-1.3,0.6C5.5,39.6,5,39.3,4.8,38.8z
				 M4.7,37.3v0.5c0,0.4,0.1,0.8,0.4,1s0.6,0.4,1,0.4c0.4,0,0.8-0.2,1-0.5c0.3-0.4,0.4-0.8,0.4-1.4c0-0.5-0.1-0.9-0.4-1.2
				s-0.6-0.4-0.9-0.4c-0.5,0-0.8,0.2-1.1,0.5C4.9,36.5,4.7,36.8,4.7,37.3z"/>
			<path fill="#515050" d="M11.3,39.5v-0.8h0c-0.1,0.3-0.3,0.5-0.6,0.7c-0.2,0.2-0.5,0.2-0.8,0.2c-0.4,0-0.7-0.1-0.9-0.3
				c-0.2-0.2-0.3-0.5-0.3-0.8c0-0.7,0.5-1.1,1.4-1.3l1.2-0.2c0-0.9-0.3-1.3-1-1.3c-0.4,0-0.9,0.2-1.3,0.5v-0.4
				c0.1-0.1,0.4-0.2,0.6-0.3c0.3-0.1,0.5-0.1,0.7-0.1c0.4,0,0.7,0.1,1,0.4c0.2,0.3,0.3,0.6,0.3,1.1v2.6H11.3z M10.2,37.5
				c-0.4,0.1-0.7,0.2-0.9,0.3s-0.3,0.4-0.3,0.7c0,0.2,0.1,0.4,0.2,0.6c0.2,0.2,0.4,0.2,0.7,0.2c0.4,0,0.7-0.1,1-0.4
				c0.3-0.3,0.4-0.7,0.4-1.1v-0.4L10.2,37.5z"/>
			<path fill="#515050" d="M12.7,39.3v-0.4c0.1,0.1,0.3,0.2,0.5,0.3c0.2,0.1,0.4,0.1,0.5,0.1c0.6,0,1-0.3,1-0.8
				c0-0.2-0.1-0.3-0.2-0.5s-0.4-0.3-0.7-0.4c-0.4-0.2-0.7-0.3-0.8-0.5c-0.2-0.2-0.2-0.4-0.2-0.7c0-0.3,0.1-0.6,0.4-0.8
				s0.6-0.3,0.9-0.3c0.3,0,0.6,0.1,0.9,0.2V36c-0.3-0.2-0.6-0.3-0.9-0.3c-0.3,0-0.5,0.1-0.6,0.2c-0.2,0.1-0.2,0.3-0.2,0.5
				c0,0.2,0.1,0.3,0.2,0.5s0.3,0.3,0.7,0.4c0.4,0.2,0.7,0.4,0.9,0.5s0.2,0.4,0.2,0.6c0,0.3-0.1,0.6-0.4,0.8c-0.2,0.2-0.6,0.3-1,0.3
				C13.3,39.6,13,39.5,12.7,39.3z"/>
			<path fill="#515050" d="M15.8,39.3v-0.4c0.1,0.1,0.3,0.2,0.5,0.3c0.2,0.1,0.4,0.1,0.5,0.1c0.6,0,1-0.3,1-0.8
				c0-0.2-0.1-0.3-0.2-0.5s-0.4-0.3-0.7-0.4c-0.4-0.2-0.7-0.3-0.8-0.5c-0.2-0.2-0.2-0.4-0.2-0.7c0-0.3,0.1-0.6,0.4-0.8
				c0.3-0.2,0.6-0.3,0.9-0.3c0.3,0,0.6,0.1,0.9,0.2V36c-0.3-0.2-0.6-0.3-0.9-0.3c-0.3,0-0.5,0.1-0.6,0.2c-0.2,0.1-0.2,0.3-0.2,0.5
				c0,0.2,0.1,0.3,0.2,0.5s0.3,0.3,0.7,0.4c0.4,0.2,0.7,0.4,0.9,0.5s0.2,0.4,0.2,0.6c0,0.3-0.1,0.6-0.4,0.8c-0.2,0.2-0.6,0.3-1,0.3
				C16.4,39.6,16.1,39.5,15.8,39.3z"/>
			<path fill="#515050" d="M22.6,39.5h-0.3l-0.9-3.1c0-0.1,0-0.2-0.1-0.3h0c0,0.1,0,0.2-0.1,0.3l-1,3.1h-0.3l-1.2-4h0.4l0.9,3.2
				c0,0.1,0,0.2,0.1,0.3h0c0-0.1,0-0.2,0.1-0.3l1-3.2h0.2l0.9,3.2c0,0.1,0,0.2,0.1,0.3h0c0-0.1,0-0.2,0.1-0.3l1-3.2h0.4L22.6,39.5z"
				/>
			<path fill="#515050" d="M26.1,39.6c-0.5,0-0.9-0.2-1.2-0.7c-0.3-0.5-0.4-1.2-0.4-2.1c0-1,0.2-1.8,0.5-2.3s0.8-0.8,1.3-0.8
				c1.1,0,1.6,1,1.6,2.9c0,1-0.2,1.7-0.5,2.2S26.6,39.6,26.1,39.6z M26.2,34.1c-0.4,0-0.8,0.2-1,0.7c-0.2,0.4-0.4,1.1-0.4,2
				c0,0.8,0.1,1.4,0.3,1.9c0.2,0.4,0.6,0.7,1,0.7c0.4,0,0.7-0.2,1-0.7c0.2-0.4,0.3-1.1,0.3-1.9C27.4,34.9,27,34.1,26.2,34.1z"/>
			<path fill="#515050" d="M30.8,35.8c-0.1-0.1-0.3-0.1-0.4-0.1c-0.3,0-0.6,0.2-0.8,0.5c-0.2,0.3-0.3,0.8-0.3,1.4v1.9h-0.4v-4h0.4
				v0.9h0c0.1-0.3,0.2-0.5,0.4-0.7c0.2-0.2,0.4-0.3,0.7-0.3c0.2,0,0.3,0,0.4,0.1V35.8z"/>
			<path fill="#515050" d="M34.2,39.5v-0.7h0c-0.1,0.3-0.3,0.5-0.6,0.6c-0.3,0.2-0.5,0.2-0.9,0.2c-0.5,0-0.9-0.2-1.2-0.5
				c-0.3-0.4-0.5-0.9-0.5-1.5c0-0.7,0.2-1.2,0.5-1.6c0.3-0.4,0.8-0.6,1.3-0.6c0.6,0,1,0.2,1.3,0.7h0v-2.6h0.4v6H34.2z M34.2,37
				c0-0.4-0.1-0.7-0.4-1s-0.6-0.4-1-0.4c-0.4,0-0.8,0.2-1.1,0.5c-0.3,0.3-0.4,0.8-0.4,1.3c0,0.6,0.1,1,0.4,1.3
				c0.2,0.3,0.6,0.5,1,0.5c0.5,0,0.8-0.1,1.1-0.4c0.3-0.3,0.4-0.6,0.4-1V37z"/>
		</g>
		<g>
			<path fill="#515050" d="M19.5,87.7L19.5,87.7l0,2.6h-0.4v-5.9h0.4v0.8h0c0.1-0.3,0.4-0.5,0.6-0.7c0.3-0.2,0.6-0.2,0.9-0.2
				c0.5,0,0.9,0.2,1.2,0.5c0.3,0.4,0.4,0.8,0.4,1.4c0,0.7-0.2,1.2-0.5,1.6c-0.3,0.4-0.8,0.6-1.3,0.6C20.2,88.5,19.8,88.3,19.5,87.7z
				 M19.5,86.2v0.5c0,0.4,0.1,0.8,0.4,1s0.6,0.4,1,0.4c0.4,0,0.8-0.2,1-0.5c0.3-0.4,0.4-0.8,0.4-1.4c0-0.5-0.1-0.9-0.4-1.2
				s-0.6-0.4-0.9-0.4c-0.5,0-0.8,0.2-1.1,0.5C19.6,85.4,19.5,85.8,19.5,86.2z"/>
			<path fill="#515050" d="M27.6,86.7L27.6,86.7c-0.3,0.6-0.6,0.9-1.2,0.9c-0.4,0-0.7-0.1-0.9-0.4s-0.3-0.6-0.3-1.1
				c0-0.6,0.2-1.1,0.5-1.5c0.3-0.4,0.7-0.6,1.2-0.6c0.2,0,0.4,0.1,0.5,0.2c0.2,0.1,0.3,0.2,0.3,0.4h0c0-0.2,0-0.3,0-0.5h0.3
				l-0.2,2.3c0,0.6,0.2,0.9,0.6,0.9c0.3,0,0.6-0.2,0.8-0.5c0.2-0.3,0.3-0.8,0.3-1.3c0-0.8-0.2-1.4-0.7-1.9c-0.5-0.5-1.1-0.7-2-0.7
				c-0.8,0-1.5,0.3-2,0.9C24.3,84.4,24,85.1,24,86c0,0.9,0.3,1.6,0.8,2.1c0.5,0.5,1.2,0.8,2.1,0.8c0.7,0,1.2-0.1,1.7-0.3v0.4
				c-0.5,0.2-1.1,0.3-1.7,0.3c-1,0-1.7-0.3-2.3-0.9c-0.6-0.6-0.9-1.4-0.9-2.3c0-0.9,0.3-1.7,0.9-2.4c0.6-0.6,1.4-1,2.3-1
				c0.9,0,1.7,0.3,2.2,0.8c0.6,0.5,0.8,1.2,0.8,2.1c0,0.6-0.1,1.1-0.4,1.5c-0.3,0.4-0.6,0.6-1.1,0.6C27.9,87.7,27.6,87.4,27.6,86.7z
				 M26.8,84.5c-0.4,0-0.7,0.2-0.9,0.5c-0.2,0.3-0.3,0.7-0.3,1.3c0,0.4,0.1,0.6,0.2,0.8s0.4,0.3,0.6,0.3c0.4,0,0.6-0.2,0.9-0.5
				c0.2-0.4,0.3-0.8,0.3-1.4c0-0.3-0.1-0.5-0.2-0.7C27.2,84.5,27.1,84.5,26.8,84.5z"/>
			<path fill="#515050" d="M31.1,88.2v-0.4c0.1,0.1,0.3,0.2,0.5,0.3c0.2,0.1,0.4,0.1,0.5,0.1c0.6,0,1-0.3,1-0.8
				c0-0.2-0.1-0.3-0.2-0.5s-0.4-0.3-0.7-0.4c-0.4-0.2-0.7-0.3-0.8-0.5c-0.2-0.2-0.2-0.4-0.2-0.7c0-0.3,0.1-0.6,0.4-0.8
				s0.6-0.3,0.9-0.3c0.3,0,0.6,0.1,0.9,0.2v0.4c-0.3-0.2-0.6-0.3-0.9-0.3c-0.3,0-0.5,0.1-0.6,0.2c-0.2,0.1-0.2,0.3-0.2,0.5
				c0,0.2,0.1,0.3,0.2,0.5s0.3,0.3,0.7,0.4c0.4,0.2,0.7,0.4,0.9,0.5s0.2,0.4,0.2,0.6c0,0.3-0.1,0.6-0.4,0.8c-0.2,0.2-0.6,0.3-1,0.3
				C31.7,88.5,31.3,88.4,31.1,88.2z"/>
			<path fill="#515050" d="M34.2,88.2v-0.4c0.1,0.1,0.3,0.2,0.5,0.3c0.2,0.1,0.4,0.1,0.5,0.1c0.6,0,1-0.3,1-0.8
				c0-0.2-0.1-0.3-0.2-0.5s-0.4-0.3-0.7-0.4c-0.4-0.2-0.7-0.3-0.8-0.5c-0.2-0.2-0.2-0.4-0.2-0.7c0-0.3,0.1-0.6,0.4-0.8
				s0.6-0.3,0.9-0.3c0.3,0,0.6,0.1,0.9,0.2v0.4c-0.3-0.2-0.6-0.3-0.9-0.3c-0.3,0-0.5,0.1-0.6,0.2c-0.2,0.1-0.2,0.3-0.2,0.5
				c0,0.2,0.1,0.3,0.2,0.5s0.3,0.3,0.7,0.4c0.4,0.2,0.7,0.4,0.9,0.5s0.2,0.4,0.2,0.6c0,0.3-0.1,0.6-0.4,0.8c-0.2,0.2-0.6,0.3-1,0.3
				C34.8,88.5,34.5,88.4,34.2,88.2z"/>
			<path fill="#515050" d="M41,88.4h-0.3l-0.9-3.1c0-0.1,0-0.2-0.1-0.3h0c0,0.1,0,0.2-0.1,0.3l-1,3.1h-0.3l-1.2-4h0.4l0.9,3.2
				c0,0.1,0,0.2,0.1,0.3h0c0-0.1,0-0.2,0.1-0.3l1-3.2h0.2l0.9,3.2c0,0.1,0,0.2,0.1,0.3h0c0-0.1,0-0.2,0.1-0.3l1-3.2h0.4L41,88.4z"/>
			<path fill="#515050" d="M44.7,88.5c-0.6,0-1.1-0.2-1.4-0.6c-0.3-0.4-0.5-0.9-0.5-1.5c0-0.7,0.2-1.2,0.5-1.6s0.8-0.6,1.4-0.6
				c0.6,0,1,0.2,1.4,0.6s0.5,0.9,0.5,1.6c0,0.6-0.2,1.1-0.5,1.5C45.7,88.3,45.3,88.5,44.7,88.5z M44.7,84.6c-0.5,0-0.9,0.2-1.1,0.5
				s-0.4,0.8-0.4,1.3c0,0.5,0.1,1,0.4,1.3c0.3,0.3,0.7,0.5,1.1,0.5c0.5,0,0.9-0.2,1.1-0.5s0.4-0.8,0.4-1.3c0-0.6-0.1-1-0.4-1.3
				C45.6,84.8,45.2,84.6,44.7,84.6z"/>
			<path fill="#515050" d="M49.5,84.8c-0.1-0.1-0.3-0.1-0.4-0.1c-0.3,0-0.6,0.2-0.8,0.5c-0.2,0.3-0.3,0.8-0.3,1.4v1.9h-0.4v-4H48
				v0.9h0c0.1-0.3,0.2-0.5,0.4-0.7c0.2-0.2,0.4-0.3,0.7-0.3c0.2,0,0.3,0,0.4,0.1V84.8z"/>
			<path fill="#515050" d="M53,88.4v-0.7h0c-0.1,0.3-0.3,0.5-0.6,0.6c-0.3,0.2-0.5,0.2-0.9,0.2c-0.5,0-0.9-0.2-1.2-0.5
				c-0.3-0.4-0.5-0.9-0.5-1.5c0-0.7,0.2-1.2,0.5-1.6c0.3-0.4,0.8-0.6,1.3-0.6c0.6,0,1,0.2,1.3,0.7h0v-2.6h0.4v6H53z M53,86
				c0-0.4-0.1-0.7-0.4-1s-0.6-0.4-1-0.4c-0.4,0-0.8,0.2-1.1,0.5c-0.3,0.3-0.4,0.8-0.4,1.3c0,0.6,0.1,1,0.4,1.3
				c0.2,0.3,0.6,0.5,1,0.5c0.5,0,0.8-0.1,1.1-0.4c0.3-0.3,0.4-0.6,0.4-1V86z"/>
		</g>
		<g>
			<path fill="#515050" d="M107.7,89.2L107.7,89.2l0,2.6h-0.4v-5.9h0.4v0.8h0c0.1-0.3,0.4-0.5,0.6-0.7c0.3-0.2,0.6-0.2,0.9-0.2
				c0.5,0,0.9,0.2,1.2,0.5c0.3,0.4,0.4,0.8,0.4,1.4c0,0.7-0.2,1.2-0.5,1.6c-0.3,0.4-0.8,0.6-1.3,0.6C108.5,90,108,89.7,107.7,89.2z
				 M107.7,87.7v0.5c0,0.4,0.1,0.8,0.4,1s0.6,0.4,1,0.4c0.4,0,0.8-0.2,1-0.5c0.3-0.4,0.4-0.8,0.4-1.4c0-0.5-0.1-0.9-0.4-1.2
				s-0.6-0.4-0.9-0.4c-0.5,0-0.8,0.2-1.1,0.5C107.8,86.9,107.7,87.3,107.7,87.7z"/>
			<path fill="#515050" d="M114.3,89.9v-0.8h0c-0.1,0.3-0.3,0.5-0.6,0.7c-0.2,0.2-0.5,0.2-0.8,0.2c-0.4,0-0.7-0.1-0.9-0.3
				c-0.2-0.2-0.3-0.5-0.3-0.8c0-0.7,0.5-1.1,1.4-1.3l1.2-0.2c0-0.9-0.3-1.3-1-1.3c-0.4,0-0.9,0.2-1.3,0.5v-0.4
				c0.1-0.1,0.4-0.2,0.6-0.3c0.3-0.1,0.5-0.1,0.7-0.1c0.4,0,0.7,0.1,1,0.4c0.2,0.3,0.3,0.6,0.3,1.1v2.6H114.3z M113.2,87.9
				c-0.4,0.1-0.7,0.2-0.9,0.3s-0.3,0.4-0.3,0.7c0,0.2,0.1,0.4,0.2,0.6c0.2,0.2,0.4,0.2,0.7,0.2c0.4,0,0.7-0.1,1-0.4
				c0.3-0.3,0.4-0.7,0.4-1.1v-0.4L113.2,87.9z"/>
			<path fill="#515050" d="M115.7,89.7v-0.4c0.1,0.1,0.3,0.2,0.5,0.3c0.2,0.1,0.4,0.1,0.5,0.1c0.6,0,1-0.3,1-0.8
				c0-0.2-0.1-0.3-0.2-0.5s-0.4-0.3-0.7-0.4c-0.4-0.2-0.7-0.3-0.8-0.5c-0.2-0.2-0.2-0.4-0.2-0.7c0-0.3,0.1-0.6,0.4-0.8
				s0.6-0.3,0.9-0.3c0.3,0,0.6,0.1,0.9,0.2v0.4c-0.3-0.2-0.6-0.3-0.9-0.3c-0.3,0-0.5,0.1-0.6,0.2c-0.2,0.1-0.2,0.3-0.2,0.5
				c0,0.2,0.1,0.3,0.2,0.5s0.3,0.3,0.7,0.4c0.4,0.2,0.7,0.4,0.9,0.5s0.2,0.4,0.2,0.6c0,0.3-0.1,0.6-0.4,0.8c-0.2,0.2-0.6,0.3-1,0.3
				C116.3,90,115.9,89.9,115.7,89.7z"/>
			<path fill="#515050" d="M118.8,89.7v-0.4c0.1,0.1,0.3,0.2,0.5,0.3c0.2,0.1,0.4,0.1,0.5,0.1c0.6,0,1-0.3,1-0.8
				c0-0.2-0.1-0.3-0.2-0.5s-0.4-0.3-0.7-0.4c-0.4-0.2-0.7-0.3-0.8-0.5c-0.2-0.2-0.2-0.4-0.2-0.7c0-0.3,0.1-0.6,0.4-0.8
				s0.6-0.3,0.9-0.3c0.3,0,0.6,0.1,0.9,0.2v0.4c-0.3-0.2-0.6-0.3-0.9-0.3c-0.3,0-0.5,0.1-0.6,0.2c-0.2,0.1-0.2,0.3-0.2,0.5
				c0,0.2,0.1,0.3,0.2,0.5s0.3,0.3,0.7,0.4c0.4,0.2,0.7,0.4,0.9,0.5s0.2,0.4,0.2,0.6c0,0.3-0.1,0.6-0.4,0.8c-0.2,0.2-0.6,0.3-1,0.3
				C119.4,90,119.1,89.9,118.8,89.7z"/>
			<path fill="#515050" d="M123.6,84.1v5.8h-0.4v-5.2c-0.2,0.2-0.4,0.3-0.6,0.5c-0.2,0.1-0.5,0.2-0.8,0.3v-0.3
				c0.2-0.1,0.3-0.1,0.5-0.2c0.1-0.1,0.3-0.1,0.4-0.2c0.1-0.1,0.3-0.2,0.4-0.3c0.1-0.1,0.2-0.2,0.4-0.3H123.6z"/>
			<path fill="#515050" d="M124.8,89.9v-0.3c0-0.2,0-0.3,0-0.5s0.1-0.3,0.1-0.4c0.1-0.1,0.1-0.2,0.2-0.3c0.1-0.1,0.2-0.2,0.3-0.3
				c0.1-0.1,0.3-0.2,0.4-0.3c0.1-0.1,0.3-0.2,0.5-0.4c0.2-0.1,0.3-0.2,0.5-0.4c0.1-0.1,0.3-0.3,0.4-0.4s0.2-0.3,0.3-0.5
				s0.1-0.4,0.1-0.6c0-0.4-0.1-0.7-0.3-0.9c-0.2-0.2-0.5-0.3-0.9-0.3c-0.3,0-0.5,0.1-0.7,0.2c-0.2,0.1-0.5,0.3-0.7,0.5v-0.4
				c0.2-0.2,0.5-0.3,0.7-0.4s0.5-0.1,0.8-0.1c0.2,0,0.4,0,0.6,0.1c0.2,0.1,0.3,0.2,0.5,0.3c0.1,0.1,0.2,0.3,0.3,0.5
				c0.1,0.2,0.1,0.4,0.1,0.6c0,0.3,0,0.5-0.1,0.7c-0.1,0.2-0.2,0.4-0.3,0.5c-0.1,0.2-0.3,0.3-0.5,0.5s-0.4,0.3-0.5,0.4
				c-0.3,0.2-0.5,0.3-0.6,0.5c-0.2,0.1-0.3,0.3-0.4,0.4c-0.1,0.1-0.2,0.3-0.2,0.4s-0.1,0.3-0.1,0.5v0.1h2.8v0.3H124.8z"/>
			<path fill="#515050" d="M129,89.7v-0.4c0.4,0.3,0.8,0.4,1.2,0.4c0.5,0,0.8-0.1,1.1-0.3c0.3-0.2,0.4-0.5,0.4-0.9
				c0-0.4-0.1-0.7-0.4-1s-0.7-0.3-1.3-0.3h-0.4v-0.3h0.4c0.5,0,0.9-0.1,1.2-0.3s0.4-0.5,0.4-0.9c0-0.3-0.1-0.6-0.3-0.8
				s-0.5-0.3-0.8-0.3c-0.4,0-0.7,0.1-1.1,0.4v-0.4c0.4-0.2,0.8-0.3,1.2-0.3c0.4,0,0.8,0.1,1.1,0.4c0.3,0.2,0.4,0.6,0.4,1
				c0,0.8-0.4,1.3-1.1,1.5v0c0.4,0,0.7,0.2,0.9,0.4c0.2,0.3,0.4,0.6,0.4,1c0,0.5-0.2,0.9-0.5,1.2c-0.3,0.3-0.8,0.5-1.3,0.5
				C129.8,90,129.4,89.9,129,89.7z"/>
			<path fill="#515050" d="M136.8,89.9h-0.3l-0.9-3.1c0-0.1,0-0.2-0.1-0.3h0c0,0.1,0,0.2-0.1,0.3l-1,3.1h-0.3l-1.2-4h0.4l0.9,3.2
				c0,0.1,0,0.2,0.1,0.3h0c0-0.1,0-0.2,0.1-0.3l1-3.2h0.2l0.9,3.2c0,0.1,0,0.2,0.1,0.3h0c0-0.1,0-0.2,0.1-0.3l1-3.2h0.4L136.8,89.9z
				"/>
			<path fill="#515050" d="M140.5,90c-0.6,0-1.1-0.2-1.4-0.6c-0.3-0.4-0.5-0.9-0.5-1.5c0-0.7,0.2-1.2,0.5-1.6s0.8-0.6,1.4-0.6
				c0.6,0,1,0.2,1.4,0.6s0.5,0.9,0.5,1.6c0,0.6-0.2,1.1-0.5,1.5C141.6,89.8,141.1,90,140.5,90z M140.5,86.1c-0.5,0-0.9,0.2-1.1,0.5
				s-0.4,0.8-0.4,1.3c0,0.5,0.1,1,0.4,1.3c0.3,0.3,0.7,0.5,1.1,0.5c0.5,0,0.9-0.2,1.1-0.5s0.4-0.8,0.4-1.3c0-0.6-0.1-1-0.4-1.3
				C141.4,86.3,141,86.1,140.5,86.1z"/>
			<path fill="#515050" d="M145.3,86.2c-0.1-0.1-0.3-0.1-0.4-0.1c-0.3,0-0.6,0.2-0.8,0.5c-0.2,0.3-0.3,0.8-0.3,1.4v1.9h-0.4v-4h0.4
				v0.9h0c0.1-0.3,0.2-0.5,0.4-0.7c0.2-0.2,0.4-0.3,0.7-0.3c0.2,0,0.3,0,0.4,0.1V86.2z"/>
			<path fill="#515050" d="M148.8,89.9v-0.7h0c-0.1,0.3-0.3,0.5-0.6,0.6c-0.3,0.2-0.5,0.2-0.9,0.2c-0.5,0-0.9-0.2-1.2-0.5
				c-0.3-0.4-0.5-0.9-0.5-1.5c0-0.7,0.2-1.2,0.5-1.6c0.3-0.4,0.8-0.6,1.3-0.6c0.6,0,1,0.2,1.3,0.7h0v-2.6h0.4v6H148.8z M148.8,87.5
				c0-0.4-0.1-0.7-0.4-1s-0.6-0.4-1-0.4c-0.4,0-0.8,0.2-1.1,0.5c-0.3,0.3-0.4,0.8-0.4,1.3c0,0.6,0.1,1,0.4,1.3
				c0.2,0.3,0.6,0.5,1,0.5c0.5,0,0.8-0.1,1.1-0.4c0.3-0.3,0.4-0.6,0.4-1V87.5z"/>
		</g>
		<g>
			<path fill="#515050" d="M121.4,37.4v-4c0-0.1,0-0.4,0-0.8h0c-0.1,0.2-0.2,0.4-0.2,0.5l-2,4.4H119l-2-4.3
				c-0.1-0.1-0.1-0.3-0.2-0.5h0c0,0.3,0,0.5,0,0.8v4.1h-0.4v-5.7h0.4l2.1,4.6c0,0,0,0.1,0,0.1s0,0.1,0.1,0.1c0,0.1,0.1,0.1,0.1,0.2
				h0l0-0.1c0,0,0-0.1,0.1-0.4l2.1-4.5h0.3v5.7H121.4z"/>
			<path fill="#515050" d="M124.1,38.3c-0.1,0.4-0.3,0.6-0.5,0.8s-0.4,0.3-0.7,0.3c-0.1,0-0.2,0-0.3-0.1v-0.4c0.1,0,0.2,0.1,0.3,0.1
				c0.3,0,0.6-0.2,0.8-0.7l0.4-0.9l-1.5-4h0.4l1.2,3.3c0,0.1,0,0.1,0.1,0.2c0,0,0,0.1,0,0.1h0l0.1-0.3l1.3-3.3h0.4L124.1,38.3z"/>
			<path fill="#515050" d="M127.3,35.2v2.3h-0.4v-5.7h1.4c0.6,0,1,0.1,1.3,0.4c0.3,0.3,0.5,0.7,0.5,1.2c0,0.5-0.2,1-0.5,1.3
				c-0.3,0.3-0.8,0.5-1.4,0.5H127.3z M127.3,32.1v2.7h0.8c0.5,0,0.9-0.1,1.2-0.4c0.3-0.2,0.4-0.6,0.4-1c0-0.9-0.5-1.3-1.5-1.3H127.3
				z"/>
			<path fill="#515050" d="M133.2,37.4v-0.8h0c-0.1,0.3-0.3,0.5-0.6,0.7c-0.2,0.2-0.5,0.2-0.8,0.2c-0.4,0-0.7-0.1-0.9-0.3
				c-0.2-0.2-0.3-0.5-0.3-0.8c0-0.7,0.5-1.1,1.4-1.3l1.2-0.2c0-0.9-0.3-1.3-1-1.3c-0.4,0-0.9,0.2-1.3,0.5v-0.4
				c0.1-0.1,0.4-0.2,0.6-0.3c0.3-0.1,0.5-0.1,0.7-0.1c0.4,0,0.7,0.1,1,0.4c0.2,0.3,0.3,0.6,0.3,1.1v2.6H133.2z M132.1,35.4
				c-0.4,0.1-0.7,0.2-0.9,0.3s-0.3,0.4-0.3,0.7c0,0.2,0.1,0.4,0.2,0.6c0.2,0.2,0.4,0.2,0.7,0.2c0.4,0,0.7-0.1,1-0.4
				c0.3-0.3,0.4-0.7,0.4-1.1v-0.4L132.1,35.4z"/>
			<path fill="#515050" d="M134.6,37.3v-0.4c0.1,0.1,0.3,0.2,0.5,0.3c0.2,0.1,0.4,0.1,0.5,0.1c0.6,0,1-0.3,1-0.8
				c0-0.2-0.1-0.3-0.2-0.5s-0.4-0.3-0.7-0.4c-0.4-0.2-0.7-0.3-0.8-0.5c-0.2-0.2-0.2-0.4-0.2-0.7c0-0.3,0.1-0.6,0.4-0.8
				s0.6-0.3,0.9-0.3c0.3,0,0.6,0.1,0.9,0.2v0.4c-0.3-0.2-0.6-0.3-0.9-0.3c-0.3,0-0.5,0.1-0.6,0.2c-0.2,0.1-0.2,0.3-0.2,0.5
				c0,0.2,0.1,0.3,0.2,0.5s0.3,0.3,0.7,0.4c0.4,0.2,0.7,0.4,0.9,0.5s0.2,0.4,0.2,0.6c0,0.3-0.1,0.6-0.4,0.8c-0.2,0.2-0.6,0.3-1,0.3
				C135.2,37.5,134.8,37.5,134.6,37.3z"/>
			<path fill="#515050" d="M137.7,37.3v-0.4c0.1,0.1,0.3,0.2,0.5,0.3c0.2,0.1,0.4,0.1,0.5,0.1c0.6,0,1-0.3,1-0.8
				c0-0.2-0.1-0.3-0.2-0.5s-0.4-0.3-0.7-0.4c-0.4-0.2-0.7-0.3-0.8-0.5c-0.2-0.2-0.2-0.4-0.2-0.7c0-0.3,0.1-0.6,0.4-0.8
				s0.6-0.3,0.9-0.3c0.3,0,0.6,0.1,0.9,0.2v0.4c-0.3-0.2-0.6-0.3-0.9-0.3c-0.3,0-0.5,0.1-0.6,0.2c-0.2,0.1-0.2,0.3-0.2,0.5
				c0,0.2,0.1,0.3,0.2,0.5s0.3,0.3,0.7,0.4c0.4,0.2,0.7,0.4,0.9,0.5s0.2,0.4,0.2,0.6c0,0.3-0.1,0.6-0.4,0.8c-0.2,0.2-0.6,0.3-1,0.3
				C138.3,37.5,138,37.5,137.7,37.3z"/>
			<path fill="#515050" d="M144.5,37.4h-0.3l-0.9-3.1c0-0.1,0-0.2-0.1-0.3h0c0,0.1,0,0.2-0.1,0.3l-1,3.1h-0.3l-1.2-4h0.4l0.9,3.2
				c0,0.1,0,0.2,0.1,0.3h0c0-0.1,0-0.2,0.1-0.3l1-3.2h0.2l0.9,3.2c0,0.1,0,0.2,0.1,0.3h0c0-0.1,0-0.2,0.1-0.3l1-3.2h0.4L144.5,37.4z
				"/>
			<path fill="#515050" d="M148,37.5c-0.5,0-0.9-0.2-1.2-0.7c-0.3-0.5-0.4-1.2-0.4-2.1c0-1,0.2-1.8,0.5-2.3c0.3-0.5,0.8-0.8,1.3-0.8
				c1.1,0,1.6,1,1.6,2.9c0,1-0.2,1.7-0.5,2.2S148.5,37.5,148,37.5z M148,32c-0.4,0-0.8,0.2-1,0.7c-0.2,0.4-0.4,1.1-0.4,2
				c0,0.8,0.1,1.4,0.3,1.9c0.2,0.4,0.6,0.7,1,0.7c0.4,0,0.7-0.2,1-0.7c0.2-0.4,0.3-1.1,0.3-1.9C149.3,32.9,148.9,32,148,32z"/>
			<path fill="#515050" d="M152.6,33.8c-0.1-0.1-0.3-0.1-0.4-0.1c-0.3,0-0.6,0.2-0.8,0.5c-0.2,0.3-0.3,0.8-0.3,1.4v1.9h-0.4v-4h0.4
				v0.9h0c0.1-0.3,0.2-0.5,0.4-0.7c0.2-0.2,0.4-0.3,0.7-0.3c0.2,0,0.3,0,0.4,0.1V33.8z"/>
			<path fill="#515050" d="M156.1,37.4v-0.7h0c-0.1,0.3-0.3,0.5-0.6,0.6c-0.3,0.2-0.5,0.2-0.9,0.2c-0.5,0-0.9-0.2-1.2-0.5
				c-0.3-0.4-0.5-0.9-0.5-1.5c0-0.7,0.2-1.2,0.5-1.6c0.3-0.4,0.8-0.6,1.3-0.6c0.6,0,1,0.2,1.3,0.7h0v-2.6h0.4v6H156.1z M156.1,35
				c0-0.4-0.1-0.7-0.4-1s-0.6-0.4-1-0.4c-0.4,0-0.8,0.2-1.1,0.5c-0.3,0.3-0.4,0.8-0.4,1.3c0,0.6,0.1,1,0.4,1.3
				c0.2,0.3,0.6,0.5,1,0.5c0.5,0,0.8-0.1,1.1-0.4c0.3-0.3,0.4-0.6,0.4-1V35z"/>
		</g>
		<g>
			<path fill="#515050" d="M18,5.8c1.3-1.4,3.2-2.2,5.2-2.2c2.7,0,5.1,1.5,6.4,3.8c1.1-0.5,2.3-0.8,3.6-0.8c4.9,0,8.9,4,8.9,9
				c0,5-4,9-8.9,9c-0.6,0-1.2-0.1-1.8-0.2c-1.1,2-3.2,3.3-5.7,3.3c-1,0-2-0.2-2.8-0.7c-1.1,2.7-3.8,4.5-6.8,4.5c-3.2,0-5.9-2-7-4.9
				c-0.5,0.1-0.9,0.1-1.4,0.1c-3.8,0-6.9-3.1-6.9-7c0-2.6,1.4-4.8,3.4-6c-0.4-1-0.7-2.1-0.7-3.2c0-4.4,3.6-8,8-8
				C14.2,2.7,16.5,3.9,18,5.8"/>
			<path fill="#FFFFFF" d="M6.8,17.7C6.8,17.7,6.8,17.7,6.8,17.7C6.9,17.8,7,17.9,7,17.9c0.4,0.2,0.8,0.3,1.2,0.3
				c0.8,0,1.4-0.5,1.4-1.2v0c0-0.7-0.6-0.9-1.2-1.1l-0.1,0c-0.4-0.1-0.8-0.3-0.8-0.5v0c0-0.2,0.2-0.4,0.5-0.4c0.4,0,0.8,0.1,1.1,0.3
				c0,0,0.1,0.1,0.1,0c0,0,0.2-0.4,0.2-0.5c0,0,0-0.1,0-0.1c-0.3-0.2-0.8-0.3-1.2-0.3l-0.1,0c-0.8,0-1.3,0.5-1.3,1.1v0
				c0,0.7,0.6,0.9,1.2,1.1l0.1,0c0.4,0.1,0.8,0.2,0.8,0.5v0c0,0.3-0.2,0.5-0.6,0.5c-0.1,0-0.6,0-1.1-0.3c-0.1,0-0.1-0.1-0.1-0.1
				c0,0-0.1,0-0.1,0L6.8,17.7z"/>
			<path fill="#FFFFFF" d="M19.2,17.7C19.2,17.7,19.2,17.7,19.2,17.7c0.1,0.1,0.2,0.2,0.3,0.2c0.4,0.2,0.8,0.3,1.2,0.3
				c0.8,0,1.4-0.5,1.4-1.2v0c0-0.7-0.6-0.9-1.2-1.1l-0.1,0c-0.4-0.1-0.8-0.3-0.8-0.5v0c0-0.2,0.2-0.4,0.5-0.4c0.4,0,0.8,0.1,1.1,0.3
				c0,0,0.1,0.1,0.1,0c0,0,0.2-0.4,0.2-0.5c0,0,0-0.1,0-0.1c-0.3-0.2-0.8-0.3-1.2-0.3l-0.1,0c-0.8,0-1.3,0.5-1.3,1.1v0
				c0,0.7,0.6,0.9,1.2,1.1l0.1,0c0.4,0.1,0.8,0.2,0.8,0.5v0c0,0.3-0.2,0.5-0.6,0.5c-0.1,0-0.6,0-1.1-0.3c-0.1,0-0.1-0.1-0.1-0.1
				c0,0-0.1,0-0.1,0L19.2,17.7z"/>
			<path fill="#FFFFFF" d="M28.4,15.5c-0.1-0.2-0.2-0.4-0.3-0.6c-0.1-0.2-0.3-0.3-0.5-0.4c-0.2-0.1-0.5-0.2-0.8-0.2
				c-0.3,0-0.5,0.1-0.8,0.2c-0.2,0.1-0.4,0.2-0.5,0.4c-0.1,0.2-0.3,0.4-0.3,0.6C25.1,15.7,25,16,25,16.2c0,0.3,0,0.5,0.1,0.8
				c0.1,0.2,0.2,0.4,0.3,0.6c0.1,0.2,0.3,0.3,0.5,0.4c0.2,0.1,0.5,0.1,0.8,0.1c0.3,0,0.5,0,0.8-0.1c0.2-0.1,0.4-0.2,0.5-0.4
				c0.1-0.2,0.3-0.4,0.3-0.6c0.1-0.2,0.1-0.5,0.1-0.8C28.5,16,28.4,15.7,28.4,15.5 M27.7,16.2c0,0.4-0.1,0.7-0.2,1
				c-0.1,0.2-0.4,0.3-0.7,0.3c-0.3,0-0.5-0.1-0.7-0.3c-0.1-0.2-0.2-0.6-0.2-1c0-0.4,0.1-0.7,0.2-1c0.1-0.2,0.4-0.3,0.7-0.3
				c0.3,0,0.5,0.1,0.7,0.3C27.6,15.5,27.7,15.8,27.7,16.2"/>
			<path fill-rule="evenodd" clip-rule="evenodd" fill="#FFFFFF" d="M34.2,17.4C34.2,17.4,34.1,17.4,34.2,17.4c-0.2,0-0.3,0-0.4,0.1
				c-0.1,0-0.2,0-0.4,0c-0.3,0-0.6-0.1-0.8-0.3c-0.2-0.2-0.3-0.5-0.3-1c0-0.4,0.1-0.7,0.3-0.9c0.2-0.2,0.4-0.3,0.8-0.3
				c0.3,0,0.5,0,0.7,0.1c0,0,0.1,0,0.1,0c0.1-0.2,0.1-0.3,0.2-0.5c0-0.1,0-0.1,0-0.1c-0.1,0-0.3-0.1-0.5-0.1c-0.2,0-0.3,0-0.5,0
				c-0.3,0-0.6,0.1-0.8,0.2c-0.2,0.1-0.4,0.2-0.6,0.4c-0.2,0.2-0.3,0.4-0.3,0.6c-0.1,0.2-0.1,0.5-0.1,0.8c0,0.6,0.2,1.1,0.5,1.4
				c0.3,0.3,0.8,0.5,1.4,0.5c0.4,0,0.7-0.1,1-0.2c0,0,0.1,0,0-0.1L34.2,17.4z"/>
			<path fill-rule="evenodd" clip-rule="evenodd" fill="#FFFFFF" d="M37.8,15.4c-0.1-0.2-0.2-0.5-0.3-0.6c-0.2-0.2-0.3-0.3-0.5-0.3
				c-0.2-0.1-0.4-0.1-0.7-0.1c-0.3,0-0.6,0.1-0.8,0.2c-0.2,0.1-0.4,0.2-0.6,0.4c-0.1,0.2-0.3,0.4-0.3,0.6c-0.1,0.2-0.1,0.5-0.1,0.8
				c0,0.3,0,0.5,0.1,0.8c0.1,0.2,0.2,0.4,0.3,0.6c0.2,0.2,0.4,0.3,0.6,0.4c0.2,0.1,0.5,0.1,0.9,0.1c0.7,0,1.1-0.2,1.2-0.2
				c0,0,0.1,0,0-0.1l-0.2-0.4c0-0.1-0.1,0-0.1,0c-0.2,0.1-0.4,0.2-1,0.2c-0.4,0-0.6-0.1-0.8-0.3c-0.2-0.2-0.3-0.4-0.3-0.8l2.4,0
				c0,0,0.1,0,0.1-0.1C37.9,16.4,38,15.9,37.8,15.4 M35.4,15.9c0-0.2,0.1-0.4,0.2-0.6c0.1-0.2,0.4-0.3,0.7-0.3
				c0.3,0,0.5,0.1,0.7,0.3c0.1,0.1,0.1,0.3,0.2,0.6L35.4,15.9z"/>
			<path fill-rule="evenodd" clip-rule="evenodd" fill="#FFFFFF" d="M18.6,15.4c-0.1-0.2-0.2-0.5-0.3-0.6c-0.2-0.2-0.3-0.3-0.5-0.3
				c-0.2-0.1-0.4-0.1-0.7-0.1c-0.3,0-0.6,0.1-0.8,0.2c-0.2,0.1-0.4,0.2-0.6,0.4c-0.1,0.2-0.3,0.4-0.3,0.6c-0.1,0.2-0.1,0.5-0.1,0.8
				c0,0.3,0,0.5,0.1,0.8c0.1,0.2,0.2,0.4,0.3,0.6c0.2,0.2,0.4,0.3,0.6,0.4c0.2,0.1,0.5,0.1,0.9,0.1c0.7,0,1.1-0.2,1.2-0.2
				c0,0,0.1,0,0-0.1l-0.2-0.4c0-0.1-0.1,0-0.1,0c-0.2,0.1-0.4,0.2-1,0.2c-0.4,0-0.6-0.1-0.8-0.3c-0.2-0.2-0.3-0.4-0.3-0.8l2.4,0
				c0,0,0.1,0,0.1-0.1C18.7,16.4,18.8,15.9,18.6,15.4 M16.2,15.9c0-0.2,0.1-0.4,0.2-0.6c0.1-0.2,0.4-0.3,0.7-0.3
				c0.3,0,0.5,0.1,0.7,0.3c0.1,0.1,0.1,0.3,0.2,0.6L16.2,15.9z"/>
			<path fill="#FFFFFF" d="M12,15.7c-0.1,0-0.2,0-0.4,0c-0.2,0-0.4,0-0.6,0.1c-0.2,0.1-0.4,0.1-0.5,0.2c-0.1,0.1-0.3,0.2-0.3,0.4
				c-0.1,0.2-0.1,0.3-0.1,0.6c0,0.2,0,0.4,0.1,0.5c0.1,0.2,0.2,0.3,0.3,0.4c0.1,0.1,0.3,0.2,0.5,0.2c0.2,0,0.4,0.1,0.6,0.1
				c0.2,0,0.5,0,0.7-0.1c0.2,0,0.5-0.1,0.6-0.1c0.1,0,0.2,0,0.2,0c0.1,0,0.1-0.1,0.1-0.1l0-2.2c0-0.5-0.1-0.8-0.4-1.1
				c-0.3-0.2-0.6-0.3-1.1-0.3c-0.2,0-0.5,0-0.6,0.1c0,0-0.5,0.1-0.7,0.3c0,0,0,0,0,0.1l0.2,0.5c0,0.1,0.1,0,0.1,0s0,0,0,0
				c0.5-0.3,1-0.2,1-0.2c0.3,0,0.5,0.1,0.6,0.2c0.1,0.1,0.2,0.3,0.2,0.6v0.1C12.2,15.8,12,15.7,12,15.7 M11.1,17.4
				c-0.1-0.1-0.1-0.1-0.1-0.1c0-0.1-0.1-0.2-0.1-0.3c0-0.2,0.1-0.4,0.2-0.5c0,0,0.2-0.2,0.7-0.2c0.3,0,0.7,0.1,0.7,0.1v1.1
				c0,0-0.3,0.1-0.6,0.1C11.3,17.6,11.1,17.4,11.1,17.4"/>
			<path fill-rule="evenodd" clip-rule="evenodd" fill="#FFFFFF" d="M31.3,14.5C31.4,14.4,31.3,14.4,31.3,14.5
				c-0.1-0.1-0.3-0.1-0.4-0.2c-0.3,0-0.5,0-0.6,0.1c-0.1,0.1-0.3,0.2-0.4,0.3l0-0.3c0,0,0-0.1-0.1-0.1h-0.6c0,0-0.1,0-0.1,0.1l0,3.6
				c0,0,0,0.1,0.1,0.1h0.6c0,0,0.1,0,0.1-0.1v-1.8c0-0.2,0-0.5,0.1-0.6c0.1-0.1,0.1-0.3,0.2-0.4c0.1-0.1,0.2-0.1,0.3-0.2
				c0.1,0,0.2,0,0.3,0c0.1,0,0.3,0,0.3,0c0,0,0.1,0,0.1-0.1C31.2,14.9,31.3,14.6,31.3,14.5"/>
			<path fill-rule="evenodd" clip-rule="evenodd" fill="#FFFFFF" d="M25.4,12.8c-0.1,0-0.1,0-0.2-0.1c-0.1,0-0.2,0-0.3,0
				c-0.4,0-0.8,0.1-1,0.4c-0.2,0.2-0.4,0.6-0.5,1.1l0,0.2h-0.5c0,0-0.1,0-0.1,0.1l-0.1,0.5c0,0,0,0.1,0.1,0.1h0.5l-0.5,3
				c0,0.2-0.1,0.4-0.1,0.6c-0.1,0.1-0.1,0.3-0.2,0.3c-0.1,0.1-0.1,0.1-0.2,0.2c-0.1,0-0.2,0-0.3,0c-0.1,0-0.1,0-0.2,0
				c-0.1,0-0.1,0-0.1,0c0,0-0.1,0-0.1,0c0,0.1-0.2,0.4-0.2,0.5c0,0,0,0.1,0,0.1c0.1,0,0.1,0,0.2,0.1c0.1,0,0.2,0,0.4,0
				c0.2,0,0.4,0,0.6-0.1c0.2-0.1,0.3-0.2,0.4-0.3c0.1-0.2,0.2-0.3,0.3-0.5c0.1-0.2,0.2-0.5,0.2-0.8L24,15h0.8c0,0,0.1,0,0.1-0.1
				l0.1-0.5c0,0,0-0.1-0.1-0.1h-0.8c0,0,0-0.3,0.1-0.5c0-0.1,0.1-0.2,0.2-0.3c0.1-0.1,0.1-0.1,0.2-0.1c0.1,0,0.2,0,0.3,0
				c0.1,0,0.1,0,0.2,0c0.1,0,0.1,0,0.1,0c0.1,0,0.1,0,0.1,0L25.4,12.8C25.5,12.9,25.4,12.9,25.4,12.8"/>
			<path fill-rule="evenodd" clip-rule="evenodd" fill="#FFFFFF" d="M14.7,18C14.7,18.1,14.7,18.1,14.7,18L14,18.1
				c0,0-0.1,0-0.1-0.1v-5.1c0,0,0-0.1,0.1-0.1h0.6c0,0,0.1,0,0.1,0.1V18z"/>
		</g>
		<g id="fb_15_">
			<g>
				<g>
					<path fill="#515050" d="M136.9,57.2h-4.5c-0.6,0-1.1,0.7-1.1,1.7v2.9h5.6v5.5h-5.5l0,13.4h-5.6V67.2h-4.5v-5.5h4.5v-2.7
						c0-4,3-7.2,6.6-7.2h4.5V57.2z"/>
				</g>
			</g>
		</g>
	</g>
</g>
<g id="Layer_3">
</g>
<g id="Layer_4">
</g>
</svg>
