<?xml version="1.0" encoding="utf-8"?>
<!-- Generator: Adobe Illustrator 19.2.1, SVG Export Plug-In . SVG Version: 6.00 Build 0)  -->
<svg version="1.1" xmlns="http://www.w3.org/2000/svg" xmlns:xlink="http://www.w3.org/1999/xlink" x="0px" y="0px"
	 viewBox="0 0 744 452" enable-background="new 0 0 744 452" xml:space="preserve">
<g id="Layer_1">
</g>
<g id="Layer_2">
</g>
<g id="Layer_3">
	<g>
		<rect x="155.3" y="283.5" fill="#1EBBEE" width="66.3" height="7.9"/>
		<rect x="155.3" y="283.5" opacity="0.15" width="28.1" height="7.9"/>
	</g>
	<path opacity="0.1" d="M67.9,384.5c0.5,0,0.9,0.1,1.3,0.1v-0.1l312.7,0v0.1c5.3,0.5,9.5,4.2,9.5,8.6c0,4.8-4.8,8.7-10.8,8.7
		c-0.8,0-312,0-312.7,0c-6,0-10.8-3.9-10.8-8.7C57.1,388.4,61.9,384.5,67.9,384.5"/>
	<polygon fill="#1EBBEE" points="293.8,291.4 293.8,304.7 156.8,304.7 156.8,398.3 145.1,398.3 145.1,304.7 98.2,304.7 98.2,398.3 
		86.6,398.3 86.6,304.7 86.6,303.6 86.6,291.4 	"/>
	<polygon opacity="0.1" points="151,291.4 151,303.3 151,304.7 151,398.3 145.1,398.3 145.1,304.7 92.4,304.7 92.4,398.3 
		86.6,398.3 86.6,304.7 86.6,303.3 86.6,291.4 	"/>
	<path fill="#1A75BB" d="M248.4,207.2v67.4c0,0,0,4.8-4.8,4.8h-85c0,0-4.8,0-4.8-4.8v-67.4c0,0,0-4.8,4.8-4.8l85,0
		C243.6,202.4,248.4,202.4,248.4,207.2z"/>
	<path fill="#1EBBEE" d="M254.9,207.2v67.4c0,0,0,4.8-4.8,4.8h-86.7c0,0-4.8,0-4.8-4.8l0-67.4c0,0,0-4.8,4.8-4.8l86.7,0
		C250.1,202.4,254.9,202.4,254.9,207.2z"/>
	<rect x="163.4" y="207.2" fill="#9C4F96" width="86.7" height="57.8"/>
	<ellipse fill="#17244E" cx="346.2" cy="119.5" rx="23.1" ry="24.9"/>
	<path fill="#00B193" d="M295.9,258L284,246.4c17.8-18.2,20.3-38.3,22.3-54.5c1.4-11.3,2.6-21.1,8.9-27.5L327,176
		c-2.4,2.5-3.3,10-4.3,17.9C320.6,211.6,317.6,235.8,295.9,258z"/>
	<path fill="#008372" d="M327,176l-3.8-3.7c-2.7,6.4-3.7,14.1-4.7,22.7c-2.2,18-4.9,40.5-24.9,60.9l2.2,2.1
		c21.8-22.2,24.7-46.4,26.9-64.1C323.7,186,324.6,178.5,327,176z"/>
	<path fill="#00B193" d="M371.2,380.1l-4-112.1l9.6,0.1l0,0l-13-51.1l6.2-55.1l-17.3-4.2h-18.1l-19.3,6.7l1.6,15.2l8.2,38.9
		l-12.7,49.6l8.2,0.9l-4.3,114.9l-22.9,4.8v9.8h24.1l2.8-3.1h5.7v3.1h4.3h4h20.1l2.8-3.1h5.7v3.1h8.3v-9.8v-8.3l0.2-0.2L371.2,380.1
		z M334.2,387.8v-7.5l0.2-0.2l-0.2,0l9.2-104.5h2.7l6.9,108.2L334.2,387.8z"/>
	<path fill="#DC5B26" d="M352.2,129c0-13.1-10.6-18.6-23.6-18.6l-5.9,23.9h4.1l2.6,12.9c1.3,0.2-1.4,0.3,0,0.3c2.4,0,4.8-0.4,7-1
		l-0.8,11.3l6,25.5l8.5-25.5v-18.9C351.5,135.9,352.2,132.6,352.2,129z"/>
	<g>
		<path fill="#008372" d="M371.2,380.1l0.2-112.1l-23-0.9l-4.4-17.2l-2.7,18.3l-24.4,0.8l-0.7,114.9l-22.9,4.8v9.8h24.1l2.8-3.1h5.7
			v3.1h4.3h4h20.1l2.8-3.1h5.7v3.1h8.3v-9.8v-8.3l0.2-0.2L371.2,380.1z M334.2,387.8v-7.5l0.2-0.2l-0.2,0l9.2-104.5h2.7l6.9,108.2
			L334.2,387.8z"/>
	</g>
	<path fill="#DC5B26" d="M377.7,241.6c-0.1,0.1-0.1,0.1-0.2,0.2c-2.4,2.4-6.2,2.5-8.6,0.2c-2.4-2.3-2.4-6.2-0.1-8.6
		c0.1-0.1,0.1-0.1,0.2-0.2l0,0l4.4-4.6l8.7,8.5L377.7,241.6L377.7,241.6z"/>
	<polygon fill="#008372" points="354.6,156.2 350.1,156.2 343.5,182.2 335.6,156.2 332.3,156.2 329,167.2 331.4,169.7 329,172.1 
		343.5,217 357.9,172.1 355.5,169.7 357.9,167.2 	"/>
	<polygon fill="#FFFFFF" points="347.5,157.7 343.5,168.4 338.4,157.7 334.2,154.3 334.2,163 343.5,200.1 352.7,163 352.7,154.3 	
		"/>
	<g>
		<path fill="#04AF91" d="M381.7,240.3l-11.9-11.5c6-6.2,9.3-14.3,9.4-22.9c0.1-12.8-7-24.4-18.5-30.1l2.7-14.7
			c0.6,0.3,6,0.5,6.6,0.9c16.1,8.9,25.9,25.6,25.8,44.1C395.6,218.9,390.6,231.1,381.7,240.3z"/>
	</g>
	<polygon fill="#008372" points="369.1,251.5 349.7,245.2 349.7,239.9 369.1,246.2 	"/>
	<polygon fill="#008372" points="320,251.5 339.4,245.2 339.4,239.9 320,246.2 	"/>
	<circle fill="#008372" cx="343.5" cy="231.3" r="1.9"/>
	<path fill="#17244E" d="M325.4,111.1c4.4-4.6,10.8-7,17.6-5.9c10.8,1.8,18.1,11.9,16.3,22.7c-0.6,3.5-4.5,10.3-6.6,12.9
		c-0.2,0-10.2-1.9-8.3-16.8C344.4,124.1,331.3,122.1,325.4,111.1"/>
	<path opacity="0.15" d="M250,279.6h-86.8c0,0-4.8,0-4.8-4.5v-4.5l96.4-53.9v58.4C254.9,275.1,254.9,279.6,250,279.6z"/>
	<g>
		<path fill="#515251" d="M296.3,96.6c0,14-11.4,25.4-25.4,25.4c-14,0-25.4-11.4-25.4-25.4c0-14,11.4-25.4,25.4-25.4
			C284.9,71.1,296.3,82.5,296.3,96.6"/>
		<path fill="#FFFFFF" d="M292.5,96.6c0,12-9.7,21.7-21.7,21.7c-12,0-21.7-9.7-21.7-21.7c0-12,9.7-21.7,21.7-21.7
			C282.8,74.9,292.5,84.6,292.5,96.6"/>
		<path fill="#1B1C1C" d="M272,96.6c0,0.7-0.5,1.2-1.2,1.2s-1.2-0.5-1.2-1.2c0-0.7,0.5-1.2,1.2-1.2S272,95.9,272,96.6"/>
		<rect x="270.5" y="76" fill="#1A1A1A" width="0.6" height="41.1"/>
		<rect x="250.3" y="96.3" fill="#1A1A1A" width="41.1" height="0.6"/>
		
			<rect x="270.5" y="76" transform="matrix(0.4955 -0.8686 0.8686 0.4955 52.7714 283.9804)" fill="#1A1A1A" width="0.6" height="41.1"/>
		<polygon fill="#1A1A1A" points="260.9,114.6 260.4,114.3 280.8,78.5 281.3,78.9 281.1,79.1 		"/>
		<polygon fill="#1A1A1A" points="280.8,114.5 280.7,114.3 260.3,78.9 260.8,78.6 281.4,114.2 		"/>
		<polygon fill="#1A1A1A" points="253.2,107.1 252.9,106.6 288.5,86 288.8,86.6 		"/>
		<path fill="#FFFFFF" d="M287.4,96.6c0,9.1-7.4,16.5-16.5,16.5c-9.1,0-16.5-7.4-16.5-16.5c0-9.1,7.4-16.5,16.5-16.5
			C280,80,287.4,87.4,287.4,96.6"/>
		<path fill="#1B1C1C" d="M272,96.6c0,0.7-0.5,1.2-1.2,1.2s-1.2-0.5-1.2-1.2c0-0.7,0.5-1.2,1.2-1.2S272,95.9,272,96.6"/>
		<path fill="#1A1A1A" d="M270.8,96.9c-0.1,0-0.2,0-0.2-0.1l-12.5-12.5c-0.1-0.1-0.1-0.3,0-0.4c0.1-0.1,0.3-0.1,0.4,0l12.5,12.5
			c0.1,0.1,0.1,0.3,0,0.4C271,96.8,270.9,96.9,270.8,96.9"/>
		<path fill="#1A1A1A" d="M270.8,96.9c-0.2,0-0.3-0.1-0.3-0.3c0-0.2,0.1-0.3,0.3-0.3h9.2c0.2,0,0.3,0.1,0.3,0.3
			c0,0.2-0.1,0.3-0.3,0.3H270.8z"/>
		<path fill="#E42129" d="M258.4,109.3c-0.1,0-0.2,0-0.2-0.1c-0.1-0.1-0.1-0.3,0-0.4l15.1-15.1c0.1-0.1,0.3-0.1,0.4,0
			c0.1,0.1,0.1,0.3,0,0.4l-15.1,15.1C258.5,109.3,258.5,109.3,258.4,109.3"/>
	</g>
	<g>
		<circle fill="#E6E6E6" cx="197.5" cy="154.3" r="7.5"/>
		<circle fill="#E6E6E6" cx="210.2" cy="171.8" r="5.3"/>
		<circle fill="#E6E6E6" cx="222.6" cy="181.6" r="3.7"/>
	</g>
	<g>
		<path fill="#E6E6E6" d="M147.2,74.9c-2.4-7.9-10.9-13.7-21.1-13.7c-0.1,0-0.1,0-0.2,0v0c0-9.9-9.7-18-21.6-18
			c-8.2,0-15.4,3.8-19,9.5c-2.1-0.6-4.4-1-6.8-1c-11.2,0-20.3,7.6-20.3,16.9c0,0.1,0,0.1,0,0.1c-0.9-0.1-1.8-0.1-2.7-0.1
			c-12.7,0-23,8.6-23,19.2c0,10.6,10.3,19.2,23,19.2l84.3,0l0,0c11,0,19.9-7.4,19.9-16.6C159.8,83.3,154.6,77.4,147.2,74.9"/>
		<path fill="#E6E6E6" d="M147.2,132.2c-2.4,7.9-10.9,13.7-21.1,13.7c-0.1,0-0.1,0-0.2,0v0c0,9.9-9.7,18-21.6,18
			c-8.2,0-15.4-3.8-19-9.5c-2.1,0.6-4.4,1-6.8,1c-11.2,0-20.3-7.6-20.3-16.9c0-0.1,0-0.1,0-0.1c-0.9,0.1-1.8,0.1-2.7,0.1
			c-12.7,0-23-8.6-23-19.2c0-10.6,10.3-19.2,23-19.2l84.3,0l0,0c11,0,19.9,7.4,19.9,16.6C159.8,123.8,154.6,129.7,147.2,132.2"/>
		<path fill="#E6E6E6" d="M98.9,74.9c2.4-7.9,10.9-13.7,21.1-13.7c0.1,0,0.1,0,0.2,0v0c0-9.9,9.7-18,21.6-18c8.2,0,15.4,3.8,19,9.5
			c2.1-0.6,4.4-1,6.8-1c11.2,0,20.3,7.6,20.3,16.9c0,0.1,0,0.1,0,0.1c0.9-0.1,1.8-0.1,2.7-0.1c12.7,0,23,8.6,23,19.2
			c0,10.6-10.3,19.2-23,19.2l-84.3,0l0,0c-11,0-19.9-7.4-19.9-16.6C86.4,83.3,91.6,77.4,98.9,74.9"/>
		<path fill="#E6E6E6" d="M98.9,132.2c2.4,7.9,10.9,13.7,21.1,13.7c0.1,0,0.1,0,0.2,0v0c0,9.9,9.7,18,21.6,18c8.2,0,15.4-3.8,19-9.5
			c2.1,0.6,4.4,1,6.8,1c11.2,0,20.3-7.6,20.3-16.9c0-0.1,0-0.1,0-0.1c0.9,0.1,1.8,0.1,2.7,0.1c12.7,0,23-8.6,23-19.2
			c0-10.6-10.3-19.2-23-19.2l-84.3,0l0,0c-11,0-19.9,7.4-19.9,16.6C86.4,123.8,91.6,129.7,98.9,132.2"/>
	</g>
	<g>
		
			<ellipse transform="matrix(0.6499 -0.76 0.76 0.6499 34.6506 362.0394)" fill="#E6E6E6" cx="410.3" cy="143.4" rx="7.5" ry="7.5"/>
		
			<ellipse transform="matrix(0.6499 -0.76 0.76 0.6499 23.5414 347.7838)" fill="#E6E6E6" cx="389.3" cy="148.3" rx="5.3" ry="5.3"/>
		
			<ellipse transform="matrix(0.6499 -0.76 0.76 0.6499 18.4003 335.5983)" fill="#E6E6E6" cx="373.5" cy="147.8" rx="3.7" ry="3.7"/>
	</g>
	<g>
		<path fill="#E6E6E6" d="M612.2,198.3c-4.1-13.5-18.7-23.6-36.2-23.6c-0.1,0-0.2,0-0.3,0v0c0-17.1-16.6-30.9-37.1-30.9
			c-14.1,0-26.4,6.6-32.7,16.3c-3.7-1.1-7.6-1.7-11.7-1.7c-19.3,0-34.9,13-34.9,29c0,0.1,0,0.2,0,0.3c-1.6-0.1-3.1-0.3-4.7-0.3
			c-21.9,0-39.6,14.8-39.6,33c0,18.2,17.7,33,39.6,33l144.9,0l0,0c18.9,0,34.3-12.8,34.3-28.6C633.7,212.7,624.8,202.5,612.2,198.3"
			/>
		<path fill="#E6E6E6" d="M604.6,289.6c-3.3,11.1-15.3,19.3-29.7,19.3c-0.1,0-0.2,0-0.2,0v0c0,14-13.6,25.3-30.4,25.3
			c-11.6,0-21.6-5.4-26.8-13.3c-3,0.9-6.2,1.4-9.6,1.4c-15.8,0-28.5-10.6-28.5-23.8c0-0.1,0-0.1,0-0.2c-1.3,0.1-2.6,0.2-3.9,0.2
			c-17.9,0-32.4-12.1-32.4-27c0-14.9,14.5-27,32.4-27l118.6,0l0,0c15.5,0,28.1,10.5,28.1,23.4C622.3,277.8,615,286.2,604.6,289.6"/>
		<path fill="#E6E6E6" d="M529.1,198.3c4.1-13.5,18.7-23.6,36.2-23.6c0.1,0,0.2,0,0.3,0v0c0-17.1,16.6-30.9,37.1-30.9
			c14.1,0,26.4,6.6,32.7,16.3c3.7-1.1,7.6-1.7,11.7-1.7c19.3,0,34.9,13,34.9,29c0,0.1,0,0.2,0,0.3c1.5-0.1,3.1-0.3,4.7-0.3
			c21.9,0,39.6,14.8,39.6,33c0,18.2-17.7,33-39.6,33l-144.9,0l0,0c-18.9,0-34.3-12.8-34.3-28.6C507.6,212.7,516.5,202.5,529.1,198.3
			"/>
		<path fill="#E6E6E6" d="M536.7,289.6c3.3,11.1,15.3,19.3,29.7,19.3c0.1,0,0.2,0,0.2,0v0c0,14,13.6,25.3,30.4,25.3
			c11.6,0,21.6-5.4,26.8-13.3c3,0.9,6.2,1.4,9.6,1.4c15.8,0,28.5-10.6,28.5-23.8c0-0.1,0-0.1,0-0.2c1.3,0.1,2.6,0.2,3.9,0.2
			c17.9,0,32.4-12.1,32.4-27c0-14.9-14.5-27-32.4-27l-118.6,0l0,0c-15.5,0-28.1,10.5-28.1,23.4C519,277.8,526.3,286.2,536.7,289.6"
			/>
		<path fill="#E6E6E6" d="M612.2,186.7c-4.1,13.5-18.7,23.6-36.2,23.6c-0.1,0-0.2,0-0.3,0v0c0,17.1-16.6,30.9-37.1,30.9
			c-14.1,0-26.4-6.6-32.7-16.3c-3.7,1.1-7.6,1.7-11.7,1.7c-19.3,0-34.9-13-34.9-29c0-0.1,0-0.2,0-0.3c-1.6,0.1-3.1,0.3-4.7,0.3
			c-21.9,0-39.6-14.8-39.6-33c0-18.2,17.7-33,39.6-33l144.9,0l0,0c18.9,0,34.3,12.8,34.3,28.6C633.7,172.3,624.8,182.5,612.2,186.7"
			/>
		<path fill="#E6E6E6" d="M604.6,95.4c-3.3-11.1-15.3-19.3-29.7-19.3c-0.1,0-0.2,0-0.2,0v0c0-14-13.6-25.3-30.4-25.3
			c-11.6,0-21.6,5.4-26.8,13.3c-3-0.9-6.2-1.4-9.6-1.4c-15.8,0-28.5,10.6-28.5,23.8c0,0.1,0,0.1,0,0.2c-1.3-0.1-2.6-0.2-3.9-0.2
			c-17.9,0-32.4,12.1-32.4,27c0,14.9,14.5,27,32.4,27l118.6,0l0,0c15.5,0,28.1-10.5,28.1-23.4C622.3,107.2,615,98.8,604.6,95.4"/>
		<path fill="#E6E6E6" d="M529.1,186.7c4.1,13.5,18.7,23.6,36.2,23.6c0.1,0,0.2,0,0.3,0v0c0,17.1,16.6,30.9,37.1,30.9
			c14.1,0,26.4-6.6,32.7-16.3c3.7,1.1,7.6,1.7,11.7,1.7c19.3,0,34.9-13,34.9-29c0-0.1,0-0.2,0-0.3c1.5,0.1,3.1,0.3,4.7,0.3
			c21.9,0,39.6-14.8,39.6-33c0-18.2-17.7-33-39.6-33l-144.9,0l0,0c-18.9,0-34.3,12.8-34.3,28.6C507.6,172.3,516.5,182.5,529.1,186.7
			"/>
		<path fill="#E6E6E6" d="M536.7,95.4c3.3-11.1,15.3-19.3,29.7-19.3c0.1,0,0.2,0,0.2,0v0c0-14,13.6-25.3,30.4-25.3
			c11.6,0,21.6,5.4,26.8,13.3c3-0.9,6.2-1.4,9.6-1.4c15.8,0,28.5,10.6,28.5,23.8c0,0.1,0,0.1,0,0.2c1.3-0.1,2.6-0.2,3.9-0.2
			c17.9,0,32.4,12.1,32.4,27c0,14.9-14.5,27-32.4,27l-118.6,0l0,0c-15.5,0-28.1-10.5-28.1-23.4C519,107.2,526.3,98.8,536.7,95.4"/>
	</g>
	<polygon fill="#04AF91" points="355.5,169.7 343.5,182.2 329,167.2 320.7,169.7 328.2,228.1 360.6,227.3 366,171 	"/>
	<g>
		<rect x="337" y="196.5" fill="#FFFFFF" width="2.9" height="13.7"/>
		<polygon fill="#FFFFFF" points="352.8,198.8 348.8,198.8 348.8,210.2 345.9,210.2 345.9,198.8 341.9,198.8 341.9,196.5 
			352.8,196.5 		"/>
		<path fill="#FFFFFF" d="M357.4,210.8l-13.2,7.7l-13.5-7.7v-15.2l13.2-7.7l13.5,7.7V210.8z M343.9,185.3l-15.5,8.9v18l15.7,8.9
			l15.5-8.9v-18L343.9,185.3z"/>
	</g>
	<path fill="none" stroke="#17244E" stroke-width="0.6266" stroke-miterlimit="10" d="M331.4,125.6c0,0,0.4-1.1,2.2-0.7
		c1.8,0.4,1.8,2,1.8,2"/>
</g>
<g id="Layer_4">
</g>
</svg>
