<?xml version="1.0" encoding="utf-8"?>
<!-- Generator: Adobe Illustrator 19.2.1, SVG Export Plug-In . SVG Version: 6.00 Build 0)  -->
<svg version="1.1" xmlns="http://www.w3.org/2000/svg" xmlns:xlink="http://www.w3.org/1999/xlink" x="0px" y="0px"
	 viewBox="0 0 25.3 29.7" enable-background="new 0 0 25.3 29.7" xml:space="preserve">
<g id="Layer_1">
</g>
<g id="Layer_2">
</g>
<g id="Layer_3">
	<g>
		<path fill="#17244E" d="M0.3,6.6c0,0-0.5,0.3-0.2,0.8l13.6,22c0,0,0.3,0.5,0.8,0.2L25,23.1c0,0,0.5-0.3,0.2-0.8l-13.6-22
			c0,0-0.3-0.5-0.8-0.2L1.2,6L0.3,6.6z"/>
		
			<rect x="7.6" y="7.2" transform="matrix(0.8499 -0.5269 0.5269 0.8499 -6.188 9.1863)" fill="#9C4F96" width="10.9" height="16.6"/>
		<g>
			<path fill="#FFFFFF" d="M13.8,17.8c-0.1-0.1-0.2-0.2-0.3-0.3c-0.1-0.1-0.2-0.3-0.3-0.4c-0.1-0.2-0.2-0.3-0.2-0.5
				c0-0.2-0.1-0.3-0.1-0.5c0-0.2,0-0.4,0.1-0.5c0-0.2,0.1-0.4,0.2-0.6c0-0.2,0.1-0.4,0.1-0.5c0-0.2,0.1-0.4,0.1-0.6
				c0-0.2,0-0.4-0.1-0.6c0-0.2-0.1-0.4-0.2-0.6c-0.1-0.2-0.3-0.4-0.4-0.5c-0.2-0.1-0.3-0.2-0.5-0.2c-0.2,0-0.4,0-0.6,0
				c-0.2,0-0.4,0.1-0.6,0.3c-0.3,0.2-0.6,0.5-0.8,0.8c-0.2,0.3-0.4,0.6-0.5,1l-0.4-0.6c0.1-0.4,0.3-0.7,0.5-0.9
				c0.2-0.3,0.5-0.5,0.9-0.7c0.3-0.2,0.5-0.3,0.8-0.4c0.3-0.1,0.5-0.1,0.8,0s0.5,0.1,0.7,0.3c0.2,0.2,0.4,0.4,0.6,0.6
				c0.1,0.2,0.2,0.4,0.3,0.6c0,0.2,0.1,0.4,0.1,0.6s0,0.4-0.1,0.6c0,0.2-0.1,0.4-0.1,0.6c-0.1,0.3-0.1,0.6-0.2,0.8
				c0,0.2-0.1,0.4-0.1,0.5c0,0.1,0,0.3,0,0.4c0,0.1,0.1,0.2,0.2,0.4c0.1,0.2,0.2,0.3,0.3,0.4c0.1,0.1,0.2,0.2,0.3,0.3L13.8,17.8z
				 M15.4,20C15.3,20,15.2,20.1,15,20c-0.1,0-0.2-0.1-0.3-0.2c-0.1-0.1-0.1-0.3-0.1-0.4c0-0.1,0.1-0.2,0.2-0.3
				C15,19,15.1,19,15.2,19c0.1,0,0.2,0.1,0.3,0.2c0.1,0.1,0.1,0.3,0.1,0.4C15.6,19.8,15.5,19.9,15.4,20z"/>
		</g>
	</g>
</g>
<g id="Layer_4">
</g>
</svg>
