<?xml version="1.0" encoding="utf-8"?>
<!-- Generator: Adobe Illustrator 19.2.1, SVG Export Plug-In . SVG Version: 6.00 Build 0)  -->
<svg version="1.1" xmlns="http://www.w3.org/2000/svg" xmlns:xlink="http://www.w3.org/1999/xlink" x="0px" y="0px"
	 viewBox="0 0 65.5 36" enable-background="new 0 0 65.5 36" xml:space="preserve">
<g id="Layer_1">
</g>
<g id="Layer_2">
</g>
<g id="Layer_3">
</g>
<g id="Layer_4">
	<path fill="#FDB813" d="M1,9.5c-1.8,4.7-1.1,9.7,1.4,13.6c1.7,2.6,4.1,4.6,7.2,5.8c5.8,2.3,12.1,0.8,16.2-3.3l4.8,1.9l1.1-2.7
		l2.2,3l4.6-1.1l1.8,3.6l4.1-1.3l1.9,3.6l7-0.8l0.6,3.1l2.6,1l8.1-5.5l0.9-2.3L30.2,14.3c0-0.6-0.1-1.2-0.2-1.9
		c-0.9-5-4.3-9.4-9.4-11.4C12.8-1.9,4,1.8,1,9.5 M13.1,14.3c-0.9,2.3-3.3,3.5-5.4,2.6c-2.1-0.8-3-3.3-2.1-5.6
		C6.5,9.1,8.9,7.9,11,8.7C13,9.5,14,12,13.1,14.3"/>
</g>
</svg>
