<?xml version="1.0" encoding="utf-8"?>
<!-- Generator: Adobe Illustrator 19.2.1, SVG Export Plug-In . SVG Version: 6.00 Build 0)  -->
<svg version="1.1" xmlns="http://www.w3.org/2000/svg" xmlns:xlink="http://www.w3.org/1999/xlink" x="0px" y="0px"
	 viewBox="0 0 120 73.9" enable-background="new 0 0 120 73.9" xml:space="preserve">
<g id="Layer_1">
</g>
<g id="Layer_2">
</g>
<g id="Layer_3">
</g>
<g id="Layer_4">
	<g>
		<g>
			<path fill="#515150" d="M12.5,36.8c1-1,2.3-1.6,3.7-1.6c1.9,0,3.6,1.1,4.6,2.7c0.8-0.4,1.7-0.5,2.6-0.5c3.5,0,6.4,2.9,6.4,6.4
				c0,3.5-2.8,6.4-6.4,6.4c-0.4,0-0.8,0-1.3-0.1c-0.8,1.4-2.3,2.4-4.1,2.4c-0.7,0-1.4-0.2-2-0.5c-0.8,1.9-2.7,3.2-4.9,3.2
				c-2.3,0-4.2-1.4-5-3.5c-0.3,0.1-0.7,0.1-1,0.1c-2.7,0-4.9-2.2-4.9-5c0-1.8,1-3.4,2.5-4.3c-0.3-0.7-0.5-1.5-0.5-2.3
				c0-3.2,2.6-5.7,5.7-5.7C9.8,34.5,11.5,35.4,12.5,36.8"/>
			<path fill="#FFFFFF" d="M4.5,45.2C4.5,45.3,4.5,45.3,4.5,45.2c0.1,0.1,0.1,0.1,0.2,0.2c0.3,0.2,0.6,0.2,0.9,0.2
				c0.6,0,1-0.3,1-0.8v0c0-0.5-0.4-0.7-0.8-0.8l-0.1,0c-0.3-0.1-0.6-0.2-0.6-0.4v0c0-0.2,0.2-0.3,0.4-0.3c0.3,0,0.6,0.1,0.8,0.2
				c0,0,0.1,0,0.1,0c0,0,0.1-0.3,0.1-0.3c0,0,0-0.1,0-0.1c-0.2-0.1-0.5-0.2-0.9-0.2l-0.1,0c-0.6,0-0.9,0.3-0.9,0.8v0
				c0,0.5,0.4,0.7,0.8,0.8l0.1,0C5.8,44.5,6,44.6,6,44.8v0c0,0.2-0.2,0.3-0.4,0.3c-0.1,0-0.4,0-0.8-0.2c0,0-0.1,0-0.1-0.1
				c0,0-0.1,0-0.1,0L4.5,45.2z"/>
			<path fill="#FFFFFF" d="M13.4,45.2C13.4,45.3,13.4,45.3,13.4,45.2c0.1,0.1,0.1,0.1,0.2,0.2c0.3,0.2,0.6,0.2,0.9,0.2
				c0.6,0,1-0.3,1-0.8v0c0-0.5-0.4-0.7-0.8-0.8l-0.1,0c-0.3-0.1-0.6-0.2-0.6-0.4v0c0-0.2,0.2-0.3,0.4-0.3c0.3,0,0.6,0.1,0.8,0.2
				c0,0,0.1,0,0.1,0c0,0,0.1-0.3,0.1-0.3c0,0,0-0.1,0-0.1c-0.2-0.1-0.5-0.2-0.9-0.2l-0.1,0c-0.6,0-0.9,0.3-0.9,0.8v0
				c0,0.5,0.4,0.7,0.8,0.8l0.1,0c0.3,0.1,0.5,0.2,0.5,0.4v0c0,0.2-0.2,0.3-0.4,0.3c-0.1,0-0.4,0-0.8-0.2c0,0-0.1,0-0.1-0.1
				c0,0-0.1,0-0.1,0L13.4,45.2z"/>
			<path fill="#FFFFFF" d="M19.9,43.7c0-0.2-0.1-0.3-0.2-0.4c-0.1-0.1-0.2-0.2-0.4-0.3c-0.2-0.1-0.3-0.1-0.5-0.1
				c-0.2,0-0.4,0-0.5,0.1c-0.2,0.1-0.3,0.2-0.4,0.3c-0.1,0.1-0.2,0.3-0.2,0.4c0,0.2-0.1,0.3-0.1,0.5c0,0.2,0,0.4,0.1,0.5
				c0,0.2,0.1,0.3,0.2,0.4c0.1,0.1,0.2,0.2,0.4,0.3c0.2,0.1,0.3,0.1,0.5,0.1c0.2,0,0.4,0,0.5-0.1c0.2-0.1,0.3-0.2,0.4-0.3
				c0.1-0.1,0.2-0.3,0.2-0.4c0-0.2,0.1-0.3,0.1-0.5C20,44,20,43.8,19.9,43.7 M19.4,44.2c0,0.3-0.1,0.5-0.2,0.7
				c-0.1,0.2-0.3,0.2-0.5,0.2c-0.2,0-0.4-0.1-0.5-0.2c-0.1-0.2-0.2-0.4-0.2-0.7c0-0.3,0.1-0.5,0.2-0.7c0.1-0.2,0.3-0.2,0.5-0.2
				c0.2,0,0.4,0.1,0.5,0.2C19.4,43.7,19.4,43.9,19.4,44.2"/>
			<path fill-rule="evenodd" clip-rule="evenodd" fill="#FFFFFF" d="M24.1,45.1C24.1,45,24,45,24.1,45.1c-0.1,0-0.2,0-0.3,0
				c-0.1,0-0.2,0-0.3,0c-0.2,0-0.4-0.1-0.6-0.2c-0.1-0.1-0.2-0.4-0.2-0.7c0-0.3,0.1-0.5,0.2-0.7c0.1-0.2,0.3-0.2,0.6-0.2
				c0.2,0,0.4,0,0.5,0.1c0,0,0,0,0.1,0c0-0.1,0.1-0.2,0.1-0.3c0,0,0-0.1,0-0.1c-0.1,0-0.2-0.1-0.3-0.1c-0.1,0-0.2,0-0.4,0
				c-0.2,0-0.4,0-0.6,0.1c-0.2,0.1-0.3,0.2-0.4,0.3c-0.1,0.1-0.2,0.3-0.2,0.4c-0.1,0.2-0.1,0.3-0.1,0.5c0,0.4,0.1,0.8,0.3,1
				c0.2,0.2,0.6,0.4,1,0.4c0.3,0,0.5-0.1,0.7-0.1c0,0,0,0,0-0.1L24.1,45.1z"/>
			<path fill-rule="evenodd" clip-rule="evenodd" fill="#FFFFFF" d="M26.7,43.6c0-0.2-0.1-0.3-0.2-0.4c-0.1-0.1-0.2-0.2-0.3-0.2
				c-0.1-0.1-0.3-0.1-0.5-0.1c-0.2,0-0.4,0-0.6,0.1c-0.2,0.1-0.3,0.2-0.4,0.3c-0.1,0.1-0.2,0.3-0.2,0.4c0,0.2-0.1,0.4-0.1,0.5
				c0,0.2,0,0.4,0.1,0.5c0.1,0.2,0.1,0.3,0.2,0.4c0.1,0.1,0.3,0.2,0.4,0.3c0.2,0.1,0.4,0.1,0.6,0.1c0.5,0,0.8-0.1,0.9-0.2
				c0,0,0,0,0-0.1L26.5,45c0,0-0.1,0-0.1,0c-0.1,0-0.3,0.1-0.7,0.1c-0.3,0-0.5-0.1-0.6-0.2C25,44.8,25,44.6,25,44.4l1.7,0
				c0,0,0,0,0,0C26.7,44.3,26.8,44,26.7,43.6 M25,43.9c0-0.2,0.1-0.3,0.1-0.4c0.1-0.2,0.3-0.2,0.5-0.2c0.2,0,0.4,0.1,0.5,0.2
				c0.1,0.1,0.1,0.2,0.1,0.4L25,43.9z"/>
			<path fill-rule="evenodd" clip-rule="evenodd" fill="#FFFFFF" d="M13,43.6c0-0.2-0.1-0.3-0.2-0.4c-0.1-0.1-0.2-0.2-0.3-0.2
				c-0.1-0.1-0.3-0.1-0.5-0.1c-0.2,0-0.4,0-0.6,0.1c-0.2,0.1-0.3,0.2-0.4,0.3c-0.1,0.1-0.2,0.3-0.2,0.4c0,0.2-0.1,0.4-0.1,0.5
				c0,0.2,0,0.4,0.1,0.5c0.1,0.2,0.1,0.3,0.2,0.4c0.1,0.1,0.3,0.2,0.4,0.3c0.2,0.1,0.4,0.1,0.6,0.1c0.5,0,0.8-0.1,0.9-0.2
				c0,0,0,0,0-0.1L12.8,45c0,0-0.1,0-0.1,0c-0.1,0-0.3,0.1-0.7,0.1c-0.3,0-0.5-0.1-0.6-0.2c-0.1-0.1-0.2-0.3-0.2-0.6l1.7,0
				c0,0,0,0,0,0C13,44.3,13.1,44,13,43.6 M11.3,43.9c0-0.2,0.1-0.3,0.1-0.4c0.1-0.2,0.3-0.2,0.5-0.2c0.2,0,0.4,0.1,0.5,0.2
				c0.1,0.1,0.1,0.2,0.1,0.4L11.3,43.9z"/>
			<path fill="#FFFFFF" d="M8.3,43.8c-0.1,0-0.2,0-0.3,0c-0.1,0-0.3,0-0.4,0.1c-0.1,0-0.3,0.1-0.4,0.2C7.1,44.1,7,44.2,7,44.3
				s-0.1,0.2-0.1,0.4c0,0.2,0,0.3,0.1,0.4c0.1,0.1,0.1,0.2,0.2,0.3c0.1,0.1,0.2,0.1,0.3,0.2c0.1,0,0.3,0,0.5,0c0.2,0,0.3,0,0.5,0
				c0.2,0,0.4-0.1,0.4-0.1c0.1,0,0.1,0,0.1,0c0,0,0-0.1,0-0.1l0-1.6c0-0.3-0.1-0.6-0.3-0.8c-0.2-0.2-0.4-0.2-0.8-0.2
				c-0.1,0-0.3,0-0.5,0c0,0-0.4,0.1-0.5,0.2c0,0,0,0,0,0.1l0.1,0.3c0,0,0.1,0,0.1,0s0,0,0,0C7.6,43.3,8,43.3,8,43.3
				c0.2,0,0.3,0,0.4,0.1c0.1,0.1,0.1,0.2,0.1,0.4v0.1C8.4,43.9,8.3,43.8,8.3,43.8 M7.6,45C7.5,45,7.5,45,7.5,44.9
				c0-0.1-0.1-0.1-0.1-0.2c0-0.1,0-0.3,0.2-0.3c0,0,0.1-0.1,0.5-0.1c0.2,0,0.5,0,0.5,0v0.8c0,0-0.2,0-0.5,0.1
				C7.7,45.2,7.6,45,7.6,45"/>
			<path fill-rule="evenodd" clip-rule="evenodd" fill="#FFFFFF" d="M22,43C22.1,42.9,22,42.9,22,43c-0.1-0.1-0.2-0.1-0.3-0.1
				c-0.2,0-0.3,0-0.4,0.1c-0.1,0-0.2,0.1-0.3,0.2l0-0.2c0,0,0-0.1,0-0.1h-0.4c0,0,0,0,0,0.1v2.6c0,0,0,0.1,0.1,0.1H21
				c0,0,0.1,0,0.1-0.1v-1.3c0-0.2,0-0.3,0.1-0.4c0-0.1,0.1-0.2,0.1-0.3c0.1-0.1,0.1-0.1,0.2-0.1c0.1,0,0.2,0,0.2,0
				c0.1,0,0.2,0,0.2,0c0,0,0.1,0,0.1,0C22,43.2,22,43,22,43"/>
			<path fill-rule="evenodd" clip-rule="evenodd" fill="#FFFFFF" d="M17.8,41.8c-0.1,0-0.1,0-0.2,0c-0.1,0-0.1,0-0.2,0
				c-0.3,0-0.6,0.1-0.7,0.3c-0.2,0.2-0.3,0.4-0.3,0.8l0,0.1H16c0,0,0,0-0.1,0l-0.1,0.4c0,0,0,0.1,0.1,0.1h0.4l-0.4,2.1
				c0,0.2-0.1,0.3-0.1,0.4c0,0.1-0.1,0.2-0.1,0.2c0,0.1-0.1,0.1-0.2,0.1c-0.1,0-0.1,0-0.2,0c0,0-0.1,0-0.1,0c0,0-0.1,0-0.1,0
				c0,0,0,0-0.1,0c0,0-0.1,0.3-0.1,0.3c0,0,0,0.1,0,0.1c0.1,0,0.1,0,0.2,0c0.1,0,0.2,0,0.3,0c0.2,0,0.3,0,0.4-0.1
				c0.1,0,0.2-0.1,0.3-0.2c0.1-0.1,0.2-0.2,0.2-0.4c0.1-0.2,0.1-0.3,0.2-0.6l0.4-2.2h0.6c0,0,0,0,0.1,0l0.1-0.4c0,0,0-0.1-0.1-0.1
				h-0.5c0,0,0-0.2,0.1-0.4c0-0.1,0.1-0.1,0.1-0.2c0,0,0.1-0.1,0.1-0.1c0.1,0,0.1,0,0.2,0c0.1,0,0.1,0,0.1,0c0.1,0,0.1,0,0.1,0
				c0.1,0,0.1,0,0.1,0L17.8,41.8C17.9,41.8,17.8,41.8,17.8,41.8"/>
			<path fill-rule="evenodd" clip-rule="evenodd" fill="#FFFFFF" d="M10.2,45.5C10.2,45.5,10.2,45.5,10.2,45.5l-0.5,0.1
				c0,0,0,0,0-0.1v-3.6c0,0,0-0.1,0-0.1h0.5c0,0,0,0,0,0.1L10.2,45.5z"/>
		</g>
		<path fill="#4F504F" d="M119.7,26.3c-0.7,0.3-1.4,0.5-2.2,0.6c0.8-0.5,1.4-1.2,1.7-2.1c-0.7,0.4-1.6,0.8-2.4,0.9
			c-0.7-0.7-1.7-1.2-2.8-1.2c-2.1,0-3.9,1.7-3.9,3.9c0,0.3,0,0.6,0.1,0.9c-3.2-0.2-6-1.7-7.9-4c-0.3,0.6-0.5,1.2-0.5,1.9
			c0,1.3,0.7,2.5,1.7,3.2c-0.6,0-1.2-0.2-1.7-0.5c0,0,0,0,0,0c0,1.9,1.3,3.4,3.1,3.8c-0.3,0.1-0.7,0.1-1,0.1c-0.2,0-0.5,0-0.7-0.1
			c0.5,1.5,1.9,2.6,3.6,2.7c-1.3,1-3,1.6-4.8,1.6c-0.3,0-0.6,0-0.9-0.1c1.7,1.1,3.7,1.7,5.9,1.7c7.1,0,11-5.9,11-11
			c0-0.2,0-0.3,0-0.5C118.6,27.8,119.2,27.1,119.7,26.3z"/>
		<g id="fb_26_">
			<g>
				<g>
					<path fill="#4F504F" d="M83.1,4.9l-2.6,0c-0.3,0-0.7,0.4-0.7,1v1.7l3.3,0l0,3.2l-3.2,0l0,7.9l-3.3,0l0-7.9l-2.6,0l0-3.2l2.6,0
						l0-1.6c0-2.4,1.7-4.2,3.9-4.2l2.6,0L83.1,4.9z"/>
				</g>
			</g>
		</g>
		<g>
			<g>
				<path fill="#4F504F" d="M90.3,71.8c0.1,0,0.2-0.1,0.2-0.2c0-0.1-0.1-0.2-0.2-0.2H90V72h0.1v-0.3L90.3,71.8L90.3,71.8l0.1,0.3
					h0.1L90.3,71.8L90.3,71.8z M90.2,71.7h-0.1v-0.2h0.1c0.1,0,0.1,0,0.1,0.1C90.4,71.7,90.3,71.7,90.2,71.7z"/>
				<path fill="#4F504F" d="M90.2,71.1c-0.3,0-0.6,0.3-0.6,0.6c0,0.3,0.3,0.6,0.6,0.6c0.3,0,0.6-0.3,0.6-0.6
					C90.8,71.4,90.6,71.1,90.2,71.1z M90.2,72.2c-0.3,0-0.5-0.2-0.5-0.5c0-0.3,0.2-0.5,0.5-0.5c0.3,0,0.5,0.2,0.5,0.5
					C90.7,72,90.5,72.2,90.2,72.2z"/>
			</g>
			<g>
				<g>
					<polygon fill="#4F504F" points="53.7,65.8 55.1,65.8 55.1,70.9 57.7,70.9 57.7,72.2 53.7,72.2 					"/>
					<g>
						<path fill="#4F504F" d="M58.3,67.9h1.3v4.3h-1.3V67.9z M59,65.7c0.4,0,0.8,0.3,0.8,0.8c0,0.4-0.3,0.8-0.8,0.8
							c-0.4,0-0.8-0.3-0.8-0.8C58.2,66.1,58.5,65.7,59,65.7"/>
					</g>
					<polygon fill="#4F504F" points="65.2,65.8 66.5,65.8 66.5,69.6 68,67.9 69.7,67.9 67.9,69.8 69.6,72.2 68,72.2 66.6,70 
						66.5,70 66.5,72.2 65.2,72.2 					"/>
					<path fill="#4F504F" d="M60.4,67.9h1.3v0.6h0c0.2-0.3,0.6-0.7,1.3-0.7c1.4,0,1.6,0.9,1.6,2v2.4h-1.3v-2.1c0-0.5,0-1.1-0.7-1.1
						c-0.7,0-0.8,0.5-0.8,1.1v2.1h-1.3V67.9z"/>
					<path fill="#4F504F" d="M72.5,69.5c0-0.4-0.3-0.8-0.8-0.8c-0.6,0-0.9,0.4-0.9,0.8H72.5z M73.6,71.4c-0.4,0.5-1.1,0.9-1.8,0.9
						c-1.3,0-2.4-0.9-2.4-2.3c0-1.4,1.1-2.3,2.4-2.3c1.2,0,2,0.9,2,2.3v0.4h-3.1c0.1,0.5,0.5,0.8,1,0.8c0.4,0,0.7-0.2,1-0.5
						L73.6,71.4z"/>
					<path fill="#4F504F" d="M76.6,68.9c-0.7,0-1.1,0.4-1.1,1.1c0,0.7,0.4,1.1,1.1,1.1c0.7,0,1.1-0.4,1.1-1.1
						C77.7,69.3,77.3,68.9,76.6,68.9 M78.9,72.2h-1.2v-0.6h0c-0.2,0.3-0.7,0.7-1.3,0.7c-1.3,0-2.1-0.9-2.1-2.2c0-1.2,0.7-2.3,2-2.3
						c0.6,0,1.1,0.2,1.4,0.6h0v-2.5h1.3V72.2z"/>
				</g>
				<path fill="#4F504F" d="M88.6,64.5h-7.7c-0.4,0-0.7,0.3-0.7,0.6v7.7c0,0.4,0.3,0.6,0.7,0.6h7.7c0.4,0,0.7-0.3,0.7-0.6v-7.7
					C89.2,64.8,89,64.5,88.6,64.5z M82.9,72.2h-1.3v-4.3h1.3V72.2z M82.2,67.3c-0.4,0-0.8-0.3-0.8-0.8c0-0.4,0.3-0.8,0.8-0.8
					c0.4,0,0.8,0.3,0.8,0.8C83,66.9,82.7,67.3,82.2,67.3z M87.9,72.2h-1.3v-2.1c0-0.5,0-1.1-0.7-1.1c-0.7,0-0.8,0.5-0.8,1.1v2.1
					h-1.3v-4.3H85v0.6h0c0.2-0.3,0.6-0.7,1.3-0.7c1.4,0,1.6,0.9,1.6,2V72.2z"/>
			</g>
		</g>
		<g>
			<path fill="#4F504F" d="M60.1,33.5H72c1.1,0,2.1,0.8,2.1,2.1v11.9c0,1.2-0.9,2.1-2.1,2.1H60.1c-1.1,0-2.1-0.8-2.1-2.1V35.5
				C58,34.3,58.9,33.5,60.1,33.5L60.1,33.5z M69.7,35.3c-0.4,0-0.7,0.3-0.7,0.7v1.7c0,0.4,0.3,0.7,0.7,0.7h1.8
				c0.4,0,0.7-0.3,0.7-0.7V36c0-0.4-0.3-0.7-0.7-0.7H69.7L69.7,35.3z M72.3,40.3h-1.4c0.1,0.4,0.2,0.9,0.2,1.4c0,2.7-2.2,4.8-5,4.8
				c-2.8,0-5-2.2-5-4.8c0-0.5,0.1-0.9,0.2-1.4h-1.5v6.8c0,0.4,0.3,0.6,0.6,0.6h11.2c0.4,0,0.6-0.3,0.6-0.6L72.3,40.3L72.3,40.3z
				 M66.1,38.3c-1.8,0-3.2,1.4-3.2,3.1s1.4,3.1,3.2,3.1c1.8,0,3.2-1.4,3.2-3.1S67.8,38.3,66.1,38.3z"/>
		</g>
		<g id="outlook_24_">
			<path fill="#515150" d="M43.2,5.4c0-0.5-0.6-0.7-1-0.6c-2.2,0-4.3,0-6.4,0c0-1.4,0-2.8,0-4.1V0.4C32.6,0.9,28.2,1.7,25,2.3
				c0,4.8,0,9.7,0,14.5c3.2,0.5,7.6,1.3,10.8,1.8v-0.2c0-1.3,0-2.6,0-3.9c2.3,0,4.6,0,6.8,0c0.6,0,0.6-0.7,0.6-1.2
				C43.2,10.6,43.3,8,43.2,5.4z M31.7,12.3c-1.2,1.1-3.3,0.5-3.9-1.1c-0.7-1.7-0.4-4.4,1.6-5.1c1.2-0.4,2.5,0.2,3,1.3
				C33.1,9,33,11.1,31.7,12.3z M42.6,13.9c-2.3,0-4.6,0-6.8,0c0-1.8,0-3.6,0-5.4c0.8,0.7,1.5,1.5,2.3,2.1c0.4,0.1,0.6-0.2,0.8-0.4
				c1.2-1.2,2.5-2.4,3.8-3.5C42.6,9,42.6,11.4,42.6,13.9z M42.3,6.1c-1.4,1.3-2.7,2.6-4.1,3.9c-0.8-0.7-1.6-1.5-2.4-2.3
				c0-0.7,0-1.5,0-2.3c2.3,0,4.6,0,6.9,0C42.6,5.6,42.5,5.9,42.3,6.1z"/>
			<path fill="#515150" d="M29.6,7.4c0.6-0.3,1.2,0,1.5,0.5c0.4,0.8,0.4,1.8,0.1,2.7c-0.2,0.6-0.9,1.1-1.5,0.9
				c-0.8-0.2-1.1-1.2-1.1-2C28.7,8.7,28.8,7.8,29.6,7.4z"/>
		</g>
	</g>
</g>
</svg>
