<?xml version="1.0" encoding="utf-8"?>
<!-- Generator: Adobe Illustrator 19.2.1, SVG Export Plug-In . SVG Version: 6.00 Build 0)  -->
<svg version="1.1" xmlns="http://www.w3.org/2000/svg" xmlns:xlink="http://www.w3.org/1999/xlink" x="0px" y="0px"
	 viewBox="0 0 210.7 141" enable-background="new 0 0 210.7 141" xml:space="preserve">
<g id="Layer_1">
	<g>
		<g>
			<path fill="#FFFFFF" d="M92.5,81.2c-0.4-1-0.8-2.4-1.1-4c-0.3-1.7-0.5-3.3-0.5-4.9c0-1.9,0.3-3.7,0.8-5.2c0.5-1.6,1.2-3,2.1-4.4
				c0.9-1.4,2-2.7,3.3-4c1.3-1.3,2.7-2.6,4.3-4c1.3-1.2,2.6-2.4,3.9-3.7c1.3-1.3,2.4-2.7,3.4-4.1c1-1.5,1.8-3.1,2.4-4.8
				c0.6-1.7,0.9-3.6,0.9-5.7c0-2.2-0.4-4.3-1.1-6c-0.8-1.8-1.8-3.3-3.2-4.5c-1.3-1.2-3-2.2-4.9-2.8c-1.9-0.7-4-1-6.3-1
				c-3.8,0-7.4,0.7-10.6,2c-3.2,1.3-6.3,3.2-9.1,5.5v-6.5c2.9-2.2,5.9-3.8,9.1-4.9c3.2-1.1,6.8-1.6,10.7-1.6c3,0,5.8,0.4,8.4,1.3
				c2.6,0.9,4.8,2.1,6.7,3.8s3.4,3.7,4.5,6.1c1.1,2.4,1.6,5.1,1.6,8.2c0,2.3-0.3,4.4-1,6.4c-0.7,1.9-1.5,3.7-2.5,5.3
				c-1,1.6-2.2,3.2-3.6,4.6c-1.3,1.4-2.7,2.8-4.1,4.2c-2.2,2-3.9,3.8-5.3,5.2s-2.4,2.7-3.2,3.8c-0.8,1.1-1.3,2.3-1.6,3.3
				c-0.3,1.1-0.5,2.4-0.5,3.8c0,1.9,0.2,3.6,0.5,5.1s0.7,2.8,1,3.9H92.5z M94.7,106.6c-1.4,0-2.5-0.5-3.5-1.4
				c-0.9-1-1.4-2.1-1.4-3.5c0-1.4,0.5-2.6,1.4-3.5c0.9-0.9,2.1-1.4,3.5-1.4c1.4,0,2.6,0.5,3.6,1.4s1.4,2.1,1.4,3.5
				c0,1.4-0.5,2.6-1.4,3.5S96.1,106.6,94.7,106.6z"/>
		</g>
		<g id="outlook_13_">
			<path fill="#515150" d="M201.2,23.4c0-1.2-1.3-1.5-2.3-1.5c-4.9,0-9.8,0-14.7,0c0-3.2,0-6.3,0-9.5v-0.6
				c-7.3,1.3-17.3,3.1-24.6,4.4c0,11,0,22.1,0,33.2c7.3,1.2,17.4,2.9,24.6,4.2v-0.4c0-3,0-6,0-9c5.2-0.1,10.4,0.1,15.6-0.1
				c1.5,0,1.5-1.7,1.5-2.7C201.2,35.4,201.4,29.4,201.2,23.4z M174.9,39.2c-2.8,2.4-7.6,1-8.9-2.4c-1.7-3.9-0.9-10,3.7-11.7
				c2.7-1,5.8,0.4,6.9,3C178.2,31.6,177.9,36.5,174.9,39.2z M199.8,42.8c-5.2,0-10.4,0-15.6,0c0-4.1,0-8.2,0-12.4
				c1.8,1.6,3.4,3.4,5.2,4.8c0.8,0.1,1.3-0.5,1.8-0.9c2.8-2.7,5.7-5.4,8.6-8.1C199.8,31.6,199.8,37.2,199.8,42.8z M199.1,25
				c-3.1,2.9-6.3,5.9-9.4,8.8c-1.9-1.7-3.7-3.5-5.5-5.2c0-1.7,0-3.5,0-5.2c5.3,0,10.5,0,15.7,0C199.8,24,199.6,24.6,199.1,25z"/>
			<path fill="#515150" d="M170.1,27.9c1.3-0.6,2.8,0,3.4,1.2c0.9,1.9,0.9,4.2,0.3,6.2c-0.4,1.4-2,2.6-3.5,2
				c-1.8-0.6-2.4-2.8-2.5-4.5C167.9,31,168.4,28.8,170.1,27.9z"/>
		</g>
		<path fill="#515150" d="M60.8,82.7c-1.5,0.7-3.2,1.1-4.9,1.3c1.8-1.1,3.1-2.7,3.8-4.7c-1.7,1-3.5,1.7-5.4,2.1
			c-1.6-1.7-3.8-2.7-6.3-2.7c-4.7,0-8.6,3.8-8.6,8.6c0,0.7,0.1,1.3,0.2,2c-7.1-0.4-13.4-3.8-17.7-9c-0.7,1.3-1.2,2.7-1.2,4.3
			c0,3,1.5,5.6,3.8,7.1c-1.4,0-2.7-0.4-3.9-1.1c0,0,0,0.1,0,0.1c0,4.2,3,7.6,6.9,8.4c-0.7,0.2-1.5,0.3-2.3,0.3
			c-0.6,0-1.1-0.1-1.6-0.2c1.1,3.4,4.3,5.9,8,5.9c-2.9,2.3-6.6,3.7-10.6,3.7c-0.7,0-1.4,0-2-0.1c3.8,2.4,8.3,3.8,13.1,3.8
			c15.8,0,24.4-13.1,24.4-24.4c0-0.4,0-0.7,0-1.1C58.2,86,59.7,84.5,60.8,82.7z"/>
		<g>
			<path fill="#515150" d="M5.7,52.1L5.7,52.1l0,3.7H5.1v-8.5h0.5v1.2h0c0.2-0.4,0.5-0.8,0.9-1c0.4-0.2,0.8-0.4,1.3-0.4
				c0.7,0,1.3,0.3,1.7,0.8c0.4,0.5,0.6,1.2,0.6,2.1c0,1-0.2,1.8-0.7,2.4c-0.5,0.6-1.1,0.9-1.9,0.9C6.8,53.3,6.1,52.9,5.7,52.1z
				 M5.7,50v0.7c0,0.6,0.2,1.1,0.6,1.5c0.4,0.4,0.9,0.6,1.5,0.6c0.6,0,1.1-0.3,1.5-0.8c0.4-0.5,0.6-1.2,0.6-2c0-0.7-0.2-1.3-0.5-1.7
				c-0.3-0.4-0.8-0.6-1.4-0.6c-0.7,0-1.2,0.2-1.6,0.7C5.9,48.8,5.7,49.3,5.7,50z"/>
			<path fill="#515150" d="M15.2,53.2V52h0c-0.2,0.4-0.5,0.7-0.8,1s-0.8,0.4-1.2,0.4c-0.6,0-1-0.2-1.3-0.5c-0.3-0.3-0.5-0.7-0.5-1.2
				c0-1,0.7-1.6,2-1.8l1.8-0.3c0-1.3-0.5-1.9-1.4-1.9c-0.6,0-1.3,0.3-1.9,0.8v-0.6c0.2-0.2,0.5-0.3,0.9-0.4c0.4-0.1,0.7-0.2,1-0.2
				c0.6,0,1.1,0.2,1.4,0.6s0.5,0.9,0.5,1.6v3.8H15.2z M13.6,50.3c-0.6,0.1-1,0.2-1.3,0.4c-0.2,0.2-0.4,0.5-0.4,1
				c0,0.3,0.1,0.6,0.3,0.9c0.2,0.2,0.6,0.3,1,0.3c0.6,0,1-0.2,1.4-0.6c0.4-0.4,0.6-1,0.6-1.6V50L13.6,50.3z"/>
			<path fill="#515150" d="M17.2,52.9v-0.6c0.2,0.2,0.4,0.3,0.7,0.4c0.3,0.1,0.5,0.1,0.7,0.1c0.9,0,1.4-0.4,1.4-1.1
				c0-0.3-0.1-0.5-0.3-0.7c-0.2-0.2-0.5-0.4-1-0.6c-0.6-0.2-1-0.5-1.2-0.8s-0.3-0.6-0.3-1c0-0.5,0.2-0.9,0.5-1.2
				c0.4-0.3,0.8-0.4,1.3-0.4c0.5,0,0.9,0.1,1.3,0.3v0.6c-0.4-0.3-0.9-0.4-1.3-0.4c-0.4,0-0.7,0.1-0.9,0.3c-0.2,0.2-0.4,0.5-0.4,0.8
				c0,0.3,0.1,0.5,0.2,0.7c0.1,0.2,0.5,0.4,1,0.6c0.6,0.3,1,0.5,1.3,0.8c0.2,0.2,0.3,0.5,0.3,0.9c0,0.5-0.2,0.8-0.5,1.2
				c-0.3,0.3-0.8,0.5-1.4,0.5C18,53.3,17.5,53.2,17.2,52.9z"/>
			<path fill="#515150" d="M21.7,52.9v-0.6c0.2,0.2,0.4,0.3,0.7,0.4c0.3,0.1,0.5,0.1,0.7,0.1c0.9,0,1.4-0.4,1.4-1.1
				c0-0.3-0.1-0.5-0.3-0.7c-0.2-0.2-0.5-0.4-1-0.6c-0.6-0.2-1-0.5-1.2-0.8s-0.3-0.6-0.3-1c0-0.5,0.2-0.9,0.5-1.2
				c0.4-0.3,0.8-0.4,1.3-0.4c0.5,0,0.9,0.1,1.3,0.3v0.6c-0.4-0.3-0.9-0.4-1.3-0.4c-0.4,0-0.7,0.1-0.9,0.3c-0.2,0.2-0.4,0.5-0.4,0.8
				c0,0.3,0.1,0.5,0.2,0.7c0.1,0.2,0.5,0.4,1,0.6c0.6,0.3,1,0.5,1.3,0.8c0.2,0.2,0.3,0.5,0.3,0.9c0,0.5-0.2,0.8-0.5,1.2
				c-0.3,0.3-0.8,0.5-1.4,0.5C22.6,53.3,22.1,53.2,21.7,52.9z"/>
			<path fill="#515150" d="M31.5,53.2H31l-1.3-4.4c0-0.1-0.1-0.3-0.1-0.5h0c0,0.1,0,0.2-0.1,0.5l-1.4,4.4h-0.5l-1.8-5.8h0.6l1.4,4.7
				c0,0.1,0.1,0.3,0.1,0.5h0c0-0.1,0-0.3,0.1-0.5l1.5-4.7h0.4l1.3,4.7c0,0.1,0.1,0.3,0.1,0.5h0c0-0.1,0-0.3,0.1-0.5l1.4-4.7h0.5
				L31.5,53.2z"/>
			<path fill="#515150" d="M36.5,53.3c-0.8,0-1.3-0.3-1.8-1c-0.4-0.7-0.6-1.7-0.6-3c0-1.5,0.2-2.6,0.7-3.3s1.1-1.1,1.9-1.1
				c1.6,0,2.4,1.4,2.4,4.2c0,1.4-0.2,2.5-0.7,3.2S37.3,53.3,36.5,53.3z M36.6,45.3c-0.6,0-1.1,0.3-1.5,1c-0.4,0.6-0.5,1.6-0.5,2.9
				c0,1.2,0.2,2.1,0.5,2.7s0.8,0.9,1.4,0.9c0.6,0,1.1-0.3,1.4-1c0.3-0.6,0.5-1.6,0.5-2.7C38.5,46.6,37.8,45.3,36.6,45.3z"/>
			<path fill="#515150" d="M43.2,47.9c-0.2-0.1-0.4-0.2-0.6-0.2c-0.5,0-0.8,0.2-1.2,0.7c-0.3,0.5-0.5,1.2-0.5,2v2.7h-0.5v-5.8H41
				v1.3h0c0.1-0.4,0.3-0.8,0.6-1c0.3-0.2,0.6-0.4,1-0.4c0.2,0,0.4,0,0.6,0.1V47.9z"/>
			<path fill="#515150" d="M48.3,53.2v-1.1h0c-0.2,0.4-0.5,0.7-0.8,0.9s-0.8,0.3-1.3,0.3c-0.7,0-1.3-0.3-1.8-0.8
				c-0.5-0.5-0.7-1.3-0.7-2.2c0-0.9,0.2-1.7,0.7-2.3c0.5-0.6,1.1-0.9,1.9-0.9c0.9,0,1.5,0.4,1.9,1.1h0v-3.7h0.5v8.7H48.3z
				 M48.3,49.6c0-0.5-0.2-1-0.5-1.4c-0.3-0.4-0.8-0.6-1.4-0.6c-0.6,0-1.1,0.2-1.5,0.7c-0.4,0.5-0.6,1.1-0.6,1.9
				c0,0.8,0.2,1.4,0.5,1.9c0.4,0.4,0.8,0.7,1.4,0.7c0.7,0,1.2-0.2,1.5-0.6c0.4-0.4,0.5-0.9,0.5-1.5V49.6z"/>
		</g>
		<g>
			<path fill="#515150" d="M12.4,123.9L12.4,123.9l0,3.7h-0.5v-8.5h0.5v1.2h0c0.2-0.4,0.5-0.8,0.9-1s0.8-0.4,1.3-0.4
				c0.7,0,1.3,0.3,1.7,0.8c0.4,0.5,0.6,1.2,0.6,2.1c0,1-0.2,1.8-0.7,2.4c-0.5,0.6-1.1,0.9-1.9,0.9C13.4,125.1,12.8,124.7,12.4,123.9
				z M12.3,121.7v0.7c0,0.6,0.2,1.1,0.6,1.5c0.4,0.4,0.9,0.6,1.5,0.6c0.6,0,1.1-0.3,1.5-0.8s0.6-1.2,0.6-2c0-0.7-0.2-1.3-0.5-1.7
				c-0.3-0.4-0.8-0.6-1.4-0.6c-0.7,0-1.2,0.2-1.6,0.7C12.5,120.6,12.3,121.1,12.3,121.7z"/>
			<path fill="#515150" d="M24,122.5L24,122.5c-0.4,0.9-0.9,1.4-1.7,1.4c-0.5,0-1-0.2-1.3-0.6c-0.3-0.4-0.5-0.9-0.5-1.5
				c0-0.9,0.2-1.6,0.7-2.2c0.4-0.6,1-0.9,1.7-0.9c0.3,0,0.6,0.1,0.8,0.2s0.4,0.3,0.4,0.5h0c0-0.2,0-0.5,0.1-0.7h0.5l-0.3,3.3
				c0,0.8,0.3,1.2,0.9,1.2c0.5,0,0.9-0.2,1.2-0.7c0.3-0.5,0.5-1.1,0.5-1.8c0-1.1-0.3-2-1-2.7c-0.7-0.7-1.7-1-2.9-1
				c-1.2,0-2.2,0.4-3,1.2c-0.8,0.8-1.1,1.9-1.1,3.1c0,1.2,0.4,2.2,1.1,3c0.7,0.7,1.7,1.1,3,1.1c0.9,0,1.8-0.2,2.4-0.5v0.5
				c-0.7,0.3-1.6,0.5-2.5,0.5c-1.4,0-2.5-0.4-3.3-1.3s-1.2-2-1.2-3.3c0-1.4,0.4-2.5,1.3-3.4c0.9-0.9,2-1.4,3.4-1.4
				c1.3,0,2.4,0.4,3.2,1.2c0.8,0.8,1.2,1.8,1.2,3c0,0.9-0.2,1.6-0.6,2.2c-0.4,0.6-0.9,0.9-1.5,0.9C24.5,123.9,24.1,123.4,24,122.5z
				 M22.9,119.2c-0.5,0-1,0.2-1.3,0.7c-0.3,0.5-0.5,1.1-0.5,1.8c0,0.5,0.1,0.9,0.3,1.2s0.5,0.5,0.9,0.5c0.5,0,0.9-0.3,1.2-0.8
				c0.3-0.5,0.5-1.2,0.5-2c0-0.4-0.1-0.8-0.3-1C23.6,119.3,23.3,119.2,22.9,119.2z"/>
			<path fill="#515150" d="M29.1,124.7v-0.6c0.2,0.2,0.4,0.3,0.7,0.4s0.5,0.1,0.7,0.1c0.9,0,1.4-0.4,1.4-1.1c0-0.3-0.1-0.5-0.3-0.7
				c-0.2-0.2-0.5-0.4-1-0.6c-0.6-0.2-1-0.5-1.2-0.8s-0.3-0.6-0.3-1c0-0.5,0.2-0.9,0.5-1.2s0.8-0.4,1.3-0.4c0.5,0,0.9,0.1,1.3,0.3
				v0.6c-0.4-0.3-0.9-0.4-1.3-0.4c-0.4,0-0.7,0.1-0.9,0.3c-0.2,0.2-0.4,0.5-0.4,0.8c0,0.3,0.1,0.5,0.2,0.7c0.1,0.2,0.5,0.4,1,0.6
				c0.6,0.3,1,0.5,1.3,0.8c0.2,0.2,0.3,0.5,0.3,0.9c0,0.5-0.2,0.8-0.5,1.2c-0.3,0.3-0.8,0.5-1.4,0.5C29.9,125.1,29.5,125,29.1,124.7
				z"/>
			<path fill="#515150" d="M33.6,124.7v-0.6c0.2,0.2,0.4,0.3,0.7,0.4c0.3,0.1,0.5,0.1,0.7,0.1c0.9,0,1.4-0.4,1.4-1.1
				c0-0.3-0.1-0.5-0.3-0.7c-0.2-0.2-0.5-0.4-1-0.6c-0.6-0.2-1-0.5-1.2-0.8s-0.3-0.6-0.3-1c0-0.5,0.2-0.9,0.5-1.2
				c0.4-0.3,0.8-0.4,1.3-0.4c0.5,0,0.9,0.1,1.3,0.3v0.6c-0.4-0.3-0.9-0.4-1.3-0.4c-0.4,0-0.7,0.1-0.9,0.3c-0.2,0.2-0.4,0.5-0.4,0.8
				c0,0.3,0.1,0.5,0.2,0.7c0.1,0.2,0.5,0.4,1,0.6c0.6,0.3,1,0.5,1.3,0.8c0.2,0.2,0.3,0.5,0.3,0.9c0,0.5-0.2,0.8-0.5,1.2
				c-0.3,0.3-0.8,0.5-1.4,0.5C34.5,125.1,34,125,33.6,124.7z"/>
			<path fill="#515150" d="M43.4,124.9h-0.5l-1.3-4.4c0-0.1-0.1-0.3-0.1-0.5h0c0,0.1,0,0.2-0.1,0.5l-1.4,4.4h-0.5l-1.8-5.8h0.6
				l1.4,4.7c0,0.1,0.1,0.3,0.1,0.5h0c0-0.1,0-0.3,0.1-0.5l1.5-4.7h0.4l1.3,4.7c0,0.1,0.1,0.3,0.1,0.5h0c0-0.1,0-0.3,0.1-0.5l1.4-4.7
				h0.5L43.4,124.9z"/>
			<path fill="#515150" d="M48.7,125.1c-0.9,0-1.5-0.3-2-0.8S46,123,46,122.1c0-1,0.3-1.7,0.8-2.3c0.5-0.5,1.2-0.8,2.1-0.8
				c0.8,0,1.5,0.3,2,0.8c0.5,0.5,0.7,1.3,0.7,2.3c0,0.9-0.2,1.6-0.7,2.2C50.3,124.8,49.6,125.1,48.7,125.1z M48.8,119.4
				c-0.7,0-1.2,0.2-1.6,0.7c-0.4,0.5-0.6,1.1-0.6,1.9c0,0.8,0.2,1.4,0.6,1.8c0.4,0.5,0.9,0.7,1.6,0.7c0.7,0,1.2-0.2,1.6-0.7
				c0.4-0.5,0.6-1.1,0.6-1.9c0-0.8-0.2-1.5-0.6-1.9S49.5,119.4,48.8,119.4z"/>
			<path fill="#515150" d="M55.7,119.7c-0.2-0.1-0.4-0.2-0.6-0.2c-0.5,0-0.8,0.2-1.2,0.7c-0.3,0.5-0.5,1.2-0.5,2v2.7h-0.5v-5.8h0.5
				v1.3h0c0.1-0.4,0.3-0.8,0.6-1s0.6-0.4,1-0.4c0.2,0,0.4,0,0.6,0.1V119.7z"/>
			<path fill="#515150" d="M60.7,124.9v-1.1h0c-0.2,0.4-0.5,0.7-0.8,0.9s-0.8,0.3-1.3,0.3c-0.7,0-1.3-0.3-1.8-0.8
				c-0.5-0.5-0.7-1.3-0.7-2.2c0-0.9,0.2-1.7,0.7-2.3s1.1-0.9,1.9-0.9c0.9,0,1.5,0.4,1.9,1.1h0v-3.7h0.5v8.7H60.7z M60.7,121.4
				c0-0.5-0.2-1-0.5-1.4c-0.3-0.4-0.8-0.6-1.4-0.6c-0.6,0-1.1,0.2-1.5,0.7c-0.4,0.5-0.6,1.1-0.6,1.9c0,0.8,0.2,1.4,0.5,1.9
				c0.4,0.4,0.8,0.7,1.4,0.7c0.7,0,1.2-0.2,1.5-0.6c0.4-0.4,0.5-0.9,0.5-1.5V121.4z"/>
		</g>
		<g>
			<path fill="#515150" d="M128.5,137.3L128.5,137.3l0,3.7H128v-8.5h0.5v1.2h0c0.2-0.4,0.5-0.8,0.9-1c0.4-0.2,0.8-0.4,1.3-0.4
				c0.7,0,1.3,0.3,1.7,0.8s0.6,1.2,0.6,2.1c0,1-0.2,1.8-0.7,2.4c-0.5,0.6-1.1,0.9-1.9,0.9C129.6,138.5,128.9,138.1,128.5,137.3z
				 M128.5,135.1v0.7c0,0.6,0.2,1.1,0.6,1.5c0.4,0.4,0.9,0.6,1.5,0.6c0.6,0,1.1-0.3,1.5-0.8s0.6-1.2,0.6-2c0-0.7-0.2-1.3-0.5-1.7
				c-0.3-0.4-0.8-0.6-1.4-0.6c-0.7,0-1.2,0.2-1.6,0.7C128.7,134,128.5,134.5,128.5,135.1z"/>
			<path fill="#515150" d="M138,138.3v-1.2h0c-0.2,0.4-0.5,0.7-0.8,1c-0.4,0.2-0.8,0.4-1.2,0.4c-0.6,0-1-0.2-1.3-0.5
				c-0.3-0.3-0.5-0.7-0.5-1.2c0-1,0.7-1.6,2-1.8l1.8-0.3c0-1.3-0.5-1.9-1.4-1.9c-0.6,0-1.3,0.3-1.9,0.8V133c0.2-0.2,0.5-0.3,0.9-0.4
				c0.4-0.1,0.7-0.2,1-0.2c0.6,0,1.1,0.2,1.4,0.6c0.3,0.4,0.5,0.9,0.5,1.6v3.8H138z M136.4,135.4c-0.6,0.1-1,0.2-1.3,0.4
				c-0.2,0.2-0.4,0.5-0.4,1c0,0.3,0.1,0.6,0.3,0.9c0.2,0.2,0.6,0.3,1,0.3c0.6,0,1-0.2,1.4-0.6c0.4-0.4,0.6-1,0.6-1.6v-0.6
				L136.4,135.4z"/>
			<path fill="#515150" d="M140,138.1v-0.6c0.2,0.2,0.4,0.3,0.7,0.4c0.3,0.1,0.5,0.1,0.7,0.1c0.9,0,1.4-0.4,1.4-1.1
				c0-0.3-0.1-0.5-0.3-0.7c-0.2-0.2-0.5-0.4-1-0.6c-0.6-0.2-1-0.5-1.2-0.8s-0.3-0.6-0.3-1c0-0.5,0.2-0.9,0.5-1.2
				c0.4-0.3,0.8-0.4,1.3-0.4c0.5,0,0.9,0.1,1.3,0.3v0.6c-0.4-0.3-0.9-0.4-1.3-0.4c-0.4,0-0.7,0.1-0.9,0.3c-0.2,0.2-0.4,0.5-0.4,0.8
				c0,0.3,0.1,0.5,0.2,0.7c0.1,0.2,0.5,0.4,1,0.6c0.6,0.3,1,0.5,1.3,0.8c0.2,0.2,0.3,0.5,0.3,0.9c0,0.5-0.2,0.8-0.5,1.2
				c-0.3,0.3-0.8,0.5-1.4,0.5C140.8,138.5,140.4,138.4,140,138.1z"/>
			<path fill="#515150" d="M144.5,138.1v-0.6c0.2,0.2,0.4,0.3,0.7,0.4c0.3,0.1,0.5,0.1,0.7,0.1c0.9,0,1.4-0.4,1.4-1.1
				c0-0.3-0.1-0.5-0.3-0.7c-0.2-0.2-0.5-0.4-1-0.6c-0.6-0.2-1-0.5-1.2-0.8s-0.3-0.6-0.3-1c0-0.5,0.2-0.9,0.5-1.2
				c0.4-0.3,0.8-0.4,1.3-0.4c0.5,0,0.9,0.1,1.3,0.3v0.6c-0.4-0.3-0.9-0.4-1.3-0.4c-0.4,0-0.7,0.1-0.9,0.3c-0.2,0.2-0.4,0.5-0.4,0.8
				c0,0.3,0.1,0.5,0.2,0.7c0.1,0.2,0.5,0.4,1,0.6c0.6,0.3,1,0.5,1.3,0.8c0.2,0.2,0.3,0.5,0.3,0.9c0,0.5-0.2,0.8-0.5,1.2
				c-0.3,0.3-0.8,0.5-1.4,0.5C145.4,138.5,144.9,138.4,144.5,138.1z"/>
			<path fill="#515150" d="M151.4,130v8.4h-0.5v-7.5c-0.3,0.3-0.6,0.5-0.9,0.7s-0.7,0.3-1.1,0.5v-0.5c0.2-0.1,0.5-0.2,0.7-0.3
				c0.2-0.1,0.4-0.2,0.6-0.3s0.4-0.3,0.5-0.4c0.2-0.1,0.4-0.3,0.5-0.5H151.4z"/>
			<path fill="#515150" d="M153.2,138.3V138c0-0.3,0-0.5,0.1-0.7c0-0.2,0.1-0.4,0.2-0.6c0.1-0.2,0.2-0.3,0.3-0.5
				c0.1-0.2,0.3-0.3,0.4-0.5c0.2-0.2,0.4-0.3,0.6-0.5c0.2-0.2,0.5-0.3,0.7-0.5c0.2-0.2,0.5-0.4,0.7-0.5c0.2-0.2,0.4-0.4,0.6-0.6
				c0.2-0.2,0.3-0.4,0.4-0.7c0.1-0.2,0.1-0.5,0.1-0.8c0-0.5-0.1-1-0.4-1.3s-0.7-0.4-1.3-0.4c-0.4,0-0.7,0.1-1.1,0.2
				c-0.3,0.2-0.7,0.4-1,0.7v-0.6c0.3-0.2,0.6-0.4,1-0.6c0.4-0.1,0.7-0.2,1.1-0.2c0.3,0,0.6,0,0.9,0.1c0.3,0.1,0.5,0.2,0.7,0.4
				s0.3,0.4,0.4,0.7c0.1,0.3,0.2,0.5,0.2,0.9c0,0.4-0.1,0.7-0.2,1s-0.3,0.6-0.4,0.8c-0.2,0.2-0.4,0.5-0.7,0.7
				c-0.2,0.2-0.5,0.4-0.8,0.6c-0.4,0.3-0.7,0.5-0.9,0.7c-0.3,0.2-0.5,0.4-0.6,0.6c-0.2,0.2-0.3,0.4-0.3,0.6
				c-0.1,0.2-0.1,0.4-0.1,0.7v0.1h4.1v0.5H153.2z"/>
			<path fill="#515150" d="M159.3,138.1v-0.6c0.6,0.4,1.2,0.6,1.8,0.6c0.7,0,1.2-0.2,1.5-0.5s0.6-0.8,0.6-1.3c0-0.6-0.2-1.1-0.6-1.4
				c-0.4-0.3-1-0.5-1.8-0.5h-0.6v-0.5h0.6c0.7,0,1.3-0.2,1.7-0.5c0.4-0.3,0.6-0.7,0.6-1.3c0-0.5-0.1-0.9-0.4-1.2
				c-0.3-0.3-0.7-0.4-1.2-0.4c-0.5,0-1.1,0.2-1.6,0.5v-0.6c0.6-0.3,1.2-0.5,1.7-0.5c0.6,0,1.2,0.2,1.5,0.5c0.4,0.4,0.6,0.8,0.6,1.4
				c0,1.1-0.5,1.8-1.6,2.1v0c0.6,0.1,1,0.3,1.4,0.6s0.5,0.8,0.5,1.4c0,0.7-0.2,1.3-0.7,1.7s-1.1,0.7-1.9,0.7
				C160.4,138.5,159.8,138.3,159.3,138.1z"/>
			<path fill="#515150" d="M170.5,138.3h-0.5l-1.3-4.4c0-0.1-0.1-0.3-0.1-0.5h0c0,0.1,0,0.2-0.1,0.5l-1.4,4.4h-0.5l-1.8-5.8h0.6
				l1.4,4.7c0,0.1,0.1,0.3,0.1,0.5h0c0-0.1,0-0.3,0.1-0.5l1.5-4.7h0.4l1.3,4.7c0,0.1,0.1,0.3,0.1,0.5h0c0-0.1,0-0.3,0.1-0.5l1.4-4.7
				h0.5L170.5,138.3z"/>
			<path fill="#515150" d="M175.8,138.5c-0.9,0-1.5-0.3-2-0.8s-0.7-1.3-0.7-2.2c0-1,0.3-1.7,0.8-2.3c0.5-0.5,1.2-0.8,2.1-0.8
				c0.8,0,1.5,0.3,2,0.8c0.5,0.5,0.7,1.3,0.7,2.3c0,0.9-0.2,1.6-0.7,2.2C177.4,138.2,176.7,138.5,175.8,138.5z M175.9,132.8
				c-0.7,0-1.2,0.2-1.6,0.7c-0.4,0.5-0.6,1.1-0.6,1.9c0,0.8,0.2,1.4,0.6,1.8c0.4,0.5,0.9,0.7,1.6,0.7c0.7,0,1.2-0.2,1.6-0.7
				c0.4-0.5,0.6-1.1,0.6-1.9c0-0.8-0.2-1.5-0.6-1.9S176.6,132.8,175.9,132.8z"/>
			<path fill="#515150" d="M182.8,133c-0.2-0.1-0.4-0.2-0.6-0.2c-0.5,0-0.8,0.2-1.2,0.7c-0.3,0.5-0.5,1.2-0.5,2v2.7h-0.5v-5.8h0.5
				v1.3h0c0.1-0.4,0.3-0.8,0.6-1s0.6-0.4,1-0.4c0.2,0,0.4,0,0.6,0.1V133z"/>
			<path fill="#515150" d="M187.8,138.3v-1.1h0c-0.2,0.4-0.5,0.7-0.8,0.9s-0.8,0.3-1.3,0.3c-0.7,0-1.3-0.3-1.8-0.8
				c-0.5-0.5-0.7-1.3-0.7-2.2c0-0.9,0.2-1.7,0.7-2.3s1.1-0.9,1.9-0.9c0.9,0,1.5,0.4,1.9,1.1h0v-3.7h0.5v8.7H187.8z M187.8,134.8
				c0-0.5-0.2-1-0.5-1.4c-0.3-0.4-0.8-0.6-1.4-0.6c-0.6,0-1.1,0.2-1.5,0.7c-0.4,0.5-0.6,1.1-0.6,1.9c0,0.8,0.2,1.4,0.5,1.9
				c0.4,0.4,0.8,0.7,1.4,0.7c0.7,0,1.2-0.2,1.5-0.6c0.4-0.4,0.5-0.9,0.5-1.5V134.8z"/>
		</g>
		<g>
			<path fill="#515150" d="M159.5,66v-5.8c0-0.1,0-0.5,0.1-1.2h0c-0.1,0.3-0.2,0.5-0.3,0.7l-2.9,6.3h-0.2l-2.9-6.3
				c-0.1-0.2-0.2-0.5-0.3-0.8h0c0,0.4,0,0.7,0,1.1V66h-0.6v-8.2h0.5l3.1,6.6c0,0,0,0.1,0.1,0.2c0,0.1,0,0.1,0.1,0.2
				c0,0.1,0.1,0.2,0.1,0.3h0l0.1-0.2c0,0,0.1-0.2,0.2-0.5l3-6.5h0.5V66H159.5z"/>
			<path fill="#515150" d="M163.4,67.1c-0.2,0.5-0.4,0.9-0.7,1.2c-0.3,0.3-0.6,0.4-1,0.4c-0.2,0-0.3,0-0.5-0.1v-0.5
				c0.1,0.1,0.3,0.1,0.5,0.1c0.5,0,0.8-0.3,1.1-1l0.5-1.3l-2.2-5.8h0.6l1.8,4.8c0,0.1,0.1,0.2,0.1,0.2c0,0.1,0,0.1,0.1,0.2h0
				l0.1-0.4l1.9-4.8h0.6L163.4,67.1z"/>
			<path fill="#515150" d="M168,62.7V66h-0.6v-8.2h2c0.8,0,1.5,0.2,1.9,0.6s0.7,1,0.7,1.7c0,0.8-0.2,1.4-0.7,1.9
				c-0.5,0.5-1.2,0.7-2.1,0.7H168z M168,58.3v3.9h1.2c0.7,0,1.3-0.2,1.7-0.5c0.4-0.4,0.6-0.8,0.6-1.5c0-1.2-0.7-1.8-2.1-1.8H168z"/>
			<path fill="#515150" d="M176.6,66v-1.2h0c-0.2,0.4-0.5,0.7-0.8,1s-0.8,0.4-1.2,0.4c-0.6,0-1-0.2-1.3-0.5
				c-0.3-0.3-0.5-0.7-0.5-1.2c0-1,0.7-1.6,2-1.8l1.8-0.3c0-1.3-0.5-1.9-1.4-1.9c-0.6,0-1.3,0.3-1.9,0.8v-0.6
				c0.2-0.2,0.5-0.3,0.9-0.4c0.4-0.1,0.7-0.2,1-0.2c0.6,0,1.1,0.2,1.4,0.6c0.3,0.4,0.5,0.9,0.5,1.6V66H176.6z M175,63
				c-0.6,0.1-1,0.2-1.3,0.4c-0.2,0.2-0.4,0.5-0.4,1c0,0.3,0.1,0.6,0.3,0.9c0.2,0.2,0.6,0.3,1,0.3c0.6,0,1-0.2,1.4-0.6
				c0.4-0.4,0.6-1,0.6-1.6v-0.6L175,63z"/>
			<path fill="#515150" d="M178.6,65.7v-0.6c0.2,0.2,0.4,0.3,0.7,0.4c0.3,0.1,0.5,0.1,0.7,0.1c0.9,0,1.4-0.4,1.4-1.1
				c0-0.3-0.1-0.5-0.3-0.7c-0.2-0.2-0.5-0.4-1-0.6c-0.6-0.2-1-0.5-1.2-0.8s-0.3-0.6-0.3-1c0-0.5,0.2-0.9,0.5-1.2
				c0.4-0.3,0.8-0.4,1.3-0.4c0.5,0,0.9,0.1,1.3,0.3v0.6c-0.4-0.3-0.9-0.4-1.3-0.4c-0.4,0-0.7,0.1-0.9,0.3s-0.4,0.5-0.4,0.8
				c0,0.3,0.1,0.5,0.2,0.7c0.1,0.2,0.5,0.4,1,0.6c0.6,0.3,1,0.5,1.3,0.8c0.2,0.2,0.3,0.5,0.3,0.9c0,0.5-0.2,0.8-0.5,1.2
				c-0.3,0.3-0.8,0.5-1.4,0.5C179.4,66.1,178.9,66,178.6,65.7z"/>
			<path fill="#515150" d="M183.1,65.7v-0.6c0.2,0.2,0.4,0.3,0.7,0.4c0.3,0.1,0.5,0.1,0.7,0.1c0.9,0,1.4-0.4,1.4-1.1
				c0-0.3-0.1-0.5-0.3-0.7c-0.2-0.2-0.5-0.4-1-0.6c-0.6-0.2-1-0.5-1.2-0.8s-0.3-0.6-0.3-1c0-0.5,0.2-0.9,0.5-1.2
				c0.4-0.3,0.8-0.4,1.3-0.4c0.5,0,0.9,0.1,1.3,0.3v0.6c-0.4-0.3-0.9-0.4-1.3-0.4c-0.4,0-0.7,0.1-0.9,0.3s-0.4,0.5-0.4,0.8
				c0,0.3,0.1,0.5,0.2,0.7c0.1,0.2,0.5,0.4,1,0.6c0.6,0.3,1,0.5,1.3,0.8c0.2,0.2,0.3,0.5,0.3,0.9c0,0.5-0.2,0.8-0.5,1.2
				c-0.3,0.3-0.8,0.5-1.4,0.5C183.9,66.1,183.5,66,183.1,65.7z"/>
			<path fill="#515150" d="M192.9,66h-0.5l-1.3-4.4c0-0.1-0.1-0.3-0.1-0.5h0c0,0.1,0,0.2-0.1,0.5l-1.4,4.4H189l-1.8-5.8h0.6l1.4,4.7
				c0,0.1,0.1,0.3,0.1,0.5h0c0-0.1,0-0.3,0.1-0.5l1.5-4.7h0.4l1.3,4.7c0,0.1,0.1,0.3,0.1,0.5h0c0-0.1,0-0.3,0.1-0.5l1.4-4.7h0.5
				L192.9,66z"/>
			<path fill="#515150" d="M197.9,66.1c-0.8,0-1.3-0.3-1.8-1c-0.4-0.7-0.6-1.7-0.6-3c0-1.5,0.2-2.6,0.7-3.3s1.1-1.1,1.9-1.1
				c1.6,0,2.4,1.4,2.4,4.2c0,1.4-0.2,2.5-0.7,3.2S198.7,66.1,197.9,66.1z M198,58.1c-0.6,0-1.1,0.3-1.5,1c-0.4,0.6-0.5,1.6-0.5,2.9
				c0,1.2,0.2,2.1,0.5,2.7s0.8,0.9,1.4,0.9c0.6,0,1.1-0.3,1.4-1c0.3-0.6,0.5-1.6,0.5-2.7C199.8,59.4,199.2,58.1,198,58.1z"/>
			<path fill="#515150" d="M204.6,60.7c-0.2-0.1-0.4-0.2-0.6-0.2c-0.5,0-0.8,0.2-1.2,0.7c-0.3,0.5-0.5,1.2-0.5,2V66h-0.5v-5.8h0.5
				v1.3h0c0.1-0.4,0.3-0.8,0.6-1c0.3-0.2,0.6-0.4,1-0.4c0.2,0,0.4,0,0.6,0.1V60.7z"/>
			<path fill="#515150" d="M209.7,66v-1.1h0c-0.2,0.4-0.5,0.7-0.8,0.9s-0.8,0.3-1.3,0.3c-0.7,0-1.3-0.3-1.8-0.8
				c-0.5-0.5-0.7-1.3-0.7-2.2c0-0.9,0.2-1.7,0.7-2.3c0.5-0.6,1.1-0.9,1.9-0.9c0.9,0,1.5,0.4,1.9,1.1h0v-3.7h0.5V66H209.7z
				 M209.7,62.4c0-0.5-0.2-1-0.5-1.4c-0.3-0.4-0.8-0.6-1.4-0.6c-0.6,0-1.1,0.2-1.5,0.7c-0.4,0.5-0.6,1.1-0.6,1.9
				c0,0.8,0.2,1.4,0.5,1.9c0.4,0.4,0.8,0.7,1.4,0.7c0.7,0,1.2-0.2,1.5-0.6c0.4-0.4,0.5-0.9,0.5-1.5V62.4z"/>
		</g>
		<g>
			<path fill="#515150" d="M24.8,4.6c1.9-2,4.6-3.2,7.6-3.2c3.9,0,7.4,2.2,9.2,5.5c1.6-0.7,3.4-1.1,5.2-1.1c7.1,0,12.9,5.8,12.9,13
				c0,7.2-5.8,13-12.9,13c-0.9,0-1.7-0.1-2.5-0.3c-1.6,2.9-4.7,4.8-8.2,4.8c-1.5,0-2.9-0.3-4.1-0.9c-1.6,3.8-5.4,6.5-9.9,6.5
				c-4.6,0-8.6-2.9-10.1-7c-0.7,0.1-1.3,0.2-2,0.2c-5.5,0-10-4.5-10-10.1c0-3.7,2-7,5-8.7c-0.6-1.4-1-3-1-4.6C4,5.2,9.2,0,15.6,0
				C19.4,0,22.7,1.8,24.8,4.6"/>
			<path fill="#FFFFFF" d="M8.6,21.7c0,0.1,0,0.1,0,0.1C8.8,21.9,8.9,21.9,9,22c0.6,0.3,1.2,0.4,1.8,0.4c1.2,0,2-0.7,2-1.7v0
				c0-1-0.9-1.3-1.7-1.6l-0.1,0c-0.6-0.2-1.1-0.4-1.1-0.8v0c0-0.3,0.3-0.6,0.8-0.6c0.5,0,1.2,0.2,1.6,0.4c0,0,0.1,0.1,0.2,0
				c0-0.1,0.2-0.6,0.2-0.7c0-0.1,0-0.1-0.1-0.1c-0.5-0.3-1.1-0.5-1.8-0.5l-0.1,0c-1.1,0-1.9,0.7-1.9,1.6v0c0,1,0.9,1.4,1.7,1.6
				l0.1,0c0.6,0.2,1.1,0.3,1.1,0.8v0c0,0.4-0.3,0.7-0.9,0.7c-0.2,0-0.9,0-1.6-0.5C9.2,21,9.1,21,9,20.9c0,0-0.1-0.1-0.2,0.1
				L8.6,21.7z"/>
			<path fill="#FFFFFF" d="M26.6,21.7c0,0.1,0,0.1,0,0.1c0.1,0.1,0.2,0.1,0.3,0.2c0.6,0.3,1.2,0.4,1.8,0.4c1.2,0,2-0.7,2-1.7v0
				c0-1-0.9-1.3-1.7-1.6l-0.1,0c-0.6-0.2-1.1-0.4-1.1-0.8v0c0-0.3,0.3-0.6,0.8-0.6c0.5,0,1.2,0.2,1.6,0.4c0,0,0.1,0.1,0.2,0
				c0-0.1,0.2-0.6,0.2-0.7c0-0.1,0-0.1-0.1-0.1c-0.5-0.3-1.1-0.5-1.8-0.5l-0.1,0c-1.1,0-1.9,0.7-1.9,1.6v0c0,1,0.9,1.4,1.7,1.6
				l0.1,0c0.6,0.2,1.1,0.3,1.1,0.8v0c0,0.4-0.3,0.7-0.9,0.7c-0.2,0-0.9,0-1.6-0.5C27.1,21,27,21,27,20.9c0,0-0.1-0.1-0.2,0.1
				L26.6,21.7z"/>
			<path fill="#FFFFFF" d="M39.8,18.5c-0.1-0.3-0.3-0.6-0.5-0.9c-0.2-0.2-0.5-0.5-0.8-0.6c-0.3-0.1-0.7-0.2-1.1-0.2
				c-0.4,0-0.8,0.1-1.1,0.2s-0.6,0.3-0.8,0.6c-0.2,0.2-0.4,0.5-0.5,0.9C35,18.8,35,19.2,35,19.6c0,0.4,0.1,0.8,0.2,1.1
				c0.1,0.3,0.3,0.6,0.5,0.9c0.2,0.2,0.5,0.4,0.8,0.6c0.3,0.1,0.7,0.2,1.1,0.2c0.4,0,0.8-0.1,1.1-0.2c0.3-0.1,0.6-0.3,0.8-0.6
				c0.2-0.2,0.4-0.5,0.5-0.9c0.1-0.3,0.2-0.7,0.2-1.1C40,19.2,39.9,18.8,39.8,18.5 M38.8,19.6c0,0.6-0.1,1.1-0.3,1.4
				c-0.2,0.3-0.5,0.5-1,0.5c-0.5,0-0.8-0.2-1-0.5c-0.2-0.3-0.3-0.8-0.3-1.4c0-0.6,0.1-1.1,0.3-1.4c0.2-0.3,0.5-0.5,1-0.5
				c0.5,0,0.8,0.2,1,0.5C38.7,18.5,38.8,19,38.8,19.6"/>
			<path fill-rule="evenodd" clip-rule="evenodd" fill="#FFFFFF" d="M48.2,21.3c0-0.1-0.1-0.1-0.1-0.1c-0.1,0.1-0.3,0.1-0.5,0.1
				c-0.2,0-0.4,0-0.6,0c-0.5,0-0.9-0.1-1.2-0.4c-0.3-0.3-0.4-0.8-0.4-1.4c0-0.6,0.1-1,0.4-1.3c0.2-0.3,0.6-0.5,1.1-0.5
				c0.4,0,0.7,0,1.1,0.2c0,0,0.1,0,0.1-0.1c0.1-0.2,0.2-0.4,0.3-0.7c0-0.1,0-0.1-0.1-0.1c-0.1-0.1-0.4-0.1-0.7-0.2
				c-0.2,0-0.5-0.1-0.8-0.1c-0.4,0-0.8,0.1-1.1,0.2c-0.3,0.1-0.6,0.3-0.8,0.6c-0.2,0.2-0.4,0.5-0.5,0.9c-0.1,0.3-0.2,0.7-0.2,1.1
				c0,0.8,0.2,1.5,0.7,2c0.5,0.5,1.1,0.8,2,0.8c0.5,0,1.1-0.1,1.4-0.3c0,0,0.1,0,0-0.1L48.2,21.3z"/>
			<path fill-rule="evenodd" clip-rule="evenodd" fill="#FFFFFF" d="M53.4,18.3c-0.1-0.3-0.3-0.7-0.4-0.8c-0.2-0.2-0.4-0.4-0.7-0.5
				c-0.3-0.1-0.6-0.2-1-0.2c-0.4,0-0.8,0.1-1.1,0.2c-0.3,0.1-0.6,0.4-0.8,0.6c-0.2,0.3-0.4,0.6-0.5,0.9c-0.1,0.3-0.2,0.7-0.2,1.1
				c0,0.4,0.1,0.8,0.2,1.1c0.1,0.3,0.3,0.6,0.5,0.9c0.2,0.2,0.5,0.4,0.9,0.6c0.3,0.1,0.8,0.2,1.3,0.2c1,0,1.5-0.2,1.7-0.3
				c0,0,0.1-0.1,0-0.2l-0.2-0.6c0-0.1-0.1-0.1-0.1-0.1c-0.2,0.1-0.6,0.3-1.4,0.3c-0.5,0-0.9-0.2-1.2-0.4c-0.3-0.3-0.4-0.6-0.4-1.1
				l3.5,0c0,0,0.1,0,0.1-0.1C53.5,19.8,53.6,19.1,53.4,18.3 M50,19c0-0.3,0.1-0.6,0.3-0.8c0.2-0.3,0.5-0.5,1-0.5
				c0.5,0,0.8,0.2,1,0.5c0.1,0.2,0.2,0.5,0.2,0.8L50,19z"/>
			<path fill-rule="evenodd" clip-rule="evenodd" fill="#FFFFFF" d="M25.7,18.3c-0.1-0.3-0.3-0.7-0.4-0.8c-0.2-0.2-0.4-0.4-0.7-0.5
				c-0.3-0.1-0.6-0.2-1-0.2c-0.4,0-0.8,0.1-1.1,0.2c-0.3,0.1-0.6,0.4-0.8,0.6c-0.2,0.3-0.4,0.6-0.5,0.9c-0.1,0.3-0.2,0.7-0.2,1.1
				c0,0.4,0.1,0.8,0.2,1.1c0.1,0.3,0.3,0.6,0.5,0.9c0.2,0.2,0.5,0.4,0.9,0.6c0.3,0.1,0.8,0.2,1.3,0.2c1,0,1.5-0.2,1.7-0.3
				c0,0,0.1-0.1,0-0.2l-0.2-0.6c0-0.1-0.1-0.1-0.1-0.1c-0.2,0.1-0.6,0.3-1.4,0.3c-0.5,0-0.9-0.2-1.2-0.4c-0.3-0.3-0.4-0.6-0.4-1.1
				l3.5,0c0,0,0.1,0,0.1-0.1C25.8,19.8,25.9,19.1,25.7,18.3 M22.3,19c0-0.3,0.1-0.6,0.3-0.8c0.2-0.3,0.5-0.5,1-0.5
				c0.5,0,0.8,0.2,1,0.5c0.1,0.2,0.2,0.5,0.2,0.8L22.3,19z"/>
			<path fill="#FFFFFF" d="M16.2,18.9c-0.1,0-0.3,0-0.5,0c-0.3,0-0.6,0-0.9,0.1c-0.3,0.1-0.5,0.2-0.7,0.3c-0.2,0.2-0.4,0.3-0.5,0.6
				c-0.1,0.2-0.2,0.5-0.2,0.8c0,0.3,0.1,0.6,0.2,0.8c0.1,0.2,0.3,0.4,0.5,0.5c0.2,0.1,0.4,0.2,0.7,0.3c0.3,0.1,0.6,0.1,0.9,0.1
				c0.4,0,0.7,0,1.1-0.1c0.3-0.1,0.8-0.1,0.9-0.2c0.1,0,0.2-0.1,0.2-0.1c0.1,0,0.1-0.1,0.1-0.1l0-3.2c0-0.7-0.2-1.2-0.5-1.5
				c-0.4-0.3-0.9-0.5-1.6-0.5c-0.3,0-0.7,0-0.9,0.1c0,0-0.8,0.1-1.1,0.4c0,0-0.1,0,0,0.1l0.2,0.7c0,0.1,0.1,0.1,0.1,0.1s0,0,0.1,0
				c0.7-0.4,1.5-0.4,1.5-0.4c0.4,0,0.7,0.1,0.9,0.2c0.2,0.1,0.3,0.4,0.3,0.8v0.1C16.5,18.9,16.2,18.9,16.2,18.9 M14.8,21.3
				c-0.1-0.1-0.2-0.1-0.2-0.2c-0.1-0.1-0.1-0.3-0.1-0.4c0-0.3,0.1-0.5,0.3-0.7c0,0,0.3-0.3,1-0.2c0.5,0,0.9,0.1,0.9,0.1v1.6
				c0,0-0.4,0.1-0.9,0.1C15.1,21.5,14.8,21.3,14.8,21.3"/>
			<path fill-rule="evenodd" clip-rule="evenodd" fill="#FFFFFF" d="M44.1,17.1c0-0.1,0-0.1-0.1-0.1c-0.1,0-0.4-0.1-0.6-0.1
				c-0.4,0-0.7,0-0.9,0.1c-0.2,0.1-0.5,0.3-0.6,0.4l0-0.4c0-0.1,0-0.1-0.1-0.1H41c-0.1,0-0.1,0-0.1,0.1v5.2c0,0.1,0,0.1,0.1,0.1h0.9
				c0.1,0,0.1,0,0.1-0.1v-2.6c0-0.3,0-0.7,0.1-0.9c0.1-0.2,0.2-0.4,0.3-0.5c0.1-0.1,0.3-0.2,0.4-0.3c0.2,0,0.3-0.1,0.5-0.1
				c0.2,0,0.4,0,0.4,0c0.1,0,0.1,0,0.1-0.1C43.9,17.7,44,17.2,44.1,17.1"/>
			<path fill-rule="evenodd" clip-rule="evenodd" fill="#FFFFFF" d="M35.6,14.7c-0.1,0-0.2-0.1-0.3-0.1c-0.1,0-0.3,0-0.5,0
				c-0.6,0-1.1,0.2-1.5,0.5c-0.3,0.3-0.6,0.9-0.7,1.6l0,0.2h-0.8c0,0-0.1,0-0.1,0.1l-0.1,0.7c0,0.1,0,0.1,0.1,0.1h0.8l-0.8,4.3
				c-0.1,0.3-0.1,0.6-0.2,0.9c-0.1,0.2-0.1,0.4-0.2,0.5c-0.1,0.1-0.2,0.2-0.3,0.2c-0.1,0-0.3,0.1-0.4,0.1c-0.1,0-0.2,0-0.3,0
				c-0.1,0-0.1,0-0.2-0.1c0,0-0.1,0-0.1,0.1c0,0.1-0.2,0.6-0.3,0.7c0,0.1,0,0.1,0.1,0.1c0.1,0,0.2,0.1,0.3,0.1c0.2,0,0.4,0,0.5,0
				c0.3,0,0.6,0,0.8-0.1c0.2-0.1,0.5-0.2,0.6-0.4c0.2-0.2,0.3-0.5,0.4-0.8c0.1-0.3,0.2-0.7,0.3-1.2l0.8-4.4h1.1c0,0,0.1,0,0.1-0.1
				l0.1-0.7c0-0.1,0-0.1-0.1-0.1h-1.1c0,0,0.1-0.4,0.2-0.8c0.1-0.2,0.2-0.3,0.2-0.4c0.1-0.1,0.2-0.1,0.3-0.2c0.1,0,0.2-0.1,0.4-0.1
				c0.1,0,0.2,0,0.3,0c0.1,0,0.1,0,0.2,0c0.1,0,0.1,0,0.1-0.1l0.3-0.7C35.6,14.7,35.6,14.7,35.6,14.7"/>
			<path fill-rule="evenodd" clip-rule="evenodd" fill="#FFFFFF" d="M20.1,22.2c0,0.1,0,0.1-0.1,0.1h-0.9c-0.1,0-0.1,0-0.1-0.1v-7.4
				c0-0.1,0-0.1,0.1-0.1l0.9,0c0.1,0,0.1,0,0.1,0.1L20.1,22.2z"/>
		</g>
		<g id="fb_14_">
			<g>
				<g>
					<path fill="#515150" d="M170.7,91.1h-6.4c-0.8,0-1.7,1-1.7,2.5v4.1h8.1v7.9h-7.9l0,19.3l-8.1,0v-19.5h-6.4v-7.9h6.4v-4
						c0-5.8,4.3-10.4,9.6-10.4h6.4V91.1z"/>
				</g>
			</g>
		</g>
	</g>
</g>
<g id="Layer_2">
</g>
<g id="Layer_3">
</g>
<g id="Layer_4">
</g>
</svg>
