<?xml version="1.0" encoding="utf-8"?>
<!-- Generator: Adobe Illustrator 19.2.1, SVG Export Plug-In . SVG Version: 6.00 Build 0)  -->
<svg version="1.1" xmlns="http://www.w3.org/2000/svg" xmlns:xlink="http://www.w3.org/1999/xlink" x="0px" y="0px"
	 viewBox="0 0 125 79" enable-background="new 0 0 125 79" xml:space="preserve">
<g id="Layer_1">
</g>
<g id="Layer_2">
</g>
<g id="Layer_3">
</g>
<g id="Layer_4">
	<g>
		<g>
			<path fill="#F58B21" d="M119.5,51.3c-0.1-0.2-0.2-0.5-0.2-0.9c-0.1-0.4-0.1-0.7-0.1-1.1c0-0.4,0.1-0.8,0.2-1.1s0.3-0.7,0.5-1
				c0.2-0.3,0.4-0.6,0.7-0.9c0.3-0.3,0.6-0.6,0.9-0.9c0.3-0.3,0.6-0.5,0.8-0.8c0.3-0.3,0.5-0.6,0.7-0.9c0.2-0.3,0.4-0.7,0.5-1
				c0.1-0.4,0.2-0.8,0.2-1.3c0-0.5-0.1-0.9-0.2-1.3c-0.2-0.4-0.4-0.7-0.7-1c-0.3-0.3-0.6-0.5-1.1-0.6s-0.9-0.2-1.4-0.2
				c-0.8,0-1.6,0.1-2.3,0.4c-0.7,0.3-1.4,0.7-2,1.2v-1.4c0.6-0.5,1.3-0.8,2-1.1c0.7-0.2,1.5-0.3,2.3-0.3c0.7,0,1.3,0.1,1.8,0.3
				c0.6,0.2,1.1,0.5,1.5,0.8s0.7,0.8,1,1.3c0.2,0.5,0.4,1.1,0.4,1.8c0,0.5-0.1,1-0.2,1.4c-0.1,0.4-0.3,0.8-0.6,1.2
				c-0.2,0.4-0.5,0.7-0.8,1c-0.3,0.3-0.6,0.6-0.9,0.9c-0.5,0.4-0.9,0.8-1.2,1.1c-0.3,0.3-0.5,0.6-0.7,0.8c-0.2,0.2-0.3,0.5-0.4,0.7
				c-0.1,0.2-0.1,0.5-0.1,0.8c0,0.4,0,0.8,0.1,1.1c0.1,0.3,0.1,0.6,0.2,0.8H119.5z M119.9,56.9c-0.3,0-0.6-0.1-0.8-0.3
				c-0.2-0.2-0.3-0.5-0.3-0.8c0-0.3,0.1-0.6,0.3-0.8c0.2-0.2,0.5-0.3,0.8-0.3c0.3,0,0.6,0.1,0.8,0.3s0.3,0.5,0.3,0.8
				c0,0.3-0.1,0.6-0.3,0.8C120.5,56.8,120.2,56.9,119.9,56.9z"/>
		</g>
		<g>
			<path fill="#F58B21" d="M30.9,56c-0.1-0.2-0.2-0.5-0.2-0.9c-0.1-0.4-0.1-0.7-0.1-1.1c0-0.4,0.1-0.8,0.2-1.1s0.3-0.7,0.5-1
				c0.2-0.3,0.4-0.6,0.7-0.9c0.3-0.3,0.6-0.6,0.9-0.9c0.3-0.3,0.6-0.5,0.8-0.8c0.3-0.3,0.5-0.6,0.7-0.9c0.2-0.3,0.4-0.7,0.5-1
				c0.1-0.4,0.2-0.8,0.2-1.3c0-0.5-0.1-0.9-0.2-1.3c-0.2-0.4-0.4-0.7-0.7-1c-0.3-0.3-0.6-0.5-1.1-0.6S32.3,43,31.8,43
				c-0.8,0-1.6,0.1-2.3,0.4c-0.7,0.3-1.4,0.7-2,1.2v-1.4c0.6-0.5,1.3-0.8,2-1.1c0.7-0.2,1.5-0.3,2.3-0.3c0.7,0,1.3,0.1,1.8,0.3
				c0.6,0.2,1.1,0.5,1.5,0.8s0.7,0.8,1,1.3c0.2,0.5,0.4,1.1,0.4,1.8c0,0.5-0.1,1-0.2,1.4c-0.1,0.4-0.3,0.8-0.6,1.2
				c-0.2,0.4-0.5,0.7-0.8,1c-0.3,0.3-0.6,0.6-0.9,0.9c-0.5,0.4-0.9,0.8-1.2,1.1c-0.3,0.3-0.5,0.6-0.7,0.8c-0.2,0.2-0.3,0.5-0.4,0.7
				c-0.1,0.2-0.1,0.5-0.1,0.8c0,0.4,0,0.8,0.1,1.1c0.1,0.3,0.1,0.6,0.2,0.8H30.9z M31.4,61.5c-0.3,0-0.6-0.1-0.8-0.3
				c-0.2-0.2-0.3-0.5-0.3-0.8c0-0.3,0.1-0.6,0.3-0.8c0.2-0.2,0.5-0.3,0.8-0.3c0.3,0,0.6,0.1,0.8,0.3s0.3,0.5,0.3,0.8
				c0,0.3-0.1,0.6-0.3,0.8C32,61.4,31.7,61.5,31.4,61.5z"/>
		</g>
		<g>
			<path fill="#F58B21" d="M79.4,72.7c-0.1-0.2-0.2-0.5-0.2-0.9c-0.1-0.4-0.1-0.7-0.1-1.1c0-0.4,0.1-0.8,0.2-1.1s0.3-0.7,0.5-1
				c0.2-0.3,0.4-0.6,0.7-0.9c0.3-0.3,0.6-0.6,0.9-0.9c0.3-0.3,0.6-0.5,0.8-0.8c0.3-0.3,0.5-0.6,0.7-0.9c0.2-0.3,0.4-0.7,0.5-1
				c0.1-0.4,0.2-0.8,0.2-1.3c0-0.5-0.1-0.9-0.2-1.3c-0.2-0.4-0.4-0.7-0.7-1c-0.3-0.3-0.6-0.5-1.1-0.6s-0.9-0.2-1.4-0.2
				c-0.8,0-1.6,0.1-2.3,0.4c-0.7,0.3-1.4,0.7-2,1.2V60c0.6-0.5,1.3-0.8,2-1.1c0.7-0.2,1.5-0.3,2.3-0.3c0.7,0,1.3,0.1,1.8,0.3
				c0.6,0.2,1.1,0.5,1.5,0.8s0.7,0.8,1,1.3c0.2,0.5,0.4,1.1,0.4,1.8c0,0.5-0.1,1-0.2,1.4c-0.1,0.4-0.3,0.8-0.6,1.2
				c-0.2,0.4-0.5,0.7-0.8,1c-0.3,0.3-0.6,0.6-0.9,0.9c-0.5,0.4-0.9,0.8-1.2,1.1c-0.3,0.3-0.5,0.6-0.7,0.8c-0.2,0.2-0.3,0.5-0.4,0.7
				c-0.1,0.2-0.1,0.5-0.1,0.8c0,0.4,0,0.8,0.1,1.1c0.1,0.3,0.1,0.6,0.2,0.8H79.4z M79.8,78.3c-0.3,0-0.6-0.1-0.8-0.3
				c-0.2-0.2-0.3-0.5-0.3-0.8c0-0.3,0.1-0.6,0.3-0.8c0.2-0.2,0.5-0.3,0.8-0.3c0.3,0,0.6,0.1,0.8,0.3s0.3,0.5,0.3,0.8
				c0,0.3-0.1,0.6-0.3,0.8C80.4,78.2,80.2,78.3,79.8,78.3z"/>
		</g>
		<g>
			<path fill="#F58B21" d="M84.3,14.9c-0.1-0.2-0.2-0.5-0.2-0.9c-0.1-0.4-0.1-0.7-0.1-1.1c0-0.4,0.1-0.8,0.2-1.1s0.3-0.7,0.5-1
				c0.2-0.3,0.4-0.6,0.7-0.9c0.3-0.3,0.6-0.6,0.9-0.9c0.3-0.3,0.6-0.5,0.8-0.8c0.3-0.3,0.5-0.6,0.7-0.9c0.2-0.3,0.4-0.7,0.5-1
				c0.1-0.4,0.2-0.8,0.2-1.3c0-0.5-0.1-0.9-0.2-1.3c-0.2-0.4-0.4-0.7-0.7-1c-0.3-0.3-0.6-0.5-1.1-0.6s-0.9-0.2-1.4-0.2
				c-0.8,0-1.6,0.1-2.3,0.4c-0.7,0.3-1.4,0.7-2,1.2V2.1c0.6-0.5,1.3-0.8,2-1.1c0.7-0.2,1.5-0.3,2.3-0.3c0.7,0,1.3,0.1,1.8,0.3
				c0.6,0.2,1.1,0.5,1.5,0.8s0.7,0.8,1,1.3c0.2,0.5,0.4,1.1,0.4,1.8c0,0.5-0.1,1-0.2,1.4c-0.1,0.4-0.3,0.8-0.6,1.2
				c-0.2,0.4-0.5,0.7-0.8,1c-0.3,0.3-0.6,0.6-0.9,0.9c-0.5,0.4-0.9,0.8-1.2,1.1c-0.3,0.3-0.5,0.6-0.7,0.8c-0.2,0.2-0.3,0.5-0.4,0.7
				c-0.1,0.2-0.1,0.5-0.1,0.8c0,0.4,0,0.8,0.1,1.1c0.1,0.3,0.1,0.6,0.2,0.8H84.3z M84.7,20.4c-0.3,0-0.6-0.1-0.8-0.3
				c-0.2-0.2-0.3-0.5-0.3-0.8c0-0.3,0.1-0.6,0.3-0.8c0.2-0.2,0.5-0.3,0.8-0.3c0.3,0,0.6,0.1,0.8,0.3s0.3,0.5,0.3,0.8
				c0,0.3-0.1,0.6-0.3,0.8C85.3,20.3,85.1,20.4,84.7,20.4z"/>
		</g>
		<g>
			<path fill="#F58B21" d="M42.3,18c-0.1-0.2-0.2-0.5-0.2-0.9c-0.1-0.4-0.1-0.7-0.1-1.1c0-0.4,0.1-0.8,0.2-1.1s0.3-0.7,0.5-1
				c0.2-0.3,0.4-0.6,0.7-0.9c0.3-0.3,0.6-0.6,0.9-0.9c0.3-0.3,0.6-0.5,0.8-0.8c0.3-0.3,0.5-0.6,0.7-0.9c0.2-0.3,0.4-0.7,0.5-1
				c0.1-0.4,0.2-0.8,0.2-1.3c0-0.5-0.1-0.9-0.2-1.3c-0.2-0.4-0.4-0.7-0.7-1c-0.3-0.3-0.6-0.5-1.1-0.6s-0.9-0.2-1.4-0.2
				c-0.8,0-1.6,0.1-2.3,0.4c-0.7,0.3-1.4,0.7-2,1.2V5.3c0.6-0.5,1.3-0.8,2-1.1c0.7-0.2,1.5-0.3,2.3-0.3c0.7,0,1.3,0.1,1.8,0.3
				C45.5,4.3,46,4.6,46.4,5s0.7,0.8,1,1.3c0.2,0.5,0.4,1.1,0.4,1.8c0,0.5-0.1,1-0.2,1.4c-0.1,0.4-0.3,0.8-0.6,1.2
				c-0.2,0.4-0.5,0.7-0.8,1c-0.3,0.3-0.6,0.6-0.9,0.9c-0.5,0.4-0.9,0.8-1.2,1.1c-0.3,0.3-0.5,0.6-0.7,0.8c-0.2,0.2-0.3,0.5-0.4,0.7
				c-0.1,0.2-0.1,0.5-0.1,0.8c0,0.4,0,0.8,0.1,1.1c0.1,0.3,0.1,0.6,0.2,0.8H42.3z M42.7,23.6c-0.3,0-0.6-0.1-0.8-0.3
				c-0.2-0.2-0.3-0.5-0.3-0.8c0-0.3,0.1-0.6,0.3-0.8c0.2-0.2,0.5-0.3,0.8-0.3c0.3,0,0.6,0.1,0.8,0.3s0.3,0.5,0.3,0.8
				c0,0.3-0.1,0.6-0.3,0.8C43.3,23.5,43,23.6,42.7,23.6z"/>
		</g>
		<g>
			<path fill="#F58B21" d="M3.5,38.1c-0.1-0.2-0.2-0.5-0.2-0.9c-0.1-0.4-0.1-0.7-0.1-1.1c0-0.4,0.1-0.8,0.2-1.1s0.3-0.7,0.5-1
				c0.2-0.3,0.4-0.6,0.7-0.9c0.3-0.3,0.6-0.6,0.9-0.9C5.7,32,6,31.8,6.3,31.5c0.3-0.3,0.5-0.6,0.7-0.9c0.2-0.3,0.4-0.7,0.5-1
				c0.1-0.4,0.2-0.8,0.2-1.3c0-0.5-0.1-0.9-0.2-1.3c-0.2-0.4-0.4-0.7-0.7-1c-0.3-0.3-0.6-0.5-1.1-0.6s-0.9-0.2-1.4-0.2
				c-0.8,0-1.6,0.1-2.3,0.4c-0.7,0.3-1.4,0.7-2,1.2v-1.4c0.6-0.5,1.3-0.8,2-1.1C2.7,24.1,3.5,24,4.3,24C5,24,5.6,24,6.2,24.2
				c0.6,0.2,1.1,0.5,1.5,0.8s0.7,0.8,1,1.3C8.9,26.9,9,27.5,9,28.2c0,0.5-0.1,1-0.2,1.4c-0.1,0.4-0.3,0.8-0.6,1.2
				c-0.2,0.4-0.5,0.7-0.8,1c-0.3,0.3-0.6,0.6-0.9,0.9c-0.5,0.4-0.9,0.8-1.2,1.1c-0.3,0.3-0.5,0.6-0.7,0.8c-0.2,0.2-0.3,0.5-0.4,0.7
				c-0.1,0.2-0.1,0.5-0.1,0.8c0,0.4,0,0.8,0.1,1.1c0.1,0.3,0.1,0.6,0.2,0.8H3.5z M3.9,43.7c-0.3,0-0.6-0.1-0.8-0.3
				c-0.2-0.2-0.3-0.5-0.3-0.8c0-0.3,0.1-0.6,0.3-0.8c0.2-0.2,0.5-0.3,0.8-0.3c0.3,0,0.6,0.1,0.8,0.3S5,42.3,5,42.6
				c0,0.3-0.1,0.6-0.3,0.8C4.5,43.6,4.2,43.7,3.9,43.7z"/>
		</g>
		<g id="outlook_18_">
			<path fill="#515050" d="M114.2,15.8c0-0.6-0.6-0.7-1.1-0.7c-2.3,0-4.7,0-7,0c0-1.5,0-3,0-4.5v-0.3c-3.5,0.6-8.3,1.5-11.7,2.1
				c0,5.3,0,10.5,0,15.8c3.5,0.6,8.3,1.4,11.7,2v-0.2c0-1.4,0-2.9,0-4.3c2.5,0,5,0,7.4,0c0.7,0,0.7-0.8,0.7-1.3
				C114.2,21.6,114.3,18.7,114.2,15.8z M101.7,23.4c-1.4,1.2-3.6,0.5-4.2-1.2c-0.8-1.9-0.4-4.8,1.8-5.6c1.3-0.5,2.8,0.2,3.3,1.4
				C103.3,19.8,103.2,22.1,101.7,23.4z M113.6,25.1c-2.5,0-5,0-7.4,0c0-2,0-3.9,0-5.9c0.8,0.7,1.6,1.6,2.5,2.3
				c0.4,0.1,0.6-0.2,0.9-0.5c1.4-1.3,2.7-2.6,4.1-3.9C113.6,19.8,113.6,22.4,113.6,25.1z M113.2,16.6c-1.5,1.4-3,2.8-4.5,4.2
				c-0.9-0.8-1.8-1.6-2.6-2.5c0-0.8,0-1.6,0-2.5c2.5,0,5,0,7.5,0C113.6,16.1,113.5,16.4,113.2,16.6z"/>
			<path fill="#515050" d="M99.5,18c0.6-0.3,1.4,0,1.6,0.6c0.5,0.9,0.5,2,0.2,2.9c-0.2,0.7-0.9,1.2-1.6,1c-0.9-0.3-1.2-1.3-1.2-2.1
				C98.4,19.5,98.6,18.4,99.5,18z"/>
		</g>
		<path fill="#515050" d="M62.9,53.4c-0.7,0.3-1.5,0.5-2.3,0.6c0.8-0.5,1.5-1.3,1.8-2.3c-0.8,0.5-1.7,0.8-2.6,1
			c-0.7-0.8-1.8-1.3-3-1.3c-2.3,0-4.1,1.8-4.1,4.1c0,0.3,0,0.6,0.1,0.9c-3.4-0.2-6.4-1.8-8.4-4.3c-0.4,0.6-0.6,1.3-0.6,2.1
			c0,1.4,0.7,2.7,1.8,3.4c-0.7,0-1.3-0.2-1.8-0.5c0,0,0,0,0,0.1c0,2,1.4,3.6,3.3,4c-0.3,0.1-0.7,0.1-1.1,0.1c-0.3,0-0.5,0-0.8-0.1
			c0.5,1.6,2,2.8,3.8,2.8c-1.4,1.1-3.2,1.7-5.1,1.7c-0.3,0-0.7,0-1-0.1c1.8,1.2,3.9,1.8,6.3,1.8c7.5,0,11.6-6.2,11.6-11.6
			c0-0.2,0-0.4,0-0.5C61.7,54.9,62.4,54.2,62.9,53.4z"/>
		<g>
			<path fill="#515050" d="M60.6,22.5c0.9-1,2.2-1.5,3.6-1.5c1.9,0,3.5,1,4.4,2.6c0.8-0.3,1.6-0.5,2.5-0.5c3.4,0,6.1,2.8,6.1,6.2
				c0,3.4-2.7,6.2-6.1,6.2c-0.4,0-0.8,0-1.2-0.1c-0.8,1.4-2.2,2.3-3.9,2.3c-0.7,0-1.4-0.2-2-0.5c-0.8,1.8-2.6,3.1-4.7,3.1
				c-2.2,0-4.1-1.4-4.8-3.3c-0.3,0.1-0.6,0.1-1,0.1c-2.6,0-4.7-2.1-4.7-4.8c0-1.8,1-3.3,2.4-4.1c-0.3-0.7-0.5-1.4-0.5-2.2
				c0-3,2.5-5.5,5.5-5.5C58,20.3,59.5,21.2,60.6,22.5"/>
			<path fill="#FFFFFF" d="M52.8,30.6C52.8,30.7,52.9,30.7,52.8,30.6c0.1,0.1,0.1,0.1,0.2,0.2c0.3,0.2,0.6,0.2,0.8,0.2
				c0.6,0,0.9-0.3,0.9-0.8v0c0-0.5-0.4-0.6-0.8-0.7l-0.1,0c-0.3-0.1-0.5-0.2-0.5-0.4v0c0-0.2,0.1-0.3,0.4-0.3c0.3,0,0.5,0.1,0.7,0.2
				c0,0,0.1,0,0.1,0c0,0,0.1-0.3,0.1-0.3c0,0,0-0.1,0-0.1c-0.2-0.1-0.5-0.2-0.8-0.2l-0.1,0c-0.5,0-0.9,0.3-0.9,0.8v0
				c0,0.5,0.4,0.6,0.8,0.8l0.1,0c0.3,0.1,0.5,0.2,0.5,0.4v0c0,0.2-0.2,0.3-0.4,0.3c-0.1,0-0.4,0-0.8-0.2c0,0-0.1,0-0.1-0.1
				c0,0-0.1,0-0.1,0L52.8,30.6z"/>
			<path fill="#FFFFFF" d="M61.4,30.6C61.4,30.7,61.4,30.7,61.4,30.6c0.1,0.1,0.1,0.1,0.2,0.2c0.3,0.2,0.6,0.2,0.8,0.2
				c0.6,0,0.9-0.3,0.9-0.8v0c0-0.5-0.4-0.6-0.8-0.7l-0.1,0C62.2,29.3,62,29.2,62,29v0c0-0.2,0.1-0.3,0.4-0.3c0.3,0,0.5,0.1,0.7,0.2
				c0,0,0.1,0,0.1,0c0,0,0.1-0.3,0.1-0.3c0,0,0-0.1,0-0.1c-0.2-0.1-0.5-0.2-0.8-0.2l-0.1,0c-0.5,0-0.9,0.3-0.9,0.8v0
				c0,0.5,0.4,0.6,0.8,0.8l0.1,0c0.3,0.1,0.5,0.2,0.5,0.4v0c0,0.2-0.2,0.3-0.4,0.3c-0.1,0-0.4,0-0.8-0.2c0,0-0.1,0-0.1-0.1
				c0,0-0.1,0-0.1,0L61.4,30.6z"/>
			<path fill="#FFFFFF" d="M67.7,29.1c0-0.2-0.1-0.3-0.2-0.4c-0.1-0.1-0.2-0.2-0.4-0.3c-0.1-0.1-0.3-0.1-0.5-0.1
				c-0.2,0-0.4,0-0.5,0.1c-0.1,0.1-0.3,0.2-0.4,0.3c-0.1,0.1-0.2,0.3-0.2,0.4c0,0.2-0.1,0.3-0.1,0.5c0,0.2,0,0.4,0.1,0.5
				c0,0.2,0.1,0.3,0.2,0.4c0.1,0.1,0.2,0.2,0.4,0.3c0.1,0.1,0.3,0.1,0.5,0.1c0.2,0,0.4,0,0.5-0.1c0.1-0.1,0.3-0.2,0.4-0.3
				c0.1-0.1,0.2-0.3,0.2-0.4c0-0.2,0.1-0.3,0.1-0.5C67.8,29.5,67.7,29.3,67.7,29.1 M67.2,29.7c0,0.3-0.1,0.5-0.2,0.7
				c-0.1,0.2-0.3,0.2-0.5,0.2c-0.2,0-0.4-0.1-0.5-0.2c-0.1-0.2-0.2-0.4-0.2-0.7c0-0.3,0.1-0.5,0.2-0.7c0.1-0.2,0.3-0.2,0.5-0.2
				c0.2,0,0.4,0.1,0.5,0.2C67.1,29.1,67.2,29.4,67.2,29.7"/>
			<path fill-rule="evenodd" clip-rule="evenodd" fill="#FFFFFF" d="M71.7,30.5C71.7,30.4,71.6,30.4,71.7,30.5c-0.1,0-0.2,0-0.3,0
				c-0.1,0-0.2,0-0.3,0c-0.2,0-0.4-0.1-0.6-0.2c-0.1-0.1-0.2-0.4-0.2-0.7c0-0.3,0.1-0.5,0.2-0.6c0.1-0.2,0.3-0.2,0.5-0.2
				c0.2,0,0.4,0,0.5,0.1c0,0,0,0,0.1,0c0-0.1,0.1-0.2,0.1-0.3c0,0,0-0.1,0-0.1c-0.1,0-0.2-0.1-0.3-0.1c-0.1,0-0.2,0-0.4,0
				c-0.2,0-0.4,0-0.5,0.1c-0.2,0.1-0.3,0.2-0.4,0.3c-0.1,0.1-0.2,0.3-0.2,0.4c-0.1,0.2-0.1,0.3-0.1,0.5c0,0.4,0.1,0.7,0.3,1
				c0.2,0.2,0.5,0.4,1,0.4c0.2,0,0.5-0.1,0.7-0.1c0,0,0,0,0-0.1L71.7,30.5z"/>
			<path fill-rule="evenodd" clip-rule="evenodd" fill="#FFFFFF" d="M74.2,29c0-0.2-0.1-0.3-0.2-0.4c-0.1-0.1-0.2-0.2-0.3-0.2
				c-0.1-0.1-0.3-0.1-0.5-0.1c-0.2,0-0.4,0-0.5,0.1c-0.2,0.1-0.3,0.2-0.4,0.3c-0.1,0.1-0.2,0.3-0.2,0.4c0,0.2-0.1,0.3-0.1,0.5
				c0,0.2,0,0.4,0.1,0.5c0.1,0.2,0.1,0.3,0.2,0.4c0.1,0.1,0.2,0.2,0.4,0.3c0.2,0.1,0.4,0.1,0.6,0.1c0.5,0,0.7-0.1,0.8-0.2
				c0,0,0,0,0-0.1L74,30.4c0,0-0.1,0-0.1,0c-0.1,0-0.3,0.1-0.7,0.1c-0.3,0-0.4-0.1-0.6-0.2c-0.1-0.1-0.2-0.3-0.2-0.5l1.6,0
				c0,0,0,0,0,0C74.2,29.7,74.3,29.4,74.2,29 M72.5,29.4c0-0.2,0.1-0.3,0.1-0.4c0.1-0.2,0.3-0.2,0.5-0.2s0.4,0.1,0.5,0.2
				c0.1,0.1,0.1,0.2,0.1,0.4L72.5,29.4z"/>
			<path fill-rule="evenodd" clip-rule="evenodd" fill="#FFFFFF" d="M61,29c0-0.2-0.1-0.3-0.2-0.4c-0.1-0.1-0.2-0.2-0.3-0.2
				c-0.1-0.1-0.3-0.1-0.5-0.1c-0.2,0-0.4,0-0.5,0.1c-0.2,0.1-0.3,0.2-0.4,0.3c-0.1,0.1-0.2,0.3-0.2,0.4c0,0.2-0.1,0.3-0.1,0.5
				c0,0.2,0,0.4,0.1,0.5c0.1,0.2,0.1,0.3,0.2,0.4c0.1,0.1,0.2,0.2,0.4,0.3c0.2,0.1,0.4,0.1,0.6,0.1c0.5,0,0.7-0.1,0.8-0.2
				c0,0,0,0,0-0.1l-0.1-0.3c0,0-0.1,0-0.1,0c-0.1,0-0.3,0.1-0.7,0.1c-0.3,0-0.4-0.1-0.6-0.2c-0.1-0.1-0.2-0.3-0.2-0.5l1.6,0
				c0,0,0,0,0,0C61,29.7,61.1,29.4,61,29 M59.3,29.4c0-0.2,0.1-0.3,0.1-0.4c0.1-0.2,0.3-0.2,0.5-0.2c0.2,0,0.4,0.1,0.5,0.2
				c0.1,0.1,0.1,0.2,0.1,0.4L59.3,29.4z"/>
			<path fill="#FFFFFF" d="M56.4,29.3c-0.1,0-0.2,0-0.3,0c-0.1,0-0.3,0-0.4,0.1c-0.1,0-0.2,0.1-0.3,0.2c-0.1,0.1-0.2,0.2-0.2,0.3
				c-0.1,0.1-0.1,0.2-0.1,0.4c0,0.1,0,0.3,0.1,0.4c0.1,0.1,0.1,0.2,0.2,0.3c0.1,0.1,0.2,0.1,0.3,0.1c0.1,0,0.3,0,0.4,0
				c0.2,0,0.3,0,0.5,0c0.2,0,0.4-0.1,0.4-0.1c0.1,0,0.1,0,0.1,0c0,0,0-0.1,0-0.1l0-1.5c0-0.3-0.1-0.6-0.3-0.7
				c-0.2-0.2-0.4-0.2-0.8-0.2c-0.1,0-0.3,0-0.4,0c0,0-0.4,0.1-0.5,0.2c0,0,0,0,0,0.1l0.1,0.3c0,0,0.1,0,0.1,0s0,0,0,0
				c0.3-0.2,0.7-0.2,0.7-0.2c0.2,0,0.3,0,0.4,0.1c0.1,0.1,0.1,0.2,0.1,0.4v0.1C56.6,29.3,56.4,29.3,56.4,29.3 M55.8,30.5
				C55.7,30.4,55.7,30.4,55.8,30.5c-0.1-0.1-0.1-0.2-0.1-0.3c0-0.1,0-0.2,0.1-0.3c0,0,0.1-0.1,0.5-0.1c0.2,0,0.4,0,0.4,0v0.7
				c0,0-0.2,0-0.4,0.1C55.9,30.6,55.8,30.5,55.8,30.5"/>
			<path fill-rule="evenodd" clip-rule="evenodd" fill="#FFFFFF" d="M69.7,28.5C69.7,28.4,69.7,28.4,69.7,28.5
				c-0.1-0.1-0.2-0.1-0.3-0.1c-0.2,0-0.3,0-0.4,0.1c-0.1,0-0.2,0.1-0.3,0.2l0-0.2c0,0,0,0,0,0h-0.4c0,0,0,0,0,0v2.5c0,0,0,0,0.1,0
				h0.4c0,0,0,0,0,0v-1.2c0-0.2,0-0.3,0.1-0.4c0-0.1,0.1-0.2,0.1-0.2c0.1-0.1,0.1-0.1,0.2-0.1c0.1,0,0.2,0,0.2,0c0.1,0,0.2,0,0.2,0
				c0,0,0,0,0.1,0C69.6,28.7,69.7,28.5,69.7,28.5"/>
			<path fill-rule="evenodd" clip-rule="evenodd" fill="#FFFFFF" d="M65.7,27.3c-0.1,0-0.1,0-0.2,0c-0.1,0-0.1,0-0.2,0
				c-0.3,0-0.5,0.1-0.7,0.3c-0.2,0.2-0.3,0.4-0.3,0.7l0,0.1h-0.4c0,0,0,0-0.1,0l-0.1,0.3c0,0,0,0.1,0.1,0.1h0.4l-0.4,2.1
				c0,0.2-0.1,0.3-0.1,0.4c0,0.1-0.1,0.2-0.1,0.2c0,0.1-0.1,0.1-0.2,0.1c-0.1,0-0.1,0-0.2,0c0,0-0.1,0-0.1,0c0,0-0.1,0-0.1,0
				c0,0,0,0-0.1,0c0,0-0.1,0.3-0.1,0.3c0,0,0,0.1,0,0.1c0,0,0.1,0,0.2,0c0.1,0,0.2,0,0.2,0c0.2,0,0.3,0,0.4-0.1
				c0.1,0,0.2-0.1,0.3-0.2c0.1-0.1,0.2-0.2,0.2-0.4c0.1-0.1,0.1-0.3,0.1-0.6l0.4-2.1l0.5,0c0,0,0,0,0.1,0l0.1-0.3c0,0,0-0.1-0.1-0.1
				l-0.5,0c0,0,0-0.2,0.1-0.4c0-0.1,0.1-0.1,0.1-0.2c0,0,0.1-0.1,0.1-0.1c0.1,0,0.1,0,0.2,0c0,0,0.1,0,0.1,0c0.1,0,0.1,0,0.1,0
				c0.1,0,0.1,0,0.1,0L65.7,27.3C65.7,27.3,65.7,27.3,65.7,27.3"/>
			<path fill-rule="evenodd" clip-rule="evenodd" fill="#FFFFFF" d="M58.3,30.9C58.3,30.9,58.3,30.9,58.3,30.9l-0.5,0.1
				c0,0,0,0,0-0.1l0-3.5c0,0,0,0,0,0l0.4,0c0,0,0,0,0,0L58.3,30.9z"/>
		</g>
		<g id="fb_20_">
			<g>
				<g>
					<path fill="#515050" d="M105.1,49.7l-3.1,0c-0.4,0-0.8,0.5-0.8,1.2v2l3.8,0v3.8l-3.8,0l0,9.2l-3.8,0l0-9.3l-3.1,0l0-3.8l3.1,0
						l0-1.9c0-2.7,2-4.9,4.6-4.9l3.1,0L105.1,49.7z"/>
				</g>
			</g>
		</g>
		<g>
			<path fill="#4F504F" d="M16.1,18.2h10.5c1,0,1.8,0.7,1.8,1.8v10.5c0,1.1-0.8,1.8-1.8,1.8H16.1c-1,0-1.8-0.7-1.8-1.8V20.1
				C14.3,19,15.1,18.2,16.1,18.2L16.1,18.2z M24.6,19.8c-0.3,0-0.6,0.3-0.6,0.6V22c0,0.3,0.3,0.6,0.6,0.6h1.6c0.3,0,0.6-0.3,0.6-0.6
				v-1.5c0-0.3-0.3-0.6-0.6-0.6H24.6L24.6,19.8z M26.8,24.2h-1.2c0.1,0.4,0.2,0.8,0.2,1.2c0,2.3-2,4.2-4.4,4.2
				c-2.4,0-4.4-1.9-4.4-4.2c0-0.4,0.1-0.8,0.2-1.2h-1.3v6c0,0.3,0.3,0.6,0.6,0.6h9.8c0.3,0,0.6-0.3,0.6-0.6L26.8,24.2L26.8,24.2z
				 M21.4,22.5c-1.6,0-2.8,1.2-2.8,2.7s1.3,2.7,2.8,2.7c1.6,0,2.8-1.2,2.8-2.7S22.9,22.5,21.4,22.5z"/>
		</g>
	</g>
</g>
</svg>
