<?xml version="1.0" encoding="utf-8"?>
<!-- Generator: Adobe Illustrator 19.2.1, SVG Export Plug-In . SVG Version: 6.00 Build 0)  -->
<svg version="1.1" xmlns="http://www.w3.org/2000/svg" xmlns:xlink="http://www.w3.org/1999/xlink" x="0px" y="0px"
	 viewBox="0 0 152.4 233" enable-background="new 0 0 152.4 233" xml:space="preserve">
<g id="Layer_1">
</g>
<g id="Layer_2">
</g>
<g id="Layer_3">
	<g>
		<path fill="#FDB813" d="M105.5,30.6l5.4-0.2l1.1,4.7l13.1,1.8l-5.9,42.5l-15-2.1l5-35.7C109.5,38.6,109.6,32.5,105.5,30.6"/>
		<polygon fill="#FDB813" points="96.4,26.6 92.7,40.7 100.5,40.5 		"/>
		<path fill="#FDB813" d="M127.6,16.1l2.3,13l-2.2,4.2c0,1.1,0.2-2.7,0-1.6l-5.2,8.6c-1.1,3.5-2.5,6.3-4.2,8.8
			c-3.5,4-9.9,7.6-21.5,6.6L95.7,17L127.6,16.1z"/>
		<path fill="#F68C1F" d="M135.3,18c-0.8-6.2-3-12.8-7.7-16.3c-1.4,3.3-4.8,7.1-4.4,9.4c0,0.2-7,6.2-0.8,18.3c0,0-4.6-0.1,0.2,8.7
			C122.6,38.2,137.2,35.9,135.3,18"/>
		<path fill="#F68C1F" d="M96.4,16.8L91.6,14c4.9-8.9,14-5.8,14-5.8L100.9,2c11.1-3.3,17.9,6.2,17.9,6.2L115.4,0
			c15.6,1.3,18.3,15.5,18.3,15.5l0.4,12.4l-6.4,5.3l-8.3-3.6l0.2,2.3l-3.5-0.5c-9.1-2.6-11.2-8.1-11.2-8.1l1.1,4.4
			c-5.9-1.7-8.2-4.2-8.9-6.3l-3.3,1.7C92.8,19.5,95.1,17.6,96.4,16.8"/>
		<path fill="#FDB813" d="M118.5,26.9c3.6-0.1,6.5,2.7,6.6,6.3c0.1,3.6-2.7,6.5-6.3,6.6L118.5,26.9z"/>
		<path fill="#F68C1F" d="M118.9,30.2c1.7,0,3.1,1.4,3.1,3.1c0,1.7-1.4,3.1-3.1,3.1L118.9,30.2z"/>
		<g opacity="0.15">
			<rect x="70.6" y="101.1" transform="matrix(0.8734 -0.487 0.487 0.8734 -42.1428 50.9148)" width="12.5" height="10.9"/>
		</g>
		<rect x="79.1" y="57.6" fill="#B8D433" width="67.2" height="98.2"/>
		<polygon opacity="0.1" points="79.1,144.2 79.1,118.9 146.2,65.7 146.2,144.2 		"/>
		<polygon fill="#2F2F2F" points="78.8,229.2 91.3,216.7 107.8,216.7 107.8,233 78.8,233 		"/>
		<polygon fill="#17244E" points="70.3,216.7 70.3,147 53.9,147 53.9,216.7 70.3,216.7 		"/>
		<polygon fill="#17244E" points="107.8,216.7 107.8,144.1 91.5,144.1 91.5,216.7 107.8,216.7 		"/>
		<polygon fill="#17244E" points="53.9,160.6 125.1,160.6 125.1,144.2 53.9,144.2 53.9,160.6 		"/>
		<path fill="#FDB813" d="M69.2,117.1c-0.1,0-0.1,0.1-0.2,0.1c-2.6,1.5-6,0.7-7.5-1.9c-1.5-2.6-0.6-5.9,2-7.5c0.1,0,0.1-0.1,0.2-0.1
			l0,0l4.9-2.9l5.5,9.4L69.2,117.1L69.2,117.1z"/>
		<path fill="#FAB223" d="M2.1,87.6c-0.1,0-0.1-0.1-0.2-0.1c-2.2-1.9-2.5-5.2-0.7-7.4c1.9-2.2,5.2-2.5,7.4-0.6
			c0.1,0,0.1,0.1,0.1,0.2l0,0l4.2,3.5l-6.8,8L2.1,87.6L2.1,87.6z"/>
		<path fill="#B8D433" d="M13,95.7c-2.9-1.6-6-3.7-7.2-4.8l3.8-4.1l3.4-3.6c0.3,0.2,7.1,4.7,17.2,7.7c5.7,1.7,16,2,22.9-0.7
			c9.4-3.6,21.9-11,32.1-21.1l8.9,5.6c-4.2,14.2-26.6,23.2-36.4,26.9c-7.7,2.9-15.9,4.5-27,1.2C20.8,99.9,15.3,96.9,13,95.7z"/>
		<polygon fill="#2F2F2F" points="41.2,229.2 53.8,216.7 70.3,216.7 70.3,233 41.2,233 		"/>
		<g>
			
				<rect x="70.6" y="101.1" transform="matrix(0.8734 -0.487 0.487 0.8734 -42.1428 50.9148)" fill="#B8D433" width="12.5" height="10.9"/>
		</g>
		<rect x="85.8" y="79.2" fill="#1EBBEE" width="66.5" height="91.7"/>
		<rect x="140.7" y="161.6" fill="#1EBBEE" width="11.6" height="71.4"/>
		<rect x="85.8" y="161.6" fill="#1EBBEE" width="11.6" height="71.4"/>
		<rect x="114.5" y="161.6" fill="#1EBBEE" width="11.6" height="71.4"/>
		<rect x="59.6" y="161.6" fill="#1EBBEE" width="11.6" height="71.4"/>
		<rect x="59.6" y="160.2" fill="#1EBBEE" width="45.5" height="10.7"/>
		<rect x="85.8" y="79.2" opacity="0.15" width="5.8" height="153.8"/>
		<rect x="65.4" y="170.9" opacity="0.15" width="5.8" height="62.1"/>
		<polygon opacity="0.1" points="91.7,144.1 152.4,104.7 152.4,170.9 146.6,170.9 146.6,233 140.7,233 140.7,170.9 126.1,170.9 
			126.1,233 120.3,233 120.3,170.9 91.7,170.9 		"/>
		<path fill="none" stroke="#17244E" stroke-width="0.6266" stroke-miterlimit="10" d="M99.9,33.1c0,0,0.4-1.1,2.2-0.7
			c1.8,0.4,1.8,2,1.8,2"/>
	</g>
</g>
<g id="Layer_4">
</g>
</svg>
