<?xml version="1.0" encoding="utf-8"?>
<!-- Generator: Adobe Illustrator 19.2.1, SVG Export Plug-In . SVG Version: 6.00 Build 0)  -->
<svg version="1.1" xmlns="http://www.w3.org/2000/svg" xmlns:xlink="http://www.w3.org/1999/xlink" x="0px" y="0px"
	 viewBox="0 0 744 452" enable-background="new 0 0 744 452" xml:space="preserve">
<g id="Layer_1">
</g>
<g id="Layer_2">
	<g>
		<g>
			<defs>
				<path id="SVGID_9_" d="M334.6,201.1H213.4v-92c0-34.6,27.1-62.6,60.6-62.6c33.5,0,60.6,28,60.6,62.6L334.6,201.1z"/>
			</defs>
			<clipPath id="SVGID_2_">
				<use xlink:href="#SVGID_9_"  overflow="visible"/>
			</clipPath>
			<path clip-path="url(#SVGID_2_)" fill="#17244E" d="M385.3,99.3l-20.2-7.7c7.2,0,13-5.8,13-13c0-7.2-5.8-13-13-13l-38.6-5
				c4.4,0,8-3.6,8-8c0-4.4-3.6-8-8-8l-108.1,0c-4.4,0-8,3.6-8,8c0,4.4,3.6,8,8,8l-34.4,10.4v0c-15.9,0-28.8,12.9-28.8,28.8
				c0,15.9,12.9,28.8,28.8,28.8c0,0,27.9,33.1,22.5,33.1c-11.2,0-20.3,9.1-20.3,20.3c0,11.2,9.1,20.3,20.3,20.3
				c7.9,0,29.7,0.4,29.7,0.4l40.3,0.2c5.8,0,85.3,1.3,85.3,1.3c12.9,0,23.6-24.7,23.6-37.6c0-12.9-10.5-23.4-23.4-23.4h-17.4
				c-2.8,0-5-2.3-5-5s2.3-4.9,5-4.9c0.3,0,40.8,0,40.8,0c9.3,0,16.9-7.6,16.9-16.9C402.2,106.9,394.6,99.3,385.3,99.3z"/>
		</g>
		<circle fill="#1EBBEE" cx="276.5" cy="91.2" r="19.5"/>
		<circle fill="#FFFFFF" cx="261.4" cy="161" r="1.8"/>
		<ellipse fill="#FFFFFF" cx="228.9" cy="180.5" rx="1.8" ry="1.8"/>
		<circle fill="#FFFFFF" cx="282.6" cy="52.2" r="1.8"/>
		<circle fill="#FFFFFF" cx="312.3" cy="77.7" r="3.9"/>
		<circle fill="#FFFFFF" cx="314" cy="140.2" r="1.8"/>
		<circle fill="#FFFFFF" cx="312.3" cy="115.8" r="1.4"/>
		<circle fill="#FFFFFF" cx="319.6" cy="186.7" r="1.8"/>
		<circle fill="#FFFFFF" cx="231.7" cy="75.9" r="2.5"/>
		<ellipse fill="#FFFFFF" cx="234.2" cy="150.4" rx="2.5" ry="2.5"/>
		<circle fill="#FFFFFF" cx="245.8" cy="111.2" r="0.7"/>
		<circle fill="#FFFFFF" cx="294.3" cy="168.3" r="5.8"/>
		<circle fill="#FFFFFF" cx="276.5" cy="91.2" r="15.3"/>
		<path opacity="0.15" d="M276.5,106.5c8.4,0,15.3-6.8,15.3-15.3c0-4.3-1.8-8.2-4.6-10.9l0,0l-21.6,21.6
			C268.3,104.7,272.2,106.5,276.5,106.5z"/>
		<g>
			<rect x="212.7" y="103.9" fill="#672A7A" width="121.8" height="3.4"/>
			<rect x="212.7" y="132.9" fill="#672A7A" width="121.8" height="3.4"/>
			<rect x="212.7" y="162" fill="#672A7A" width="121.8" height="3.4"/>
			<rect x="272.2" y="46" fill="#672A7A" width="3.4" height="156.5"/>
			<path fill="none" stroke="#672A7A" stroke-width="4.1633" stroke-miterlimit="10" d="M334.6,201.1H213.4v-92
				c0-34.6,27.1-62.6,60.6-62.6c33.5,0,60.6,28,60.6,62.6L334.6,201.1z"/>
			<rect x="213.7" y="196.2" fill="#672A7A" width="121.8" height="6.4"/>
		</g>
	</g>
	<g>
		<rect x="192.6" y="264.5" fill="#1EBBEE" width="66.3" height="7.9"/>
		<rect x="230.8" y="264.5" opacity="0.15" width="28.1" height="7.9"/>
	</g>
	<path opacity="0.1" d="M346.3,365.5c-0.5,0-0.9,0.1-1.3,0.1v-0.1l-262.7,0v0.1c-5.3,0.5-9.5,4.2-9.5,8.6c0,4.8,4.8,8.7,10.8,8.7
		c0.8,0,262,0,262.7,0c6,0,10.8-3.9,10.8-8.7C357,369.4,352.2,365.5,346.3,365.5"/>
	<polygon fill="#04AF91" points="120.4,272.4 120.4,285.7 257.4,285.7 257.4,379.3 269,379.3 269,285.7 315.9,285.7 315.9,379.3 
		327.6,379.3 327.6,285.7 327.6,284.6 327.6,272.4 	"/>
	<polygon opacity="0.1" points="263.2,272.4 263.2,284.3 263.2,285.7 263.2,379.3 269,379.3 269,285.7 321.8,285.7 321.8,379.3 
		327.6,379.3 327.6,285.7 327.6,284.3 327.6,272.4 	"/>
	<g>
		<path fill="#1A75BB" d="M165.8,188.2v67.4c0,0,0,4.8,4.8,4.8l85,0c0,0,4.8,0,4.8-4.8v-67.4c0,0,0-4.8-4.8-4.8h-85
			C170.6,183.4,165.8,183.4,165.8,188.2z"/>
		<path fill="#1EBBEE" d="M159.2,188.2v67.4c0,0,0,4.8,4.8,4.8l86.7,0c0,0,4.8,0,4.8-4.8v-67.4c0,0,0-4.8-4.8-4.8h-86.7
			C164.1,183.4,159.2,183.4,159.2,188.2z"/>
		<rect x="164.1" y="188.2" fill="#F58B21" width="86.7" height="57.8"/>
		<path opacity="0.15" d="M164.1,260.6l86.8,0c0,0,4.8,0,4.8-4.5v-4.5l-96.4-53.9v58.4C159.3,256.1,159.3,260.6,164.1,260.6z"/>
	</g>
	<polygon opacity="0.5" fill="#FCB713" points="271.7,226.2 216.7,272.6 291.3,272.6 290,236.6 	"/>
	<rect x="319.4" y="236.9" width="4" height="0.8"/>
	
		<rect x="319.4" y="236.9" opacity="0" fill="none" stroke="#FFFFFF" stroke-width="0.1024" stroke-linecap="round" stroke-linejoin="round" stroke-miterlimit="10" width="4" height="0.8"/>
	<path fill="#969696" d="M295.8,263c-0.5,0.4-1.2,0.4-1.7,0c-0.5-0.5-0.5-1.3,0-1.7l24.6-24.6c0.4-0.5,1.2-0.5,1.7,0
		c0.4,0.5,0.4,1.2,0,1.7L295.8,263z"/>
	<g>
		
			<rect x="289.3" y="214.4" transform="matrix(0.6403 -0.7681 0.7681 0.6403 -59.7765 301.7961)" fill="#4F504F" width="6" height="0.7"/>
		<path fill="#4F504F" d="M289.8,216.4c-0.2,0.2-0.4,0.3-0.7,0.2c-0.2-0.2-0.3-0.4-0.2-0.7l1.6-2.7c0.1-0.2,0.4-0.3,0.6-0.1
			c0.2,0.1,0.3,0.4,0.1,0.6L289.8,216.4z"/>
		<path fill="#4F504F" d="M290.7,220.1l1.7-3.1c0.2-0.5-0.7-1.5-2.2-2.3c-1.5-0.8-2.9-1.1-3.2-0.7l-1.7,3.1c0,0-9.5,1.6-13.7,9.1
			c-0.9,1.7,2.5,5.2,7.6,8c5.1,2.8,9.9,3.8,10.7,2.3l0.1,0.1C294.2,229,290.7,220.1,290.7,220.1"/>
	</g>
	<path fill="#969696" d="M294,213.9c-0.5-0.4-0.5-1.2,0-1.7c0.5-0.4,1.2-0.4,1.7,0l24.6,24.6c0.4,0.5,0.4,1.2,0,1.7
		c-0.5,0.5-1.3,0.5-1.7,0L294,213.9z"/>
	<path fill="#4F504F" d="M305.4,269.3c-2.8-3.2-6.8-5.1-11.4-5.1c-4.5,0-8.5,1.9-11.3,5.1L305.4,269.3z"/>
	<path fill="#4F504F" d="M306.6,271.3c0,0.6-0.5,1.2-1.2,1.2h-22.6c-0.6,0-1.1-0.6-1.1-1.2c0-0.7,0.5-1.2,1.1-1.2l22.6,0
		C306.1,270.1,306.6,270.6,306.6,271.3"/>
	<rect x="281.6" y="271.3" fill="#2F2F2F" width="25" height="1.2"/>
	
		<rect x="281.6" y="271.3" opacity="0" fill="none" stroke="#FFFFFF" stroke-width="0.1024" stroke-linecap="round" stroke-linejoin="round" stroke-miterlimit="10" width="25" height="1.2"/>
	<g>
		<defs>
			<polygon id="SVGID_11_" points="272.1,444 450.4,353.2 313.2,237.8 462.6,163.7 310.4,73.1 476.9,14.8 671.2,-10.9 671.2,464.9 
				233.9,464.9 			"/>
		</defs>
		<clipPath id="SVGID_4_">
			<use xlink:href="#SVGID_11_"  overflow="visible"/>
		</clipPath>
		<g clip-path="url(#SVGID_4_)">
			<path opacity="0.1" d="M653.8,365.5c-0.5,0-0.9,0.1-1.3,0.1v-0.1l-224.7,0c0,0-34.6,17.4-28.7,17.4c0.8,0,254,0,254.7,0
				c6,0,10.8-3.9,10.8-8.7C664.6,369.4,659.8,365.5,653.8,365.5"/>
			<g>
				<path fill="#7D57A3" d="M263.5,370.1l0-96.7c0-21.2,17.3-38.5,38.5-38.5l251.8,0c21.6,0,38.5,17.3,38.5,38.5v96.7L263.5,370.1z"
					/>
				<path fill="#5D2E8F" d="M564.9,272.4h55.8l0,97.6h-28.4h-27.4h-27.4v-69.7C537.5,284.9,549.5,272.4,564.9,272.4"/>
				<path fill="#5D2E8F" d="M290.5,272.4h56.2v97.6l-28.4,0h-27.9h-27.4l0-69.7C263.1,284.9,275.6,272.4,290.5,272.4"/>
				<path fill="#7D57A3" d="M593.3,370.1l0-69.7c0-15.4,12-27.9,27.4-27.9s27.4,12.5,27.4,27.9v69.7H593.3z"/>
				<path fill="#5D2E8F" d="M350.6,370.1v-30.8c0-8.2,6.7-14.9,14.9-14.9h174.9c8.2,0,15.4,6.7,15.4,14.9v30.8L350.6,370.1z"/>
				<path fill="#7D57A3" d="M380.8,370.1v-19.2c0-8.2,6.7-14.9,15.4-14.9l174.9,0c8.2,0,14.9,6.7,14.9,14.9v19.2L380.8,370.1z"/>
				<path fill="#442259" d="M522.4,288.7c1-4.8,6.2-8.7,11.1-8.7h31.2c4.8,0,8.2,3.8,7.2,8.7l-7.2,30.8c-1,4.8-5.8,9.1-11.1,9.1
					h-31.2c-4.8,0-8.2-4.3-6.7-9.1L522.4,288.7z"/>
				<path fill="#442259" d="M406.8,287.8c-1-4.8-5.8-8.7-11.1-8.7h-31.2c-4.8,0-8.2,3.8-6.7,8.7l6.7,30.8c1,4.8,5.8,9.1,11.1,9.1
					h31.2c4.8,0,8.2-4.3,6.7-9.1L406.8,287.8z"/>
				<path fill="#7D57A3" d="M318.8,370.1l0-69.7c0-15.4,12.5-27.9,27.9-27.9c14.9,0,27.4,12.5,27.4,27.9v69.7H318.8z"/>
			</g>
			<g>
				<path d="M603.1,278.5l7.4-3.3c8.8-3.9,12.8-14.2,8.9-23l-1.3-2.9c-3.8-8.6-14.1-12.5-22.9-8.6l-7.4,3.3L603.1,278.5z"/>
				<path fill="#CA942B" d="M574.2,245.2c-1.2,0.5-1.8,2-1.2,3.2l16.9,38c0.5,1.2,1.9,1.5,3.1,1l4.7-2.1c1.2-0.5,1.6-1.6,1.1-2.8
					l-16.9-38c-0.5-1.2-1.7-1.9-2.9-1.3L574.2,245.2z"/>
				<polygon fill="#FCB713" points="550.2,281.2 560.8,285.3 577.8,277.8 571.2,263 554.3,270.6 				"/>
				<path fill="#FCB713" d="M605.1,277.7l-27,12l-0.1-0.2c-5.8-3-10.6-7.9-13.4-14.3c-2.8-6.4-3.5-13.7-1.8-20l27-12L605.1,277.7z"
					/>
				<path fill="#CA942B" d="M577.2,269.2c0.7,1.5,2.1,2,3.3,1.5l-2.1-4.7C577.2,266.6,576.7,268,577.2,269.2"/>
				<path fill="#CA942B" d="M572.4,277.5c-0.7,0.3-1.7,0.2-2-0.6l-3.4-7.6c-0.3-0.7,0.2-1.6,0.9-1.9c0.7-0.3,1.7-0.2,2,0.6l3.4,7.6
					C573.6,276.4,573.1,277.2,572.4,277.5"/>
				<path d="M568.7,279.8c-0.8-1.1-1.7-2.5-2.5-3.6l3.2-1.4l-1.4-3.2l-3.2,1.4c-0.3-1.3-0.7-2.9-1.1-4.5l2-0.9
					c3.2-1.4,4.4,1.3,5.7,4.2c1.4,3.2,2.6,5.9-0.6,7.3C570.7,279.1,568.9,279.7,568.7,279.8 M577.2,269.2c-2.3-5.2-8.6-7.4-13.7-5.1
					l-5.2,2.3l-0.7,0.3c0.4,3.6,1.3,6.8,2.8,10.2c1.4,3.2,3.3,6.2,5.6,8.7l0.7-0.3l5.2-2.3C577,280.7,579.6,274.6,577.2,269.2"/>
			</g>
			
				<polygon opacity="0" fill="none" stroke="#FFFFFF" stroke-width="0.3459" stroke-linecap="round" stroke-linejoin="round" stroke-miterlimit="10" points="
				374.2,303.8 422.2,394.7 572.1,312.5 548.9,282 548.8,248.5 			"/>
			<path fill="#04AF91" d="M561.2,292.6c3.2,4.7,7.4,15.3,10.9,20c-12.2,12-17,11.8-28.6,23.1c-4.5,4.3-12.7,20.1,7.7,36.3
				l-14.9,8.3c-24.7-17.6-19.7-44.4-13.2-52C532,318,547.6,306.2,561.2,292.6"/>
			<polygon fill="#17234E" points="374.1,318.8 374.1,337.1 403.4,343.6 480.1,337.1 451.6,312.2 405.1,323.8 			"/>
			<polygon fill="#17234E" points="374.1,299.5 374.1,316 408.1,320.6 462.5,311.9 471.3,279.4 407.1,297.1 			"/>
			<path fill="#FCB713" d="M549,373.2l4.8,5c2.1,2.7,1.6,6.6-1.2,8.7c-2.7,2.1-6.6,1.6-8.7-1.2l-6.1-6.4L549,373.2z"/>
			<polygon fill="#04AF91" points="558.6,264.1 552.8,280.5 568.5,289.5 572.1,312.5 483.3,335.6 469.1,281.1 548.6,244.9 			"/>
			
				<polygon opacity="0" fill="none" stroke="#FFFFFF" stroke-width="0.3459" stroke-linecap="round" stroke-linejoin="round" stroke-miterlimit="10" points="
				558.6,264.1 552.8,280.5 568.5,289.5 572.1,312.5 483.3,335.6 465.1,285.5 548.6,244.9 			"/>
			<path fill="#17234E" d="M473.1,282.2l6.5,54.5l-26.6-19.3c-2.5-0.7-4.6-3.3-4.9-6c-0.3-2.7,1.1-5.4,3.3-7L473.1,282.2z"/>
			
				<rect x="509.8" y="284" transform="matrix(0.9399 -0.3416 0.3416 0.9399 -66.4391 194.1393)" fill="#FFFFFF" width="16.6" height="3.5"/>
			
				<rect x="514.2" y="296.8" transform="matrix(0.9399 -0.3416 0.3416 0.9399 -70.5446 196.4206)" opacity="0" fill="none" stroke="#FFFFFF" stroke-width="0.3459" stroke-linecap="round" stroke-linejoin="round" stroke-miterlimit="10" width="16.6" height="3.5"/>
			<polygon fill="#FFFFFF" points="524.7,288.2 526.4,292.7 513.4,297.5 514.5,300.7 527.5,296 529.2,300.5 531.8,299.6 
				527.3,287.2 			"/>
			
				<polygon opacity="0" fill="none" stroke="#FFFFFF" stroke-width="0.3459" stroke-linecap="round" stroke-linejoin="round" stroke-miterlimit="10" points="
				521.8,281.3 523.4,285.9 510.4,290.6 511.6,293.8 524.6,289.1 526.3,293.7 528.9,292.7 524.4,280.4 			"/>
			<path fill="#FFFFFF" d="M523.5,273.9l14.3,12.1l-3.3,18.1l-17.2,6.3l-14.3-12.1l3.3-18.1L523.5,273.9z M524.2,270.7l-20.5,7.4
				l-3.7,21.2l16.6,14.2l20.5-7.4l3.7-21.2L524.2,270.7z"/>
			
				<path opacity="0" fill="none" stroke="#FFFFFF" stroke-width="0.3459" stroke-linecap="round" stroke-linejoin="round" stroke-miterlimit="10" d="
				M523.5,273.9l14.3,12.1l-3.3,18.1l-17.2,6.3l-14.3-12.1l3.3-18.1L523.5,273.9z M524.2,270.7l-20.5,7.4l-3.7,21.2l16.6,14.2
				l20.5-7.4l3.7-21.2L524.2,270.7z"/>
			
				<rect x="471.5" y="279.3" transform="matrix(0.9755 -0.2198 0.2198 0.9755 -56.1365 112.0781)" fill="#2F2F2F" width="8.3" height="58.1"/>
			<line fill="none" stroke="#000000" stroke-width="0.8347" stroke-miterlimit="10" x1="579.6" y1="255.5" x2="585.1" y2="258.7"/>
			<line fill="none" stroke="#000000" stroke-width="0.8347" stroke-miterlimit="10" x1="589.4" y1="277.2" x2="589.9" y2="270.8"/>
			<g>
				<circle fill="#E6E7E8" cx="616.4" cy="204.1" r="7"/>
				<circle fill="#E6E7E8" cx="610.3" cy="222" r="4.9"/>
				<circle fill="#E6E7E8" cx="598.8" cy="231.2" r="3.4"/>
			</g>
			<polygon opacity="0.1" points="501,321.2 508.5,285.3 543.7,263.2 483.8,269 496.8,322.5 			"/>
			<g>
				<polygon fill="#E6E7E8" points="671,146.8 667.9,151.6 655.4,154.3 669.8,162.3 649.8,159.7 657.7,167.7 653.8,170.3 
					644.8,167.8 650.3,178.7 645.3,179.5 636.2,173.1 634.7,177.6 636.9,191.2 634.7,197.8 626.5,188.9 619.4,180.2 616.3,183.7 
					617.2,204.4 611.3,198.8 607.4,201.6 601.5,192.5 598.6,202.7 593.2,194.4 588.8,193.1 585.4,202.5 580.6,196.2 576.1,192 
					572.7,208.3 568.3,209.1 563.8,204.2 559.5,201 555.1,189.5 550.9,208.5 546.5,201.2 542.4,194 537.9,196.9 533.1,202.5 
					528.9,200.6 524,203.3 521.5,190.6 518.3,185.2 510.8,200.7 508.6,190.7 505.4,186.1 502.2,182.1 496,188.1 494.1,180.8 
					486.9,188 481.3,190.2 475.5,192.3 471.5,189.8 466.3,189.9 462.6,186.8 460.8,180.9 458.9,175.6 460.7,165.6 454.1,167.4 
					447.5,168.5 446.7,162.9 438.4,164.7 438.3,158.7 439.5,152.2 440.8,146.3 435.2,144.9 430.8,142.4 439.5,134.5 422.7,135.6 
					432,128.9 425.5,125.7 435.2,121.5 421.8,116.2 438.7,115.9 420.3,105.1 430.1,104.4 436,103 441.4,102.1 440.6,96.2 
					433.6,83.2 437.3,79.8 452.4,91 455.9,89 449.6,72.3 464.1,87 458.6,69.3 462.4,66.7 467.6,66.8 469.5,60.3 476.8,65.6 
					479.5,60.6 484,59.7 491,66.2 497.2,71.6 499.2,64 502.4,59.7 506.9,59.5 512.2,63.5 516.2,62 519.6,56.9 523.2,52.3 
					526.2,42.7 530.9,43.9 537.4,61.6 541.4,59.8 544.9,48 549.2,46.6 554.1,62.8 558.2,43.5 562.1,62.5 566,62.7 570.5,57.3 
					576.7,44.3 579.1,56.3 583.1,57.9 587.4,58 590,63.6 600,48.5 604,51.4 599.9,70.9 608.2,63.5 608.5,71.7 609.7,77.2 
					616.9,73.8 616.7,80.8 621.8,80.9 629.4,78.5 628.1,86.1 639.6,80.9 642.4,84.4 635.1,96.1 634.5,101.4 649.5,96 642.2,105.7 
					642,110.5 645.6,113 651.5,114.7 649.8,119.9 659.7,120.7 654.6,126.8 659.4,129.9 668.6,132.6 661.5,138.2 657.9,142.8 				"/>
			</g>
			<path fill="#FCB713" d="M498.4,310.4l2.5,6.8c1.2,3.3-0.4,7.1-3.6,8.3c-3.3,1.2-6.9-0.8-8.1-4.1l-2.5-6.8L498.4,310.4z"/>
			<path fill="#04AF91" d="M494.5,273c19.7-2.4,36.1-9.8,56.7-7.7c-0.6-5.7-2-14.7-2.6-20.4c-23.9-2-42.9,7.1-65.8,11
				c-13.1,2.5-2.5,53.1,3,59.2l14.1-1.5C494.5,297.2,485.2,274.6,494.5,273L494.5,273z"/>
		</g>
	</g>
	<polyline fill="none" stroke="#BBBDBF" stroke-width="15.0251" stroke-linecap="round" stroke-miterlimit="10" points="466.7,18.9 
		310.4,73.1 462.6,163.7 313.2,237.8 450.4,353.2 304.7,426.7 	"/>
</g>
<g id="Layer_3">
</g>
<g id="Layer_4">
</g>
</svg>
