<?xml version="1.0" encoding="utf-8"?>
<!-- Generator: Adobe Illustrator 19.2.1, SVG Export Plug-In . SVG Version: 6.00 Build 0)  -->
<svg version="1.1" xmlns="http://www.w3.org/2000/svg" xmlns:xlink="http://www.w3.org/1999/xlink" x="0px" y="0px"
	 viewBox="0 0 60 32.7" enable-background="new 0 0 60 32.7" xml:space="preserve">
<g id="Layer_1">
</g>
<g id="Layer_2">
	<g>
		<g>
			<path fill="#1EBBEE" d="M5.1,0.7c-0.8-0.2-1.4,0.4-1.6,1L0.4,16.5c-0.2,0.8,0.2,1.6,1,1.7l29,6.1c0.8,0.2,1.6-0.3,1.8-1.2
				l3.1-14.8c0.1-0.6-0.4-1.4-1.2-1.6L5.1,0.7z"/>
			
				<rect x="9.9" y="0.9" transform="matrix(0.2046 -0.9788 0.9788 0.2046 1.9342 27.4047)" fill="#17244E" width="15.9" height="23.2"/>
			
				<rect x="9.9" y="0.9" transform="matrix(0.2046 -0.9788 0.9788 0.2046 1.9342 27.4048)" opacity="0" fill="none" stroke="#FFFFFF" stroke-width="0.1656" stroke-linecap="round" stroke-linejoin="round" stroke-miterlimit="10" width="15.9" height="23.2"/>
			<path d="M32.6,10.5c-0.2,0-0.2,0.1-0.2,0.3l-1.9,9.1c0,0.2-0.1,0.3,0.1,0.4c0.2,0,0.4-0.1,0.4-0.3l1.9-9.1
				C32.9,10.7,32.8,10.6,32.6,10.5"/>
			<path d="M3,15.7c-0.3-0.1-0.6,0.2-0.6,0.4l-0.2,0.8c-0.1,0.3,0.1,0.5,0.4,0.6c0.2,0,0.5-0.1,0.6-0.4l0.2-0.8
				C3.4,16.1,3.1,15.7,3,15.7"/>
			<path d="M5.9,1.9C5.5,1.8,5.3,1.9,5.3,2.3L5.1,3.1c0,0.2,0.1,0.5,0.4,0.6c0.2,0,0.6-0.2,0.6-0.4l0.2-0.8C6.3,2.1,6,1.9,5.9,1.9"
				/>
			<path d="M4.6,7.7C4,7.6,3.4,8,3.3,8.5l-0.4,1.8c-0.1,0.6,0.3,1.1,0.9,1.2c0.5,0.1,1-0.1,1.2-0.8l0.4-1.8C5.5,8.4,5.1,7.8,4.6,7.7
				"/>
			<g>
				<path fill="#FFFFFF" d="M8.8,10.9c0.1-0.3,0.2-0.5,0.4-0.7c0.2-0.2,0.5-0.2,0.8-0.1c0.3,0.1,0.5,0.2,0.7,0.4
					c0.1,0.2,1.2,0.5,1.1,0.8c-0.1,0.3-1.2,0.5-1.4,0.7c-0.2,0.2-0.5,0.2-0.8,0.2C9.3,12.1,9.1,12,9,11.7
					C8.8,11.5,8.8,11.2,8.8,10.9z M13,12.2l-0.8-1.1l13,2.5l0.7,1.3L13,12.2z"/>
			</g>
		</g>
		<g>
			<line fill="none" stroke="#F68C1F" stroke-width="2.7468" stroke-miterlimit="10" x1="38.4" y1="16.6" x2="59.6" y2="20.3"/>
			<line fill="none" stroke="#F68C1F" stroke-width="2.7468" stroke-miterlimit="10" x1="38.1" y1="9.6" x2="53.5" y2="7.7"/>
			<line fill="none" stroke="#F68C1F" stroke-width="2.7468" stroke-miterlimit="10" x1="35.7" y1="22.5" x2="47.9" y2="32"/>
		</g>
	</g>
</g>
<g id="Layer_3">
</g>
<g id="Layer_4">
</g>
</svg>
