<?xml version="1.0" encoding="utf-8"?>
<!-- Generator: Adobe Illustrator 19.2.1, SVG Export Plug-In . SVG Version: 6.00 Build 0)  -->
<svg version="1.1" xmlns="http://www.w3.org/2000/svg" xmlns:xlink="http://www.w3.org/1999/xlink" x="0px" y="0px"
	 viewBox="0 0 744 452" enable-background="new 0 0 744 452" xml:space="preserve">
<g id="Layer_1">
	<g>
		<rect x="269.7" y="317.3" fill="#1EBBEE" width="64.2" height="7.6"/>
		<rect x="306.7" y="317.3" opacity="0.15" width="27.2" height="7.6"/>
	</g>
	<path opacity="0.1" d="M485.5,415.1c-0.4,0-0.8,0.1-1.3,0.1v-0.1l-321.5,0v0.1c-5.2,0.5-9.2,4-9.2,8.4c0,4.7,4.7,8.4,10.4,8.4
		c0.7,0,320.7,0,321.5,0c5.8,0,10.5-3.8,10.5-8.4C496,418.9,491.3,415.1,485.5,415.1"/>
	<g>
		<polygon fill="#672A7A" points="199.7,324.9 199.7,337.8 399.4,337.8 399.4,428.5 410.6,428.5 410.6,337.8 456.1,337.8 
			456.1,428.5 467.4,428.5 467.4,337.8 467.4,336.7 467.4,324.9 		"/>
		<polygon opacity="0.1" points="405,324.9 405,336.5 405,337.8 405,428.5 410.6,428.5 410.6,337.8 461.8,337.8 461.8,428.5 
			467.4,428.5 467.4,337.8 467.4,336.5 467.4,324.9 		"/>
	</g>
	<g>
		<path fill="#1B75BA" d="M243.8,243.3l0,65.4c0,0,0,4.7,4.7,4.7l82.4,0c0,0,4.7,0,4.7-4.7v-65.4c0,0,0-4.7-4.7-4.7l-82.4,0
			C248.4,238.6,243.8,238.6,243.8,243.3z"/>
		<path fill="#1EBBEE" d="M237.4,243.3l0,65.4c0,0,0,4.7,4.7,4.7l84.1,0c0,0,4.7,0,4.7-4.7l0-65.4c0,0,0-4.7-4.7-4.7l-84.1,0
			C242.1,238.6,237.4,238.6,237.4,243.3z"/>
		<rect x="242.1" y="243.3" fill="#1B75BA" width="84.1" height="56"/>
		<path opacity="0.15" d="M242.1,313.4l84.1,0c0,0,4.7,0,4.7-4.7V304l-93.4-56l0,60.7C237.4,308.7,237.4,313.4,242.1,313.4z"/>
	</g>
	<polygon fill="#1EBBEE" points="443.2,310.2 443.2,254.1 346.6,254.1 346.6,310.2 392.3,313.4 390.4,323.1 378.5,323.1 
		378.5,324.9 411.4,324.9 411.4,323.1 399.4,323.1 397.5,313.4 	"/>
	<polygon opacity="0.15" points="443.2,310.2 443.2,254.1 346.6,254.1 346.6,310.2 392.3,313.4 390.4,323.1 378.5,323.1 
		378.5,324.9 411.4,324.9 411.4,323.1 399.4,323.1 397.5,313.4 	"/>
	<g>
		<path fill="#1B75BA" d="M352.3,243.3l0,65.4c0,0,0,4.7,4.7,4.7h82.4c0,0,4.7,0,4.7-4.7v-65.4c0,0,0-4.7-4.7-4.7l-82.4,0
			C357,238.6,352.3,238.6,352.3,243.3z"/>
		<path fill="#1EBBEE" d="M346,243.3v65.4c0,0,0,4.7,4.7,4.7h84.1c0,0,4.7,0,4.7-4.7v-65.4c0,0,0-4.7-4.7-4.7l-84.1,0
			C350.6,238.6,346,238.6,346,243.3z"/>
		<rect x="350.6" y="243.3" fill="#1B75BA" width="84.1" height="56"/>
		<path opacity="0.15" d="M350.6,313.4h84.1c0,0,4.7,0,4.7-4.7V304L346,248v60.7C346,308.7,346,313.4,350.6,313.4z"/>
	</g>
	<g opacity="0.15">
		<rect x="266.6" y="300.1" transform="matrix(0.487 -0.8734 0.8734 0.487 -127.9092 394.5098)" width="10.6" height="12.1"/>
	</g>
	<rect x="204.6" y="258.7" fill="#17244E" width="65.1" height="95.2"/>
	<polygon opacity="0.1" points="269.7,342.7 269.7,318.1 204.6,266.6 204.6,342.7 	"/>
	<path fill="#FDB813" d="M247.6,242.1l-4.9-1.7l-1.6,4.1h-8.8v14.4h10.5v-8.2C243,247.8,243.8,243.2,247.6,242.1z"/>
	<path d="M246.9,233.1c0.1,0.6-0.4,1.1-1,1.2c-0.6,0.1-1.1-0.4-1.2-1c-0.1-0.6,0.4-1.1,1-1.2C246.4,232.1,246.9,232.5,246.9,233.1"
		/>
	<polygon fill="#F68C1F" points="252.9,228.6 260.4,240.8 250.1,244.3 	"/>
	<path fill="#FDB813" d="M224.5,220.4l1.7,19.4l0.1,0.1c2.1,14.4,14.4,17.7,29.1,16.5l-0.1-1.3l-0.9-11l-1.2-13.8l-1-12.1
		L224.5,220.4z"/>
	<path fill="#17244E" d="M246.9,233.1c0.1,0.6-0.4,1.1-1,1.2c-0.6,0.1-1.1-0.4-1.2-1c-0.1-0.6,0.4-1.1,1-1.2
		C246.4,232.1,246.9,232.5,246.9,233.1"/>
	<path fill="#FAB223" d="M327.8,325.6c0.1,0,0.1,0,0.2,0c2.9-0.3,5-2.9,4.7-5.8c-0.3-2.9-3-4.9-5.9-4.6c-0.1,0-0.1,0-0.2,0l0,0
		l-5.5,0.6l1.2,10.4L327.8,325.6L327.8,325.6z"/>
	<polygon fill="#17244E" points="270,425.1 257.9,412.9 241.8,412.9 241.8,428.8 270,428.8 	"/>
	<polygon fill="#1EBBEE" points="278.2,412.9 278.2,345.4 294.1,345.4 294.1,412.9 278.2,412.9 	"/>
	<polygon fill="#1EBBEE" points="241.8,412.9 241.8,342.6 257.7,342.6 257.7,412.9 241.8,412.9 	"/>
	<polygon fill="#1EBBEE" points="294.1,358.5 225.1,358.5 225.1,342.7 294.1,342.7 294.1,358.5 	"/>
	<path fill="#FDB813" d="M279.3,316.4c0.1,0,0.1,0.1,0.2,0.1c2.5,1.5,5.8,0.7,7.3-1.8c1.5-2.5,0.6-5.8-1.9-7.3
		c-0.1,0-0.1-0.1-0.2-0.1l0,0l-4.7-2.8l-5.4,9.1L279.3,316.4L279.3,316.4z"/>
	<path fill="#17244E" d="M314.2,326.2c3.3,0.3,7.1,0.2,8.7,0l-0.9-5.5l-0.8-4.9c-0.4,0-8.5,0-18.6-3.1c-5.6-1.8-14.4-7.3-18.6-13.3
		c-5.8-8.2-12.1-21.3-14.9-35.3l-10.5-0.3c-4.4,14.1,9.2,34.1,15.3,42.6c4.8,6.7,10.7,12.6,21.8,16
		C305.4,325.4,311.6,325.9,314.2,326.2z"/>
	<polygon fill="#17244E" points="306.4,425.1 294.3,412.9 278.2,412.9 278.2,428.8 306.4,428.8 	"/>
	<path fill="#17244E" d="M233.4,229l-0.4-0.3l3.4-1.9l2.4-1l0.2,2.1c6.6-2.7,7.7-6.9,7.7-6.9l-0.5,3.4c4.3-1.8,5.7-3.8,6.1-5.4
		l2.6,1c0.4-2.9-1.5-4.1-2.5-4.6l3.4-2.5c-4.4-6.2-10.9-3.2-10.9-3.2l2.9-5c-8.5-1.5-12.8,6.1-12.8,6.1l1.9-6.4
		c-11.6,2.3-12.4,13.1-12.4,13.1l-0.3,0c-6.7,5.5,3.5,28.3,3.5,28.3C234.6,240.4,233.4,229,233.4,229z"/>
	<path fill="#FDB813" d="M236.4,226.7c-3.4,0.3-5.9,3.3-5.6,6.7c0.3,3.4,3.3,5.9,6.7,5.6L236.4,226.7z"/>
	<path opacity="0.15" d="M236.7,229.8c-1.7,0.1-3,1.6-2.8,3.4c0.1,1.7,1.6,3,3.3,2.8L236.7,229.8z"/>
	<g>
		
			<rect x="266.6" y="300.1" transform="matrix(0.487 -0.8734 0.8734 0.487 -127.9092 394.5098)" fill="#17244E" width="10.6" height="12.1"/>
	</g>
	<g>
		<rect x="198.7" y="279.6" fill="#672A7A" width="64.5" height="88.9"/>
		<rect x="198.7" y="359.5" fill="#672A7A" width="11.3" height="69.2"/>
		<rect x="251.9" y="359.5" fill="#672A7A" width="11.3" height="69.2"/>
		<rect x="224.1" y="359.5" fill="#672A7A" width="11.3" height="69.2"/>
		<rect x="277.3" y="359.5" fill="#672A7A" width="11.3" height="69.2"/>
		<rect x="244.5" y="358.2" fill="#672A7A" width="44.1" height="10.3"/>
		<rect x="257.5" y="279.6" opacity="0.15" width="5.6" height="149.1"/>
		<rect x="277.3" y="368.5" opacity="0.15" width="5.6" height="60.2"/>
		<polygon opacity="0.1" points="257.5,342.6 198.7,304.4 198.7,368.5 204.3,368.5 204.3,428.8 210,428.8 210,368.5 224.1,368.5 
			224.1,428.8 229.8,428.8 229.8,368.5 257.5,368.5 		"/>
	</g>
	<g>
		<path fill="#E6E6E6" d="M490,66.6c-4-13.4-18.5-23.3-35.9-23.3c-0.1,0-0.2,0-0.3,0v0c0-16.9-16.4-30.6-36.7-30.6
			c-14,0-26.2,6.5-32.4,16.1c-3.6-1.1-7.5-1.7-11.6-1.7c-19,0-34.5,12.9-34.5,28.7c0,0.1,0,0.2,0,0.3c-1.5-0.1-3.1-0.3-4.7-0.3
			c-21.6,0-39.2,14.6-39.2,32.6c0,18,17.5,32.6,39.2,32.6l143.4,0l0,0c18.7,0,33.9-12.7,33.9-28.3C511.3,80.9,502.4,70.8,490,66.6"
			/>
		<path fill="#E6E6E6" d="M490,164c-4,13.4-18.5,23.3-35.9,23.3c-0.1,0-0.2,0-0.3,0v0c0,16.9-16.4,30.6-36.7,30.6
			c-14,0-26.2-6.5-32.4-16.1c-3.6,1.1-7.5,1.7-11.6,1.7c-19,0-34.5-12.9-34.5-28.7c0-0.1,0-0.2,0-0.3c-1.5,0.1-3.1,0.3-4.7,0.3
			c-21.6,0-39.2-14.6-39.2-32.6c0-18,17.5-32.6,39.2-32.6l143.4,0l0,0c18.7,0,33.9,12.7,33.9,28.3C511.3,149.7,502.4,159.9,490,164"
			/>
		<path fill="#E6E6E6" d="M407.8,66.6c4-13.4,18.5-23.3,35.9-23.3c0.1,0,0.2,0,0.3,0v0c0-16.9,16.4-30.6,36.7-30.6
			c14,0,26.2,6.5,32.4,16.1c3.6-1.1,7.5-1.7,11.6-1.7c19,0,34.5,12.9,34.5,28.7c0,0.1,0,0.2,0,0.3c1.5-0.1,3.1-0.3,4.7-0.3
			c21.6,0,39.2,14.6,39.2,32.6c0,18-17.5,32.6-39.2,32.6l-143.4,0l0,0c-18.7,0-33.9-12.7-33.9-28.3
			C386.4,80.9,395.3,70.8,407.8,66.6"/>
		<path fill="#E6E6E6" d="M407.8,164c4,13.4,18.5,23.3,35.9,23.3c0.1,0,0.2,0,0.3,0v0c0,16.9,16.4,30.6,36.7,30.6
			c14,0,26.2-6.5,32.4-16.1c3.6,1.1,7.5,1.7,11.6,1.7c19,0,34.5-12.9,34.5-28.7c0-0.1,0-0.2,0-0.3c1.5,0.1,3.1,0.3,4.7,0.3
			c21.6,0,39.2-14.6,39.2-32.6c0-18-17.5-32.6-39.2-32.6l-143.4,0l0,0c-18.7,0-33.9,12.7-33.9,28.3
			C386.4,149.7,395.3,159.9,407.8,164"/>
	</g>
	<circle fill="#E6E6E6" cx="325.6" cy="191.9" r="7.5"/>
	<circle fill="#E6E6E6" cx="312.8" cy="209.3" r="5.3"/>
	<circle fill="#E6E6E6" cx="300.5" cy="219.2" r="3.7"/>
	<g>
		<rect x="88.5" y="79.7" fill="#672A7A" width="139.1" height="3.9"/>
		<rect x="88.5" y="112.8" fill="#672A7A" width="139.1" height="3.9"/>
		<rect x="88.5" y="145.9" fill="#672A7A" width="139.1" height="3.9"/>
		<rect x="156.5" y="13.6" fill="#672A7A" width="3.9" height="178.7"/>
		<path fill="none" stroke="#672A7A" stroke-width="4.7524" stroke-miterlimit="10" d="M227.6,190.6l-138.3,0l0-105
			c0-39.4,31-71.4,69.1-71.4c38.2,0,69.1,32,69.1,71.4L227.6,190.6z"/>
		<rect x="89.6" y="185" fill="#672A7A" width="139.1" height="7.3"/>
	</g>
</g>
<g id="Layer_2">
</g>
<g id="Layer_3">
</g>
<g id="Layer_4">
</g>
</svg>
