<?xml version="1.0" encoding="utf-8"?>
<!-- Generator: Adobe Illustrator 19.2.1, SVG Export Plug-In . SVG Version: 6.00 Build 0)  -->
<svg version="1.1" xmlns="http://www.w3.org/2000/svg" xmlns:xlink="http://www.w3.org/1999/xlink" x="0px" y="0px"
	 viewBox="0 0 25.3 29.7" enable-background="new 0 0 25.3 29.7" xml:space="preserve">
<g id="Layer_1">
</g>
<g id="Layer_2">
</g>
<g id="Layer_3">
	<g>
		<path fill="#17244E" d="M0.3,6.6c0,0-0.5,0.3-0.2,0.8l13.6,22c0,0,0.3,0.5,0.8,0.2L25,23.1c0,0,0.5-0.3,0.2-0.8l-13.6-22
			c0,0-0.3-0.5-0.8-0.2L1.2,6L0.3,6.6z"/>
		
			<rect x="7.6" y="7.2" transform="matrix(0.8499 -0.5269 0.5269 0.8499 -6.188 9.1863)" fill="#9C4F96" width="10.9" height="16.6"/>
		<path fill="#FDB813" d="M12.9,20.9c0.8,0.1,1.6-0.2,2.1-0.8c0.3-0.4,0.6-0.9,0.6-1.4c0.1-1-0.4-2-1.2-2.5l0.1-0.9l-0.5-0.1
			l0.4-0.5l-0.4-0.7l0.5-0.5l-0.4-0.6l0.5-0.5l-0.4-1.1l0.5-0.2l0-0.5l-1.2-1.1l-0.4,0L12.4,16c-0.1,0-0.2,0.1-0.3,0.1
			c-0.8,0.4-1.3,1.1-1.4,2C10.6,19.5,11.6,20.7,12.9,20.9 M13.2,18.7c0.4,0,0.7,0.4,0.7,0.7c0,0.4-0.4,0.6-0.8,0.6
			c-0.4,0-0.7-0.4-0.7-0.7C12.4,19,12.8,18.7,13.2,18.7"/>
	</g>
</g>
<g id="Layer_4">
</g>
</svg>
