<?xml version="1.0" encoding="utf-8"?>
<!-- Generator: Adobe Illustrator 19.2.1, SVG Export Plug-In . SVG Version: 6.00 Build 0)  -->
<svg version="1.1" xmlns="http://www.w3.org/2000/svg" xmlns:xlink="http://www.w3.org/1999/xlink" x="0px" y="0px"
	 viewBox="0 0 744 452" enable-background="new 0 0 744 452" xml:space="preserve">
<g id="Layer_1">
</g>
<g id="Layer_2">
</g>
<g id="Layer_3">
</g>
<g id="Layer_4">
	<g>
		<path fill="#515251" d="M641.2,86.9c0,14-11.4,25.4-25.4,25.4c-14,0-25.4-11.4-25.4-25.4c0-14,11.4-25.4,25.4-25.4
			C629.9,61.5,641.2,72.9,641.2,86.9"/>
		<path fill="#FFFFFF" d="M637.5,86.9c0,12-9.7,21.7-21.7,21.7c-12,0-21.7-9.7-21.7-21.7c0-12,9.7-21.7,21.7-21.7
			C627.8,65.2,637.5,75,637.5,86.9"/>
		<path fill="#1B1C1C" d="M617,86.9c0,0.7-0.5,1.2-1.2,1.2c-0.7,0-1.2-0.5-1.2-1.2c0-0.7,0.5-1.2,1.2-1.2
			C616.5,85.7,617,86.3,617,86.9"/>
		<rect x="615.5" y="66.4" fill="#1A1A1A" width="0.6" height="41.1"/>
		<rect x="595.2" y="86.6" fill="#1A1A1A" width="41.1" height="0.6"/>
		
			<rect x="615.5" y="66.4" transform="matrix(0.4955 -0.8686 0.8686 0.4955 235.2008 578.7723)" fill="#1A1A1A" width="0.6" height="41.1"/>
		<polygon fill="#1A1A1A" points="605.9,104.9 605.4,104.6 625.7,68.9 626.3,69.2 626.1,69.5 		"/>
		<polygon fill="#1A1A1A" points="625.8,104.9 625.7,104.6 605.3,69.3 605.8,68.9 626.3,104.6 		"/>
		<polygon fill="#1A1A1A" points="598.1,97.5 597.8,96.9 633.5,76.4 633.8,76.9 		"/>
		<path fill="#FFFFFF" d="M632.3,86.9c0,9.1-7.4,16.5-16.5,16.5c-9.1,0-16.5-7.4-16.5-16.5c0-9.1,7.4-16.5,16.5-16.5
			C624.9,70.4,632.3,77.8,632.3,86.9"/>
		<path fill="#1B1C1C" d="M617,86.9c0,0.7-0.5,1.2-1.2,1.2c-0.7,0-1.2-0.5-1.2-1.2c0-0.7,0.5-1.2,1.2-1.2
			C616.5,85.7,617,86.3,617,86.9"/>
		<path fill="#1A1A1A" d="M615.8,87.2c-0.1,0-0.2,0-0.2-0.1l-12.5-12.5c-0.1-0.1-0.1-0.3,0-0.4c0.1-0.1,0.3-0.1,0.4,0L616,86.7
			c0.1,0.1,0.1,0.3,0,0.4C616,87.2,615.9,87.2,615.8,87.2"/>
		<path fill="#1A1A1A" d="M615.8,87.2c-0.2,0-0.3-0.1-0.3-0.3c0-0.2,0.1-0.3,0.3-0.3h9.2c0.2,0,0.3,0.1,0.3,0.3
			c0,0.2-0.1,0.3-0.3,0.3H615.8z"/>
		<path fill="#E42129" d="M603.4,99.7c-0.1,0-0.2,0-0.2-0.1c-0.1-0.1-0.1-0.3,0-0.4L618.3,84c0.1-0.1,0.3-0.1,0.4,0
			c0.1,0.1,0.1,0.3,0,0.4l-15.1,15.1C603.5,99.7,603.4,99.7,603.4,99.7"/>
	</g>
	<g>
		<ellipse transform="matrix(0.9142 -0.4053 0.4053 0.9142 -48.8811 54.8014)" fill="#E6E7E8" cx="105" cy="142.8" rx="7" ry="7"/>
		
			<ellipse transform="matrix(0.9142 -0.4053 0.4053 0.9142 -53.418 61.1824)" fill="#E6E7E8" cx="117.8" cy="156.7" rx="4.9" ry="4.9"/>
		
			<ellipse transform="matrix(0.9142 -0.4053 0.4053 0.9142 -53.7171 67.2778)" fill="#E6E7E8" cx="132" cy="160.5" rx="3.4" ry="3.4"/>
	</g>
	<g>
		<path fill="#F89420" d="M426,279.5c0.1,0.1,0.1,0.1,0.2,0.2c2.4,2.4,6.2,2.5,8.6,0.2c2.4-2.3,2.4-6.2,0.1-8.6
			c-0.1-0.1-0.1-0.1-0.2-0.2l0,0l-4.4-4.6l-8.7,8.5L426,279.5L426,279.5z"/>
		<path opacity="0.1" d="M340.1,410.8c0.5,0,0.9,0.1,1.3,0.1v-0.1l102.7,0v0.1c5.3,0.5,9.5,4.2,9.5,8.6c0,4.8-4.8,8.7-10.8,8.7
			c-0.8,0-102,0-102.7,0c-6,0-10.8-3.9-10.8-8.7C329.3,414.7,334.2,410.8,340.1,410.8"/>
		<path fill="#1EBBEE" d="M421.6,277.7l11.8-11.6c-17.8-18.2-20.3-38.3-22.3-54.5c-1.4-11.3-2.6-21.1-8.9-27.5l-11.8,11.6
			c2.4,2.5,3.3,10,4.3,17.9C396.9,231.3,399.9,255.5,421.6,277.7z"/>
		<path fill="#3176BB" d="M390.5,195.7l3.8-3.7c2.7,6.4,3.7,14.1,4.7,22.7c2.2,18,4.9,40.5,24.9,60.9l-2.2,2.1
			c-21.8-22.2-24.7-46.4-26.9-64.1C393.8,205.7,392.9,198.2,390.5,195.7z"/>
		<path fill="#1EBBEE" d="M346.1,399.8l0.2,0.2v8.3v9.8h8.3v-3.1h5.7l2.8,3.1h20.1h4h4.3v-3.1h5.7l2.8,3.1h24.1v-9.8l-22.9-4.8
			L397,288.7l8.2-0.9l-4.5-88.5l1.6-15.2l-19.3-6.7h-18.1l-17.3,4.2l-6.9,106.2l0,0l9.6-0.1l-4,112.1L346.1,399.8z M364.4,403.6
			l6.9-108.2h2.7l9.2,104.5l-0.2,0l0.2,0.2v7.5L364.4,403.6z"/>
		<g>
			<path fill="#3176BB" d="M346.1,399.8l0.2,0.2v8.3v9.8h8.3v-3.1h5.7l2.8,3.1h20.1h4h4.3v-3.1h5.7l2.8,3.1h24.1v-9.8l-22.9-4.8
				l-0.7-114.9l-24.4-0.8l-2.7-18.3l-4.4,17.2l-23,0.9l0.2,112.1L346.1,399.8z M364.4,403.6l6.9-108.2h2.7l9.2,104.5l-0.2,0l0.2,0.2
				v7.5L364.4,403.6z"/>
		</g>
		<path fill="#F89420" d="M383.9,168.3l-4.2-1.5l-1.4,3.5l-13.5-2.1l1,14.7l13.2,10.6l2.3-17.6C381.4,173.6,380.6,169.4,383.9,168.3
			"/>
		<path fill="#F89420" d="M339.8,261.3c0.1,0.1,0.1,0.1,0.2,0.2c2.4,2.4,6.2,2.5,8.6,0.2c2.4-2.3,2.4-6.2,0.1-8.6
			c-0.1-0.1-0.1-0.1-0.2-0.2l0,0l-4.4-4.6l-8.7,8.5L339.8,261.3L339.8,261.3z"/>
		<polygon fill="#3176BB" points="362.9,176 367.4,176 374,201.9 381.9,176 385.2,176 388.4,187 386,189.4 388.4,191.8 374,236.7 
			359.6,191.8 362,189.4 359.6,187 		"/>
		<polygon fill="#FFFFFF" points="370,177.4 374,188.1 379.1,177.4 383.2,174 383.2,182.7 374,219.8 364.8,182.7 364.8,174 		"/>
		<g>
			<path fill="#1EBBEE" d="M335.8,260l11.9-11.5c-6-6.2-9.3-14.3-9.4-22.9c-0.1-12.8,7-24.4,18.5-30.1l-2.7-14.7
				c-0.6,0.3-6,0.5-6.6,0.9c-16.1,8.9-25.9,25.6-25.8,44.1C321.9,238.6,326.9,250.8,335.8,260z"/>
		</g>
		<polygon fill="#3176BB" points="347.4,271.2 366.8,264.9 366.8,259.6 347.4,265.9 		"/>
		<polygon fill="#3176BB" points="398.5,271.2 379.1,264.9 379.1,259.6 398.5,265.9 		"/>
		<circle fill="#3176BB" cx="374" cy="251" r="1.9"/>
		<polygon fill="#1EBBEE" points="362,189.4 374,201.9 388.4,187 396.8,189.4 389.3,247.8 356.8,247 351.5,190.8 		"/>
		<g>
			<rect x="367" y="216.2" fill="#FFFFFF" width="2.9" height="13.7"/>
			<polygon fill="#FFFFFF" points="382.7,218.5 378.7,218.5 378.7,229.9 375.9,229.9 375.9,218.5 371.8,218.5 371.8,216.2 
				382.7,216.2 			"/>
			<path fill="#FFFFFF" d="M387.3,230.5l-13.2,7.7l-13.5-7.7v-15.2l13.2-7.7l13.5,7.7V230.5z M373.9,205l-15.5,8.9v18l15.7,8.9
				l15.5-8.9v-18L373.9,205z"/>
		</g>
		<polygon fill="#9A8D78" points="382.2,141.4 393.6,154.2 385.3,158.2 		"/>
		<path fill="#010101" d="M377.9,148.2c0.3,0.6,0,1.3-0.5,1.6c-0.6,0.3-1.3,0-1.6-0.6c-0.3-0.6,0-1.3,0.6-1.6
			C376.9,147.3,377.7,147.6,377.9,148.2"/>
		<polygon fill="#F04F24" points="382.2,141.4 393.6,154.2 385.3,158.2 		"/>
		<path fill="#F89420" d="M350.8,144l9,18.8l0.1,0c7.5,13.6,21.1,12.3,35.2,5.4l-0.6-1.3l-5.1-10.7l-6.4-13.4l-5.6-11.8L350.8,144"
			/>
		<path fill="#1D4483" d="M377.9,148.2c0.3,0.6,0,1.3-0.5,1.6c-0.6,0.3-1.3,0-1.6-0.6c-0.3-0.6,0-1.3,0.6-1.6
			C376.9,147.3,377.7,147.6,377.9,148.2"/>
		<path fill="#1D4483" d="M377.2,131.2l-0.2,0.1L377.2,131.2c-3.1-7.2-14.8-8.1-18.9-2c-1.3,1.9-2.3,2.8-4.4,3.8
			c-1.7,0.8-2.9,1.6-3.9,3.2c-0.9,1.3-0.8,3.7,0,5.7c-9.5,5.8,13.5,26.2,13.5,26.2c4.9-7.9-0.6-18.8-0.6-18.9
			c0.1-0.3,0.3-0.6,0.4-0.9c1.2-3.2,3.2-3.4,6.1-5.1C373.1,141.1,378,135.7,377.2,131.2"/>
		<path fill="#F89420" d="M363,149.1c-3.3,1.6-4.7,5.5-3.1,8.8c1.6,3.3,5.5,4.7,8.8,3.1L363,149.1"/>
		<polyline fill="#D17E29" points="367.3,158.1 364.4,152.1 364.4,152.1 367.3,158.1 367.3,158.1 		"/>
		<path fill="#D17E29" d="M365.8,158.4c-1.2,0-2.4-0.7-3-1.9c-0.8-1.7-0.1-3.6,1.5-4.4l2.9,6C366.8,158.3,366.3,158.4,365.8,158.4"
			/>
	</g>
	<g>
		<path opacity="0.1" d="M189.8,383.5c-0.4,0-0.7,0.1-1.1,0.1v-0.1h-84.2v0.1c-4.4,0.4-7.8,3.4-7.8,7.1c0,3.9,4,7.1,8.8,7.1
			c0.6,0,83.6,0,84.3,0c4.9,0,8.8-3.2,8.8-7.1C198.6,386.7,194.6,383.5,189.8,383.5"/>
		<path fill="#DC5B26" d="M154.7,165.9l4.3-0.2l0.9,3.8l10.4,1.4l-4.7,33.8l-11.9-1.7l3.9-28.4C157.8,172.4,157.9,167.5,154.7,165.9
			"/>
		<polygon fill="#DC5B26" points="147.4,162.8 144.5,174 150.7,173.9 		"/>
		<path fill="#DC5B26" d="M172.3,154.4l1.8,10.4l-1.8,3.3c0,0.9,0.1-2.2,0-1.3l-4.1,6.8c-0.9,2.7-2,5-3.3,7
			c-2.8,3.2-7.9,6.1-17.1,5.3l-0.9-30.7L172.3,154.4z"/>
		<path fill="#1D4483" d="M153.1,168.3c0,0.6,0.5,1,1,1c0.6,0,1-0.5,1-1.1c0-0.6-0.5-1-1-1C153.5,167.3,153.1,167.8,153.1,168.3"/>
		<path fill="#1D4483" d="M178.4,156c-0.6-4.9-2.4-10.2-6.2-13c-1.1,2.6-3.8,5.6-3.5,7.5c0,0.1-5.6,4.9-0.6,14.6
			c0,0-3.7-0.1,0.2,6.9C168.3,172,179.9,170.2,178.4,156"/>
		<path fill="#1D4483" d="M147.5,155l-3.9-2.2c3.9-7.1,11.1-4.6,11.1-4.6l-3.7-4.9c8.8-2.6,14.2,4.9,14.2,4.9l-2.7-6.5
			c12.4,1,14.5,12.3,14.5,12.3l0.3,9.9l-5.1,4.2l-6.6-2.9l0.2,1.8l-2.8-0.4c-7.3-2.1-8.9-6.4-8.9-6.4l0.9,3.5
			c-4.7-1.4-6.5-3.3-7.1-5l-2.6,1.4C144.6,157.2,146.4,155.6,147.5,155"/>
		<path fill="#DC5B26" d="M165,163c2.8-0.1,5.2,2.2,5.3,5c0.1,2.8-2.2,5.2-5,5.3L165,163z"/>
		<path fill="#F58B21" d="M165.1,165.6c1.4,0,2.6,1.1,2.6,2.5c0,1.4-1.1,2.6-2.5,2.6L165.1,165.6z"/>
		<polygon fill="#1F3D75" points="132.7,391.5 154.7,391.5 154.7,388.2 157.8,385.1 157.8,384.2 136.7,384.2 132.7,388.2 		"/>
		<polygon fill="#1F3D75" points="154.7,391.5 179.7,391.5 179.7,384.2 158.6,384.2 157.8,385.1 154.7,388.2 		"/>
		<rect x="143.7" y="285.7" fill="#9C4F96" width="14.1" height="91.7"/>
		<polygon fill="#672A7A" points="151.1,377.4 157.8,377.4 157.8,286.7 151.1,286.6 		"/>
		<rect x="165.6" y="285.7" fill="#9C4F96" width="14.1" height="91.7"/>
		<rect x="173" y="285.7" fill="#672A7A" width="6.7" height="91.7"/>
		<path fill="#9C4F96" d="M160.7,286.8l-27.1-0.4c0,0,5.2-22.3,9.5-38.7c-2.7-20.8-11.3-50.7-11.3-50.7l22.3-7l7.7,30.8l7.6-30.8
			l20.3,7l-5.3,11.5c0,0-6.2,31-4.8,38.9c1.4,7.9,9,39.7,9,39.7h-7.3l-18.5-0.3l-0.9-5.5L160.7,286.8"/>
		<polygon fill="#1D4483" points="132.7,388.2 143.5,377.4 157.8,377.4 157.8,391.5 132.7,391.5 		"/>
		<polygon fill="#1D4483" points="154.7,388.2 165.5,377.4 179.7,377.4 179.7,391.5 154.7,391.5 		"/>
		<polygon fill="#672A7A" points="152.4,188.7 156.3,188.7 161.9,210.7 168.5,188.7 171.3,188.7 174.1,198 172,200.1 174.1,202.1 
			161.9,240.2 149.7,202.1 151.7,200.1 149.7,198 		"/>
		<polygon fill="#FFFFFF" points="158.5,189.9 161.8,201.8 166.1,190.5 169.7,187.7 169.7,194.4 161.9,225.8 154.1,194.4 
			154.1,187.1 		"/>
		<polygon fill="#672A7A" points="141.4,269.3 157.7,264 157.7,259.5 141.4,264.8 		"/>
		<polygon fill="#672A7A" points="180.7,269.3 164.3,264 164.3,259.5 180.7,264.8 		"/>
		<path fill="#672A7A" d="M160.2,252.3c0,0.9,0.7,1.6,1.6,1.6c0.9,0,1.6-0.7,1.6-1.6c0-0.9-0.7-1.6-1.6-1.6
			C161,250.6,160.2,251.4,160.2,252.3"/>
		<path fill="#FFFFFF" d="M160.2,206.4c0,0.9,0.7,1.6,1.6,1.6c0.9,0,1.6-0.7,1.6-1.6c0-0.9-0.7-1.6-1.6-1.6
			C161,204.8,160.2,205.5,160.2,206.4"/>
		<path fill="#9C4F96" d="M201,277.4c0-48.5-11.2-80.1-11.3-80.5h-1.3v0l-9.7,3.4c0,0,0.6,1.7,1.6,5.3c1,3.5,2.3,8.8,3.7,15.5
			c2.7,13.5,5.4,32.8,5.4,56.3h10.3H201z"/>
		<path fill="#9C4F96" d="M120.6,277.4c0-48.5,11.2-80.1,11.3-80.5h1.3v0l9.7,3.4c0,0-0.6,1.7-1.6,5.3c-1,3.5-2.3,8.8-3.7,15.5
			c-2.7,13.5-5.4,32.8-5.4,56.3h-10.3H120.6z"/>
		<path fill="#DC5B26" d="M120.5,283.4l0,0.2c0,3.2,2.6,5.8,5.7,5.8c3.2,0,5.7-2.6,5.8-5.8l0-0.2h0l0-6l-11.5,0L120.5,283.4
			L120.5,283.4z"/>
		<g>
			<rect x="176.6" y="280.1" fill="#585A5C" width="47" height="36"/>
			<polygon fill="#4F5052" points="189.9,316.1 223.6,316.1 223.6,280.1 210.8,280.1 			"/>
		</g>
		<path fill="#DC5B26" d="M201.1,283.4l0,0.2c0,3.2-2.6,5.8-5.7,5.8c-3.2,0-5.7-2.6-5.8-5.8l0-0.2h0l0-6l11.5,0L201.1,283.4
			L201.1,283.4z"/>
	</g>
	<g>
		<rect x="59" y="203.6" fill="#E47F25" width="57.2" height="145.9"/>
		<rect x="63.5" y="210.2" fill="none" stroke="#513A27" stroke-width="0.768" stroke-miterlimit="10" width="48.2" height="43"/>
		<rect x="78.7" y="223.7" fill="#FDF59C" width="17.8" height="7.4"/>
		<rect x="78.7" y="227.4" fill="#513A27" width="17.8" height="3.7"/>
		<rect x="63.5" y="253.2" fill="none" stroke="#513A27" stroke-width="0.768" stroke-miterlimit="10" width="48.2" height="43"/>
		<rect x="78.7" y="266.7" fill="#FDF59C" width="17.8" height="7.4"/>
		<rect x="78.7" y="270.4" fill="#513A27" width="17.8" height="3.7"/>
		<rect x="63.5" y="296.2" fill="none" stroke="#513A27" stroke-width="0.768" stroke-miterlimit="10" width="48.2" height="43"/>
		<rect x="78.7" y="309.7" fill="#FDF59C" width="17.8" height="7.4"/>
		<rect x="78.7" y="313.4" fill="#513A27" width="17.8" height="3.7"/>
	</g>
	<g>
		<polygon fill="#E6E7E8" points="207.5,88.9 193.9,91.3 201.4,95 199.9,97.8 191,97.3 191.3,99.8 201,109.5 193.1,107.4 192.5,111 
			186.9,108.6 183.2,107.7 188,121.6 182.7,118.3 181.3,123.1 176.5,119.1 172.7,116.8 172.1,125.7 168.6,124.4 166.1,127.2 
			163.2,128.6 159.2,122.7 156.6,125.7 153,120.9 149.8,117.6 147.7,126.7 144.2,119 141.2,117.6 138.6,122.2 135.8,126.1 
			132.9,128.7 129.8,119.2 126.9,123.8 124,125.4 120.9,131.6 117.9,127.9 115.2,122.7 111.5,130.6 109.8,117.4 105.7,126.9 
			101.9,131 99.5,126.6 96.8,124.3 95.4,117 93.2,114.2 87.3,124.3 84.2,123.9 80.9,123.8 78.2,122.2 75.6,120.2 73.6,116.9 
			72.5,112.2 71.9,107 67.2,109.7 65.3,107.2 65.8,101.2 61.1,103 53.6,107.9 51.1,105.8 54.7,97.5 55.5,92.9 50.2,94 51.2,89.8 
			45.1,90.6 44.6,87.5 44.5,84.4 46,80.9 46.7,78.1 32.4,78.5 45.4,73.5 31.4,71.2 45.4,69.4 44.5,67 35.5,60.7 35.3,56.6 
			45.3,58.9 38.7,50.2 51.9,57.4 43.6,45.4 45.8,42.7 55.9,50 52.5,40.5 57.2,41.9 60.9,42 62,38.1 65.3,37.8 69.5,39.4 71.2,36.2 
			74.6,36.7 74.8,29.2 82.1,39.8 80.3,26.2 86.6,35.8 87.1,27.2 90.8,29.1 91.9,21.3 96.9,29.1 100.3,31.2 101.7,23 105.2,25.1 
			109.3,32.5 111,23.8 113.6,19.2 116.5,17.5 119.7,17.7 122.7,16.2 126.1,25.5 129,18 132.3,16.6 135.3,18.8 137.7,25.7 
			140.6,26.1 143.5,26.2 147.1,24.1 148.9,28.8 150.9,31.8 153.9,31.6 159.8,24.9 163.5,24.5 160.5,37.1 165.9,33.3 171.9,29.5 
			169.6,38.4 178,32.1 174.8,41.1 175.7,44.4 180.1,44 177.5,50.5 178.4,53.3 185.9,50.8 183.9,56 191.1,54.4 191.9,57.5 
			187.9,63.2 188.3,66 190.2,68.1 196.3,68.7 199.1,70.8 203.9,72.6 202.5,76.3 193.4,81.2 194.7,83.6 198.8,86 		"/>
	</g>
</g>
</svg>
