<?xml version="1.0" encoding="utf-8"?>
<!-- Generator: Adobe Illustrator 19.2.1, SVG Export Plug-In . SVG Version: 6.00 Build 0)  -->
<svg version="1.1" xmlns="http://www.w3.org/2000/svg" xmlns:xlink="http://www.w3.org/1999/xlink" x="0px" y="0px"
	 viewBox="0 0 72 36" enable-background="new 0 0 72 36" xml:space="preserve">
<g id="Layer_1">
</g>
<g id="Layer_2">
</g>
<g id="Layer_3">
</g>
<g id="Layer_4">
	<path fill="#E6E6E6" d="M64.8,17.9c-1.3-4.4-6.1-7.7-11.9-7.7c0,0-0.1,0-0.1,0v0C52.8,4.6,47.4,0,40.7,0C36,0,32,2.2,29.9,5.4
		c-1.2-0.4-2.5-0.6-3.8-0.6c-6.3,0-11.4,4.3-11.4,9.5c0,0,0,0.1,0,0.1c-0.5,0-1-0.1-1.6-0.1c-7.2,0-13,4.8-13,10.8
		c0,6,5.8,10.8,13,10.8l47.5,0l0,0c6.2,0,11.2-4.2,11.2-9.4C71.9,22.7,68.9,19.3,64.8,17.9"/>
</g>
</svg>
