<?xml version="1.0" encoding="utf-8"?>
<!-- Generator: Adobe Illustrator 19.2.1, SVG Export Plug-In . SVG Version: 6.00 Build 0)  -->
<svg version="1.1" xmlns="http://www.w3.org/2000/svg" xmlns:xlink="http://www.w3.org/1999/xlink" x="0px" y="0px"
	 viewBox="0 0 22.2 12.8" enable-background="new 0 0 22.2 12.8" xml:space="preserve">
<g id="frame">
	<path fill="#FFFFFF" d="M0.3,3.6C-0.3,5.1,0,6.8,0.8,8.2c0.6,0.9,1.4,1.6,2.4,2c2,0.8,4.1,0.3,5.5-1.1l1.6,0.6l0.4-0.9l0.7,1
		L13,9.3l0.6,1.2l1.4-0.4l0.6,1.2l2.4-0.3l0.2,1.1l0.9,0.3l2.8-1.8l0.3-0.8l-12-4.7c0-0.2,0-0.4-0.1-0.6C9.8,2.9,8.7,1.4,7,0.7
		C4.3-0.3,1.4,0.9,0.3,3.6 M4.4,5.1C4.1,5.9,3.3,6.3,2.6,6c-0.7-0.3-1-1.1-0.7-1.9C2.2,3.4,3,3,3.7,3.3C4.4,3.5,4.7,4.4,4.4,5.1"/>
</g>
<g id="extras" display="none">
</g>
</svg>
