<?xml version="1.0" encoding="utf-8"?>
<!-- Generator: Adobe Illustrator 19.2.1, SVG Export Plug-In . SVG Version: 6.00 Build 0)  -->
<svg version="1.1" xmlns="http://www.w3.org/2000/svg" xmlns:xlink="http://www.w3.org/1999/xlink" x="0px" y="0px"
	 viewBox="0 0 136.1 281" enable-background="new 0 0 136.1 281" xml:space="preserve">
<g id="Layer_1">
</g>
<g id="Layer_2">
</g>
<g id="Layer_3">
</g>
<g id="Layer_4">
	<g>
		<path opacity="0.1" d="M30.5,265.9c0.4,0,0.8,0.1,1.1,0.1v-0.1l88.8,0v0.1c4.6,0.5,8.2,3.6,8.2,7.4c0,4.2-4.2,7.5-9.3,7.5
			c-0.7,0-88.1,0-88.8,0c-5.1,0-9.3-3.4-9.3-7.5C21.2,269.3,25.4,265.9,30.5,265.9"/>
		<g>
			<path fill="#F89420" d="M7.9,124.1c-0.1,0-0.1,0.1-0.2,0.1c-3,1.1-6.3-0.4-7.4-3.3c-1.1-2.9,0.4-6.2,3.4-7.3c0.1,0,0.2,0,0.2-0.1
				l0,0l5.6-2.1l4,10.7L7.9,124.1L7.9,124.1z"/>
			<path fill="#1EBBEE" d="M12.4,124.4L7,109.8c22.4-8.3,32.5-24.4,40.6-37.3c5.7-9,4.6-10.6,13.2-17.3l10.7,12.1
				c-3,1.1-6.8,7.1-10.8,13.5C51.8,94.9,39.7,114.2,12.4,124.4z"/>
			<path fill="#3176BB" d="M71.5,67.4l-1.7-4.6c-4.8,4.3-8.7,10.5-13,17.3c-9.1,14.4-20.3,32.3-45.3,41.6l1,2.7
				c27.3-10.2,39.4-29.4,48.3-43.5C64.7,74.5,68.4,68.5,71.5,67.4z"/>
			<path fill="#1EBBEE" d="M113.1,257.1l-3.7-104.9l9,0.1l0,0L112,52.9L95.7,49H78.8l-18.1,6.3l1.5,14.2L58,152.3l7.7,0.8l-4,107.5
				l-21.4,4.5l0,9.2h22.5l2.7-2.9h5.3v2.9h4.1h3.8h18.8l2.7-2.9l5.3,0v2.9h7.8v-9.2l0-7.8l0.2-0.2L113.1,257.1z M78.6,264.3v-7
				l0.2-0.2l-0.2,0l8.6-97.8h2.5l6.5,101.3L78.6,264.3z"/>
			<g>
				<path fill="#3176BB" d="M113.1,257.1l0.2-104.9l-21.5-0.8l-4.1-16.1l-2.6,17.1l-22.8,0.3l-0.6,107.9l-21.4,4.5l0,9.2h22.5
					l2.7-2.9h5.3v2.9h4.1h3.8h18.8l2.7-2.9l5.3,0v2.9h7.8v-9.2l0-7.8l0.2-0.2L113.1,257.1z M78.6,264.3v-7l0.2-0.2l-0.2,0l8.6-97.8
					h2.5l6.5,101.3L78.6,264.3z"/>
			</g>
			<path fill="#F89420" d="M77.9,40.5l3.9-1.4l1.3,3.3l12.7-1.9l-1,13.8l-12.3,9.9l-2.1-16.5C80.3,45.4,81,41.4,77.9,40.5"/>
			<path fill="#F89420" d="M119.3,127.4c-0.1,0.1-0.1,0.1-0.1,0.2c-2.2,2.3-5.8,2.3-8.1,0.2c-2.3-2.2-2.3-5.8-0.1-8.1
				c0.1-0.1,0.1-0.1,0.2-0.1l0,0l4.1-4.3l8.2,7.9L119.3,127.4L119.3,127.4z"/>
			<polygon fill="#3176BB" points="97.6,47.6 93.4,47.6 87.2,71.8 79.8,47.6 76.8,47.6 73.7,57.9 75.9,60.1 73.7,62.4 87.2,104.4 
				100.7,62.4 98.5,60.1 100.7,57.9 			"/>
			<polygon fill="#FFFFFF" points="90.9,48.9 87.2,59 82.5,48.9 78.6,45.8 78.6,53.9 87.2,88.6 95.8,53.9 95.8,45.8 			"/>
			<g>
				<path fill="#1EBBEE" d="M123,126.3l-11.2-10.8c5.6-5.8,8.7-13.4,8.8-21.4c0.1-12-6.5-22.8-17.3-28.2l2.5-13.8
					c0.6,0.3,5.6,0.5,6.1,0.8c15.1,8.3,24.3,24,24.1,41.3C136,106.2,131.3,117.6,123,126.3z"/>
			</g>
			<polygon fill="#3176BB" points="112.1,136.7 94,130.8 94,125.8 112.1,131.7 			"/>
			<polygon fill="#3176BB" points="64.3,136.7 82.4,130.8 82.4,125.8 64.3,131.7 			"/>
			<circle fill="#3176BB" cx="87.2" cy="117.8" r="1.8"/>
			<polygon fill="#1EBBEE" points="98.5,60.1 87.2,71.8 73.7,57.9 65.9,60.2 72.9,114.8 103.3,114.1 108.2,61.4 			"/>
			<polygon fill="#9A8D78" points="79.6,15.2 68.9,27.2 76.6,30.9 			"/>
			<path fill="#010101" d="M83.5,21.6c-0.3,0.6,0,1.2,0.5,1.5c0.6,0.3,1.2,0,1.5-0.5c0.3-0.5,0-1.2-0.5-1.5
				C84.5,20.8,83.8,21,83.5,21.6"/>
			<polygon fill="#F04F24" points="79.6,15.2 68.9,27.2 76.6,30.9 			"/>
			<path fill="#F89420" d="M109,17.6l-8.4,17.6l-0.1,0c-7,12.7-19.7,11.5-32.9,5.1l0.6-1.2l4.8-10l6-12.5l5.3-11L109,17.6"/>
			<path fill="#1D4483" d="M84.2,5.7l0.2,0.1L84.2,5.7c2.9-6.7,13.9-7.6,17.7-1.9c1.2,1.7,2.2,2.6,4.1,3.6c1.6,0.8,2.7,1.5,3.7,3
				c0.8,1.2,0.7,3.5,0,5.3C118.6,21.1,97,40.1,97,40.1c-4.6-7.4,0.6-17.6,0.6-17.6c-0.1-0.3-0.3-0.5-0.4-0.9c-1.1-3-3-3.2-5.7-4.8
				C88.1,15,83.5,9.9,84.2,5.7"/>
			<path fill="#F89420" d="M97.5,22.4c3.1,1.5,4.4,5.2,2.9,8.3c-1.5,3.1-5.2,4.4-8.2,2.9L97.5,22.4"/>
			<polyline fill="#D17E29" points="93.5,30.8 96.2,25.2 96.2,25.2 93.5,30.8 93.5,30.8 			"/>
			<path fill="#D17E29" d="M94.9,31.1c1.1,0,2.2-0.6,2.8-1.8c0.7-1.5,0.1-3.4-1.4-4.1l-2.7,5.6C93.9,31,94.4,31.1,94.9,31.1"/>
			<g>
				<rect x="80.2" y="85.2" fill="#FFFFFF" width="2.7" height="12.9"/>
				<polygon fill="#FFFFFF" points="95,87.4 91.2,87.4 91.2,98.1 88.5,98.1 88.5,87.4 84.8,87.4 84.8,85.2 95,85.2 				"/>
				<path fill="#FFFFFF" d="M99.3,98.6l-12.3,7.2l-12.6-7.2V84.4l12.3-7.2l12.6,7.2V98.6z M86.7,74.8l-14.5,8.3l0,16.9l14.7,8.3
					l14.5-8.3l0-16.9L86.7,74.8z"/>
			</g>
			<path fill="none" stroke="#17244E" stroke-width="0.5864" stroke-miterlimit="10" d="M82.4,20.2c0,0,0.6-1,2.2-0.2
				c1.6,0.7,1.3,2.2,1.3,2.2"/>
		</g>
	</g>
</g>
</svg>
