<?xml version="1.0" encoding="utf-8"?>
<!-- Generator: Adobe Illustrator 19.2.1, SVG Export Plug-In . SVG Version: 6.00 Build 0)  -->
<svg version="1.1" xmlns="http://www.w3.org/2000/svg" xmlns:xlink="http://www.w3.org/1999/xlink" x="0px" y="0px"
	 viewBox="0 0 134 225" enable-background="new 0 0 134 225" xml:space="preserve">
<g id="Layer_1">
	<g>
		<polygon fill="#17244E" points="71.3,221.1 59.2,209 43.2,209 43.2,224.8 71.3,224.8 		"/>
		<polygon fill="#17244E" points="107.7,221.1 95.6,209 79.5,209 79.5,224.8 107.7,224.8 		"/>
		<rect x="5.9" y="54.8" fill="#17244E" width="65.1" height="95.2"/>
		<polygon opacity="0.1" points="71.1,138.7 71.1,114.2 5.9,62.6 5.9,138.7 		"/>
		<path fill="#FDB813" d="M49,38.1l-4.9-1.7l-1.6,4.1h-8.8l0,14.4l10.5,0v-8.2C44.3,43.9,45.1,39.3,49,38.1z"/>
		<polygon fill="#F68C1F" points="54.2,24.7 61.7,36.8 51.4,40.4 		"/>
		<path fill="#FDB813" d="M25.8,16.4l1.7,19.4l0.1,0.1c2.1,14.4,14.4,17.7,29.1,16.5L56.5,51l-0.9-11l-1.2-13.8l-1-12.1L25.8,16.4z"
			/>
		<path fill="#FAB223" d="M129.1,121.6c0.1,0,0.1,0,0.2,0c2.9-0.3,5-2.9,4.7-5.8c-0.3-2.9-3-4.9-5.9-4.6c-0.1,0-0.1,0-0.2,0l0,0
			l-5.5,0.6l1.2,10.4L129.1,121.6L129.1,121.6z"/>
		<polygon fill="#1EBBEE" points="79.5,209 79.5,141.5 95.4,141.5 95.4,209 79.5,209 		"/>
		<polygon fill="#1EBBEE" points="43.2,209 43.2,138.6 59,138.6 59,209 43.2,209 		"/>
		<polygon fill="#1EBBEE" points="95.4,154.6 26.4,154.6 26.4,138.7 95.4,138.7 95.4,154.6 		"/>
		<path fill="#FDB813" d="M80.6,112.4c0.1,0,0.1,0.1,0.2,0.1c2.5,1.5,5.8,0.7,7.3-1.8c1.5-2.5,0.6-5.8-1.9-7.3
			c-0.1,0-0.1-0.1-0.2-0.1l0,0l-4.7-2.8l-5.4,9.1L80.6,112.4L80.6,112.4z"/>
		<path fill="#17244E" d="M115.5,122.2c3.3,0.3,7.1,0.2,8.7,0l-0.9-5.5l-0.8-4.9c-0.4,0-8.5,0-18.6-3.1c-5.6-1.8-14.4-7.3-18.6-13.3
			c-5.8-8.2-12.1-21.3-14.9-35.3l-10.5-0.3c-4.4,14.1,9.2,34.1,15.3,42.6c4.8,6.7,10.7,12.6,21.8,16
			C106.7,121.4,112.9,122,115.5,122.2z"/>
		<path fill="#17244E" d="M34.7,25l-0.4-0.3l3.4-1.9l2.4-1l0.2,2.1c6.6-2.7,7.7-6.9,7.7-6.9l-0.5,3.4c4.3-1.8,5.7-3.8,6.1-5.4l2.6,1
			c0.4-2.9-1.5-4.1-2.5-4.6l3.4-2.5c-4.4-6.2-10.9-3.2-10.9-3.2l2.9-5C40.7-1,36.3,6.6,36.3,6.6l1.9-6.4
			C26.7,2.5,25.9,13.3,25.9,13.3l-0.3,0C18.8,18.8,29,41.7,29,41.7C35.9,36.4,34.7,25,34.7,25z"/>
		<path fill="#FDB813" d="M37.7,22.7c-3.4,0.3-5.9,3.3-5.6,6.7c0.3,3.4,3.3,5.9,6.7,5.6L37.7,22.7z"/>
		<path opacity="0.15" d="M38,25.8c-1.7,0.1-3,1.6-2.8,3.4c0.1,1.7,1.6,3,3.3,2.8L38,25.8z"/>
		<g>
			
				<rect x="67.9" y="96.1" transform="matrix(0.487 -0.8734 0.8734 0.487 -51.6959 116.3473)" fill="#17244E" width="10.6" height="12.1"/>
		</g>
		<g>
			<rect x="0" y="75.7" fill="#672A7A" width="64.5" height="88.9"/>
			<rect x="0" y="155.6" fill="#672A7A" width="11.3" height="69.2"/>
			<rect x="53.2" y="155.6" fill="#672A7A" width="11.3" height="69.2"/>
			<rect x="25.4" y="155.6" fill="#672A7A" width="11.3" height="69.2"/>
			<rect x="78.7" y="155.6" fill="#672A7A" width="11.3" height="69.2"/>
			<rect x="45.9" y="154.2" fill="#672A7A" width="44.1" height="10.3"/>
			<rect x="58.9" y="75.7" opacity="0.15" width="5.6" height="149.1"/>
			<rect x="78.7" y="164.6" opacity="0.15" width="5.6" height="60.2"/>
			<polygon opacity="0.1" points="58.9,138.6 0,100.4 0,164.6 5.6,164.6 5.6,224.8 11.3,224.8 11.3,164.6 25.4,164.6 25.4,224.8 
				31.1,224.8 31.1,164.6 58.9,164.6 			"/>
		</g>
		<path fill="none" stroke="#17244E" stroke-width="0.6266" stroke-miterlimit="10" d="M51.7,28.6c0,0-0.4-1.1-2.2-0.7
			c-1.8,0.4-1.8,2-1.8,2"/>
	</g>
</g>
<g id="Layer_2">
</g>
<g id="Layer_3">
</g>
<g id="Layer_4">
</g>
</svg>
