<?xml version="1.0" encoding="utf-8"?>
<!-- Generator: Adobe Illustrator 19.2.1, SVG Export Plug-In . SVG Version: 6.00 Build 0)  -->
<svg version="1.1" xmlns="http://www.w3.org/2000/svg" xmlns:xlink="http://www.w3.org/1999/xlink" x="0px" y="0px"
	 viewBox="0 0 63.3 41.2" enable-background="new 0 0 63.3 41.2" xml:space="preserve">
<g id="Layer_1">
	<g>
		<path fill="#1EBBEE" d="M52.9,0.6c-6.8,2.1-23,9.9-23,9.9l-16.7,7.3c0,0-1.8,2.9-6.8-2.1c0,0-3.1-3.1-5.2-2.6
			c-2.1,0.5-1,2.1-0.5,3.1s4.2,9.9,4.2,9.9s3.7,4.2,17.2-1.6c13.6-5.7,10.4-4.2,10.4-4.2l-3.7,19.8c0,0,0,2.1,2.1,0.5
			c2.1-1.6,3.7-3.1,3.7-3.1l10.4-22.9c0,0,15.7-7.3,17.8-9.9C64.9,2.2,59.7-1.5,52.9,0.6z"/>
		<path fill="#1EBBEE" d="M13.8,5.3l8.9,5.7c0,0,9.4-4.2,8.9-4.2c-0.5,0-12-4.7-14.6-4.2c-2.6,0.5-4.2,1.6-4.2,1.6
			S12.2,4.3,13.8,5.3z"/>
	</g>
</g>
<g id="Layer_2">
</g>
<g id="Layer_3">
</g>
<g id="Layer_4">
</g>
</svg>
