<?xml version="1.0" encoding="utf-8"?>
<!-- Generator: Adobe Illustrator 19.2.1, SVG Export Plug-In . SVG Version: 6.00 Build 0)  -->
<svg version="1.1" xmlns="http://www.w3.org/2000/svg" xmlns:xlink="http://www.w3.org/1999/xlink" x="0px" y="0px"
	 viewBox="0 0 153 234" enable-background="new 0 0 153 234" xml:space="preserve">
<g id="Layer_1">
</g>
<g id="Layer_2">
</g>
<g id="Layer_3">
	<g>
		<path fill="#FDB813" d="M105.8,31.1l5.4-0.2l1.1,4.7l13.1,1.8l-5.9,42.5l-15-2.1l5-35.7C109.8,39.1,109.9,33,105.8,31.1"/>
		<polygon fill="#FDB813" points="96.7,27.1 93,41.2 100.8,41 		"/>
		<path fill="#FDB813" d="M127.9,16.6l2.3,13l-2.2,4.2c0,1.1,0.2-2.7,0-1.6l-5.2,8.6c-1.1,3.5-2.5,6.3-4.2,8.8
			c-3.5,4-9.9,7.6-21.5,6.6L96,17.5L127.9,16.6z"/>
		<path fill="#1D4583" d="M103.8,34.1c0,0.7,0.6,1.3,1.3,1.2c0.7,0,1.3-0.6,1.2-1.3c0-0.7-0.6-1.3-1.3-1.2
			C104.3,32.8,103.8,33.4,103.8,34.1"/>
		<path fill="#F68C1F" d="M135.7,18.5c-0.8-6.2-3-12.8-7.7-16.3c-1.4,3.3-4.8,7.1-4.4,9.4c0,0.2-7,6.2-0.8,18.3c0,0-4.6-0.1,0.2,8.7
			C122.9,38.7,137.5,36.4,135.7,18.5"/>
		<path fill="#F68C1F" d="M96.8,17.3l-4.9-2.8c4.9-8.9,14-5.8,14-5.8l-4.6-6.2c11.1-3.3,17.9,6.2,17.9,6.2l-3.4-8.2
			C131.3,1.8,134,16,134,16l0.4,12.4l-6.4,5.3l-8.3-3.6l0.2,2.3l-3.5-0.5c-9.1-2.6-11.2-8.1-11.2-8.1l1.1,4.4
			c-5.9-1.7-8.2-4.2-8.9-6.3l-3.3,1.7C93.1,20,95.4,18.1,96.8,17.3"/>
		<path fill="#FDB813" d="M118.8,27.4c3.6-0.1,6.5,2.7,6.6,6.3c0.1,3.6-2.7,6.5-6.3,6.6L118.8,27.4z"/>
		<path fill="#F68C1F" d="M119.2,30.7c1.7,0,3.1,1.4,3.1,3.1c0,1.7-1.4,3.1-3.1,3.1L119.2,30.7z"/>
		<rect x="79.4" y="58.1" fill="#B8D433" width="67.2" height="98.2"/>
		<polygon opacity="0.1" points="79.4,144.7 79.4,119.4 146.6,66.2 146.6,144.7 		"/>
		<polygon fill="#2F2F2F" points="79.1,229.7 91.6,217.2 108.2,217.2 108.2,233.5 79.1,233.5 		"/>
		<polygon fill="#17244E" points="70.6,217.2 70.6,147.5 54.3,147.5 54.3,217.2 70.6,217.2 		"/>
		<polygon fill="#17244E" points="108.2,217.2 108.2,144.6 91.8,144.6 91.8,217.2 108.2,217.2 		"/>
		<polygon fill="#17244E" points="54.3,161.1 125.4,161.1 125.4,144.7 54.3,144.7 54.3,161.1 		"/>
		<path fill="#FDB813" d="M69.5,117.6c-0.1,0-0.1,0.1-0.2,0.1c-2.6,1.5-6,0.7-7.5-1.9c-1.5-2.6-0.6-5.9,2-7.5c0.1,0,0.1-0.1,0.2-0.1
			l0,0l4.9-2.9l5.5,9.4L69.5,117.6L69.5,117.6z"/>
		<path fill="#FAB223" d="M2.4,88.1c-0.1,0-0.1-0.1-0.2-0.1c-2.2-1.9-2.5-5.2-0.7-7.4C3.4,78.3,6.8,78.1,9,80c0.1,0,0.1,0.1,0.1,0.2
			l0,0l4.2,3.5l-6.8,8L2.4,88.1L2.4,88.1z"/>
		<path fill="#B8D433" d="M13.4,96.2c-2.9-1.6-6-3.7-7.2-4.8l3.8-4.1l3.4-3.6c0.3,0.2,7.1,4.7,17.2,7.7c5.7,1.7,16,2,22.9-0.7
			c9.4-3.6,21.9-11,32.1-21.1l8.9,5.6c-4.2,14.2-26.6,23.2-36.4,26.9c-7.7,2.9-15.9,4.5-27,1.2C21.1,100.4,15.6,97.4,13.4,96.2z"/>
		<polygon fill="#2F2F2F" points="41.6,229.7 54.1,217.2 70.6,217.2 70.6,233.5 41.6,233.5 		"/>
		<g>
			
				<rect x="70.9" y="101.6" transform="matrix(0.8734 -0.487 0.487 0.8734 -42.3448 51.132)" fill="#B8D433" width="12.5" height="10.9"/>
		</g>
		<rect x="86.2" y="79.7" fill="#1EBBEE" width="66.5" height="91.7"/>
		<rect x="141.1" y="162.1" fill="#1EBBEE" width="11.6" height="71.4"/>
		<rect x="86.2" y="162.1" fill="#1EBBEE" width="11.6" height="71.4"/>
		<rect x="114.8" y="162.1" fill="#1EBBEE" width="11.6" height="71.4"/>
		<rect x="59.9" y="162.1" fill="#1EBBEE" width="11.6" height="71.4"/>
		<rect x="59.9" y="160.7" fill="#1EBBEE" width="45.5" height="10.7"/>
		<rect x="86.2" y="79.7" opacity="0.15" width="5.8" height="153.8"/>
		<rect x="65.7" y="171.4" opacity="0.15" width="5.8" height="62.1"/>
		<polygon opacity="0.1" points="92,144.6 152.7,105.2 152.7,171.4 146.9,171.4 146.9,233.5 141.1,233.5 141.1,171.4 126.4,171.4 
			126.4,233.5 120.6,233.5 120.6,171.4 92,171.4 		"/>
	</g>
</g>
<g id="Layer_4">
</g>
</svg>
