<?xml version="1.0" encoding="utf-8"?>
<!-- Generator: Adobe Illustrator 19.2.1, SVG Export Plug-In . SVG Version: 6.00 Build 0)  -->
<svg version="1.1" xmlns="http://www.w3.org/2000/svg" xmlns:xlink="http://www.w3.org/1999/xlink" x="0px" y="0px"
	 viewBox="0 0 137 238" enable-background="new 0 0 137 238" xml:space="preserve">
<g id="Layer_1">
</g>
<g id="Layer_2">
	<g>
		<path fill="#FCF4A1" d="M131.7,124.5c0.1,0,0.1,0,0.2,0c2.9-0.3,5-2.9,4.7-5.8c-0.3-2.9-3-4.9-5.9-4.6c-0.1,0-0.1,0-0.2,0l0,0
			l-5.5,0.6l1.2,10.4L131.7,124.5L131.7,124.5z"/>
		<path fill="#FCF4A1" d="M83.6,121.9c0.1,0,0.1,0.1,0.2,0.1c2.6,1.5,6,0.7,7.5-1.9c1.5-2.6,0.6-5.9-2-7.5c-0.1,0-0.1-0.1-0.2-0.1
			l0,0l-4.9-2.9l-5.5,9.4L83.6,121.9L83.6,121.9z"/>
		<g>
			
				<rect x="70.4" y="105.1" transform="matrix(0.487 -0.8734 0.8734 0.487 -58.3692 123.4071)" fill="#17234E" width="10.9" height="12.5"/>
		</g>
		<g opacity="0.15">
			<rect x="70.4" y="105.1" transform="matrix(0.487 -0.8734 0.8734 0.487 -58.3692 123.4071)" width="10.9" height="12.5"/>
		</g>
		<rect x="6.5" y="62.5" fill="#17234E" width="67.2" height="98.2"/>
		<polygon opacity="0.1" points="73.7,149.1 73.7,123.8 6.5,70.6 6.5,149.1 		"/>
		<path fill="#FCF4A1" d="M50.9,45.3l-5-1.8l-1.7,4.2h-9.1l0,14.8h10.8l0-8.5C46.1,51.2,46.9,46.5,50.9,45.3z"/>
		<polygon fill="#17244E" points="74,234.1 61.4,221.5 44.9,221.5 44.9,237.9 74,237.9 		"/>
		<polygon fill="#F58B21" points="82.4,221.5 82.4,151.9 98.8,151.9 98.8,221.5 82.4,221.5 		"/>
		<polygon fill="#F58B21" points="44.9,221.5 44.9,149 61.3,149 61.3,221.5 44.9,221.5 		"/>
		<polygon fill="#F58B21" points="98.8,165.5 27.6,165.5 27.6,149.1 98.8,149.1 98.8,165.5 		"/>
		<polygon fill="#17244E" points="111.5,234.1 99,221.5 82.4,221.5 82.4,237.9 111.5,237.9 		"/>
		<path fill="#FFD566" d="M55.7,22c0,0,5.3,6.7,7.6,15.8l-7.6,1L55.7,22z"/>
		<path fill="#FCF4A1" d="M20.3,15.7l3.1,23.9l0.1,0.1c3.4,17.7,18.9,21.2,37,18.8l-0.2-1.6l-1.8-13.6l-2.2-17l-2-15L20.3,15.7z"/>
		<path fill="#17244E" d="M12.2,13.2c2-2.2,5.2-2.9,8.2-2.5c0.3-1.6,1-3.1,1.9-3.9C24,5.5,25.6,5,27.8,4.8c2.6-0.3,4.2-1,6.2-2.6
			c6.7-5.2,19.3,0.1,20.2,9.1l-0.2,0.1l0.3,0c-0.8,5.3-8.2,9.4-12.9,10.3c-2.7,0.5-4.6,0.4-6.3,1.4l0,0c0,0,3.7,24.3,17.3,22.5
			c0,0,0.3-6.4,5.7-7.1l2.6,20.1c0,0-23,9.2-26.5-17.5L32,30.8c-0.1,4.7-1.3,11.8-6.4,16c0,0,0-0.1,0-0.1l0,0
			c-5-1.9-4.2-6.2-5.4-10.4c-0.9-3.2-5-6.7-7.1-9.4C10.6,23.7,9.1,16.5,12.2,13.2z"/>
		<path fill="#FCF4A1" d="M31.9,25.8c-4.2,0.6-7.2,4.4-6.6,8.6c0.5,4.2,4.4,7.2,8.6,6.6L31.9,25.8z"/>
		<path opacity="0.15" d="M32.4,29.6c-2.1,0.3-3.6,2.2-3.3,4.3c0.3,2.1,2.2,3.6,4.3,3.3L32.4,29.6z"/>
		<path fill="#17244E" d="M118.6,125.2c3.3,0.3,7.1,0.2,8.7,0l-0.9-5.5l-0.8-4.9c-0.4,0-8.5,0-18.6-3.1c-5.6-1.8-14.4-7.3-18.6-13.3
			c-5.8-8.2-12.1-21.3-14.9-35.3L63,62.8c-4.4,14.1,9.2,34.1,15.3,42.6c4.8,6.7,10.7,12.6,21.8,16C109.8,124.4,116,125,118.6,125.2z
			"/>
		<rect x="0.4" y="84" fill="#04AF91" width="66.5" height="91.7"/>
		<rect x="0.4" y="166.5" fill="#04AF91" width="11.6" height="71.4"/>
		<rect x="55.3" y="166.5" fill="#04AF91" width="11.6" height="71.4"/>
		<rect x="26.6" y="166.5" fill="#04AF91" width="11.6" height="71.4"/>
		<rect x="81.5" y="166.5" fill="#04AF91" width="11.6" height="71.4"/>
		<rect x="47.7" y="165.1" fill="#04AF91" width="45.5" height="10.7"/>
		<rect x="61.1" y="84" opacity="0.15" width="5.8" height="153.8"/>
		<rect x="81.5" y="175.7" opacity="0.15" width="5.8" height="62.1"/>
		<polygon opacity="0.1" points="61.1,149 0.4,109.6 0.4,175.7 6.2,175.7 6.2,237.9 12,237.9 12,175.7 26.6,175.7 26.6,237.9 
			32.4,237.9 32.4,175.7 61.1,175.7 		"/>
		<path fill="none" stroke="#17244E" stroke-width="0.6266" stroke-miterlimit="10" d="M52.8,26.7c0,0-0.4-1.1-2.2-0.7
			c-1.8,0.4-1.8,2-1.8,2"/>
	</g>
</g>
<g id="Layer_3">
</g>
<g id="Layer_4">
</g>
</svg>
