<?xml version="1.0" encoding="utf-8"?>
<!-- Generator: Adobe Illustrator 19.2.1, SVG Export Plug-In . SVG Version: 6.00 Build 0)  -->
<svg version="1.1" xmlns="http://www.w3.org/2000/svg" xmlns:xlink="http://www.w3.org/1999/xlink" x="0px" y="0px"
	 viewBox="0 0 36.8 31" enable-background="new 0 0 36.8 31" xml:space="preserve">
<g id="Layer_1">
</g>
<g id="Layer_2">
	<g>
		<path d="M36.2,10.8c0.1-0.2,0.1-0.7,0.1-0.7c0-0.4-0.3-0.7-0.8-1c-0.2-0.5-1.8-2-2.4-2.4L31.6,6c-0.3-0.1-0.7-0.3-1.1-0.2
			c-0.2,0.1-1.3,0.2-1.6,0.1l-4.2-1.7l-4.4-1.8c-0.3-0.1-1-1-1.1-1.2c-0.1-0.2-0.6-0.4-1-0.6L16.7,0c-0.7-0.1-2.8,0-3.4,0.1
			c-0.6,0-1,0-1.1,0.3c-0.2,0.1-0.7,0.7-0.7,0.7c1.3-0.2,4.6,0.2,5.8,0.7c1,0.4,1.1,1.6,1.6,2.9c0.4,1.8,0.7,2.1,1.6,2.5l4.9,2
			c0.7,0.3,1.1,0.2,2.8-0.7c1.1-0.7,2-1.4,3.1-1s3.8,2.4,4.7,3.5L36.2,10.8z"/>
		<path fill="#FFFFFF" d="M25.3,6.9C25,7.7,24,8.2,23,7.8c-0.8-0.3-1.4-1.5-1.1-2.3c0.4-1,1.5-1.2,2.3-0.9C25.3,5,25.7,5.9,25.3,6.9
			"/>
		<path d="M24.4,5.7c0.2-0.1,0.6-0.1,1-0.1c-0.5-0.2-0.8-0.3-1.4-0.4c-0.3-0.3-0.8-0.5-1.1-0.6c0.3,0.3,0.6,0.6,0.7,0.8
			c-0.5,0.2-1,0.5-1.6,1.4c0,0,0.8-0.6,1.8-1c0.6,1,0.8,2,0.8,2C24.8,6.8,24.6,6.2,24.4,5.7"/>
		<path fill="#333333" d="M36.7,12.4c0.1-0.9-0.6-1.4-0.6-1.4l0.1-0.2L36.1,11c-0.9-1.1-3.5-3.1-4.7-3.5c-1.2-0.5-2.1,0.3-3.1,1
			c-1.8,1-2.2,1-2.8,0.7l-4.9-2c-0.8-0.3-1.1-0.6-1.6-2.5c-0.5-1.3-0.6-2.5-1.6-2.9c-1.2-0.5-4.6-0.9-5.8-0.7c0,0-0.7-0.1-1.4,0.5
			C9.2,2.4,2,9.7,0.6,13.2c-1.9,4.6,1.5,6.5,1.9,6.7c0.3,0.1,5.5-2,7.1-2.5c1.6-0.6,2.5-0.3,3.3,0l5.6,2.2l5.6,2.2
			c0.7,0.3,1.7,0.7,2.4,2.3c0.8,1.4,2.9,6.5,3.2,6.7c0.3,0.1,4.1,1.1,5.9-3.5C37.1,23.8,36.9,13.5,36.7,12.4"/>
		<path fill="#505050" d="M28,18.3c-0.7,1.7-2.8,2.6-4.7,1.8c-1.9-0.7-2.6-2.7-1.9-4.5c0.6-1.6,2.6-2.5,4.4-1.7
			C27.7,14.7,28.7,16.7,28,18.3"/>
		<path d="M27.5,18.1c-0.6,1.6-2.4,2.2-4,1.5c-1.5-0.6-2.4-2.3-1.8-3.9c0.6-1.4,2.4-2.2,4-1.5C27.3,14.8,28.1,16.7,27.5,18.1"/>
		<path d="M18.5,14.5c-0.6,1.6-2.4,2.2-4,1.5c-1.7-0.7-2.4-2.3-1.8-3.9c0.6-1.4,2.3-2.2,4-1.5C18.3,11.2,19.1,13,18.5,14.5"/>
		<path fill="#505050" d="M16.6,7.6C15.9,9.2,13.8,10,12,9.3c-1.7-0.7-2.6-2.7-2-4.3c0.7-1.7,2.8-2.6,4.5-1.9
			C16.3,3.8,17.3,5.8,16.6,7.6"/>
		<path d="M16.1,7.4c-0.6,1.4-2.3,2.2-4,1.5c-1.5-0.6-2.4-2.4-1.8-3.9c0.6-1.6,2.4-2.2,4-1.5C16,4.2,16.7,5.8,16.1,7.4"/>
		<path d="M31.6,16.2c-0.3,0.8-1.2,1-1.9,0.7c-0.7-0.3-1.2-1-0.8-1.8c0.3-0.6,1.1-0.8,1.8-0.6C31.4,14.8,31.9,15.6,31.6,16.2"/>
		<path d="M33.4,11.9c-0.3,0.6-1.2,1-1.9,0.7c-0.7-0.3-1.1-1.2-0.8-1.8c0.3-0.6,1.2-1,1.9-0.7C33.2,10.4,33.6,11.3,33.4,11.9"/>
		<path d="M34.7,15c-0.3,0.6-1,1.1-1.9,0.7c-0.7-0.3-0.9-1.1-0.7-1.7c0.3-0.6,1-1.1,1.7-0.8C34.7,13.6,34.9,14.4,34.7,15"/>
		<path d="M30.1,13.2c-0.3,0.6-1,1.1-1.7,0.8c-0.8-0.3-1.1-1.2-0.8-1.8c0.3-0.6,1-1.1,1.9-0.7C30.1,11.7,30.3,12.6,30.1,13.2"/>
		<path fill="#505050" d="M26.7,17.7c-0.4,1.1-1.8,1.5-2.8,1.1s-1.5-1.5-1.1-2.7c0.4-1,1.6-1.4,2.6-1C26.4,15.6,27.1,16.8,26.7,17.7
			"/>
		<path d="M20.6,9.4c-0.2,0.5-0.7,0.7-1.2,0.5s-0.7-0.7-0.5-1.1c0.2-0.5,0.7-0.7,1.2-0.5C20.6,8.5,20.8,8.9,20.6,9.4"/>
		<path d="M25.5,11.4c-0.2,0.5-0.7,0.7-1.2,0.5c-0.3-0.1-0.7-0.7-0.5-1.1c0.2-0.5,0.8-0.6,1.2-0.5C25.5,10.4,25.7,10.9,25.5,11.4"/>
		<path fill="#FAD016" d="M31.6,12l0.2-0.5l0-0.9l0.3,0.1L32,11c0.1,0.2,0.1,0.2,0,0.4c0.1-0.2,0.2-0.1,0.3-0.2l0.3-0.2l0.3,0.1
			l-0.8,0.6l-0.2,0.5L31.6,12z"/>
		<path fill="#7FBA42" d="M30.4,15.8l0-0.4l0.1-0.2l-0.1,0.2l-0.3,0.2L30.4,15.8z M30,15.8l-0.4,0.4l-0.2-0.1l0.9-1.1l0.3,0.1l0,1.5
			l-0.3-0.1l0-0.5L30,15.8z"/>
		<path fill="#1EBAED" d="M28.8,13.4l0-0.4l0.1-0.2c-0.2-0.1-0.2,0.1-0.2,0.1l-0.3,0.2L28,13.1l0.8-0.4l-0.3-0.8l0.3,0.1l0.1,0.2
			c-0.1,0.2-0.1,0.2,0,0.4l0.1-0.3l0.2-0.1l0.3,0.1l-0.6,0.5l0.1,0.8L28.8,13.4z"/>
		<path fill="#E61E27" d="M32.9,14.9l0.2,0.1c0.2,0.1,0.4,0,0.5-0.2c0,0-0.1-0.2-0.3-0.3l-0.2-0.1L32.9,14.9z M33.2,14.3l0.2,0.1
			c0.2,0.1,0.3,0.1,0.4,0c0.1-0.2-0.1-0.2-0.3-0.3L33.3,14L33.2,14.3z M33.2,13.7l0.3,0.1l0.3,0.1c0.1,0.2,0.1,0.2,0,0.4
			c-0.1,0.2-0.1,0.2-0.3,0.2c0.2,0.1,0.3,0.1,0.2,0.5l-0.2,0.1c-0.2,0.1-0.4,0-0.6,0L32.7,15L33.2,13.7z"/>
		<path fill="#505050" d="M18.2,13.4l-1.4-0.5l0.5-1.3c0.1-0.2,0-0.4-0.2-0.5l-1.2-0.5c-0.2-0.1-0.2,0.1-0.3,0.2l-0.5,1.3l-1.5-0.6
			c-0.2-0.1-0.2,0.1-0.3,0.2l-0.4,1.1c-0.1,0.2-0.1,0.3,0,0.4l1.5,0.6l-0.5,1.3c-0.1,0.2-0.1,0.3,0,0.4l1.2,0.5
			c0.2,0.1,0.4,0,0.5-0.2l0.5-1.3l1.4,0.5c0.2,0.1,0.4,0,0.5-0.2l0.4-1.1C18.5,13.7,18.3,13.5,18.2,13.4"/>
		<path fill="#505050" d="M15.2,7.1c-0.4,1-1.6,1.4-2.7,0.9c-1-0.4-1.5-1.5-1.2-2.5c0.4-1.1,1.6-1.6,2.6-1.2
			C15.1,4.8,15.7,5.9,15.2,7.1"/>
	</g>
</g>
<g id="Layer_3">
</g>
<g id="Layer_4">
</g>
</svg>
