<?xml version="1.0" encoding="utf-8"?>
<!-- Generator: Adobe Illustrator 19.2.1, SVG Export Plug-In . SVG Version: 6.00 Build 0)  -->
<svg version="1.1" xmlns="http://www.w3.org/2000/svg" xmlns:xlink="http://www.w3.org/1999/xlink" x="0px" y="0px"
	 viewBox="0 0 185.5 246.6" enable-background="new 0 0 185.5 246.6" xml:space="preserve">
<g id="Layer_1">
	<g>
		<g>
			<polygon fill="#FDB813" points="118.3,43.1 101.9,38 87.3,33.5 84.9,40.3 125.6,59.4 130.3,46.8 			"/>
		</g>
		<polygon fill="#F58921" points="94.3,16.2 91.8,26.6 97.5,26.3 		"/>
		<path opacity="0.1" d="M125.5,246.6c4.5,0,8.2-3.7,8.2-8.2c0-4.5-3.7-8.2-8.2-8.2l-91.2,0c-4.5,0-8.2,3.7-8.2,8.2
			c0,4.5,3.7,8.2,8.2,8.2L125.5,246.6z"/>
		<polygon fill="#59595C" points="114.2,235.5 107.8,221.1 94,217.3 89.5,230.6 113.1,238.6 		"/>
		<polygon fill="#E6E6E6" points="93.8,218.1 101.9,180.2 79,125.5 92.2,119.9 116.9,178.7 107.8,221.1 107.8,221.1 93.8,218.1 		
			"/>
		<polygon fill="#E6E6E6" points="23.8,158.6 58.4,159.6 59.3,121.6 73.6,122 72.3,174.3 23.4,172.9 23.8,158.6 		"/>
		<g>
			<path fill="#FDB813" d="M28.5,68.3l5.4-8.2c2.7,1.8,5.3,2.8,7.9,3.3l0,0c4.8,0.9,9.9-0.1,15-2.5l0,0c5.1-2.3,10.2-6,14.6-9.9l0,0
				c8.9-7.8,15.2-16.6,15.8-17.5l0,0c0-0.1,0-0.1,0-0.1h0l8.1,5.6c-0.1,0.1-3.8,5.4-9.7,11.8l0,0c-6,6.4-14.3,14-24.1,18.6l0,0
				c-6.5,3.1-13.9,4.8-21.5,3.5l0,0c0,0,0,0,0,0l0,0C36.2,72.4,32.2,70.8,28.5,68.3L28.5,68.3z"/>
			<path fill="#FDB813" d="M24.8,65.3c0,0-0.1-0.1-0.2-0.1c-2.1-1.7-2.4-4.8-0.6-6.9c1.7-2.1,4.8-2.4,6.9-0.6c0.1,0,0.1,0.1,0.1,0.1
				l0,0L35,61l-6.3,7.6L24.8,65.3L24.8,65.3z"/>
		</g>
		<path opacity="0.1" d="M63.5,68.6c0.1,0,0.2-0.1,0.2-0.1c0.6-0.3,1.1-0.6,1.7-0.9c0,0,0.1,0,0.1-0.1c1.2-0.7,2.4-1.4,3.6-2.2l0,0
			c3.9-2.6,7.4-5.5,10.6-8.4l3.3-9.4C47.8,87.6,24,58.3,24,58.3l-0.6,1c-0.4,0.7-0.5,1.5-0.5,2.3c0,0,0,0,0,0.1c0,0.3,0,0.5,0.1,0.8
			c0,0,0,0,0,0c0.1,0.2,0.1,0.5,0.2,0.7c0,0,0,0,0,0c0.1,0.2,0.2,0.4,0.3,0.7c0,0,0,0.1,0.1,0.1c0.1,0.2,0.3,0.4,0.4,0.6
			c0,0,0.1,0.1,0.1,0.1c0.2,0.2,0.3,0.4,0.6,0.5c0.1,0,0.1,0.1,0.2,0.1l0,0l3.6,3l0,0c0,0,0,0,0,0l0.3,0.2l0,0l0,0l0,0
			c2.1,1.3,4.2,2.4,6.3,3.2c1.7,0.6,3.3,1.1,5,1.4c0,0,0,0,0,0c7.6,1.3,15-0.4,21.5-3.5C62.2,69.3,62.9,69,63.5,68.6z"/>
		<polygon fill="#59595C" points="12.3,183.3 23.4,172.8 23.8,158.6 9.8,158.2 9.1,183.2 		"/>
		<polygon fill="#E13490" points="178.8,66.2 145.9,87.2 121.8,53.3 129.8,47.6 148.5,73.9 173.5,57.9 178.8,66.2 		"/>
		<path fill="#FDB813" d="M184.8,56.6c-1.5-2.3-4.5-3-6.8-1.5c-0.1,0-0.1,0.1-0.2,0.1l0,0l-4.3,2.7l0,0l-25,16l-18.7-26.3l-8,5.7
			l24.1,33.9l32.9-21l0,0l4.3-2.7l0,0c0.1,0,0.1-0.1,0.2-0.1C185.5,62,186.2,58.9,184.8,56.6z"/>
		<path opacity="0.1" d="M127.7,53.3l-1.9,5.6l0.4,0.6l19.7,27.6l32.9-21l0,0l4.3-2.7l0,0c0.1,0,0.1-0.1,0.2-0.1
			c2-1.3,2.7-3.7,2-5.8l-0.5-1l-37.5,23.7L127.7,53.3z"/>
		
			<rect x="84.9" y="134.1" transform="matrix(0.9218 -0.3876 0.3876 0.9218 -46.3953 46.5194)" fill="#59595C" width="14.4" height="8.4"/>
		
			<rect x="59.1" y="127" transform="matrix(0.9992 4.083726e-002 -4.083726e-002 0.9992 5.4119 -2.5965)" fill="#59595C" width="14.4" height="8.4"/>
		
			<rect x="58.7" y="142.2" transform="matrix(0.9997 2.339319e-002 -2.339319e-002 0.9997 3.4421 -1.4998)" fill="#59595C" width="14.3" height="8.4"/>
		
			<rect x="58.4" y="157.4" transform="matrix(0.9998 1.908283e-002 -1.908283e-002 0.9998 3.0952 -1.2214)" fill="#59595C" width="14.2" height="8.4"/>
		
			<rect x="47.5" y="162.4" transform="matrix(-1.908275e-002 0.9998 -0.9998 -1.908275e-002 222.206 115.2043)" fill="#59595C" width="14.2" height="8.4"/>
		
			<rect x="30.6" y="162" transform="matrix(-1.908276e-002 0.9998 -0.9998 -1.908276e-002 204.6597 131.5122)" fill="#59595C" width="14.4" height="8.4"/>
		
			<rect x="91.6" y="149.8" transform="matrix(0.9218 -0.3876 0.3876 0.9218 -51.9579 50.3116)" fill="#59595C" width="14.4" height="8.4"/>
		
			<rect x="98.1" y="165.5" transform="matrix(0.9218 -0.3876 0.3876 0.9218 -57.5242 54.0858)" fill="#59595C" width="14.4" height="8.4"/>
		
			<rect x="100.9" y="181.9" transform="matrix(0.9759 0.2184 -0.2184 0.9759 43.2472 -19.1008)" fill="#59595C" width="14.3" height="8.4"/>
		
			<rect x="97.8" y="196.7" transform="matrix(0.9759 0.2184 -0.2184 0.9759 46.4118 -18.0405)" fill="#59595C" width="14.1" height="8.4"/>
		
			<rect x="94.4" y="211.6" transform="matrix(0.9759 0.2184 -0.2184 0.9759 49.5849 -16.9746)" fill="#59595C" width="14.3" height="8.4"/>
		<polygon opacity="0.1" points="109.2,179.6 97.7,233.4 113.1,238.6 114.2,235.5 107.8,221.1 100.8,219.6 107.8,221.1 107.8,221.1 
			116.9,178.7 95.7,128.3 88.4,129.2 		"/>
		<polygon opacity="0.1" points="12.3,183.3 23.4,172.8 23.4,172.9 72.3,174.3 73.6,123.4 66.4,123.2 65.3,166.9 9.6,165.3 
			9.1,183.2 		"/>
		<g>
			<g>
				
					<rect x="6.1" y="41.7" transform="matrix(0.1663 -0.9861 0.9861 0.1663 -42.1643 69.3138)" opacity="0.1" fill="#E6E6E6" width="27.6" height="35.7"/>
			</g>
			<g>
				
					<rect x="6.1" y="41.7" transform="matrix(0.1663 -0.9861 0.9861 0.1663 -42.1643 69.3138)" fill="#D0D1D2" width="27.6" height="35.7"/>
			</g>
		</g>
		<g>
			<path fill="#E6E6E6" d="M118.3,43.1c-2.1,3.3-6.2,5-10.1,3.8c-3.9-1.2-6.4-4.9-6.2-8.9l-14.6-4.5l-9.9,27.8L55.8,122l48,14.9
				c0.1-7.6,0.2-21.4,0.7-35c0.2-0.3,0.5-0.7,0.8-1.1c6.7-10.2,20.3-41.4,20.3-41.4l4.7-12.5L118.3,43.1z"/>
			<g>
				<defs>
					<path id="SVGID_3_" d="M118.3,43.1c-2.1,3.3-6.2,5-10.1,3.8c-3.9-1.2-6.4-4.9-6.2-8.9l-14.6-4.5l-9.9,27.8L55.8,122l48,14.9
						c0.1-7.6,0.2-21.4,0.7-35c0.2-0.3,0.5-0.7,0.8-1.1c6.7-10.2,20.3-41.4,20.3-41.4l4.7-12.5L118.3,43.1z"/>
				</defs>
				<clipPath id="SVGID_2_">
					<use xlink:href="#SVGID_3_"  overflow="visible"/>
				</clipPath>
				<g clip-path="url(#SVGID_2_)">
					
						<rect x="81.5" y="46.6" transform="matrix(0.9561 0.2929 -0.2929 0.9561 19.4701 -28.4794)" fill="#59595C" width="46.6" height="8.4"/>
					
						<rect x="75.8" y="61.6" transform="matrix(0.9561 0.2929 -0.2929 0.9561 23.5846 -25.9817)" fill="#59595C" width="45.5" height="8.4"/>
					
						<rect x="70.1" y="76.6" transform="matrix(0.9561 0.2929 -0.2929 0.9561 27.7247 -23.6547)" fill="#59595C" width="45.5" height="8.4"/>
					
						<rect x="62.3" y="91.6" transform="matrix(0.9561 0.2929 -0.2929 0.9561 31.7726 -20.7123)" fill="#59595C" width="45.5" height="8.4"/>
					
						<rect x="60.7" y="106.5" transform="matrix(0.9561 0.2929 -0.2929 0.9561 36.1618 -20.0492)" fill="#59595C" width="48.6" height="8.4"/>
					
						<rect x="54.3" y="121.5" transform="matrix(0.9561 0.2929 -0.2929 0.9561 40.4136 -18.4682)" fill="#59595C" width="55.2" height="8.4"/>
				</g>
			</g>
		</g>
		<path opacity="0.1" d="M104.5,101.8c0.2-0.3-27.1-40.5-27.1-40.5L55.8,122l48,14.9C103.8,129.3,104,115.4,104.5,101.8z"/>
		<path fill="#FDB813" d="M110.7,16.3c-0.2-0.2-0.5-0.3-0.7-0.6c-0.3-0.3-0.6-0.5-0.9-0.7c-1.6-1-3-0.5-5.3-0.6
			c-3.2,0-8.7-2-10.1-5.3l0.5,10.2l0.5,11.6l0.3,6.2c8.4,0.6,13-2.1,15.5-5.1c0.1-0.2,0.2-0.4,0.3-0.5c0.8-1.3,1.6-2.8,2.2-4.6
			C110.1,23.1,110.6,16.8,110.7,16.3z"/>
		<path fill="#FDB813" d="M103.1,27.8l4.3-0.9l0.9,3.6l7.3,0.9l-1.6,12l-8.7-1.1l0.9-6.8C106.4,33.1,106.2,29.2,103.1,27.8z"/>
		<path d="M99.5,21.2c0,0.5,0.5,0.9,1,0.9c0.5,0,0.9-0.5,0.9-1c0-0.5-0.5-0.9-1-0.9C99.9,20.3,99.5,20.7,99.5,21.2"/>
		<path fill="#17244E" d="M99.5,21.2c0,0.5,0.5,0.9,1,0.9c0.5,0,0.9-0.5,0.9-1c0-0.5-0.5-0.9-1-0.9C99.9,20.3,99.5,20.7,99.5,21.2"
			/>
		<g>
			<path fill="#17244E" d="M127.3,12c-1.9-5.1-7.2-6.1-10.7-5c0-1.8-1-3.9-2.2-4.6c-1.3-0.7-2.4-0.8-3.9-0.7c-1.8,0.1-2.9-0.2-4.5-1
				c-5.1-2.7-13,2.4-12.4,8.5c1.4,3.3,6.8,5.2,10.1,5.3c2.3,0,3.7-0.4,5.3,0.6c0.3,0.2,0.6,0.4,0.9,0.7c0.2,0.2,0.5,0.4,0.7,0.6
				c0,0.5-0.6,6.8,2.3,10.8c-0.6,1.7-1.4,3.2-2.2,4.6c0.8,0.7,1.9,1.2,3.4,1.1c5.1-0.2,5.9-6.5,9.2-9.3
				C126.9,20.6,129.3,17.5,127.3,12z"/>
		</g>
		<path fill="#FDB813" d="M110.4,16.2c2.6-0.1,4.8,1.9,4.9,4.5c0.1,2.6-1.9,4.8-4.5,4.9L110.4,16.2z"/>
		<path fill="#F58921" d="M110.5,18.5c1.3-0.1,2.4,0.9,2.5,2.2c0.1,1.3-0.9,2.4-2.2,2.5L110.5,18.5z"/>
		<path fill="#17244E" d="M114.4,31.9c0,0,21.5,4.7,16.7,26.2C131.1,58.2,109.6,53.4,114.4,31.9z"/>
		
			<text transform="matrix(0.9867 0.1627 -0.1627 0.9867 5.4146 58.8312)" fill="#515150" font-family="'SegoeUI-Light'" font-size="6.6811px">p@ssword</text>
	</g>
	<path fill="#59595C" d="M110.5,18.5l-2.5,5.7l-13.6,0.1l-0.2-5.2l-0.1-2l13.7-0.1l2.7-0.9L110.5,18.5z M100.5,20
		c-1.2,0-2.2,0.6-2.2,1.3c0,0.7,1,1.3,2.2,1.3c1.2,0,2.2-0.6,2.2-1.3C102.7,20.5,101.7,20,100.5,20z"/>
</g>
<g id="Layer_2">
</g>
<g id="Layer_3">
</g>
<g id="Layer_4">
</g>
</svg>
