<?xml version="1.0" encoding="utf-8"?>
<!-- Generator: Adobe Illustrator 19.2.1, SVG Export Plug-In . SVG Version: 6.00 Build 0)  -->
<svg version="1.1" xmlns="http://www.w3.org/2000/svg" xmlns:xlink="http://www.w3.org/1999/xlink" x="0px" y="0px"
	 viewBox="0 0 165 254" enable-background="new 0 0 165 254" xml:space="preserve">
<g id="Layer_1">
</g>
<g id="Layer_2">
</g>
<g id="Layer_3">
</g>
<g id="Layer_4">
	<g>
		<path opacity="0.1" d="M136.1,240.8c-0.3,0-0.7,0.1-1,0.1v-0.1l-127.6,0v0.1c-4,0.4-7.2,3.1-7.2,6.5c0,3.6,3.6,6.6,8.1,6.6
			c0.6,0,127.1,0,127.6,0c4.5,0,8.1-2.9,8.1-6.6C144.3,243.7,140.6,240.8,136.1,240.8"/>
		<polygon fill="#00B193" points="117.8,246.4 111.4,232 97.6,228.2 93.1,241.5 116.7,249.5 		"/>
		<polygon fill="#008372" points="97.4,229 105.5,191.1 82.6,136.4 95.8,130.8 120.5,189.6 111.4,232 111.4,232 97.4,229 		"/>
		<polygon fill="#008372" points="27.4,169.5 62,170.5 62.9,132.5 77.2,132.9 75.9,185.2 27,183.8 27.4,169.5 		"/>
		<polygon fill="#00B193" points="15.9,194.2 27,183.7 27.4,169.5 13.4,169.1 12.7,194.1 		"/>
		<path fill="#04AF91" d="M100.1,100.7c5.9-3.7,6.6-21.4,6.7-27.7v-2.2V47.3H57.3v101.7h49.4v-18.5
			C106.8,105.3,100.1,100.7,100.1,100.7"/>
		<path fill="#6E573E" d="M158.3,120.8l0.2,0c3.2,0.1,6-2.4,6.1-5.6c0.1-3.2-2.4-6-5.6-6.1l-0.2,0l0,0l-6-0.3l-0.5,11.7L158.3,120.8
			L158.3,120.8z"/>
		<path fill="#D5C7AA" d="M158.6,120.9c3.2,0.1,6-2.4,6.1-5.6c0-1-0.2-2-0.7-2.9c-2.2-1.8-5.5-1.8-7.6,0.2c-2.4,2.2-2.5,5.8-0.4,8.2
			l2.4,0.1l0,0L158.6,120.9z"/>
		<path fill="#A98864" d="M158.6,120.9c3.2,0.1,6-2.4,6.1-5.6c0-1-0.2-2-0.7-2.9c-2.2-1.8-5.5-1.8-7.6,0.2c-2.4,2.2-2.5,5.8-0.4,8.2
			l2.4,0.1l0,0L158.6,120.9z"/>
		<path fill="#008372" d="M106.8,149.9H94.4h-6.5H73.1h-6.5h-9.3V75.5l48.8,43.9c0.4,3.2,0.6,7.1,0.6,11.5v0v0v0v0v0v0v0.1v0v0v0
			v0.1V149.9"/>
		<path fill="#6E573E" d="M76.8,47.3c1,3.8,4.4,6.6,8.5,6.6c4.1,0,7.5-2.8,8.5-6.6H76.8z"/>
		<path fill="#010101" d="M97.9,24.2c0,0.6-0.6,1-1.1,1c-0.6,0-1-0.6-1-1.1c0-0.6,0.6-1,1.1-1C97.5,23.2,98,23.7,97.9,24.2"/>
		<polygon fill="#A98864" points="104.1,18.8 106.5,30.6 100,30.1 		"/>
		<path fill="#6E573E" d="M88.8,30.3l-1.2,4l-8.3,0.8l1.2,13.6l5.8,5.1l4.2-6L89.7,40c-0.1-2.6,0.3-7,3.8-8.5L88.8,30.3z"/>
		<path fill="#6E573E" d="M78.8,8.7l-1.5,18.5l0,0.1c0,0.9,0,1.8,0.1,2.7l4.6-1.1c0.7,2.9,1.8,5.3,3.1,7.4c2.7,3.4,7.8,6.7,17.4,6.4
			l0.6-7l1.1-13.2l1-11.6L78.8,8.7"/>
		<path fill="#1D4583" d="M105,10.8l0-0.2C105,10.7,104.9,10.8,105,10.8L105,10.8z"/>
		<polygon fill="#1D4583" points="65,10.6 65,10.6 65,10.6 		"/>
		<polygon fill="#1D4583" points="104.9,10.9 104.9,10.9 104.8,10.9 		"/>
		<path fill="#1B1C1C" d="M91.3,0.7c-1.8,0.9-3,1.1-5.1,0.9c-1.7-0.1-2.9-0.1-4.5,0.7c-1.4,0.7-2.5,3-2.7,5.1
			C73.7,7.9,67.9,8,65.4,13.7c-2.6,6.1,1.4,8.6,5.3,12.1c3.6,3.3,4.2,10.5,10,10.9c1.7,0.1,3-0.3,3.9-1.1c-1-1.8-1.9-3.9-2.6-6.3
			c2.5-4.3,3.1-9.4,3.2-11c0.4-0.2,0.7-0.4,1-0.7c0.4-0.3,0.7-0.5,1.1-0.7c1.9-1,3.4-0.5,6-0.4c3.7,0.1,9.8-1.8,11.5-5.6l-0.1,0
			l0.1,0c0-0.1,0.1-0.1,0.1-0.2l0,0C105.7,3.8,97.1-2,91.3,0.7"/>
		<path fill="#6E573E" d="M85.8,18.1c-2.9-0.2-5.5,1.9-5.8,4.9c-0.2,2.9,1.9,5.5,4.9,5.8L85.8,18.1"/>
		<polygon fill="#D9D181" points="85.2,25.3 85.6,20.7 85.6,20.7 		"/>
		<path fill="#A98864" d="M85.2,26c-1.5-0.1-2.6-1.4-2.4-2.9c0.1-1.3,1.1-2.3,2.4-2.4c0.2,0,0.3,0,0.5,0l-0.4,4.5L85.2,26"/>
		<path fill="#FFFFFF" d="M97.9,24.2c0,0.6-0.6,1-1.1,1c-0.6,0-1-0.6-1-1.1c0-0.6,0.6-1,1.1-1C97.5,23.2,98,23.7,97.9,24.2"/>
		<g>
			<g>
				<path fill="#4F504F" d="M130.2,43.1c0-0.1,0-0.2-0.1-0.2c-0.1,0-0.2,0-0.2,0.2l-0.1,0.2l0.6,0.2l0-0.1l-0.3-0.1L130.2,43.1
					L130.2,43.1l0.3,0l0-0.1L130.2,43.1L130.2,43.1z M130.1,43.2l0,0.1l-0.2-0.1l0-0.1c0-0.1,0.1-0.1,0.1-0.1
					C130.2,43,130.2,43.1,130.1,43.2z"/>
				<path fill="#4F504F" d="M129.6,43c-0.1,0.3,0.1,0.6,0.4,0.7c0.3,0.1,0.6-0.1,0.7-0.4c0.1-0.3-0.1-0.6-0.4-0.7
					C130,42.5,129.7,42.7,129.6,43z M130.7,43.3c-0.1,0.3-0.4,0.4-0.6,0.3c-0.3-0.1-0.4-0.4-0.4-0.6c0.1-0.3,0.4-0.4,0.6-0.3
					C130.6,42.8,130.8,43.1,130.7,43.3z"/>
			</g>
			<g>
				<g>
					<polygon fill="#4F504F" points="114.3,76.6 114.7,75.2 119.5,76.7 120.2,74.2 121.5,74.6 120.4,78.4 					"/>
					<g>
						<path fill="#4F504F" d="M117.5,72.8l0.4-1.3l4.1,1.2l-0.4,1.3L117.5,72.8z M115.7,71.5c0.1-0.4,0.6-0.6,1-0.5
							c0.4,0.1,0.6,0.6,0.5,1c-0.1,0.4-0.5,0.6-1,0.5C115.8,72.4,115.5,71.9,115.7,71.5"/>
					</g>
					<polygon fill="#4F504F" points="117.5,65.6 117.9,64.3 121.5,65.3 120.3,63.4 120.7,61.8 122.1,64.1 124.8,63.1 124.4,64.7 
						121.9,65.4 121.9,65.5 124,66.1 123.6,67.3 					"/>
					<path fill="#4F504F" d="M118.1,70.8l0.4-1.2l0.6,0.2l0,0c-0.3-0.3-0.5-0.8-0.3-1.4c0.4-1.3,1.3-1.3,2.4-1l2.3,0.7l-0.4,1.3
						l-2-0.6c-0.5-0.1-1.1-0.3-1.3,0.3c-0.2,0.7,0.3,0.9,0.8,1.1l2,0.6l-0.4,1.3L118.1,70.8z"/>
					<path fill="#4F504F" d="M123.1,59.6c-0.4-0.1-0.9,0.1-1,0.6c-0.2,0.6,0.1,1,0.5,1.1L123.1,59.6z M125.2,59
						c0.4,0.6,0.5,1.3,0.3,2c-0.4,1.3-1.5,2.1-2.9,1.7c-1.3-0.4-1.9-1.7-1.5-2.9c0.3-1.2,1.4-1.7,2.7-1.3l0.4,0.1l-0.9,3
						c0.5,0,0.9-0.2,1.1-0.7c0.1-0.4,0-0.8-0.2-1.1L125.2,59z"/>
					<path fill="#4F504F" d="M123.7,55.5c-0.2,0.6,0.1,1.2,0.8,1.3c0.6,0.2,1.2-0.1,1.4-0.7c0.2-0.6-0.1-1.2-0.8-1.3
						C124.4,54.6,123.8,54.8,123.7,55.5 M127.4,54.2l-0.3,1.2l-0.5-0.2l0,0c0.2,0.3,0.4,0.9,0.3,1.5c-0.4,1.2-1.5,1.8-2.7,1.4
						c-1.2-0.3-2-1.4-1.7-2.5c0.2-0.5,0.4-1,0.9-1.2l0,0l-2.4-0.7l0.4-1.3L127.4,54.2z"/>
				</g>
				<path fill="#4F504F" d="M122.8,42.7l-2.2,7.4c-0.1,0.4,0.1,0.7,0.4,0.8l7.4,2.2c0.3,0.1,0.7-0.1,0.8-0.5l2.2-7.4
					c0.1-0.4-0.1-0.7-0.4-0.8l-7.4-2.2C123.2,42.2,122.9,42.4,122.8,42.7z M128.6,50.3l-0.4,1.3l-4.1-1.2l0.4-1.3L128.6,50.3z
					 M123.7,49.6c-0.1,0.4-0.6,0.6-1,0.5c-0.4-0.1-0.6-0.5-0.5-1c0.1-0.4,0.6-0.6,1-0.5C123.6,48.8,123.8,49.2,123.7,49.6z
					 M130,45.5l-0.4,1.3l-2-0.6c-0.5-0.1-1.1-0.3-1.3,0.3c-0.2,0.7,0.3,0.9,0.8,1.1l2,0.6l-0.4,1.3l-4.1-1.2l0.4-1.2l0.6,0.2l0,0
					c-0.3-0.3-0.5-0.8-0.3-1.4c0.4-1.3,1.3-1.3,2.4-1L130,45.5z"/>
			</g>
		</g>
		<g>
			<path fill="#515050" d="M145.8,65.5c1.4,0.1,2.8,0.8,3.8,2c1.3,1.6,1.5,3.7,0.8,5.5c0.8,0.4,1.5,1,2.1,1.7c2.3,2.8,1.9,7-1,9.4
				c-2.9,2.3-7.1,1.9-9.4-0.9c-0.3-0.3-0.5-0.7-0.7-1.1c-1.7,0.3-3.5-0.3-4.6-1.7c-0.5-0.6-0.8-1.3-1-2c-2.1,0.6-4.4-0.1-5.8-1.8
				c-1.5-1.9-1.6-4.4-0.5-6.3c-0.3-0.2-0.5-0.5-0.8-0.8c-1.8-2.2-1.4-5.5,0.8-7.3c1.5-1.2,3.4-1.5,5.1-0.8c0.4-0.7,0.9-1.3,1.5-1.9
				c2.6-2.1,6.3-1.7,8.4,0.9C145.8,61.8,146.2,63.7,145.8,65.5"/>
			<path fill="#FFFFFF" d="M133.6,64.6C133.6,64.6,133.6,64.6,133.6,64.6c0,0.1,0,0.2,0,0.3c0.1,0.3,0.2,0.6,0.4,0.9
				c0.4,0.5,0.9,0.6,1.3,0.2l0,0c0.4-0.3,0.3-0.8,0.1-1.2l0-0.1c-0.1-0.3-0.2-0.6-0.1-0.7l0,0c0.1-0.1,0.3-0.1,0.5,0.1
				c0.2,0.2,0.3,0.5,0.3,0.8c0,0,0,0.1,0.1,0.1c0,0,0.3-0.1,0.3-0.1c0,0,0,0,0-0.1c0-0.3-0.2-0.6-0.4-0.9l0,0
				c-0.4-0.4-0.9-0.5-1.3-0.2l0,0c-0.4,0.3-0.3,0.8-0.1,1.2l0,0.1c0.1,0.3,0.2,0.5,0.1,0.7l0,0c-0.2,0.1-0.4,0.1-0.5-0.1
				c-0.1-0.1-0.3-0.3-0.3-0.8c0-0.1,0-0.1,0-0.1c0,0,0-0.1-0.1,0L133.6,64.6z"/>
			<path fill="#FFFFFF" d="M139.5,71.7C139.4,71.8,139.4,71.8,139.5,71.7c0,0.1,0,0.2,0,0.3c0.1,0.3,0.2,0.6,0.4,0.9
				c0.4,0.5,0.9,0.6,1.3,0.2l0,0c0.4-0.3,0.3-0.8,0.1-1.2l0-0.1c-0.1-0.3-0.2-0.6-0.1-0.7l0,0c0.1-0.1,0.3-0.1,0.5,0.1
				c0.2,0.2,0.3,0.5,0.3,0.8c0,0,0,0.1,0.1,0.1c0,0,0.3-0.1,0.3-0.1c0,0,0,0,0-0.1c0-0.3-0.2-0.6-0.4-0.9l0,0
				c-0.4-0.4-0.9-0.5-1.3-0.2l0,0c-0.4,0.3-0.3,0.8-0.1,1.2l0,0.1c0.1,0.3,0.2,0.5,0.1,0.7l0,0c-0.2,0.1-0.4,0.1-0.5-0.1
				c-0.1-0.1-0.3-0.3-0.3-0.8c0-0.1,0-0.1,0-0.1c0,0,0-0.1-0.1,0L139.5,71.7z"/>
			<path fill="#FFFFFF" d="M145,76c0.1-0.2,0.2-0.3,0.2-0.5c0-0.2,0-0.3,0-0.5c0-0.2-0.1-0.3-0.3-0.5c-0.1-0.2-0.3-0.3-0.4-0.4
				c-0.2-0.1-0.3-0.1-0.5-0.1c-0.2,0-0.3,0-0.5,0.1c-0.2,0.1-0.3,0.2-0.5,0.3c-0.2,0.1-0.3,0.3-0.4,0.4c-0.1,0.2-0.2,0.3-0.2,0.5
				c0,0.2,0,0.3,0,0.5c0,0.2,0.1,0.3,0.3,0.5c0.1,0.2,0.3,0.3,0.4,0.4c0.2,0.1,0.3,0.1,0.5,0.1c0.2,0,0.3,0,0.5-0.1
				c0.2-0.1,0.3-0.2,0.5-0.3C144.8,76.3,144.9,76.2,145,76 M144.3,76c-0.2,0.2-0.5,0.3-0.7,0.3c-0.2,0-0.4-0.1-0.5-0.2
				c-0.1-0.2-0.2-0.4-0.1-0.6c0.1-0.2,0.2-0.4,0.5-0.6c0.2-0.2,0.5-0.3,0.7-0.3c0.2,0,0.4,0.1,0.5,0.2c0.1,0.2,0.2,0.4,0.1,0.6
				C144.6,75.6,144.5,75.8,144.3,76"/>
			<path fill-rule="evenodd" clip-rule="evenodd" fill="#FFFFFF" d="M146.6,80.3C146.7,80.3,146.6,80.2,146.6,80.3
				c-0.1-0.1-0.2-0.2-0.2-0.2c-0.1-0.1-0.1-0.1-0.2-0.2c-0.2-0.2-0.2-0.4-0.2-0.6c0-0.2,0.2-0.4,0.4-0.6c0.2-0.2,0.5-0.3,0.7-0.3
				c0.2,0,0.4,0.1,0.6,0.3c0.1,0.2,0.2,0.3,0.3,0.5c0,0,0,0,0.1,0c0.1,0,0.2-0.1,0.4-0.1c0,0,0-0.1,0-0.1c0-0.1-0.1-0.2-0.2-0.3
				c-0.1-0.1-0.1-0.2-0.2-0.3c-0.1-0.2-0.3-0.3-0.5-0.4c-0.2-0.1-0.3-0.1-0.5-0.1c-0.2,0-0.3,0-0.5,0.1c-0.2,0.1-0.3,0.2-0.5,0.3
				c-0.3,0.3-0.5,0.6-0.6,0.9c-0.1,0.3,0.1,0.7,0.4,1.1c0.2,0.2,0.4,0.4,0.6,0.5c0,0,0,0,0.1,0L146.6,80.3z"/>
			<path fill-rule="evenodd" clip-rule="evenodd" fill="#FFFFFF" d="M149.5,81.4c0.1-0.1,0.2-0.3,0.2-0.4c0-0.2,0-0.3,0-0.4
				c0-0.2-0.1-0.3-0.2-0.5c-0.1-0.2-0.3-0.3-0.5-0.4c-0.2-0.1-0.3-0.1-0.5-0.1c-0.2,0-0.3,0-0.5,0.1c-0.2,0.1-0.3,0.2-0.5,0.3
				c-0.2,0.1-0.3,0.3-0.4,0.4c-0.1,0.2-0.2,0.3-0.2,0.5c0,0.2,0,0.4,0.1,0.5c0.1,0.2,0.2,0.4,0.3,0.6c0.3,0.4,0.6,0.5,0.7,0.6
				c0,0,0,0,0.1,0l0.2-0.3c0,0,0-0.1,0-0.1c-0.1-0.1-0.3-0.2-0.6-0.5c-0.2-0.2-0.2-0.4-0.2-0.6c0-0.2,0.1-0.4,0.3-0.5l1.1,1.4
				c0,0,0,0,0.1,0C149,81.9,149.3,81.8,149.5,81.4 M148.1,80.3c0.1-0.1,0.3-0.1,0.4-0.2c0.2,0,0.4,0.1,0.5,0.2
				c0.1,0.2,0.2,0.4,0.1,0.6c0,0.1-0.1,0.2-0.3,0.4L148.1,80.3z"/>
			<path fill-rule="evenodd" clip-rule="evenodd" fill="#FFFFFF" d="M140.5,70.3c0.1-0.1,0.2-0.3,0.2-0.4c0-0.2,0-0.3,0-0.4
				c0-0.2-0.1-0.3-0.2-0.5c-0.1-0.2-0.3-0.3-0.5-0.4c-0.2-0.1-0.3-0.1-0.5-0.1c-0.2,0-0.3,0-0.5,0.1c-0.2,0.1-0.3,0.2-0.5,0.3
				c-0.2,0.1-0.3,0.3-0.4,0.4c-0.1,0.2-0.2,0.3-0.2,0.5c0,0.2,0,0.4,0.1,0.5c0.1,0.2,0.2,0.4,0.3,0.6c0.3,0.4,0.6,0.5,0.7,0.6
				c0,0,0,0,0.1,0l0.2-0.3c0,0,0-0.1,0-0.1c-0.1-0.1-0.3-0.2-0.6-0.5c-0.2-0.2-0.2-0.4-0.2-0.6c0-0.2,0.1-0.4,0.3-0.5l1.1,1.4
				c0,0,0,0,0.1,0C140,70.8,140.3,70.7,140.5,70.3 M139.1,69.2c0.1-0.1,0.3-0.1,0.4-0.2c0.2,0,0.4,0.1,0.5,0.2s0.2,0.4,0.1,0.6
				c0,0.1-0.1,0.2-0.3,0.4L139.1,69.2z"/>
			<path fill="#FFFFFF" d="M137.2,66.7c0-0.1-0.1-0.1-0.2-0.2c-0.1-0.1-0.2-0.2-0.3-0.3c-0.1-0.1-0.2-0.1-0.4-0.2
				c-0.1,0-0.3,0-0.4,0c-0.1,0-0.3,0.1-0.4,0.2c-0.1,0.1-0.2,0.2-0.3,0.3c-0.1,0.1-0.1,0.2-0.1,0.4c0,0.1,0,0.3,0.1,0.4
				c0.1,0.1,0.2,0.3,0.3,0.4c0.1,0.1,0.2,0.3,0.4,0.4c0.1,0.1,0.3,0.3,0.4,0.3c0,0,0.1,0.1,0.1,0.1c0,0,0.1,0,0.1,0l1.3-1
				c0.3-0.2,0.4-0.5,0.4-0.7c0-0.2-0.1-0.5-0.3-0.8c-0.1-0.1-0.2-0.3-0.3-0.3c0,0-0.3-0.3-0.5-0.3c0,0,0,0-0.1,0l-0.2,0.3
				c0,0,0,0.1,0,0.1s0,0,0,0c0.4,0.1,0.6,0.5,0.6,0.5c0.1,0.1,0.2,0.3,0.2,0.4c0,0.1-0.1,0.2-0.2,0.4l-0.1,0
				C137.3,66.8,137.2,66.7,137.2,66.7 M135.8,66.9c0-0.1,0-0.1,0-0.1c0-0.1,0.1-0.1,0.1-0.2c0.1-0.1,0.2-0.1,0.4-0.1
				c0,0,0.2,0,0.4,0.3c0.2,0.2,0.3,0.4,0.3,0.4l-0.6,0.5c0,0-0.2-0.1-0.4-0.3C135.8,67.1,135.8,66.9,135.8,66.9"/>
			<path fill-rule="evenodd" clip-rule="evenodd" fill="#FFFFFF" d="M147,77.3C147,77.3,147,77.2,147,77.3c0-0.1,0-0.2-0.1-0.3
				c-0.1-0.2-0.2-0.3-0.3-0.3c-0.1-0.1-0.2-0.1-0.4-0.1l0.2-0.1c0,0,0-0.1,0-0.1l-0.3-0.4c0,0-0.1,0-0.1,0l-2.1,1.7c0,0,0,0.1,0,0.1
				l0.3,0.4c0,0,0.1,0,0.1,0l1-0.8c0.1-0.1,0.3-0.2,0.4-0.2c0.1,0,0.2-0.1,0.3,0s0.2,0,0.2,0.1c0.1,0,0.1,0.1,0.2,0.2
				c0.1,0.1,0.1,0.2,0.1,0.2c0,0,0,0,0.1,0C146.7,77.4,146.9,77.3,147,77.3"/>
			<path fill-rule="evenodd" clip-rule="evenodd" fill="#FFFFFF" d="M145.2,73.1c0-0.1,0-0.1-0.1-0.2c0-0.1-0.1-0.1-0.1-0.2
				c-0.2-0.3-0.4-0.4-0.7-0.4c-0.3,0-0.5,0.1-0.9,0.2l-0.1,0.1l-0.3-0.3c0,0,0,0-0.1,0l-0.3,0.2c0,0,0,0,0,0.1l0.2,0.3l-2,1.1
				c-0.2,0.1-0.3,0.2-0.4,0.2c-0.1,0-0.2,0.1-0.3,0.1c-0.1,0-0.1,0-0.2,0c-0.1,0-0.1-0.1-0.2-0.1c0,0-0.1-0.1-0.1-0.1
				c0,0,0-0.1,0-0.1c0,0,0,0-0.1,0c0,0-0.3,0.1-0.4,0.1c0,0,0,0,0,0.1c0,0.1,0,0.1,0.1,0.2c0,0.1,0.1,0.2,0.1,0.2
				c0.1,0.1,0.2,0.2,0.3,0.3c0.1,0.1,0.2,0.1,0.4,0.1c0.2,0,0.3,0,0.5-0.1c0.2-0.1,0.4-0.1,0.6-0.3l2-1.1l0.4,0.5c0,0,0,0,0.1,0
				l0.3-0.2c0,0,0,0,0-0.1l-0.4-0.4c0,0,0.2-0.1,0.4-0.2c0.1,0,0.2,0,0.2,0c0.1,0,0.1,0,0.2,0.1c0,0,0.1,0.1,0.1,0.1
				c0,0,0.1,0.1,0.1,0.1c0,0.1,0,0.1,0,0.1c0,0.1,0,0.1,0.1,0L145.2,73.1C145.2,73.1,145.2,73.1,145.2,73.1"/>
			<path fill-rule="evenodd" clip-rule="evenodd" fill="#FFFFFF" d="M137.2,69.3C137.1,69.3,137.1,69.3,137.2,69.3l-0.4-0.4
				c0,0,0-0.1,0-0.1l3-2.4c0,0,0.1,0,0.1,0l0.3,0.4c0,0,0,0.1,0,0.1L137.2,69.3z"/>
		</g>
		<g id="fb_25_">
			<g>
				<g>
					<path fill="#515050" d="M112.3,61.8l-3.3,0c-0.4,0-0.9,0.5-0.9,1.3v2.1h4.2v4.1l-4.1,0l0,10l-4.2,0l0-10.1h-3.3v-4.1l3.3,0v-2
						c0-3,2.2-5.4,4.9-5.4l3.3,0V61.8z"/>
				</g>
			</g>
		</g>
		
			<rect x="90.5" y="74.1" transform="matrix(-1 -4.485535e-011 4.485535e-011 -1 249.3266 208.0793)" fill="#FDB813" width="68.2" height="59.9"/>
		
			<rect x="90.5" y="74.1" transform="matrix(-1 -4.488244e-011 4.488244e-011 -1 209.6084 208.0793)" fill="#F58B21" width="28.5" height="59.9"/>
		<path fill="#04AF91" d="M113.4,117.4c-39-31.1-52-53.7-52.3-54l0,0L64.8,51c0,0,1,1.6,3.2,4.7c2.2,3.1,5.6,7.5,10.1,13
			c9.1,10.8,23,25.5,41.9,40.5L113.4,117.4z"/>
		<path fill="#6E573E" d="M117.8,120.8l0.2,0.1c2.3,1.8,5.7,1.5,7.5-0.8c1.8-2.3,1.4-5.6-0.9-7.5l-0.2-0.1l0,0l-4.3-3.5l-6.6,8.3
			L117.8,120.8L117.8,120.8z"/>
		<path fill="#1B1C1C" d="M81.5,35.6c0,0-24.6,4.5-20.1,29C61.4,64.6,85.9,60.2,81.5,35.6"/>
	</g>
</g>
</svg>
