<?xml version="1.0" encoding="utf-8"?>
<!-- Generator: Adobe Illustrator 19.2.1, SVG Export Plug-In . SVG Version: 6.00 Build 0)  -->
<svg version="1.1" xmlns="http://www.w3.org/2000/svg" xmlns:xlink="http://www.w3.org/1999/xlink" x="0px" y="0px"
	 viewBox="0 0 240 304" enable-background="new 0 0 240 304" xml:space="preserve">
<g id="MFA_with_mobile_problem">
	<g>
		<path opacity="0.1" d="M149.8,286.8c-0.5,0-0.9,0.1-1.3,0.1v-0.1H15.8v0.1c-5.3,0.5-9.5,4.2-9.5,8.6c0,4.8,4.8,8.7,10.8,8.7
			c0.8,0,132,0,132.7,0c6,0,10.8-3.9,10.8-8.7C160.6,290.7,155.8,286.8,149.8,286.8"/>
		<path fill="#6E573E" d="M157.3,122.5c0.1,0,0.2,0,0.2,0.1c3.4,0.4,6.4-1.9,6.9-5.2c0.4-3.3-2-6.4-5.3-6.8c-0.1,0-0.2,0-0.2,0l0,0
			l-6.3-0.8l-1.5,12.1L157.3,122.5L157.3,122.5z"/>
		<path fill="#FDB813" d="M152.9,124l2.1-16.4c-25.3-3.2-39.8-17.4-51.4-28.8c-8.1-8-15.1-14.9-24.1-16l-2.1,16.4
			c3.4,0.4,8.8,5.7,14.5,11.4C104.6,103,122,120.1,152.9,124z"/>
		<path fill="#F68C1F" d="M77.4,79.2l0.7-5.2c6.1,3.3,11.7,8.8,17.8,14.8c13,12.7,29.1,28.6,57.4,32.1l-0.4,3
			c-30.9-3.9-48.2-20.9-60.9-33.4C86.2,84.9,80.8,79.6,77.4,79.2z"/>
		<path fill="#FDB813" d="M24.3,277.3l0.2,0.2v8.3v9.8h8.3v-3.1h5.7l2.8,3.1h20.1h4h4.3v-3.1h5.7l2.8,3.1h24.1v-9.8l-22.9-4.8
			l-4.3-114.9l8.2-0.9l-12.7-49.6l8.2-38.9l1.6-15.2l-19.3-6.7H43.1l-17.3,4.2l6.2,55.1l-13,51.1l0,0l9.6-0.1l-4,112.1L24.3,277.3z
			 M42.6,281.1l6.9-108.2h2.7l9.2,104.5l-0.2,0l0.2,0.2v7.5L42.6,281.1z"/>
		<path fill="#6E573E" d="M42.7,26.5C42.7,12.5,54,6.6,68,6.6l6.3,25.6h-4.4l-2.8,13.8c0,0-5.1,0-7.5-0.8l0.9,12l-6.4,27.3L45,57.2
			V37.1C43.5,33.8,42.7,30.3,42.7,26.5z"/>
		<circle fill="#FFFFFF" cx="68.2" cy="24.6" r="1.1"/>
		<g>
			<path fill="#F68C1F" d="M24.3,277.3l0.2,0.2v8.3v9.8h8.3v-3.1h5.7l2.8,3.1h20.1h4h4.3v-3.1h5.7l2.8,3.1h24.1v-9.8l-22.9-4.8
				l-0.7-114.9l-24.4-0.8l-2.7-18.3l-4.4,17.2l-23,0.9l0.2,112.1L24.3,277.3z M42.6,281.1l6.9-108.2h2.7l9.2,104.5l-0.2,0l0.2,0.2
				v7.5L42.6,281.1z"/>
		</g>
		<path fill="#6E573E" d="M17.9,138.8c0.1,0.1,0.1,0.1,0.2,0.2c2.4,2.4,6.2,2.5,8.6,0.2c2.4-2.3,2.4-6.2,0.1-8.6
			c-0.1-0.1-0.1-0.1-0.2-0.2l0,0l-4.4-4.6l-8.7,8.5L17.9,138.8L17.9,138.8z"/>
		<polygon fill="#F68C1F" points="41,53.4 45.6,53.4 52.2,79.4 60.1,53.4 63.3,53.4 66.6,64.5 64.2,66.9 66.6,69.3 52.2,114.2 
			37.8,69.3 40.2,66.9 37.8,64.5 		"/>
		<polygon fill="#FFFFFF" points="48.2,54.9 52.1,65.6 57.2,54.9 61.4,51.5 61.4,60.2 52.2,97.3 43,60.2 43,51.5 		"/>
		<g>
			<path fill="#FDB813" d="M14,137.5L25.9,126c-6-6.2-9.3-14.3-9.4-22.9C16.4,90.3,23.5,78.7,35,73l-2.7-14.7
				c-0.6,0.3-6,0.5-6.6,0.9C9.6,68-0.2,84.7,0,103.2C0.1,116.1,5,128.3,14,137.5z"/>
		</g>
		<polygon fill="#F68C1F" points="26.6,148.7 45.9,142.4 45.9,137.1 26.6,143.4 		"/>
		<polygon fill="#F68C1F" points="75.6,148.7 56.3,142.4 56.3,137.1 75.6,143.4 		"/>
		<circle fill="#F68C1F" cx="52.2" cy="128.5" r="1.9"/>
		<polygon fill="#FDB813" points="40.2,66.9 52.2,79.4 66.6,64.5 75,66.9 67.5,125.3 35,124.5 29.7,68.3 		"/>
		<g>
			<rect x="44.8" y="93.4" fill="#FFFFFF" width="2.9" height="13.7"/>
			<polygon fill="#FFFFFF" points="60.5,95.6 56.5,95.6 56.5,107.1 53.7,107.1 53.7,95.6 49.7,95.6 49.7,93.4 60.5,93.4 			"/>
			<path fill="#FFFFFF" d="M65.1,107.7L52,115.4l-13.5-7.7V92.5l13.2-7.7l13.5,7.7V107.7z M51.7,82.2l-15.5,8.9v18L52,118l15.5-8.9
				v-18L51.7,82.2z"/>
		</g>
		<path fill="#1B1C1C" d="M46,34.5c0,0-25.6,2.3-23.3,27.8C22.7,62.3,48.3,60.1,46,34.5"/>
		<path fill="#1B1C1C" d="M69.6,11.7C70.9,4.8,62.7-2,56.5,0.3c-1.9,0.7-3.2,0.8-5.3,0.5c-1.7-0.3-3-0.3-4.6,0.3
			c-1.6,0.6-3,3-3.2,5.2c-4.6,1.1-6.7,6.8-6.7,6.8C31.8,39.1,46,34.5,46,34.5c-0.7-1.5-1.1-7.2-1.1-7.2l-0.1,0
			c2.5-3.2,3.8-7.3,4.4-9.8c0.2-0.1,0.4-0.2,0.6-0.4c2.7-1.8,4.3-0.9,7.4-0.5c3.8,0.5,10.2-0.9,12.3-4.6l0.1,0
			C69.6,11.8,69.6,11.8,69.6,11.7L69.6,11.7L69.6,11.7"/>
		<polygon fill="#4F504F" points="157.1,115.8 238.3,49.1 240,51 160,119.3 		"/>
	</g>
</g>
<g id="desktop_management_problem">
</g>
</svg>
